M48
; DRILL file {KiCad 9.0.5} date 2025-10-28T09:48:51+0100
; FORMAT={-:-/ absolute / inch / decimal}
; #@! TF.CreationDate,2025-10-28T09:48:51+01:00
; #@! TF.GenerationSoftware,Kicad,Pcbnew,9.0.5
; #@! TF.FileFunction,Plated,1,2,PTH
FMAT,2
INCH
; #@! TA.AperFunction,Plated,PTH,ViaDrill
T1C0.0157
; #@! TA.AperFunction,Plated,PTH,ComponentDrill
T2C0.0335
; #@! TA.AperFunction,Plated,PTH,ComponentDrill
T3C0.0374
; #@! TA.AperFunction,Plated,PTH,ComponentDrill
T4C0.0394
%
G90
G05
T1
X2.4597Y-5.7886
X2.4632Y-5.6189
X2.49Y-5.3377
X2.52Y-5.9577
X2.5274Y-5.1091
X2.5628Y-6.1244
X2.7471Y-4.7055
X2.8361Y-5.5756
X2.84Y-6.5677
X2.8573Y-4.5658
X3.0195Y-4.4244
X3.0282Y-6.7048
X3.15Y-6.8377
X3.1778Y-4.3264
X3.1786Y-5.7055
X3.2376Y-6.2292
X3.3164Y-6.9051
X3.3242Y-4.6819
X3.33Y-4.2577
X3.3518Y-5.5874
X3.5014Y-5.4811
X3.5349Y-4.1571
X3.5368Y-6.615
X3.6707Y-4.93
X3.7376Y-4.0969
X3.7734Y-6.318
X3.88Y-5.0177
X3.899Y-6.9536
X3.9857Y-6.3315
X3.9896Y-4.2882
X3.9896Y-4.4693
X4.0172Y-6.5166
X4.0723Y-4.7055
X4.1628Y-5.2016
X4.2179Y-5.8394
X4.2494Y-4.1311
X4.25Y-7.0977
X4.3321Y-4.6189
X4.3321Y-6.2685
X4.4152Y-4.1902
X4.4463Y-4.552
X4.4502Y-5.1268
X4.48Y-5.0277
X4.5Y-7.0177
X4.5408Y-5.1268
X4.5762Y-4.2528
X4.6156Y-5.4851
X4.6156Y-5.6071
X4.6195Y-4.5953
X4.655Y-4.9811
X4.7376Y-4.737
X4.7927Y-4.9851
X4.8124Y-5.5362
X4.8872Y-4.4103
X5.025Y-4.552
X5.12Y-4.7177
X5.155Y-6.5441
X5.22Y-5.5377
X5.2439Y-5.9579
X5.38Y-5.1077
X5.3947Y-5.4496
X5.41Y-6.0977
X5.49Y-5.6177
T2
X3.5644Y-5.1567
X3.5644Y-6.0622
X3.8794Y-5.1567
X3.8794Y-6.0622
X4.7849Y-5.1567
X4.7849Y-6.0622
X5.0998Y-5.1567
X5.0998Y-6.0622
T3
X4.4345Y-6.804
X4.4384Y-6.4221
X4.5329Y-6.804
X4.5368Y-6.4221
X4.54Y-4.552
X4.54Y-4.6504
X4.54Y-4.7488
X4.54Y-4.8473
X4.6313Y-6.804
X4.6353Y-6.4221
X4.7298Y-6.804
X4.7337Y-6.4221
X4.8203Y-4.6386
X4.8203Y-4.737
X4.8203Y-4.8355
T4
X3.8699Y-4.1048
X3.87Y-7.1477
X3.9699Y-4.1048
X3.97Y-7.1477
X4.0699Y-4.1048
X4.07Y-7.1477
M30
