G04 #@! TF.GenerationSoftware,KiCad,Pcbnew,9.0.5*
G04 #@! TF.CreationDate,2025-10-28T09:48:45+01:00*
G04 #@! TF.ProjectId,StepperClockMotor,53746570-7065-4724-936c-6f636b4d6f74,v1.2*
G04 #@! TF.SameCoordinates,Original*
G04 #@! TF.FileFunction,Soldermask,Top*
G04 #@! TF.FilePolarity,Negative*
%FSLAX46Y46*%
G04 Gerber Fmt 4.6, Leading zero omitted, Abs format (unit mm)*
G04 Created by KiCad (PCBNEW 9.0.5) date 2025-10-28 09:48:45*
%MOMM*%
%LPD*%
G01*
G04 APERTURE LIST*
G04 Aperture macros list*
%AMRoundRect*
0 Rectangle with rounded corners*
0 $1 Rounding radius*
0 $2 $3 $4 $5 $6 $7 $8 $9 X,Y pos of 4 corners*
0 Add a 4 corners polygon primitive as box body*
4,1,4,$2,$3,$4,$5,$6,$7,$8,$9,$2,$3,0*
0 Add four circle primitives for the rounded corners*
1,1,$1+$1,$2,$3*
1,1,$1+$1,$4,$5*
1,1,$1+$1,$6,$7*
1,1,$1+$1,$8,$9*
0 Add four rect primitives between the rounded corners*
20,1,$1+$1,$2,$3,$4,$5,0*
20,1,$1+$1,$4,$5,$6,$7,0*
20,1,$1+$1,$6,$7,$8,$9,0*
20,1,$1+$1,$8,$9,$2,$3,0*%
G04 Aperture macros list end*
%ADD10C,1.200000*%
%ADD11RoundRect,0.250000X0.725000X-0.600000X0.725000X0.600000X-0.725000X0.600000X-0.725000X-0.600000X0*%
%ADD12O,1.950000X1.700000*%
%ADD13RoundRect,0.250000X-0.600000X-0.725000X0.600000X-0.725000X0.600000X0.725000X-0.600000X0.725000X0*%
%ADD14O,1.700000X1.950000*%
%ADD15RoundRect,0.250000X0.600000X0.725000X-0.600000X0.725000X-0.600000X-0.725000X0.600000X-0.725000X0*%
%ADD16RoundRect,0.250000X-0.725000X0.600000X-0.725000X-0.600000X0.725000X-0.600000X0.725000X0.600000X0*%
%ADD17C,2.700000*%
%ADD18C,3.500000*%
%ADD19C,3.000000*%
%ADD20C,6.000000*%
%ADD21C,2.000000*%
%ADD22R,1.700000X1.700000*%
%ADD23C,1.700000*%
G04 APERTURE END LIST*
D10*
X124435800Y-124420740D03*
D11*
X122435800Y-122820740D03*
D12*
X122435800Y-120320740D03*
X122435800Y-117820740D03*
D13*
X112735800Y-163120740D03*
D14*
X115235800Y-163120740D03*
X117735800Y-163120740D03*
X120235800Y-163120740D03*
D15*
X120135800Y-172820740D03*
D14*
X117635800Y-172820740D03*
X115135800Y-172820740D03*
X112635800Y-172820740D03*
D16*
X115315800Y-115620740D03*
D12*
X115315800Y-118120740D03*
X115315800Y-120620740D03*
X115315800Y-123120740D03*
D17*
X68865800Y-124750740D03*
X132185800Y-124750740D03*
X68865800Y-161030740D03*
D18*
X85045800Y-133920740D03*
D19*
X94535800Y-128980740D03*
X94535800Y-155980740D03*
D20*
X100535800Y-142920740D03*
D18*
X110045800Y-154920740D03*
D19*
X125535800Y-128980740D03*
X125535800Y-155980740D03*
D18*
X135045800Y-133920740D03*
D21*
X129535800Y-130980740D03*
X121535800Y-130980740D03*
X98535800Y-130980740D03*
X90535800Y-130980740D03*
X90535800Y-153980740D03*
X98535800Y-153980740D03*
X121535800Y-153980740D03*
X129535800Y-153980740D03*
D17*
X132185800Y-161030740D03*
D22*
X103375800Y-104260740D03*
D23*
X100835800Y-104260740D03*
X98295800Y-104260740D03*
D22*
X103377800Y-181550740D03*
D23*
X100837800Y-181550740D03*
X98297800Y-181550740D03*
M02*
