G04 #@! TF.GenerationSoftware,KiCad,Pcbnew,9.0.5*
G04 #@! TF.CreationDate,2025-10-28T09:48:45+01:00*
G04 #@! TF.ProjectId,StepperClockMotor,53746570-7065-4724-936c-6f636b4d6f74,v1.2*
G04 #@! TF.SameCoordinates,Original*
G04 #@! TF.FileFunction,Copper,L2,Bot*
G04 #@! TF.FilePolarity,Positive*
%FSLAX46Y46*%
G04 Gerber Fmt 4.6, Leading zero omitted, Abs format (unit mm)*
G04 Created by KiCad (PCBNEW 9.0.5) date 2025-10-28 09:48:45*
%MOMM*%
%LPD*%
G01*
G04 APERTURE LIST*
G04 Aperture macros list*
%AMRoundRect*
0 Rectangle with rounded corners*
0 $1 Rounding radius*
0 $2 $3 $4 $5 $6 $7 $8 $9 X,Y pos of 4 corners*
0 Add a 4 corners polygon primitive as box body*
4,1,4,$2,$3,$4,$5,$6,$7,$8,$9,$2,$3,0*
0 Add four circle primitives for the rounded corners*
1,1,$1+$1,$2,$3*
1,1,$1+$1,$4,$5*
1,1,$1+$1,$6,$7*
1,1,$1+$1,$8,$9*
0 Add four rect primitives between the rounded corners*
20,1,$1+$1,$2,$3,$4,$5,0*
20,1,$1+$1,$4,$5,$6,$7,0*
20,1,$1+$1,$6,$7,$8,$9,0*
20,1,$1+$1,$8,$9,$2,$3,0*%
G04 Aperture macros list end*
G04 #@! TA.AperFunction,ComponentPad*
%ADD10RoundRect,0.250000X0.725000X-0.600000X0.725000X0.600000X-0.725000X0.600000X-0.725000X-0.600000X0*%
G04 #@! TD*
G04 #@! TA.AperFunction,ComponentPad*
%ADD11O,1.950000X1.700000*%
G04 #@! TD*
G04 #@! TA.AperFunction,ComponentPad*
%ADD12RoundRect,0.250000X-0.600000X-0.725000X0.600000X-0.725000X0.600000X0.725000X-0.600000X0.725000X0*%
G04 #@! TD*
G04 #@! TA.AperFunction,ComponentPad*
%ADD13O,1.700000X1.950000*%
G04 #@! TD*
G04 #@! TA.AperFunction,ComponentPad*
%ADD14RoundRect,0.250000X0.600000X0.725000X-0.600000X0.725000X-0.600000X-0.725000X0.600000X-0.725000X0*%
G04 #@! TD*
G04 #@! TA.AperFunction,ComponentPad*
%ADD15RoundRect,0.250000X-0.725000X0.600000X-0.725000X-0.600000X0.725000X-0.600000X0.725000X0.600000X0*%
G04 #@! TD*
G04 #@! TA.AperFunction,ComponentPad*
%ADD16C,2.000000*%
G04 #@! TD*
G04 #@! TA.AperFunction,SMDPad,CuDef*
%ADD17RoundRect,0.225000X-0.225000X-0.250000X0.225000X-0.250000X0.225000X0.250000X-0.225000X0.250000X0*%
G04 #@! TD*
G04 #@! TA.AperFunction,SMDPad,CuDef*
%ADD18R,0.900000X0.800000*%
G04 #@! TD*
G04 #@! TA.AperFunction,ComponentPad*
%ADD19R,1.700000X1.700000*%
G04 #@! TD*
G04 #@! TA.AperFunction,ComponentPad*
%ADD20C,1.700000*%
G04 #@! TD*
G04 #@! TA.AperFunction,SMDPad,CuDef*
%ADD21C,1.000000*%
G04 #@! TD*
G04 #@! TA.AperFunction,ViaPad*
%ADD22C,0.800000*%
G04 #@! TD*
G04 #@! TA.AperFunction,Conductor*
%ADD23C,0.250000*%
G04 #@! TD*
G04 APERTURE END LIST*
D10*
X122435800Y-122820740D03*
D11*
X122435800Y-120320740D03*
X122435800Y-117820740D03*
D12*
X112735800Y-163120740D03*
D13*
X115235800Y-163120740D03*
X117735800Y-163120740D03*
X120235800Y-163120740D03*
D14*
X120135800Y-172820740D03*
D13*
X117635800Y-172820740D03*
X115135800Y-172820740D03*
X112635800Y-172820740D03*
D15*
X115315800Y-115620740D03*
D11*
X115315800Y-118120740D03*
X115315800Y-120620740D03*
X115315800Y-123120740D03*
D16*
X129535800Y-130980740D03*
X121535800Y-130980740D03*
X98535800Y-130980740D03*
X90535800Y-130980740D03*
X90535800Y-153980740D03*
X98535800Y-153980740D03*
X121535800Y-153980740D03*
X129535800Y-153980740D03*
D17*
X128820800Y-146860740D03*
X130370800Y-146860740D03*
X118780800Y-146860740D03*
X120330800Y-146860740D03*
D18*
X128635800Y-144360740D03*
X130635800Y-143410740D03*
X128635800Y-142460740D03*
X118815800Y-144400740D03*
X120815800Y-143450740D03*
X118815800Y-142500740D03*
D19*
X103375800Y-104260740D03*
D20*
X100835800Y-104260740D03*
X98295800Y-104260740D03*
D19*
X103377800Y-181550740D03*
D20*
X100837800Y-181550740D03*
X98297800Y-181550740D03*
D21*
X74735800Y-114620740D03*
X88835800Y-179320740D03*
X138835800Y-140320740D03*
D22*
X112935800Y-115620740D03*
X116235800Y-108020740D03*
X62565800Y-142720740D03*
X107935800Y-104930740D03*
X84235800Y-175390740D03*
X88935800Y-139220740D03*
X62475800Y-147030740D03*
X110035800Y-159220740D03*
X127635800Y-115620740D03*
X98551800Y-127448740D03*
X102035800Y-165520740D03*
X72575800Y-115970740D03*
X124135800Y-112020740D03*
X110035800Y-117320740D03*
X114299800Y-178248740D03*
X64195800Y-129770740D03*
X139445800Y-142688740D03*
X65095800Y-155560740D03*
X136651800Y-129734740D03*
X99035800Y-176620740D03*
X107949800Y-180280740D03*
X76915800Y-170300740D03*
X137025800Y-138420740D03*
X95845320Y-160476416D03*
X113791800Y-127702740D03*
X101235800Y-160820740D03*
X64007800Y-151324740D03*
X107135800Y-148320740D03*
X130047800Y-119828740D03*
X94935800Y-104060740D03*
X80009800Y-173676740D03*
X133195800Y-151330740D03*
X63245800Y-135576740D03*
X105735800Y-132120740D03*
X103435800Y-119520740D03*
X89785800Y-105590740D03*
X137413800Y-154880740D03*
X84435800Y-118920740D03*
X69775800Y-119520740D03*
X112145800Y-106430740D03*
X80715800Y-109890740D03*
X89835800Y-168020740D03*
X117335800Y-116720740D03*
X84581800Y-108144740D03*
X85135800Y-141920740D03*
X122235800Y-140620740D03*
X72035800Y-141620740D03*
X82235800Y-158220740D03*
X80735800Y-144920740D03*
X120335800Y-120320740D03*
X72135800Y-166818740D03*
X76695800Y-112380740D03*
X130935800Y-166220740D03*
X93235800Y-125220740D03*
X113035800Y-130220740D03*
X132587800Y-140656740D03*
X118235800Y-126520740D03*
X121735800Y-126620740D03*
X101335800Y-108920740D03*
X101335800Y-113520740D03*
X117235800Y-139320740D03*
X115335800Y-130220740D03*
X117235800Y-142420740D03*
D23*
X118815800Y-141850740D02*
X118815800Y-142500740D01*
X117585800Y-140620740D02*
X118815800Y-141850740D01*
X116035800Y-140620740D02*
X117585800Y-140620740D01*
X113035800Y-130220740D02*
X113035800Y-137620740D01*
X113035800Y-137620740D02*
X116035800Y-140620740D01*
X118235800Y-126520740D02*
X121635800Y-126520740D01*
X128635800Y-142460740D02*
X130783800Y-142460740D01*
X130783800Y-142460740D02*
X132587800Y-140656740D01*
X121635800Y-126520740D02*
X121735800Y-126620740D01*
X101335800Y-113520740D02*
X101335800Y-112955055D01*
X101335800Y-112955055D02*
X101335800Y-108920740D01*
X115335800Y-130220740D02*
X115335800Y-137420740D01*
X118815800Y-144400740D02*
X128595800Y-144400740D01*
X128635800Y-146650740D02*
X128845800Y-146860740D01*
X117235800Y-142420740D02*
X118815800Y-144000740D01*
X128595800Y-144400740D02*
X128635800Y-144360740D01*
X115335800Y-137420740D02*
X117235800Y-139320740D01*
X118815800Y-146850740D02*
X118805800Y-146860740D01*
X128635800Y-144360740D02*
X128635800Y-146650740D01*
X118815800Y-144400740D02*
X118815800Y-146850740D01*
X118815800Y-144000740D02*
X118815800Y-144400740D01*
G04 #@! TA.AperFunction,Conductor*
G36*
X97371818Y-103031225D02*
G01*
X97423154Y-103080267D01*
X97439827Y-103149278D01*
X97416542Y-103216348D01*
X97403071Y-103232258D01*
X97259594Y-103375735D01*
X97133908Y-103548727D01*
X97036829Y-103739255D01*
X97036826Y-103739261D01*
X96970752Y-103942618D01*
X96970751Y-103942623D01*
X96970751Y-103942624D01*
X96937300Y-104153824D01*
X96937300Y-104367656D01*
X96970751Y-104578856D01*
X96970752Y-104578861D01*
X97036826Y-104782218D01*
X97036828Y-104782223D01*
X97133906Y-104972749D01*
X97259594Y-105145744D01*
X97259596Y-105145746D01*
X97259598Y-105145749D01*
X97410790Y-105296941D01*
X97410793Y-105296943D01*
X97410796Y-105296946D01*
X97583791Y-105422634D01*
X97774317Y-105519712D01*
X97977678Y-105585787D01*
X97977679Y-105585787D01*
X97977684Y-105585789D01*
X98188884Y-105619240D01*
X98188887Y-105619240D01*
X98402713Y-105619240D01*
X98402716Y-105619240D01*
X98613916Y-105585789D01*
X98817283Y-105519712D01*
X99007809Y-105422634D01*
X99180804Y-105296946D01*
X99180809Y-105296941D01*
X99230750Y-105247001D01*
X99332001Y-105145749D01*
X99332006Y-105145744D01*
X99457694Y-104972749D01*
X99457702Y-104972732D01*
X99458654Y-104971181D01*
X99459177Y-104970707D01*
X99460604Y-104968744D01*
X99461016Y-104969043D01*
X99511297Y-104923544D01*
X99581337Y-104911929D01*
X99646538Y-104940025D01*
X99671285Y-104968582D01*
X99671424Y-104968482D01*
X99672594Y-104970093D01*
X99673526Y-104971168D01*
X99674336Y-104972490D01*
X99712420Y-105024907D01*
X99712421Y-105024908D01*
X100351641Y-104385687D01*
X100369875Y-104453733D01*
X100435701Y-104567747D01*
X100528793Y-104660839D01*
X100642807Y-104726665D01*
X100710851Y-104744897D01*
X100071631Y-105384118D01*
X100124049Y-105422203D01*
X100124051Y-105422204D01*
X100314507Y-105519246D01*
X100314513Y-105519249D01*
X100517796Y-105585299D01*
X100728926Y-105618740D01*
X100942674Y-105618740D01*
X101153803Y-105585299D01*
X101357086Y-105519249D01*
X101357092Y-105519246D01*
X101547550Y-105422203D01*
X101599967Y-105384118D01*
X101599967Y-105384116D01*
X100960748Y-104744897D01*
X101028793Y-104726665D01*
X101142807Y-104660839D01*
X101235899Y-104567747D01*
X101301725Y-104453733D01*
X101319957Y-104385688D01*
X101980395Y-105046126D01*
X102014421Y-105108438D01*
X102017300Y-105135221D01*
X102017300Y-105159389D01*
X102023809Y-105219936D01*
X102023811Y-105219944D01*
X102074910Y-105356942D01*
X102074912Y-105356947D01*
X102162538Y-105474001D01*
X102279592Y-105561627D01*
X102279594Y-105561628D01*
X102279596Y-105561629D01*
X102338675Y-105583664D01*
X102416595Y-105612728D01*
X102416603Y-105612730D01*
X102477150Y-105619239D01*
X102477155Y-105619239D01*
X102477162Y-105619240D01*
X102477168Y-105619240D01*
X104274432Y-105619240D01*
X104274438Y-105619240D01*
X104274445Y-105619239D01*
X104274449Y-105619239D01*
X104334996Y-105612730D01*
X104334999Y-105612729D01*
X104335001Y-105612729D01*
X104472004Y-105561629D01*
X104527999Y-105519712D01*
X104589061Y-105474001D01*
X104676687Y-105356947D01*
X104676687Y-105356946D01*
X104676689Y-105356944D01*
X104727789Y-105219941D01*
X104734300Y-105159378D01*
X104734300Y-103362102D01*
X104734299Y-103362090D01*
X104727790Y-103301543D01*
X104727789Y-103301541D01*
X104727789Y-103301539D01*
X104724083Y-103291605D01*
X104723977Y-103290113D01*
X104723107Y-103288894D01*
X104721451Y-103254811D01*
X104719017Y-103220791D01*
X104719734Y-103219476D01*
X104719662Y-103217981D01*
X104736695Y-103188411D01*
X104753040Y-103158477D01*
X104754353Y-103157759D01*
X104755101Y-103156462D01*
X104785401Y-103140805D01*
X104815351Y-103124450D01*
X104817276Y-103124334D01*
X104818175Y-103123870D01*
X104853992Y-103122129D01*
X104910465Y-103127467D01*
X104914317Y-103127893D01*
X106156322Y-103284794D01*
X106160135Y-103285336D01*
X107396695Y-103481188D01*
X107400484Y-103481850D01*
X108583275Y-103707480D01*
X108630155Y-103716423D01*
X108634034Y-103717225D01*
X109855782Y-103990318D01*
X109859583Y-103991232D01*
X110652873Y-104194914D01*
X111072061Y-104302543D01*
X111075879Y-104303587D01*
X112278046Y-104652849D01*
X112281776Y-104653996D01*
X113472361Y-105040841D01*
X113476081Y-105042115D01*
X114653952Y-105466175D01*
X114657572Y-105467542D01*
X115821569Y-105928401D01*
X115825176Y-105929895D01*
X116858069Y-106376868D01*
X116974074Y-106427068D01*
X116977680Y-106428696D01*
X118005395Y-106912303D01*
X118110342Y-106961687D01*
X118113888Y-106963424D01*
X119134036Y-107483215D01*
X119229294Y-107531751D01*
X119232783Y-107533598D01*
X120329819Y-108136699D01*
X120333223Y-108138641D01*
X121410724Y-108775873D01*
X121414072Y-108777925D01*
X122471027Y-109448689D01*
X122474335Y-109450862D01*
X123509715Y-110154505D01*
X123512930Y-110156764D01*
X124465728Y-110849013D01*
X124525689Y-110892577D01*
X124528854Y-110894953D01*
X125518003Y-111662215D01*
X125521092Y-111664690D01*
X126485639Y-112462633D01*
X126488649Y-112465204D01*
X127382209Y-113252983D01*
X127427649Y-113293043D01*
X127430564Y-113295695D01*
X127952409Y-113785740D01*
X128343138Y-114152659D01*
X128345980Y-114155414D01*
X129231125Y-115040559D01*
X129233880Y-115043401D01*
X130049921Y-115912397D01*
X130090832Y-115955962D01*
X130093496Y-115958890D01*
X130921335Y-116897890D01*
X130923906Y-116900900D01*
X131721849Y-117865447D01*
X131724324Y-117868536D01*
X132491586Y-118857685D01*
X132493962Y-118860850D01*
X132720742Y-119172985D01*
X133175893Y-119799447D01*
X133229758Y-119873585D01*
X133232034Y-119876824D01*
X133935677Y-120912204D01*
X133937850Y-120915512D01*
X134608606Y-121972454D01*
X134610649Y-121975787D01*
X134770868Y-122246702D01*
X134788327Y-122315517D01*
X134765810Y-122382848D01*
X134710466Y-122427318D01*
X134639865Y-122434806D01*
X134576424Y-122402936D01*
X134573319Y-122399935D01*
X134438585Y-122265201D01*
X134438565Y-122265183D01*
X134184106Y-122056353D01*
X134184091Y-122056342D01*
X133910381Y-121873455D01*
X133620051Y-121718271D01*
X133315909Y-121592291D01*
X133315906Y-121592290D01*
X133030618Y-121505749D01*
X133000887Y-121496730D01*
X133000884Y-121496729D01*
X133000873Y-121496726D01*
X132678019Y-121432508D01*
X132678015Y-121432507D01*
X132678013Y-121432507D01*
X132678009Y-121432506D01*
X132677998Y-121432505D01*
X132350406Y-121400240D01*
X132350400Y-121400240D01*
X132021200Y-121400240D01*
X132021193Y-121400240D01*
X131693601Y-121432505D01*
X131693580Y-121432508D01*
X131370726Y-121496726D01*
X131055693Y-121592290D01*
X131055690Y-121592291D01*
X130751548Y-121718271D01*
X130461218Y-121873455D01*
X130187508Y-122056342D01*
X130187493Y-122056353D01*
X129933034Y-122265183D01*
X129933014Y-122265201D01*
X129700261Y-122497954D01*
X129700243Y-122497974D01*
X129491413Y-122752433D01*
X129491402Y-122752448D01*
X129308515Y-123026158D01*
X129153331Y-123316488D01*
X129027351Y-123620630D01*
X129027350Y-123620633D01*
X128931786Y-123935666D01*
X128867568Y-124258520D01*
X128867565Y-124258541D01*
X128835300Y-124586133D01*
X128835300Y-124915346D01*
X128867565Y-125242938D01*
X128867568Y-125242959D01*
X128931786Y-125565813D01*
X129027350Y-125880846D01*
X129027351Y-125880849D01*
X129153331Y-126184991D01*
X129308515Y-126475321D01*
X129491402Y-126749031D01*
X129491413Y-126749046D01*
X129700243Y-127003505D01*
X129700261Y-127003525D01*
X129933014Y-127236278D01*
X129933034Y-127236296D01*
X130163995Y-127425842D01*
X130187502Y-127445133D01*
X130461221Y-127628026D01*
X130751549Y-127783209D01*
X131055689Y-127909188D01*
X131370713Y-128004750D01*
X131370722Y-128004751D01*
X131370726Y-128004753D01*
X131501588Y-128030782D01*
X131693587Y-128068973D01*
X132021200Y-128101240D01*
X132021209Y-128101240D01*
X132350391Y-128101240D01*
X132350400Y-128101240D01*
X132678013Y-128068973D01*
X132932859Y-128018281D01*
X133000873Y-128004753D01*
X133000875Y-128004752D01*
X133000887Y-128004750D01*
X133315911Y-127909188D01*
X133620051Y-127783209D01*
X133910379Y-127628026D01*
X134184098Y-127445133D01*
X134438572Y-127236291D01*
X134671351Y-127003512D01*
X134880193Y-126749038D01*
X135063086Y-126475319D01*
X135218269Y-126184991D01*
X135344248Y-125880851D01*
X135439810Y-125565827D01*
X135504033Y-125242953D01*
X135536300Y-124915340D01*
X135536300Y-124586140D01*
X135504033Y-124258527D01*
X135439810Y-123935653D01*
X135429024Y-123900099D01*
X135428391Y-123829107D01*
X135466239Y-123769040D01*
X135530554Y-123738972D01*
X135600916Y-123748448D01*
X135654984Y-123794459D01*
X135660014Y-123802823D01*
X135852936Y-124153747D01*
X135854788Y-124157245D01*
X136423111Y-125272642D01*
X136424852Y-125276197D01*
X136957842Y-126408858D01*
X136959471Y-126412465D01*
X137456633Y-127561338D01*
X137458148Y-127564995D01*
X137560727Y-127824079D01*
X137883179Y-128638502D01*
X137918981Y-128728926D01*
X137920380Y-128732629D01*
X138344420Y-129910446D01*
X138345702Y-129914191D01*
X138732534Y-131104736D01*
X138733698Y-131108519D01*
X139082952Y-132310660D01*
X139083996Y-132314478D01*
X139395301Y-133526932D01*
X139396226Y-133530781D01*
X139669314Y-134752508D01*
X139670116Y-134756384D01*
X139853703Y-135718776D01*
X139903218Y-135978343D01*
X139904679Y-135985999D01*
X139905360Y-135989898D01*
X140101195Y-137226352D01*
X140101752Y-137230271D01*
X140258641Y-138472180D01*
X140259076Y-138476114D01*
X140376887Y-139722424D01*
X140377197Y-139726370D01*
X140455797Y-140975690D01*
X140455984Y-140979644D01*
X140495306Y-142230875D01*
X140495368Y-142234833D01*
X140495368Y-143486646D01*
X140495306Y-143490604D01*
X140455984Y-144741835D01*
X140455797Y-144745789D01*
X140377197Y-145995109D01*
X140376887Y-145999055D01*
X140259076Y-147245365D01*
X140258641Y-147249299D01*
X140101752Y-148491208D01*
X140101195Y-148495127D01*
X139905360Y-149731581D01*
X139904679Y-149735480D01*
X139670116Y-150965095D01*
X139669314Y-150968971D01*
X139396226Y-152190698D01*
X139395301Y-152194547D01*
X139083996Y-153407001D01*
X139082952Y-153410819D01*
X138733698Y-154612960D01*
X138732534Y-154616743D01*
X138345702Y-155807288D01*
X138344420Y-155811033D01*
X137920380Y-156988850D01*
X137918981Y-156992553D01*
X137458148Y-158156484D01*
X137456633Y-158160141D01*
X136959471Y-159309014D01*
X136957842Y-159312621D01*
X136424852Y-160445282D01*
X136423111Y-160448837D01*
X135854788Y-161564234D01*
X135852936Y-161567732D01*
X135685503Y-161872291D01*
X135635157Y-161922350D01*
X135565740Y-161937243D01*
X135499291Y-161912242D01*
X135456907Y-161855285D01*
X135451509Y-161787010D01*
X135504033Y-161522953D01*
X135536300Y-161195340D01*
X135536300Y-160866140D01*
X135504033Y-160538527D01*
X135439810Y-160215653D01*
X135344248Y-159900629D01*
X135218269Y-159596489D01*
X135063086Y-159306161D01*
X134880193Y-159032442D01*
X134671351Y-158777968D01*
X134671347Y-158777964D01*
X134671338Y-158777954D01*
X134438585Y-158545201D01*
X134438565Y-158545183D01*
X134184106Y-158336353D01*
X134184091Y-158336342D01*
X133910381Y-158153455D01*
X133620051Y-157998271D01*
X133315909Y-157872291D01*
X133315906Y-157872290D01*
X133107393Y-157809038D01*
X133000887Y-157776730D01*
X133000884Y-157776729D01*
X133000873Y-157776726D01*
X132678019Y-157712508D01*
X132678015Y-157712507D01*
X132678013Y-157712507D01*
X132678009Y-157712506D01*
X132677998Y-157712505D01*
X132350406Y-157680240D01*
X132350400Y-157680240D01*
X132021200Y-157680240D01*
X132021193Y-157680240D01*
X131693601Y-157712505D01*
X131693580Y-157712508D01*
X131370726Y-157776726D01*
X131055693Y-157872290D01*
X131055690Y-157872291D01*
X130751548Y-157998271D01*
X130461218Y-158153455D01*
X130187508Y-158336342D01*
X130187493Y-158336353D01*
X129933034Y-158545183D01*
X129933014Y-158545201D01*
X129700261Y-158777954D01*
X129700243Y-158777974D01*
X129491413Y-159032433D01*
X129491402Y-159032448D01*
X129308515Y-159306158D01*
X129153331Y-159596488D01*
X129027351Y-159900630D01*
X129027350Y-159900633D01*
X128931786Y-160215666D01*
X128867568Y-160538520D01*
X128867565Y-160538541D01*
X128835300Y-160866133D01*
X128835300Y-161195346D01*
X128867565Y-161522938D01*
X128867568Y-161522959D01*
X128931786Y-161845813D01*
X128931789Y-161845824D01*
X128931790Y-161845827D01*
X128954922Y-161922081D01*
X129027350Y-162160846D01*
X129027351Y-162160849D01*
X129153331Y-162464991D01*
X129308515Y-162755321D01*
X129491402Y-163029031D01*
X129491413Y-163029046D01*
X129700243Y-163283505D01*
X129700261Y-163283525D01*
X129933014Y-163516278D01*
X129933024Y-163516287D01*
X129933028Y-163516291D01*
X130187502Y-163725133D01*
X130461221Y-163908026D01*
X130751549Y-164063209D01*
X131055689Y-164189188D01*
X131370713Y-164284750D01*
X131370722Y-164284751D01*
X131370726Y-164284753D01*
X131501588Y-164310782D01*
X131693587Y-164348973D01*
X132021200Y-164381240D01*
X132021209Y-164381240D01*
X132350391Y-164381240D01*
X132350400Y-164381240D01*
X132678013Y-164348973D01*
X132932859Y-164298281D01*
X133000873Y-164284753D01*
X133000875Y-164284752D01*
X133000887Y-164284750D01*
X133315911Y-164189188D01*
X133620051Y-164063209D01*
X133910379Y-163908026D01*
X134184098Y-163725133D01*
X134438572Y-163516291D01*
X134486478Y-163468384D01*
X134504226Y-163458693D01*
X134519011Y-163444889D01*
X134534750Y-163442026D01*
X134548788Y-163434361D01*
X134568961Y-163435803D01*
X134588862Y-163432184D01*
X134603648Y-163438284D01*
X134619603Y-163439425D01*
X134635793Y-163451544D01*
X134654493Y-163459259D01*
X134663635Y-163472386D01*
X134676439Y-163481971D01*
X134683507Y-163500920D01*
X134695067Y-163517519D01*
X134695660Y-163533503D01*
X134701251Y-163548491D01*
X134696951Y-163568256D01*
X134697702Y-163588467D01*
X134686812Y-163614864D01*
X134686160Y-163617865D01*
X134684030Y-163621612D01*
X134622809Y-163725133D01*
X134610675Y-163745650D01*
X134608606Y-163749025D01*
X133937850Y-164805967D01*
X133935677Y-164809275D01*
X133232034Y-165844655D01*
X133229758Y-165847894D01*
X132493962Y-166860629D01*
X132491586Y-166863794D01*
X131724324Y-167852943D01*
X131721849Y-167856032D01*
X130923906Y-168820579D01*
X130921335Y-168823589D01*
X130093496Y-169762589D01*
X130090832Y-169765517D01*
X129233880Y-170678078D01*
X129231125Y-170680920D01*
X128345980Y-171566065D01*
X128343138Y-171568820D01*
X127430577Y-172425772D01*
X127427649Y-172428436D01*
X126488649Y-173256275D01*
X126485639Y-173258846D01*
X125521092Y-174056789D01*
X125518003Y-174059264D01*
X124528854Y-174826526D01*
X124525689Y-174828902D01*
X123512954Y-175564698D01*
X123509715Y-175566974D01*
X122474335Y-176270617D01*
X122471027Y-176272790D01*
X121414085Y-176943546D01*
X121410710Y-176945614D01*
X120333240Y-177582828D01*
X120329802Y-177584790D01*
X119232792Y-178187876D01*
X119229294Y-178189728D01*
X118113897Y-178758051D01*
X118110342Y-178759792D01*
X116977681Y-179292782D01*
X116974074Y-179294411D01*
X115825201Y-179791573D01*
X115821544Y-179793088D01*
X114657613Y-180253921D01*
X114653910Y-180255320D01*
X113476093Y-180679360D01*
X113472348Y-180680642D01*
X112281803Y-181067474D01*
X112278020Y-181068638D01*
X111075879Y-181417892D01*
X111072061Y-181418936D01*
X109859607Y-181730241D01*
X109855758Y-181731166D01*
X108634031Y-182004254D01*
X108630155Y-182005056D01*
X107400540Y-182239619D01*
X107396641Y-182240300D01*
X106160187Y-182436135D01*
X106156268Y-182436692D01*
X104914359Y-182593581D01*
X104910424Y-182594016D01*
X104872433Y-182597607D01*
X104802732Y-182584104D01*
X104751397Y-182535062D01*
X104734725Y-182466050D01*
X104735298Y-182458694D01*
X104736300Y-182449378D01*
X104736300Y-180652102D01*
X104733847Y-180629284D01*
X104729790Y-180591543D01*
X104729788Y-180591535D01*
X104678689Y-180454537D01*
X104678687Y-180454532D01*
X104591061Y-180337478D01*
X104474007Y-180249852D01*
X104474002Y-180249850D01*
X104337004Y-180198751D01*
X104336996Y-180198749D01*
X104276449Y-180192240D01*
X104276438Y-180192240D01*
X102479162Y-180192240D01*
X102479150Y-180192240D01*
X102418603Y-180198749D01*
X102418595Y-180198751D01*
X102281597Y-180249850D01*
X102281592Y-180249852D01*
X102164538Y-180337478D01*
X102076912Y-180454532D01*
X102076910Y-180454537D01*
X102032931Y-180572448D01*
X101990384Y-180629284D01*
X101923864Y-180654094D01*
X101854490Y-180639002D01*
X101825781Y-180617510D01*
X101722809Y-180514538D01*
X101722806Y-180514536D01*
X101722804Y-180514534D01*
X101592581Y-180419922D01*
X101549812Y-180388848D01*
X101549811Y-180388847D01*
X101549809Y-180388846D01*
X101359283Y-180291768D01*
X101359280Y-180291767D01*
X101359278Y-180291766D01*
X101155920Y-180225692D01*
X101155923Y-180225692D01*
X101116601Y-180219464D01*
X100944716Y-180192240D01*
X100730884Y-180192240D01*
X100519684Y-180225691D01*
X100519678Y-180225692D01*
X100316321Y-180291766D01*
X100316315Y-180291769D01*
X100125787Y-180388848D01*
X99952793Y-180514536D01*
X99952790Y-180514538D01*
X99801598Y-180665730D01*
X99801596Y-180665733D01*
X99675908Y-180838727D01*
X99675234Y-180839828D01*
X99674868Y-180840158D01*
X99672996Y-180842736D01*
X99672454Y-180842342D01*
X99622587Y-180887461D01*
X99552545Y-180899068D01*
X99487347Y-180870966D01*
X99462776Y-180842610D01*
X99462604Y-180842736D01*
X99461141Y-180840722D01*
X99460366Y-180839828D01*
X99459696Y-180838736D01*
X99459694Y-180838731D01*
X99334006Y-180665736D01*
X99334003Y-180665733D01*
X99334001Y-180665730D01*
X99182809Y-180514538D01*
X99182806Y-180514536D01*
X99182804Y-180514534D01*
X99052581Y-180419922D01*
X99009812Y-180388848D01*
X99009811Y-180388847D01*
X99009809Y-180388846D01*
X98819283Y-180291768D01*
X98819280Y-180291767D01*
X98819278Y-180291766D01*
X98615920Y-180225692D01*
X98615923Y-180225692D01*
X98576601Y-180219464D01*
X98404716Y-180192240D01*
X98190884Y-180192240D01*
X97979684Y-180225691D01*
X97979678Y-180225692D01*
X97776321Y-180291766D01*
X97776315Y-180291769D01*
X97585787Y-180388848D01*
X97412793Y-180514536D01*
X97412790Y-180514538D01*
X97261598Y-180665730D01*
X97261596Y-180665733D01*
X97135908Y-180838727D01*
X97038829Y-181029255D01*
X97038826Y-181029261D01*
X96972752Y-181232618D01*
X96972751Y-181232623D01*
X96972751Y-181232624D01*
X96939300Y-181443824D01*
X96939300Y-181657656D01*
X96950876Y-181730741D01*
X96972752Y-181868861D01*
X97034680Y-182059458D01*
X97038828Y-182072223D01*
X97135906Y-182262749D01*
X97261594Y-182435744D01*
X97261596Y-182435746D01*
X97261598Y-182435749D01*
X97305884Y-182480035D01*
X97339910Y-182542347D01*
X97334845Y-182613162D01*
X97292298Y-182669998D01*
X97225778Y-182694809D01*
X97204931Y-182694571D01*
X96141174Y-182594016D01*
X96137240Y-182593581D01*
X94895331Y-182436692D01*
X94891412Y-182436135D01*
X94000939Y-182295098D01*
X93654954Y-182240299D01*
X93651059Y-182239619D01*
X93603287Y-182230506D01*
X93516881Y-182214023D01*
X92421444Y-182005056D01*
X92417568Y-182004254D01*
X91195841Y-181731166D01*
X91191992Y-181730241D01*
X89979538Y-181418936D01*
X89975720Y-181417892D01*
X88773579Y-181068638D01*
X88769796Y-181067474D01*
X87579251Y-180680642D01*
X87575506Y-180679360D01*
X86397689Y-180255320D01*
X86393986Y-180253921D01*
X86383706Y-180249851D01*
X85230055Y-179793088D01*
X85226398Y-179791573D01*
X84194002Y-179344815D01*
X84077525Y-179294411D01*
X84073918Y-179292782D01*
X83949274Y-179234129D01*
X87735300Y-179234129D01*
X87735300Y-179407351D01*
X87762398Y-179578441D01*
X87815927Y-179743185D01*
X87815928Y-179743188D01*
X87815930Y-179743192D01*
X87894568Y-179897528D01*
X87996387Y-180037670D01*
X88118869Y-180160152D01*
X88118872Y-180160154D01*
X88259012Y-180261972D01*
X88413355Y-180340613D01*
X88578099Y-180394142D01*
X88749189Y-180421240D01*
X88749192Y-180421240D01*
X88922408Y-180421240D01*
X88922411Y-180421240D01*
X89093501Y-180394142D01*
X89258245Y-180340613D01*
X89412588Y-180261972D01*
X89552728Y-180160154D01*
X89675214Y-180037668D01*
X89777032Y-179897528D01*
X89855673Y-179743185D01*
X89909202Y-179578441D01*
X89936300Y-179407351D01*
X89936300Y-179234129D01*
X89909202Y-179063039D01*
X89855673Y-178898295D01*
X89777032Y-178743952D01*
X89675214Y-178603812D01*
X89675212Y-178603809D01*
X89552730Y-178481327D01*
X89412588Y-178379508D01*
X89258252Y-178300870D01*
X89258248Y-178300868D01*
X89258245Y-178300867D01*
X89093501Y-178247338D01*
X88922411Y-178220240D01*
X88749189Y-178220240D01*
X88578099Y-178247338D01*
X88578096Y-178247338D01*
X88578095Y-178247339D01*
X88499053Y-178273021D01*
X88413355Y-178300867D01*
X88413353Y-178300867D01*
X88413347Y-178300870D01*
X88259011Y-178379508D01*
X88118869Y-178481327D01*
X87996387Y-178603809D01*
X87894568Y-178743951D01*
X87815930Y-178898287D01*
X87815927Y-178898293D01*
X87815927Y-178898295D01*
X87762398Y-179063039D01*
X87735300Y-179234129D01*
X83949274Y-179234129D01*
X82941257Y-178759792D01*
X82937702Y-178758051D01*
X81822305Y-178189728D01*
X81818807Y-178187876D01*
X80721797Y-177584790D01*
X80718359Y-177582828D01*
X79640889Y-176945614D01*
X79637514Y-176943546D01*
X78580572Y-176272790D01*
X78577264Y-176270617D01*
X77541884Y-175566974D01*
X77538645Y-175564698D01*
X76525910Y-174828902D01*
X76522745Y-174826526D01*
X75533596Y-174059264D01*
X75530507Y-174056789D01*
X74565960Y-173258846D01*
X74562950Y-173256275D01*
X73907464Y-172678387D01*
X73805875Y-172588824D01*
X111277300Y-172588824D01*
X111277300Y-173052656D01*
X111310751Y-173263856D01*
X111310752Y-173263861D01*
X111376826Y-173467218D01*
X111376828Y-173467223D01*
X111461515Y-173633430D01*
X111473908Y-173657752D01*
X111486280Y-173674780D01*
X111599594Y-173830744D01*
X111599596Y-173830746D01*
X111599598Y-173830749D01*
X111750790Y-173981941D01*
X111750793Y-173981943D01*
X111750796Y-173981946D01*
X111923791Y-174107634D01*
X112114317Y-174204712D01*
X112317678Y-174270787D01*
X112317679Y-174270787D01*
X112317684Y-174270789D01*
X112528884Y-174304240D01*
X112528887Y-174304240D01*
X112742713Y-174304240D01*
X112742716Y-174304240D01*
X112953916Y-174270789D01*
X113157283Y-174204712D01*
X113347809Y-174107634D01*
X113520804Y-173981946D01*
X113672006Y-173830744D01*
X113783864Y-173676783D01*
X113840086Y-173633430D01*
X113910822Y-173627355D01*
X113973614Y-173660486D01*
X113987734Y-173676781D01*
X114099594Y-173830744D01*
X114099596Y-173830746D01*
X114099598Y-173830749D01*
X114250790Y-173981941D01*
X114250793Y-173981943D01*
X114250796Y-173981946D01*
X114423791Y-174107634D01*
X114614317Y-174204712D01*
X114817678Y-174270787D01*
X114817679Y-174270787D01*
X114817684Y-174270789D01*
X115028884Y-174304240D01*
X115028887Y-174304240D01*
X115242713Y-174304240D01*
X115242716Y-174304240D01*
X115453916Y-174270789D01*
X115657283Y-174204712D01*
X115847809Y-174107634D01*
X116020804Y-173981946D01*
X116172006Y-173830744D01*
X116283864Y-173676783D01*
X116340086Y-173633430D01*
X116410822Y-173627355D01*
X116473614Y-173660486D01*
X116487734Y-173676781D01*
X116599594Y-173830744D01*
X116599596Y-173830746D01*
X116599598Y-173830749D01*
X116750790Y-173981941D01*
X116750793Y-173981943D01*
X116750796Y-173981946D01*
X116923791Y-174107634D01*
X117114317Y-174204712D01*
X117317678Y-174270787D01*
X117317679Y-174270787D01*
X117317684Y-174270789D01*
X117528884Y-174304240D01*
X117528887Y-174304240D01*
X117742713Y-174304240D01*
X117742716Y-174304240D01*
X117953916Y-174270789D01*
X118157283Y-174204712D01*
X118347809Y-174107634D01*
X118520804Y-173981946D01*
X118651116Y-173851633D01*
X118713426Y-173817610D01*
X118784242Y-173822674D01*
X118841078Y-173865221D01*
X118847451Y-173874583D01*
X118936770Y-174019392D01*
X118936775Y-174019398D01*
X119062141Y-174144764D01*
X119062147Y-174144769D01*
X119062148Y-174144770D01*
X119213062Y-174237855D01*
X119381374Y-174293627D01*
X119485255Y-174304240D01*
X120786344Y-174304239D01*
X120890226Y-174293627D01*
X121058538Y-174237855D01*
X121209452Y-174144770D01*
X121334830Y-174019392D01*
X121427915Y-173868478D01*
X121483687Y-173700166D01*
X121494300Y-173596285D01*
X121494299Y-172045196D01*
X121483687Y-171941314D01*
X121427915Y-171773002D01*
X121334830Y-171622088D01*
X121334829Y-171622087D01*
X121334824Y-171622081D01*
X121209458Y-171496715D01*
X121209452Y-171496710D01*
X121058538Y-171403625D01*
X120959148Y-171370691D01*
X120890227Y-171347853D01*
X120890220Y-171347852D01*
X120786353Y-171337240D01*
X119485255Y-171337240D01*
X119381374Y-171347852D01*
X119213061Y-171403625D01*
X119062147Y-171496710D01*
X119062141Y-171496715D01*
X118936775Y-171622081D01*
X118936770Y-171622087D01*
X118847451Y-171766896D01*
X118794665Y-171814374D01*
X118724590Y-171825777D01*
X118659474Y-171797484D01*
X118651115Y-171789844D01*
X118520809Y-171659538D01*
X118520806Y-171659536D01*
X118520804Y-171659534D01*
X118347809Y-171533846D01*
X118157283Y-171436768D01*
X118157280Y-171436767D01*
X118157278Y-171436766D01*
X117953920Y-171370692D01*
X117953923Y-171370692D01*
X117914601Y-171364464D01*
X117742716Y-171337240D01*
X117528884Y-171337240D01*
X117317684Y-171370691D01*
X117317678Y-171370692D01*
X117114321Y-171436766D01*
X117114315Y-171436769D01*
X116923787Y-171533848D01*
X116750793Y-171659536D01*
X116750790Y-171659538D01*
X116599598Y-171810730D01*
X116599596Y-171810733D01*
X116487736Y-171964695D01*
X116431514Y-172008049D01*
X116360777Y-172014124D01*
X116297986Y-171980992D01*
X116283864Y-171964695D01*
X116244879Y-171911038D01*
X116172006Y-171810736D01*
X116172003Y-171810733D01*
X116172001Y-171810730D01*
X116020809Y-171659538D01*
X116020806Y-171659536D01*
X116020804Y-171659534D01*
X115847809Y-171533846D01*
X115657283Y-171436768D01*
X115657280Y-171436767D01*
X115657278Y-171436766D01*
X115453920Y-171370692D01*
X115453923Y-171370692D01*
X115414601Y-171364464D01*
X115242716Y-171337240D01*
X115028884Y-171337240D01*
X114817684Y-171370691D01*
X114817678Y-171370692D01*
X114614321Y-171436766D01*
X114614315Y-171436769D01*
X114423787Y-171533848D01*
X114250793Y-171659536D01*
X114250790Y-171659538D01*
X114099598Y-171810730D01*
X114099596Y-171810733D01*
X113987736Y-171964695D01*
X113931514Y-172008049D01*
X113860777Y-172014124D01*
X113797986Y-171980992D01*
X113783864Y-171964695D01*
X113744879Y-171911038D01*
X113672006Y-171810736D01*
X113672003Y-171810733D01*
X113672001Y-171810730D01*
X113520809Y-171659538D01*
X113520806Y-171659536D01*
X113520804Y-171659534D01*
X113347809Y-171533846D01*
X113157283Y-171436768D01*
X113157280Y-171436767D01*
X113157278Y-171436766D01*
X112953920Y-171370692D01*
X112953923Y-171370692D01*
X112914601Y-171364464D01*
X112742716Y-171337240D01*
X112528884Y-171337240D01*
X112317684Y-171370691D01*
X112317678Y-171370692D01*
X112114321Y-171436766D01*
X112114315Y-171436769D01*
X111923787Y-171533848D01*
X111750793Y-171659536D01*
X111750790Y-171659538D01*
X111599598Y-171810730D01*
X111599596Y-171810733D01*
X111473908Y-171983727D01*
X111376829Y-172174255D01*
X111376826Y-172174261D01*
X111310752Y-172377618D01*
X111310751Y-172377623D01*
X111310751Y-172377624D01*
X111277300Y-172588824D01*
X73805875Y-172588824D01*
X73623940Y-172428427D01*
X73621022Y-172425772D01*
X73569743Y-172377618D01*
X72708461Y-171568820D01*
X72705619Y-171566065D01*
X71820474Y-170680920D01*
X71817719Y-170678078D01*
X70960767Y-169765517D01*
X70958103Y-169762589D01*
X70130264Y-168823589D01*
X70127693Y-168820579D01*
X69329750Y-167856032D01*
X69327275Y-167852943D01*
X68560013Y-166863794D01*
X68557637Y-166860629D01*
X67844043Y-165878452D01*
X67821824Y-165847870D01*
X67819565Y-165844655D01*
X67115922Y-164809275D01*
X67113749Y-164805967D01*
X66985729Y-164604240D01*
X66442985Y-163749012D01*
X66440960Y-163745710D01*
X66367572Y-163621616D01*
X66350114Y-163552804D01*
X66372631Y-163485473D01*
X66427975Y-163441003D01*
X66498576Y-163433515D01*
X66562017Y-163465385D01*
X66565122Y-163468386D01*
X66613014Y-163516278D01*
X66613024Y-163516287D01*
X66613028Y-163516291D01*
X66867502Y-163725133D01*
X67141221Y-163908026D01*
X67431549Y-164063209D01*
X67735689Y-164189188D01*
X68050713Y-164284750D01*
X68050722Y-164284751D01*
X68050726Y-164284753D01*
X68181588Y-164310782D01*
X68373587Y-164348973D01*
X68701200Y-164381240D01*
X68701209Y-164381240D01*
X69030391Y-164381240D01*
X69030400Y-164381240D01*
X69358013Y-164348973D01*
X69612859Y-164298281D01*
X69680873Y-164284753D01*
X69680875Y-164284752D01*
X69680887Y-164284750D01*
X69995911Y-164189188D01*
X70300051Y-164063209D01*
X70590379Y-163908026D01*
X70864098Y-163725133D01*
X71118572Y-163516291D01*
X71351351Y-163283512D01*
X71560193Y-163029038D01*
X71743086Y-162755319D01*
X71898269Y-162464991D01*
X71947894Y-162345186D01*
X111377300Y-162345186D01*
X111377300Y-163896284D01*
X111387912Y-164000165D01*
X111443685Y-164168478D01*
X111536770Y-164319392D01*
X111536775Y-164319398D01*
X111662141Y-164444764D01*
X111662147Y-164444769D01*
X111662148Y-164444770D01*
X111813062Y-164537855D01*
X111981374Y-164593627D01*
X112085255Y-164604240D01*
X113386344Y-164604239D01*
X113490226Y-164593627D01*
X113658538Y-164537855D01*
X113809452Y-164444770D01*
X113934830Y-164319392D01*
X114024149Y-164174582D01*
X114076934Y-164127105D01*
X114147008Y-164115702D01*
X114212124Y-164143994D01*
X114220484Y-164151635D01*
X114350790Y-164281941D01*
X114350793Y-164281943D01*
X114350796Y-164281946D01*
X114523791Y-164407634D01*
X114714317Y-164504712D01*
X114917678Y-164570787D01*
X114917679Y-164570787D01*
X114917684Y-164570789D01*
X115128884Y-164604240D01*
X115128887Y-164604240D01*
X115342713Y-164604240D01*
X115342716Y-164604240D01*
X115553916Y-164570789D01*
X115757283Y-164504712D01*
X115947809Y-164407634D01*
X116120804Y-164281946D01*
X116272006Y-164130744D01*
X116383864Y-163976783D01*
X116440086Y-163933430D01*
X116510822Y-163927355D01*
X116573614Y-163960486D01*
X116587734Y-163976781D01*
X116699594Y-164130744D01*
X116699596Y-164130746D01*
X116699598Y-164130749D01*
X116850790Y-164281941D01*
X116850793Y-164281943D01*
X116850796Y-164281946D01*
X117023791Y-164407634D01*
X117214317Y-164504712D01*
X117417678Y-164570787D01*
X117417679Y-164570787D01*
X117417684Y-164570789D01*
X117628884Y-164604240D01*
X117628887Y-164604240D01*
X117842713Y-164604240D01*
X117842716Y-164604240D01*
X118053916Y-164570789D01*
X118257283Y-164504712D01*
X118447809Y-164407634D01*
X118620804Y-164281946D01*
X118772006Y-164130744D01*
X118883864Y-163976783D01*
X118940086Y-163933430D01*
X119010822Y-163927355D01*
X119073614Y-163960486D01*
X119087734Y-163976781D01*
X119199594Y-164130744D01*
X119199596Y-164130746D01*
X119199598Y-164130749D01*
X119350790Y-164281941D01*
X119350793Y-164281943D01*
X119350796Y-164281946D01*
X119523791Y-164407634D01*
X119714317Y-164504712D01*
X119917678Y-164570787D01*
X119917679Y-164570787D01*
X119917684Y-164570789D01*
X120128884Y-164604240D01*
X120128887Y-164604240D01*
X120342713Y-164604240D01*
X120342716Y-164604240D01*
X120553916Y-164570789D01*
X120757283Y-164504712D01*
X120947809Y-164407634D01*
X121120804Y-164281946D01*
X121272006Y-164130744D01*
X121397694Y-163957749D01*
X121494772Y-163767223D01*
X121560849Y-163563856D01*
X121594300Y-163352656D01*
X121594300Y-162888824D01*
X121560849Y-162677624D01*
X121494772Y-162474257D01*
X121397694Y-162283731D01*
X121272006Y-162110736D01*
X121272003Y-162110733D01*
X121272001Y-162110730D01*
X121120809Y-161959538D01*
X121120806Y-161959536D01*
X121120804Y-161959534D01*
X120977317Y-161855285D01*
X120947812Y-161833848D01*
X120947811Y-161833847D01*
X120947809Y-161833846D01*
X120757283Y-161736768D01*
X120757280Y-161736767D01*
X120757278Y-161736766D01*
X120553920Y-161670692D01*
X120553923Y-161670692D01*
X120514601Y-161664464D01*
X120342716Y-161637240D01*
X120128884Y-161637240D01*
X119917684Y-161670691D01*
X119917678Y-161670692D01*
X119714321Y-161736766D01*
X119714315Y-161736769D01*
X119523787Y-161833848D01*
X119350793Y-161959536D01*
X119350790Y-161959538D01*
X119199598Y-162110730D01*
X119199596Y-162110733D01*
X119087736Y-162264695D01*
X119031514Y-162308049D01*
X118960777Y-162314124D01*
X118897986Y-162280992D01*
X118883864Y-162264695D01*
X118844879Y-162211038D01*
X118772006Y-162110736D01*
X118772003Y-162110733D01*
X118772001Y-162110730D01*
X118620809Y-161959538D01*
X118620806Y-161959536D01*
X118620804Y-161959534D01*
X118477317Y-161855285D01*
X118447812Y-161833848D01*
X118447811Y-161833847D01*
X118447809Y-161833846D01*
X118257283Y-161736768D01*
X118257280Y-161736767D01*
X118257278Y-161736766D01*
X118053920Y-161670692D01*
X118053923Y-161670692D01*
X118014601Y-161664464D01*
X117842716Y-161637240D01*
X117628884Y-161637240D01*
X117417684Y-161670691D01*
X117417678Y-161670692D01*
X117214321Y-161736766D01*
X117214315Y-161736769D01*
X117023787Y-161833848D01*
X116850793Y-161959536D01*
X116850790Y-161959538D01*
X116699598Y-162110730D01*
X116699596Y-162110733D01*
X116587736Y-162264695D01*
X116531514Y-162308049D01*
X116460777Y-162314124D01*
X116397986Y-162280992D01*
X116383864Y-162264695D01*
X116344879Y-162211038D01*
X116272006Y-162110736D01*
X116272003Y-162110733D01*
X116272001Y-162110730D01*
X116120809Y-161959538D01*
X116120806Y-161959536D01*
X116120804Y-161959534D01*
X115977317Y-161855285D01*
X115947812Y-161833848D01*
X115947811Y-161833847D01*
X115947809Y-161833846D01*
X115757283Y-161736768D01*
X115757280Y-161736767D01*
X115757278Y-161736766D01*
X115553920Y-161670692D01*
X115553923Y-161670692D01*
X115514601Y-161664464D01*
X115342716Y-161637240D01*
X115128884Y-161637240D01*
X114917684Y-161670691D01*
X114917678Y-161670692D01*
X114714321Y-161736766D01*
X114714315Y-161736769D01*
X114523787Y-161833848D01*
X114350795Y-161959534D01*
X114220484Y-162089845D01*
X114158172Y-162123870D01*
X114087356Y-162118805D01*
X114030521Y-162076258D01*
X114024156Y-162066908D01*
X113934830Y-161922088D01*
X113934829Y-161922087D01*
X113934824Y-161922081D01*
X113809458Y-161796715D01*
X113809452Y-161796710D01*
X113793724Y-161787009D01*
X113658538Y-161703625D01*
X113559148Y-161670691D01*
X113490227Y-161647853D01*
X113490220Y-161647852D01*
X113386353Y-161637240D01*
X112085255Y-161637240D01*
X111981374Y-161647852D01*
X111813061Y-161703625D01*
X111662147Y-161796710D01*
X111662141Y-161796715D01*
X111536775Y-161922081D01*
X111536770Y-161922087D01*
X111443685Y-162073002D01*
X111387913Y-162241312D01*
X111387912Y-162241319D01*
X111377300Y-162345186D01*
X71947894Y-162345186D01*
X72024248Y-162160851D01*
X72119810Y-161845827D01*
X72184033Y-161522953D01*
X72216300Y-161195340D01*
X72216300Y-160866140D01*
X72184033Y-160538527D01*
X72119810Y-160215653D01*
X72024248Y-159900629D01*
X71898269Y-159596489D01*
X71743086Y-159306161D01*
X71560193Y-159032442D01*
X71351351Y-158777968D01*
X71351347Y-158777964D01*
X71351338Y-158777954D01*
X71118585Y-158545201D01*
X71118565Y-158545183D01*
X70864106Y-158336353D01*
X70864091Y-158336342D01*
X70590381Y-158153455D01*
X70300051Y-157998271D01*
X69995909Y-157872291D01*
X69995906Y-157872290D01*
X69787393Y-157809038D01*
X69680887Y-157776730D01*
X69680884Y-157776729D01*
X69680873Y-157776726D01*
X69358019Y-157712508D01*
X69358015Y-157712507D01*
X69358013Y-157712507D01*
X69358009Y-157712506D01*
X69357998Y-157712505D01*
X69030406Y-157680240D01*
X69030400Y-157680240D01*
X68701200Y-157680240D01*
X68701193Y-157680240D01*
X68373601Y-157712505D01*
X68373580Y-157712508D01*
X68050726Y-157776726D01*
X67735693Y-157872290D01*
X67735690Y-157872291D01*
X67431548Y-157998271D01*
X67141218Y-158153455D01*
X66867508Y-158336342D01*
X66867493Y-158336353D01*
X66613034Y-158545183D01*
X66613014Y-158545201D01*
X66380261Y-158777954D01*
X66380243Y-158777974D01*
X66171413Y-159032433D01*
X66171402Y-159032448D01*
X65988515Y-159306158D01*
X65833331Y-159596488D01*
X65707351Y-159900630D01*
X65707350Y-159900633D01*
X65611786Y-160215666D01*
X65547568Y-160538520D01*
X65547565Y-160538541D01*
X65515300Y-160866133D01*
X65515300Y-161195346D01*
X65547565Y-161522938D01*
X65547568Y-161522959D01*
X65600090Y-161787009D01*
X65593762Y-161857723D01*
X65550207Y-161913790D01*
X65483254Y-161937409D01*
X65414161Y-161921082D01*
X65366096Y-161872291D01*
X65242710Y-161647853D01*
X65198658Y-161567723D01*
X65196811Y-161564234D01*
X65175780Y-161522959D01*
X64628484Y-160448828D01*
X64626747Y-160445282D01*
X64093757Y-159312621D01*
X64092128Y-159309014D01*
X63972441Y-159032433D01*
X63594955Y-158160116D01*
X63593451Y-158156484D01*
X63592252Y-158153455D01*
X63132602Y-156992512D01*
X63131235Y-156988892D01*
X62726970Y-155866003D01*
X92785300Y-155866003D01*
X92785300Y-156095476D01*
X92815250Y-156322971D01*
X92815252Y-156322978D01*
X92874642Y-156544627D01*
X92962456Y-156756628D01*
X92962457Y-156756629D01*
X92962462Y-156756640D01*
X93077186Y-156955348D01*
X93077191Y-156955355D01*
X93216873Y-157137392D01*
X93216892Y-157137413D01*
X93379126Y-157299647D01*
X93379147Y-157299666D01*
X93561184Y-157439348D01*
X93561191Y-157439353D01*
X93759899Y-157554077D01*
X93759903Y-157554078D01*
X93759912Y-157554084D01*
X93971913Y-157641898D01*
X94193562Y-157701288D01*
X94193566Y-157701288D01*
X94193568Y-157701289D01*
X94252198Y-157709007D01*
X94421066Y-157731240D01*
X94421073Y-157731240D01*
X94650527Y-157731240D01*
X94650534Y-157731240D01*
X94856145Y-157704170D01*
X94878031Y-157701289D01*
X94878031Y-157701288D01*
X94878038Y-157701288D01*
X95099687Y-157641898D01*
X95311688Y-157554084D01*
X95510412Y-157439351D01*
X95692461Y-157299659D01*
X95854719Y-157137401D01*
X95994411Y-156955352D01*
X96109144Y-156756628D01*
X96196958Y-156544627D01*
X96256348Y-156322978D01*
X96286300Y-156095474D01*
X96286300Y-155866006D01*
X96256348Y-155638502D01*
X96196958Y-155416853D01*
X96109144Y-155204852D01*
X96109138Y-155204843D01*
X96109137Y-155204839D01*
X95994413Y-155006131D01*
X95994408Y-155006124D01*
X95854726Y-154824087D01*
X95854707Y-154824066D01*
X95692473Y-154661832D01*
X95692452Y-154661813D01*
X95510415Y-154522131D01*
X95510408Y-154522126D01*
X95311700Y-154407402D01*
X95311692Y-154407398D01*
X95311688Y-154407396D01*
X95099687Y-154319582D01*
X94878038Y-154260192D01*
X94878031Y-154260190D01*
X94650536Y-154230240D01*
X94650534Y-154230240D01*
X94421066Y-154230240D01*
X94421063Y-154230240D01*
X94193568Y-154260190D01*
X93971913Y-154319582D01*
X93759910Y-154407397D01*
X93759899Y-154407402D01*
X93561191Y-154522126D01*
X93561184Y-154522131D01*
X93379147Y-154661813D01*
X93379126Y-154661832D01*
X93216892Y-154824066D01*
X93216873Y-154824087D01*
X93077191Y-155006124D01*
X93077186Y-155006131D01*
X92962462Y-155204839D01*
X92962457Y-155204850D01*
X92874642Y-155416853D01*
X92815250Y-155638508D01*
X92785300Y-155866003D01*
X62726970Y-155866003D01*
X62707179Y-155811032D01*
X62705897Y-155807288D01*
X62651055Y-155638502D01*
X62319056Y-154616716D01*
X62317901Y-154612960D01*
X62302457Y-154559803D01*
X62099733Y-153862021D01*
X62099732Y-153862018D01*
X89027300Y-153862018D01*
X89027300Y-154099462D01*
X89064444Y-154333981D01*
X89064445Y-154333986D01*
X89137816Y-154559798D01*
X89137818Y-154559803D01*
X89223668Y-154728293D01*
X89245617Y-154771370D01*
X89258882Y-154789627D01*
X89385180Y-154963462D01*
X89385182Y-154963464D01*
X89385184Y-154963467D01*
X89553072Y-155131355D01*
X89553075Y-155131357D01*
X89553078Y-155131360D01*
X89745173Y-155270925D01*
X89956737Y-155378722D01*
X90182559Y-155452096D01*
X90417078Y-155489240D01*
X90417081Y-155489240D01*
X90654519Y-155489240D01*
X90654522Y-155489240D01*
X90889041Y-155452096D01*
X91114863Y-155378722D01*
X91326427Y-155270925D01*
X91518522Y-155131360D01*
X91686420Y-154963462D01*
X91825985Y-154771367D01*
X91933782Y-154559803D01*
X92007156Y-154333981D01*
X92044300Y-154099462D01*
X92044300Y-153862018D01*
X97027300Y-153862018D01*
X97027300Y-154099462D01*
X97064444Y-154333981D01*
X97064445Y-154333986D01*
X97137816Y-154559798D01*
X97137818Y-154559803D01*
X97223668Y-154728293D01*
X97245617Y-154771370D01*
X97258882Y-154789627D01*
X97385180Y-154963462D01*
X97385182Y-154963464D01*
X97385184Y-154963467D01*
X97553072Y-155131355D01*
X97553075Y-155131357D01*
X97553078Y-155131360D01*
X97745173Y-155270925D01*
X97956737Y-155378722D01*
X98182559Y-155452096D01*
X98417078Y-155489240D01*
X98417081Y-155489240D01*
X98654519Y-155489240D01*
X98654522Y-155489240D01*
X98889041Y-155452096D01*
X99114863Y-155378722D01*
X99326427Y-155270925D01*
X99518522Y-155131360D01*
X99686420Y-154963462D01*
X99812725Y-154789618D01*
X108045300Y-154789618D01*
X108045300Y-155051861D01*
X108079528Y-155311848D01*
X108079529Y-155311854D01*
X108079530Y-155311856D01*
X108147402Y-155565159D01*
X108247757Y-155807437D01*
X108247758Y-155807438D01*
X108247763Y-155807449D01*
X108378873Y-156034539D01*
X108378877Y-156034545D01*
X108538510Y-156242582D01*
X108538529Y-156242603D01*
X108723936Y-156428010D01*
X108723957Y-156428029D01*
X108931994Y-156587662D01*
X108932000Y-156587666D01*
X109159090Y-156718776D01*
X109159094Y-156718777D01*
X109159103Y-156718783D01*
X109401381Y-156819138D01*
X109654684Y-156887010D01*
X109654690Y-156887010D01*
X109654691Y-156887011D01*
X109679700Y-156890303D01*
X109914680Y-156921240D01*
X109914687Y-156921240D01*
X110176913Y-156921240D01*
X110176920Y-156921240D01*
X110436916Y-156887010D01*
X110690219Y-156819138D01*
X110932497Y-156718783D01*
X111159603Y-156587664D01*
X111367651Y-156428022D01*
X111553082Y-156242591D01*
X111712724Y-156034543D01*
X111810030Y-155866003D01*
X123785300Y-155866003D01*
X123785300Y-156095476D01*
X123815250Y-156322971D01*
X123815252Y-156322978D01*
X123874642Y-156544627D01*
X123962456Y-156756628D01*
X123962457Y-156756629D01*
X123962462Y-156756640D01*
X124077186Y-156955348D01*
X124077191Y-156955355D01*
X124216873Y-157137392D01*
X124216892Y-157137413D01*
X124379126Y-157299647D01*
X124379147Y-157299666D01*
X124561184Y-157439348D01*
X124561191Y-157439353D01*
X124759899Y-157554077D01*
X124759903Y-157554078D01*
X124759912Y-157554084D01*
X124971913Y-157641898D01*
X125193562Y-157701288D01*
X125193566Y-157701288D01*
X125193568Y-157701289D01*
X125252198Y-157709007D01*
X125421066Y-157731240D01*
X125421073Y-157731240D01*
X125650527Y-157731240D01*
X125650534Y-157731240D01*
X125856145Y-157704170D01*
X125878031Y-157701289D01*
X125878031Y-157701288D01*
X125878038Y-157701288D01*
X126099687Y-157641898D01*
X126311688Y-157554084D01*
X126510412Y-157439351D01*
X126692461Y-157299659D01*
X126854719Y-157137401D01*
X126994411Y-156955352D01*
X127109144Y-156756628D01*
X127196958Y-156544627D01*
X127256348Y-156322978D01*
X127286300Y-156095474D01*
X127286300Y-155866006D01*
X127256348Y-155638502D01*
X127196958Y-155416853D01*
X127109144Y-155204852D01*
X127109138Y-155204843D01*
X127109137Y-155204839D01*
X126994413Y-155006131D01*
X126994408Y-155006124D01*
X126854726Y-154824087D01*
X126854707Y-154824066D01*
X126692473Y-154661832D01*
X126692452Y-154661813D01*
X126510415Y-154522131D01*
X126510408Y-154522126D01*
X126311700Y-154407402D01*
X126311692Y-154407398D01*
X126311688Y-154407396D01*
X126099687Y-154319582D01*
X125878038Y-154260192D01*
X125878031Y-154260190D01*
X125650536Y-154230240D01*
X125650534Y-154230240D01*
X125421066Y-154230240D01*
X125421063Y-154230240D01*
X125193568Y-154260190D01*
X124971913Y-154319582D01*
X124759910Y-154407397D01*
X124759899Y-154407402D01*
X124561191Y-154522126D01*
X124561184Y-154522131D01*
X124379147Y-154661813D01*
X124379126Y-154661832D01*
X124216892Y-154824066D01*
X124216873Y-154824087D01*
X124077191Y-155006124D01*
X124077186Y-155006131D01*
X123962462Y-155204839D01*
X123962457Y-155204850D01*
X123874642Y-155416853D01*
X123815250Y-155638508D01*
X123785300Y-155866003D01*
X111810030Y-155866003D01*
X111843843Y-155807437D01*
X111944198Y-155565159D01*
X112012070Y-155311856D01*
X112046300Y-155051860D01*
X112046300Y-154789620D01*
X112012070Y-154529624D01*
X111944198Y-154276321D01*
X111843843Y-154034043D01*
X111843837Y-154034034D01*
X111843836Y-154034030D01*
X111778040Y-153920067D01*
X111744525Y-153862018D01*
X120027300Y-153862018D01*
X120027300Y-154099462D01*
X120064444Y-154333981D01*
X120064445Y-154333986D01*
X120137816Y-154559798D01*
X120137818Y-154559803D01*
X120223668Y-154728293D01*
X120245617Y-154771370D01*
X120258882Y-154789627D01*
X120385180Y-154963462D01*
X120385182Y-154963464D01*
X120385184Y-154963467D01*
X120553072Y-155131355D01*
X120553075Y-155131357D01*
X120553078Y-155131360D01*
X120745173Y-155270925D01*
X120956737Y-155378722D01*
X121182559Y-155452096D01*
X121417078Y-155489240D01*
X121417081Y-155489240D01*
X121654519Y-155489240D01*
X121654522Y-155489240D01*
X121889041Y-155452096D01*
X122114863Y-155378722D01*
X122326427Y-155270925D01*
X122518522Y-155131360D01*
X122686420Y-154963462D01*
X122825985Y-154771367D01*
X122933782Y-154559803D01*
X123007156Y-154333981D01*
X123044300Y-154099462D01*
X123044300Y-153862018D01*
X128027300Y-153862018D01*
X128027300Y-154099462D01*
X128064444Y-154333981D01*
X128064445Y-154333986D01*
X128137816Y-154559798D01*
X128137818Y-154559803D01*
X128223668Y-154728293D01*
X128245617Y-154771370D01*
X128258882Y-154789627D01*
X128385180Y-154963462D01*
X128385182Y-154963464D01*
X128385184Y-154963467D01*
X128553072Y-155131355D01*
X128553075Y-155131357D01*
X128553078Y-155131360D01*
X128745173Y-155270925D01*
X128956737Y-155378722D01*
X129182559Y-155452096D01*
X129417078Y-155489240D01*
X129417081Y-155489240D01*
X129654519Y-155489240D01*
X129654522Y-155489240D01*
X129889041Y-155452096D01*
X130114863Y-155378722D01*
X130326427Y-155270925D01*
X130518522Y-155131360D01*
X130686420Y-154963462D01*
X130825985Y-154771367D01*
X130933782Y-154559803D01*
X131007156Y-154333981D01*
X131044300Y-154099462D01*
X131044300Y-153862018D01*
X131007156Y-153627499D01*
X130933782Y-153401677D01*
X130825985Y-153190113D01*
X130686420Y-152998018D01*
X130686417Y-152998015D01*
X130686415Y-152998012D01*
X130518527Y-152830124D01*
X130518524Y-152830122D01*
X130518522Y-152830120D01*
X130326427Y-152690555D01*
X130114863Y-152582758D01*
X130114860Y-152582757D01*
X130114858Y-152582756D01*
X129889046Y-152509385D01*
X129889042Y-152509384D01*
X129889041Y-152509384D01*
X129654522Y-152472240D01*
X129417078Y-152472240D01*
X129182559Y-152509384D01*
X129182553Y-152509385D01*
X128956741Y-152582756D01*
X128956735Y-152582759D01*
X128745169Y-152690557D01*
X128553075Y-152830122D01*
X128553072Y-152830124D01*
X128385184Y-152998012D01*
X128385182Y-152998015D01*
X128245617Y-153190109D01*
X128137819Y-153401675D01*
X128137816Y-153401681D01*
X128064445Y-153627493D01*
X128064444Y-153627498D01*
X128064444Y-153627499D01*
X128027300Y-153862018D01*
X123044300Y-153862018D01*
X123007156Y-153627499D01*
X122933782Y-153401677D01*
X122825985Y-153190113D01*
X122686420Y-152998018D01*
X122686417Y-152998015D01*
X122686415Y-152998012D01*
X122518527Y-152830124D01*
X122518524Y-152830122D01*
X122518522Y-152830120D01*
X122326427Y-152690555D01*
X122114863Y-152582758D01*
X122114860Y-152582757D01*
X122114858Y-152582756D01*
X121889046Y-152509385D01*
X121889042Y-152509384D01*
X121889041Y-152509384D01*
X121654522Y-152472240D01*
X121417078Y-152472240D01*
X121182559Y-152509384D01*
X121182553Y-152509385D01*
X120956741Y-152582756D01*
X120956735Y-152582759D01*
X120745169Y-152690557D01*
X120553075Y-152830122D01*
X120553072Y-152830124D01*
X120385184Y-152998012D01*
X120385182Y-152998015D01*
X120245617Y-153190109D01*
X120137819Y-153401675D01*
X120137816Y-153401681D01*
X120064445Y-153627493D01*
X120064444Y-153627498D01*
X120064444Y-153627499D01*
X120027300Y-153862018D01*
X111744525Y-153862018D01*
X111712726Y-153806940D01*
X111712722Y-153806934D01*
X111553089Y-153598897D01*
X111553070Y-153598876D01*
X111367663Y-153413469D01*
X111367642Y-153413450D01*
X111159605Y-153253817D01*
X111159599Y-153253813D01*
X110932509Y-153122703D01*
X110932501Y-153122699D01*
X110932497Y-153122697D01*
X110690219Y-153022342D01*
X110436916Y-152954470D01*
X110436914Y-152954469D01*
X110436908Y-152954468D01*
X110176921Y-152920240D01*
X110176920Y-152920240D01*
X109914680Y-152920240D01*
X109914678Y-152920240D01*
X109654691Y-152954468D01*
X109401381Y-153022342D01*
X109159101Y-153122698D01*
X109159090Y-153122703D01*
X108932000Y-153253813D01*
X108931994Y-153253817D01*
X108723957Y-153413450D01*
X108723936Y-153413469D01*
X108538529Y-153598876D01*
X108538510Y-153598897D01*
X108378877Y-153806934D01*
X108378873Y-153806940D01*
X108247763Y-154034030D01*
X108247758Y-154034041D01*
X108147402Y-154276321D01*
X108079528Y-154529631D01*
X108045300Y-154789618D01*
X99812725Y-154789618D01*
X99825985Y-154771367D01*
X99933782Y-154559803D01*
X100007156Y-154333981D01*
X100044300Y-154099462D01*
X100044300Y-153862018D01*
X100007156Y-153627499D01*
X99933782Y-153401677D01*
X99825985Y-153190113D01*
X99686420Y-152998018D01*
X99686417Y-152998015D01*
X99686415Y-152998012D01*
X99518527Y-152830124D01*
X99518524Y-152830122D01*
X99518522Y-152830120D01*
X99326427Y-152690555D01*
X99114863Y-152582758D01*
X99114860Y-152582757D01*
X99114858Y-152582756D01*
X98889046Y-152509385D01*
X98889042Y-152509384D01*
X98889041Y-152509384D01*
X98654522Y-152472240D01*
X98417078Y-152472240D01*
X98182559Y-152509384D01*
X98182553Y-152509385D01*
X97956741Y-152582756D01*
X97956735Y-152582759D01*
X97745169Y-152690557D01*
X97553075Y-152830122D01*
X97553072Y-152830124D01*
X97385184Y-152998012D01*
X97385182Y-152998015D01*
X97245617Y-153190109D01*
X97137819Y-153401675D01*
X97137816Y-153401681D01*
X97064445Y-153627493D01*
X97064444Y-153627498D01*
X97064444Y-153627499D01*
X97027300Y-153862018D01*
X92044300Y-153862018D01*
X92007156Y-153627499D01*
X91933782Y-153401677D01*
X91825985Y-153190113D01*
X91686420Y-152998018D01*
X91686417Y-152998015D01*
X91686415Y-152998012D01*
X91518527Y-152830124D01*
X91518524Y-152830122D01*
X91518522Y-152830120D01*
X91326427Y-152690555D01*
X91114863Y-152582758D01*
X91114860Y-152582757D01*
X91114858Y-152582756D01*
X90889046Y-152509385D01*
X90889042Y-152509384D01*
X90889041Y-152509384D01*
X90654522Y-152472240D01*
X90417078Y-152472240D01*
X90182559Y-152509384D01*
X90182553Y-152509385D01*
X89956741Y-152582756D01*
X89956735Y-152582759D01*
X89745169Y-152690557D01*
X89553075Y-152830122D01*
X89553072Y-152830124D01*
X89385184Y-152998012D01*
X89385182Y-152998015D01*
X89245617Y-153190109D01*
X89137819Y-153401675D01*
X89137816Y-153401681D01*
X89064445Y-153627493D01*
X89064444Y-153627498D01*
X89064444Y-153627499D01*
X89027300Y-153862018D01*
X62099732Y-153862018D01*
X61968647Y-153410819D01*
X61967603Y-153407001D01*
X61894608Y-153122703D01*
X61656292Y-152194523D01*
X61655373Y-152190698D01*
X61382285Y-150968971D01*
X61381483Y-150965095D01*
X61372540Y-150918215D01*
X61146910Y-149735424D01*
X61146248Y-149731635D01*
X60950396Y-148495075D01*
X60949854Y-148491262D01*
X60792952Y-147249250D01*
X60792528Y-147245412D01*
X60674709Y-145999022D01*
X60674404Y-145995144D01*
X60595801Y-144745768D01*
X60595615Y-144741835D01*
X60590964Y-144593848D01*
X60556294Y-143490604D01*
X60556232Y-143486646D01*
X60556232Y-142761046D01*
X97285300Y-142761046D01*
X97285300Y-143080433D01*
X97316602Y-143398248D01*
X97316604Y-143398264D01*
X97328636Y-143458751D01*
X97378911Y-143711500D01*
X97451897Y-143952102D01*
X97471620Y-144017121D01*
X97471621Y-144017125D01*
X97593839Y-144312184D01*
X97744392Y-144593848D01*
X97921820Y-144859389D01*
X97921831Y-144859404D01*
X98124428Y-145106268D01*
X98124446Y-145106288D01*
X98350251Y-145332093D01*
X98350261Y-145332102D01*
X98350265Y-145332106D01*
X98597144Y-145534715D01*
X98862694Y-145712149D01*
X99144356Y-145862701D01*
X99439419Y-145984920D01*
X99745040Y-146077629D01*
X100058277Y-146139936D01*
X100376113Y-146171240D01*
X100376122Y-146171240D01*
X100695478Y-146171240D01*
X100695487Y-146171240D01*
X101013323Y-146139936D01*
X101326560Y-146077629D01*
X101632181Y-145984920D01*
X101927244Y-145862701D01*
X102208906Y-145712149D01*
X102474456Y-145534715D01*
X102721335Y-145332106D01*
X102947166Y-145106275D01*
X103149775Y-144859396D01*
X103327209Y-144593846D01*
X103477761Y-144312184D01*
X103599980Y-144017121D01*
X103692689Y-143711500D01*
X103754996Y-143398263D01*
X103786300Y-143080427D01*
X103786300Y-142761053D01*
X103754996Y-142443217D01*
X103692689Y-142129980D01*
X103599980Y-141824359D01*
X103477761Y-141529296D01*
X103327209Y-141247634D01*
X103149775Y-140982084D01*
X103146163Y-140977683D01*
X102947171Y-140735211D01*
X102947153Y-140735191D01*
X102721348Y-140509386D01*
X102721328Y-140509368D01*
X102474464Y-140306771D01*
X102474449Y-140306760D01*
X102208908Y-140129332D01*
X101927244Y-139978779D01*
X101632185Y-139856561D01*
X101632181Y-139856560D01*
X101559139Y-139834403D01*
X101326560Y-139763851D01*
X101106047Y-139719988D01*
X101013324Y-139701544D01*
X101013308Y-139701542D01*
X100695493Y-139670240D01*
X100695487Y-139670240D01*
X100376113Y-139670240D01*
X100376106Y-139670240D01*
X100058291Y-139701542D01*
X100058275Y-139701544D01*
X99849452Y-139743082D01*
X99745040Y-139763851D01*
X99596540Y-139808898D01*
X99439418Y-139856560D01*
X99439414Y-139856561D01*
X99144355Y-139978779D01*
X98862691Y-140129332D01*
X98597150Y-140306760D01*
X98597135Y-140306771D01*
X98350271Y-140509368D01*
X98350251Y-140509386D01*
X98124446Y-140735191D01*
X98124428Y-140735211D01*
X97921831Y-140982075D01*
X97921820Y-140982090D01*
X97744392Y-141247631D01*
X97593839Y-141529295D01*
X97471621Y-141824354D01*
X97471620Y-141824358D01*
X97433042Y-141951535D01*
X97402534Y-142052107D01*
X97378911Y-142129981D01*
X97316604Y-142443215D01*
X97316602Y-142443231D01*
X97285300Y-142761046D01*
X60556232Y-142761046D01*
X60556232Y-142234833D01*
X60556294Y-142230875D01*
X60561912Y-142052102D01*
X60595616Y-140979620D01*
X60595802Y-140975690D01*
X60674405Y-139726330D01*
X60674708Y-139722462D01*
X60792528Y-138476060D01*
X60792951Y-138472236D01*
X60949855Y-137230208D01*
X60950395Y-137226413D01*
X61146250Y-135989833D01*
X61146908Y-135986066D01*
X61381484Y-134756374D01*
X61382285Y-134752508D01*
X61424163Y-134565159D01*
X61597516Y-133789618D01*
X83045300Y-133789618D01*
X83045300Y-134051861D01*
X83079528Y-134311848D01*
X83079529Y-134311854D01*
X83079530Y-134311856D01*
X83147402Y-134565159D01*
X83247757Y-134807437D01*
X83247758Y-134807438D01*
X83247763Y-134807449D01*
X83378873Y-135034539D01*
X83378877Y-135034545D01*
X83538510Y-135242582D01*
X83538529Y-135242603D01*
X83723936Y-135428010D01*
X83723957Y-135428029D01*
X83931994Y-135587662D01*
X83932000Y-135587666D01*
X84159090Y-135718776D01*
X84159094Y-135718777D01*
X84159103Y-135718783D01*
X84401381Y-135819138D01*
X84654684Y-135887010D01*
X84654690Y-135887010D01*
X84654691Y-135887011D01*
X84679700Y-135890303D01*
X84914680Y-135921240D01*
X84914687Y-135921240D01*
X85176913Y-135921240D01*
X85176920Y-135921240D01*
X85436916Y-135887010D01*
X85690219Y-135819138D01*
X85932497Y-135718783D01*
X86159603Y-135587664D01*
X86367651Y-135428022D01*
X86553082Y-135242591D01*
X86712724Y-135034543D01*
X86843843Y-134807437D01*
X86944198Y-134565159D01*
X87012070Y-134311856D01*
X87046300Y-134051860D01*
X87046300Y-133789620D01*
X87012070Y-133529624D01*
X86944198Y-133276321D01*
X86843843Y-133034043D01*
X86843837Y-133034034D01*
X86843836Y-133034030D01*
X86712726Y-132806940D01*
X86712722Y-132806934D01*
X86553089Y-132598897D01*
X86553070Y-132598876D01*
X86367663Y-132413469D01*
X86367642Y-132413450D01*
X86159605Y-132253817D01*
X86159599Y-132253813D01*
X85932509Y-132122703D01*
X85932501Y-132122699D01*
X85932497Y-132122697D01*
X85690219Y-132022342D01*
X85436916Y-131954470D01*
X85436914Y-131954469D01*
X85436908Y-131954468D01*
X85176921Y-131920240D01*
X85176920Y-131920240D01*
X84914680Y-131920240D01*
X84914678Y-131920240D01*
X84654691Y-131954468D01*
X84401381Y-132022342D01*
X84159101Y-132122698D01*
X84159090Y-132122703D01*
X83932000Y-132253813D01*
X83931994Y-132253817D01*
X83723957Y-132413450D01*
X83723936Y-132413469D01*
X83538529Y-132598876D01*
X83538510Y-132598897D01*
X83378877Y-132806934D01*
X83378873Y-132806940D01*
X83247763Y-133034030D01*
X83247758Y-133034041D01*
X83147402Y-133276321D01*
X83079528Y-133529631D01*
X83045300Y-133789618D01*
X61597516Y-133789618D01*
X61655381Y-133530743D01*
X61656288Y-133526971D01*
X61967606Y-132314465D01*
X61968647Y-132310660D01*
X61980192Y-132270922D01*
X62317914Y-131108475D01*
X62319051Y-131104780D01*
X62397929Y-130862018D01*
X89027300Y-130862018D01*
X89027300Y-131099462D01*
X89064444Y-131333981D01*
X89064445Y-131333986D01*
X89137816Y-131559798D01*
X89137818Y-131559803D01*
X89245615Y-131771367D01*
X89385180Y-131963462D01*
X89385182Y-131963464D01*
X89385184Y-131963467D01*
X89553072Y-132131355D01*
X89553075Y-132131357D01*
X89553078Y-132131360D01*
X89745173Y-132270925D01*
X89956737Y-132378722D01*
X90182559Y-132452096D01*
X90417078Y-132489240D01*
X90417081Y-132489240D01*
X90654519Y-132489240D01*
X90654522Y-132489240D01*
X90889041Y-132452096D01*
X91114863Y-132378722D01*
X91326427Y-132270925D01*
X91518522Y-132131360D01*
X91686420Y-131963462D01*
X91825985Y-131771367D01*
X91933782Y-131559803D01*
X92007156Y-131333981D01*
X92044300Y-131099462D01*
X92044300Y-130862018D01*
X97027300Y-130862018D01*
X97027300Y-131099462D01*
X97064444Y-131333981D01*
X97064445Y-131333986D01*
X97137816Y-131559798D01*
X97137818Y-131559803D01*
X97245615Y-131771367D01*
X97385180Y-131963462D01*
X97385182Y-131963464D01*
X97385184Y-131963467D01*
X97553072Y-132131355D01*
X97553075Y-132131357D01*
X97553078Y-132131360D01*
X97745173Y-132270925D01*
X97956737Y-132378722D01*
X98182559Y-132452096D01*
X98417078Y-132489240D01*
X98417081Y-132489240D01*
X98654519Y-132489240D01*
X98654522Y-132489240D01*
X98889041Y-132452096D01*
X99114863Y-132378722D01*
X99326427Y-132270925D01*
X99518522Y-132131360D01*
X99686420Y-131963462D01*
X99825985Y-131771367D01*
X99933782Y-131559803D01*
X100007156Y-131333981D01*
X100044300Y-131099462D01*
X100044300Y-130862018D01*
X100007156Y-130627499D01*
X99933782Y-130401677D01*
X99825985Y-130190113D01*
X99783224Y-130131258D01*
X112127300Y-130131258D01*
X112127300Y-130131261D01*
X112127300Y-130310219D01*
X112162213Y-130485740D01*
X112230698Y-130651076D01*
X112330122Y-130799875D01*
X112330124Y-130799877D01*
X112365395Y-130835148D01*
X112399421Y-130897460D01*
X112402300Y-130924243D01*
X112402300Y-137558346D01*
X112402300Y-137683134D01*
X112426645Y-137805525D01*
X112474400Y-137920815D01*
X112543729Y-138024573D01*
X112543731Y-138024575D01*
X115631961Y-141112807D01*
X115631967Y-141112812D01*
X115735725Y-141182141D01*
X115817247Y-141215908D01*
X115851015Y-141229895D01*
X115973406Y-141254240D01*
X115973407Y-141254240D01*
X116098194Y-141254240D01*
X117271206Y-141254240D01*
X117301121Y-141263023D01*
X117331591Y-141269652D01*
X117336686Y-141273466D01*
X117339327Y-141274242D01*
X117360301Y-141291145D01*
X117366301Y-141297145D01*
X117400327Y-141359457D01*
X117395262Y-141430272D01*
X117352715Y-141487108D01*
X117286195Y-141511919D01*
X117277206Y-141512240D01*
X117146318Y-141512240D01*
X117015571Y-141538247D01*
X116970800Y-141547153D01*
X116970799Y-141547153D01*
X116970796Y-141547154D01*
X116879123Y-141585127D01*
X116819438Y-141609850D01*
X116805462Y-141615639D01*
X116656669Y-141715059D01*
X116656662Y-141715064D01*
X116530124Y-141841602D01*
X116530119Y-141841609D01*
X116430699Y-141990402D01*
X116362214Y-142155736D01*
X116327300Y-142331258D01*
X116327300Y-142510221D01*
X116362214Y-142685743D01*
X116369663Y-142703725D01*
X116430698Y-142851076D01*
X116530122Y-142999875D01*
X116656665Y-143126418D01*
X116805464Y-143225842D01*
X116970800Y-143294327D01*
X117146321Y-143329240D01*
X117196206Y-143329240D01*
X117264327Y-143349242D01*
X117285301Y-143366145D01*
X117820395Y-143901239D01*
X117854421Y-143963551D01*
X117857300Y-143990334D01*
X117857300Y-144849389D01*
X117863809Y-144909936D01*
X117863811Y-144909944D01*
X117914910Y-145046942D01*
X117914912Y-145046947D01*
X118002538Y-145164001D01*
X118126810Y-145257030D01*
X118125466Y-145258824D01*
X118166881Y-145300230D01*
X118182300Y-145360627D01*
X118182300Y-145908986D01*
X118162298Y-145977107D01*
X118122449Y-146016226D01*
X118097762Y-146031453D01*
X117976516Y-146152698D01*
X117976515Y-146152699D01*
X117886498Y-146298639D01*
X117832563Y-146461406D01*
X117822300Y-146561859D01*
X117822300Y-147159620D01*
X117822299Y-147159620D01*
X117832563Y-147260073D01*
X117832564Y-147260076D01*
X117886498Y-147422841D01*
X117976323Y-147568468D01*
X117976515Y-147568780D01*
X117976520Y-147568786D01*
X118097753Y-147690019D01*
X118097759Y-147690024D01*
X118097760Y-147690025D01*
X118243699Y-147780042D01*
X118406464Y-147833976D01*
X118426556Y-147836028D01*
X118506920Y-147844240D01*
X118506928Y-147844240D01*
X119054680Y-147844240D01*
X119127736Y-147836775D01*
X119155136Y-147833976D01*
X119317901Y-147780042D01*
X119463840Y-147690025D01*
X119467050Y-147686814D01*
X119529354Y-147652785D01*
X119600170Y-147657841D01*
X119645247Y-147686807D01*
X119648065Y-147689625D01*
X119648071Y-147689630D01*
X119793915Y-147779587D01*
X119956558Y-147833482D01*
X119956570Y-147833484D01*
X120056947Y-147843739D01*
X120056947Y-147843740D01*
X120076800Y-147843740D01*
X120584800Y-147843740D01*
X120604653Y-147843740D01*
X120604652Y-147843739D01*
X120705029Y-147833484D01*
X120705041Y-147833482D01*
X120867684Y-147779587D01*
X121013528Y-147689630D01*
X121013534Y-147689625D01*
X121134685Y-147568474D01*
X121134690Y-147568468D01*
X121224647Y-147422624D01*
X121278542Y-147259981D01*
X121278544Y-147259969D01*
X121288799Y-147159592D01*
X121288800Y-147159592D01*
X121288800Y-147114740D01*
X120584800Y-147114740D01*
X120584800Y-147843740D01*
X120076800Y-147843740D01*
X120076800Y-146606740D01*
X120584800Y-146606740D01*
X121288800Y-146606740D01*
X121288800Y-146561887D01*
X121278544Y-146461510D01*
X121278542Y-146461498D01*
X121224647Y-146298855D01*
X121134690Y-146153011D01*
X121134685Y-146153005D01*
X121013534Y-146031854D01*
X121013528Y-146031849D01*
X120867684Y-145941892D01*
X120705041Y-145887997D01*
X120705029Y-145887995D01*
X120604652Y-145877740D01*
X120584800Y-145877740D01*
X120584800Y-146606740D01*
X120076800Y-146606740D01*
X120076800Y-145877740D01*
X120056947Y-145877740D01*
X119956570Y-145887995D01*
X119956558Y-145887997D01*
X119793915Y-145941892D01*
X119641826Y-146035702D01*
X119640150Y-146032986D01*
X119587471Y-146054171D01*
X119517737Y-146040843D01*
X119466278Y-145991929D01*
X119449300Y-145928760D01*
X119449300Y-145360627D01*
X119469302Y-145292506D01*
X119505865Y-145258467D01*
X119504790Y-145257030D01*
X119629061Y-145164001D01*
X119688402Y-145084731D01*
X119745237Y-145042184D01*
X119789270Y-145034240D01*
X127692274Y-145034240D01*
X127760395Y-145054242D01*
X127775060Y-145065253D01*
X127785132Y-145074031D01*
X127822539Y-145124001D01*
X127939596Y-145211629D01*
X127945563Y-145213854D01*
X127959086Y-145225640D01*
X127971099Y-145244451D01*
X127986881Y-145260230D01*
X127990680Y-145275114D01*
X127997298Y-145285476D01*
X127997253Y-145300860D01*
X128002300Y-145320627D01*
X128002300Y-146140011D01*
X127983541Y-146206157D01*
X127926498Y-146298637D01*
X127872563Y-146461406D01*
X127862300Y-146561859D01*
X127862300Y-147159620D01*
X127862299Y-147159620D01*
X127872563Y-147260073D01*
X127872564Y-147260076D01*
X127926498Y-147422841D01*
X128016323Y-147568468D01*
X128016515Y-147568780D01*
X128016520Y-147568786D01*
X128137753Y-147690019D01*
X128137759Y-147690024D01*
X128137760Y-147690025D01*
X128283699Y-147780042D01*
X128446464Y-147833976D01*
X128466556Y-147836028D01*
X128546920Y-147844240D01*
X128546928Y-147844240D01*
X129094680Y-147844240D01*
X129167736Y-147836775D01*
X129195136Y-147833976D01*
X129357901Y-147780042D01*
X129503840Y-147690025D01*
X129507050Y-147686814D01*
X129569354Y-147652785D01*
X129640170Y-147657841D01*
X129685247Y-147686807D01*
X129688065Y-147689625D01*
X129688071Y-147689630D01*
X129833915Y-147779587D01*
X129996558Y-147833482D01*
X129996570Y-147833484D01*
X130096947Y-147843739D01*
X130096947Y-147843740D01*
X130116800Y-147843740D01*
X130624800Y-147843740D01*
X130644653Y-147843740D01*
X130644652Y-147843739D01*
X130745029Y-147833484D01*
X130745041Y-147833482D01*
X130907684Y-147779587D01*
X131053528Y-147689630D01*
X131053534Y-147689625D01*
X131174685Y-147568474D01*
X131174690Y-147568468D01*
X131264647Y-147422624D01*
X131318542Y-147259981D01*
X131318544Y-147259969D01*
X131328799Y-147159592D01*
X131328800Y-147159592D01*
X131328800Y-147114740D01*
X130624800Y-147114740D01*
X130624800Y-147843740D01*
X130116800Y-147843740D01*
X130116800Y-146606740D01*
X130624800Y-146606740D01*
X131328800Y-146606740D01*
X131328800Y-146561887D01*
X131318544Y-146461510D01*
X131318542Y-146461498D01*
X131264647Y-146298855D01*
X131174690Y-146153011D01*
X131174685Y-146153005D01*
X131053534Y-146031854D01*
X131053528Y-146031849D01*
X130907684Y-145941892D01*
X130745041Y-145887997D01*
X130745029Y-145887995D01*
X130644652Y-145877740D01*
X130624800Y-145877740D01*
X130624800Y-146606740D01*
X130116800Y-146606740D01*
X130116800Y-145877740D01*
X130096947Y-145877740D01*
X129996570Y-145887995D01*
X129996558Y-145887997D01*
X129833915Y-145941892D01*
X129688071Y-146031849D01*
X129688067Y-146031852D01*
X129685242Y-146034678D01*
X129682826Y-146035996D01*
X129682314Y-146036402D01*
X129682244Y-146036314D01*
X129622928Y-146068699D01*
X129552112Y-146063630D01*
X129529775Y-146052675D01*
X129517374Y-146044989D01*
X129503840Y-146031455D01*
X129357901Y-145941438D01*
X129341560Y-145936023D01*
X129328923Y-145928191D01*
X129314754Y-145912370D01*
X129297292Y-145900279D01*
X129291545Y-145886455D01*
X129281558Y-145875304D01*
X129278192Y-145854334D01*
X129270039Y-145834722D01*
X129269300Y-145821093D01*
X129269300Y-145320627D01*
X129289302Y-145252506D01*
X129325865Y-145218467D01*
X129324790Y-145217030D01*
X129449061Y-145124001D01*
X129536687Y-145006947D01*
X129536687Y-145006946D01*
X129536689Y-145006944D01*
X129587789Y-144869941D01*
X129588924Y-144859389D01*
X129594299Y-144809389D01*
X129594300Y-144809372D01*
X129594300Y-144246845D01*
X129614302Y-144178724D01*
X129667958Y-144132231D01*
X129738232Y-144122127D01*
X129802812Y-144151621D01*
X129821169Y-144171337D01*
X129822896Y-144173644D01*
X129939834Y-144261184D01*
X130076706Y-144312234D01*
X130137202Y-144318739D01*
X130137215Y-144318740D01*
X130381800Y-144318740D01*
X130889800Y-144318740D01*
X131134385Y-144318740D01*
X131134397Y-144318739D01*
X131194893Y-144312234D01*
X131331764Y-144261184D01*
X131331765Y-144261184D01*
X131448704Y-144173644D01*
X131536244Y-144056705D01*
X131536244Y-144056704D01*
X131587294Y-143919833D01*
X131593799Y-143859337D01*
X131593800Y-143859325D01*
X131593800Y-143664740D01*
X130889800Y-143664740D01*
X130889800Y-144318740D01*
X130381800Y-144318740D01*
X130381800Y-143664740D01*
X129677131Y-143664740D01*
X129616290Y-143697961D01*
X129545474Y-143692895D01*
X129504529Y-143667870D01*
X129495756Y-143659856D01*
X129449061Y-143597479D01*
X129332004Y-143509851D01*
X129331216Y-143509557D01*
X129324881Y-143503770D01*
X129309539Y-143478464D01*
X129291804Y-143454773D01*
X129291352Y-143448465D01*
X129288075Y-143443059D01*
X129288850Y-143413475D01*
X129286739Y-143383957D01*
X129289769Y-143378407D01*
X129289935Y-143372087D01*
X129306580Y-143347619D01*
X129320764Y-143321645D01*
X129329260Y-143314282D01*
X129329870Y-143313387D01*
X129330703Y-143313032D01*
X129334351Y-143309872D01*
X129395627Y-143264001D01*
X129449061Y-143224001D01*
X129488641Y-143171127D01*
X129545472Y-143128583D01*
X129616288Y-143123517D01*
X129677134Y-143156740D01*
X131593800Y-143156740D01*
X131593800Y-142962154D01*
X131593799Y-142962142D01*
X131587294Y-142901646D01*
X131536245Y-142764778D01*
X131532931Y-142760351D01*
X131508116Y-142693832D01*
X131523204Y-142624457D01*
X131544691Y-142595752D01*
X132538301Y-141602142D01*
X132600611Y-141568119D01*
X132627394Y-141565240D01*
X132677278Y-141565240D01*
X132677279Y-141565240D01*
X132852800Y-141530327D01*
X133018136Y-141461842D01*
X133166935Y-141362418D01*
X133293478Y-141235875D01*
X133392902Y-141087076D01*
X133461387Y-140921740D01*
X133496300Y-140746219D01*
X133496300Y-140567261D01*
X133461387Y-140391740D01*
X133396102Y-140234129D01*
X137735300Y-140234129D01*
X137735300Y-140407351D01*
X137762398Y-140578441D01*
X137815927Y-140743185D01*
X137815928Y-140743188D01*
X137815930Y-140743192D01*
X137894568Y-140897528D01*
X137996387Y-141037670D01*
X138118869Y-141160152D01*
X138118872Y-141160154D01*
X138259012Y-141261972D01*
X138413355Y-141340613D01*
X138578099Y-141394142D01*
X138749189Y-141421240D01*
X138749192Y-141421240D01*
X138922408Y-141421240D01*
X138922411Y-141421240D01*
X139093501Y-141394142D01*
X139258245Y-141340613D01*
X139412588Y-141261972D01*
X139552728Y-141160154D01*
X139675214Y-141037668D01*
X139777032Y-140897528D01*
X139855673Y-140743185D01*
X139909202Y-140578441D01*
X139936300Y-140407351D01*
X139936300Y-140234129D01*
X139909202Y-140063039D01*
X139855673Y-139898295D01*
X139777032Y-139743952D01*
X139675214Y-139603812D01*
X139675212Y-139603809D01*
X139552730Y-139481327D01*
X139412588Y-139379508D01*
X139258252Y-139300870D01*
X139258248Y-139300868D01*
X139258245Y-139300867D01*
X139093501Y-139247338D01*
X138922411Y-139220240D01*
X138749189Y-139220240D01*
X138578099Y-139247338D01*
X138578096Y-139247338D01*
X138578095Y-139247339D01*
X138504540Y-139271239D01*
X138413355Y-139300867D01*
X138413353Y-139300867D01*
X138413347Y-139300870D01*
X138259011Y-139379508D01*
X138118869Y-139481327D01*
X137996387Y-139603809D01*
X137894568Y-139743951D01*
X137815930Y-139898287D01*
X137815927Y-139898293D01*
X137815927Y-139898295D01*
X137793526Y-139967238D01*
X137767104Y-140048557D01*
X137762398Y-140063039D01*
X137735300Y-140234129D01*
X133396102Y-140234129D01*
X133392902Y-140226404D01*
X133293478Y-140077605D01*
X133166935Y-139951062D01*
X133018136Y-139851638D01*
X132896111Y-139801093D01*
X132852803Y-139783154D01*
X132852801Y-139783153D01*
X132852800Y-139783153D01*
X132764445Y-139765578D01*
X132677281Y-139748240D01*
X132677279Y-139748240D01*
X132498321Y-139748240D01*
X132498318Y-139748240D01*
X132367571Y-139774247D01*
X132322800Y-139783153D01*
X132322799Y-139783153D01*
X132322796Y-139783154D01*
X132157462Y-139851639D01*
X132008669Y-139951059D01*
X132008662Y-139951064D01*
X131882124Y-140077602D01*
X131882122Y-140077605D01*
X131782698Y-140226404D01*
X131779498Y-140234129D01*
X131714214Y-140391736D01*
X131679300Y-140567258D01*
X131679300Y-140617146D01*
X131659298Y-140685267D01*
X131642395Y-140706241D01*
X130558301Y-141790335D01*
X130495989Y-141824361D01*
X130469206Y-141827240D01*
X129609270Y-141827240D01*
X129541149Y-141807238D01*
X129508402Y-141776749D01*
X129449061Y-141697478D01*
X129332007Y-141609852D01*
X129332002Y-141609850D01*
X129195004Y-141558751D01*
X129194996Y-141558749D01*
X129134449Y-141552240D01*
X129134438Y-141552240D01*
X128137162Y-141552240D01*
X128137150Y-141552240D01*
X128076603Y-141558749D01*
X128076595Y-141558751D01*
X127939597Y-141609850D01*
X127939592Y-141609852D01*
X127822538Y-141697478D01*
X127734912Y-141814532D01*
X127734910Y-141814537D01*
X127683811Y-141951535D01*
X127683809Y-141951543D01*
X127677300Y-142012090D01*
X127677300Y-142909389D01*
X127683809Y-142969936D01*
X127683811Y-142969944D01*
X127734910Y-143106942D01*
X127734912Y-143106947D01*
X127822538Y-143224001D01*
X127937248Y-143309872D01*
X127979795Y-143366708D01*
X127984859Y-143437524D01*
X127950834Y-143499836D01*
X127937248Y-143511608D01*
X127822538Y-143597478D01*
X127733254Y-143716749D01*
X127676418Y-143759296D01*
X127632386Y-143767240D01*
X121888491Y-143767240D01*
X121820370Y-143747238D01*
X121799396Y-143730335D01*
X121773801Y-143704740D01*
X119857132Y-143704740D01*
X119796289Y-143737962D01*
X119725473Y-143732896D01*
X119684528Y-143707871D01*
X119675760Y-143699862D01*
X119629061Y-143637479D01*
X119512004Y-143549851D01*
X119511216Y-143549557D01*
X119504881Y-143543770D01*
X119489540Y-143518466D01*
X119471804Y-143494773D01*
X119471352Y-143488464D01*
X119468075Y-143483058D01*
X119468850Y-143453479D01*
X119466739Y-143423957D01*
X119469770Y-143418405D01*
X119469936Y-143412086D01*
X119486579Y-143387621D01*
X119500764Y-143361645D01*
X119509261Y-143354282D01*
X119509871Y-143353386D01*
X119510704Y-143353031D01*
X119514351Y-143349872D01*
X119629061Y-143264001D01*
X119668640Y-143211130D01*
X119725475Y-143168583D01*
X119796291Y-143163518D01*
X119857132Y-143196740D01*
X120561800Y-143196740D01*
X121069800Y-143196740D01*
X121773800Y-143196740D01*
X121773800Y-143002154D01*
X121773799Y-143002142D01*
X121767294Y-142941646D01*
X121716244Y-142804775D01*
X121716244Y-142804774D01*
X121628704Y-142687835D01*
X121511765Y-142600295D01*
X121374893Y-142549245D01*
X121314397Y-142542740D01*
X121069800Y-142542740D01*
X121069800Y-143196740D01*
X120561800Y-143196740D01*
X120561800Y-142542740D01*
X120317202Y-142542740D01*
X120256706Y-142549245D01*
X120119835Y-142600295D01*
X120119834Y-142600295D01*
X120002896Y-142687835D01*
X120001165Y-142690148D01*
X119998850Y-142691880D01*
X119996523Y-142694208D01*
X119996188Y-142693873D01*
X119944327Y-142732692D01*
X119873511Y-142737753D01*
X119811201Y-142703725D01*
X119777178Y-142641412D01*
X119774300Y-142614634D01*
X119774300Y-142052107D01*
X119774299Y-142052090D01*
X119767790Y-141991543D01*
X119767788Y-141991535D01*
X119716689Y-141854537D01*
X119716687Y-141854532D01*
X119629061Y-141737478D01*
X119512004Y-141649850D01*
X119452548Y-141627674D01*
X119395712Y-141585127D01*
X119380171Y-141557835D01*
X119377201Y-141550666D01*
X119377201Y-141550665D01*
X119307872Y-141446907D01*
X117989633Y-140128669D01*
X117951268Y-140103034D01*
X117905742Y-140048557D01*
X117896895Y-139978114D01*
X117927536Y-139914070D01*
X117932143Y-139909209D01*
X117941478Y-139899875D01*
X118040902Y-139751076D01*
X118109387Y-139585740D01*
X118144300Y-139410219D01*
X118144300Y-139231261D01*
X118109387Y-139055740D01*
X118040902Y-138890404D01*
X117941478Y-138741605D01*
X117814935Y-138615062D01*
X117666136Y-138515638D01*
X117549229Y-138467213D01*
X117500803Y-138447154D01*
X117500801Y-138447153D01*
X117500800Y-138447153D01*
X117412445Y-138429578D01*
X117325281Y-138412240D01*
X117325279Y-138412240D01*
X117275395Y-138412240D01*
X117207274Y-138392238D01*
X117186300Y-138375335D01*
X116006205Y-137195240D01*
X115972179Y-137132928D01*
X115969300Y-137106145D01*
X115969300Y-133789618D01*
X133045300Y-133789618D01*
X133045300Y-134051861D01*
X133079528Y-134311848D01*
X133079529Y-134311854D01*
X133079530Y-134311856D01*
X133147402Y-134565159D01*
X133247757Y-134807437D01*
X133247758Y-134807438D01*
X133247763Y-134807449D01*
X133378873Y-135034539D01*
X133378877Y-135034545D01*
X133538510Y-135242582D01*
X133538529Y-135242603D01*
X133723936Y-135428010D01*
X133723957Y-135428029D01*
X133931994Y-135587662D01*
X133932000Y-135587666D01*
X134159090Y-135718776D01*
X134159094Y-135718777D01*
X134159103Y-135718783D01*
X134401381Y-135819138D01*
X134654684Y-135887010D01*
X134654690Y-135887010D01*
X134654691Y-135887011D01*
X134679700Y-135890303D01*
X134914680Y-135921240D01*
X134914687Y-135921240D01*
X135176913Y-135921240D01*
X135176920Y-135921240D01*
X135436916Y-135887010D01*
X135690219Y-135819138D01*
X135932497Y-135718783D01*
X136159603Y-135587664D01*
X136367651Y-135428022D01*
X136553082Y-135242591D01*
X136712724Y-135034543D01*
X136843843Y-134807437D01*
X136944198Y-134565159D01*
X137012070Y-134311856D01*
X137046300Y-134051860D01*
X137046300Y-133789620D01*
X137012070Y-133529624D01*
X136944198Y-133276321D01*
X136843843Y-133034043D01*
X136843837Y-133034034D01*
X136843836Y-133034030D01*
X136712726Y-132806940D01*
X136712722Y-132806934D01*
X136553089Y-132598897D01*
X136553070Y-132598876D01*
X136367663Y-132413469D01*
X136367642Y-132413450D01*
X136159605Y-132253817D01*
X136159599Y-132253813D01*
X135932509Y-132122703D01*
X135932501Y-132122699D01*
X135932497Y-132122697D01*
X135690219Y-132022342D01*
X135436916Y-131954470D01*
X135436914Y-131954469D01*
X135436908Y-131954468D01*
X135176921Y-131920240D01*
X135176920Y-131920240D01*
X134914680Y-131920240D01*
X134914678Y-131920240D01*
X134654691Y-131954468D01*
X134401381Y-132022342D01*
X134159101Y-132122698D01*
X134159090Y-132122703D01*
X133932000Y-132253813D01*
X133931994Y-132253817D01*
X133723957Y-132413450D01*
X133723936Y-132413469D01*
X133538529Y-132598876D01*
X133538510Y-132598897D01*
X133378877Y-132806934D01*
X133378873Y-132806940D01*
X133247763Y-133034030D01*
X133247758Y-133034041D01*
X133147402Y-133276321D01*
X133079528Y-133529631D01*
X133045300Y-133789618D01*
X115969300Y-133789618D01*
X115969300Y-130924243D01*
X115977051Y-130897844D01*
X115981263Y-130870655D01*
X115987329Y-130862018D01*
X120027300Y-130862018D01*
X120027300Y-131099462D01*
X120064444Y-131333981D01*
X120064445Y-131333986D01*
X120137816Y-131559798D01*
X120137818Y-131559803D01*
X120245615Y-131771367D01*
X120385180Y-131963462D01*
X120385182Y-131963464D01*
X120385184Y-131963467D01*
X120553072Y-132131355D01*
X120553075Y-132131357D01*
X120553078Y-132131360D01*
X120745173Y-132270925D01*
X120956737Y-132378722D01*
X121182559Y-132452096D01*
X121417078Y-132489240D01*
X121417081Y-132489240D01*
X121654519Y-132489240D01*
X121654522Y-132489240D01*
X121889041Y-132452096D01*
X122114863Y-132378722D01*
X122326427Y-132270925D01*
X122518522Y-132131360D01*
X122686420Y-131963462D01*
X122825985Y-131771367D01*
X122933782Y-131559803D01*
X123007156Y-131333981D01*
X123044300Y-131099462D01*
X123044300Y-130862018D01*
X128027300Y-130862018D01*
X128027300Y-131099462D01*
X128064444Y-131333981D01*
X128064445Y-131333986D01*
X128137816Y-131559798D01*
X128137818Y-131559803D01*
X128245615Y-131771367D01*
X128385180Y-131963462D01*
X128385182Y-131963464D01*
X128385184Y-131963467D01*
X128553072Y-132131355D01*
X128553075Y-132131357D01*
X128553078Y-132131360D01*
X128745173Y-132270925D01*
X128956737Y-132378722D01*
X129182559Y-132452096D01*
X129417078Y-132489240D01*
X129417081Y-132489240D01*
X129654519Y-132489240D01*
X129654522Y-132489240D01*
X129889041Y-132452096D01*
X130114863Y-132378722D01*
X130326427Y-132270925D01*
X130518522Y-132131360D01*
X130686420Y-131963462D01*
X130825985Y-131771367D01*
X130933782Y-131559803D01*
X131007156Y-131333981D01*
X131044300Y-131099462D01*
X131044300Y-130862018D01*
X131007156Y-130627499D01*
X130933782Y-130401677D01*
X130825985Y-130190113D01*
X130686420Y-129998018D01*
X130686417Y-129998015D01*
X130686415Y-129998012D01*
X130518527Y-129830124D01*
X130518524Y-129830122D01*
X130518522Y-129830120D01*
X130326427Y-129690555D01*
X130114863Y-129582758D01*
X130114860Y-129582757D01*
X130114858Y-129582756D01*
X129889046Y-129509385D01*
X129889042Y-129509384D01*
X129889041Y-129509384D01*
X129654522Y-129472240D01*
X129417078Y-129472240D01*
X129182559Y-129509384D01*
X129182553Y-129509385D01*
X128956741Y-129582756D01*
X128956735Y-129582759D01*
X128745169Y-129690557D01*
X128553075Y-129830122D01*
X128553072Y-129830124D01*
X128385184Y-129998012D01*
X128385182Y-129998015D01*
X128245617Y-130190109D01*
X128137819Y-130401675D01*
X128137816Y-130401681D01*
X128064445Y-130627493D01*
X128064444Y-130627498D01*
X128064444Y-130627499D01*
X128027300Y-130862018D01*
X123044300Y-130862018D01*
X123007156Y-130627499D01*
X122933782Y-130401677D01*
X122825985Y-130190113D01*
X122686420Y-129998018D01*
X122686417Y-129998015D01*
X122686415Y-129998012D01*
X122518527Y-129830124D01*
X122518524Y-129830122D01*
X122518522Y-129830120D01*
X122326427Y-129690555D01*
X122114863Y-129582758D01*
X122114860Y-129582757D01*
X122114858Y-129582756D01*
X121889046Y-129509385D01*
X121889042Y-129509384D01*
X121889041Y-129509384D01*
X121654522Y-129472240D01*
X121417078Y-129472240D01*
X121182559Y-129509384D01*
X121182553Y-129509385D01*
X120956741Y-129582756D01*
X120956735Y-129582759D01*
X120745169Y-129690557D01*
X120553075Y-129830122D01*
X120553072Y-129830124D01*
X120385184Y-129998012D01*
X120385182Y-129998015D01*
X120245617Y-130190109D01*
X120137819Y-130401675D01*
X120137816Y-130401681D01*
X120064445Y-130627493D01*
X120064444Y-130627498D01*
X120064444Y-130627499D01*
X120027300Y-130862018D01*
X115987329Y-130862018D01*
X115987743Y-130861429D01*
X115989302Y-130856122D01*
X116000980Y-130840698D01*
X116003499Y-130837853D01*
X116041478Y-130799875D01*
X116140902Y-130651076D01*
X116209387Y-130485740D01*
X116244300Y-130310219D01*
X116244300Y-130131261D01*
X116209387Y-129955740D01*
X116140902Y-129790404D01*
X116041478Y-129641605D01*
X115914935Y-129515062D01*
X115766136Y-129415638D01*
X115649229Y-129367213D01*
X115600803Y-129347154D01*
X115600801Y-129347153D01*
X115600800Y-129347153D01*
X115512445Y-129329578D01*
X115425281Y-129312240D01*
X115425279Y-129312240D01*
X115246321Y-129312240D01*
X115246318Y-129312240D01*
X115115571Y-129338247D01*
X115070800Y-129347153D01*
X115070799Y-129347153D01*
X115070796Y-129347154D01*
X114905462Y-129415639D01*
X114756669Y-129515059D01*
X114756662Y-129515064D01*
X114630124Y-129641602D01*
X114630119Y-129641609D01*
X114530699Y-129790402D01*
X114462214Y-129955736D01*
X114427300Y-130131258D01*
X114427300Y-130131261D01*
X114427300Y-130310219D01*
X114462213Y-130485740D01*
X114530698Y-130651076D01*
X114630122Y-130799875D01*
X114630124Y-130799877D01*
X114665395Y-130835148D01*
X114699421Y-130897460D01*
X114702300Y-130924243D01*
X114702300Y-137358346D01*
X114702300Y-137483134D01*
X114726645Y-137605525D01*
X114774400Y-137720815D01*
X114843729Y-137824573D01*
X114843731Y-137824575D01*
X116290395Y-139271239D01*
X116324421Y-139333551D01*
X116327300Y-139360334D01*
X116327300Y-139410221D01*
X116362214Y-139585743D01*
X116430698Y-139751076D01*
X116457534Y-139791239D01*
X116460619Y-139801093D01*
X116467382Y-139808898D01*
X116471049Y-139834403D01*
X116478748Y-139858992D01*
X116476016Y-139868949D01*
X116477486Y-139879172D01*
X116466780Y-139902612D01*
X116459964Y-139927459D01*
X116452281Y-139934359D01*
X116447992Y-139943752D01*
X116426319Y-139957680D01*
X116407147Y-139974902D01*
X116395361Y-139977576D01*
X116388266Y-139982136D01*
X116352768Y-139987240D01*
X116350395Y-139987240D01*
X116282274Y-139967238D01*
X116261300Y-139950335D01*
X113706205Y-137395240D01*
X113672179Y-137332928D01*
X113669300Y-137306145D01*
X113669300Y-130924243D01*
X113689302Y-130856122D01*
X113706205Y-130835148D01*
X113723222Y-130818131D01*
X113741478Y-130799875D01*
X113840902Y-130651076D01*
X113909387Y-130485740D01*
X113944300Y-130310219D01*
X113944300Y-130131261D01*
X113909387Y-129955740D01*
X113840902Y-129790404D01*
X113741478Y-129641605D01*
X113614935Y-129515062D01*
X113466136Y-129415638D01*
X113349229Y-129367213D01*
X113300803Y-129347154D01*
X113300801Y-129347153D01*
X113300800Y-129347153D01*
X113212445Y-129329578D01*
X113125281Y-129312240D01*
X113125279Y-129312240D01*
X112946321Y-129312240D01*
X112946318Y-129312240D01*
X112815571Y-129338247D01*
X112770800Y-129347153D01*
X112770799Y-129347153D01*
X112770796Y-129347154D01*
X112605462Y-129415639D01*
X112456669Y-129515059D01*
X112456662Y-129515064D01*
X112330124Y-129641602D01*
X112330119Y-129641609D01*
X112230699Y-129790402D01*
X112162214Y-129955736D01*
X112127300Y-130131258D01*
X99783224Y-130131258D01*
X99686420Y-129998018D01*
X99686417Y-129998015D01*
X99686415Y-129998012D01*
X99518527Y-129830124D01*
X99518524Y-129830122D01*
X99518522Y-129830120D01*
X99326427Y-129690555D01*
X99114863Y-129582758D01*
X99114860Y-129582757D01*
X99114858Y-129582756D01*
X98889046Y-129509385D01*
X98889042Y-129509384D01*
X98889041Y-129509384D01*
X98654522Y-129472240D01*
X98417078Y-129472240D01*
X98182559Y-129509384D01*
X98182553Y-129509385D01*
X97956741Y-129582756D01*
X97956735Y-129582759D01*
X97745169Y-129690557D01*
X97553075Y-129830122D01*
X97553072Y-129830124D01*
X97385184Y-129998012D01*
X97385182Y-129998015D01*
X97245617Y-130190109D01*
X97137819Y-130401675D01*
X97137816Y-130401681D01*
X97064445Y-130627493D01*
X97064444Y-130627498D01*
X97064444Y-130627499D01*
X97027300Y-130862018D01*
X92044300Y-130862018D01*
X92007156Y-130627499D01*
X91933782Y-130401677D01*
X91825985Y-130190113D01*
X91686420Y-129998018D01*
X91686417Y-129998015D01*
X91686415Y-129998012D01*
X91518527Y-129830124D01*
X91518524Y-129830122D01*
X91518522Y-129830120D01*
X91326427Y-129690555D01*
X91114863Y-129582758D01*
X91114860Y-129582757D01*
X91114858Y-129582756D01*
X90889046Y-129509385D01*
X90889042Y-129509384D01*
X90889041Y-129509384D01*
X90654522Y-129472240D01*
X90417078Y-129472240D01*
X90182559Y-129509384D01*
X90182553Y-129509385D01*
X89956741Y-129582756D01*
X89956735Y-129582759D01*
X89745169Y-129690557D01*
X89553075Y-129830122D01*
X89553072Y-129830124D01*
X89385184Y-129998012D01*
X89385182Y-129998015D01*
X89245617Y-130190109D01*
X89137819Y-130401675D01*
X89137816Y-130401681D01*
X89064445Y-130627493D01*
X89064444Y-130627498D01*
X89064444Y-130627499D01*
X89027300Y-130862018D01*
X62397929Y-130862018D01*
X62705907Y-129914159D01*
X62707168Y-129910477D01*
X63083202Y-128866003D01*
X92785300Y-128866003D01*
X92785300Y-129095476D01*
X92815250Y-129322971D01*
X92815252Y-129322978D01*
X92874642Y-129544627D01*
X92962456Y-129756628D01*
X92962457Y-129756629D01*
X92962462Y-129756640D01*
X93077186Y-129955348D01*
X93077191Y-129955355D01*
X93216873Y-130137392D01*
X93216892Y-130137413D01*
X93379126Y-130299647D01*
X93379147Y-130299666D01*
X93561184Y-130439348D01*
X93561191Y-130439353D01*
X93759899Y-130554077D01*
X93759903Y-130554078D01*
X93759912Y-130554084D01*
X93971913Y-130641898D01*
X94193562Y-130701288D01*
X94193566Y-130701288D01*
X94193568Y-130701289D01*
X94252198Y-130709007D01*
X94421066Y-130731240D01*
X94421073Y-130731240D01*
X94650528Y-130731240D01*
X94650534Y-130731240D01*
X94859188Y-130703769D01*
X94878031Y-130701289D01*
X94878031Y-130701288D01*
X94878038Y-130701288D01*
X95099687Y-130641898D01*
X95311688Y-130554084D01*
X95510412Y-130439351D01*
X95692461Y-130299659D01*
X95854719Y-130137401D01*
X95994411Y-129955352D01*
X96109144Y-129756628D01*
X96196958Y-129544627D01*
X96256348Y-129322978D01*
X96286300Y-129095474D01*
X96286300Y-128866006D01*
X96286300Y-128866003D01*
X123785300Y-128866003D01*
X123785300Y-129095476D01*
X123815250Y-129322971D01*
X123815252Y-129322978D01*
X123874642Y-129544627D01*
X123962456Y-129756628D01*
X123962457Y-129756629D01*
X123962462Y-129756640D01*
X124077186Y-129955348D01*
X124077191Y-129955355D01*
X124216873Y-130137392D01*
X124216892Y-130137413D01*
X124379126Y-130299647D01*
X124379147Y-130299666D01*
X124561184Y-130439348D01*
X124561191Y-130439353D01*
X124759899Y-130554077D01*
X124759903Y-130554078D01*
X124759912Y-130554084D01*
X124971913Y-130641898D01*
X125193562Y-130701288D01*
X125193566Y-130701288D01*
X125193568Y-130701289D01*
X125252198Y-130709007D01*
X125421066Y-130731240D01*
X125421073Y-130731240D01*
X125650528Y-130731240D01*
X125650534Y-130731240D01*
X125859188Y-130703769D01*
X125878031Y-130701289D01*
X125878031Y-130701288D01*
X125878038Y-130701288D01*
X126099687Y-130641898D01*
X126311688Y-130554084D01*
X126510412Y-130439351D01*
X126692461Y-130299659D01*
X126854719Y-130137401D01*
X126994411Y-129955352D01*
X127109144Y-129756628D01*
X127196958Y-129544627D01*
X127256348Y-129322978D01*
X127286300Y-129095474D01*
X127286300Y-128866006D01*
X127256348Y-128638502D01*
X127196958Y-128416853D01*
X127109144Y-128204852D01*
X127109138Y-128204843D01*
X127109137Y-128204839D01*
X126994413Y-128006131D01*
X126994408Y-128006124D01*
X126854726Y-127824087D01*
X126854707Y-127824066D01*
X126692473Y-127661832D01*
X126692452Y-127661813D01*
X126510415Y-127522131D01*
X126510408Y-127522126D01*
X126311700Y-127407402D01*
X126311692Y-127407398D01*
X126311688Y-127407396D01*
X126099687Y-127319582D01*
X125878038Y-127260192D01*
X125878031Y-127260190D01*
X125650536Y-127230240D01*
X125650534Y-127230240D01*
X125421066Y-127230240D01*
X125421063Y-127230240D01*
X125193568Y-127260190D01*
X124971913Y-127319582D01*
X124791464Y-127394327D01*
X124759910Y-127407397D01*
X124759899Y-127407402D01*
X124561191Y-127522126D01*
X124561184Y-127522131D01*
X124379147Y-127661813D01*
X124379126Y-127661832D01*
X124216892Y-127824066D01*
X124216873Y-127824087D01*
X124077191Y-128006124D01*
X124077186Y-128006131D01*
X123962462Y-128204839D01*
X123962457Y-128204850D01*
X123874642Y-128416853D01*
X123815250Y-128638508D01*
X123785300Y-128866003D01*
X96286300Y-128866003D01*
X96256348Y-128638502D01*
X96196958Y-128416853D01*
X96109144Y-128204852D01*
X96109138Y-128204843D01*
X96109137Y-128204839D01*
X95994413Y-128006131D01*
X95994408Y-128006124D01*
X95854726Y-127824087D01*
X95854707Y-127824066D01*
X95692473Y-127661832D01*
X95692452Y-127661813D01*
X95510415Y-127522131D01*
X95510408Y-127522126D01*
X95311700Y-127407402D01*
X95311692Y-127407398D01*
X95311688Y-127407396D01*
X95099687Y-127319582D01*
X94878038Y-127260192D01*
X94878031Y-127260190D01*
X94650536Y-127230240D01*
X94650534Y-127230240D01*
X94421066Y-127230240D01*
X94421063Y-127230240D01*
X94193568Y-127260190D01*
X93971913Y-127319582D01*
X93791464Y-127394327D01*
X93759910Y-127407397D01*
X93759899Y-127407402D01*
X93561191Y-127522126D01*
X93561184Y-127522131D01*
X93379147Y-127661813D01*
X93379126Y-127661832D01*
X93216892Y-127824066D01*
X93216873Y-127824087D01*
X93077191Y-128006124D01*
X93077186Y-128006131D01*
X92962462Y-128204839D01*
X92962457Y-128204850D01*
X92874642Y-128416853D01*
X92815250Y-128638508D01*
X92785300Y-128866003D01*
X63083202Y-128866003D01*
X63131235Y-128732587D01*
X63132594Y-128728988D01*
X63593470Y-127564947D01*
X63594946Y-127561385D01*
X64092139Y-126412439D01*
X64093757Y-126408858D01*
X64626763Y-125276164D01*
X64628471Y-125272675D01*
X65196829Y-124157210D01*
X65198644Y-124153782D01*
X65391586Y-123802821D01*
X65441931Y-123752764D01*
X65511348Y-123737871D01*
X65577797Y-123762872D01*
X65620181Y-123819829D01*
X65625044Y-123890659D01*
X65622575Y-123900098D01*
X65611788Y-123935659D01*
X65611788Y-123935660D01*
X65547568Y-124258520D01*
X65547565Y-124258541D01*
X65515300Y-124586133D01*
X65515300Y-124915346D01*
X65547565Y-125242938D01*
X65547568Y-125242959D01*
X65611786Y-125565813D01*
X65707350Y-125880846D01*
X65707351Y-125880849D01*
X65833331Y-126184991D01*
X65988515Y-126475321D01*
X66171402Y-126749031D01*
X66171413Y-126749046D01*
X66380243Y-127003505D01*
X66380261Y-127003525D01*
X66613014Y-127236278D01*
X66613034Y-127236296D01*
X66843995Y-127425842D01*
X66867502Y-127445133D01*
X67141221Y-127628026D01*
X67431549Y-127783209D01*
X67735689Y-127909188D01*
X68050713Y-128004750D01*
X68050722Y-128004751D01*
X68050726Y-128004753D01*
X68181588Y-128030782D01*
X68373587Y-128068973D01*
X68701200Y-128101240D01*
X68701209Y-128101240D01*
X69030391Y-128101240D01*
X69030400Y-128101240D01*
X69358013Y-128068973D01*
X69612859Y-128018281D01*
X69680873Y-128004753D01*
X69680875Y-128004752D01*
X69680887Y-128004750D01*
X69995911Y-127909188D01*
X70300051Y-127783209D01*
X70590379Y-127628026D01*
X70864098Y-127445133D01*
X71118572Y-127236291D01*
X71351351Y-127003512D01*
X71560193Y-126749038D01*
X71743086Y-126475319D01*
X71766637Y-126431258D01*
X117327300Y-126431258D01*
X117327300Y-126431261D01*
X117327300Y-126610219D01*
X117362213Y-126785740D01*
X117430698Y-126951076D01*
X117530122Y-127099875D01*
X117656665Y-127226418D01*
X117805464Y-127325842D01*
X117970800Y-127394327D01*
X118146321Y-127429240D01*
X118146322Y-127429240D01*
X118325278Y-127429240D01*
X118325279Y-127429240D01*
X118500800Y-127394327D01*
X118666136Y-127325842D01*
X118814935Y-127226418D01*
X118850208Y-127191145D01*
X118912520Y-127157119D01*
X118939303Y-127154240D01*
X120933077Y-127154240D01*
X121001198Y-127174242D01*
X121025427Y-127195813D01*
X121025744Y-127195497D01*
X121030121Y-127199874D01*
X121030122Y-127199875D01*
X121156665Y-127326418D01*
X121305464Y-127425842D01*
X121470800Y-127494327D01*
X121646321Y-127529240D01*
X121646322Y-127529240D01*
X121825278Y-127529240D01*
X121825279Y-127529240D01*
X122000800Y-127494327D01*
X122166136Y-127425842D01*
X122314935Y-127326418D01*
X122441478Y-127199875D01*
X122540902Y-127051076D01*
X122609387Y-126885740D01*
X122644300Y-126710219D01*
X122644300Y-126531261D01*
X122609387Y-126355740D01*
X122540902Y-126190404D01*
X122441478Y-126041605D01*
X122314935Y-125915062D01*
X122166136Y-125815638D01*
X122049229Y-125767213D01*
X122000803Y-125747154D01*
X122000801Y-125747153D01*
X122000800Y-125747153D01*
X121912445Y-125729578D01*
X121825281Y-125712240D01*
X121825279Y-125712240D01*
X121646321Y-125712240D01*
X121646318Y-125712240D01*
X121515571Y-125738247D01*
X121470800Y-125747153D01*
X121470799Y-125747153D01*
X121470796Y-125747154D01*
X121305460Y-125815639D01*
X121305459Y-125815640D01*
X121230083Y-125866005D01*
X121162331Y-125887220D01*
X121160082Y-125887240D01*
X118939303Y-125887240D01*
X118871182Y-125867238D01*
X118850208Y-125850335D01*
X118814937Y-125815064D01*
X118814935Y-125815062D01*
X118666136Y-125715638D01*
X118549229Y-125667213D01*
X118500803Y-125647154D01*
X118500801Y-125647153D01*
X118500800Y-125647153D01*
X118412445Y-125629578D01*
X118325281Y-125612240D01*
X118325279Y-125612240D01*
X118146321Y-125612240D01*
X118146318Y-125612240D01*
X118015571Y-125638247D01*
X117970800Y-125647153D01*
X117970799Y-125647153D01*
X117970796Y-125647154D01*
X117839702Y-125701456D01*
X117813668Y-125712240D01*
X117805462Y-125715639D01*
X117656669Y-125815059D01*
X117656662Y-125815064D01*
X117530124Y-125941602D01*
X117530119Y-125941609D01*
X117430699Y-126090402D01*
X117362214Y-126255736D01*
X117327300Y-126431258D01*
X71766637Y-126431258D01*
X71898269Y-126184991D01*
X72024248Y-125880851D01*
X72119810Y-125565827D01*
X72184033Y-125242953D01*
X72216300Y-124915340D01*
X72216300Y-124586140D01*
X72184033Y-124258527D01*
X72119810Y-123935653D01*
X72024248Y-123620629D01*
X71898269Y-123316489D01*
X71743086Y-123026161D01*
X71560193Y-122752442D01*
X71434475Y-122599255D01*
X71351356Y-122497974D01*
X71351338Y-122497954D01*
X71118585Y-122265201D01*
X71118565Y-122265183D01*
X70864106Y-122056353D01*
X70864091Y-122056342D01*
X70590381Y-121873455D01*
X70300051Y-121718271D01*
X69995909Y-121592291D01*
X69995906Y-121592290D01*
X69710618Y-121505749D01*
X69680887Y-121496730D01*
X69680884Y-121496729D01*
X69680873Y-121496726D01*
X69358019Y-121432508D01*
X69358015Y-121432507D01*
X69358013Y-121432507D01*
X69358009Y-121432506D01*
X69357998Y-121432505D01*
X69030406Y-121400240D01*
X69030400Y-121400240D01*
X68701200Y-121400240D01*
X68701193Y-121400240D01*
X68373601Y-121432505D01*
X68373580Y-121432508D01*
X68050726Y-121496726D01*
X67735693Y-121592290D01*
X67735690Y-121592291D01*
X67431548Y-121718271D01*
X67141218Y-121873455D01*
X66867508Y-122056342D01*
X66867493Y-122056353D01*
X66613034Y-122265183D01*
X66613024Y-122265191D01*
X66478280Y-122399936D01*
X66415968Y-122433961D01*
X66345152Y-122428896D01*
X66288317Y-122386349D01*
X66263506Y-122319828D01*
X66278598Y-122250454D01*
X66280690Y-122246772D01*
X66440977Y-121975741D01*
X66442967Y-121972496D01*
X67113768Y-120915482D01*
X67115922Y-120912204D01*
X67301765Y-120638744D01*
X67819582Y-119876799D01*
X67821803Y-119873638D01*
X68557659Y-118860820D01*
X68559990Y-118857714D01*
X69214579Y-118013824D01*
X113832300Y-118013824D01*
X113832300Y-118227656D01*
X113850445Y-118342218D01*
X113865752Y-118438861D01*
X113896258Y-118532749D01*
X113931828Y-118642223D01*
X114028906Y-118832749D01*
X114028908Y-118832752D01*
X114059982Y-118875521D01*
X114154594Y-119005744D01*
X114154596Y-119005746D01*
X114154598Y-119005749D01*
X114305790Y-119156941D01*
X114305793Y-119156943D01*
X114305796Y-119156946D01*
X114406098Y-119229819D01*
X114459755Y-119268804D01*
X114503109Y-119325026D01*
X114509184Y-119395763D01*
X114476052Y-119458554D01*
X114459755Y-119472676D01*
X114305793Y-119584536D01*
X114305790Y-119584538D01*
X114154598Y-119735730D01*
X114154596Y-119735733D01*
X114028908Y-119908727D01*
X113931829Y-120099255D01*
X113931826Y-120099261D01*
X113865752Y-120302618D01*
X113865751Y-120302623D01*
X113865751Y-120302624D01*
X113832300Y-120513824D01*
X113832300Y-120727656D01*
X113856923Y-120883116D01*
X113865752Y-120938861D01*
X113896174Y-121032490D01*
X113931828Y-121142223D01*
X114028906Y-121332749D01*
X114154594Y-121505744D01*
X114154596Y-121505746D01*
X114154598Y-121505749D01*
X114305790Y-121656941D01*
X114305793Y-121656943D01*
X114305796Y-121656946D01*
X114390203Y-121718271D01*
X114459755Y-121768804D01*
X114503109Y-121825026D01*
X114509184Y-121895763D01*
X114476052Y-121958554D01*
X114459755Y-121972676D01*
X114305793Y-122084536D01*
X114305790Y-122084538D01*
X114154598Y-122235730D01*
X114154596Y-122235733D01*
X114028908Y-122408727D01*
X113931829Y-122599255D01*
X113931826Y-122599261D01*
X113865752Y-122802618D01*
X113865751Y-122802623D01*
X113865751Y-122802624D01*
X113832300Y-123013824D01*
X113832300Y-123227656D01*
X113846370Y-123316488D01*
X113865752Y-123438861D01*
X113924812Y-123620630D01*
X113931828Y-123642223D01*
X114028906Y-123832749D01*
X114154594Y-124005744D01*
X114154596Y-124005746D01*
X114154598Y-124005749D01*
X114305790Y-124156941D01*
X114305793Y-124156943D01*
X114305796Y-124156946D01*
X114478791Y-124282634D01*
X114669317Y-124379712D01*
X114872678Y-124445787D01*
X114872679Y-124445787D01*
X114872684Y-124445789D01*
X115083884Y-124479240D01*
X115083887Y-124479240D01*
X115547713Y-124479240D01*
X115547716Y-124479240D01*
X115758916Y-124445789D01*
X115962283Y-124379712D01*
X116152809Y-124282634D01*
X116325804Y-124156946D01*
X116477006Y-124005744D01*
X116602694Y-123832749D01*
X116699772Y-123642223D01*
X116765849Y-123438856D01*
X116799300Y-123227656D01*
X116799300Y-123013824D01*
X116765849Y-122802624D01*
X116699772Y-122599257D01*
X116602694Y-122408731D01*
X116477006Y-122235736D01*
X116477003Y-122235733D01*
X116477001Y-122235730D01*
X116325809Y-122084538D01*
X116325806Y-122084536D01*
X116325804Y-122084534D01*
X116171843Y-121972675D01*
X116128490Y-121916454D01*
X116122415Y-121845718D01*
X116155546Y-121782926D01*
X116171844Y-121768804D01*
X116325804Y-121656946D01*
X116477006Y-121505744D01*
X116602694Y-121332749D01*
X116699772Y-121142223D01*
X116765849Y-120938856D01*
X116799300Y-120727656D01*
X116799300Y-120513824D01*
X116765849Y-120302624D01*
X116699772Y-120099257D01*
X116602694Y-119908731D01*
X116477006Y-119735736D01*
X116477003Y-119735733D01*
X116477001Y-119735730D01*
X116325809Y-119584538D01*
X116325806Y-119584536D01*
X116325804Y-119584534D01*
X116171843Y-119472675D01*
X116128490Y-119416454D01*
X116122415Y-119345718D01*
X116155546Y-119282926D01*
X116171844Y-119268804D01*
X116325804Y-119156946D01*
X116477006Y-119005744D01*
X116602694Y-118832749D01*
X116699772Y-118642223D01*
X116765849Y-118438856D01*
X116799300Y-118227656D01*
X116799300Y-118013824D01*
X116765849Y-117802624D01*
X116736997Y-117713824D01*
X120952300Y-117713824D01*
X120952300Y-117927656D01*
X120985751Y-118138856D01*
X120985752Y-118138861D01*
X121014602Y-118227652D01*
X121051828Y-118342223D01*
X121148906Y-118532749D01*
X121274594Y-118705744D01*
X121274596Y-118705746D01*
X121274598Y-118705749D01*
X121425790Y-118856941D01*
X121425793Y-118856943D01*
X121425796Y-118856946D01*
X121580181Y-118969113D01*
X121623535Y-119025335D01*
X121629610Y-119096071D01*
X121596479Y-119158863D01*
X121580182Y-119172985D01*
X121426116Y-119284921D01*
X121274977Y-119436060D01*
X121149336Y-119608989D01*
X121052293Y-119799447D01*
X121052290Y-119799453D01*
X120986240Y-120002735D01*
X120976102Y-120066740D01*
X122033964Y-120066740D01*
X121993170Y-120137397D01*
X121960800Y-120258205D01*
X121960800Y-120383275D01*
X121993170Y-120504083D01*
X122033964Y-120574740D01*
X120976102Y-120574740D01*
X120986240Y-120638744D01*
X121052290Y-120842026D01*
X121052293Y-120842032D01*
X121149336Y-121032490D01*
X121274977Y-121205419D01*
X121405343Y-121335785D01*
X121439369Y-121398097D01*
X121434304Y-121468912D01*
X121391757Y-121525748D01*
X121382403Y-121532115D01*
X121314083Y-121574255D01*
X121237147Y-121621710D01*
X121237141Y-121621715D01*
X121111775Y-121747081D01*
X121111770Y-121747087D01*
X121018685Y-121898002D01*
X120962913Y-122066312D01*
X120962912Y-122066319D01*
X120952300Y-122170186D01*
X120952300Y-123471284D01*
X120962912Y-123575165D01*
X121018685Y-123743478D01*
X121111770Y-123894392D01*
X121111775Y-123894398D01*
X121237141Y-124019764D01*
X121237147Y-124019769D01*
X121237148Y-124019770D01*
X121388062Y-124112855D01*
X121556374Y-124168627D01*
X121660255Y-124179240D01*
X123211344Y-124179239D01*
X123315226Y-124168627D01*
X123315229Y-124168626D01*
X123315231Y-124168626D01*
X123434773Y-124129014D01*
X123505728Y-124126573D01*
X123566738Y-124162881D01*
X123598433Y-124226410D01*
X123597985Y-124273199D01*
X123585300Y-124336967D01*
X123585300Y-124336973D01*
X123585300Y-124504507D01*
X123617984Y-124668822D01*
X123682097Y-124823603D01*
X123682098Y-124823604D01*
X123775173Y-124962901D01*
X123775178Y-124962907D01*
X123893632Y-125081361D01*
X123893638Y-125081366D01*
X124032937Y-125174443D01*
X124187718Y-125238556D01*
X124352033Y-125271240D01*
X124352034Y-125271240D01*
X124519566Y-125271240D01*
X124519567Y-125271240D01*
X124683882Y-125238556D01*
X124838663Y-125174443D01*
X124977962Y-125081366D01*
X125096426Y-124962902D01*
X125189503Y-124823603D01*
X125253616Y-124668822D01*
X125286300Y-124504507D01*
X125286300Y-124336973D01*
X125253616Y-124172658D01*
X125189503Y-124017877D01*
X125096426Y-123878578D01*
X125096421Y-123878572D01*
X124977967Y-123760118D01*
X124977961Y-123760113D01*
X124838664Y-123667038D01*
X124838665Y-123667038D01*
X124838663Y-123667037D01*
X124724783Y-123619866D01*
X124683885Y-123602925D01*
X124683883Y-123602924D01*
X124683882Y-123602924D01*
X124601168Y-123586471D01*
X124519569Y-123570240D01*
X124519567Y-123570240D01*
X124352033Y-123570240D01*
X124352030Y-123570240D01*
X124187712Y-123602925D01*
X124088415Y-123644056D01*
X124017825Y-123651645D01*
X123954338Y-123619866D01*
X123918111Y-123558807D01*
X123914850Y-123514838D01*
X123919299Y-123471290D01*
X123919300Y-123471285D01*
X123919299Y-122170196D01*
X123908687Y-122066314D01*
X123852915Y-121898002D01*
X123759830Y-121747088D01*
X123759829Y-121747087D01*
X123759824Y-121747081D01*
X123634458Y-121621715D01*
X123634452Y-121621710D01*
X123489201Y-121532118D01*
X123441726Y-121479335D01*
X123430323Y-121409260D01*
X123458615Y-121344145D01*
X123466256Y-121335784D01*
X123596623Y-121205417D01*
X123722263Y-121032490D01*
X123819306Y-120842032D01*
X123819309Y-120842026D01*
X123885359Y-120638744D01*
X123895498Y-120574740D01*
X122837636Y-120574740D01*
X122878430Y-120504083D01*
X122910800Y-120383275D01*
X122910800Y-120258205D01*
X122878430Y-120137397D01*
X122837636Y-120066740D01*
X123895497Y-120066740D01*
X123885359Y-120002735D01*
X123819309Y-119799453D01*
X123819306Y-119799447D01*
X123722263Y-119608989D01*
X123596622Y-119436060D01*
X123445479Y-119284917D01*
X123291418Y-119172985D01*
X123248064Y-119116762D01*
X123241989Y-119046026D01*
X123275121Y-118983235D01*
X123291412Y-118969117D01*
X123445804Y-118856946D01*
X123597006Y-118705744D01*
X123722694Y-118532749D01*
X123819772Y-118342223D01*
X123885849Y-118138856D01*
X123919300Y-117927656D01*
X123919300Y-117713824D01*
X123885849Y-117502624D01*
X123819772Y-117299257D01*
X123722694Y-117108731D01*
X123597006Y-116935736D01*
X123597003Y-116935733D01*
X123597001Y-116935730D01*
X123445809Y-116784538D01*
X123445806Y-116784536D01*
X123445804Y-116784534D01*
X123272809Y-116658846D01*
X123082283Y-116561768D01*
X123082280Y-116561767D01*
X123082278Y-116561766D01*
X122878920Y-116495692D01*
X122878923Y-116495692D01*
X122839601Y-116489464D01*
X122667716Y-116462240D01*
X122203884Y-116462240D01*
X121992684Y-116495691D01*
X121992678Y-116495692D01*
X121789321Y-116561766D01*
X121789315Y-116561769D01*
X121598787Y-116658848D01*
X121425793Y-116784536D01*
X121425790Y-116784538D01*
X121274598Y-116935730D01*
X121274596Y-116935733D01*
X121148908Y-117108727D01*
X121051829Y-117299255D01*
X121051826Y-117299261D01*
X120985752Y-117502618D01*
X120985751Y-117502623D01*
X120985751Y-117502624D01*
X120952300Y-117713824D01*
X116736997Y-117713824D01*
X116699772Y-117599257D01*
X116602694Y-117408731D01*
X116477006Y-117235736D01*
X116477003Y-117235733D01*
X116477001Y-117235730D01*
X116346331Y-117105060D01*
X116312305Y-117042748D01*
X116317370Y-116971933D01*
X116359917Y-116915097D01*
X116369280Y-116908724D01*
X116514136Y-116819376D01*
X116514145Y-116819369D01*
X116639429Y-116694085D01*
X116639434Y-116694079D01*
X116732457Y-116543265D01*
X116788193Y-116375061D01*
X116788194Y-116375058D01*
X116798799Y-116271256D01*
X116798800Y-116271256D01*
X116798800Y-115874740D01*
X115717636Y-115874740D01*
X115758430Y-115804083D01*
X115790800Y-115683275D01*
X115790800Y-115558205D01*
X115758430Y-115437397D01*
X115717636Y-115366740D01*
X116798800Y-115366740D01*
X116798800Y-114970223D01*
X116788194Y-114866421D01*
X116788193Y-114866418D01*
X116732457Y-114698214D01*
X116639434Y-114547400D01*
X116639429Y-114547394D01*
X116514145Y-114422110D01*
X116514139Y-114422105D01*
X116363325Y-114329082D01*
X116195121Y-114273346D01*
X116195118Y-114273345D01*
X116091316Y-114262740D01*
X115569800Y-114262740D01*
X115569800Y-115218903D01*
X115499143Y-115178110D01*
X115378335Y-115145740D01*
X115253265Y-115145740D01*
X115132457Y-115178110D01*
X115061800Y-115218903D01*
X115061800Y-114262740D01*
X114540283Y-114262740D01*
X114436481Y-114273345D01*
X114436478Y-114273346D01*
X114268274Y-114329082D01*
X114117460Y-114422105D01*
X114117454Y-114422110D01*
X113992170Y-114547394D01*
X113992165Y-114547400D01*
X113899142Y-114698214D01*
X113843406Y-114866418D01*
X113843405Y-114866421D01*
X113832800Y-114970223D01*
X113832800Y-115366740D01*
X114913964Y-115366740D01*
X114873170Y-115437397D01*
X114840800Y-115558205D01*
X114840800Y-115683275D01*
X114873170Y-115804083D01*
X114913964Y-115874740D01*
X113832800Y-115874740D01*
X113832800Y-116271256D01*
X113843405Y-116375058D01*
X113843406Y-116375061D01*
X113899142Y-116543265D01*
X113992165Y-116694079D01*
X113992170Y-116694085D01*
X114117454Y-116819369D01*
X114117460Y-116819374D01*
X114262320Y-116908724D01*
X114309798Y-116961510D01*
X114321201Y-117031585D01*
X114292909Y-117096700D01*
X114285269Y-117105060D01*
X114154594Y-117235735D01*
X114028908Y-117408727D01*
X113931829Y-117599255D01*
X113931826Y-117599261D01*
X113865752Y-117802618D01*
X113865751Y-117802623D01*
X113865751Y-117802624D01*
X113832300Y-118013824D01*
X69214579Y-118013824D01*
X69327276Y-117868536D01*
X69329727Y-117865474D01*
X70127715Y-116900873D01*
X70130241Y-116897916D01*
X70958143Y-115958844D01*
X70960726Y-115956006D01*
X71817749Y-115043369D01*
X71820442Y-115040591D01*
X72326904Y-114534129D01*
X73635300Y-114534129D01*
X73635300Y-114707351D01*
X73662398Y-114878441D01*
X73715927Y-115043185D01*
X73715928Y-115043188D01*
X73715930Y-115043192D01*
X73794568Y-115197528D01*
X73896387Y-115337670D01*
X74018869Y-115460152D01*
X74018872Y-115460154D01*
X74159012Y-115561972D01*
X74313355Y-115640613D01*
X74478099Y-115694142D01*
X74649189Y-115721240D01*
X74649192Y-115721240D01*
X74822408Y-115721240D01*
X74822411Y-115721240D01*
X74993501Y-115694142D01*
X75158245Y-115640613D01*
X75312588Y-115561972D01*
X75452728Y-115460154D01*
X75575214Y-115337668D01*
X75677032Y-115197528D01*
X75755673Y-115043185D01*
X75809202Y-114878441D01*
X75836300Y-114707351D01*
X75836300Y-114534129D01*
X75809202Y-114363039D01*
X75755673Y-114198295D01*
X75677032Y-114043952D01*
X75575214Y-113903812D01*
X75575212Y-113903809D01*
X75452730Y-113781327D01*
X75312588Y-113679508D01*
X75158252Y-113600870D01*
X75158248Y-113600868D01*
X75158245Y-113600867D01*
X74993501Y-113547338D01*
X74822411Y-113520240D01*
X74649189Y-113520240D01*
X74478099Y-113547338D01*
X74478096Y-113547338D01*
X74478095Y-113547339D01*
X74399053Y-113573021D01*
X74313355Y-113600867D01*
X74313353Y-113600867D01*
X74313347Y-113600870D01*
X74159011Y-113679508D01*
X74018869Y-113781327D01*
X73896387Y-113903809D01*
X73794568Y-114043951D01*
X73715930Y-114198287D01*
X73715927Y-114198293D01*
X73715927Y-114198295D01*
X73662398Y-114363039D01*
X73635300Y-114534129D01*
X72326904Y-114534129D01*
X72705651Y-114155382D01*
X72708429Y-114152689D01*
X73621066Y-113295666D01*
X73623904Y-113293083D01*
X74562976Y-112465181D01*
X74565933Y-112462655D01*
X75530534Y-111664667D01*
X75533567Y-111662237D01*
X76522774Y-110894930D01*
X76525880Y-110892599D01*
X77538698Y-110156743D01*
X77541859Y-110154522D01*
X78577264Y-109450862D01*
X78580542Y-109448708D01*
X79553487Y-108831258D01*
X100427300Y-108831258D01*
X100427300Y-108831261D01*
X100427300Y-109010219D01*
X100462213Y-109185740D01*
X100530698Y-109351076D01*
X100630122Y-109499875D01*
X100630124Y-109499877D01*
X100665395Y-109535148D01*
X100699421Y-109597460D01*
X100702300Y-109624243D01*
X100702300Y-112817237D01*
X100682298Y-112885358D01*
X100665395Y-112906332D01*
X100630124Y-112941602D01*
X100630119Y-112941609D01*
X100530699Y-113090402D01*
X100462214Y-113255736D01*
X100427300Y-113431258D01*
X100427300Y-113431261D01*
X100427300Y-113610219D01*
X100462213Y-113785740D01*
X100530698Y-113951076D01*
X100630122Y-114099875D01*
X100756665Y-114226418D01*
X100905464Y-114325842D01*
X101070800Y-114394327D01*
X101246321Y-114429240D01*
X101246322Y-114429240D01*
X101425278Y-114429240D01*
X101425279Y-114429240D01*
X101600800Y-114394327D01*
X101766136Y-114325842D01*
X101914935Y-114226418D01*
X102041478Y-114099875D01*
X102140902Y-113951076D01*
X102209387Y-113785740D01*
X102244300Y-113610219D01*
X102244300Y-113431261D01*
X102209387Y-113255740D01*
X102140902Y-113090404D01*
X102041478Y-112941605D01*
X102006205Y-112906332D01*
X101972179Y-112844020D01*
X101969300Y-112817237D01*
X101969300Y-109624243D01*
X101989302Y-109556122D01*
X102006205Y-109535148D01*
X102041478Y-109499875D01*
X102140902Y-109351076D01*
X102209387Y-109185740D01*
X102244300Y-109010219D01*
X102244300Y-108831261D01*
X102209387Y-108655740D01*
X102140902Y-108490404D01*
X102041478Y-108341605D01*
X101914935Y-108215062D01*
X101766136Y-108115638D01*
X101649229Y-108067213D01*
X101600803Y-108047154D01*
X101600801Y-108047153D01*
X101600800Y-108047153D01*
X101512445Y-108029578D01*
X101425281Y-108012240D01*
X101425279Y-108012240D01*
X101246321Y-108012240D01*
X101246318Y-108012240D01*
X101115571Y-108038247D01*
X101070800Y-108047153D01*
X101070799Y-108047153D01*
X101070796Y-108047154D01*
X100905462Y-108115639D01*
X100756669Y-108215059D01*
X100756662Y-108215064D01*
X100630124Y-108341602D01*
X100630119Y-108341609D01*
X100530699Y-108490402D01*
X100462214Y-108655736D01*
X100427300Y-108831258D01*
X79553487Y-108831258D01*
X79637555Y-108777907D01*
X79640847Y-108775890D01*
X80718451Y-108138597D01*
X80721752Y-108136714D01*
X81818842Y-107533584D01*
X81822270Y-107531769D01*
X82937735Y-106963411D01*
X82941224Y-106961703D01*
X84073943Y-106428685D01*
X84077499Y-106427079D01*
X85226445Y-105929886D01*
X85230007Y-105928410D01*
X86394048Y-105467534D01*
X86397626Y-105466182D01*
X87575537Y-105042108D01*
X87579219Y-105040847D01*
X88769840Y-104653991D01*
X88773535Y-104652854D01*
X89975733Y-104303583D01*
X89979525Y-104302546D01*
X91192031Y-103991228D01*
X91195803Y-103990321D01*
X92417577Y-103717223D01*
X92421434Y-103716424D01*
X93651126Y-103481848D01*
X93654893Y-103481190D01*
X94891473Y-103285335D01*
X94895268Y-103284795D01*
X96137296Y-103127891D01*
X96141120Y-103127468D01*
X97302117Y-103017722D01*
X97371818Y-103031225D01*
G37*
G04 #@! TD.AperFunction*
G04 #@! TA.AperFunction,Conductor*
G36*
X100090814Y-102911174D02*
G01*
X100137307Y-102964830D01*
X100147411Y-103035104D01*
X100117917Y-103099684D01*
X100096755Y-103119108D01*
X100071631Y-103137361D01*
X100071631Y-103137362D01*
X100710851Y-103776582D01*
X100642807Y-103794815D01*
X100528793Y-103860641D01*
X100435701Y-103953733D01*
X100369875Y-104067747D01*
X100351642Y-104135791D01*
X99712422Y-103496571D01*
X99712421Y-103496571D01*
X99674328Y-103549001D01*
X99673524Y-103550314D01*
X99673088Y-103550707D01*
X99671424Y-103552999D01*
X99670942Y-103552649D01*
X99620875Y-103597943D01*
X99550833Y-103609547D01*
X99485636Y-103581442D01*
X99460701Y-103552664D01*
X99460604Y-103552736D01*
X99459775Y-103551595D01*
X99458659Y-103550307D01*
X99457699Y-103548741D01*
X99457694Y-103548731D01*
X99332006Y-103375736D01*
X99332003Y-103375733D01*
X99332001Y-103375730D01*
X99180809Y-103224538D01*
X99180806Y-103224536D01*
X99180804Y-103224534D01*
X99068457Y-103142909D01*
X99025103Y-103086687D01*
X99019028Y-103015950D01*
X99052160Y-102953159D01*
X99113980Y-102918247D01*
X99138556Y-102915035D01*
X99895935Y-102891233D01*
X99899893Y-102891172D01*
X100022693Y-102891172D01*
X100090814Y-102911174D01*
G37*
G04 #@! TD.AperFunction*
G04 #@! TA.AperFunction,Conductor*
G36*
X102011653Y-102918134D02*
G01*
X102079112Y-102940266D01*
X102123896Y-102995356D01*
X102131788Y-103065912D01*
X102108563Y-103119581D01*
X102074913Y-103164532D01*
X102074910Y-103164537D01*
X102023811Y-103301535D01*
X102023809Y-103301543D01*
X102017300Y-103362090D01*
X102017300Y-103386258D01*
X101997298Y-103454379D01*
X101980396Y-103475353D01*
X101319957Y-104135791D01*
X101301725Y-104067747D01*
X101235899Y-103953733D01*
X101142807Y-103860641D01*
X101028793Y-103794815D01*
X100960747Y-103776581D01*
X101599968Y-103137361D01*
X101599967Y-103137360D01*
X101597322Y-103135438D01*
X101553968Y-103079215D01*
X101547894Y-103008479D01*
X101581027Y-102945687D01*
X101642847Y-102910777D01*
X101675339Y-102907565D01*
X102011653Y-102918134D01*
G37*
G04 #@! TD.AperFunction*
M02*
