G04 #@! TF.GenerationSoftware,KiCad,Pcbnew,9.0.5*
G04 #@! TF.CreationDate,2025-10-28T09:48:45+01:00*
G04 #@! TF.ProjectId,StepperClockMotor,53746570-7065-4724-936c-6f636b4d6f74,v1.2*
G04 #@! TF.SameCoordinates,Original*
G04 #@! TF.FileFunction,Legend,Bot*
G04 #@! TF.FilePolarity,Positive*
%FSLAX46Y46*%
G04 Gerber Fmt 4.6, Leading zero omitted, Abs format (unit mm)*
G04 Created by KiCad (PCBNEW 9.0.5) date 2025-10-28 09:48:45*
%MOMM*%
%LPD*%
G01*
G04 APERTURE LIST*
%ADD10C,0.200000*%
%ADD11C,0.150000*%
%ADD12C,0.120000*%
G04 APERTURE END LIST*
D10*
X98498180Y-179120435D02*
X98879132Y-179120435D01*
X98879132Y-179120435D02*
X98917228Y-179501387D01*
X98917228Y-179501387D02*
X98879132Y-179463292D01*
X98879132Y-179463292D02*
X98802942Y-179425197D01*
X98802942Y-179425197D02*
X98612466Y-179425197D01*
X98612466Y-179425197D02*
X98536275Y-179463292D01*
X98536275Y-179463292D02*
X98498180Y-179501387D01*
X98498180Y-179501387D02*
X98460085Y-179577578D01*
X98460085Y-179577578D02*
X98460085Y-179768054D01*
X98460085Y-179768054D02*
X98498180Y-179844244D01*
X98498180Y-179844244D02*
X98536275Y-179882340D01*
X98536275Y-179882340D02*
X98612466Y-179920435D01*
X98612466Y-179920435D02*
X98802942Y-179920435D01*
X98802942Y-179920435D02*
X98879132Y-179882340D01*
X98879132Y-179882340D02*
X98917228Y-179844244D01*
X98231513Y-179120435D02*
X97964846Y-179920435D01*
X97964846Y-179920435D02*
X97698180Y-179120435D01*
X101485323Y-106128530D02*
X101561513Y-106090435D01*
X101561513Y-106090435D02*
X101675799Y-106090435D01*
X101675799Y-106090435D02*
X101790085Y-106128530D01*
X101790085Y-106128530D02*
X101866275Y-106204720D01*
X101866275Y-106204720D02*
X101904370Y-106280911D01*
X101904370Y-106280911D02*
X101942466Y-106433292D01*
X101942466Y-106433292D02*
X101942466Y-106547578D01*
X101942466Y-106547578D02*
X101904370Y-106699959D01*
X101904370Y-106699959D02*
X101866275Y-106776149D01*
X101866275Y-106776149D02*
X101790085Y-106852340D01*
X101790085Y-106852340D02*
X101675799Y-106890435D01*
X101675799Y-106890435D02*
X101599608Y-106890435D01*
X101599608Y-106890435D02*
X101485323Y-106852340D01*
X101485323Y-106852340D02*
X101447227Y-106814244D01*
X101447227Y-106814244D02*
X101447227Y-106547578D01*
X101447227Y-106547578D02*
X101599608Y-106547578D01*
X101104370Y-106890435D02*
X101104370Y-106090435D01*
X101104370Y-106090435D02*
X100647227Y-106890435D01*
X100647227Y-106890435D02*
X100647227Y-106090435D01*
X100266275Y-106890435D02*
X100266275Y-106090435D01*
X100266275Y-106090435D02*
X100075799Y-106090435D01*
X100075799Y-106090435D02*
X99961513Y-106128530D01*
X99961513Y-106128530D02*
X99885323Y-106204720D01*
X99885323Y-106204720D02*
X99847228Y-106280911D01*
X99847228Y-106280911D02*
X99809132Y-106433292D01*
X99809132Y-106433292D02*
X99809132Y-106547578D01*
X99809132Y-106547578D02*
X99847228Y-106699959D01*
X99847228Y-106699959D02*
X99885323Y-106776149D01*
X99885323Y-106776149D02*
X99961513Y-106852340D01*
X99961513Y-106852340D02*
X100075799Y-106890435D01*
X100075799Y-106890435D02*
X100266275Y-106890435D01*
X98974846Y-106830435D02*
X98974846Y-106030435D01*
X98974846Y-106030435D02*
X98784370Y-106030435D01*
X98784370Y-106030435D02*
X98670084Y-106068530D01*
X98670084Y-106068530D02*
X98593894Y-106144720D01*
X98593894Y-106144720D02*
X98555799Y-106220911D01*
X98555799Y-106220911D02*
X98517703Y-106373292D01*
X98517703Y-106373292D02*
X98517703Y-106487578D01*
X98517703Y-106487578D02*
X98555799Y-106639959D01*
X98555799Y-106639959D02*
X98593894Y-106716149D01*
X98593894Y-106716149D02*
X98670084Y-106792340D01*
X98670084Y-106792340D02*
X98784370Y-106830435D01*
X98784370Y-106830435D02*
X98974846Y-106830435D01*
X98174846Y-106830435D02*
X98174846Y-106030435D01*
X97793894Y-106830435D02*
X97793894Y-106030435D01*
X97793894Y-106030435D02*
X97336751Y-106830435D01*
X97336751Y-106830435D02*
X97336751Y-106030435D01*
X113345323Y-115218530D02*
X113421513Y-115180435D01*
X113421513Y-115180435D02*
X113535799Y-115180435D01*
X113535799Y-115180435D02*
X113650085Y-115218530D01*
X113650085Y-115218530D02*
X113726275Y-115294720D01*
X113726275Y-115294720D02*
X113764370Y-115370911D01*
X113764370Y-115370911D02*
X113802466Y-115523292D01*
X113802466Y-115523292D02*
X113802466Y-115637578D01*
X113802466Y-115637578D02*
X113764370Y-115789959D01*
X113764370Y-115789959D02*
X113726275Y-115866149D01*
X113726275Y-115866149D02*
X113650085Y-115942340D01*
X113650085Y-115942340D02*
X113535799Y-115980435D01*
X113535799Y-115980435D02*
X113459608Y-115980435D01*
X113459608Y-115980435D02*
X113345323Y-115942340D01*
X113345323Y-115942340D02*
X113307227Y-115904244D01*
X113307227Y-115904244D02*
X113307227Y-115637578D01*
X113307227Y-115637578D02*
X113459608Y-115637578D01*
X112964370Y-115980435D02*
X112964370Y-115180435D01*
X112964370Y-115180435D02*
X112507227Y-115980435D01*
X112507227Y-115980435D02*
X112507227Y-115180435D01*
X112126275Y-115980435D02*
X112126275Y-115180435D01*
X112126275Y-115180435D02*
X111935799Y-115180435D01*
X111935799Y-115180435D02*
X111821513Y-115218530D01*
X111821513Y-115218530D02*
X111745323Y-115294720D01*
X111745323Y-115294720D02*
X111707228Y-115370911D01*
X111707228Y-115370911D02*
X111669132Y-115523292D01*
X111669132Y-115523292D02*
X111669132Y-115637578D01*
X111669132Y-115637578D02*
X111707228Y-115789959D01*
X111707228Y-115789959D02*
X111745323Y-115866149D01*
X111745323Y-115866149D02*
X111821513Y-115942340D01*
X111821513Y-115942340D02*
X111935799Y-115980435D01*
X111935799Y-115980435D02*
X112126275Y-115980435D01*
X103548180Y-106070435D02*
X103929132Y-106070435D01*
X103929132Y-106070435D02*
X103967228Y-106451387D01*
X103967228Y-106451387D02*
X103929132Y-106413292D01*
X103929132Y-106413292D02*
X103852942Y-106375197D01*
X103852942Y-106375197D02*
X103662466Y-106375197D01*
X103662466Y-106375197D02*
X103586275Y-106413292D01*
X103586275Y-106413292D02*
X103548180Y-106451387D01*
X103548180Y-106451387D02*
X103510085Y-106527578D01*
X103510085Y-106527578D02*
X103510085Y-106718054D01*
X103510085Y-106718054D02*
X103548180Y-106794244D01*
X103548180Y-106794244D02*
X103586275Y-106832340D01*
X103586275Y-106832340D02*
X103662466Y-106870435D01*
X103662466Y-106870435D02*
X103852942Y-106870435D01*
X103852942Y-106870435D02*
X103929132Y-106832340D01*
X103929132Y-106832340D02*
X103967228Y-106794244D01*
X103281513Y-106070435D02*
X103014846Y-106870435D01*
X103014846Y-106870435D02*
X102748180Y-106070435D01*
X113926275Y-118580435D02*
X113926275Y-117780435D01*
X113926275Y-117780435D02*
X113659609Y-118351863D01*
X113659609Y-118351863D02*
X113392942Y-117780435D01*
X113392942Y-117780435D02*
X113392942Y-118580435D01*
X113050085Y-118351863D02*
X112669132Y-118351863D01*
X113126275Y-118580435D02*
X112859608Y-117780435D01*
X112859608Y-117780435D02*
X112592942Y-118580435D01*
X111907228Y-117818530D02*
X111983418Y-117780435D01*
X111983418Y-117780435D02*
X112097704Y-117780435D01*
X112097704Y-117780435D02*
X112211990Y-117818530D01*
X112211990Y-117818530D02*
X112288180Y-117894720D01*
X112288180Y-117894720D02*
X112326275Y-117970911D01*
X112326275Y-117970911D02*
X112364371Y-118123292D01*
X112364371Y-118123292D02*
X112364371Y-118237578D01*
X112364371Y-118237578D02*
X112326275Y-118389959D01*
X112326275Y-118389959D02*
X112288180Y-118466149D01*
X112288180Y-118466149D02*
X112211990Y-118542340D01*
X112211990Y-118542340D02*
X112097704Y-118580435D01*
X112097704Y-118580435D02*
X112021513Y-118580435D01*
X112021513Y-118580435D02*
X111907228Y-118542340D01*
X111907228Y-118542340D02*
X111869132Y-118504244D01*
X111869132Y-118504244D02*
X111869132Y-118237578D01*
X111869132Y-118237578D02*
X112021513Y-118237578D01*
X111602466Y-117780435D02*
X111107228Y-117780435D01*
X111107228Y-117780435D02*
X111373894Y-118085197D01*
X111373894Y-118085197D02*
X111259609Y-118085197D01*
X111259609Y-118085197D02*
X111183418Y-118123292D01*
X111183418Y-118123292D02*
X111145323Y-118161387D01*
X111145323Y-118161387D02*
X111107228Y-118237578D01*
X111107228Y-118237578D02*
X111107228Y-118428054D01*
X111107228Y-118428054D02*
X111145323Y-118504244D01*
X111145323Y-118504244D02*
X111183418Y-118542340D01*
X111183418Y-118542340D02*
X111259609Y-118580435D01*
X111259609Y-118580435D02*
X111488180Y-118580435D01*
X111488180Y-118580435D02*
X111564371Y-118542340D01*
X111564371Y-118542340D02*
X111602466Y-118504244D01*
X113707228Y-120980435D02*
X113707228Y-120180435D01*
X113707228Y-120180435D02*
X113440562Y-120751863D01*
X113440562Y-120751863D02*
X113173895Y-120180435D01*
X113173895Y-120180435D02*
X113173895Y-120980435D01*
X112450085Y-120980435D02*
X112450085Y-120561387D01*
X112450085Y-120561387D02*
X112488180Y-120485197D01*
X112488180Y-120485197D02*
X112564371Y-120447101D01*
X112564371Y-120447101D02*
X112716752Y-120447101D01*
X112716752Y-120447101D02*
X112792942Y-120485197D01*
X112450085Y-120942340D02*
X112526276Y-120980435D01*
X112526276Y-120980435D02*
X112716752Y-120980435D01*
X112716752Y-120980435D02*
X112792942Y-120942340D01*
X112792942Y-120942340D02*
X112831038Y-120866149D01*
X112831038Y-120866149D02*
X112831038Y-120789959D01*
X112831038Y-120789959D02*
X112792942Y-120713768D01*
X112792942Y-120713768D02*
X112716752Y-120675673D01*
X112716752Y-120675673D02*
X112526276Y-120675673D01*
X112526276Y-120675673D02*
X112450085Y-120637578D01*
X111726275Y-120447101D02*
X111726275Y-121094720D01*
X111726275Y-121094720D02*
X111764370Y-121170911D01*
X111764370Y-121170911D02*
X111802466Y-121209006D01*
X111802466Y-121209006D02*
X111878656Y-121247101D01*
X111878656Y-121247101D02*
X111992942Y-121247101D01*
X111992942Y-121247101D02*
X112069132Y-121209006D01*
X111726275Y-120942340D02*
X111802466Y-120980435D01*
X111802466Y-120980435D02*
X111954847Y-120980435D01*
X111954847Y-120980435D02*
X112031037Y-120942340D01*
X112031037Y-120942340D02*
X112069132Y-120904244D01*
X112069132Y-120904244D02*
X112107228Y-120828054D01*
X112107228Y-120828054D02*
X112107228Y-120599482D01*
X112107228Y-120599482D02*
X112069132Y-120523292D01*
X112069132Y-120523292D02*
X112031037Y-120485197D01*
X112031037Y-120485197D02*
X111954847Y-120447101D01*
X111954847Y-120447101D02*
X111802466Y-120447101D01*
X111802466Y-120447101D02*
X111726275Y-120485197D01*
X111383418Y-120256625D02*
X111345322Y-120218530D01*
X111345322Y-120218530D02*
X111269132Y-120180435D01*
X111269132Y-120180435D02*
X111078656Y-120180435D01*
X111078656Y-120180435D02*
X111002465Y-120218530D01*
X111002465Y-120218530D02*
X110964370Y-120256625D01*
X110964370Y-120256625D02*
X110926275Y-120332816D01*
X110926275Y-120332816D02*
X110926275Y-120409006D01*
X110926275Y-120409006D02*
X110964370Y-120523292D01*
X110964370Y-120523292D02*
X111421513Y-120980435D01*
X111421513Y-120980435D02*
X110926275Y-120980435D01*
X113526276Y-122780435D02*
X113031038Y-122780435D01*
X113031038Y-122780435D02*
X113297704Y-123085197D01*
X113297704Y-123085197D02*
X113183419Y-123085197D01*
X113183419Y-123085197D02*
X113107228Y-123123292D01*
X113107228Y-123123292D02*
X113069133Y-123161387D01*
X113069133Y-123161387D02*
X113031038Y-123237578D01*
X113031038Y-123237578D02*
X113031038Y-123428054D01*
X113031038Y-123428054D02*
X113069133Y-123504244D01*
X113069133Y-123504244D02*
X113107228Y-123542340D01*
X113107228Y-123542340D02*
X113183419Y-123580435D01*
X113183419Y-123580435D02*
X113411990Y-123580435D01*
X113411990Y-123580435D02*
X113488181Y-123542340D01*
X113488181Y-123542340D02*
X113526276Y-123504244D01*
X112802466Y-122780435D02*
X112535799Y-123580435D01*
X112535799Y-123580435D02*
X112269133Y-122780435D01*
X112078657Y-122780435D02*
X111583419Y-122780435D01*
X111583419Y-122780435D02*
X111850085Y-123085197D01*
X111850085Y-123085197D02*
X111735800Y-123085197D01*
X111735800Y-123085197D02*
X111659609Y-123123292D01*
X111659609Y-123123292D02*
X111621514Y-123161387D01*
X111621514Y-123161387D02*
X111583419Y-123237578D01*
X111583419Y-123237578D02*
X111583419Y-123428054D01*
X111583419Y-123428054D02*
X111621514Y-123504244D01*
X111621514Y-123504244D02*
X111659609Y-123542340D01*
X111659609Y-123542340D02*
X111735800Y-123580435D01*
X111735800Y-123580435D02*
X111964371Y-123580435D01*
X111964371Y-123580435D02*
X112040562Y-123542340D01*
X112040562Y-123542340D02*
X112078657Y-123504244D01*
X125754846Y-123380435D02*
X125754846Y-122580435D01*
X125754846Y-122580435D02*
X125564370Y-122580435D01*
X125564370Y-122580435D02*
X125450084Y-122618530D01*
X125450084Y-122618530D02*
X125373894Y-122694720D01*
X125373894Y-122694720D02*
X125335799Y-122770911D01*
X125335799Y-122770911D02*
X125297703Y-122923292D01*
X125297703Y-122923292D02*
X125297703Y-123037578D01*
X125297703Y-123037578D02*
X125335799Y-123189959D01*
X125335799Y-123189959D02*
X125373894Y-123266149D01*
X125373894Y-123266149D02*
X125450084Y-123342340D01*
X125450084Y-123342340D02*
X125564370Y-123380435D01*
X125564370Y-123380435D02*
X125754846Y-123380435D01*
X124954846Y-123380435D02*
X124954846Y-122580435D01*
X124573894Y-123380435D02*
X124573894Y-122580435D01*
X124573894Y-122580435D02*
X124116751Y-123380435D01*
X124116751Y-123380435D02*
X124116751Y-122580435D01*
X125645323Y-119918530D02*
X125721513Y-119880435D01*
X125721513Y-119880435D02*
X125835799Y-119880435D01*
X125835799Y-119880435D02*
X125950085Y-119918530D01*
X125950085Y-119918530D02*
X126026275Y-119994720D01*
X126026275Y-119994720D02*
X126064370Y-120070911D01*
X126064370Y-120070911D02*
X126102466Y-120223292D01*
X126102466Y-120223292D02*
X126102466Y-120337578D01*
X126102466Y-120337578D02*
X126064370Y-120489959D01*
X126064370Y-120489959D02*
X126026275Y-120566149D01*
X126026275Y-120566149D02*
X125950085Y-120642340D01*
X125950085Y-120642340D02*
X125835799Y-120680435D01*
X125835799Y-120680435D02*
X125759608Y-120680435D01*
X125759608Y-120680435D02*
X125645323Y-120642340D01*
X125645323Y-120642340D02*
X125607227Y-120604244D01*
X125607227Y-120604244D02*
X125607227Y-120337578D01*
X125607227Y-120337578D02*
X125759608Y-120337578D01*
X125264370Y-120680435D02*
X125264370Y-119880435D01*
X125264370Y-119880435D02*
X124807227Y-120680435D01*
X124807227Y-120680435D02*
X124807227Y-119880435D01*
X124426275Y-120680435D02*
X124426275Y-119880435D01*
X124426275Y-119880435D02*
X124235799Y-119880435D01*
X124235799Y-119880435D02*
X124121513Y-119918530D01*
X124121513Y-119918530D02*
X124045323Y-119994720D01*
X124045323Y-119994720D02*
X124007228Y-120070911D01*
X124007228Y-120070911D02*
X123969132Y-120223292D01*
X123969132Y-120223292D02*
X123969132Y-120337578D01*
X123969132Y-120337578D02*
X124007228Y-120489959D01*
X124007228Y-120489959D02*
X124045323Y-120566149D01*
X124045323Y-120566149D02*
X124121513Y-120642340D01*
X124121513Y-120642340D02*
X124235799Y-120680435D01*
X124235799Y-120680435D02*
X124426275Y-120680435D01*
X125088180Y-117280435D02*
X125469132Y-117280435D01*
X125469132Y-117280435D02*
X125507228Y-117661387D01*
X125507228Y-117661387D02*
X125469132Y-117623292D01*
X125469132Y-117623292D02*
X125392942Y-117585197D01*
X125392942Y-117585197D02*
X125202466Y-117585197D01*
X125202466Y-117585197D02*
X125126275Y-117623292D01*
X125126275Y-117623292D02*
X125088180Y-117661387D01*
X125088180Y-117661387D02*
X125050085Y-117737578D01*
X125050085Y-117737578D02*
X125050085Y-117928054D01*
X125050085Y-117928054D02*
X125088180Y-118004244D01*
X125088180Y-118004244D02*
X125126275Y-118042340D01*
X125126275Y-118042340D02*
X125202466Y-118080435D01*
X125202466Y-118080435D02*
X125392942Y-118080435D01*
X125392942Y-118080435D02*
X125469132Y-118042340D01*
X125469132Y-118042340D02*
X125507228Y-118004244D01*
X124821513Y-117280435D02*
X124554846Y-118080435D01*
X124554846Y-118080435D02*
X124288180Y-117280435D01*
X100938180Y-179120435D02*
X101319132Y-179120435D01*
X101319132Y-179120435D02*
X101357228Y-179501387D01*
X101357228Y-179501387D02*
X101319132Y-179463292D01*
X101319132Y-179463292D02*
X101242942Y-179425197D01*
X101242942Y-179425197D02*
X101052466Y-179425197D01*
X101052466Y-179425197D02*
X100976275Y-179463292D01*
X100976275Y-179463292D02*
X100938180Y-179501387D01*
X100938180Y-179501387D02*
X100900085Y-179577578D01*
X100900085Y-179577578D02*
X100900085Y-179768054D01*
X100900085Y-179768054D02*
X100938180Y-179844244D01*
X100938180Y-179844244D02*
X100976275Y-179882340D01*
X100976275Y-179882340D02*
X101052466Y-179920435D01*
X101052466Y-179920435D02*
X101242942Y-179920435D01*
X101242942Y-179920435D02*
X101319132Y-179882340D01*
X101319132Y-179882340D02*
X101357228Y-179844244D01*
X100671513Y-179120435D02*
X100404846Y-179920435D01*
X100404846Y-179920435D02*
X100138180Y-179120435D01*
X103508180Y-179170435D02*
X103889132Y-179170435D01*
X103889132Y-179170435D02*
X103927228Y-179551387D01*
X103927228Y-179551387D02*
X103889132Y-179513292D01*
X103889132Y-179513292D02*
X103812942Y-179475197D01*
X103812942Y-179475197D02*
X103622466Y-179475197D01*
X103622466Y-179475197D02*
X103546275Y-179513292D01*
X103546275Y-179513292D02*
X103508180Y-179551387D01*
X103508180Y-179551387D02*
X103470085Y-179627578D01*
X103470085Y-179627578D02*
X103470085Y-179818054D01*
X103470085Y-179818054D02*
X103508180Y-179894244D01*
X103508180Y-179894244D02*
X103546275Y-179932340D01*
X103546275Y-179932340D02*
X103622466Y-179970435D01*
X103622466Y-179970435D02*
X103812942Y-179970435D01*
X103812942Y-179970435D02*
X103889132Y-179932340D01*
X103889132Y-179932340D02*
X103927228Y-179894244D01*
X103241513Y-179170435D02*
X102974846Y-179970435D01*
X102974846Y-179970435D02*
X102708180Y-179170435D01*
D11*
X130170085Y-156299844D02*
X129693895Y-156299844D01*
X130265323Y-156585559D02*
X129931990Y-155585559D01*
X129931990Y-155585559D02*
X129598657Y-156585559D01*
X128741514Y-156585559D02*
X129312942Y-156585559D01*
X129027228Y-156585559D02*
X129027228Y-155585559D01*
X129027228Y-155585559D02*
X129122466Y-155728416D01*
X129122466Y-155728416D02*
X129217704Y-155823654D01*
X129217704Y-155823654D02*
X129312942Y-155871273D01*
X98940561Y-128911749D02*
X98797704Y-128959368D01*
X98797704Y-128959368D02*
X98750085Y-129006987D01*
X98750085Y-129006987D02*
X98702466Y-129102225D01*
X98702466Y-129102225D02*
X98702466Y-129245082D01*
X98702466Y-129245082D02*
X98750085Y-129340320D01*
X98750085Y-129340320D02*
X98797704Y-129387940D01*
X98797704Y-129387940D02*
X98892942Y-129435559D01*
X98892942Y-129435559D02*
X99273894Y-129435559D01*
X99273894Y-129435559D02*
X99273894Y-128435559D01*
X99273894Y-128435559D02*
X98940561Y-128435559D01*
X98940561Y-128435559D02*
X98845323Y-128483178D01*
X98845323Y-128483178D02*
X98797704Y-128530797D01*
X98797704Y-128530797D02*
X98750085Y-128626035D01*
X98750085Y-128626035D02*
X98750085Y-128721273D01*
X98750085Y-128721273D02*
X98797704Y-128816511D01*
X98797704Y-128816511D02*
X98845323Y-128864130D01*
X98845323Y-128864130D02*
X98940561Y-128911749D01*
X98940561Y-128911749D02*
X99273894Y-128911749D01*
X98321513Y-128530797D02*
X98273894Y-128483178D01*
X98273894Y-128483178D02*
X98178656Y-128435559D01*
X98178656Y-128435559D02*
X97940561Y-128435559D01*
X97940561Y-128435559D02*
X97845323Y-128483178D01*
X97845323Y-128483178D02*
X97797704Y-128530797D01*
X97797704Y-128530797D02*
X97750085Y-128626035D01*
X97750085Y-128626035D02*
X97750085Y-128721273D01*
X97750085Y-128721273D02*
X97797704Y-128864130D01*
X97797704Y-128864130D02*
X98369132Y-129435559D01*
X98369132Y-129435559D02*
X97750085Y-129435559D01*
X98940561Y-156291749D02*
X98797704Y-156339368D01*
X98797704Y-156339368D02*
X98750085Y-156386987D01*
X98750085Y-156386987D02*
X98702466Y-156482225D01*
X98702466Y-156482225D02*
X98702466Y-156625082D01*
X98702466Y-156625082D02*
X98750085Y-156720320D01*
X98750085Y-156720320D02*
X98797704Y-156767940D01*
X98797704Y-156767940D02*
X98892942Y-156815559D01*
X98892942Y-156815559D02*
X99273894Y-156815559D01*
X99273894Y-156815559D02*
X99273894Y-155815559D01*
X99273894Y-155815559D02*
X98940561Y-155815559D01*
X98940561Y-155815559D02*
X98845323Y-155863178D01*
X98845323Y-155863178D02*
X98797704Y-155910797D01*
X98797704Y-155910797D02*
X98750085Y-156006035D01*
X98750085Y-156006035D02*
X98750085Y-156101273D01*
X98750085Y-156101273D02*
X98797704Y-156196511D01*
X98797704Y-156196511D02*
X98845323Y-156244130D01*
X98845323Y-156244130D02*
X98940561Y-156291749D01*
X98940561Y-156291749D02*
X99273894Y-156291749D01*
X98369132Y-155815559D02*
X97750085Y-155815559D01*
X97750085Y-155815559D02*
X98083418Y-156196511D01*
X98083418Y-156196511D02*
X97940561Y-156196511D01*
X97940561Y-156196511D02*
X97845323Y-156244130D01*
X97845323Y-156244130D02*
X97797704Y-156291749D01*
X97797704Y-156291749D02*
X97750085Y-156386987D01*
X97750085Y-156386987D02*
X97750085Y-156625082D01*
X97750085Y-156625082D02*
X97797704Y-156720320D01*
X97797704Y-156720320D02*
X97845323Y-156767940D01*
X97845323Y-156767940D02*
X97940561Y-156815559D01*
X97940561Y-156815559D02*
X98226275Y-156815559D01*
X98226275Y-156815559D02*
X98321513Y-156767940D01*
X98321513Y-156767940D02*
X98369132Y-156720320D01*
X90920561Y-128911749D02*
X90777704Y-128959368D01*
X90777704Y-128959368D02*
X90730085Y-129006987D01*
X90730085Y-129006987D02*
X90682466Y-129102225D01*
X90682466Y-129102225D02*
X90682466Y-129245082D01*
X90682466Y-129245082D02*
X90730085Y-129340320D01*
X90730085Y-129340320D02*
X90777704Y-129387940D01*
X90777704Y-129387940D02*
X90872942Y-129435559D01*
X90872942Y-129435559D02*
X91253894Y-129435559D01*
X91253894Y-129435559D02*
X91253894Y-128435559D01*
X91253894Y-128435559D02*
X90920561Y-128435559D01*
X90920561Y-128435559D02*
X90825323Y-128483178D01*
X90825323Y-128483178D02*
X90777704Y-128530797D01*
X90777704Y-128530797D02*
X90730085Y-128626035D01*
X90730085Y-128626035D02*
X90730085Y-128721273D01*
X90730085Y-128721273D02*
X90777704Y-128816511D01*
X90777704Y-128816511D02*
X90825323Y-128864130D01*
X90825323Y-128864130D02*
X90920561Y-128911749D01*
X90920561Y-128911749D02*
X91253894Y-128911749D01*
X89730085Y-129435559D02*
X90301513Y-129435559D01*
X90015799Y-129435559D02*
X90015799Y-128435559D01*
X90015799Y-128435559D02*
X90111037Y-128578416D01*
X90111037Y-128578416D02*
X90206275Y-128673654D01*
X90206275Y-128673654D02*
X90301513Y-128721273D01*
X122300085Y-156339844D02*
X121823895Y-156339844D01*
X122395323Y-156625559D02*
X122061990Y-155625559D01*
X122061990Y-155625559D02*
X121728657Y-156625559D01*
X121442942Y-155720797D02*
X121395323Y-155673178D01*
X121395323Y-155673178D02*
X121300085Y-155625559D01*
X121300085Y-155625559D02*
X121061990Y-155625559D01*
X121061990Y-155625559D02*
X120966752Y-155673178D01*
X120966752Y-155673178D02*
X120919133Y-155720797D01*
X120919133Y-155720797D02*
X120871514Y-155816035D01*
X120871514Y-155816035D02*
X120871514Y-155911273D01*
X120871514Y-155911273D02*
X120919133Y-156054130D01*
X120919133Y-156054130D02*
X121490561Y-156625559D01*
X121490561Y-156625559D02*
X120871514Y-156625559D01*
X122110085Y-129379844D02*
X121633895Y-129379844D01*
X122205323Y-129665559D02*
X121871990Y-128665559D01*
X121871990Y-128665559D02*
X121538657Y-129665559D01*
X121300561Y-128665559D02*
X120681514Y-128665559D01*
X120681514Y-128665559D02*
X121014847Y-129046511D01*
X121014847Y-129046511D02*
X120871990Y-129046511D01*
X120871990Y-129046511D02*
X120776752Y-129094130D01*
X120776752Y-129094130D02*
X120729133Y-129141749D01*
X120729133Y-129141749D02*
X120681514Y-129236987D01*
X120681514Y-129236987D02*
X120681514Y-129475082D01*
X120681514Y-129475082D02*
X120729133Y-129570320D01*
X120729133Y-129570320D02*
X120776752Y-129617940D01*
X120776752Y-129617940D02*
X120871990Y-129665559D01*
X120871990Y-129665559D02*
X121157704Y-129665559D01*
X121157704Y-129665559D02*
X121252942Y-129617940D01*
X121252942Y-129617940D02*
X121300561Y-129570320D01*
X130250085Y-129189844D02*
X129773895Y-129189844D01*
X130345323Y-129475559D02*
X130011990Y-128475559D01*
X130011990Y-128475559D02*
X129678657Y-129475559D01*
X128916752Y-128808892D02*
X128916752Y-129475559D01*
X129154847Y-128427940D02*
X129392942Y-129142225D01*
X129392942Y-129142225D02*
X128773895Y-129142225D01*
X90880561Y-155801749D02*
X90737704Y-155849368D01*
X90737704Y-155849368D02*
X90690085Y-155896987D01*
X90690085Y-155896987D02*
X90642466Y-155992225D01*
X90642466Y-155992225D02*
X90642466Y-156135082D01*
X90642466Y-156135082D02*
X90690085Y-156230320D01*
X90690085Y-156230320D02*
X90737704Y-156277940D01*
X90737704Y-156277940D02*
X90832942Y-156325559D01*
X90832942Y-156325559D02*
X91213894Y-156325559D01*
X91213894Y-156325559D02*
X91213894Y-155325559D01*
X91213894Y-155325559D02*
X90880561Y-155325559D01*
X90880561Y-155325559D02*
X90785323Y-155373178D01*
X90785323Y-155373178D02*
X90737704Y-155420797D01*
X90737704Y-155420797D02*
X90690085Y-155516035D01*
X90690085Y-155516035D02*
X90690085Y-155611273D01*
X90690085Y-155611273D02*
X90737704Y-155706511D01*
X90737704Y-155706511D02*
X90785323Y-155754130D01*
X90785323Y-155754130D02*
X90880561Y-155801749D01*
X90880561Y-155801749D02*
X91213894Y-155801749D01*
X89785323Y-155658892D02*
X89785323Y-156325559D01*
X90023418Y-155277940D02*
X90261513Y-155992225D01*
X90261513Y-155992225D02*
X89642466Y-155992225D01*
X129762466Y-148650320D02*
X129810085Y-148697940D01*
X129810085Y-148697940D02*
X129952942Y-148745559D01*
X129952942Y-148745559D02*
X130048180Y-148745559D01*
X130048180Y-148745559D02*
X130191037Y-148697940D01*
X130191037Y-148697940D02*
X130286275Y-148602701D01*
X130286275Y-148602701D02*
X130333894Y-148507463D01*
X130333894Y-148507463D02*
X130381513Y-148316987D01*
X130381513Y-148316987D02*
X130381513Y-148174130D01*
X130381513Y-148174130D02*
X130333894Y-147983654D01*
X130333894Y-147983654D02*
X130286275Y-147888416D01*
X130286275Y-147888416D02*
X130191037Y-147793178D01*
X130191037Y-147793178D02*
X130048180Y-147745559D01*
X130048180Y-147745559D02*
X129952942Y-147745559D01*
X129952942Y-147745559D02*
X129810085Y-147793178D01*
X129810085Y-147793178D02*
X129762466Y-147840797D01*
X128810085Y-148745559D02*
X129381513Y-148745559D01*
X129095799Y-148745559D02*
X129095799Y-147745559D01*
X129095799Y-147745559D02*
X129191037Y-147888416D01*
X129191037Y-147888416D02*
X129286275Y-147983654D01*
X129286275Y-147983654D02*
X129381513Y-148031273D01*
X119722466Y-148650320D02*
X119770085Y-148697940D01*
X119770085Y-148697940D02*
X119912942Y-148745559D01*
X119912942Y-148745559D02*
X120008180Y-148745559D01*
X120008180Y-148745559D02*
X120151037Y-148697940D01*
X120151037Y-148697940D02*
X120246275Y-148602701D01*
X120246275Y-148602701D02*
X120293894Y-148507463D01*
X120293894Y-148507463D02*
X120341513Y-148316987D01*
X120341513Y-148316987D02*
X120341513Y-148174130D01*
X120341513Y-148174130D02*
X120293894Y-147983654D01*
X120293894Y-147983654D02*
X120246275Y-147888416D01*
X120246275Y-147888416D02*
X120151037Y-147793178D01*
X120151037Y-147793178D02*
X120008180Y-147745559D01*
X120008180Y-147745559D02*
X119912942Y-147745559D01*
X119912942Y-147745559D02*
X119770085Y-147793178D01*
X119770085Y-147793178D02*
X119722466Y-147840797D01*
X119341513Y-147840797D02*
X119293894Y-147793178D01*
X119293894Y-147793178D02*
X119198656Y-147745559D01*
X119198656Y-147745559D02*
X118960561Y-147745559D01*
X118960561Y-147745559D02*
X118865323Y-147793178D01*
X118865323Y-147793178D02*
X118817704Y-147840797D01*
X118817704Y-147840797D02*
X118770085Y-147936035D01*
X118770085Y-147936035D02*
X118770085Y-148031273D01*
X118770085Y-148031273D02*
X118817704Y-148174130D01*
X118817704Y-148174130D02*
X119389132Y-148745559D01*
X119389132Y-148745559D02*
X118770085Y-148745559D01*
X130167704Y-140155559D02*
X130167704Y-140965082D01*
X130167704Y-140965082D02*
X130120085Y-141060320D01*
X130120085Y-141060320D02*
X130072466Y-141107940D01*
X130072466Y-141107940D02*
X129977228Y-141155559D01*
X129977228Y-141155559D02*
X129786752Y-141155559D01*
X129786752Y-141155559D02*
X129691514Y-141107940D01*
X129691514Y-141107940D02*
X129643895Y-141060320D01*
X129643895Y-141060320D02*
X129596276Y-140965082D01*
X129596276Y-140965082D02*
X129596276Y-140155559D01*
X129167704Y-140250797D02*
X129120085Y-140203178D01*
X129120085Y-140203178D02*
X129024847Y-140155559D01*
X129024847Y-140155559D02*
X128786752Y-140155559D01*
X128786752Y-140155559D02*
X128691514Y-140203178D01*
X128691514Y-140203178D02*
X128643895Y-140250797D01*
X128643895Y-140250797D02*
X128596276Y-140346035D01*
X128596276Y-140346035D02*
X128596276Y-140441273D01*
X128596276Y-140441273D02*
X128643895Y-140584130D01*
X128643895Y-140584130D02*
X129215323Y-141155559D01*
X129215323Y-141155559D02*
X128596276Y-141155559D01*
X120307704Y-140315559D02*
X120307704Y-141125082D01*
X120307704Y-141125082D02*
X120260085Y-141220320D01*
X120260085Y-141220320D02*
X120212466Y-141267940D01*
X120212466Y-141267940D02*
X120117228Y-141315559D01*
X120117228Y-141315559D02*
X119926752Y-141315559D01*
X119926752Y-141315559D02*
X119831514Y-141267940D01*
X119831514Y-141267940D02*
X119783895Y-141220320D01*
X119783895Y-141220320D02*
X119736276Y-141125082D01*
X119736276Y-141125082D02*
X119736276Y-140315559D01*
X119355323Y-140315559D02*
X118736276Y-140315559D01*
X118736276Y-140315559D02*
X119069609Y-140696511D01*
X119069609Y-140696511D02*
X118926752Y-140696511D01*
X118926752Y-140696511D02*
X118831514Y-140744130D01*
X118831514Y-140744130D02*
X118783895Y-140791749D01*
X118783895Y-140791749D02*
X118736276Y-140886987D01*
X118736276Y-140886987D02*
X118736276Y-141125082D01*
X118736276Y-141125082D02*
X118783895Y-141220320D01*
X118783895Y-141220320D02*
X118831514Y-141267940D01*
X118831514Y-141267940D02*
X118926752Y-141315559D01*
X118926752Y-141315559D02*
X119212466Y-141315559D01*
X119212466Y-141315559D02*
X119307704Y-141267940D01*
X119307704Y-141267940D02*
X119355323Y-141220320D01*
X105210619Y-103927406D02*
X105924904Y-103927406D01*
X105924904Y-103927406D02*
X106067761Y-103879787D01*
X106067761Y-103879787D02*
X106163000Y-103784549D01*
X106163000Y-103784549D02*
X106210619Y-103641692D01*
X106210619Y-103641692D02*
X106210619Y-103546454D01*
X106210619Y-104927406D02*
X106210619Y-104355978D01*
X106210619Y-104641692D02*
X105210619Y-104641692D01*
X105210619Y-104641692D02*
X105353476Y-104546454D01*
X105353476Y-104546454D02*
X105448714Y-104451216D01*
X105448714Y-104451216D02*
X105496333Y-104355978D01*
X105212619Y-181217406D02*
X105926904Y-181217406D01*
X105926904Y-181217406D02*
X106069761Y-181169787D01*
X106069761Y-181169787D02*
X106165000Y-181074549D01*
X106165000Y-181074549D02*
X106212619Y-180931692D01*
X106212619Y-180931692D02*
X106212619Y-180836454D01*
X105307857Y-181645978D02*
X105260238Y-181693597D01*
X105260238Y-181693597D02*
X105212619Y-181788835D01*
X105212619Y-181788835D02*
X105212619Y-182026930D01*
X105212619Y-182026930D02*
X105260238Y-182122168D01*
X105260238Y-182122168D02*
X105307857Y-182169787D01*
X105307857Y-182169787D02*
X105403095Y-182217406D01*
X105403095Y-182217406D02*
X105498333Y-182217406D01*
X105498333Y-182217406D02*
X105641190Y-182169787D01*
X105641190Y-182169787D02*
X106212619Y-181598359D01*
X106212619Y-181598359D02*
X106212619Y-182217406D01*
X75807228Y-116501749D02*
X76140561Y-116501749D01*
X76140561Y-117025559D02*
X76140561Y-116025559D01*
X76140561Y-116025559D02*
X75664371Y-116025559D01*
X75283418Y-117025559D02*
X75283418Y-116025559D01*
X74807228Y-117025559D02*
X74807228Y-116025559D01*
X74807228Y-116025559D02*
X74569133Y-116025559D01*
X74569133Y-116025559D02*
X74426276Y-116073178D01*
X74426276Y-116073178D02*
X74331038Y-116168416D01*
X74331038Y-116168416D02*
X74283419Y-116263654D01*
X74283419Y-116263654D02*
X74235800Y-116454130D01*
X74235800Y-116454130D02*
X74235800Y-116596987D01*
X74235800Y-116596987D02*
X74283419Y-116787463D01*
X74283419Y-116787463D02*
X74331038Y-116882701D01*
X74331038Y-116882701D02*
X74426276Y-116977940D01*
X74426276Y-116977940D02*
X74569133Y-117025559D01*
X74569133Y-117025559D02*
X74807228Y-117025559D01*
X73283419Y-117025559D02*
X73854847Y-117025559D01*
X73569133Y-117025559D02*
X73569133Y-116025559D01*
X73569133Y-116025559D02*
X73664371Y-116168416D01*
X73664371Y-116168416D02*
X73759609Y-116263654D01*
X73759609Y-116263654D02*
X73854847Y-116311273D01*
D12*
X129455220Y-146350740D02*
X129736380Y-146350740D01*
X129455220Y-147370740D02*
X129736380Y-147370740D01*
X119415220Y-146350740D02*
X119696380Y-146350740D01*
X119415220Y-147370740D02*
X119696380Y-147370740D01*
X130395800Y-141830740D02*
X128935800Y-141830740D01*
X130395800Y-141830740D02*
X130395800Y-142760740D01*
X130395800Y-144990740D02*
X128235800Y-144990740D01*
X130395800Y-144990740D02*
X130395800Y-144060740D01*
X120575800Y-141870740D02*
X119115800Y-141870740D01*
X120575800Y-141870740D02*
X120575800Y-142800740D01*
X120575800Y-145030740D02*
X118415800Y-145030740D01*
X120575800Y-145030740D02*
X120575800Y-144100740D01*
X96915800Y-105640740D02*
X96915800Y-102880740D01*
X102105800Y-102880740D02*
X96915800Y-102880740D01*
X102105800Y-105640740D02*
X96915800Y-105640740D01*
X102105800Y-105640740D02*
X102105800Y-102880740D01*
X103375800Y-105640740D02*
X104755800Y-105640740D01*
X104755800Y-105640740D02*
X104755800Y-104260740D01*
X96917800Y-182930740D02*
X96917800Y-180170740D01*
X102107800Y-180170740D02*
X96917800Y-180170740D01*
X102107800Y-182930740D02*
X96917800Y-182930740D01*
X102107800Y-182930740D02*
X102107800Y-180170740D01*
X103377800Y-182930740D02*
X104757800Y-182930740D01*
X104757800Y-182930740D02*
X104757800Y-181550740D01*
M02*
