G04 #@! TF.GenerationSoftware,KiCad,Pcbnew,9.0.5*
G04 #@! TF.CreationDate,2025-10-28T09:48:44+01:00*
G04 #@! TF.ProjectId,StepperClockMotor,53746570-7065-4724-936c-6f636b4d6f74,v1.2*
G04 #@! TF.SameCoordinates,Original*
G04 #@! TF.FileFunction,Copper,L1,Top*
G04 #@! TF.FilePolarity,Positive*
%FSLAX46Y46*%
G04 Gerber Fmt 4.6, Leading zero omitted, Abs format (unit mm)*
G04 Created by KiCad (PCBNEW 9.0.5) date 2025-10-28 09:48:44*
%MOMM*%
%LPD*%
G01*
G04 APERTURE LIST*
G04 Aperture macros list*
%AMRoundRect*
0 Rectangle with rounded corners*
0 $1 Rounding radius*
0 $2 $3 $4 $5 $6 $7 $8 $9 X,Y pos of 4 corners*
0 Add a 4 corners polygon primitive as box body*
4,1,4,$2,$3,$4,$5,$6,$7,$8,$9,$2,$3,0*
0 Add four circle primitives for the rounded corners*
1,1,$1+$1,$2,$3*
1,1,$1+$1,$4,$5*
1,1,$1+$1,$6,$7*
1,1,$1+$1,$8,$9*
0 Add four rect primitives between the rounded corners*
20,1,$1+$1,$2,$3,$4,$5,0*
20,1,$1+$1,$4,$5,$6,$7,0*
20,1,$1+$1,$6,$7,$8,$9,0*
20,1,$1+$1,$8,$9,$2,$3,0*%
G04 Aperture macros list end*
G04 #@! TA.AperFunction,ComponentPad*
%ADD10RoundRect,0.250000X0.725000X-0.600000X0.725000X0.600000X-0.725000X0.600000X-0.725000X-0.600000X0*%
G04 #@! TD*
G04 #@! TA.AperFunction,ComponentPad*
%ADD11O,1.950000X1.700000*%
G04 #@! TD*
G04 #@! TA.AperFunction,ComponentPad*
%ADD12RoundRect,0.250000X-0.600000X-0.725000X0.600000X-0.725000X0.600000X0.725000X-0.600000X0.725000X0*%
G04 #@! TD*
G04 #@! TA.AperFunction,ComponentPad*
%ADD13O,1.700000X1.950000*%
G04 #@! TD*
G04 #@! TA.AperFunction,ComponentPad*
%ADD14RoundRect,0.250000X0.600000X0.725000X-0.600000X0.725000X-0.600000X-0.725000X0.600000X-0.725000X0*%
G04 #@! TD*
G04 #@! TA.AperFunction,ComponentPad*
%ADD15RoundRect,0.250000X-0.725000X0.600000X-0.725000X-0.600000X0.725000X-0.600000X0.725000X0.600000X0*%
G04 #@! TD*
G04 #@! TA.AperFunction,ComponentPad*
%ADD16C,2.000000*%
G04 #@! TD*
G04 #@! TA.AperFunction,ComponentPad*
%ADD17R,1.700000X1.700000*%
G04 #@! TD*
G04 #@! TA.AperFunction,ComponentPad*
%ADD18C,1.700000*%
G04 #@! TD*
G04 #@! TA.AperFunction,ViaPad*
%ADD19C,0.800000*%
G04 #@! TD*
G04 #@! TA.AperFunction,Conductor*
%ADD20C,1.500000*%
G04 #@! TD*
G04 #@! TA.AperFunction,Conductor*
%ADD21C,0.250000*%
G04 #@! TD*
G04 APERTURE END LIST*
D10*
X122435800Y-122820740D03*
D11*
X122435800Y-120320740D03*
X122435800Y-117820740D03*
D12*
X112735800Y-163120740D03*
D13*
X115235800Y-163120740D03*
X117735800Y-163120740D03*
X120235800Y-163120740D03*
D14*
X120135800Y-172820740D03*
D13*
X117635800Y-172820740D03*
X115135800Y-172820740D03*
X112635800Y-172820740D03*
D15*
X115315800Y-115620740D03*
D11*
X115315800Y-118120740D03*
X115315800Y-120620740D03*
X115315800Y-123120740D03*
D16*
X129535800Y-130980740D03*
X121535800Y-130980740D03*
X98535800Y-130980740D03*
X90535800Y-130980740D03*
X90535800Y-153980740D03*
X98535800Y-153980740D03*
X121535800Y-153980740D03*
X129535800Y-153980740D03*
D17*
X103375800Y-104260740D03*
D18*
X100835800Y-104260740D03*
X98295800Y-104260740D03*
D17*
X103377800Y-181550740D03*
D18*
X100837800Y-181550740D03*
X98297800Y-181550740D03*
D19*
X112935800Y-115620740D03*
X116235800Y-108020740D03*
X62565800Y-142720740D03*
X107935800Y-104930740D03*
X84235800Y-175390740D03*
X88935800Y-139220740D03*
X62475800Y-147030740D03*
X110035800Y-159220740D03*
X127635800Y-115620740D03*
X98551800Y-127448740D03*
X102035800Y-165520740D03*
X72575800Y-115970740D03*
X124135800Y-112020740D03*
X110035800Y-117320740D03*
X114299800Y-178248740D03*
X64195800Y-129770740D03*
X139445800Y-142688740D03*
X65095800Y-155560740D03*
X136651800Y-129734740D03*
X99035800Y-176620740D03*
X107949800Y-180280740D03*
X76915800Y-170300740D03*
X137025800Y-138420740D03*
X95845320Y-160476416D03*
X113791800Y-127702740D03*
X101235800Y-160820740D03*
X64007800Y-151324740D03*
X107135800Y-148320740D03*
X130047800Y-119828740D03*
X94935800Y-104060740D03*
X80009800Y-173676740D03*
X133195800Y-151330740D03*
X63245800Y-135576740D03*
X105735800Y-132120740D03*
X103435800Y-119520740D03*
X89785800Y-105590740D03*
X137413800Y-154880740D03*
X84435800Y-118920740D03*
X69775800Y-119520740D03*
X112145800Y-106430740D03*
X80715800Y-109890740D03*
X89835800Y-168020740D03*
X117335800Y-116720740D03*
X84581800Y-108144740D03*
X85135800Y-141920740D03*
X122235800Y-140620740D03*
X72035800Y-141620740D03*
X82235800Y-158220740D03*
X80735800Y-144920740D03*
X120335800Y-120320740D03*
X72135800Y-166818740D03*
X76695800Y-112380740D03*
X130935800Y-166220740D03*
X93235800Y-125220740D03*
X113035800Y-130220740D03*
X132587800Y-140656740D03*
X118235800Y-126520740D03*
X121735800Y-126620740D03*
X101335800Y-108920740D03*
X101335800Y-113520740D03*
X117235800Y-139320740D03*
X115335800Y-130220740D03*
X117235800Y-142420740D03*
D20*
X128275800Y-130980740D02*
X129535800Y-130980740D01*
X125535800Y-133720740D02*
X128275800Y-130980740D01*
X125486800Y-144675317D02*
X125486800Y-139420740D01*
X125486799Y-139420739D02*
X125486800Y-133720740D01*
X115235800Y-154926318D02*
X125486800Y-144675317D01*
X115235800Y-163120740D02*
X115235800Y-154926318D01*
X125486800Y-139420740D02*
X125486799Y-139420739D01*
X125486800Y-133720740D02*
X125535800Y-133720740D01*
X123785800Y-133230740D02*
X121535800Y-130980740D01*
X123785800Y-143970740D02*
X123785800Y-133230740D01*
X113534800Y-154221740D02*
X123785800Y-143970740D01*
X113534800Y-162321740D02*
X113534800Y-154221740D01*
X112735800Y-163120740D02*
X113534800Y-162321740D01*
X76635800Y-159920740D02*
X76635800Y-134420740D01*
X97447801Y-180700741D02*
X97415801Y-180700741D01*
X103435800Y-111620740D02*
X120135800Y-111620740D01*
X98297800Y-181550740D02*
X97447801Y-180700741D01*
X103375800Y-104260740D02*
X103375800Y-106610740D01*
X103435800Y-106670740D02*
X103435800Y-111620740D01*
X100837800Y-181550740D02*
X103377800Y-181550740D01*
X122435800Y-113920740D02*
X120135800Y-111620740D01*
X76635800Y-134420740D02*
X99435800Y-111620740D01*
X98297800Y-181550740D02*
X100837800Y-181550740D01*
X99435800Y-111620740D02*
X103435800Y-111620740D01*
X97415801Y-180700741D02*
X76635800Y-159920740D01*
X122435800Y-117820740D02*
X122435800Y-113920740D01*
X103375800Y-106610740D02*
X103435800Y-106670740D01*
X94385800Y-163370740D02*
X90535800Y-159520740D01*
X103835800Y-172820740D02*
X112635800Y-172820740D01*
X90535800Y-159520740D02*
X90535800Y-153980740D01*
X94385800Y-163370740D02*
X103835800Y-172820740D01*
X115135800Y-171583304D02*
X115135800Y-172820740D01*
X113973236Y-170420740D02*
X115135800Y-171583304D01*
X98535800Y-153980740D02*
X98535800Y-165115162D01*
X103841378Y-170420740D02*
X113973236Y-170420740D01*
X98535800Y-165115162D02*
X103841378Y-170420740D01*
X116640377Y-166619740D02*
X108834800Y-166619740D01*
X120135800Y-170115163D02*
X116640377Y-166619740D01*
X120135800Y-172820740D02*
X120135800Y-170115163D01*
X105584712Y-163369652D02*
X105584712Y-153969652D01*
X105584712Y-153969652D02*
X95135800Y-143520740D01*
X108834800Y-166619740D02*
X105584712Y-163369652D01*
X95135800Y-143520740D02*
X95135800Y-134380740D01*
X95135800Y-134380740D02*
X98535800Y-130980740D01*
X103883712Y-164074229D02*
X103883712Y-154672828D01*
X92735800Y-133180740D02*
X90535800Y-130980740D01*
X92735800Y-143524916D02*
X92735800Y-133180740D01*
X103883712Y-154672828D02*
X92735800Y-143524916D01*
X117635800Y-170020740D02*
X115935800Y-168320740D01*
X115935800Y-168320740D02*
X108130222Y-168320740D01*
X117635800Y-172820740D02*
X117635800Y-170020740D01*
X108130222Y-168320740D02*
X103883712Y-164074229D01*
X120235800Y-163120740D02*
X123035800Y-163120740D01*
X123035800Y-163120740D02*
X129535800Y-156620740D01*
X129535800Y-156620740D02*
X129535800Y-153980740D01*
X121535800Y-153980740D02*
X121535800Y-157920740D01*
X117735800Y-161720740D02*
X117735800Y-163120740D01*
X121535800Y-157920740D02*
X117735800Y-161720740D01*
D21*
X113035800Y-120400740D02*
X113035800Y-130220740D01*
X115315800Y-118120740D02*
X113035800Y-120400740D01*
X121735800Y-126620740D02*
X128912798Y-126620740D01*
X116553236Y-120620740D02*
X118235800Y-122303304D01*
X118235800Y-122303304D02*
X118235800Y-126520740D01*
X132587800Y-140656740D02*
X132587800Y-130295742D01*
X128912798Y-126620740D02*
X132587800Y-130295742D01*
X115315800Y-120620740D02*
X116553236Y-120620740D01*
X100770115Y-108920740D02*
X98295800Y-106446425D01*
X118835800Y-121420740D02*
X120235800Y-122820740D01*
X116135800Y-113620740D02*
X118835800Y-116320740D01*
X101335800Y-108920740D02*
X100770115Y-108920740D01*
X120235800Y-122820740D02*
X122435800Y-122820740D01*
X101335800Y-113520740D02*
X101435800Y-113620740D01*
X98295800Y-106446425D02*
X98295800Y-105462821D01*
X98295800Y-105462821D02*
X98295800Y-104260740D01*
X101435800Y-113620740D02*
X116135800Y-113620740D01*
X118835800Y-116320740D02*
X118835800Y-121420740D01*
X115315800Y-123120740D02*
X115315800Y-130200740D01*
X117235800Y-139320740D02*
X117235800Y-142420740D01*
X115315800Y-130200740D02*
X115335800Y-130220740D01*
G04 #@! TA.AperFunction,Conductor*
G36*
X97371818Y-103031225D02*
G01*
X97423154Y-103080267D01*
X97439827Y-103149278D01*
X97416542Y-103216348D01*
X97403071Y-103232258D01*
X97259594Y-103375735D01*
X97133908Y-103548727D01*
X97036829Y-103739255D01*
X97036826Y-103739261D01*
X96970752Y-103942618D01*
X96970751Y-103942623D01*
X96970751Y-103942624D01*
X96937300Y-104153824D01*
X96937300Y-104367656D01*
X96970751Y-104578856D01*
X96970752Y-104578861D01*
X97036826Y-104782218D01*
X97036828Y-104782223D01*
X97133906Y-104972749D01*
X97259594Y-105145744D01*
X97259596Y-105145746D01*
X97259598Y-105145749D01*
X97410790Y-105296941D01*
X97410793Y-105296943D01*
X97410796Y-105296946D01*
X97541495Y-105391904D01*
X97583197Y-105422203D01*
X97583791Y-105422634D01*
X97593502Y-105427582D01*
X97645116Y-105476326D01*
X97662300Y-105539848D01*
X97662300Y-106384031D01*
X97662300Y-106508819D01*
X97686645Y-106631210D01*
X97734400Y-106746500D01*
X97803729Y-106850258D01*
X100278044Y-109324573D01*
X100366282Y-109412811D01*
X100470040Y-109482140D01*
X100585330Y-109529895D01*
X100641230Y-109541013D01*
X100704137Y-109573918D01*
X100705744Y-109575497D01*
X100756665Y-109626418D01*
X100905464Y-109725842D01*
X101070800Y-109794327D01*
X101246321Y-109829240D01*
X101246322Y-109829240D01*
X101425278Y-109829240D01*
X101425279Y-109829240D01*
X101600800Y-109794327D01*
X101766136Y-109725842D01*
X101914935Y-109626418D01*
X101962205Y-109579148D01*
X102024517Y-109545122D01*
X102095332Y-109550187D01*
X102152168Y-109592734D01*
X102176979Y-109659254D01*
X102177300Y-109668243D01*
X102177300Y-110236240D01*
X102157298Y-110304361D01*
X102103642Y-110350854D01*
X102051300Y-110362240D01*
X99336754Y-110362240D01*
X99141100Y-110393228D01*
X99141097Y-110393228D01*
X99141096Y-110393229D01*
X98952703Y-110454442D01*
X98952701Y-110454443D01*
X98776198Y-110544376D01*
X98615939Y-110660811D01*
X98615936Y-110660814D01*
X81493544Y-127783208D01*
X75815942Y-133460810D01*
X75762982Y-133513770D01*
X75675870Y-133600881D01*
X75559436Y-133761138D01*
X75469503Y-133937641D01*
X75469502Y-133937643D01*
X75432391Y-134051860D01*
X75408288Y-134126040D01*
X75377300Y-134321694D01*
X75377300Y-160019786D01*
X75408288Y-160215440D01*
X75448954Y-160340598D01*
X75469502Y-160403836D01*
X75469505Y-160403844D01*
X75515048Y-160493227D01*
X75559434Y-160580338D01*
X75675871Y-160740600D01*
X75675874Y-160740603D01*
X96455871Y-181520599D01*
X96595942Y-181660670D01*
X96704943Y-181739864D01*
X96719977Y-181752705D01*
X97024021Y-182056749D01*
X97047193Y-182088641D01*
X97135907Y-182262752D01*
X97221781Y-182380946D01*
X97261594Y-182435744D01*
X97261596Y-182435746D01*
X97261598Y-182435749D01*
X97305884Y-182480035D01*
X97339910Y-182542347D01*
X97334845Y-182613162D01*
X97292298Y-182669998D01*
X97225778Y-182694809D01*
X97204931Y-182694571D01*
X96141174Y-182594016D01*
X96137240Y-182593581D01*
X94895331Y-182436692D01*
X94891412Y-182436135D01*
X94000939Y-182295098D01*
X93654954Y-182240299D01*
X93651059Y-182239619D01*
X92421444Y-182005056D01*
X92417568Y-182004254D01*
X91195841Y-181731166D01*
X91191992Y-181730241D01*
X89979538Y-181418936D01*
X89975720Y-181417892D01*
X88773579Y-181068638D01*
X88769796Y-181067474D01*
X87579251Y-180680642D01*
X87575506Y-180679360D01*
X86444681Y-180272238D01*
X86397682Y-180255317D01*
X86393986Y-180253921D01*
X86383706Y-180249851D01*
X85230055Y-179793088D01*
X85226398Y-179791573D01*
X84077525Y-179294411D01*
X84073918Y-179292782D01*
X82941257Y-178759792D01*
X82937702Y-178758051D01*
X81822305Y-178189728D01*
X81818807Y-178187876D01*
X80721797Y-177584790D01*
X80718359Y-177582828D01*
X79640889Y-176945614D01*
X79637514Y-176943546D01*
X78580572Y-176272790D01*
X78577264Y-176270617D01*
X77541884Y-175566974D01*
X77538645Y-175564698D01*
X76525910Y-174828902D01*
X76522745Y-174826526D01*
X75533596Y-174059264D01*
X75530507Y-174056789D01*
X74565960Y-173258846D01*
X74562950Y-173256275D01*
X74093450Y-172842355D01*
X73623940Y-172428427D01*
X73621022Y-172425772D01*
X73239866Y-172067843D01*
X72708461Y-171568820D01*
X72705619Y-171566065D01*
X71820474Y-170680920D01*
X71817719Y-170678078D01*
X70987830Y-169794336D01*
X70960755Y-169765504D01*
X70958103Y-169762589D01*
X70931155Y-169732023D01*
X70356560Y-169080272D01*
X70130264Y-168823589D01*
X70127693Y-168820579D01*
X69329750Y-167856032D01*
X69327275Y-167852943D01*
X68560013Y-166863794D01*
X68557637Y-166860629D01*
X67844043Y-165878452D01*
X67821824Y-165847870D01*
X67819565Y-165844655D01*
X67115922Y-164809275D01*
X67113749Y-164805967D01*
X66985729Y-164604240D01*
X66442985Y-163749012D01*
X66440960Y-163745710D01*
X66367572Y-163621616D01*
X66350114Y-163552804D01*
X66372631Y-163485473D01*
X66427975Y-163441003D01*
X66498576Y-163433515D01*
X66562017Y-163465385D01*
X66565122Y-163468386D01*
X66613014Y-163516278D01*
X66613024Y-163516287D01*
X66613028Y-163516291D01*
X66867502Y-163725133D01*
X67141221Y-163908026D01*
X67431549Y-164063209D01*
X67735689Y-164189188D01*
X68050713Y-164284750D01*
X68050722Y-164284751D01*
X68050726Y-164284753D01*
X68142362Y-164302980D01*
X68373587Y-164348973D01*
X68701200Y-164381240D01*
X68701209Y-164381240D01*
X69030391Y-164381240D01*
X69030400Y-164381240D01*
X69358013Y-164348973D01*
X69612859Y-164298281D01*
X69680873Y-164284753D01*
X69680875Y-164284752D01*
X69680887Y-164284750D01*
X69995911Y-164189188D01*
X70300051Y-164063209D01*
X70590379Y-163908026D01*
X70864098Y-163725133D01*
X71118572Y-163516291D01*
X71351351Y-163283512D01*
X71560193Y-163029038D01*
X71743086Y-162755319D01*
X71898269Y-162464991D01*
X72024248Y-162160851D01*
X72119810Y-161845827D01*
X72184033Y-161522953D01*
X72216300Y-161195340D01*
X72216300Y-160866140D01*
X72184033Y-160538527D01*
X72119810Y-160215653D01*
X72024248Y-159900629D01*
X71898269Y-159596489D01*
X71743086Y-159306161D01*
X71560193Y-159032442D01*
X71490287Y-158947262D01*
X71351356Y-158777974D01*
X71351338Y-158777954D01*
X71118585Y-158545201D01*
X71118565Y-158545183D01*
X70864106Y-158336353D01*
X70864091Y-158336342D01*
X70590381Y-158153455D01*
X70300051Y-157998271D01*
X69995909Y-157872291D01*
X69995906Y-157872290D01*
X69787393Y-157809038D01*
X69680887Y-157776730D01*
X69680884Y-157776729D01*
X69680873Y-157776726D01*
X69358019Y-157712508D01*
X69358015Y-157712507D01*
X69358013Y-157712507D01*
X69358009Y-157712506D01*
X69357998Y-157712505D01*
X69030406Y-157680240D01*
X69030400Y-157680240D01*
X68701200Y-157680240D01*
X68701193Y-157680240D01*
X68373601Y-157712505D01*
X68373580Y-157712508D01*
X68050726Y-157776726D01*
X67735693Y-157872290D01*
X67735690Y-157872291D01*
X67431548Y-157998271D01*
X67141218Y-158153455D01*
X66867508Y-158336342D01*
X66867493Y-158336353D01*
X66613034Y-158545183D01*
X66613014Y-158545201D01*
X66380261Y-158777954D01*
X66380243Y-158777974D01*
X66171413Y-159032433D01*
X66171402Y-159032448D01*
X65988515Y-159306158D01*
X65833331Y-159596488D01*
X65707351Y-159900630D01*
X65707350Y-159900633D01*
X65611786Y-160215666D01*
X65547568Y-160538520D01*
X65547565Y-160538541D01*
X65515300Y-160866133D01*
X65515300Y-161195346D01*
X65547565Y-161522938D01*
X65547568Y-161522959D01*
X65600090Y-161787009D01*
X65593762Y-161857723D01*
X65550207Y-161913790D01*
X65483254Y-161937409D01*
X65414161Y-161921082D01*
X65366096Y-161872291D01*
X65242710Y-161647853D01*
X65198658Y-161567723D01*
X65196811Y-161564234D01*
X65175780Y-161522959D01*
X64628484Y-160448828D01*
X64626747Y-160445282D01*
X64607244Y-160403837D01*
X64093756Y-159312620D01*
X64092128Y-159309014D01*
X63972441Y-159032433D01*
X63594955Y-158160116D01*
X63593451Y-158156484D01*
X63592252Y-158153455D01*
X63132602Y-156992512D01*
X63131235Y-156988892D01*
X62707175Y-155811021D01*
X62705897Y-155807288D01*
X62651055Y-155638502D01*
X62319056Y-154616716D01*
X62317901Y-154612960D01*
X62302457Y-154559803D01*
X61990650Y-153486553D01*
X61968647Y-153410819D01*
X61967603Y-153407001D01*
X61894608Y-153122703D01*
X61656292Y-152194523D01*
X61655373Y-152190698D01*
X61382285Y-150968971D01*
X61381483Y-150965095D01*
X61372540Y-150918215D01*
X61146910Y-149735424D01*
X61146248Y-149731635D01*
X60950396Y-148495075D01*
X60949854Y-148491262D01*
X60792952Y-147249250D01*
X60792528Y-147245412D01*
X60674709Y-145999022D01*
X60674404Y-145995144D01*
X60595801Y-144745768D01*
X60595615Y-144741835D01*
X60590964Y-144593848D01*
X60556294Y-143490604D01*
X60556232Y-143486646D01*
X60556232Y-142234833D01*
X60556294Y-142230875D01*
X60570295Y-141785358D01*
X60595616Y-140979620D01*
X60595802Y-140975690D01*
X60674405Y-139726330D01*
X60674708Y-139722462D01*
X60792528Y-138476060D01*
X60792951Y-138472236D01*
X60949855Y-137230208D01*
X60950395Y-137226413D01*
X61146250Y-135989833D01*
X61146908Y-135986066D01*
X61381484Y-134756374D01*
X61382285Y-134752508D01*
X61384393Y-134743076D01*
X61655381Y-133530743D01*
X61656288Y-133526971D01*
X61967606Y-132314465D01*
X61968647Y-132310660D01*
X62317914Y-131108475D01*
X62319051Y-131104780D01*
X62705907Y-129914159D01*
X62707168Y-129910477D01*
X63131242Y-128732566D01*
X63132594Y-128728988D01*
X63593470Y-127564947D01*
X63594946Y-127561385D01*
X64092139Y-126412439D01*
X64093757Y-126408858D01*
X64626763Y-125276164D01*
X64628471Y-125272675D01*
X65196829Y-124157210D01*
X65198644Y-124153782D01*
X65391586Y-123802821D01*
X65441931Y-123752764D01*
X65511348Y-123737871D01*
X65577797Y-123762872D01*
X65620181Y-123819829D01*
X65625044Y-123890659D01*
X65622575Y-123900098D01*
X65611788Y-123935659D01*
X65611788Y-123935660D01*
X65547568Y-124258520D01*
X65547565Y-124258541D01*
X65515300Y-124586133D01*
X65515300Y-124915346D01*
X65547565Y-125242938D01*
X65547568Y-125242959D01*
X65611786Y-125565813D01*
X65707350Y-125880846D01*
X65707351Y-125880849D01*
X65833331Y-126184991D01*
X65988515Y-126475321D01*
X66171402Y-126749031D01*
X66171413Y-126749046D01*
X66380243Y-127003505D01*
X66380261Y-127003525D01*
X66613014Y-127236278D01*
X66613034Y-127236296D01*
X66843995Y-127425842D01*
X66867502Y-127445133D01*
X67141221Y-127628026D01*
X67431549Y-127783209D01*
X67735689Y-127909188D01*
X68050713Y-128004750D01*
X68050722Y-128004751D01*
X68050726Y-128004753D01*
X68181588Y-128030782D01*
X68373587Y-128068973D01*
X68701200Y-128101240D01*
X68701209Y-128101240D01*
X69030391Y-128101240D01*
X69030400Y-128101240D01*
X69358013Y-128068973D01*
X69612859Y-128018281D01*
X69680873Y-128004753D01*
X69680875Y-128004752D01*
X69680887Y-128004750D01*
X69995911Y-127909188D01*
X70300051Y-127783209D01*
X70590379Y-127628026D01*
X70864098Y-127445133D01*
X71118572Y-127236291D01*
X71351351Y-127003512D01*
X71560193Y-126749038D01*
X71743086Y-126475319D01*
X71898269Y-126184991D01*
X72024248Y-125880851D01*
X72119810Y-125565827D01*
X72184033Y-125242953D01*
X72216300Y-124915340D01*
X72216300Y-124586140D01*
X72184033Y-124258527D01*
X72119810Y-123935653D01*
X72024248Y-123620629D01*
X71898269Y-123316489D01*
X71743086Y-123026161D01*
X71560193Y-122752442D01*
X71498090Y-122676770D01*
X71351356Y-122497974D01*
X71351338Y-122497954D01*
X71118585Y-122265201D01*
X71118565Y-122265183D01*
X70864106Y-122056353D01*
X70864091Y-122056342D01*
X70590381Y-121873455D01*
X70300051Y-121718271D01*
X69995909Y-121592291D01*
X69995906Y-121592290D01*
X69710618Y-121505749D01*
X69680887Y-121496730D01*
X69680884Y-121496729D01*
X69680873Y-121496726D01*
X69358019Y-121432508D01*
X69358015Y-121432507D01*
X69358013Y-121432507D01*
X69358009Y-121432506D01*
X69357998Y-121432505D01*
X69030406Y-121400240D01*
X69030400Y-121400240D01*
X68701200Y-121400240D01*
X68701193Y-121400240D01*
X68373601Y-121432505D01*
X68373580Y-121432508D01*
X68050726Y-121496726D01*
X67735693Y-121592290D01*
X67735690Y-121592291D01*
X67431548Y-121718271D01*
X67141218Y-121873455D01*
X66867508Y-122056342D01*
X66867493Y-122056353D01*
X66613034Y-122265183D01*
X66613024Y-122265191D01*
X66478280Y-122399936D01*
X66415968Y-122433961D01*
X66345152Y-122428896D01*
X66288317Y-122386349D01*
X66263506Y-122319828D01*
X66278598Y-122250454D01*
X66280690Y-122246772D01*
X66440977Y-121975741D01*
X66442967Y-121972496D01*
X67113768Y-120915482D01*
X67115922Y-120912204D01*
X67301765Y-120638744D01*
X67819582Y-119876799D01*
X67821803Y-119873638D01*
X68557659Y-118860820D01*
X68559990Y-118857714D01*
X69327297Y-117868507D01*
X69329727Y-117865474D01*
X70127715Y-116900873D01*
X70130241Y-116897916D01*
X70958143Y-115958844D01*
X70960726Y-115956006D01*
X71817749Y-115043369D01*
X71820442Y-115040591D01*
X72705651Y-114155382D01*
X72708429Y-114152689D01*
X73621066Y-113295666D01*
X73623904Y-113293083D01*
X74562976Y-112465181D01*
X74565933Y-112462655D01*
X75530534Y-111664667D01*
X75533567Y-111662237D01*
X76522774Y-110894930D01*
X76525880Y-110892599D01*
X77538698Y-110156743D01*
X77541859Y-110154522D01*
X78577264Y-109450862D01*
X78580542Y-109448708D01*
X79637555Y-108777907D01*
X79640847Y-108775890D01*
X80718404Y-108138625D01*
X80721753Y-108136714D01*
X81818842Y-107533584D01*
X81822270Y-107531769D01*
X82937735Y-106963411D01*
X82941224Y-106961703D01*
X84073943Y-106428685D01*
X84077499Y-106427079D01*
X85226445Y-105929886D01*
X85230007Y-105928410D01*
X86394048Y-105467534D01*
X86397626Y-105466182D01*
X87575537Y-105042108D01*
X87579219Y-105040847D01*
X88769840Y-104653991D01*
X88773535Y-104652854D01*
X89975733Y-104303583D01*
X89979525Y-104302546D01*
X91192031Y-103991228D01*
X91195803Y-103990321D01*
X92417577Y-103717223D01*
X92421434Y-103716424D01*
X93651126Y-103481848D01*
X93654893Y-103481190D01*
X94891473Y-103285335D01*
X94895268Y-103284795D01*
X96137296Y-103127891D01*
X96141120Y-103127468D01*
X97302117Y-103017722D01*
X97371818Y-103031225D01*
G37*
G04 #@! TD.AperFunction*
G04 #@! TA.AperFunction,Conductor*
G36*
X104910465Y-103127467D02*
G01*
X104914317Y-103127893D01*
X106156322Y-103284794D01*
X106160135Y-103285336D01*
X107396695Y-103481188D01*
X107400484Y-103481850D01*
X108583275Y-103707480D01*
X108630155Y-103716423D01*
X108634034Y-103717225D01*
X109855782Y-103990318D01*
X109859583Y-103991232D01*
X110652873Y-104194914D01*
X111072061Y-104302543D01*
X111075879Y-104303587D01*
X112278046Y-104652849D01*
X112281776Y-104653996D01*
X113472361Y-105040841D01*
X113476081Y-105042115D01*
X114653952Y-105466175D01*
X114657572Y-105467542D01*
X115821569Y-105928401D01*
X115825176Y-105929895D01*
X116649818Y-106286750D01*
X116974074Y-106427068D01*
X116977680Y-106428696D01*
X118005395Y-106912303D01*
X118110342Y-106961687D01*
X118113888Y-106963424D01*
X119134036Y-107483215D01*
X119229294Y-107531751D01*
X119232783Y-107533598D01*
X120329819Y-108136699D01*
X120333223Y-108138641D01*
X121410724Y-108775873D01*
X121414072Y-108777925D01*
X122414488Y-109412808D01*
X122471027Y-109448689D01*
X122474335Y-109450862D01*
X123509715Y-110154505D01*
X123512930Y-110156764D01*
X124206691Y-110660811D01*
X124525689Y-110892577D01*
X124528854Y-110894953D01*
X125518003Y-111662215D01*
X125521092Y-111664690D01*
X126485639Y-112462633D01*
X126488649Y-112465204D01*
X127391459Y-113261138D01*
X127427649Y-113293043D01*
X127430564Y-113295695D01*
X127782346Y-113626040D01*
X128343138Y-114152659D01*
X128345980Y-114155414D01*
X129231125Y-115040559D01*
X129233880Y-115043401D01*
X130049921Y-115912397D01*
X130090832Y-115955962D01*
X130093487Y-115958880D01*
X130368883Y-116271256D01*
X130921335Y-116897890D01*
X130923906Y-116900900D01*
X131721849Y-117865447D01*
X131724324Y-117868536D01*
X132491586Y-118857685D01*
X132493962Y-118860850D01*
X132720742Y-119172985D01*
X133175893Y-119799447D01*
X133229758Y-119873585D01*
X133232034Y-119876824D01*
X133935677Y-120912204D01*
X133937850Y-120915512D01*
X134608606Y-121972454D01*
X134610649Y-121975787D01*
X134770868Y-122246702D01*
X134788327Y-122315517D01*
X134765810Y-122382848D01*
X134710466Y-122427318D01*
X134639865Y-122434806D01*
X134576424Y-122402936D01*
X134573319Y-122399935D01*
X134438585Y-122265201D01*
X134438565Y-122265183D01*
X134184106Y-122056353D01*
X134184091Y-122056342D01*
X133910381Y-121873455D01*
X133620051Y-121718271D01*
X133315909Y-121592291D01*
X133315906Y-121592290D01*
X133030618Y-121505749D01*
X133000887Y-121496730D01*
X133000884Y-121496729D01*
X133000873Y-121496726D01*
X132678019Y-121432508D01*
X132678015Y-121432507D01*
X132678013Y-121432507D01*
X132678009Y-121432506D01*
X132677998Y-121432505D01*
X132350406Y-121400240D01*
X132350400Y-121400240D01*
X132021200Y-121400240D01*
X132021193Y-121400240D01*
X131693601Y-121432505D01*
X131693580Y-121432508D01*
X131370726Y-121496726D01*
X131055693Y-121592290D01*
X131055690Y-121592291D01*
X130751548Y-121718271D01*
X130461218Y-121873455D01*
X130187508Y-122056342D01*
X130187493Y-122056353D01*
X129933034Y-122265183D01*
X129933014Y-122265201D01*
X129700261Y-122497954D01*
X129700243Y-122497974D01*
X129491413Y-122752433D01*
X129491402Y-122752448D01*
X129308515Y-123026158D01*
X129153331Y-123316488D01*
X129027351Y-123620630D01*
X129027350Y-123620633D01*
X128931786Y-123935666D01*
X128867568Y-124258520D01*
X128867565Y-124258541D01*
X128835300Y-124586133D01*
X128835300Y-124915346D01*
X128867565Y-125242938D01*
X128867568Y-125242959D01*
X128931786Y-125565813D01*
X129010308Y-125824664D01*
X129010941Y-125895658D01*
X128973092Y-125955724D01*
X128908777Y-125985793D01*
X128889733Y-125987240D01*
X122439303Y-125987240D01*
X122371182Y-125967238D01*
X122350208Y-125950335D01*
X122314937Y-125915064D01*
X122314935Y-125915062D01*
X122166136Y-125815638D01*
X122049229Y-125767213D01*
X122000803Y-125747154D01*
X122000801Y-125747153D01*
X122000800Y-125747153D01*
X121912445Y-125729578D01*
X121825281Y-125712240D01*
X121825279Y-125712240D01*
X121646321Y-125712240D01*
X121646318Y-125712240D01*
X121515571Y-125738247D01*
X121470800Y-125747153D01*
X121470799Y-125747153D01*
X121470796Y-125747154D01*
X121305462Y-125815639D01*
X121156669Y-125915059D01*
X121156662Y-125915064D01*
X121030124Y-126041602D01*
X121030119Y-126041609D01*
X120930699Y-126190402D01*
X120862214Y-126355736D01*
X120827300Y-126531258D01*
X120827300Y-126710221D01*
X120844638Y-126797385D01*
X120862213Y-126885740D01*
X120930698Y-127051076D01*
X121030122Y-127199875D01*
X121156665Y-127326418D01*
X121305464Y-127425842D01*
X121470800Y-127494327D01*
X121646321Y-127529240D01*
X121646322Y-127529240D01*
X121825278Y-127529240D01*
X121825279Y-127529240D01*
X122000800Y-127494327D01*
X122166136Y-127425842D01*
X122314935Y-127326418D01*
X122350208Y-127291145D01*
X122412520Y-127257119D01*
X122439303Y-127254240D01*
X124554947Y-127254240D01*
X124623068Y-127274242D01*
X124669561Y-127327898D01*
X124679665Y-127398172D01*
X124650171Y-127462752D01*
X124617947Y-127489359D01*
X124561191Y-127522126D01*
X124561184Y-127522131D01*
X124379147Y-127661813D01*
X124379126Y-127661832D01*
X124216892Y-127824066D01*
X124216873Y-127824087D01*
X124077191Y-128006124D01*
X124077186Y-128006131D01*
X123962462Y-128204839D01*
X123962457Y-128204850D01*
X123874642Y-128416853D01*
X123815250Y-128638508D01*
X123785300Y-128866003D01*
X123785300Y-129095476D01*
X123815250Y-129322971D01*
X123815252Y-129322978D01*
X123874642Y-129544627D01*
X123962456Y-129756628D01*
X123962457Y-129756629D01*
X123962462Y-129756640D01*
X124077186Y-129955348D01*
X124077191Y-129955355D01*
X124216873Y-130137392D01*
X124216892Y-130137413D01*
X124379126Y-130299647D01*
X124379147Y-130299666D01*
X124561184Y-130439348D01*
X124561191Y-130439353D01*
X124759899Y-130554077D01*
X124759903Y-130554078D01*
X124759912Y-130554084D01*
X124971913Y-130641898D01*
X125193562Y-130701288D01*
X125193566Y-130701288D01*
X125193568Y-130701289D01*
X125252198Y-130709007D01*
X125421066Y-130731240D01*
X125421073Y-130731240D01*
X125650527Y-130731240D01*
X125650534Y-130731240D01*
X125856145Y-130704170D01*
X125878031Y-130701289D01*
X125878031Y-130701288D01*
X125878038Y-130701288D01*
X126099687Y-130641898D01*
X126311688Y-130554084D01*
X126510412Y-130439351D01*
X126692461Y-130299659D01*
X126854719Y-130137401D01*
X126994411Y-129955352D01*
X127109144Y-129756628D01*
X127196958Y-129544627D01*
X127256348Y-129322978D01*
X127286300Y-129095474D01*
X127286300Y-128866006D01*
X127256348Y-128638502D01*
X127196958Y-128416853D01*
X127109144Y-128204852D01*
X127109138Y-128204843D01*
X127109137Y-128204839D01*
X126994413Y-128006131D01*
X126994408Y-128006124D01*
X126854726Y-127824087D01*
X126854707Y-127824066D01*
X126692473Y-127661832D01*
X126692452Y-127661813D01*
X126510415Y-127522131D01*
X126510408Y-127522126D01*
X126453653Y-127489359D01*
X126404660Y-127437977D01*
X126391224Y-127368263D01*
X126417610Y-127302352D01*
X126475442Y-127261170D01*
X126516653Y-127254240D01*
X128598204Y-127254240D01*
X128666325Y-127274242D01*
X128687299Y-127291145D01*
X131917395Y-130521241D01*
X131951421Y-130583553D01*
X131954300Y-130610336D01*
X131954300Y-139953237D01*
X131934298Y-140021358D01*
X131917395Y-140042332D01*
X131882124Y-140077602D01*
X131882119Y-140077609D01*
X131782699Y-140226402D01*
X131714214Y-140391736D01*
X131679300Y-140567258D01*
X131679300Y-140567261D01*
X131679300Y-140746219D01*
X131714213Y-140921740D01*
X131782698Y-141087076D01*
X131882122Y-141235875D01*
X132008665Y-141362418D01*
X132157464Y-141461842D01*
X132322800Y-141530327D01*
X132498321Y-141565240D01*
X132498322Y-141565240D01*
X132677278Y-141565240D01*
X132677279Y-141565240D01*
X132852800Y-141530327D01*
X133018136Y-141461842D01*
X133166935Y-141362418D01*
X133293478Y-141235875D01*
X133392902Y-141087076D01*
X133461387Y-140921740D01*
X133496300Y-140746219D01*
X133496300Y-140567261D01*
X133461387Y-140391740D01*
X133392902Y-140226404D01*
X133293478Y-140077605D01*
X133258205Y-140042332D01*
X133224179Y-139980020D01*
X133221300Y-139953237D01*
X133221300Y-135200369D01*
X133241302Y-135132248D01*
X133294958Y-135085755D01*
X133365232Y-135075651D01*
X133429812Y-135105145D01*
X133447262Y-135123665D01*
X133538510Y-135242582D01*
X133538529Y-135242603D01*
X133723936Y-135428010D01*
X133723957Y-135428029D01*
X133931994Y-135587662D01*
X133932000Y-135587666D01*
X134159090Y-135718776D01*
X134159094Y-135718777D01*
X134159103Y-135718783D01*
X134401381Y-135819138D01*
X134654684Y-135887010D01*
X134654690Y-135887010D01*
X134654691Y-135887011D01*
X134679700Y-135890303D01*
X134914680Y-135921240D01*
X134914687Y-135921240D01*
X135176913Y-135921240D01*
X135176920Y-135921240D01*
X135436916Y-135887010D01*
X135690219Y-135819138D01*
X135932497Y-135718783D01*
X136159603Y-135587664D01*
X136367651Y-135428022D01*
X136553082Y-135242591D01*
X136712724Y-135034543D01*
X136843843Y-134807437D01*
X136944198Y-134565159D01*
X137012070Y-134311856D01*
X137046300Y-134051860D01*
X137046300Y-133789620D01*
X137012070Y-133529624D01*
X136944198Y-133276321D01*
X136843843Y-133034043D01*
X136843837Y-133034034D01*
X136843836Y-133034030D01*
X136712724Y-132806937D01*
X136712722Y-132806934D01*
X136553089Y-132598897D01*
X136553070Y-132598876D01*
X136367663Y-132413469D01*
X136367642Y-132413450D01*
X136159605Y-132253817D01*
X136159599Y-132253813D01*
X135932509Y-132122703D01*
X135932501Y-132122699D01*
X135932497Y-132122697D01*
X135690219Y-132022342D01*
X135436916Y-131954470D01*
X135436914Y-131954469D01*
X135436908Y-131954468D01*
X135176921Y-131920240D01*
X135176920Y-131920240D01*
X134914680Y-131920240D01*
X134914678Y-131920240D01*
X134654691Y-131954468D01*
X134401381Y-132022342D01*
X134159101Y-132122698D01*
X134159090Y-132122703D01*
X133932000Y-132253813D01*
X133931994Y-132253817D01*
X133723957Y-132413450D01*
X133723936Y-132413469D01*
X133538529Y-132598876D01*
X133538516Y-132598891D01*
X133447262Y-132717815D01*
X133389924Y-132759682D01*
X133319053Y-132763903D01*
X133257150Y-132729138D01*
X133223869Y-132666425D01*
X133221300Y-132641110D01*
X133221300Y-130233349D01*
X133221299Y-130233345D01*
X133202217Y-130137413D01*
X133196955Y-130110957D01*
X133182968Y-130077189D01*
X133149201Y-129995667D01*
X133079872Y-129891909D01*
X131442222Y-128254259D01*
X131408196Y-128191947D01*
X131413261Y-128121132D01*
X131455808Y-128064296D01*
X131522328Y-128039485D01*
X131555896Y-128041584D01*
X131693587Y-128068973D01*
X132021200Y-128101240D01*
X132021209Y-128101240D01*
X132350391Y-128101240D01*
X132350400Y-128101240D01*
X132678013Y-128068973D01*
X132932859Y-128018281D01*
X133000873Y-128004753D01*
X133000875Y-128004752D01*
X133000887Y-128004750D01*
X133315911Y-127909188D01*
X133620051Y-127783209D01*
X133910379Y-127628026D01*
X134184098Y-127445133D01*
X134438572Y-127236291D01*
X134671351Y-127003512D01*
X134880193Y-126749038D01*
X135063086Y-126475319D01*
X135218269Y-126184991D01*
X135344248Y-125880851D01*
X135439810Y-125565827D01*
X135504033Y-125242953D01*
X135536300Y-124915340D01*
X135536300Y-124586140D01*
X135504033Y-124258527D01*
X135439810Y-123935653D01*
X135429024Y-123900099D01*
X135428391Y-123829107D01*
X135466239Y-123769040D01*
X135530554Y-123738972D01*
X135600916Y-123748448D01*
X135654984Y-123794459D01*
X135660014Y-123802823D01*
X135852936Y-124153747D01*
X135854788Y-124157245D01*
X136423111Y-125272642D01*
X136424852Y-125276197D01*
X136957842Y-126408858D01*
X136959471Y-126412465D01*
X137456633Y-127561338D01*
X137458148Y-127564995D01*
X137560727Y-127824079D01*
X137883179Y-128638502D01*
X137918981Y-128728926D01*
X137920380Y-128732629D01*
X138344420Y-129910446D01*
X138345702Y-129914191D01*
X138732534Y-131104736D01*
X138733698Y-131108519D01*
X139082952Y-132310660D01*
X139083996Y-132314478D01*
X139395301Y-133526932D01*
X139396226Y-133530781D01*
X139669314Y-134752508D01*
X139670116Y-134756384D01*
X139853703Y-135718776D01*
X139903218Y-135978343D01*
X139904679Y-135985999D01*
X139905360Y-135989898D01*
X140101195Y-137226352D01*
X140101752Y-137230271D01*
X140258641Y-138472180D01*
X140259076Y-138476114D01*
X140376887Y-139722424D01*
X140377197Y-139726370D01*
X140455797Y-140975690D01*
X140455984Y-140979644D01*
X140495306Y-142230875D01*
X140495368Y-142234833D01*
X140495368Y-143486646D01*
X140495306Y-143490604D01*
X140455984Y-144741835D01*
X140455797Y-144745789D01*
X140377197Y-145995109D01*
X140376887Y-145999055D01*
X140259076Y-147245365D01*
X140258641Y-147249299D01*
X140101752Y-148491208D01*
X140101195Y-148495127D01*
X139905360Y-149731581D01*
X139904679Y-149735480D01*
X139670116Y-150965095D01*
X139669314Y-150968971D01*
X139396226Y-152190698D01*
X139395301Y-152194547D01*
X139083996Y-153407001D01*
X139082952Y-153410819D01*
X138733698Y-154612960D01*
X138732534Y-154616743D01*
X138345702Y-155807288D01*
X138344420Y-155811033D01*
X137920380Y-156988850D01*
X137918981Y-156992553D01*
X137458148Y-158156484D01*
X137456633Y-158160141D01*
X136959471Y-159309014D01*
X136957842Y-159312621D01*
X136424852Y-160445282D01*
X136423111Y-160448837D01*
X135854788Y-161564234D01*
X135852936Y-161567732D01*
X135685503Y-161872291D01*
X135635157Y-161922350D01*
X135565740Y-161937243D01*
X135499291Y-161912242D01*
X135456907Y-161855285D01*
X135451509Y-161787010D01*
X135504033Y-161522953D01*
X135536300Y-161195340D01*
X135536300Y-160866140D01*
X135504033Y-160538527D01*
X135439810Y-160215653D01*
X135344248Y-159900629D01*
X135218269Y-159596489D01*
X135063086Y-159306161D01*
X134880193Y-159032442D01*
X134810287Y-158947262D01*
X134671356Y-158777974D01*
X134671338Y-158777954D01*
X134438585Y-158545201D01*
X134438565Y-158545183D01*
X134184106Y-158336353D01*
X134184091Y-158336342D01*
X133910381Y-158153455D01*
X133620051Y-157998271D01*
X133315909Y-157872291D01*
X133315906Y-157872290D01*
X133107393Y-157809038D01*
X133000887Y-157776730D01*
X133000884Y-157776729D01*
X133000873Y-157776726D01*
X132678019Y-157712508D01*
X132678015Y-157712507D01*
X132678013Y-157712507D01*
X132678009Y-157712506D01*
X132677998Y-157712505D01*
X132350406Y-157680240D01*
X132350400Y-157680240D01*
X132021200Y-157680240D01*
X132021193Y-157680240D01*
X131693601Y-157712505D01*
X131693580Y-157712508D01*
X131370726Y-157776726D01*
X131055693Y-157872290D01*
X131055690Y-157872291D01*
X130751548Y-157998271D01*
X130461218Y-158153455D01*
X130187508Y-158336342D01*
X130187493Y-158336353D01*
X129933034Y-158545183D01*
X129933014Y-158545201D01*
X129700261Y-158777954D01*
X129700243Y-158777974D01*
X129491413Y-159032433D01*
X129491402Y-159032448D01*
X129308515Y-159306158D01*
X129153331Y-159596488D01*
X129027351Y-159900630D01*
X129027350Y-159900633D01*
X128931786Y-160215666D01*
X128867568Y-160538520D01*
X128867565Y-160538541D01*
X128835300Y-160866133D01*
X128835300Y-161195346D01*
X128867565Y-161522938D01*
X128867568Y-161522959D01*
X128931786Y-161845813D01*
X128931789Y-161845824D01*
X128931790Y-161845827D01*
X128954922Y-161922081D01*
X129027350Y-162160846D01*
X129027351Y-162160849D01*
X129153331Y-162464991D01*
X129308515Y-162755321D01*
X129491402Y-163029031D01*
X129491413Y-163029046D01*
X129700243Y-163283505D01*
X129700261Y-163283525D01*
X129933014Y-163516278D01*
X129933024Y-163516287D01*
X129933028Y-163516291D01*
X130187502Y-163725133D01*
X130461221Y-163908026D01*
X130751549Y-164063209D01*
X131055689Y-164189188D01*
X131370713Y-164284750D01*
X131370722Y-164284751D01*
X131370726Y-164284753D01*
X131462362Y-164302980D01*
X131693587Y-164348973D01*
X132021200Y-164381240D01*
X132021209Y-164381240D01*
X132350391Y-164381240D01*
X132350400Y-164381240D01*
X132678013Y-164348973D01*
X132932859Y-164298281D01*
X133000873Y-164284753D01*
X133000875Y-164284752D01*
X133000887Y-164284750D01*
X133315911Y-164189188D01*
X133620051Y-164063209D01*
X133910379Y-163908026D01*
X134184098Y-163725133D01*
X134438572Y-163516291D01*
X134486478Y-163468384D01*
X134504226Y-163458693D01*
X134519011Y-163444889D01*
X134534750Y-163442026D01*
X134548788Y-163434361D01*
X134568961Y-163435803D01*
X134588862Y-163432184D01*
X134603648Y-163438284D01*
X134619603Y-163439425D01*
X134635793Y-163451544D01*
X134654493Y-163459259D01*
X134663635Y-163472386D01*
X134676439Y-163481971D01*
X134683507Y-163500920D01*
X134695067Y-163517519D01*
X134695660Y-163533503D01*
X134701251Y-163548491D01*
X134696951Y-163568256D01*
X134697702Y-163588467D01*
X134686812Y-163614864D01*
X134686160Y-163617865D01*
X134684030Y-163621612D01*
X134622809Y-163725133D01*
X134610675Y-163745650D01*
X134608606Y-163749025D01*
X133937850Y-164805967D01*
X133935677Y-164809275D01*
X133232034Y-165844655D01*
X133229758Y-165847894D01*
X132493962Y-166860629D01*
X132491586Y-166863794D01*
X131724324Y-167852943D01*
X131721849Y-167856032D01*
X130923906Y-168820579D01*
X130921335Y-168823589D01*
X130093496Y-169762589D01*
X130090832Y-169765517D01*
X129233880Y-170678078D01*
X129231125Y-170680920D01*
X128345980Y-171566065D01*
X128343138Y-171568820D01*
X127430577Y-172425772D01*
X127427649Y-172428436D01*
X126488649Y-173256275D01*
X126485639Y-173258846D01*
X125521092Y-174056789D01*
X125518003Y-174059264D01*
X124528854Y-174826526D01*
X124525689Y-174828902D01*
X123512954Y-175564698D01*
X123509715Y-175566974D01*
X122474335Y-176270617D01*
X122471027Y-176272790D01*
X121414085Y-176943546D01*
X121410710Y-176945614D01*
X120333240Y-177582828D01*
X120329802Y-177584790D01*
X119232792Y-178187876D01*
X119229294Y-178189728D01*
X118113897Y-178758051D01*
X118110342Y-178759792D01*
X116977681Y-179292782D01*
X116974074Y-179294411D01*
X115825201Y-179791573D01*
X115821544Y-179793088D01*
X114657613Y-180253921D01*
X114653910Y-180255320D01*
X113476093Y-180679360D01*
X113472348Y-180680642D01*
X112281803Y-181067474D01*
X112278020Y-181068638D01*
X111075879Y-181417892D01*
X111072061Y-181418936D01*
X109859607Y-181730241D01*
X109855758Y-181731166D01*
X108634031Y-182004254D01*
X108630155Y-182005056D01*
X107400540Y-182239619D01*
X107396641Y-182240300D01*
X106160187Y-182436135D01*
X106156268Y-182436692D01*
X104914359Y-182593581D01*
X104910424Y-182594016D01*
X104872433Y-182597607D01*
X104802732Y-182584104D01*
X104751397Y-182535062D01*
X104734725Y-182466050D01*
X104735298Y-182458694D01*
X104736300Y-182449378D01*
X104736300Y-180652102D01*
X104736299Y-180652090D01*
X104729790Y-180591543D01*
X104729788Y-180591535D01*
X104678689Y-180454537D01*
X104678687Y-180454532D01*
X104591061Y-180337478D01*
X104474007Y-180249852D01*
X104474002Y-180249850D01*
X104337004Y-180198751D01*
X104336996Y-180198749D01*
X104276449Y-180192240D01*
X104276438Y-180192240D01*
X102479162Y-180192240D01*
X102479150Y-180192240D01*
X102418603Y-180198749D01*
X102418595Y-180198751D01*
X102281597Y-180249850D01*
X102281596Y-180249850D01*
X102275189Y-180254647D01*
X102258542Y-180267108D01*
X102192024Y-180291919D01*
X102183034Y-180292240D01*
X101380692Y-180292240D01*
X101341756Y-180286073D01*
X101155920Y-180225692D01*
X101155923Y-180225692D01*
X101116601Y-180219464D01*
X100944716Y-180192240D01*
X100730884Y-180192240D01*
X100519684Y-180225691D01*
X100519678Y-180225692D01*
X100333844Y-180286073D01*
X100294908Y-180292240D01*
X98871278Y-180292240D01*
X98803157Y-180272238D01*
X98782187Y-180255339D01*
X98267659Y-179740811D01*
X98158657Y-179661616D01*
X98143623Y-179648775D01*
X77931205Y-159436357D01*
X77897179Y-159374045D01*
X77894300Y-159347262D01*
X77894300Y-134994218D01*
X77914302Y-134926097D01*
X77931205Y-134905123D01*
X79046710Y-133789618D01*
X83045300Y-133789618D01*
X83045300Y-134051861D01*
X83079528Y-134311848D01*
X83079529Y-134311854D01*
X83079530Y-134311856D01*
X83147402Y-134565159D01*
X83247757Y-134807437D01*
X83247758Y-134807438D01*
X83247763Y-134807449D01*
X83378873Y-135034539D01*
X83378877Y-135034545D01*
X83538510Y-135242582D01*
X83538529Y-135242603D01*
X83723936Y-135428010D01*
X83723957Y-135428029D01*
X83931994Y-135587662D01*
X83932000Y-135587666D01*
X84159090Y-135718776D01*
X84159094Y-135718777D01*
X84159103Y-135718783D01*
X84401381Y-135819138D01*
X84654684Y-135887010D01*
X84654690Y-135887010D01*
X84654691Y-135887011D01*
X84679700Y-135890303D01*
X84914680Y-135921240D01*
X84914687Y-135921240D01*
X85176913Y-135921240D01*
X85176920Y-135921240D01*
X85436916Y-135887010D01*
X85690219Y-135819138D01*
X85932497Y-135718783D01*
X86159603Y-135587664D01*
X86367651Y-135428022D01*
X86553082Y-135242591D01*
X86712724Y-135034543D01*
X86843843Y-134807437D01*
X86944198Y-134565159D01*
X87012070Y-134311856D01*
X87046300Y-134051860D01*
X87046300Y-133789620D01*
X87012070Y-133529624D01*
X86944198Y-133276321D01*
X86843843Y-133034043D01*
X86843837Y-133034034D01*
X86843836Y-133034030D01*
X86712724Y-132806937D01*
X86712722Y-132806934D01*
X86553089Y-132598897D01*
X86553070Y-132598876D01*
X86367663Y-132413469D01*
X86367642Y-132413450D01*
X86159605Y-132253817D01*
X86159599Y-132253813D01*
X85932509Y-132122703D01*
X85932501Y-132122699D01*
X85932497Y-132122697D01*
X85690219Y-132022342D01*
X85436916Y-131954470D01*
X85436914Y-131954469D01*
X85436908Y-131954468D01*
X85176921Y-131920240D01*
X85176920Y-131920240D01*
X84914680Y-131920240D01*
X84914678Y-131920240D01*
X84654691Y-131954468D01*
X84401381Y-132022342D01*
X84159101Y-132122698D01*
X84159090Y-132122703D01*
X83932000Y-132253813D01*
X83931994Y-132253817D01*
X83723957Y-132413450D01*
X83723936Y-132413469D01*
X83538529Y-132598876D01*
X83538510Y-132598897D01*
X83378877Y-132806934D01*
X83378876Y-132806937D01*
X83247763Y-133034030D01*
X83247758Y-133034041D01*
X83147402Y-133276321D01*
X83079528Y-133529631D01*
X83045300Y-133789618D01*
X79046710Y-133789618D01*
X81974310Y-130862018D01*
X89027300Y-130862018D01*
X89027300Y-131099462D01*
X89064444Y-131333981D01*
X89064445Y-131333986D01*
X89137816Y-131559798D01*
X89137818Y-131559803D01*
X89245615Y-131771367D01*
X89385180Y-131963462D01*
X89385182Y-131963464D01*
X89385184Y-131963467D01*
X89553072Y-132131355D01*
X89553075Y-132131357D01*
X89553078Y-132131360D01*
X89745173Y-132270925D01*
X89956737Y-132378722D01*
X90182559Y-132452096D01*
X90195364Y-132454123D01*
X90259515Y-132484533D01*
X90264749Y-132489477D01*
X91440395Y-133665123D01*
X91474421Y-133727435D01*
X91477300Y-133754218D01*
X91477300Y-143623962D01*
X91491730Y-143715071D01*
X91508289Y-143819621D01*
X91569501Y-144008012D01*
X91569505Y-144008020D01*
X91574141Y-144017118D01*
X91574144Y-144017123D01*
X91659435Y-144184516D01*
X91775871Y-144344776D01*
X91775874Y-144344779D01*
X102588307Y-155157211D01*
X102622333Y-155219523D01*
X102625212Y-155246306D01*
X102625212Y-164173275D01*
X102656200Y-164368929D01*
X102656201Y-164368934D01*
X102717413Y-164557324D01*
X102717414Y-164557327D01*
X102735910Y-164593627D01*
X102741318Y-164604240D01*
X102807345Y-164733827D01*
X102923782Y-164894087D01*
X102923784Y-164894089D01*
X102923787Y-164894093D01*
X106976839Y-168947145D01*
X107010865Y-169009457D01*
X107005800Y-169080272D01*
X106963253Y-169137108D01*
X106896733Y-169161919D01*
X106887744Y-169162240D01*
X104414856Y-169162240D01*
X104346735Y-169142238D01*
X104325761Y-169125335D01*
X99831205Y-164630779D01*
X99797179Y-164568467D01*
X99794300Y-164541684D01*
X99794300Y-154855917D01*
X99814302Y-154787796D01*
X99818366Y-154781854D01*
X99825981Y-154771372D01*
X99825985Y-154771367D01*
X99933782Y-154559803D01*
X100007156Y-154333981D01*
X100044300Y-154099462D01*
X100044300Y-153862018D01*
X100007156Y-153627499D01*
X99933782Y-153401677D01*
X99825985Y-153190113D01*
X99686420Y-152998018D01*
X99686417Y-152998015D01*
X99686415Y-152998012D01*
X99518527Y-152830124D01*
X99518524Y-152830122D01*
X99518522Y-152830120D01*
X99326427Y-152690555D01*
X99114863Y-152582758D01*
X99114860Y-152582757D01*
X99114858Y-152582756D01*
X98889046Y-152509385D01*
X98889042Y-152509384D01*
X98889041Y-152509384D01*
X98654522Y-152472240D01*
X98417078Y-152472240D01*
X98182559Y-152509384D01*
X98182553Y-152509385D01*
X97956741Y-152582756D01*
X97956735Y-152582759D01*
X97745169Y-152690557D01*
X97553075Y-152830122D01*
X97553072Y-152830124D01*
X97385184Y-152998012D01*
X97385182Y-152998015D01*
X97245617Y-153190109D01*
X97137819Y-153401675D01*
X97137816Y-153401681D01*
X97064445Y-153627493D01*
X97064444Y-153627498D01*
X97064444Y-153627499D01*
X97027300Y-153862018D01*
X97027300Y-154099462D01*
X97064444Y-154333981D01*
X97064445Y-154333986D01*
X97137816Y-154559798D01*
X97137818Y-154559803D01*
X97223963Y-154728872D01*
X97245618Y-154771372D01*
X97253234Y-154781854D01*
X97277094Y-154848721D01*
X97277300Y-154855917D01*
X97277300Y-164178262D01*
X97257298Y-164246383D01*
X97203642Y-164292876D01*
X97133368Y-164302980D01*
X97068788Y-164273486D01*
X97062205Y-164267357D01*
X91831205Y-159036357D01*
X91797179Y-158974045D01*
X91794300Y-158947262D01*
X91794300Y-155866003D01*
X92785300Y-155866003D01*
X92785300Y-156095476D01*
X92815250Y-156322971D01*
X92815252Y-156322978D01*
X92874642Y-156544627D01*
X92962456Y-156756628D01*
X92962457Y-156756629D01*
X92962462Y-156756640D01*
X93077186Y-156955348D01*
X93077191Y-156955355D01*
X93216873Y-157137392D01*
X93216892Y-157137413D01*
X93379126Y-157299647D01*
X93379147Y-157299666D01*
X93561184Y-157439348D01*
X93561191Y-157439353D01*
X93759899Y-157554077D01*
X93759903Y-157554078D01*
X93759912Y-157554084D01*
X93971913Y-157641898D01*
X94193562Y-157701288D01*
X94193566Y-157701288D01*
X94193568Y-157701289D01*
X94252198Y-157709007D01*
X94421066Y-157731240D01*
X94421073Y-157731240D01*
X94650527Y-157731240D01*
X94650534Y-157731240D01*
X94856145Y-157704170D01*
X94878031Y-157701289D01*
X94878031Y-157701288D01*
X94878038Y-157701288D01*
X95099687Y-157641898D01*
X95311688Y-157554084D01*
X95510412Y-157439351D01*
X95692461Y-157299659D01*
X95854719Y-157137401D01*
X95994411Y-156955352D01*
X96109144Y-156756628D01*
X96196958Y-156544627D01*
X96256348Y-156322978D01*
X96286300Y-156095474D01*
X96286300Y-155866006D01*
X96256348Y-155638502D01*
X96196958Y-155416853D01*
X96109144Y-155204852D01*
X96109138Y-155204843D01*
X96109137Y-155204839D01*
X95994413Y-155006131D01*
X95994408Y-155006124D01*
X95854726Y-154824087D01*
X95854707Y-154824066D01*
X95692473Y-154661832D01*
X95692452Y-154661813D01*
X95510415Y-154522131D01*
X95510408Y-154522126D01*
X95311700Y-154407402D01*
X95311692Y-154407398D01*
X95311688Y-154407396D01*
X95099687Y-154319582D01*
X94878038Y-154260192D01*
X94878031Y-154260190D01*
X94650536Y-154230240D01*
X94650534Y-154230240D01*
X94421066Y-154230240D01*
X94421063Y-154230240D01*
X94193568Y-154260190D01*
X93971913Y-154319582D01*
X93759910Y-154407397D01*
X93759899Y-154407402D01*
X93561191Y-154522126D01*
X93561184Y-154522131D01*
X93379147Y-154661813D01*
X93379126Y-154661832D01*
X93216892Y-154824066D01*
X93216873Y-154824087D01*
X93077191Y-155006124D01*
X93077186Y-155006131D01*
X92962462Y-155204839D01*
X92962457Y-155204850D01*
X92962456Y-155204852D01*
X92945285Y-155246306D01*
X92874642Y-155416853D01*
X92815250Y-155638508D01*
X92785300Y-155866003D01*
X91794300Y-155866003D01*
X91794300Y-154855917D01*
X91814302Y-154787796D01*
X91818366Y-154781854D01*
X91825981Y-154771372D01*
X91825985Y-154771367D01*
X91933782Y-154559803D01*
X92007156Y-154333981D01*
X92044300Y-154099462D01*
X92044300Y-153862018D01*
X92007156Y-153627499D01*
X91933782Y-153401677D01*
X91825985Y-153190113D01*
X91686420Y-152998018D01*
X91686417Y-152998015D01*
X91686415Y-152998012D01*
X91518527Y-152830124D01*
X91518524Y-152830122D01*
X91518522Y-152830120D01*
X91326427Y-152690555D01*
X91114863Y-152582758D01*
X91114860Y-152582757D01*
X91114858Y-152582756D01*
X90889046Y-152509385D01*
X90889042Y-152509384D01*
X90889041Y-152509384D01*
X90654522Y-152472240D01*
X90417078Y-152472240D01*
X90182559Y-152509384D01*
X90182553Y-152509385D01*
X89956741Y-152582756D01*
X89956735Y-152582759D01*
X89745169Y-152690557D01*
X89553075Y-152830122D01*
X89553072Y-152830124D01*
X89385184Y-152998012D01*
X89385182Y-152998015D01*
X89245617Y-153190109D01*
X89137819Y-153401675D01*
X89137816Y-153401681D01*
X89064445Y-153627493D01*
X89064444Y-153627498D01*
X89064444Y-153627499D01*
X89027300Y-153862018D01*
X89027300Y-154099462D01*
X89064444Y-154333981D01*
X89064445Y-154333986D01*
X89137816Y-154559798D01*
X89137818Y-154559803D01*
X89223963Y-154728872D01*
X89245618Y-154771372D01*
X89253234Y-154781854D01*
X89277094Y-154848721D01*
X89277300Y-154855917D01*
X89277300Y-159619786D01*
X89308288Y-159815440D01*
X89369502Y-160003837D01*
X89459434Y-160180338D01*
X89459436Y-160180341D01*
X89575871Y-160340600D01*
X89575874Y-160340603D01*
X91519003Y-162283731D01*
X93425870Y-164190598D01*
X102875870Y-173640598D01*
X103015942Y-173780670D01*
X103176202Y-173897106D01*
X103352703Y-173987038D01*
X103541100Y-174048252D01*
X103736754Y-174079240D01*
X103934846Y-174079240D01*
X111843770Y-174079240D01*
X111911891Y-174099242D01*
X111917831Y-174103304D01*
X111923791Y-174107634D01*
X112114317Y-174204712D01*
X112317678Y-174270787D01*
X112317679Y-174270787D01*
X112317684Y-174270789D01*
X112528884Y-174304240D01*
X112528887Y-174304240D01*
X112742713Y-174304240D01*
X112742716Y-174304240D01*
X112953916Y-174270789D01*
X113157283Y-174204712D01*
X113347809Y-174107634D01*
X113520804Y-173981946D01*
X113672006Y-173830744D01*
X113783864Y-173676783D01*
X113840086Y-173633430D01*
X113910822Y-173627355D01*
X113973614Y-173660486D01*
X113987734Y-173676781D01*
X114099594Y-173830744D01*
X114099596Y-173830746D01*
X114099598Y-173830749D01*
X114250790Y-173981941D01*
X114250793Y-173981943D01*
X114250796Y-173981946D01*
X114423791Y-174107634D01*
X114614317Y-174204712D01*
X114817678Y-174270787D01*
X114817679Y-174270787D01*
X114817684Y-174270789D01*
X115028884Y-174304240D01*
X115028887Y-174304240D01*
X115242713Y-174304240D01*
X115242716Y-174304240D01*
X115453916Y-174270789D01*
X115657283Y-174204712D01*
X115847809Y-174107634D01*
X116020804Y-173981946D01*
X116172006Y-173830744D01*
X116283864Y-173676783D01*
X116340086Y-173633430D01*
X116410822Y-173627355D01*
X116473614Y-173660486D01*
X116487734Y-173676781D01*
X116599594Y-173830744D01*
X116599596Y-173830746D01*
X116599598Y-173830749D01*
X116750790Y-173981941D01*
X116750793Y-173981943D01*
X116750796Y-173981946D01*
X116923791Y-174107634D01*
X117114317Y-174204712D01*
X117317678Y-174270787D01*
X117317679Y-174270787D01*
X117317684Y-174270789D01*
X117528884Y-174304240D01*
X117528887Y-174304240D01*
X117742713Y-174304240D01*
X117742716Y-174304240D01*
X117953916Y-174270789D01*
X118157283Y-174204712D01*
X118347809Y-174107634D01*
X118520804Y-173981946D01*
X118651116Y-173851633D01*
X118713426Y-173817610D01*
X118784242Y-173822674D01*
X118841078Y-173865221D01*
X118847451Y-173874583D01*
X118936770Y-174019392D01*
X118936775Y-174019398D01*
X119062141Y-174144764D01*
X119062147Y-174144769D01*
X119062148Y-174144770D01*
X119213062Y-174237855D01*
X119381374Y-174293627D01*
X119485255Y-174304240D01*
X120786344Y-174304239D01*
X120890226Y-174293627D01*
X121058538Y-174237855D01*
X121209452Y-174144770D01*
X121334830Y-174019392D01*
X121427915Y-173868478D01*
X121483687Y-173700166D01*
X121494300Y-173596285D01*
X121494299Y-172045196D01*
X121483687Y-171941314D01*
X121483686Y-171941310D01*
X121483686Y-171941308D01*
X121427915Y-171773002D01*
X121413059Y-171748917D01*
X121394300Y-171682770D01*
X121394300Y-170016120D01*
X121394300Y-170016117D01*
X121363312Y-169820463D01*
X121332632Y-169726040D01*
X121302099Y-169632067D01*
X121212167Y-169455566D01*
X121095730Y-169295305D01*
X121095728Y-169295302D01*
X117460237Y-165659811D01*
X117299978Y-165543376D01*
X117299977Y-165543375D01*
X117299975Y-165543374D01*
X117123474Y-165453442D01*
X116935077Y-165392228D01*
X116739423Y-165361240D01*
X116739420Y-165361240D01*
X109408277Y-165361240D01*
X109340156Y-165341238D01*
X109319182Y-165324335D01*
X106880117Y-162885269D01*
X106846091Y-162822957D01*
X106843212Y-162796174D01*
X106843212Y-154789618D01*
X108045300Y-154789618D01*
X108045300Y-155051861D01*
X108079528Y-155311848D01*
X108079529Y-155311854D01*
X108079530Y-155311856D01*
X108147402Y-155565159D01*
X108247757Y-155807437D01*
X108247758Y-155807438D01*
X108247763Y-155807449D01*
X108378873Y-156034539D01*
X108378877Y-156034545D01*
X108538510Y-156242582D01*
X108538529Y-156242603D01*
X108723936Y-156428010D01*
X108723957Y-156428029D01*
X108931994Y-156587662D01*
X108932000Y-156587666D01*
X109159090Y-156718776D01*
X109159094Y-156718777D01*
X109159103Y-156718783D01*
X109401381Y-156819138D01*
X109654684Y-156887010D01*
X109654690Y-156887010D01*
X109654691Y-156887011D01*
X109679700Y-156890303D01*
X109914680Y-156921240D01*
X109914687Y-156921240D01*
X110176913Y-156921240D01*
X110176920Y-156921240D01*
X110436916Y-156887010D01*
X110690219Y-156819138D01*
X110932497Y-156718783D01*
X111159603Y-156587664D01*
X111367651Y-156428022D01*
X111553082Y-156242591D01*
X111712724Y-156034543D01*
X111843843Y-155807437D01*
X111944198Y-155565159D01*
X112012070Y-155311856D01*
X112025378Y-155210775D01*
X112054100Y-155145848D01*
X112113366Y-155106756D01*
X112184357Y-155105911D01*
X112244536Y-155143581D01*
X112274795Y-155207806D01*
X112276300Y-155227221D01*
X112276300Y-161511240D01*
X112256298Y-161579361D01*
X112202642Y-161625854D01*
X112150302Y-161637240D01*
X112085256Y-161637240D01*
X111981374Y-161647852D01*
X111813061Y-161703625D01*
X111662147Y-161796710D01*
X111662141Y-161796715D01*
X111536775Y-161922081D01*
X111536770Y-161922087D01*
X111443685Y-162073002D01*
X111387913Y-162241312D01*
X111387912Y-162241319D01*
X111377300Y-162345186D01*
X111377300Y-163896284D01*
X111387912Y-164000165D01*
X111443685Y-164168478D01*
X111536770Y-164319392D01*
X111536775Y-164319398D01*
X111662141Y-164444764D01*
X111662147Y-164444769D01*
X111662148Y-164444770D01*
X111813062Y-164537855D01*
X111981374Y-164593627D01*
X112085255Y-164604240D01*
X113386344Y-164604239D01*
X113490226Y-164593627D01*
X113658538Y-164537855D01*
X113809452Y-164444770D01*
X113934830Y-164319392D01*
X114024149Y-164174582D01*
X114076934Y-164127105D01*
X114147008Y-164115702D01*
X114212124Y-164143994D01*
X114220484Y-164151635D01*
X114350790Y-164281941D01*
X114350793Y-164281943D01*
X114350796Y-164281946D01*
X114523791Y-164407634D01*
X114714317Y-164504712D01*
X114917678Y-164570787D01*
X114917679Y-164570787D01*
X114917684Y-164570789D01*
X115128884Y-164604240D01*
X115128887Y-164604240D01*
X115342713Y-164604240D01*
X115342716Y-164604240D01*
X115553916Y-164570789D01*
X115757283Y-164504712D01*
X115947809Y-164407634D01*
X116120804Y-164281946D01*
X116272006Y-164130744D01*
X116383864Y-163976783D01*
X116440086Y-163933430D01*
X116510822Y-163927355D01*
X116573614Y-163960486D01*
X116587734Y-163976781D01*
X116699594Y-164130744D01*
X116699596Y-164130746D01*
X116699598Y-164130749D01*
X116850790Y-164281941D01*
X116850793Y-164281943D01*
X116850796Y-164281946D01*
X117023791Y-164407634D01*
X117214317Y-164504712D01*
X117417678Y-164570787D01*
X117417679Y-164570787D01*
X117417684Y-164570789D01*
X117628884Y-164604240D01*
X117628887Y-164604240D01*
X117842713Y-164604240D01*
X117842716Y-164604240D01*
X118053916Y-164570789D01*
X118257283Y-164504712D01*
X118447809Y-164407634D01*
X118620804Y-164281946D01*
X118772006Y-164130744D01*
X118883864Y-163976783D01*
X118940086Y-163933430D01*
X119010822Y-163927355D01*
X119073614Y-163960486D01*
X119087734Y-163976781D01*
X119199594Y-164130744D01*
X119199596Y-164130746D01*
X119199598Y-164130749D01*
X119350790Y-164281941D01*
X119350793Y-164281943D01*
X119350796Y-164281946D01*
X119523791Y-164407634D01*
X119714317Y-164504712D01*
X119917678Y-164570787D01*
X119917679Y-164570787D01*
X119917684Y-164570789D01*
X120128884Y-164604240D01*
X120128887Y-164604240D01*
X120342713Y-164604240D01*
X120342716Y-164604240D01*
X120553916Y-164570789D01*
X120757283Y-164504712D01*
X120947809Y-164407634D01*
X120953769Y-164403304D01*
X121020637Y-164379445D01*
X121027830Y-164379240D01*
X123134843Y-164379240D01*
X123134846Y-164379240D01*
X123330500Y-164348252D01*
X123518897Y-164287038D01*
X123695398Y-164197106D01*
X123855658Y-164080670D01*
X123995730Y-163940598D01*
X130495730Y-157440598D01*
X130612166Y-157280338D01*
X130684996Y-157137401D01*
X130702098Y-157103837D01*
X130763312Y-156915440D01*
X130794300Y-156719786D01*
X130794300Y-154855917D01*
X130814302Y-154787796D01*
X130818366Y-154781854D01*
X130825981Y-154771372D01*
X130825985Y-154771367D01*
X130933782Y-154559803D01*
X131007156Y-154333981D01*
X131044300Y-154099462D01*
X131044300Y-153862018D01*
X131007156Y-153627499D01*
X130933782Y-153401677D01*
X130825985Y-153190113D01*
X130686420Y-152998018D01*
X130686417Y-152998015D01*
X130686415Y-152998012D01*
X130518527Y-152830124D01*
X130518524Y-152830122D01*
X130518522Y-152830120D01*
X130326427Y-152690555D01*
X130114863Y-152582758D01*
X130114860Y-152582757D01*
X130114858Y-152582756D01*
X129889046Y-152509385D01*
X129889042Y-152509384D01*
X129889041Y-152509384D01*
X129654522Y-152472240D01*
X129417078Y-152472240D01*
X129182559Y-152509384D01*
X129182553Y-152509385D01*
X128956741Y-152582756D01*
X128956735Y-152582759D01*
X128745169Y-152690557D01*
X128553075Y-152830122D01*
X128553072Y-152830124D01*
X128385184Y-152998012D01*
X128385182Y-152998015D01*
X128245617Y-153190109D01*
X128137819Y-153401675D01*
X128137816Y-153401681D01*
X128064445Y-153627493D01*
X128064444Y-153627498D01*
X128064444Y-153627499D01*
X128027300Y-153862018D01*
X128027300Y-154099462D01*
X128064444Y-154333981D01*
X128064445Y-154333986D01*
X128137816Y-154559798D01*
X128137818Y-154559803D01*
X128223963Y-154728872D01*
X128245618Y-154771372D01*
X128253234Y-154781854D01*
X128277094Y-154848721D01*
X128277300Y-154855917D01*
X128277300Y-156047262D01*
X128257298Y-156115383D01*
X128240395Y-156136357D01*
X122551417Y-161825335D01*
X122489105Y-161859361D01*
X122462322Y-161862240D01*
X121027830Y-161862240D01*
X120959709Y-161842238D01*
X120953769Y-161838176D01*
X120947812Y-161833848D01*
X120947811Y-161833847D01*
X120947809Y-161833846D01*
X120757283Y-161736768D01*
X120757280Y-161736767D01*
X120757278Y-161736766D01*
X120553920Y-161670692D01*
X120553923Y-161670692D01*
X120514601Y-161664464D01*
X120342716Y-161637240D01*
X120128884Y-161637240D01*
X120002164Y-161657310D01*
X119917682Y-161670691D01*
X119900046Y-161676421D01*
X119895330Y-161677954D01*
X119824363Y-161679980D01*
X119763566Y-161643317D01*
X119732241Y-161579604D01*
X119740335Y-161509071D01*
X119767299Y-161469027D01*
X122348471Y-158887854D01*
X122348485Y-158887843D01*
X122495725Y-158740603D01*
X122495730Y-158740598D01*
X122612166Y-158580338D01*
X122622117Y-158560810D01*
X122630071Y-158545201D01*
X122702095Y-158403843D01*
X122702099Y-158403836D01*
X122763312Y-158215439D01*
X122768970Y-158179722D01*
X122794300Y-158019784D01*
X122794300Y-155866003D01*
X123785300Y-155866003D01*
X123785300Y-156095476D01*
X123815250Y-156322971D01*
X123815252Y-156322978D01*
X123874642Y-156544627D01*
X123962456Y-156756628D01*
X123962457Y-156756629D01*
X123962462Y-156756640D01*
X124077186Y-156955348D01*
X124077191Y-156955355D01*
X124216873Y-157137392D01*
X124216892Y-157137413D01*
X124379126Y-157299647D01*
X124379147Y-157299666D01*
X124561184Y-157439348D01*
X124561191Y-157439353D01*
X124759899Y-157554077D01*
X124759903Y-157554078D01*
X124759912Y-157554084D01*
X124971913Y-157641898D01*
X125193562Y-157701288D01*
X125193566Y-157701288D01*
X125193568Y-157701289D01*
X125252198Y-157709007D01*
X125421066Y-157731240D01*
X125421073Y-157731240D01*
X125650527Y-157731240D01*
X125650534Y-157731240D01*
X125856145Y-157704170D01*
X125878031Y-157701289D01*
X125878031Y-157701288D01*
X125878038Y-157701288D01*
X126099687Y-157641898D01*
X126311688Y-157554084D01*
X126510412Y-157439351D01*
X126692461Y-157299659D01*
X126854719Y-157137401D01*
X126994411Y-156955352D01*
X127109144Y-156756628D01*
X127196958Y-156544627D01*
X127256348Y-156322978D01*
X127286300Y-156095474D01*
X127286300Y-155866006D01*
X127256348Y-155638502D01*
X127196958Y-155416853D01*
X127109144Y-155204852D01*
X127109138Y-155204843D01*
X127109137Y-155204839D01*
X126994413Y-155006131D01*
X126994408Y-155006124D01*
X126854726Y-154824087D01*
X126854707Y-154824066D01*
X126692473Y-154661832D01*
X126692452Y-154661813D01*
X126510415Y-154522131D01*
X126510408Y-154522126D01*
X126311700Y-154407402D01*
X126311692Y-154407398D01*
X126311688Y-154407396D01*
X126099687Y-154319582D01*
X125878038Y-154260192D01*
X125878031Y-154260190D01*
X125650536Y-154230240D01*
X125650534Y-154230240D01*
X125421066Y-154230240D01*
X125421063Y-154230240D01*
X125193568Y-154260190D01*
X124971913Y-154319582D01*
X124759910Y-154407397D01*
X124759899Y-154407402D01*
X124561191Y-154522126D01*
X124561184Y-154522131D01*
X124379147Y-154661813D01*
X124379126Y-154661832D01*
X124216892Y-154824066D01*
X124216873Y-154824087D01*
X124077191Y-155006124D01*
X124077186Y-155006131D01*
X123962462Y-155204839D01*
X123962457Y-155204850D01*
X123962456Y-155204852D01*
X123945285Y-155246306D01*
X123874642Y-155416853D01*
X123815250Y-155638508D01*
X123785300Y-155866003D01*
X122794300Y-155866003D01*
X122794300Y-154855917D01*
X122814302Y-154787796D01*
X122818366Y-154781854D01*
X122825981Y-154771372D01*
X122825985Y-154771367D01*
X122933782Y-154559803D01*
X123007156Y-154333981D01*
X123044300Y-154099462D01*
X123044300Y-153862018D01*
X123007156Y-153627499D01*
X122933782Y-153401677D01*
X122825985Y-153190113D01*
X122686420Y-152998018D01*
X122686417Y-152998015D01*
X122686415Y-152998012D01*
X122518527Y-152830124D01*
X122518524Y-152830122D01*
X122518522Y-152830120D01*
X122326427Y-152690555D01*
X122114863Y-152582758D01*
X122114860Y-152582757D01*
X122114858Y-152582756D01*
X121889046Y-152509385D01*
X121889042Y-152509384D01*
X121889041Y-152509384D01*
X121654522Y-152472240D01*
X121417078Y-152472240D01*
X121182559Y-152509384D01*
X121182553Y-152509385D01*
X120956741Y-152582756D01*
X120956735Y-152582759D01*
X120745169Y-152690557D01*
X120553075Y-152830122D01*
X120553072Y-152830124D01*
X120385184Y-152998012D01*
X120385182Y-152998015D01*
X120245617Y-153190109D01*
X120137819Y-153401675D01*
X120137816Y-153401681D01*
X120064445Y-153627493D01*
X120064444Y-153627498D01*
X120064444Y-153627499D01*
X120027300Y-153862018D01*
X120027300Y-154099462D01*
X120064444Y-154333981D01*
X120064445Y-154333986D01*
X120137816Y-154559798D01*
X120137818Y-154559803D01*
X120223963Y-154728872D01*
X120245618Y-154771372D01*
X120253234Y-154781854D01*
X120277094Y-154848721D01*
X120277300Y-154855917D01*
X120277300Y-157347261D01*
X120257298Y-157415382D01*
X120240395Y-157436356D01*
X116898219Y-160778531D01*
X116898217Y-160778534D01*
X116775875Y-160900875D01*
X116722236Y-160974703D01*
X116666013Y-161018056D01*
X116595277Y-161024131D01*
X116532485Y-160990999D01*
X116497574Y-160929179D01*
X116494300Y-160900641D01*
X116494300Y-155499795D01*
X116514302Y-155431674D01*
X116531205Y-155410700D01*
X126446724Y-145495181D01*
X126446730Y-145495175D01*
X126563167Y-145334915D01*
X126632799Y-145198252D01*
X126653098Y-145158414D01*
X126714312Y-144970017D01*
X126745300Y-144774363D01*
X126745300Y-139321694D01*
X126745300Y-139317237D01*
X126745299Y-139317207D01*
X126745299Y-134343218D01*
X126765301Y-134275097D01*
X126782204Y-134254123D01*
X127615520Y-133420807D01*
X128693844Y-132342482D01*
X128756154Y-132308459D01*
X128826969Y-132313523D01*
X128840126Y-132319306D01*
X128956737Y-132378722D01*
X129182559Y-132452096D01*
X129417078Y-132489240D01*
X129417081Y-132489240D01*
X129654519Y-132489240D01*
X129654522Y-132489240D01*
X129889041Y-132452096D01*
X130114863Y-132378722D01*
X130326427Y-132270925D01*
X130518522Y-132131360D01*
X130686420Y-131963462D01*
X130825985Y-131771367D01*
X130933782Y-131559803D01*
X131007156Y-131333981D01*
X131044300Y-131099462D01*
X131044300Y-130862018D01*
X131007156Y-130627499D01*
X130933782Y-130401677D01*
X130825985Y-130190113D01*
X130686420Y-129998018D01*
X130686417Y-129998015D01*
X130686415Y-129998012D01*
X130518527Y-129830124D01*
X130518524Y-129830122D01*
X130518522Y-129830120D01*
X130326427Y-129690555D01*
X130114863Y-129582758D01*
X130114860Y-129582757D01*
X130114858Y-129582756D01*
X129889046Y-129509385D01*
X129889042Y-129509384D01*
X129889041Y-129509384D01*
X129654522Y-129472240D01*
X129417078Y-129472240D01*
X129182559Y-129509384D01*
X129182553Y-129509385D01*
X128956741Y-129582756D01*
X128956735Y-129582759D01*
X128745170Y-129690556D01*
X128734682Y-129698177D01*
X128667814Y-129722035D01*
X128660622Y-129722240D01*
X128176754Y-129722240D01*
X127981100Y-129753228D01*
X127981094Y-129753229D01*
X127792706Y-129814440D01*
X127653953Y-129885139D01*
X127653952Y-129885138D01*
X127616201Y-129904374D01*
X127455939Y-130020811D01*
X124984764Y-132491986D01*
X124922452Y-132526012D01*
X124851636Y-132520947D01*
X124794801Y-132478400D01*
X124793733Y-132476952D01*
X124745728Y-132410879D01*
X124602512Y-132267663D01*
X124602481Y-132267634D01*
X123044537Y-130709689D01*
X123010511Y-130647377D01*
X123009185Y-130640313D01*
X123007156Y-130627499D01*
X122933782Y-130401677D01*
X122825985Y-130190113D01*
X122686420Y-129998018D01*
X122686417Y-129998015D01*
X122686415Y-129998012D01*
X122518527Y-129830124D01*
X122518524Y-129830122D01*
X122518522Y-129830120D01*
X122326427Y-129690555D01*
X122114863Y-129582758D01*
X122114860Y-129582757D01*
X122114858Y-129582756D01*
X121889046Y-129509385D01*
X121889042Y-129509384D01*
X121889041Y-129509384D01*
X121654522Y-129472240D01*
X121417078Y-129472240D01*
X121182559Y-129509384D01*
X121182553Y-129509385D01*
X120956741Y-129582756D01*
X120956735Y-129582759D01*
X120745169Y-129690557D01*
X120553075Y-129830122D01*
X120553072Y-129830124D01*
X120385184Y-129998012D01*
X120385182Y-129998015D01*
X120245617Y-130190109D01*
X120137819Y-130401675D01*
X120137816Y-130401681D01*
X120064445Y-130627493D01*
X120064444Y-130627498D01*
X120064444Y-130627499D01*
X120027300Y-130862018D01*
X120027300Y-131099462D01*
X120064444Y-131333981D01*
X120064445Y-131333986D01*
X120137816Y-131559798D01*
X120137818Y-131559803D01*
X120245615Y-131771367D01*
X120385180Y-131963462D01*
X120385182Y-131963464D01*
X120385184Y-131963467D01*
X120553072Y-132131355D01*
X120553075Y-132131357D01*
X120553078Y-132131360D01*
X120745173Y-132270925D01*
X120956737Y-132378722D01*
X121182559Y-132452096D01*
X121195364Y-132454123D01*
X121259515Y-132484533D01*
X121264749Y-132489477D01*
X122490395Y-133715122D01*
X122524420Y-133777434D01*
X122527300Y-133804217D01*
X122527300Y-143397262D01*
X122507298Y-143465383D01*
X122490395Y-143486357D01*
X112714942Y-153261810D01*
X112666702Y-153310050D01*
X112574870Y-153401881D01*
X112458436Y-153562138D01*
X112368503Y-153738641D01*
X112368502Y-153738643D01*
X112325624Y-153870609D01*
X112307288Y-153927040D01*
X112279981Y-154099458D01*
X112276300Y-154122697D01*
X112276300Y-154614258D01*
X112256298Y-154682379D01*
X112202642Y-154728872D01*
X112132368Y-154738976D01*
X112067788Y-154709482D01*
X112029404Y-154649756D01*
X112025378Y-154630704D01*
X112012071Y-154529631D01*
X112012070Y-154529630D01*
X112012070Y-154529624D01*
X111944198Y-154276321D01*
X111843843Y-154034043D01*
X111843837Y-154034034D01*
X111843836Y-154034030D01*
X111712726Y-153806940D01*
X111712722Y-153806934D01*
X111553089Y-153598897D01*
X111553070Y-153598876D01*
X111367663Y-153413469D01*
X111367642Y-153413450D01*
X111159605Y-153253817D01*
X111159599Y-153253813D01*
X110932509Y-153122703D01*
X110932501Y-153122699D01*
X110932497Y-153122697D01*
X110690219Y-153022342D01*
X110436916Y-152954470D01*
X110436914Y-152954469D01*
X110436908Y-152954468D01*
X110176921Y-152920240D01*
X110176920Y-152920240D01*
X109914680Y-152920240D01*
X109914678Y-152920240D01*
X109654691Y-152954468D01*
X109401381Y-153022342D01*
X109159101Y-153122698D01*
X109159090Y-153122703D01*
X108932000Y-153253813D01*
X108931994Y-153253817D01*
X108723957Y-153413450D01*
X108723936Y-153413469D01*
X108538529Y-153598876D01*
X108538510Y-153598897D01*
X108378877Y-153806934D01*
X108378873Y-153806940D01*
X108247763Y-154034030D01*
X108247758Y-154034041D01*
X108247757Y-154034043D01*
X108211035Y-154122697D01*
X108147402Y-154276321D01*
X108079528Y-154529631D01*
X108045300Y-154789618D01*
X106843212Y-154789618D01*
X106843212Y-153870609D01*
X106841852Y-153862021D01*
X106812224Y-153674952D01*
X106751010Y-153486555D01*
X106661078Y-153310054D01*
X106544642Y-153149794D01*
X106404570Y-153009722D01*
X99698505Y-146303657D01*
X99664479Y-146241345D01*
X99669544Y-146170530D01*
X99712091Y-146113694D01*
X99778611Y-146088883D01*
X99812171Y-146090982D01*
X100058277Y-146139936D01*
X100376113Y-146171240D01*
X100376122Y-146171240D01*
X100695478Y-146171240D01*
X100695487Y-146171240D01*
X101013323Y-146139936D01*
X101326560Y-146077629D01*
X101632181Y-145984920D01*
X101927244Y-145862701D01*
X102208906Y-145712149D01*
X102474456Y-145534715D01*
X102721335Y-145332106D01*
X102947166Y-145106275D01*
X103149775Y-144859396D01*
X103327209Y-144593846D01*
X103477761Y-144312184D01*
X103599980Y-144017121D01*
X103692689Y-143711500D01*
X103754996Y-143398263D01*
X103786300Y-143080427D01*
X103786300Y-142761053D01*
X103754996Y-142443217D01*
X103692689Y-142129980D01*
X103599980Y-141824359D01*
X103477761Y-141529296D01*
X103327209Y-141247634D01*
X103149775Y-140982084D01*
X103146163Y-140977683D01*
X102947171Y-140735211D01*
X102947153Y-140735191D01*
X102721348Y-140509386D01*
X102721328Y-140509368D01*
X102474464Y-140306771D01*
X102474449Y-140306760D01*
X102208908Y-140129332D01*
X101927244Y-139978779D01*
X101632185Y-139856561D01*
X101632181Y-139856560D01*
X101326560Y-139763851D01*
X101106047Y-139719988D01*
X101013324Y-139701544D01*
X101013308Y-139701542D01*
X100695493Y-139670240D01*
X100695487Y-139670240D01*
X100376113Y-139670240D01*
X100376106Y-139670240D01*
X100058291Y-139701542D01*
X100058275Y-139701544D01*
X99849452Y-139743082D01*
X99745040Y-139763851D01*
X99592229Y-139810205D01*
X99439418Y-139856560D01*
X99439414Y-139856561D01*
X99144355Y-139978779D01*
X98862691Y-140129332D01*
X98597150Y-140306760D01*
X98597135Y-140306771D01*
X98350271Y-140509368D01*
X98350251Y-140509386D01*
X98124446Y-140735191D01*
X98124428Y-140735211D01*
X97921831Y-140982075D01*
X97921820Y-140982090D01*
X97744392Y-141247631D01*
X97593839Y-141529295D01*
X97471621Y-141824354D01*
X97471620Y-141824358D01*
X97378911Y-142129981D01*
X97316604Y-142443215D01*
X97316602Y-142443231D01*
X97285300Y-142761046D01*
X97285300Y-143080433D01*
X97316602Y-143398248D01*
X97316604Y-143398263D01*
X97365555Y-143644359D01*
X97359228Y-143715071D01*
X97315674Y-143771139D01*
X97248721Y-143794758D01*
X97179628Y-143778431D01*
X97152882Y-143758034D01*
X96431205Y-143036357D01*
X96397179Y-142974045D01*
X96394300Y-142947262D01*
X96394300Y-139231258D01*
X116327300Y-139231258D01*
X116327300Y-139231261D01*
X116327300Y-139410219D01*
X116362213Y-139585740D01*
X116430698Y-139751076D01*
X116530122Y-139899875D01*
X116530124Y-139899877D01*
X116565395Y-139935148D01*
X116599421Y-139997460D01*
X116602300Y-140024243D01*
X116602300Y-141717237D01*
X116582298Y-141785358D01*
X116565395Y-141806332D01*
X116530124Y-141841602D01*
X116530119Y-141841609D01*
X116430699Y-141990402D01*
X116362214Y-142155736D01*
X116327300Y-142331258D01*
X116327300Y-142331261D01*
X116327300Y-142510219D01*
X116362213Y-142685740D01*
X116430698Y-142851076D01*
X116530122Y-142999875D01*
X116656665Y-143126418D01*
X116805464Y-143225842D01*
X116970800Y-143294327D01*
X117146321Y-143329240D01*
X117146322Y-143329240D01*
X117325278Y-143329240D01*
X117325279Y-143329240D01*
X117500800Y-143294327D01*
X117666136Y-143225842D01*
X117814935Y-143126418D01*
X117941478Y-142999875D01*
X118040902Y-142851076D01*
X118109387Y-142685740D01*
X118144300Y-142510219D01*
X118144300Y-142331261D01*
X118109387Y-142155740D01*
X118040902Y-141990404D01*
X117941478Y-141841605D01*
X117906205Y-141806332D01*
X117872179Y-141744020D01*
X117869300Y-141717237D01*
X117869300Y-140024243D01*
X117889302Y-139956122D01*
X117906205Y-139935148D01*
X117941478Y-139899875D01*
X118040902Y-139751076D01*
X118109387Y-139585740D01*
X118144300Y-139410219D01*
X118144300Y-139231261D01*
X118109387Y-139055740D01*
X118040902Y-138890404D01*
X117941478Y-138741605D01*
X117814935Y-138615062D01*
X117666136Y-138515638D01*
X117549229Y-138467213D01*
X117500803Y-138447154D01*
X117500801Y-138447153D01*
X117500800Y-138447153D01*
X117412445Y-138429578D01*
X117325281Y-138412240D01*
X117325279Y-138412240D01*
X117146321Y-138412240D01*
X117146318Y-138412240D01*
X117015571Y-138438247D01*
X116970800Y-138447153D01*
X116970799Y-138447153D01*
X116970796Y-138447154D01*
X116805462Y-138515639D01*
X116656669Y-138615059D01*
X116656662Y-138615064D01*
X116530124Y-138741602D01*
X116530119Y-138741609D01*
X116430699Y-138890402D01*
X116362214Y-139055736D01*
X116327300Y-139231258D01*
X96394300Y-139231258D01*
X96394300Y-134954217D01*
X96414302Y-134886096D01*
X96431200Y-134865127D01*
X98806850Y-132489476D01*
X98869160Y-132455453D01*
X98876223Y-132454125D01*
X98889041Y-132452096D01*
X99114863Y-132378722D01*
X99326427Y-132270925D01*
X99518522Y-132131360D01*
X99686420Y-131963462D01*
X99825985Y-131771367D01*
X99933782Y-131559803D01*
X100007156Y-131333981D01*
X100044300Y-131099462D01*
X100044300Y-130862018D01*
X100007156Y-130627499D01*
X99933782Y-130401677D01*
X99825985Y-130190113D01*
X99686420Y-129998018D01*
X99686417Y-129998015D01*
X99686415Y-129998012D01*
X99518527Y-129830124D01*
X99518524Y-129830122D01*
X99518522Y-129830120D01*
X99326427Y-129690555D01*
X99114863Y-129582758D01*
X99114860Y-129582757D01*
X99114858Y-129582756D01*
X98889046Y-129509385D01*
X98889042Y-129509384D01*
X98889041Y-129509384D01*
X98654522Y-129472240D01*
X98417078Y-129472240D01*
X98182559Y-129509384D01*
X98182553Y-129509385D01*
X97956741Y-129582756D01*
X97956735Y-129582759D01*
X97745169Y-129690557D01*
X97553075Y-129830122D01*
X97553072Y-129830124D01*
X97385184Y-129998012D01*
X97385182Y-129998015D01*
X97245617Y-130190109D01*
X97137819Y-130401675D01*
X97137816Y-130401681D01*
X97064443Y-130627499D01*
X97064442Y-130627501D01*
X97062413Y-130640313D01*
X97031997Y-130704464D01*
X97027061Y-130709689D01*
X94315944Y-133420807D01*
X94315943Y-133420808D01*
X94315942Y-133420810D01*
X94222982Y-133513770D01*
X94209395Y-133527357D01*
X94147083Y-133561382D01*
X94076267Y-133556316D01*
X94019431Y-133513770D01*
X93994621Y-133447249D01*
X93994300Y-133438261D01*
X93994300Y-133081697D01*
X93994300Y-133081694D01*
X93963312Y-132886040D01*
X93937610Y-132806937D01*
X93902099Y-132697644D01*
X93812167Y-132521142D01*
X93695730Y-132360882D01*
X93695726Y-132360878D01*
X93695724Y-132360875D01*
X92044537Y-130709689D01*
X92010512Y-130647377D01*
X92009185Y-130640313D01*
X92007156Y-130627499D01*
X91933782Y-130401677D01*
X91825985Y-130190113D01*
X91686420Y-129998018D01*
X91686417Y-129998015D01*
X91686415Y-129998012D01*
X91518527Y-129830124D01*
X91518524Y-129830122D01*
X91518522Y-129830120D01*
X91326427Y-129690555D01*
X91114863Y-129582758D01*
X91114860Y-129582757D01*
X91114858Y-129582756D01*
X90889046Y-129509385D01*
X90889042Y-129509384D01*
X90889041Y-129509384D01*
X90654522Y-129472240D01*
X90417078Y-129472240D01*
X90182559Y-129509384D01*
X90182553Y-129509385D01*
X89956741Y-129582756D01*
X89956735Y-129582759D01*
X89745169Y-129690557D01*
X89553075Y-129830122D01*
X89553072Y-129830124D01*
X89385184Y-129998012D01*
X89385182Y-129998015D01*
X89245617Y-130190109D01*
X89137819Y-130401675D01*
X89137816Y-130401681D01*
X89064445Y-130627493D01*
X89064444Y-130627498D01*
X89064444Y-130627499D01*
X89027300Y-130862018D01*
X81974310Y-130862018D01*
X83970325Y-128866003D01*
X92785300Y-128866003D01*
X92785300Y-129095476D01*
X92815250Y-129322971D01*
X92815252Y-129322978D01*
X92874642Y-129544627D01*
X92962456Y-129756628D01*
X92962457Y-129756629D01*
X92962462Y-129756640D01*
X93077186Y-129955348D01*
X93077191Y-129955355D01*
X93216873Y-130137392D01*
X93216892Y-130137413D01*
X93379126Y-130299647D01*
X93379147Y-130299666D01*
X93561184Y-130439348D01*
X93561191Y-130439353D01*
X93759899Y-130554077D01*
X93759903Y-130554078D01*
X93759912Y-130554084D01*
X93971913Y-130641898D01*
X94193562Y-130701288D01*
X94193566Y-130701288D01*
X94193568Y-130701289D01*
X94252198Y-130709007D01*
X94421066Y-130731240D01*
X94421073Y-130731240D01*
X94650527Y-130731240D01*
X94650534Y-130731240D01*
X94856145Y-130704170D01*
X94878031Y-130701289D01*
X94878031Y-130701288D01*
X94878038Y-130701288D01*
X95099687Y-130641898D01*
X95311688Y-130554084D01*
X95510412Y-130439351D01*
X95692461Y-130299659D01*
X95854719Y-130137401D01*
X95994411Y-129955352D01*
X96109144Y-129756628D01*
X96196958Y-129544627D01*
X96256348Y-129322978D01*
X96286300Y-129095474D01*
X96286300Y-128866006D01*
X96256348Y-128638502D01*
X96196958Y-128416853D01*
X96109144Y-128204852D01*
X96109138Y-128204843D01*
X96109137Y-128204839D01*
X95994413Y-128006131D01*
X95994408Y-128006124D01*
X95854726Y-127824087D01*
X95854707Y-127824066D01*
X95692473Y-127661832D01*
X95692452Y-127661813D01*
X95510415Y-127522131D01*
X95510408Y-127522126D01*
X95311700Y-127407402D01*
X95311692Y-127407398D01*
X95311688Y-127407396D01*
X95099687Y-127319582D01*
X94878038Y-127260192D01*
X94878031Y-127260190D01*
X94650536Y-127230240D01*
X94650534Y-127230240D01*
X94421066Y-127230240D01*
X94421063Y-127230240D01*
X94193568Y-127260190D01*
X94036217Y-127302352D01*
X93971913Y-127319582D01*
X93791464Y-127394327D01*
X93759910Y-127407397D01*
X93759899Y-127407402D01*
X93561191Y-127522126D01*
X93561184Y-127522131D01*
X93379147Y-127661813D01*
X93379126Y-127661832D01*
X93216892Y-127824066D01*
X93216873Y-127824087D01*
X93077191Y-128006124D01*
X93077186Y-128006131D01*
X92962462Y-128204839D01*
X92962457Y-128204850D01*
X92874642Y-128416853D01*
X92815250Y-128638508D01*
X92785300Y-128866003D01*
X83970325Y-128866003D01*
X99920183Y-112916145D01*
X99982495Y-112882119D01*
X100009278Y-112879240D01*
X100436064Y-112879240D01*
X100504185Y-112899242D01*
X100550678Y-112952898D01*
X100560782Y-113023172D01*
X100540829Y-113075242D01*
X100530699Y-113090402D01*
X100462214Y-113255736D01*
X100462213Y-113255739D01*
X100462213Y-113255740D01*
X100454793Y-113293043D01*
X100427300Y-113431258D01*
X100427300Y-113431261D01*
X100427300Y-113610219D01*
X100462213Y-113785740D01*
X100530698Y-113951076D01*
X100630122Y-114099875D01*
X100756665Y-114226418D01*
X100905464Y-114325842D01*
X101070800Y-114394327D01*
X101246321Y-114429240D01*
X101246322Y-114429240D01*
X101425278Y-114429240D01*
X101425279Y-114429240D01*
X101600800Y-114394327D01*
X101766136Y-114325842D01*
X101785336Y-114313012D01*
X101841517Y-114275475D01*
X101909269Y-114254260D01*
X101911518Y-114254240D01*
X113981135Y-114254240D01*
X114049256Y-114274242D01*
X114095749Y-114327898D01*
X114105853Y-114398172D01*
X114076359Y-114462752D01*
X114070230Y-114469335D01*
X113992170Y-114547394D01*
X113992165Y-114547400D01*
X113899142Y-114698214D01*
X113843406Y-114866418D01*
X113843405Y-114866421D01*
X113832800Y-114970223D01*
X113832800Y-115366740D01*
X114913964Y-115366740D01*
X114873170Y-115437397D01*
X114840800Y-115558205D01*
X114840800Y-115683275D01*
X114873170Y-115804083D01*
X114913964Y-115874740D01*
X113832800Y-115874740D01*
X113832800Y-116271256D01*
X113843405Y-116375058D01*
X113843406Y-116375061D01*
X113899142Y-116543265D01*
X113992165Y-116694079D01*
X113992170Y-116694085D01*
X114117454Y-116819369D01*
X114117460Y-116819374D01*
X114262320Y-116908724D01*
X114309798Y-116961510D01*
X114321201Y-117031585D01*
X114292909Y-117096700D01*
X114285269Y-117105060D01*
X114154594Y-117235735D01*
X114028908Y-117408727D01*
X113931829Y-117599255D01*
X113931826Y-117599261D01*
X113865752Y-117802618D01*
X113865751Y-117802623D01*
X113865751Y-117802624D01*
X113832300Y-118013824D01*
X113832300Y-118227656D01*
X113850445Y-118342218D01*
X113865752Y-118438861D01*
X113899773Y-118543569D01*
X113901800Y-118614537D01*
X113869035Y-118671599D01*
X112631967Y-119908669D01*
X112543731Y-119996904D01*
X112543726Y-119996911D01*
X112502013Y-120059340D01*
X112474400Y-120100665D01*
X112459185Y-120137397D01*
X112426646Y-120215952D01*
X112402300Y-120338343D01*
X112402300Y-129517237D01*
X112382298Y-129585358D01*
X112365395Y-129606332D01*
X112330124Y-129641602D01*
X112330119Y-129641609D01*
X112230699Y-129790402D01*
X112162214Y-129955736D01*
X112162213Y-129955739D01*
X112162213Y-129955740D01*
X112154271Y-129995667D01*
X112127300Y-130131258D01*
X112127300Y-130131261D01*
X112127300Y-130310219D01*
X112162213Y-130485740D01*
X112230698Y-130651076D01*
X112330122Y-130799875D01*
X112456665Y-130926418D01*
X112605464Y-131025842D01*
X112770800Y-131094327D01*
X112946321Y-131129240D01*
X112946322Y-131129240D01*
X113125278Y-131129240D01*
X113125279Y-131129240D01*
X113300800Y-131094327D01*
X113466136Y-131025842D01*
X113614935Y-130926418D01*
X113741478Y-130799875D01*
X113840902Y-130651076D01*
X113909387Y-130485740D01*
X113944300Y-130310219D01*
X113944300Y-130131261D01*
X113909387Y-129955740D01*
X113840902Y-129790404D01*
X113741478Y-129641605D01*
X113706205Y-129606332D01*
X113672179Y-129544020D01*
X113669300Y-129517237D01*
X113669300Y-123629775D01*
X113689302Y-123561654D01*
X113742958Y-123515161D01*
X113813232Y-123505057D01*
X113877812Y-123534551D01*
X113915132Y-123590839D01*
X113931828Y-123642223D01*
X114028906Y-123832749D01*
X114154594Y-124005744D01*
X114154596Y-124005746D01*
X114154598Y-124005749D01*
X114305790Y-124156941D01*
X114305793Y-124156943D01*
X114305796Y-124156946D01*
X114478791Y-124282634D01*
X114613503Y-124351273D01*
X114665118Y-124400021D01*
X114682300Y-124463540D01*
X114682300Y-129537237D01*
X114662298Y-129605358D01*
X114645395Y-129626332D01*
X114630124Y-129641602D01*
X114630119Y-129641609D01*
X114530699Y-129790402D01*
X114462214Y-129955736D01*
X114462213Y-129955739D01*
X114462213Y-129955740D01*
X114454271Y-129995667D01*
X114427300Y-130131258D01*
X114427300Y-130131261D01*
X114427300Y-130310219D01*
X114462213Y-130485740D01*
X114530698Y-130651076D01*
X114630122Y-130799875D01*
X114756665Y-130926418D01*
X114905464Y-131025842D01*
X115070800Y-131094327D01*
X115246321Y-131129240D01*
X115246322Y-131129240D01*
X115425278Y-131129240D01*
X115425279Y-131129240D01*
X115600800Y-131094327D01*
X115766136Y-131025842D01*
X115914935Y-130926418D01*
X116041478Y-130799875D01*
X116140902Y-130651076D01*
X116209387Y-130485740D01*
X116244300Y-130310219D01*
X116244300Y-130131261D01*
X116209387Y-129955740D01*
X116140902Y-129790404D01*
X116041478Y-129641605D01*
X115986205Y-129586332D01*
X115952179Y-129524020D01*
X115949300Y-129497237D01*
X115949300Y-124463540D01*
X115969302Y-124395419D01*
X116018096Y-124351273D01*
X116152809Y-124282634D01*
X116325804Y-124156946D01*
X116477006Y-124005744D01*
X116602694Y-123832749D01*
X116699772Y-123642223D01*
X116765849Y-123438856D01*
X116799300Y-123227656D01*
X116799300Y-123013824D01*
X116765849Y-122802624D01*
X116699772Y-122599257D01*
X116602694Y-122408731D01*
X116477006Y-122235736D01*
X116477003Y-122235733D01*
X116477001Y-122235730D01*
X116325809Y-122084538D01*
X116325806Y-122084536D01*
X116325804Y-122084534D01*
X116171843Y-121972675D01*
X116128490Y-121916454D01*
X116122415Y-121845718D01*
X116155546Y-121782926D01*
X116171844Y-121768804D01*
X116325804Y-121656946D01*
X116420577Y-121562172D01*
X116482887Y-121528149D01*
X116553703Y-121533213D01*
X116598766Y-121562174D01*
X117565395Y-122528803D01*
X117599421Y-122591115D01*
X117602300Y-122617898D01*
X117602300Y-125817237D01*
X117582298Y-125885358D01*
X117565395Y-125906332D01*
X117530124Y-125941602D01*
X117530119Y-125941609D01*
X117430699Y-126090402D01*
X117362214Y-126255736D01*
X117327300Y-126431258D01*
X117327300Y-126431261D01*
X117327300Y-126610219D01*
X117362213Y-126785740D01*
X117430698Y-126951076D01*
X117530122Y-127099875D01*
X117656665Y-127226418D01*
X117805464Y-127325842D01*
X117970800Y-127394327D01*
X118146321Y-127429240D01*
X118146322Y-127429240D01*
X118325278Y-127429240D01*
X118325279Y-127429240D01*
X118500800Y-127394327D01*
X118666136Y-127325842D01*
X118814935Y-127226418D01*
X118941478Y-127099875D01*
X119040902Y-126951076D01*
X119109387Y-126785740D01*
X119144300Y-126610219D01*
X119144300Y-126431261D01*
X119109387Y-126255740D01*
X119040902Y-126090404D01*
X118941478Y-125941605D01*
X118906205Y-125906332D01*
X118872179Y-125844020D01*
X118869300Y-125817237D01*
X118869300Y-122654334D01*
X118889302Y-122586213D01*
X118942958Y-122539720D01*
X119013232Y-122529616D01*
X119077812Y-122559110D01*
X119084395Y-122565239D01*
X119743729Y-123224573D01*
X119831967Y-123312811D01*
X119935725Y-123382140D01*
X120051015Y-123429895D01*
X120173406Y-123454240D01*
X120836775Y-123454240D01*
X120904896Y-123474242D01*
X120951389Y-123527898D01*
X120962122Y-123567433D01*
X120962911Y-123575159D01*
X120962912Y-123575162D01*
X120962912Y-123575164D01*
X120962913Y-123575166D01*
X120993356Y-123667038D01*
X121018685Y-123743478D01*
X121111770Y-123894392D01*
X121111775Y-123894398D01*
X121237141Y-124019764D01*
X121237147Y-124019769D01*
X121237148Y-124019770D01*
X121388062Y-124112855D01*
X121556374Y-124168627D01*
X121660255Y-124179240D01*
X123211344Y-124179239D01*
X123315226Y-124168627D01*
X123315229Y-124168626D01*
X123315231Y-124168626D01*
X123434773Y-124129014D01*
X123505728Y-124126573D01*
X123566738Y-124162881D01*
X123598433Y-124226410D01*
X123597985Y-124273199D01*
X123585300Y-124336967D01*
X123585300Y-124336973D01*
X123585300Y-124504507D01*
X123617984Y-124668822D01*
X123682097Y-124823603D01*
X123682098Y-124823604D01*
X123775173Y-124962901D01*
X123775178Y-124962907D01*
X123893632Y-125081361D01*
X123893638Y-125081366D01*
X124032937Y-125174443D01*
X124187718Y-125238556D01*
X124352033Y-125271240D01*
X124352034Y-125271240D01*
X124519566Y-125271240D01*
X124519567Y-125271240D01*
X124683882Y-125238556D01*
X124838663Y-125174443D01*
X124977962Y-125081366D01*
X125096426Y-124962902D01*
X125189503Y-124823603D01*
X125253616Y-124668822D01*
X125286300Y-124504507D01*
X125286300Y-124336973D01*
X125253616Y-124172658D01*
X125189503Y-124017877D01*
X125096426Y-123878578D01*
X125096421Y-123878572D01*
X124977967Y-123760118D01*
X124977961Y-123760113D01*
X124838664Y-123667038D01*
X124838665Y-123667038D01*
X124838663Y-123667037D01*
X124724783Y-123619866D01*
X124683885Y-123602925D01*
X124683883Y-123602924D01*
X124683882Y-123602924D01*
X124601168Y-123586471D01*
X124519569Y-123570240D01*
X124519567Y-123570240D01*
X124352033Y-123570240D01*
X124352030Y-123570240D01*
X124187712Y-123602925D01*
X124088415Y-123644056D01*
X124017825Y-123651645D01*
X123954338Y-123619866D01*
X123918111Y-123558807D01*
X123914850Y-123514838D01*
X123919300Y-123471285D01*
X123919299Y-122170196D01*
X123908687Y-122066314D01*
X123852915Y-121898002D01*
X123759830Y-121747088D01*
X123759829Y-121747087D01*
X123759824Y-121747081D01*
X123634458Y-121621715D01*
X123634452Y-121621710D01*
X123489201Y-121532118D01*
X123441726Y-121479335D01*
X123430323Y-121409260D01*
X123458615Y-121344145D01*
X123466256Y-121335784D01*
X123596623Y-121205417D01*
X123722263Y-121032490D01*
X123819306Y-120842032D01*
X123819309Y-120842026D01*
X123885359Y-120638744D01*
X123895498Y-120574740D01*
X122837636Y-120574740D01*
X122878430Y-120504083D01*
X122910800Y-120383275D01*
X122910800Y-120258205D01*
X122878430Y-120137397D01*
X122837636Y-120066740D01*
X123895497Y-120066740D01*
X123885359Y-120002735D01*
X123819309Y-119799453D01*
X123819306Y-119799447D01*
X123722263Y-119608989D01*
X123596622Y-119436060D01*
X123445479Y-119284917D01*
X123291418Y-119172985D01*
X123248064Y-119116762D01*
X123241989Y-119046026D01*
X123275121Y-118983235D01*
X123291412Y-118969117D01*
X123445804Y-118856946D01*
X123597006Y-118705744D01*
X123722694Y-118532749D01*
X123819772Y-118342223D01*
X123885849Y-118138856D01*
X123919300Y-117927656D01*
X123919300Y-117713824D01*
X123885849Y-117502624D01*
X123819772Y-117299257D01*
X123722694Y-117108731D01*
X123722687Y-117108721D01*
X123718362Y-117102767D01*
X123694505Y-117035898D01*
X123694300Y-117028709D01*
X123694300Y-113821697D01*
X123694300Y-113821694D01*
X123663312Y-113626040D01*
X123602098Y-113437643D01*
X123512166Y-113261142D01*
X123395730Y-113100882D01*
X123255658Y-112960810D01*
X122716204Y-112421356D01*
X120955663Y-110660814D01*
X120955660Y-110660811D01*
X120795401Y-110544376D01*
X120795400Y-110544375D01*
X120795398Y-110544374D01*
X120618897Y-110454442D01*
X120430500Y-110393228D01*
X120234846Y-110362240D01*
X120234843Y-110362240D01*
X104820300Y-110362240D01*
X104752179Y-110342238D01*
X104705686Y-110288582D01*
X104694300Y-110236240D01*
X104694300Y-106571697D01*
X104694300Y-106571694D01*
X104663312Y-106376040D01*
X104640467Y-106305729D01*
X104634300Y-106266793D01*
X104634300Y-105455505D01*
X104654302Y-105387384D01*
X104659424Y-105380006D01*
X104676689Y-105356944D01*
X104727789Y-105219941D01*
X104734300Y-105159378D01*
X104734300Y-103362102D01*
X104734299Y-103362090D01*
X104727790Y-103301543D01*
X104727789Y-103301541D01*
X104727789Y-103301539D01*
X104724083Y-103291605D01*
X104719017Y-103220791D01*
X104753040Y-103158477D01*
X104815351Y-103124450D01*
X104853992Y-103122129D01*
X104910465Y-103127467D01*
G37*
G04 #@! TD.AperFunction*
G04 #@! TA.AperFunction,Conductor*
G36*
X119630443Y-112899242D02*
G01*
X119651417Y-112916145D01*
X121140395Y-114405123D01*
X121174421Y-114467435D01*
X121177300Y-114494218D01*
X121177300Y-117028709D01*
X121157298Y-117096830D01*
X121153238Y-117102767D01*
X121148912Y-117108721D01*
X121148910Y-117108724D01*
X121051829Y-117299255D01*
X121051826Y-117299261D01*
X120985752Y-117502618D01*
X120985751Y-117502623D01*
X120985751Y-117502624D01*
X120952300Y-117713824D01*
X120952300Y-117927656D01*
X120985751Y-118138856D01*
X120985752Y-118138861D01*
X121014602Y-118227652D01*
X121051828Y-118342223D01*
X121148906Y-118532749D01*
X121274594Y-118705744D01*
X121274596Y-118705746D01*
X121274598Y-118705749D01*
X121425790Y-118856941D01*
X121425793Y-118856943D01*
X121425796Y-118856946D01*
X121580181Y-118969113D01*
X121623535Y-119025335D01*
X121629610Y-119096071D01*
X121596479Y-119158863D01*
X121580182Y-119172985D01*
X121426116Y-119284921D01*
X121274977Y-119436060D01*
X121149336Y-119608989D01*
X121052293Y-119799447D01*
X121052290Y-119799453D01*
X120986240Y-120002735D01*
X120976102Y-120066740D01*
X122033964Y-120066740D01*
X121993170Y-120137397D01*
X121960800Y-120258205D01*
X121960800Y-120383275D01*
X121993170Y-120504083D01*
X122033964Y-120574740D01*
X120976102Y-120574740D01*
X120986240Y-120638744D01*
X121052290Y-120842026D01*
X121052293Y-120842032D01*
X121149336Y-121032490D01*
X121274977Y-121205419D01*
X121405343Y-121335785D01*
X121439369Y-121398097D01*
X121434304Y-121468912D01*
X121391757Y-121525748D01*
X121382403Y-121532115D01*
X121333671Y-121562174D01*
X121237147Y-121621710D01*
X121237141Y-121621715D01*
X121111775Y-121747081D01*
X121111770Y-121747087D01*
X121063697Y-121825026D01*
X121018685Y-121898002D01*
X120962913Y-122066314D01*
X120962122Y-122074049D01*
X120935302Y-122139781D01*
X120877199Y-122180580D01*
X120836776Y-122187240D01*
X120550394Y-122187240D01*
X120482273Y-122167238D01*
X120461299Y-122150335D01*
X119506205Y-121195241D01*
X119472179Y-121132929D01*
X119469300Y-121106146D01*
X119469300Y-116258347D01*
X119469299Y-116258343D01*
X119444955Y-116135955D01*
X119430968Y-116102187D01*
X119397201Y-116020665D01*
X119327872Y-115916907D01*
X119327867Y-115916901D01*
X116539635Y-113128671D01*
X116539633Y-113128669D01*
X116511699Y-113110004D01*
X116466173Y-113055529D01*
X116457324Y-112985086D01*
X116487965Y-112921042D01*
X116548366Y-112883730D01*
X116581702Y-112879240D01*
X119562322Y-112879240D01*
X119630443Y-112899242D01*
G37*
G04 #@! TD.AperFunction*
G04 #@! TA.AperFunction,Conductor*
G36*
X116936379Y-115333326D02*
G01*
X116981443Y-115362287D01*
X118165395Y-116546239D01*
X118199421Y-116608551D01*
X118202300Y-116635334D01*
X118202300Y-121069710D01*
X118182298Y-121137831D01*
X118128642Y-121184324D01*
X118058368Y-121194428D01*
X117993788Y-121164934D01*
X117987205Y-121158805D01*
X116957071Y-120128671D01*
X116957069Y-120128669D01*
X116853311Y-120059340D01*
X116738021Y-120011585D01*
X116705686Y-120005153D01*
X116642779Y-119972246D01*
X116618002Y-119938776D01*
X116602693Y-119908729D01*
X116523299Y-119799453D01*
X116477006Y-119735736D01*
X116477003Y-119735733D01*
X116477001Y-119735730D01*
X116325809Y-119584538D01*
X116325806Y-119584536D01*
X116325804Y-119584534D01*
X116171843Y-119472675D01*
X116128490Y-119416454D01*
X116122415Y-119345718D01*
X116155546Y-119282926D01*
X116171844Y-119268804D01*
X116325804Y-119156946D01*
X116477006Y-119005744D01*
X116602694Y-118832749D01*
X116699772Y-118642223D01*
X116765849Y-118438856D01*
X116799300Y-118227656D01*
X116799300Y-118013824D01*
X116765849Y-117802624D01*
X116699772Y-117599257D01*
X116602694Y-117408731D01*
X116477006Y-117235736D01*
X116477003Y-117235733D01*
X116477001Y-117235730D01*
X116346331Y-117105060D01*
X116312305Y-117042748D01*
X116317370Y-116971933D01*
X116359917Y-116915097D01*
X116369280Y-116908724D01*
X116514136Y-116819376D01*
X116514145Y-116819369D01*
X116639429Y-116694085D01*
X116639434Y-116694079D01*
X116732457Y-116543265D01*
X116788193Y-116375061D01*
X116788194Y-116375058D01*
X116798799Y-116271256D01*
X116798800Y-116271256D01*
X116798800Y-115874740D01*
X115717636Y-115874740D01*
X115758430Y-115804083D01*
X115790800Y-115683275D01*
X115790800Y-115558205D01*
X115758430Y-115437397D01*
X115717636Y-115366740D01*
X116798799Y-115366740D01*
X116803251Y-115362288D01*
X116865563Y-115328262D01*
X116936379Y-115333326D01*
G37*
G04 #@! TD.AperFunction*
G04 #@! TA.AperFunction,Conductor*
G36*
X100369875Y-104453733D02*
G01*
X100435701Y-104567747D01*
X100528793Y-104660839D01*
X100642807Y-104726665D01*
X100710851Y-104744897D01*
X100071631Y-105384118D01*
X100124049Y-105422203D01*
X100124051Y-105422204D01*
X100314507Y-105519246D01*
X100314513Y-105519249D01*
X100517796Y-105585299D01*
X100728926Y-105618740D01*
X100942674Y-105618740D01*
X101153803Y-105585299D01*
X101357086Y-105519249D01*
X101357092Y-105519246D01*
X101547550Y-105422203D01*
X101599967Y-105384118D01*
X101599967Y-105384116D01*
X100960748Y-104744897D01*
X101028793Y-104726665D01*
X101142807Y-104660839D01*
X101235899Y-104567747D01*
X101301725Y-104453733D01*
X101319957Y-104385688D01*
X101980395Y-105046126D01*
X102014421Y-105108438D01*
X102017300Y-105135221D01*
X102017300Y-105159389D01*
X102023809Y-105219936D01*
X102052533Y-105296946D01*
X102074911Y-105356944D01*
X102092167Y-105379995D01*
X102116979Y-105446514D01*
X102117300Y-105455505D01*
X102117300Y-106709786D01*
X102148288Y-106905440D01*
X102148289Y-106905443D01*
X102171133Y-106975748D01*
X102177300Y-107014685D01*
X102177300Y-108173237D01*
X102157298Y-108241358D01*
X102103642Y-108287851D01*
X102033368Y-108297955D01*
X101968788Y-108268461D01*
X101962205Y-108262332D01*
X101914937Y-108215064D01*
X101914935Y-108215062D01*
X101766136Y-108115638D01*
X101649229Y-108067213D01*
X101600803Y-108047154D01*
X101600801Y-108047153D01*
X101600800Y-108047153D01*
X101512445Y-108029578D01*
X101425281Y-108012240D01*
X101425279Y-108012240D01*
X101246321Y-108012240D01*
X101246318Y-108012240D01*
X101070794Y-108047154D01*
X100951745Y-108096467D01*
X100881156Y-108104056D01*
X100817669Y-108072277D01*
X100814432Y-108069153D01*
X98966205Y-106220926D01*
X98932179Y-106158614D01*
X98929300Y-106131831D01*
X98929300Y-105539848D01*
X98949302Y-105471727D01*
X98998097Y-105427582D01*
X99007809Y-105422634D01*
X99180804Y-105296946D01*
X99180809Y-105296941D01*
X99230750Y-105247001D01*
X99332001Y-105145749D01*
X99332006Y-105145744D01*
X99457694Y-104972749D01*
X99457702Y-104972732D01*
X99458654Y-104971181D01*
X99459177Y-104970707D01*
X99460604Y-104968744D01*
X99461016Y-104969043D01*
X99511297Y-104923544D01*
X99581337Y-104911929D01*
X99646538Y-104940025D01*
X99671285Y-104968582D01*
X99671424Y-104968482D01*
X99672594Y-104970093D01*
X99673526Y-104971168D01*
X99674336Y-104972490D01*
X99712420Y-105024907D01*
X99712421Y-105024908D01*
X100351641Y-104385687D01*
X100369875Y-104453733D01*
G37*
G04 #@! TD.AperFunction*
G04 #@! TA.AperFunction,Conductor*
G36*
X100090814Y-102911174D02*
G01*
X100137307Y-102964830D01*
X100147411Y-103035104D01*
X100117917Y-103099684D01*
X100096755Y-103119108D01*
X100071631Y-103137361D01*
X100071631Y-103137362D01*
X100710851Y-103776582D01*
X100642807Y-103794815D01*
X100528793Y-103860641D01*
X100435701Y-103953733D01*
X100369875Y-104067747D01*
X100351642Y-104135791D01*
X99712422Y-103496571D01*
X99712421Y-103496571D01*
X99674328Y-103549001D01*
X99673524Y-103550314D01*
X99673088Y-103550707D01*
X99671424Y-103552999D01*
X99670942Y-103552649D01*
X99620875Y-103597943D01*
X99550833Y-103609547D01*
X99485636Y-103581442D01*
X99460701Y-103552664D01*
X99460604Y-103552736D01*
X99459775Y-103551595D01*
X99458659Y-103550307D01*
X99457699Y-103548741D01*
X99457694Y-103548731D01*
X99332006Y-103375736D01*
X99332003Y-103375733D01*
X99332001Y-103375730D01*
X99180809Y-103224538D01*
X99180806Y-103224536D01*
X99180804Y-103224534D01*
X99068457Y-103142909D01*
X99025103Y-103086687D01*
X99019028Y-103015950D01*
X99052160Y-102953159D01*
X99113980Y-102918247D01*
X99138556Y-102915035D01*
X99895935Y-102891233D01*
X99899893Y-102891172D01*
X100022693Y-102891172D01*
X100090814Y-102911174D01*
G37*
G04 #@! TD.AperFunction*
G04 #@! TA.AperFunction,Conductor*
G36*
X102011653Y-102918134D02*
G01*
X102079112Y-102940266D01*
X102123896Y-102995356D01*
X102131788Y-103065912D01*
X102108563Y-103119581D01*
X102074913Y-103164532D01*
X102074910Y-103164537D01*
X102023811Y-103301535D01*
X102023809Y-103301543D01*
X102017300Y-103362090D01*
X102017300Y-103386258D01*
X101997298Y-103454379D01*
X101980396Y-103475353D01*
X101319957Y-104135791D01*
X101301725Y-104067747D01*
X101235899Y-103953733D01*
X101142807Y-103860641D01*
X101028793Y-103794815D01*
X100960747Y-103776581D01*
X101599968Y-103137361D01*
X101599967Y-103137360D01*
X101597322Y-103135438D01*
X101553968Y-103079215D01*
X101547894Y-103008479D01*
X101581027Y-102945687D01*
X101642847Y-102910777D01*
X101675339Y-102907565D01*
X102011653Y-102918134D01*
G37*
G04 #@! TD.AperFunction*
M02*
