G04 #@! TF.GenerationSoftware,KiCad,Pcbnew,(5.1.5)-3*
G04 #@! TF.CreationDate,2020-06-25T10:39:46+02:00*
G04 #@! TF.ProjectId,StepperClockK02,53746570-7065-4724-936c-6f636b4b3032,v1.0*
G04 #@! TF.SameCoordinates,Original*
G04 #@! TF.FileFunction,Legend,Bot*
G04 #@! TF.FilePolarity,Positive*
%FSLAX46Y46*%
G04 Gerber Fmt 4.6, Leading zero omitted, Abs format (unit mm)*
G04 Created by KiCad (PCBNEW (5.1.5)-3) date 2020-06-25 10:39:46*
%MOMM*%
%LPD*%
G04 APERTURE LIST*
%ADD10C,0.100000*%
%ADD11C,0.120000*%
%ADD12C,0.010000*%
%ADD13C,0.150000*%
G04 APERTURE END LIST*
D10*
X82059133Y-161927406D02*
X82059133Y-161227406D01*
X81825800Y-161727406D01*
X81592466Y-161227406D01*
X81592466Y-161927406D01*
X81159133Y-161927406D02*
X81225800Y-161894073D01*
X81259133Y-161860740D01*
X81292466Y-161794073D01*
X81292466Y-161594073D01*
X81259133Y-161527406D01*
X81225800Y-161494073D01*
X81159133Y-161460740D01*
X81059133Y-161460740D01*
X80992466Y-161494073D01*
X80959133Y-161527406D01*
X80925800Y-161594073D01*
X80925800Y-161794073D01*
X80959133Y-161860740D01*
X80992466Y-161894073D01*
X81059133Y-161927406D01*
X81159133Y-161927406D01*
X80725800Y-161460740D02*
X80459133Y-161460740D01*
X80625800Y-161227406D02*
X80625800Y-161827406D01*
X80592466Y-161894073D01*
X80525800Y-161927406D01*
X80459133Y-161927406D01*
X80125800Y-161927406D02*
X80192466Y-161894073D01*
X80225800Y-161860740D01*
X80259133Y-161794073D01*
X80259133Y-161594073D01*
X80225800Y-161527406D01*
X80192466Y-161494073D01*
X80125800Y-161460740D01*
X80025800Y-161460740D01*
X79959133Y-161494073D01*
X79925800Y-161527406D01*
X79892466Y-161594073D01*
X79892466Y-161794073D01*
X79925800Y-161860740D01*
X79959133Y-161894073D01*
X80025800Y-161927406D01*
X80125800Y-161927406D01*
X79592466Y-161927406D02*
X79592466Y-161460740D01*
X79592466Y-161594073D02*
X79559133Y-161527406D01*
X79525800Y-161494073D01*
X79459133Y-161460740D01*
X79392466Y-161460740D01*
X78659133Y-161294073D02*
X78625800Y-161260740D01*
X78559133Y-161227406D01*
X78392466Y-161227406D01*
X78325800Y-161260740D01*
X78292466Y-161294073D01*
X78259133Y-161360740D01*
X78259133Y-161427406D01*
X78292466Y-161527406D01*
X78692466Y-161927406D01*
X78259133Y-161927406D01*
X82259133Y-170077406D02*
X82259133Y-169377406D01*
X82025800Y-169877406D01*
X81792466Y-169377406D01*
X81792466Y-170077406D01*
X81359133Y-170077406D02*
X81425800Y-170044073D01*
X81459133Y-170010740D01*
X81492466Y-169944073D01*
X81492466Y-169744073D01*
X81459133Y-169677406D01*
X81425800Y-169644073D01*
X81359133Y-169610740D01*
X81259133Y-169610740D01*
X81192466Y-169644073D01*
X81159133Y-169677406D01*
X81125800Y-169744073D01*
X81125800Y-169944073D01*
X81159133Y-170010740D01*
X81192466Y-170044073D01*
X81259133Y-170077406D01*
X81359133Y-170077406D01*
X80925800Y-169610740D02*
X80659133Y-169610740D01*
X80825800Y-169377406D02*
X80825800Y-169977406D01*
X80792466Y-170044073D01*
X80725800Y-170077406D01*
X80659133Y-170077406D01*
X80325800Y-170077406D02*
X80392466Y-170044073D01*
X80425800Y-170010740D01*
X80459133Y-169944073D01*
X80459133Y-169744073D01*
X80425800Y-169677406D01*
X80392466Y-169644073D01*
X80325800Y-169610740D01*
X80225800Y-169610740D01*
X80159133Y-169644073D01*
X80125800Y-169677406D01*
X80092466Y-169744073D01*
X80092466Y-169944073D01*
X80125800Y-170010740D01*
X80159133Y-170044073D01*
X80225800Y-170077406D01*
X80325800Y-170077406D01*
X79792466Y-170077406D02*
X79792466Y-169610740D01*
X79792466Y-169744073D02*
X79759133Y-169677406D01*
X79725800Y-169644073D01*
X79659133Y-169610740D01*
X79592466Y-169610740D01*
X78892466Y-169377406D02*
X78459133Y-169377406D01*
X78692466Y-169644073D01*
X78592466Y-169644073D01*
X78525800Y-169677406D01*
X78492466Y-169710740D01*
X78459133Y-169777406D01*
X78459133Y-169944073D01*
X78492466Y-170010740D01*
X78525800Y-170044073D01*
X78592466Y-170077406D01*
X78792466Y-170077406D01*
X78859133Y-170044073D01*
X78892466Y-170010740D01*
X121059133Y-169007406D02*
X121392466Y-169007406D01*
X121425800Y-169340740D01*
X121392466Y-169307406D01*
X121325800Y-169274073D01*
X121159133Y-169274073D01*
X121092466Y-169307406D01*
X121059133Y-169340740D01*
X121025800Y-169407406D01*
X121025800Y-169574073D01*
X121059133Y-169640740D01*
X121092466Y-169674073D01*
X121159133Y-169707406D01*
X121325800Y-169707406D01*
X121392466Y-169674073D01*
X121425800Y-169640740D01*
X120825800Y-169007406D02*
X120592466Y-169707406D01*
X120359133Y-169007406D01*
X121109133Y-171427406D02*
X121442466Y-171427406D01*
X121475800Y-171760740D01*
X121442466Y-171727406D01*
X121375800Y-171694073D01*
X121209133Y-171694073D01*
X121142466Y-171727406D01*
X121109133Y-171760740D01*
X121075800Y-171827406D01*
X121075800Y-171994073D01*
X121109133Y-172060740D01*
X121142466Y-172094073D01*
X121209133Y-172127406D01*
X121375800Y-172127406D01*
X121442466Y-172094073D01*
X121475800Y-172060740D01*
X120875800Y-171427406D02*
X120642466Y-172127406D01*
X120409133Y-171427406D01*
X109049133Y-171637406D02*
X109382466Y-171637406D01*
X109415800Y-171970740D01*
X109382466Y-171937406D01*
X109315800Y-171904073D01*
X109149133Y-171904073D01*
X109082466Y-171937406D01*
X109049133Y-171970740D01*
X109015800Y-172037406D01*
X109015800Y-172204073D01*
X109049133Y-172270740D01*
X109082466Y-172304073D01*
X109149133Y-172337406D01*
X109315800Y-172337406D01*
X109382466Y-172304073D01*
X109415800Y-172270740D01*
X108815800Y-171637406D02*
X108582466Y-172337406D01*
X108349133Y-171637406D01*
X108969133Y-168877406D02*
X109302466Y-168877406D01*
X109335800Y-169210740D01*
X109302466Y-169177406D01*
X109235800Y-169144073D01*
X109069133Y-169144073D01*
X109002466Y-169177406D01*
X108969133Y-169210740D01*
X108935800Y-169277406D01*
X108935800Y-169444073D01*
X108969133Y-169510740D01*
X109002466Y-169544073D01*
X109069133Y-169577406D01*
X109235800Y-169577406D01*
X109302466Y-169544073D01*
X109335800Y-169510740D01*
X108735800Y-168877406D02*
X108502466Y-169577406D01*
X108269133Y-168877406D01*
X108989133Y-166490740D02*
X109055800Y-166457406D01*
X109155800Y-166457406D01*
X109255800Y-166490740D01*
X109322466Y-166557406D01*
X109355800Y-166624073D01*
X109389133Y-166757406D01*
X109389133Y-166857406D01*
X109355800Y-166990740D01*
X109322466Y-167057406D01*
X109255800Y-167124073D01*
X109155800Y-167157406D01*
X109089133Y-167157406D01*
X108989133Y-167124073D01*
X108955800Y-167090740D01*
X108955800Y-166857406D01*
X109089133Y-166857406D01*
X108655800Y-167157406D02*
X108655800Y-166457406D01*
X108255800Y-167157406D01*
X108255800Y-166457406D01*
X107922466Y-167157406D02*
X107922466Y-166457406D01*
X107755800Y-166457406D01*
X107655800Y-166490740D01*
X107589133Y-166557406D01*
X107555800Y-166624073D01*
X107522466Y-166757406D01*
X107522466Y-166857406D01*
X107555800Y-166990740D01*
X107589133Y-167057406D01*
X107655800Y-167124073D01*
X107755800Y-167157406D01*
X107922466Y-167157406D01*
X109119133Y-163940740D02*
X109185800Y-163907406D01*
X109285800Y-163907406D01*
X109385800Y-163940740D01*
X109452466Y-164007406D01*
X109485800Y-164074073D01*
X109519133Y-164207406D01*
X109519133Y-164307406D01*
X109485800Y-164440740D01*
X109452466Y-164507406D01*
X109385800Y-164574073D01*
X109285800Y-164607406D01*
X109219133Y-164607406D01*
X109119133Y-164574073D01*
X109085800Y-164540740D01*
X109085800Y-164307406D01*
X109219133Y-164307406D01*
X108785800Y-164607406D02*
X108785800Y-163907406D01*
X108385800Y-164607406D01*
X108385800Y-163907406D01*
X108052466Y-164607406D02*
X108052466Y-163907406D01*
X107885800Y-163907406D01*
X107785800Y-163940740D01*
X107719133Y-164007406D01*
X107685800Y-164074073D01*
X107652466Y-164207406D01*
X107652466Y-164307406D01*
X107685800Y-164440740D01*
X107719133Y-164507406D01*
X107785800Y-164574073D01*
X107885800Y-164607406D01*
X108052466Y-164607406D01*
X121869133Y-166520740D02*
X121935800Y-166487406D01*
X122035800Y-166487406D01*
X122135800Y-166520740D01*
X122202466Y-166587406D01*
X122235800Y-166654073D01*
X122269133Y-166787406D01*
X122269133Y-166887406D01*
X122235800Y-167020740D01*
X122202466Y-167087406D01*
X122135800Y-167154073D01*
X122035800Y-167187406D01*
X121969133Y-167187406D01*
X121869133Y-167154073D01*
X121835800Y-167120740D01*
X121835800Y-166887406D01*
X121969133Y-166887406D01*
X121535800Y-167187406D02*
X121535800Y-166487406D01*
X121135800Y-167187406D01*
X121135800Y-166487406D01*
X120802466Y-167187406D02*
X120802466Y-166487406D01*
X120635800Y-166487406D01*
X120535800Y-166520740D01*
X120469133Y-166587406D01*
X120435800Y-166654073D01*
X120402466Y-166787406D01*
X120402466Y-166887406D01*
X120435800Y-167020740D01*
X120469133Y-167087406D01*
X120535800Y-167154073D01*
X120635800Y-167187406D01*
X120802466Y-167187406D01*
X121979133Y-163940740D02*
X122045800Y-163907406D01*
X122145800Y-163907406D01*
X122245800Y-163940740D01*
X122312466Y-164007406D01*
X122345800Y-164074073D01*
X122379133Y-164207406D01*
X122379133Y-164307406D01*
X122345800Y-164440740D01*
X122312466Y-164507406D01*
X122245800Y-164574073D01*
X122145800Y-164607406D01*
X122079133Y-164607406D01*
X121979133Y-164574073D01*
X121945800Y-164540740D01*
X121945800Y-164307406D01*
X122079133Y-164307406D01*
X121645800Y-164607406D02*
X121645800Y-163907406D01*
X121245800Y-164607406D01*
X121245800Y-163907406D01*
X120912466Y-164607406D02*
X120912466Y-163907406D01*
X120745800Y-163907406D01*
X120645800Y-163940740D01*
X120579133Y-164007406D01*
X120545800Y-164074073D01*
X120512466Y-164207406D01*
X120512466Y-164307406D01*
X120545800Y-164440740D01*
X120579133Y-164507406D01*
X120645800Y-164574073D01*
X120745800Y-164607406D01*
X120912466Y-164607406D01*
X94485800Y-120677406D02*
X94485800Y-119977406D01*
X94252466Y-120477406D01*
X94019133Y-119977406D01*
X94019133Y-120677406D01*
X93385800Y-120677406D02*
X93385800Y-120310740D01*
X93419133Y-120244073D01*
X93485800Y-120210740D01*
X93619133Y-120210740D01*
X93685800Y-120244073D01*
X93385800Y-120644073D02*
X93452466Y-120677406D01*
X93619133Y-120677406D01*
X93685800Y-120644073D01*
X93719133Y-120577406D01*
X93719133Y-120510740D01*
X93685800Y-120444073D01*
X93619133Y-120410740D01*
X93452466Y-120410740D01*
X93385800Y-120377406D01*
X92752466Y-120210740D02*
X92752466Y-120777406D01*
X92785800Y-120844073D01*
X92819133Y-120877406D01*
X92885800Y-120910740D01*
X92985800Y-120910740D01*
X93052466Y-120877406D01*
X92752466Y-120644073D02*
X92819133Y-120677406D01*
X92952466Y-120677406D01*
X93019133Y-120644073D01*
X93052466Y-120610740D01*
X93085800Y-120544073D01*
X93085800Y-120344073D01*
X93052466Y-120277406D01*
X93019133Y-120244073D01*
X92952466Y-120210740D01*
X92819133Y-120210740D01*
X92752466Y-120244073D01*
X92485800Y-119977406D02*
X92052466Y-119977406D01*
X92285800Y-120244073D01*
X92185800Y-120244073D01*
X92119133Y-120277406D01*
X92085800Y-120310740D01*
X92052466Y-120377406D01*
X92052466Y-120544073D01*
X92085800Y-120610740D01*
X92119133Y-120644073D01*
X92185800Y-120677406D01*
X92385800Y-120677406D01*
X92452466Y-120644073D01*
X92485800Y-120610740D01*
X97035800Y-120707406D02*
X97035800Y-120007406D01*
X96802466Y-120507406D01*
X96569133Y-120007406D01*
X96569133Y-120707406D01*
X95935800Y-120707406D02*
X95935800Y-120340740D01*
X95969133Y-120274073D01*
X96035800Y-120240740D01*
X96169133Y-120240740D01*
X96235800Y-120274073D01*
X95935800Y-120674073D02*
X96002466Y-120707406D01*
X96169133Y-120707406D01*
X96235800Y-120674073D01*
X96269133Y-120607406D01*
X96269133Y-120540740D01*
X96235800Y-120474073D01*
X96169133Y-120440740D01*
X96002466Y-120440740D01*
X95935800Y-120407406D01*
X95302466Y-120240740D02*
X95302466Y-120807406D01*
X95335800Y-120874073D01*
X95369133Y-120907406D01*
X95435800Y-120940740D01*
X95535800Y-120940740D01*
X95602466Y-120907406D01*
X95302466Y-120674073D02*
X95369133Y-120707406D01*
X95502466Y-120707406D01*
X95569133Y-120674073D01*
X95602466Y-120640740D01*
X95635800Y-120574073D01*
X95635800Y-120374073D01*
X95602466Y-120307406D01*
X95569133Y-120274073D01*
X95502466Y-120240740D01*
X95369133Y-120240740D01*
X95302466Y-120274073D01*
X95002466Y-120074073D02*
X94969133Y-120040740D01*
X94902466Y-120007406D01*
X94735800Y-120007406D01*
X94669133Y-120040740D01*
X94635800Y-120074073D01*
X94602466Y-120140740D01*
X94602466Y-120207406D01*
X94635800Y-120307406D01*
X95035800Y-120707406D01*
X94602466Y-120707406D01*
X99132466Y-120007406D02*
X98699133Y-120007406D01*
X98932466Y-120274073D01*
X98832466Y-120274073D01*
X98765800Y-120307406D01*
X98732466Y-120340740D01*
X98699133Y-120407406D01*
X98699133Y-120574073D01*
X98732466Y-120640740D01*
X98765800Y-120674073D01*
X98832466Y-120707406D01*
X99032466Y-120707406D01*
X99099133Y-120674073D01*
X99132466Y-120640740D01*
X98499133Y-120007406D02*
X98265800Y-120707406D01*
X98032466Y-120007406D01*
X97865800Y-120007406D02*
X97432466Y-120007406D01*
X97665800Y-120274073D01*
X97565800Y-120274073D01*
X97499133Y-120307406D01*
X97465800Y-120340740D01*
X97432466Y-120407406D01*
X97432466Y-120574073D01*
X97465800Y-120640740D01*
X97499133Y-120674073D01*
X97565800Y-120707406D01*
X97765800Y-120707406D01*
X97832466Y-120674073D01*
X97865800Y-120640740D01*
X91489133Y-119990740D02*
X91555800Y-119957406D01*
X91655800Y-119957406D01*
X91755800Y-119990740D01*
X91822466Y-120057406D01*
X91855800Y-120124073D01*
X91889133Y-120257406D01*
X91889133Y-120357406D01*
X91855800Y-120490740D01*
X91822466Y-120557406D01*
X91755800Y-120624073D01*
X91655800Y-120657406D01*
X91589133Y-120657406D01*
X91489133Y-120624073D01*
X91455800Y-120590740D01*
X91455800Y-120357406D01*
X91589133Y-120357406D01*
X91155800Y-120657406D02*
X91155800Y-119957406D01*
X90755800Y-120657406D01*
X90755800Y-119957406D01*
X90422466Y-120657406D02*
X90422466Y-119957406D01*
X90255800Y-119957406D01*
X90155800Y-119990740D01*
X90089133Y-120057406D01*
X90055800Y-120124073D01*
X90022466Y-120257406D01*
X90022466Y-120357406D01*
X90055800Y-120490740D01*
X90089133Y-120557406D01*
X90155800Y-120624073D01*
X90255800Y-120657406D01*
X90422466Y-120657406D01*
X117702466Y-123057406D02*
X117369133Y-123057406D01*
X117769133Y-123257406D02*
X117535800Y-122557406D01*
X117302466Y-123257406D01*
X124932466Y-123027406D02*
X124599133Y-123027406D01*
X124999133Y-123227406D02*
X124765800Y-122527406D01*
X124532466Y-123227406D01*
X124835800Y-120510740D02*
X124735800Y-120544073D01*
X124702466Y-120577406D01*
X124669133Y-120644073D01*
X124669133Y-120744073D01*
X124702466Y-120810740D01*
X124735800Y-120844073D01*
X124802466Y-120877406D01*
X125069133Y-120877406D01*
X125069133Y-120177406D01*
X124835800Y-120177406D01*
X124769133Y-120210740D01*
X124735800Y-120244073D01*
X124702466Y-120310740D01*
X124702466Y-120377406D01*
X124735800Y-120444073D01*
X124769133Y-120477406D01*
X124835800Y-120510740D01*
X125069133Y-120510740D01*
X117485800Y-120490740D02*
X117385800Y-120524073D01*
X117352466Y-120557406D01*
X117319133Y-120624073D01*
X117319133Y-120724073D01*
X117352466Y-120790740D01*
X117385800Y-120824073D01*
X117452466Y-120857406D01*
X117719133Y-120857406D01*
X117719133Y-120157406D01*
X117485800Y-120157406D01*
X117419133Y-120190740D01*
X117385800Y-120224073D01*
X117352466Y-120290740D01*
X117352466Y-120357406D01*
X117385800Y-120424073D01*
X117419133Y-120457406D01*
X117485800Y-120490740D01*
X117719133Y-120490740D01*
X121542466Y-112537406D02*
X121542466Y-111837406D01*
X121375800Y-111837406D01*
X121275800Y-111870740D01*
X121209133Y-111937406D01*
X121175800Y-112004073D01*
X121142466Y-112137406D01*
X121142466Y-112237406D01*
X121175800Y-112370740D01*
X121209133Y-112437406D01*
X121275800Y-112504073D01*
X121375800Y-112537406D01*
X121542466Y-112537406D01*
X120842466Y-112537406D02*
X120842466Y-111837406D01*
X120509133Y-112537406D02*
X120509133Y-111837406D01*
X120109133Y-112537406D01*
X120109133Y-111837406D01*
X118789133Y-111920740D02*
X118855800Y-111887406D01*
X118955800Y-111887406D01*
X119055800Y-111920740D01*
X119122466Y-111987406D01*
X119155800Y-112054073D01*
X119189133Y-112187406D01*
X119189133Y-112287406D01*
X119155800Y-112420740D01*
X119122466Y-112487406D01*
X119055800Y-112554073D01*
X118955800Y-112587406D01*
X118889133Y-112587406D01*
X118789133Y-112554073D01*
X118755800Y-112520740D01*
X118755800Y-112287406D01*
X118889133Y-112287406D01*
X118455800Y-112587406D02*
X118455800Y-111887406D01*
X118055800Y-112587406D01*
X118055800Y-111887406D01*
X117722466Y-112587406D02*
X117722466Y-111887406D01*
X117555800Y-111887406D01*
X117455800Y-111920740D01*
X117389133Y-111987406D01*
X117355800Y-112054073D01*
X117322466Y-112187406D01*
X117322466Y-112287406D01*
X117355800Y-112420740D01*
X117389133Y-112487406D01*
X117455800Y-112554073D01*
X117555800Y-112587406D01*
X117722466Y-112587406D01*
X115829133Y-111857406D02*
X116162466Y-111857406D01*
X116195800Y-112190740D01*
X116162466Y-112157406D01*
X116095800Y-112124073D01*
X115929133Y-112124073D01*
X115862466Y-112157406D01*
X115829133Y-112190740D01*
X115795800Y-112257406D01*
X115795800Y-112424073D01*
X115829133Y-112490740D01*
X115862466Y-112524073D01*
X115929133Y-112557406D01*
X116095800Y-112557406D01*
X116162466Y-112524073D01*
X116195800Y-112490740D01*
X115595800Y-111857406D02*
X115362466Y-112557406D01*
X115129133Y-111857406D01*
X98632466Y-106444073D02*
X97932466Y-106444073D01*
X97932466Y-106610740D01*
X97965800Y-106710740D01*
X98032466Y-106777406D01*
X98099133Y-106810740D01*
X98232466Y-106844073D01*
X98332466Y-106844073D01*
X98465800Y-106810740D01*
X98532466Y-106777406D01*
X98599133Y-106710740D01*
X98632466Y-106610740D01*
X98632466Y-106444073D01*
X98632466Y-107144073D02*
X97932466Y-107144073D01*
X98632466Y-107477406D02*
X97932466Y-107477406D01*
X98632466Y-107877406D01*
X97932466Y-107877406D01*
X103022466Y-107167406D02*
X103022466Y-106834073D01*
X103355800Y-106800740D01*
X103322466Y-106834073D01*
X103289133Y-106900740D01*
X103289133Y-107067406D01*
X103322466Y-107134073D01*
X103355800Y-107167406D01*
X103422466Y-107200740D01*
X103589133Y-107200740D01*
X103655800Y-107167406D01*
X103689133Y-107134073D01*
X103722466Y-107067406D01*
X103722466Y-106900740D01*
X103689133Y-106834073D01*
X103655800Y-106800740D01*
X103022466Y-107400740D02*
X103722466Y-107634073D01*
X103022466Y-107867406D01*
X103609133Y-179327406D02*
X103942466Y-179327406D01*
X103975800Y-179660740D01*
X103942466Y-179627406D01*
X103875800Y-179594073D01*
X103709133Y-179594073D01*
X103642466Y-179627406D01*
X103609133Y-179660740D01*
X103575800Y-179727406D01*
X103575800Y-179894073D01*
X103609133Y-179960740D01*
X103642466Y-179994073D01*
X103709133Y-180027406D01*
X103875800Y-180027406D01*
X103942466Y-179994073D01*
X103975800Y-179960740D01*
X103375800Y-179327406D02*
X103142466Y-180027406D01*
X102909133Y-179327406D01*
X98609133Y-179207406D02*
X98942466Y-179207406D01*
X98975800Y-179540740D01*
X98942466Y-179507406D01*
X98875800Y-179474073D01*
X98709133Y-179474073D01*
X98642466Y-179507406D01*
X98609133Y-179540740D01*
X98575800Y-179607406D01*
X98575800Y-179774073D01*
X98609133Y-179840740D01*
X98642466Y-179874073D01*
X98709133Y-179907406D01*
X98875800Y-179907406D01*
X98942466Y-179874073D01*
X98975800Y-179840740D01*
X98375800Y-179207406D02*
X98142466Y-179907406D01*
X97909133Y-179207406D01*
X100505800Y-106647406D02*
X100472466Y-106580740D01*
X100472466Y-106480740D01*
X100505800Y-106380740D01*
X100572466Y-106314073D01*
X100639133Y-106280740D01*
X100772466Y-106247406D01*
X100872466Y-106247406D01*
X101005800Y-106280740D01*
X101072466Y-106314073D01*
X101139133Y-106380740D01*
X101172466Y-106480740D01*
X101172466Y-106547406D01*
X101139133Y-106647406D01*
X101105800Y-106680740D01*
X100872466Y-106680740D01*
X100872466Y-106547406D01*
X101172466Y-106980740D02*
X100472466Y-106980740D01*
X101172466Y-107380740D01*
X100472466Y-107380740D01*
X101172466Y-107714073D02*
X100472466Y-107714073D01*
X100472466Y-107880740D01*
X100505800Y-107980740D01*
X100572466Y-108047406D01*
X100639133Y-108080740D01*
X100772466Y-108114073D01*
X100872466Y-108114073D01*
X101005800Y-108080740D01*
X101072466Y-108047406D01*
X101139133Y-107980740D01*
X101172466Y-107880740D01*
X101172466Y-107714073D01*
X101009133Y-179207406D02*
X101342466Y-179207406D01*
X101375800Y-179540740D01*
X101342466Y-179507406D01*
X101275800Y-179474073D01*
X101109133Y-179474073D01*
X101042466Y-179507406D01*
X101009133Y-179540740D01*
X100975800Y-179607406D01*
X100975800Y-179774073D01*
X101009133Y-179840740D01*
X101042466Y-179874073D01*
X101109133Y-179907406D01*
X101275800Y-179907406D01*
X101342466Y-179874073D01*
X101375800Y-179840740D01*
X100775800Y-179207406D02*
X100542466Y-179907406D01*
X100309133Y-179207406D01*
D11*
X96967800Y-182880740D02*
X96967800Y-180220740D01*
X102107800Y-182880740D02*
X96967800Y-182880740D01*
X102107800Y-180220740D02*
X96967800Y-180220740D01*
X102107800Y-182880740D02*
X102107800Y-180220740D01*
X103377800Y-182880740D02*
X104707800Y-182880740D01*
X104707800Y-182880740D02*
X104707800Y-181550740D01*
X96965800Y-105590740D02*
X96965800Y-102930740D01*
X102105800Y-105590740D02*
X96965800Y-105590740D01*
X102105800Y-102930740D02*
X96965800Y-102930740D01*
X102105800Y-105590740D02*
X102105800Y-102930740D01*
X103375800Y-105590740D02*
X104705800Y-105590740D01*
X104705800Y-105590740D02*
X104705800Y-104260740D01*
X120575800Y-141870740D02*
X120575800Y-142800740D01*
X120575800Y-145030740D02*
X120575800Y-144100740D01*
X120575800Y-145030740D02*
X118415800Y-145030740D01*
X120575800Y-141870740D02*
X119115800Y-141870740D01*
X134395800Y-141830740D02*
X134395800Y-142760740D01*
X134395800Y-144990740D02*
X134395800Y-144060740D01*
X134395800Y-144990740D02*
X132235800Y-144990740D01*
X134395800Y-141830740D02*
X132935800Y-141830740D01*
D12*
G36*
X94115205Y-150390720D02*
G01*
X94014877Y-150394243D01*
X93956091Y-150402554D01*
X93927867Y-150417648D01*
X93919230Y-150441522D01*
X93918800Y-150453490D01*
X93928149Y-150493172D01*
X93966966Y-150511937D01*
X94051412Y-150516965D01*
X94061675Y-150516990D01*
X94204550Y-150516990D01*
X94204550Y-150897990D01*
X94205319Y-151059314D01*
X94208684Y-151167568D01*
X94216240Y-151233173D01*
X94229578Y-151266550D01*
X94250289Y-151278120D01*
X94262759Y-151278990D01*
X94323129Y-151268624D01*
X94342134Y-151257823D01*
X94350574Y-151219361D01*
X94357417Y-151131038D01*
X94361903Y-151006489D01*
X94363300Y-150876823D01*
X94363300Y-150516990D01*
X94490300Y-150516990D01*
X94573389Y-150511664D01*
X94610110Y-150490142D01*
X94617300Y-150453490D01*
X94613281Y-150425699D01*
X94593906Y-150407458D01*
X94548198Y-150396770D01*
X94465179Y-150391638D01*
X94333873Y-150390068D01*
X94268050Y-150389990D01*
X94115205Y-150390720D01*
G37*
X94115205Y-150390720D02*
X94014877Y-150394243D01*
X93956091Y-150402554D01*
X93927867Y-150417648D01*
X93919230Y-150441522D01*
X93918800Y-150453490D01*
X93928149Y-150493172D01*
X93966966Y-150511937D01*
X94051412Y-150516965D01*
X94061675Y-150516990D01*
X94204550Y-150516990D01*
X94204550Y-150897990D01*
X94205319Y-151059314D01*
X94208684Y-151167568D01*
X94216240Y-151233173D01*
X94229578Y-151266550D01*
X94250289Y-151278120D01*
X94262759Y-151278990D01*
X94323129Y-151268624D01*
X94342134Y-151257823D01*
X94350574Y-151219361D01*
X94357417Y-151131038D01*
X94361903Y-151006489D01*
X94363300Y-150876823D01*
X94363300Y-150516990D01*
X94490300Y-150516990D01*
X94573389Y-150511664D01*
X94610110Y-150490142D01*
X94617300Y-150453490D01*
X94613281Y-150425699D01*
X94593906Y-150407458D01*
X94548198Y-150396770D01*
X94465179Y-150391638D01*
X94333873Y-150390068D01*
X94268050Y-150389990D01*
X94115205Y-150390720D01*
G36*
X93466657Y-150651411D02*
G01*
X93378239Y-150703058D01*
X93327882Y-150790210D01*
X93309775Y-150883924D01*
X93299675Y-150977365D01*
X93744175Y-151009115D01*
X93669052Y-151084238D01*
X93601663Y-151135169D01*
X93524263Y-151147860D01*
X93472742Y-151143107D01*
X93385131Y-151139169D01*
X93341164Y-151160699D01*
X93332478Y-151176570D01*
X93336425Y-151232645D01*
X93354163Y-151252152D01*
X93427941Y-151273533D01*
X93534494Y-151277664D01*
X93645939Y-151266081D01*
X93734392Y-151240322D01*
X93752056Y-151230216D01*
X93806704Y-151168091D01*
X93852265Y-151077374D01*
X93858467Y-151058692D01*
X93871241Y-150924679D01*
X93848822Y-150851463D01*
X93696550Y-150851463D01*
X93696550Y-150851482D01*
X93669646Y-150880863D01*
X93606268Y-150896992D01*
X93532420Y-150897965D01*
X93474109Y-150881878D01*
X93460007Y-150868799D01*
X93466587Y-150829799D01*
X93501615Y-150778617D01*
X93544129Y-150742957D01*
X93558031Y-150739240D01*
X93615732Y-150759502D01*
X93671523Y-150804703D01*
X93696550Y-150851463D01*
X93848822Y-150851463D01*
X93834415Y-150804416D01*
X93758594Y-150708926D01*
X93654383Y-150649235D01*
X93532387Y-150636366D01*
X93466657Y-150651411D01*
G37*
X93466657Y-150651411D02*
X93378239Y-150703058D01*
X93327882Y-150790210D01*
X93309775Y-150883924D01*
X93299675Y-150977365D01*
X93744175Y-151009115D01*
X93669052Y-151084238D01*
X93601663Y-151135169D01*
X93524263Y-151147860D01*
X93472742Y-151143107D01*
X93385131Y-151139169D01*
X93341164Y-151160699D01*
X93332478Y-151176570D01*
X93336425Y-151232645D01*
X93354163Y-151252152D01*
X93427941Y-151273533D01*
X93534494Y-151277664D01*
X93645939Y-151266081D01*
X93734392Y-151240322D01*
X93752056Y-151230216D01*
X93806704Y-151168091D01*
X93852265Y-151077374D01*
X93858467Y-151058692D01*
X93871241Y-150924679D01*
X93848822Y-150851463D01*
X93696550Y-150851463D01*
X93696550Y-150851482D01*
X93669646Y-150880863D01*
X93606268Y-150896992D01*
X93532420Y-150897965D01*
X93474109Y-150881878D01*
X93460007Y-150868799D01*
X93466587Y-150829799D01*
X93501615Y-150778617D01*
X93544129Y-150742957D01*
X93558031Y-150739240D01*
X93615732Y-150759502D01*
X93671523Y-150804703D01*
X93696550Y-150851463D01*
X93848822Y-150851463D01*
X93834415Y-150804416D01*
X93758594Y-150708926D01*
X93654383Y-150649235D01*
X93532387Y-150636366D01*
X93466657Y-150651411D01*
G36*
X92783179Y-150642694D02*
G01*
X92717759Y-150661095D01*
X92706696Y-150668644D01*
X92686217Y-150716564D01*
X92715714Y-150752213D01*
X92781664Y-150763348D01*
X92807488Y-150759889D01*
X92911513Y-150762268D01*
X92979947Y-150816597D01*
X93010830Y-150920962D01*
X93012482Y-150960006D01*
X92998655Y-151068571D01*
X92950821Y-151127893D01*
X92859452Y-151146678D01*
X92810086Y-151144906D01*
X92728926Y-151152749D01*
X92684927Y-151183188D01*
X92688113Y-151224939D01*
X92716368Y-151250425D01*
X92779309Y-151269082D01*
X92873391Y-151277054D01*
X92969568Y-151273968D01*
X93038796Y-151259450D01*
X93047516Y-151254691D01*
X93137116Y-151157098D01*
X93181464Y-151031679D01*
X93178718Y-150896953D01*
X93127039Y-150771436D01*
X93099129Y-150735411D01*
X93024474Y-150667087D01*
X92944850Y-150639139D01*
X92874858Y-150635330D01*
X92783179Y-150642694D01*
G37*
X92783179Y-150642694D02*
X92717759Y-150661095D01*
X92706696Y-150668644D01*
X92686217Y-150716564D01*
X92715714Y-150752213D01*
X92781664Y-150763348D01*
X92807488Y-150759889D01*
X92911513Y-150762268D01*
X92979947Y-150816597D01*
X93010830Y-150920962D01*
X93012482Y-150960006D01*
X92998655Y-151068571D01*
X92950821Y-151127893D01*
X92859452Y-151146678D01*
X92810086Y-151144906D01*
X92728926Y-151152749D01*
X92684927Y-151183188D01*
X92688113Y-151224939D01*
X92716368Y-151250425D01*
X92779309Y-151269082D01*
X92873391Y-151277054D01*
X92969568Y-151273968D01*
X93038796Y-151259450D01*
X93047516Y-151254691D01*
X93137116Y-151157098D01*
X93181464Y-151031679D01*
X93178718Y-150896953D01*
X93127039Y-150771436D01*
X93099129Y-150735411D01*
X93024474Y-150667087D01*
X92944850Y-150639139D01*
X92874858Y-150635330D01*
X92783179Y-150642694D01*
G36*
X92403168Y-150386950D02*
G01*
X92395616Y-150449503D01*
X92394800Y-150518178D01*
X92391751Y-150614237D01*
X92379697Y-150659462D01*
X92354278Y-150666346D01*
X92344226Y-150663126D01*
X92233198Y-150627651D01*
X92156251Y-150625999D01*
X92092648Y-150659940D01*
X92063023Y-150687130D01*
X92022125Y-150734064D01*
X91997858Y-150785371D01*
X91985974Y-150858697D01*
X91982226Y-150971691D01*
X91982050Y-151023546D01*
X91982885Y-151149954D01*
X91988064Y-151225782D01*
X92001602Y-151263950D01*
X92027515Y-151277378D01*
X92061425Y-151278990D01*
X92101733Y-151276039D01*
X92125394Y-151258290D01*
X92136839Y-151212393D01*
X92140498Y-151125001D01*
X92140800Y-151039868D01*
X92146290Y-150897393D01*
X92166077Y-150810908D01*
X92205142Y-150773593D01*
X92268465Y-150778625D01*
X92317450Y-150797885D01*
X92358192Y-150821775D01*
X92381427Y-150857651D01*
X92392002Y-150921683D01*
X92394760Y-151030039D01*
X92394800Y-151056059D01*
X92396461Y-151172987D01*
X92404064Y-151240041D01*
X92421541Y-151270812D01*
X92452827Y-151278894D01*
X92459297Y-151278990D01*
X92519189Y-151261099D01*
X92539667Y-151237623D01*
X92544984Y-151191621D01*
X92548126Y-151095590D01*
X92548888Y-150962972D01*
X92547063Y-150807209D01*
X92546608Y-150785185D01*
X92542492Y-150617164D01*
X92537420Y-150502198D01*
X92529404Y-150429853D01*
X92516451Y-150389693D01*
X92496570Y-150371284D01*
X92467770Y-150364188D01*
X92466238Y-150363969D01*
X92424419Y-150363381D01*
X92403168Y-150386950D01*
G37*
X92403168Y-150386950D02*
X92395616Y-150449503D01*
X92394800Y-150518178D01*
X92391751Y-150614237D01*
X92379697Y-150659462D01*
X92354278Y-150666346D01*
X92344226Y-150663126D01*
X92233198Y-150627651D01*
X92156251Y-150625999D01*
X92092648Y-150659940D01*
X92063023Y-150687130D01*
X92022125Y-150734064D01*
X91997858Y-150785371D01*
X91985974Y-150858697D01*
X91982226Y-150971691D01*
X91982050Y-151023546D01*
X91982885Y-151149954D01*
X91988064Y-151225782D01*
X92001602Y-151263950D01*
X92027515Y-151277378D01*
X92061425Y-151278990D01*
X92101733Y-151276039D01*
X92125394Y-151258290D01*
X92136839Y-151212393D01*
X92140498Y-151125001D01*
X92140800Y-151039868D01*
X92146290Y-150897393D01*
X92166077Y-150810908D01*
X92205142Y-150773593D01*
X92268465Y-150778625D01*
X92317450Y-150797885D01*
X92358192Y-150821775D01*
X92381427Y-150857651D01*
X92392002Y-150921683D01*
X92394760Y-151030039D01*
X92394800Y-151056059D01*
X92396461Y-151172987D01*
X92404064Y-151240041D01*
X92421541Y-151270812D01*
X92452827Y-151278894D01*
X92459297Y-151278990D01*
X92519189Y-151261099D01*
X92539667Y-151237623D01*
X92544984Y-151191621D01*
X92548126Y-151095590D01*
X92548888Y-150962972D01*
X92547063Y-150807209D01*
X92546608Y-150785185D01*
X92542492Y-150617164D01*
X92537420Y-150502198D01*
X92529404Y-150429853D01*
X92516451Y-150389693D01*
X92496570Y-150371284D01*
X92467770Y-150364188D01*
X92466238Y-150363969D01*
X92424419Y-150363381D01*
X92403168Y-150386950D01*
G36*
X91330212Y-150657650D02*
G01*
X91324946Y-150661026D01*
X91289920Y-150689062D01*
X91268272Y-150726751D01*
X91256827Y-150788543D01*
X91252410Y-150888888D01*
X91251800Y-150993971D01*
X91252867Y-151129528D01*
X91257862Y-151213697D01*
X91269484Y-151258579D01*
X91290427Y-151276275D01*
X91315300Y-151278990D01*
X91348906Y-151272893D01*
X91368037Y-151245481D01*
X91376673Y-151183066D01*
X91378793Y-151071965D01*
X91378800Y-151060627D01*
X91386582Y-150914406D01*
X91412733Y-150823400D01*
X91461463Y-150780925D01*
X91536980Y-150780294D01*
X91553013Y-150783924D01*
X91593735Y-150797900D01*
X91617558Y-150824106D01*
X91628994Y-150877111D01*
X91632559Y-150971488D01*
X91632800Y-151041469D01*
X91633796Y-151162402D01*
X91639765Y-151233229D01*
X91655185Y-151267343D01*
X91684529Y-151278136D01*
X91712175Y-151278990D01*
X91791550Y-151278990D01*
X91791550Y-150636052D01*
X91699223Y-150654518D01*
X91601274Y-150658639D01*
X91502494Y-150643041D01*
X91407481Y-150629655D01*
X91330212Y-150657650D01*
G37*
X91330212Y-150657650D02*
X91324946Y-150661026D01*
X91289920Y-150689062D01*
X91268272Y-150726751D01*
X91256827Y-150788543D01*
X91252410Y-150888888D01*
X91251800Y-150993971D01*
X91252867Y-151129528D01*
X91257862Y-151213697D01*
X91269484Y-151258579D01*
X91290427Y-151276275D01*
X91315300Y-151278990D01*
X91348906Y-151272893D01*
X91368037Y-151245481D01*
X91376673Y-151183066D01*
X91378793Y-151071965D01*
X91378800Y-151060627D01*
X91386582Y-150914406D01*
X91412733Y-150823400D01*
X91461463Y-150780925D01*
X91536980Y-150780294D01*
X91553013Y-150783924D01*
X91593735Y-150797900D01*
X91617558Y-150824106D01*
X91628994Y-150877111D01*
X91632559Y-150971488D01*
X91632800Y-151041469D01*
X91633796Y-151162402D01*
X91639765Y-151233229D01*
X91655185Y-151267343D01*
X91684529Y-151278136D01*
X91712175Y-151278990D01*
X91791550Y-151278990D01*
X91791550Y-150636052D01*
X91699223Y-150654518D01*
X91601274Y-150658639D01*
X91502494Y-150643041D01*
X91407481Y-150629655D01*
X91330212Y-150657650D01*
G36*
X90870800Y-151278990D02*
G01*
X91029550Y-151278990D01*
X91029550Y-150643990D01*
X90870800Y-150643990D01*
X90870800Y-151278990D01*
G37*
X90870800Y-151278990D02*
X91029550Y-151278990D01*
X91029550Y-150643990D01*
X90870800Y-150643990D01*
X90870800Y-151278990D01*
G36*
X90562021Y-150360865D02*
G01*
X90538437Y-150377246D01*
X90526254Y-150420144D01*
X90521555Y-150502316D01*
X90520486Y-150620177D01*
X90519421Y-150882115D01*
X90422156Y-150763052D01*
X90352781Y-150692575D01*
X90287976Y-150649864D01*
X90264471Y-150643990D01*
X90217220Y-150652510D01*
X90210271Y-150684169D01*
X90244707Y-150748118D01*
X90283219Y-150802459D01*
X90322787Y-150857516D01*
X90341021Y-150899737D01*
X90334740Y-150944658D01*
X90300762Y-151007815D01*
X90235904Y-151104741D01*
X90215057Y-151135242D01*
X90176071Y-151215983D01*
X90189368Y-151264799D01*
X90243738Y-151278933D01*
X90305003Y-151256496D01*
X90372391Y-151184342D01*
X90410425Y-151128120D01*
X90505675Y-150977365D01*
X90515353Y-151128177D01*
X90524612Y-151219727D01*
X90543280Y-151264258D01*
X90580898Y-151278251D01*
X90602665Y-151278990D01*
X90680300Y-151278990D01*
X90680300Y-150358240D01*
X90600925Y-150358240D01*
X90562021Y-150360865D01*
G37*
X90562021Y-150360865D02*
X90538437Y-150377246D01*
X90526254Y-150420144D01*
X90521555Y-150502316D01*
X90520486Y-150620177D01*
X90519421Y-150882115D01*
X90422156Y-150763052D01*
X90352781Y-150692575D01*
X90287976Y-150649864D01*
X90264471Y-150643990D01*
X90217220Y-150652510D01*
X90210271Y-150684169D01*
X90244707Y-150748118D01*
X90283219Y-150802459D01*
X90322787Y-150857516D01*
X90341021Y-150899737D01*
X90334740Y-150944658D01*
X90300762Y-151007815D01*
X90235904Y-151104741D01*
X90215057Y-151135242D01*
X90176071Y-151215983D01*
X90189368Y-151264799D01*
X90243738Y-151278933D01*
X90305003Y-151256496D01*
X90372391Y-151184342D01*
X90410425Y-151128120D01*
X90505675Y-150977365D01*
X90515353Y-151128177D01*
X90524612Y-151219727D01*
X90543280Y-151264258D01*
X90580898Y-151278251D01*
X90602665Y-151278990D01*
X90680300Y-151278990D01*
X90680300Y-150358240D01*
X90600925Y-150358240D01*
X90562021Y-150360865D01*
G36*
X89319842Y-150417079D02*
G01*
X89315050Y-150421740D01*
X89259437Y-150513983D01*
X89265672Y-150612714D01*
X89320786Y-150697719D01*
X89390021Y-150771417D01*
X89300052Y-150865324D01*
X89229210Y-150928577D01*
X89183533Y-150935786D01*
X89153619Y-150884175D01*
X89138122Y-150817501D01*
X89111264Y-150736784D01*
X89066783Y-150707999D01*
X89057517Y-150707490D01*
X89008773Y-150731662D01*
X89000617Y-150803080D01*
X89033122Y-150920099D01*
X89046891Y-150954572D01*
X89076045Y-151032035D01*
X89075185Y-151077527D01*
X89039928Y-151117175D01*
X89016411Y-151136295D01*
X88962436Y-151194485D01*
X88963593Y-151243544D01*
X88965194Y-151246258D01*
X88991743Y-151272625D01*
X89034339Y-151269497D01*
X89108136Y-151238016D01*
X89188727Y-151204896D01*
X89246500Y-151202757D01*
X89313471Y-151230549D01*
X89314811Y-151231241D01*
X89439320Y-151271285D01*
X89567012Y-151273080D01*
X89673382Y-151237132D01*
X89692437Y-151223427D01*
X89747313Y-151151539D01*
X89778382Y-151069258D01*
X89781696Y-150993600D01*
X89777551Y-150984099D01*
X89623383Y-150984099D01*
X89620805Y-151051560D01*
X89582658Y-151102097D01*
X89507178Y-151143623D01*
X89420780Y-151147232D01*
X89353100Y-151111902D01*
X89351543Y-151110079D01*
X89339771Y-151069011D01*
X89368591Y-151009675D01*
X89407739Y-150959266D01*
X89465257Y-150893538D01*
X89501607Y-150870839D01*
X89536075Y-150885255D01*
X89565634Y-150910848D01*
X89623383Y-150984099D01*
X89777551Y-150984099D01*
X89751470Y-150924320D01*
X89702095Y-150862099D01*
X89644909Y-150791624D01*
X89626035Y-150743777D01*
X89639217Y-150695955D01*
X89650292Y-150674956D01*
X89688736Y-150584507D01*
X89682448Y-150530922D01*
X89525074Y-150530922D01*
X89522709Y-150594838D01*
X89502836Y-150631386D01*
X89466532Y-150663836D01*
X89435053Y-150644621D01*
X89419481Y-150624328D01*
X89390440Y-150565229D01*
X89388691Y-150534148D01*
X89427596Y-150496949D01*
X89484640Y-150495632D01*
X89525074Y-150530922D01*
X89682448Y-150530922D01*
X89680567Y-150514903D01*
X89622317Y-150440396D01*
X89618119Y-150436171D01*
X89518621Y-150372065D01*
X89414606Y-150365482D01*
X89319842Y-150417079D01*
G37*
X89319842Y-150417079D02*
X89315050Y-150421740D01*
X89259437Y-150513983D01*
X89265672Y-150612714D01*
X89320786Y-150697719D01*
X89390021Y-150771417D01*
X89300052Y-150865324D01*
X89229210Y-150928577D01*
X89183533Y-150935786D01*
X89153619Y-150884175D01*
X89138122Y-150817501D01*
X89111264Y-150736784D01*
X89066783Y-150707999D01*
X89057517Y-150707490D01*
X89008773Y-150731662D01*
X89000617Y-150803080D01*
X89033122Y-150920099D01*
X89046891Y-150954572D01*
X89076045Y-151032035D01*
X89075185Y-151077527D01*
X89039928Y-151117175D01*
X89016411Y-151136295D01*
X88962436Y-151194485D01*
X88963593Y-151243544D01*
X88965194Y-151246258D01*
X88991743Y-151272625D01*
X89034339Y-151269497D01*
X89108136Y-151238016D01*
X89188727Y-151204896D01*
X89246500Y-151202757D01*
X89313471Y-151230549D01*
X89314811Y-151231241D01*
X89439320Y-151271285D01*
X89567012Y-151273080D01*
X89673382Y-151237132D01*
X89692437Y-151223427D01*
X89747313Y-151151539D01*
X89778382Y-151069258D01*
X89781696Y-150993600D01*
X89777551Y-150984099D01*
X89623383Y-150984099D01*
X89620805Y-151051560D01*
X89582658Y-151102097D01*
X89507178Y-151143623D01*
X89420780Y-151147232D01*
X89353100Y-151111902D01*
X89351543Y-151110079D01*
X89339771Y-151069011D01*
X89368591Y-151009675D01*
X89407739Y-150959266D01*
X89465257Y-150893538D01*
X89501607Y-150870839D01*
X89536075Y-150885255D01*
X89565634Y-150910848D01*
X89623383Y-150984099D01*
X89777551Y-150984099D01*
X89751470Y-150924320D01*
X89702095Y-150862099D01*
X89644909Y-150791624D01*
X89626035Y-150743777D01*
X89639217Y-150695955D01*
X89650292Y-150674956D01*
X89688736Y-150584507D01*
X89682448Y-150530922D01*
X89525074Y-150530922D01*
X89522709Y-150594838D01*
X89502836Y-150631386D01*
X89466532Y-150663836D01*
X89435053Y-150644621D01*
X89419481Y-150624328D01*
X89390440Y-150565229D01*
X89388691Y-150534148D01*
X89427596Y-150496949D01*
X89484640Y-150495632D01*
X89525074Y-150530922D01*
X89682448Y-150530922D01*
X89680567Y-150514903D01*
X89622317Y-150440396D01*
X89618119Y-150436171D01*
X89518621Y-150372065D01*
X89414606Y-150365482D01*
X89319842Y-150417079D01*
G36*
X88180150Y-150396245D02*
G01*
X88145558Y-150406686D01*
X88113521Y-150435014D01*
X88078647Y-150490616D01*
X88035546Y-150582883D01*
X87978825Y-150721202D01*
X87946730Y-150802740D01*
X87889306Y-150952589D01*
X87841446Y-151083062D01*
X87807517Y-151181840D01*
X87791880Y-151236605D01*
X87791328Y-151241411D01*
X87818363Y-151271329D01*
X87877353Y-151273161D01*
X87945474Y-151248958D01*
X87985277Y-151184621D01*
X87993070Y-151159927D01*
X88014042Y-151099863D01*
X88045035Y-151069245D01*
X88104946Y-151058175D01*
X88190056Y-151056740D01*
X88288314Y-151059077D01*
X88342678Y-151073198D01*
X88372745Y-151109764D01*
X88394300Y-151167865D01*
X88430780Y-151246111D01*
X88480061Y-151276629D01*
X88507888Y-151278990D01*
X88566432Y-151273075D01*
X88584800Y-151262247D01*
X88574106Y-151228156D01*
X88544699Y-151145748D01*
X88500595Y-151026003D01*
X88460706Y-150919627D01*
X88299050Y-150919627D01*
X88271057Y-150926265D01*
X88202074Y-150929634D01*
X88185786Y-150929740D01*
X88111872Y-150925636D01*
X88086577Y-150905590D01*
X88095071Y-150858302D01*
X88121254Y-150778712D01*
X88154256Y-150682311D01*
X88156554Y-150675740D01*
X88195487Y-150564615D01*
X88247269Y-150737065D01*
X88275409Y-150832415D01*
X88294215Y-150899270D01*
X88299050Y-150919627D01*
X88460706Y-150919627D01*
X88445807Y-150879897D01*
X88421623Y-150816065D01*
X88357103Y-150648122D01*
X88309353Y-150531035D01*
X88273326Y-150456025D01*
X88243971Y-150414316D01*
X88216242Y-150397130D01*
X88185088Y-150395688D01*
X88180150Y-150396245D01*
G37*
X88180150Y-150396245D02*
X88145558Y-150406686D01*
X88113521Y-150435014D01*
X88078647Y-150490616D01*
X88035546Y-150582883D01*
X87978825Y-150721202D01*
X87946730Y-150802740D01*
X87889306Y-150952589D01*
X87841446Y-151083062D01*
X87807517Y-151181840D01*
X87791880Y-151236605D01*
X87791328Y-151241411D01*
X87818363Y-151271329D01*
X87877353Y-151273161D01*
X87945474Y-151248958D01*
X87985277Y-151184621D01*
X87993070Y-151159927D01*
X88014042Y-151099863D01*
X88045035Y-151069245D01*
X88104946Y-151058175D01*
X88190056Y-151056740D01*
X88288314Y-151059077D01*
X88342678Y-151073198D01*
X88372745Y-151109764D01*
X88394300Y-151167865D01*
X88430780Y-151246111D01*
X88480061Y-151276629D01*
X88507888Y-151278990D01*
X88566432Y-151273075D01*
X88584800Y-151262247D01*
X88574106Y-151228156D01*
X88544699Y-151145748D01*
X88500595Y-151026003D01*
X88460706Y-150919627D01*
X88299050Y-150919627D01*
X88271057Y-150926265D01*
X88202074Y-150929634D01*
X88185786Y-150929740D01*
X88111872Y-150925636D01*
X88086577Y-150905590D01*
X88095071Y-150858302D01*
X88121254Y-150778712D01*
X88154256Y-150682311D01*
X88156554Y-150675740D01*
X88195487Y-150564615D01*
X88247269Y-150737065D01*
X88275409Y-150832415D01*
X88294215Y-150899270D01*
X88299050Y-150919627D01*
X88460706Y-150919627D01*
X88445807Y-150879897D01*
X88421623Y-150816065D01*
X88357103Y-150648122D01*
X88309353Y-150531035D01*
X88273326Y-150456025D01*
X88243971Y-150414316D01*
X88216242Y-150397130D01*
X88185088Y-150395688D01*
X88180150Y-150396245D01*
G36*
X87336620Y-150656060D02*
G01*
X87321847Y-150695254D01*
X87328423Y-150746594D01*
X87378784Y-150774843D01*
X87408405Y-150781773D01*
X87505300Y-150801152D01*
X87505300Y-151040071D01*
X87506282Y-151161437D01*
X87512183Y-151232659D01*
X87527442Y-151267091D01*
X87556493Y-151278086D01*
X87584675Y-151278990D01*
X87620707Y-151277055D01*
X87643754Y-151263520D01*
X87656717Y-151226786D01*
X87662498Y-151155257D01*
X87663999Y-151037334D01*
X87664050Y-150961718D01*
X87664050Y-150644447D01*
X87544988Y-150648046D01*
X87453540Y-150647428D01*
X87385190Y-150641201D01*
X87379054Y-150639880D01*
X87336620Y-150656060D01*
G37*
X87336620Y-150656060D02*
X87321847Y-150695254D01*
X87328423Y-150746594D01*
X87378784Y-150774843D01*
X87408405Y-150781773D01*
X87505300Y-150801152D01*
X87505300Y-151040071D01*
X87506282Y-151161437D01*
X87512183Y-151232659D01*
X87527442Y-151267091D01*
X87556493Y-151278086D01*
X87584675Y-151278990D01*
X87620707Y-151277055D01*
X87643754Y-151263520D01*
X87656717Y-151226786D01*
X87662498Y-151155257D01*
X87663999Y-151037334D01*
X87664050Y-150961718D01*
X87664050Y-150644447D01*
X87544988Y-150648046D01*
X87453540Y-150647428D01*
X87385190Y-150641201D01*
X87379054Y-150639880D01*
X87336620Y-150656060D01*
G36*
X86809625Y-150647762D02*
G01*
X86741577Y-150686609D01*
X86730517Y-150726884D01*
X86771296Y-150756957D01*
X86858759Y-150765193D01*
X86861557Y-150765014D01*
X86964832Y-150783567D01*
X87034277Y-150846362D01*
X87063277Y-150940272D01*
X87045218Y-151052169D01*
X87026724Y-151092837D01*
X86989312Y-151134744D01*
X86925019Y-151149027D01*
X86862417Y-151147106D01*
X86771131Y-151152375D01*
X86718265Y-151178311D01*
X86712828Y-151216822D01*
X86747368Y-151250425D01*
X86829919Y-151275162D01*
X86940706Y-151276806D01*
X87049713Y-151257541D01*
X87122783Y-151223103D01*
X87178280Y-151143510D01*
X87209566Y-151028700D01*
X87212610Y-150903663D01*
X87189807Y-150807583D01*
X87117078Y-150708110D01*
X87007813Y-150647031D01*
X86881282Y-150632447D01*
X86809625Y-150647762D01*
G37*
X86809625Y-150647762D02*
X86741577Y-150686609D01*
X86730517Y-150726884D01*
X86771296Y-150756957D01*
X86858759Y-150765193D01*
X86861557Y-150765014D01*
X86964832Y-150783567D01*
X87034277Y-150846362D01*
X87063277Y-150940272D01*
X87045218Y-151052169D01*
X87026724Y-151092837D01*
X86989312Y-151134744D01*
X86925019Y-151149027D01*
X86862417Y-151147106D01*
X86771131Y-151152375D01*
X86718265Y-151178311D01*
X86712828Y-151216822D01*
X86747368Y-151250425D01*
X86829919Y-151275162D01*
X86940706Y-151276806D01*
X87049713Y-151257541D01*
X87122783Y-151223103D01*
X87178280Y-151143510D01*
X87209566Y-151028700D01*
X87212610Y-150903663D01*
X87189807Y-150807583D01*
X87117078Y-150708110D01*
X87007813Y-150647031D01*
X86881282Y-150632447D01*
X86809625Y-150647762D01*
G36*
X86458437Y-150363243D02*
G01*
X86434891Y-150388977D01*
X86426663Y-150451524D01*
X86425800Y-150520386D01*
X86422685Y-150615598D01*
X86410382Y-150660010D01*
X86384455Y-150666144D01*
X86375226Y-150663126D01*
X86262060Y-150628554D01*
X86180920Y-150629721D01*
X86110939Y-150667233D01*
X86106293Y-150670932D01*
X86067998Y-150707403D01*
X86044919Y-150751178D01*
X86033266Y-150818289D01*
X86029252Y-150924767D01*
X86028925Y-150998323D01*
X86030018Y-151128019D01*
X86035572Y-151207378D01*
X86049008Y-151249554D01*
X86073742Y-151267702D01*
X86100363Y-151273260D01*
X86138069Y-151274635D01*
X86159512Y-151256450D01*
X86169320Y-151205428D01*
X86172119Y-151108292D01*
X86172287Y-151066885D01*
X86176603Y-150923517D01*
X86192222Y-150833937D01*
X86224315Y-150788728D01*
X86278054Y-150778474D01*
X86326584Y-150785993D01*
X86425800Y-150807785D01*
X86425800Y-151043387D01*
X86426815Y-151163723D01*
X86432880Y-151234006D01*
X86448525Y-151267684D01*
X86478279Y-151278202D01*
X86505175Y-151278990D01*
X86584550Y-151278990D01*
X86584550Y-150358240D01*
X86505175Y-150358240D01*
X86458437Y-150363243D01*
G37*
X86458437Y-150363243D02*
X86434891Y-150388977D01*
X86426663Y-150451524D01*
X86425800Y-150520386D01*
X86422685Y-150615598D01*
X86410382Y-150660010D01*
X86384455Y-150666144D01*
X86375226Y-150663126D01*
X86262060Y-150628554D01*
X86180920Y-150629721D01*
X86110939Y-150667233D01*
X86106293Y-150670932D01*
X86067998Y-150707403D01*
X86044919Y-150751178D01*
X86033266Y-150818289D01*
X86029252Y-150924767D01*
X86028925Y-150998323D01*
X86030018Y-151128019D01*
X86035572Y-151207378D01*
X86049008Y-151249554D01*
X86073742Y-151267702D01*
X86100363Y-151273260D01*
X86138069Y-151274635D01*
X86159512Y-151256450D01*
X86169320Y-151205428D01*
X86172119Y-151108292D01*
X86172287Y-151066885D01*
X86176603Y-150923517D01*
X86192222Y-150833937D01*
X86224315Y-150788728D01*
X86278054Y-150778474D01*
X86326584Y-150785993D01*
X86425800Y-150807785D01*
X86425800Y-151043387D01*
X86426815Y-151163723D01*
X86432880Y-151234006D01*
X86448525Y-151267684D01*
X86478279Y-151278202D01*
X86505175Y-151278990D01*
X86584550Y-151278990D01*
X86584550Y-150358240D01*
X86505175Y-150358240D01*
X86458437Y-150363243D01*
G36*
X85663800Y-151278990D02*
G01*
X85822550Y-151278990D01*
X85822550Y-150643990D01*
X85663800Y-150643990D01*
X85663800Y-151278990D01*
G37*
X85663800Y-151278990D02*
X85822550Y-151278990D01*
X85822550Y-150643990D01*
X85663800Y-150643990D01*
X85663800Y-151278990D01*
G36*
X85297376Y-150466158D02*
G01*
X85283757Y-150512339D01*
X85282800Y-150545343D01*
X85275603Y-150614389D01*
X85241090Y-150640503D01*
X85187550Y-150643990D01*
X85111931Y-150658189D01*
X85092300Y-150691615D01*
X85120699Y-150729424D01*
X85187550Y-150739240D01*
X85244275Y-150742807D01*
X85272342Y-150764519D01*
X85281825Y-150820886D01*
X85282800Y-150895393D01*
X85277293Y-151026576D01*
X85257602Y-151105792D01*
X85218973Y-151143869D01*
X85170152Y-151151990D01*
X85103270Y-151165648D01*
X85074232Y-151187289D01*
X85073514Y-151229300D01*
X85117806Y-151259462D01*
X85189335Y-151275450D01*
X85270329Y-151274937D01*
X85343016Y-151255599D01*
X85381283Y-151227470D01*
X85404763Y-151170684D01*
X85424681Y-151072119D01*
X85436378Y-150957595D01*
X85446253Y-150849129D01*
X85460513Y-150770968D01*
X85476155Y-150739311D01*
X85476883Y-150739240D01*
X85501889Y-150713471D01*
X85505050Y-150691615D01*
X85487906Y-150649363D01*
X85473300Y-150643990D01*
X85449433Y-150616818D01*
X85441550Y-150564615D01*
X85431565Y-150504933D01*
X85412397Y-150485240D01*
X85359189Y-150474767D01*
X85333022Y-150465968D01*
X85297376Y-150466158D01*
G37*
X85297376Y-150466158D02*
X85283757Y-150512339D01*
X85282800Y-150545343D01*
X85275603Y-150614389D01*
X85241090Y-150640503D01*
X85187550Y-150643990D01*
X85111931Y-150658189D01*
X85092300Y-150691615D01*
X85120699Y-150729424D01*
X85187550Y-150739240D01*
X85244275Y-150742807D01*
X85272342Y-150764519D01*
X85281825Y-150820886D01*
X85282800Y-150895393D01*
X85277293Y-151026576D01*
X85257602Y-151105792D01*
X85218973Y-151143869D01*
X85170152Y-151151990D01*
X85103270Y-151165648D01*
X85074232Y-151187289D01*
X85073514Y-151229300D01*
X85117806Y-151259462D01*
X85189335Y-151275450D01*
X85270329Y-151274937D01*
X85343016Y-151255599D01*
X85381283Y-151227470D01*
X85404763Y-151170684D01*
X85424681Y-151072119D01*
X85436378Y-150957595D01*
X85446253Y-150849129D01*
X85460513Y-150770968D01*
X85476155Y-150739311D01*
X85476883Y-150739240D01*
X85501889Y-150713471D01*
X85505050Y-150691615D01*
X85487906Y-150649363D01*
X85473300Y-150643990D01*
X85449433Y-150616818D01*
X85441550Y-150564615D01*
X85431565Y-150504933D01*
X85412397Y-150485240D01*
X85359189Y-150474767D01*
X85333022Y-150465968D01*
X85297376Y-150466158D01*
G36*
X84528496Y-150668311D02*
G01*
X84446986Y-150751411D01*
X84404505Y-150876075D01*
X84385492Y-150993240D01*
X84596021Y-150993240D01*
X84720046Y-150997474D01*
X84786306Y-151012716D01*
X84800128Y-151042773D01*
X84766835Y-151091450D01*
X84753176Y-151105578D01*
X84692551Y-151140954D01*
X84599921Y-151146870D01*
X84562676Y-151143496D01*
X84476045Y-151137690D01*
X84435658Y-151149377D01*
X84425553Y-151183300D01*
X84425550Y-151184243D01*
X84445191Y-151237069D01*
X84509349Y-151267477D01*
X84625880Y-151278742D01*
X84652840Y-151278990D01*
X84760135Y-151264215D01*
X84847367Y-151209970D01*
X84872493Y-151186182D01*
X84943450Y-151090673D01*
X84965278Y-150985474D01*
X84965300Y-150981301D01*
X84944960Y-150847141D01*
X84797143Y-150847141D01*
X84792770Y-150881479D01*
X84730030Y-150896452D01*
X84679550Y-150897990D01*
X84590417Y-150889776D01*
X84554321Y-150863041D01*
X84552550Y-150851482D01*
X84577802Y-150801478D01*
X84618692Y-150769576D01*
X84681416Y-150752030D01*
X84739818Y-150784039D01*
X84745692Y-150789255D01*
X84797143Y-150847141D01*
X84944960Y-150847141D01*
X84942006Y-150827664D01*
X84874445Y-150716810D01*
X84766101Y-150652466D01*
X84643671Y-150637152D01*
X84528496Y-150668311D01*
G37*
X84528496Y-150668311D02*
X84446986Y-150751411D01*
X84404505Y-150876075D01*
X84385492Y-150993240D01*
X84596021Y-150993240D01*
X84720046Y-150997474D01*
X84786306Y-151012716D01*
X84800128Y-151042773D01*
X84766835Y-151091450D01*
X84753176Y-151105578D01*
X84692551Y-151140954D01*
X84599921Y-151146870D01*
X84562676Y-151143496D01*
X84476045Y-151137690D01*
X84435658Y-151149377D01*
X84425553Y-151183300D01*
X84425550Y-151184243D01*
X84445191Y-151237069D01*
X84509349Y-151267477D01*
X84625880Y-151278742D01*
X84652840Y-151278990D01*
X84760135Y-151264215D01*
X84847367Y-151209970D01*
X84872493Y-151186182D01*
X84943450Y-151090673D01*
X84965278Y-150985474D01*
X84965300Y-150981301D01*
X84944960Y-150847141D01*
X84797143Y-150847141D01*
X84792770Y-150881479D01*
X84730030Y-150896452D01*
X84679550Y-150897990D01*
X84590417Y-150889776D01*
X84554321Y-150863041D01*
X84552550Y-150851482D01*
X84577802Y-150801478D01*
X84618692Y-150769576D01*
X84681416Y-150752030D01*
X84739818Y-150784039D01*
X84745692Y-150789255D01*
X84797143Y-150847141D01*
X84944960Y-150847141D01*
X84942006Y-150827664D01*
X84874445Y-150716810D01*
X84766101Y-150652466D01*
X84643671Y-150637152D01*
X84528496Y-150668311D01*
G36*
X84116749Y-150360836D02*
G01*
X84093228Y-150377143D01*
X84081232Y-150419932D01*
X84076883Y-150501977D01*
X84076300Y-150619610D01*
X84076300Y-150880980D01*
X83995781Y-150762485D01*
X83920725Y-150675916D01*
X83847393Y-150644423D01*
X83837031Y-150643990D01*
X83780161Y-150650118D01*
X83765321Y-150674800D01*
X83793343Y-150727480D01*
X83850836Y-150800545D01*
X83941164Y-150909476D01*
X83834107Y-151076832D01*
X83778257Y-151166713D01*
X83739524Y-151233964D01*
X83727050Y-151261589D01*
X83754310Y-151274641D01*
X83807125Y-151278990D01*
X83868143Y-151262961D01*
X83927895Y-151207303D01*
X83979773Y-151133016D01*
X84072347Y-150987042D01*
X84082261Y-151125078D01*
X84094138Y-151214277D01*
X84119355Y-151257909D01*
X84163613Y-151273260D01*
X84191373Y-151275531D01*
X84210810Y-151266874D01*
X84223407Y-151237896D01*
X84230648Y-151179204D01*
X84234016Y-151081403D01*
X84234994Y-150935101D01*
X84235050Y-150820823D01*
X84235050Y-150358240D01*
X84155675Y-150358240D01*
X84116749Y-150360836D01*
G37*
X84116749Y-150360836D02*
X84093228Y-150377143D01*
X84081232Y-150419932D01*
X84076883Y-150501977D01*
X84076300Y-150619610D01*
X84076300Y-150880980D01*
X83995781Y-150762485D01*
X83920725Y-150675916D01*
X83847393Y-150644423D01*
X83837031Y-150643990D01*
X83780161Y-150650118D01*
X83765321Y-150674800D01*
X83793343Y-150727480D01*
X83850836Y-150800545D01*
X83941164Y-150909476D01*
X83834107Y-151076832D01*
X83778257Y-151166713D01*
X83739524Y-151233964D01*
X83727050Y-151261589D01*
X83754310Y-151274641D01*
X83807125Y-151278990D01*
X83868143Y-151262961D01*
X83927895Y-151207303D01*
X83979773Y-151133016D01*
X84072347Y-150987042D01*
X84082261Y-151125078D01*
X84094138Y-151214277D01*
X84119355Y-151257909D01*
X84163613Y-151273260D01*
X84191373Y-151275531D01*
X84210810Y-151266874D01*
X84223407Y-151237896D01*
X84230648Y-151179204D01*
X84234016Y-151081403D01*
X84234994Y-150935101D01*
X84235050Y-150820823D01*
X84235050Y-150358240D01*
X84155675Y-150358240D01*
X84116749Y-150360836D01*
G36*
X83418231Y-150481090D02*
G01*
X83409553Y-150547588D01*
X83409550Y-150548740D01*
X83401008Y-150616812D01*
X83364693Y-150641715D01*
X83330175Y-150643990D01*
X83266336Y-150660550D01*
X83250800Y-150691615D01*
X83278482Y-150729868D01*
X83331691Y-150739240D01*
X83375622Y-150742424D01*
X83398902Y-150761721D01*
X83406792Y-150811749D01*
X83404554Y-150907123D01*
X83403128Y-150937677D01*
X83396311Y-151046198D01*
X83384118Y-151106669D01*
X83359256Y-151134514D01*
X83314436Y-151145155D01*
X83304476Y-151146343D01*
X83238333Y-151166683D01*
X83225365Y-151209843D01*
X83261429Y-151251356D01*
X83334383Y-151272509D01*
X83420422Y-151271591D01*
X83495735Y-151246891D01*
X83516726Y-151230778D01*
X83547677Y-151176842D01*
X83564034Y-151084575D01*
X83568300Y-150959222D01*
X83571150Y-150839174D01*
X83581390Y-150770735D01*
X83601552Y-150742201D01*
X83615925Y-150739240D01*
X83658019Y-150713825D01*
X83663550Y-150691615D01*
X83638136Y-150649521D01*
X83615925Y-150643990D01*
X83577509Y-150616579D01*
X83568300Y-150568011D01*
X83541354Y-150493604D01*
X83468867Y-150455962D01*
X83438704Y-150453490D01*
X83418231Y-150481090D01*
G37*
X83418231Y-150481090D02*
X83409553Y-150547588D01*
X83409550Y-150548740D01*
X83401008Y-150616812D01*
X83364693Y-150641715D01*
X83330175Y-150643990D01*
X83266336Y-150660550D01*
X83250800Y-150691615D01*
X83278482Y-150729868D01*
X83331691Y-150739240D01*
X83375622Y-150742424D01*
X83398902Y-150761721D01*
X83406792Y-150811749D01*
X83404554Y-150907123D01*
X83403128Y-150937677D01*
X83396311Y-151046198D01*
X83384118Y-151106669D01*
X83359256Y-151134514D01*
X83314436Y-151145155D01*
X83304476Y-151146343D01*
X83238333Y-151166683D01*
X83225365Y-151209843D01*
X83261429Y-151251356D01*
X83334383Y-151272509D01*
X83420422Y-151271591D01*
X83495735Y-151246891D01*
X83516726Y-151230778D01*
X83547677Y-151176842D01*
X83564034Y-151084575D01*
X83568300Y-150959222D01*
X83571150Y-150839174D01*
X83581390Y-150770735D01*
X83601552Y-150742201D01*
X83615925Y-150739240D01*
X83658019Y-150713825D01*
X83663550Y-150691615D01*
X83638136Y-150649521D01*
X83615925Y-150643990D01*
X83577509Y-150616579D01*
X83568300Y-150568011D01*
X83541354Y-150493604D01*
X83468867Y-150455962D01*
X83438704Y-150453490D01*
X83418231Y-150481090D01*
G36*
X82520550Y-150961490D02*
G01*
X82521637Y-151106687D01*
X82526256Y-151199717D01*
X82536443Y-151251891D01*
X82554234Y-151274524D01*
X82577700Y-151278990D01*
X82645833Y-151260991D01*
X82669367Y-151244473D01*
X82707692Y-151227127D01*
X82725216Y-151244473D01*
X82767968Y-151266442D01*
X82847856Y-151278310D01*
X82873294Y-151278990D01*
X82958531Y-151272912D01*
X83006794Y-151243293D01*
X83044281Y-151173052D01*
X83047497Y-151165411D01*
X83078539Y-151039840D01*
X83086429Y-150878759D01*
X83085564Y-150855848D01*
X83078642Y-150748310D01*
X83066556Y-150689583D01*
X83042661Y-150664994D01*
X83000312Y-150659873D01*
X82996800Y-150659865D01*
X82955157Y-150663548D01*
X82930538Y-150683804D01*
X82917418Y-150734444D01*
X82910271Y-150829279D01*
X82907871Y-150882115D01*
X82899764Y-150996248D01*
X82887556Y-151084673D01*
X82873839Y-151128832D01*
X82873354Y-151129357D01*
X82828687Y-151137407D01*
X82763846Y-151122205D01*
X82719563Y-151101348D01*
X82694252Y-151070375D01*
X82682629Y-151013346D01*
X82679416Y-150914323D01*
X82679300Y-150867025D01*
X82678143Y-150750660D01*
X82671394Y-150683978D01*
X82654136Y-150653167D01*
X82621455Y-150644413D01*
X82599925Y-150643990D01*
X82520550Y-150643990D01*
X82520550Y-150961490D01*
G37*
X82520550Y-150961490D02*
X82521637Y-151106687D01*
X82526256Y-151199717D01*
X82536443Y-151251891D01*
X82554234Y-151274524D01*
X82577700Y-151278990D01*
X82645833Y-151260991D01*
X82669367Y-151244473D01*
X82707692Y-151227127D01*
X82725216Y-151244473D01*
X82767968Y-151266442D01*
X82847856Y-151278310D01*
X82873294Y-151278990D01*
X82958531Y-151272912D01*
X83006794Y-151243293D01*
X83044281Y-151173052D01*
X83047497Y-151165411D01*
X83078539Y-151039840D01*
X83086429Y-150878759D01*
X83085564Y-150855848D01*
X83078642Y-150748310D01*
X83066556Y-150689583D01*
X83042661Y-150664994D01*
X83000312Y-150659873D01*
X82996800Y-150659865D01*
X82955157Y-150663548D01*
X82930538Y-150683804D01*
X82917418Y-150734444D01*
X82910271Y-150829279D01*
X82907871Y-150882115D01*
X82899764Y-150996248D01*
X82887556Y-151084673D01*
X82873839Y-151128832D01*
X82873354Y-151129357D01*
X82828687Y-151137407D01*
X82763846Y-151122205D01*
X82719563Y-151101348D01*
X82694252Y-151070375D01*
X82682629Y-151013346D01*
X82679416Y-150914323D01*
X82679300Y-150867025D01*
X82678143Y-150750660D01*
X82671394Y-150683978D01*
X82654136Y-150653167D01*
X82621455Y-150644413D01*
X82599925Y-150643990D01*
X82520550Y-150643990D01*
X82520550Y-150961490D01*
G36*
X82002569Y-150655957D02*
G01*
X81987847Y-150695254D01*
X81994423Y-150746594D01*
X82044784Y-150774843D01*
X82074405Y-150781773D01*
X82171300Y-150801152D01*
X82171300Y-151040071D01*
X82172282Y-151161437D01*
X82178183Y-151232659D01*
X82193442Y-151267091D01*
X82222493Y-151278086D01*
X82250675Y-151278990D01*
X82286774Y-151277041D01*
X82309834Y-151263445D01*
X82322778Y-151226579D01*
X82328527Y-151154817D01*
X82330002Y-151036535D01*
X82330050Y-150963172D01*
X82330050Y-150647354D01*
X82210988Y-150650308D01*
X82119530Y-150649051D01*
X82051179Y-150642104D01*
X82045054Y-150640688D01*
X82002569Y-150655957D01*
G37*
X82002569Y-150655957D02*
X81987847Y-150695254D01*
X81994423Y-150746594D01*
X82044784Y-150774843D01*
X82074405Y-150781773D01*
X82171300Y-150801152D01*
X82171300Y-151040071D01*
X82172282Y-151161437D01*
X82178183Y-151232659D01*
X82193442Y-151267091D01*
X82222493Y-151278086D01*
X82250675Y-151278990D01*
X82286774Y-151277041D01*
X82309834Y-151263445D01*
X82322778Y-151226579D01*
X82328527Y-151154817D01*
X82330002Y-151036535D01*
X82330050Y-150963172D01*
X82330050Y-150647354D01*
X82210988Y-150650308D01*
X82119530Y-150649051D01*
X82051179Y-150642104D01*
X82045054Y-150640688D01*
X82002569Y-150655957D01*
G36*
X90875319Y-150458513D02*
G01*
X90870800Y-150488636D01*
X90891336Y-150536301D01*
X90950175Y-150548740D01*
X91012952Y-150533351D01*
X91029550Y-150487885D01*
X91011537Y-150430691D01*
X90989863Y-150413187D01*
X90917668Y-150412298D01*
X90875319Y-150458513D01*
G37*
X90875319Y-150458513D02*
X90870800Y-150488636D01*
X90891336Y-150536301D01*
X90950175Y-150548740D01*
X91012952Y-150533351D01*
X91029550Y-150487885D01*
X91011537Y-150430691D01*
X90989863Y-150413187D01*
X90917668Y-150412298D01*
X90875319Y-150458513D01*
G36*
X85668319Y-150458513D02*
G01*
X85663800Y-150488636D01*
X85684336Y-150536301D01*
X85743175Y-150548740D01*
X85805952Y-150533351D01*
X85822550Y-150487885D01*
X85804537Y-150430691D01*
X85782863Y-150413187D01*
X85710668Y-150412298D01*
X85668319Y-150458513D01*
G37*
X85668319Y-150458513D02*
X85663800Y-150488636D01*
X85684336Y-150536301D01*
X85743175Y-150548740D01*
X85805952Y-150533351D01*
X85822550Y-150487885D01*
X85804537Y-150430691D01*
X85782863Y-150413187D01*
X85710668Y-150412298D01*
X85668319Y-150458513D01*
G36*
X92363050Y-146655083D02*
G01*
X92362812Y-146902762D01*
X92361700Y-147095011D01*
X92359115Y-147239899D01*
X92354462Y-147345495D01*
X92347142Y-147419869D01*
X92336559Y-147471090D01*
X92322115Y-147507227D01*
X92303212Y-147536349D01*
X92297246Y-147544083D01*
X92261379Y-147584440D01*
X92221146Y-147609191D01*
X92160968Y-147622126D01*
X92065262Y-147627038D01*
X91953531Y-147627740D01*
X91816216Y-147626063D01*
X91726508Y-147618796D01*
X91668551Y-147602580D01*
X91626491Y-147574056D01*
X91606585Y-147554256D01*
X91585545Y-147529747D01*
X91569280Y-147501262D01*
X91557177Y-147460893D01*
X91548620Y-147400733D01*
X91542997Y-147312877D01*
X91539693Y-147189417D01*
X91538094Y-147022447D01*
X91537587Y-146804061D01*
X91537550Y-146665256D01*
X91537550Y-145849740D01*
X91124800Y-145849740D01*
X91124800Y-147602949D01*
X91329432Y-147813782D01*
X91534063Y-148024615D01*
X91908869Y-148031857D01*
X92062439Y-148032477D01*
X92197217Y-148028706D01*
X92297896Y-148021246D01*
X92347175Y-148011756D01*
X92398115Y-147976623D01*
X92476869Y-147907668D01*
X92568595Y-147818112D01*
X92593238Y-147792558D01*
X92775800Y-147600704D01*
X92775800Y-145849740D01*
X92363050Y-145849740D01*
X92363050Y-146655083D01*
G37*
X92363050Y-146655083D02*
X92362812Y-146902762D01*
X92361700Y-147095011D01*
X92359115Y-147239899D01*
X92354462Y-147345495D01*
X92347142Y-147419869D01*
X92336559Y-147471090D01*
X92322115Y-147507227D01*
X92303212Y-147536349D01*
X92297246Y-147544083D01*
X92261379Y-147584440D01*
X92221146Y-147609191D01*
X92160968Y-147622126D01*
X92065262Y-147627038D01*
X91953531Y-147627740D01*
X91816216Y-147626063D01*
X91726508Y-147618796D01*
X91668551Y-147602580D01*
X91626491Y-147574056D01*
X91606585Y-147554256D01*
X91585545Y-147529747D01*
X91569280Y-147501262D01*
X91557177Y-147460893D01*
X91548620Y-147400733D01*
X91542997Y-147312877D01*
X91539693Y-147189417D01*
X91538094Y-147022447D01*
X91537587Y-146804061D01*
X91537550Y-146665256D01*
X91537550Y-145849740D01*
X91124800Y-145849740D01*
X91124800Y-147602949D01*
X91329432Y-147813782D01*
X91534063Y-148024615D01*
X91908869Y-148031857D01*
X92062439Y-148032477D01*
X92197217Y-148028706D01*
X92297896Y-148021246D01*
X92347175Y-148011756D01*
X92398115Y-147976623D01*
X92476869Y-147907668D01*
X92568595Y-147818112D01*
X92593238Y-147792558D01*
X92775800Y-147600704D01*
X92775800Y-145849740D01*
X92363050Y-145849740D01*
X92363050Y-146655083D01*
G36*
X88941007Y-146255014D02*
G01*
X88937934Y-146419228D01*
X88938744Y-146532508D01*
X88945163Y-146607384D01*
X88958915Y-146656385D01*
X88981725Y-146692042D01*
X89004507Y-146716271D01*
X89054101Y-146753994D01*
X89149290Y-146816458D01*
X89280175Y-146897538D01*
X89436853Y-146991114D01*
X89609425Y-147091063D01*
X89624613Y-147099715D01*
X89811249Y-147206200D01*
X89949795Y-147286877D01*
X90047416Y-147347237D01*
X90111272Y-147392771D01*
X90148528Y-147428968D01*
X90166346Y-147461320D01*
X90171888Y-147495316D01*
X90172300Y-147519522D01*
X90172300Y-147627740D01*
X88931020Y-147627740D01*
X88940473Y-147826177D01*
X88949925Y-148024615D01*
X89767488Y-148033088D01*
X90585050Y-148041562D01*
X90585050Y-147633810D01*
X90584355Y-147464980D01*
X90581063Y-147347696D01*
X90573364Y-147270008D01*
X90559450Y-147219965D01*
X90537511Y-147185620D01*
X90513613Y-147161995D01*
X90463134Y-147125693D01*
X90367757Y-147065020D01*
X90238098Y-146986432D01*
X90084773Y-146896386D01*
X89950050Y-146819217D01*
X89786868Y-146725858D01*
X89640086Y-146640119D01*
X89519889Y-146568087D01*
X89436460Y-146515850D01*
X89402363Y-146491825D01*
X89360612Y-146424596D01*
X89346800Y-146353519D01*
X89346800Y-146263891D01*
X89942113Y-146255253D01*
X90537425Y-146246615D01*
X90537425Y-145865615D01*
X88949925Y-145865615D01*
X88941007Y-146255014D01*
G37*
X88941007Y-146255014D02*
X88937934Y-146419228D01*
X88938744Y-146532508D01*
X88945163Y-146607384D01*
X88958915Y-146656385D01*
X88981725Y-146692042D01*
X89004507Y-146716271D01*
X89054101Y-146753994D01*
X89149290Y-146816458D01*
X89280175Y-146897538D01*
X89436853Y-146991114D01*
X89609425Y-147091063D01*
X89624613Y-147099715D01*
X89811249Y-147206200D01*
X89949795Y-147286877D01*
X90047416Y-147347237D01*
X90111272Y-147392771D01*
X90148528Y-147428968D01*
X90166346Y-147461320D01*
X90171888Y-147495316D01*
X90172300Y-147519522D01*
X90172300Y-147627740D01*
X88931020Y-147627740D01*
X88940473Y-147826177D01*
X88949925Y-148024615D01*
X89767488Y-148033088D01*
X90585050Y-148041562D01*
X90585050Y-147633810D01*
X90584355Y-147464980D01*
X90581063Y-147347696D01*
X90573364Y-147270008D01*
X90559450Y-147219965D01*
X90537511Y-147185620D01*
X90513613Y-147161995D01*
X90463134Y-147125693D01*
X90367757Y-147065020D01*
X90238098Y-146986432D01*
X90084773Y-146896386D01*
X89950050Y-146819217D01*
X89786868Y-146725858D01*
X89640086Y-146640119D01*
X89519889Y-146568087D01*
X89436460Y-146515850D01*
X89402363Y-146491825D01*
X89360612Y-146424596D01*
X89346800Y-146353519D01*
X89346800Y-146263891D01*
X89942113Y-146255253D01*
X90537425Y-146246615D01*
X90537425Y-145865615D01*
X88949925Y-145865615D01*
X88941007Y-146255014D01*
G36*
X85458465Y-145856099D02*
G01*
X84681629Y-145865615D01*
X84505965Y-146039155D01*
X84330300Y-146212695D01*
X84330300Y-146856528D01*
X84503025Y-147019884D01*
X84597500Y-147100987D01*
X84682058Y-147159105D01*
X84740362Y-147183123D01*
X84743092Y-147183240D01*
X84771097Y-147188864D01*
X84773664Y-147211827D01*
X84746609Y-147261265D01*
X84685750Y-147346312D01*
X84641805Y-147404430D01*
X84558867Y-147510962D01*
X84499773Y-147576390D01*
X84450768Y-147610784D01*
X84398100Y-147624212D01*
X84338238Y-147626680D01*
X84203300Y-147627740D01*
X84203300Y-148040490D01*
X84637634Y-148040490D01*
X84975958Y-147611865D01*
X85099073Y-147456460D01*
X85190533Y-147344044D01*
X85257894Y-147267658D01*
X85308713Y-147220343D01*
X85350546Y-147195141D01*
X85390950Y-147185094D01*
X85437481Y-147183242D01*
X85441417Y-147183240D01*
X85568550Y-147183240D01*
X85568550Y-148040490D01*
X85753759Y-148040490D01*
X85857137Y-148037116D01*
X85933113Y-148028388D01*
X85960134Y-148019323D01*
X85965693Y-147983208D01*
X85970705Y-147891990D01*
X85974972Y-147754068D01*
X85978293Y-147577836D01*
X85980468Y-147371692D01*
X85981298Y-147144033D01*
X85981300Y-147130323D01*
X85981300Y-146262490D01*
X85568550Y-146262490D01*
X85568550Y-146511198D01*
X85566018Y-146631327D01*
X85559309Y-146725629D01*
X85549751Y-146777149D01*
X85547384Y-146781073D01*
X85502228Y-146794273D01*
X85410289Y-146801612D01*
X85287965Y-146803593D01*
X85151653Y-146800721D01*
X85017751Y-146793501D01*
X84902657Y-146782437D01*
X84822768Y-146768033D01*
X84798613Y-146758042D01*
X84766970Y-146702222D01*
X84747487Y-146606943D01*
X84741045Y-146495238D01*
X84748522Y-146390138D01*
X84770797Y-146314674D01*
X84781151Y-146300589D01*
X84835820Y-146280922D01*
X84953204Y-146268301D01*
X85132905Y-146262765D01*
X85193901Y-146262490D01*
X85568550Y-146262490D01*
X85981300Y-146262490D01*
X86235300Y-146262490D01*
X86235300Y-145846584D01*
X85458465Y-145856099D01*
G37*
X85458465Y-145856099D02*
X84681629Y-145865615D01*
X84505965Y-146039155D01*
X84330300Y-146212695D01*
X84330300Y-146856528D01*
X84503025Y-147019884D01*
X84597500Y-147100987D01*
X84682058Y-147159105D01*
X84740362Y-147183123D01*
X84743092Y-147183240D01*
X84771097Y-147188864D01*
X84773664Y-147211827D01*
X84746609Y-147261265D01*
X84685750Y-147346312D01*
X84641805Y-147404430D01*
X84558867Y-147510962D01*
X84499773Y-147576390D01*
X84450768Y-147610784D01*
X84398100Y-147624212D01*
X84338238Y-147626680D01*
X84203300Y-147627740D01*
X84203300Y-148040490D01*
X84637634Y-148040490D01*
X84975958Y-147611865D01*
X85099073Y-147456460D01*
X85190533Y-147344044D01*
X85257894Y-147267658D01*
X85308713Y-147220343D01*
X85350546Y-147195141D01*
X85390950Y-147185094D01*
X85437481Y-147183242D01*
X85441417Y-147183240D01*
X85568550Y-147183240D01*
X85568550Y-148040490D01*
X85753759Y-148040490D01*
X85857137Y-148037116D01*
X85933113Y-148028388D01*
X85960134Y-148019323D01*
X85965693Y-147983208D01*
X85970705Y-147891990D01*
X85974972Y-147754068D01*
X85978293Y-147577836D01*
X85980468Y-147371692D01*
X85981298Y-147144033D01*
X85981300Y-147130323D01*
X85981300Y-146262490D01*
X85568550Y-146262490D01*
X85568550Y-146511198D01*
X85566018Y-146631327D01*
X85559309Y-146725629D01*
X85549751Y-146777149D01*
X85547384Y-146781073D01*
X85502228Y-146794273D01*
X85410289Y-146801612D01*
X85287965Y-146803593D01*
X85151653Y-146800721D01*
X85017751Y-146793501D01*
X84902657Y-146782437D01*
X84822768Y-146768033D01*
X84798613Y-146758042D01*
X84766970Y-146702222D01*
X84747487Y-146606943D01*
X84741045Y-146495238D01*
X84748522Y-146390138D01*
X84770797Y-146314674D01*
X84781151Y-146300589D01*
X84835820Y-146280922D01*
X84953204Y-146268301D01*
X85132905Y-146262765D01*
X85193901Y-146262490D01*
X85568550Y-146262490D01*
X85981300Y-146262490D01*
X86235300Y-146262490D01*
X86235300Y-145846584D01*
X85458465Y-145856099D01*
G36*
X82012550Y-148040490D02*
G01*
X82550378Y-148040490D01*
X82655901Y-147810302D01*
X82702759Y-147705388D01*
X82767678Y-147556287D01*
X82844434Y-147377487D01*
X82926803Y-147183473D01*
X82998175Y-147013605D01*
X83234925Y-146447096D01*
X83251891Y-148040490D01*
X83442842Y-148040490D01*
X83568249Y-148033626D01*
X83637464Y-148013586D01*
X83649116Y-148000560D01*
X83652551Y-147960196D01*
X83655217Y-147864115D01*
X83657062Y-147720100D01*
X83658039Y-147535930D01*
X83658095Y-147319385D01*
X83657184Y-147078247D01*
X83656057Y-146913123D01*
X83647675Y-145865615D01*
X83082956Y-145865615D01*
X82756603Y-146622495D01*
X82668033Y-146827007D01*
X82587188Y-147011977D01*
X82517590Y-147169479D01*
X82462763Y-147291590D01*
X82426230Y-147370386D01*
X82411900Y-147397724D01*
X82406864Y-147372589D01*
X82402357Y-147292249D01*
X82398576Y-147164996D01*
X82395721Y-146999123D01*
X82393991Y-146802923D01*
X82393550Y-146632906D01*
X82393550Y-145849740D01*
X82012550Y-145849740D01*
X82012550Y-148040490D01*
G37*
X82012550Y-148040490D02*
X82550378Y-148040490D01*
X82655901Y-147810302D01*
X82702759Y-147705388D01*
X82767678Y-147556287D01*
X82844434Y-147377487D01*
X82926803Y-147183473D01*
X82998175Y-147013605D01*
X83234925Y-146447096D01*
X83251891Y-148040490D01*
X83442842Y-148040490D01*
X83568249Y-148033626D01*
X83637464Y-148013586D01*
X83649116Y-148000560D01*
X83652551Y-147960196D01*
X83655217Y-147864115D01*
X83657062Y-147720100D01*
X83658039Y-147535930D01*
X83658095Y-147319385D01*
X83657184Y-147078247D01*
X83656057Y-146913123D01*
X83647675Y-145865615D01*
X83082956Y-145865615D01*
X82756603Y-146622495D01*
X82668033Y-146827007D01*
X82587188Y-147011977D01*
X82517590Y-147169479D01*
X82462763Y-147291590D01*
X82426230Y-147370386D01*
X82411900Y-147397724D01*
X82406864Y-147372589D01*
X82402357Y-147292249D01*
X82398576Y-147164996D01*
X82395721Y-146999123D01*
X82393991Y-146802923D01*
X82393550Y-146632906D01*
X82393550Y-145849740D01*
X82012550Y-145849740D01*
X82012550Y-148040490D01*
G36*
X94236300Y-147627740D02*
G01*
X93220300Y-147627740D01*
X93220300Y-148008740D01*
X94649050Y-148008740D01*
X94649050Y-145849740D01*
X94236300Y-145849740D01*
X94236300Y-147627740D01*
G37*
X94236300Y-147627740D02*
X93220300Y-147627740D01*
X93220300Y-148008740D01*
X94649050Y-148008740D01*
X94649050Y-145849740D01*
X94236300Y-145849740D01*
X94236300Y-147627740D01*
G36*
X86711550Y-146230740D02*
G01*
X87759300Y-146230740D01*
X87759300Y-146738740D01*
X86997300Y-146738740D01*
X86997300Y-147119740D01*
X87759300Y-147119740D01*
X87759300Y-147595990D01*
X86711550Y-147595990D01*
X86711550Y-148008740D01*
X88172050Y-148008740D01*
X88172050Y-146230740D01*
X88426050Y-146230740D01*
X88426050Y-145849740D01*
X86711550Y-145849740D01*
X86711550Y-146230740D01*
G37*
X86711550Y-146230740D02*
X87759300Y-146230740D01*
X87759300Y-146738740D01*
X86997300Y-146738740D01*
X86997300Y-147119740D01*
X87759300Y-147119740D01*
X87759300Y-147595990D01*
X86711550Y-147595990D01*
X86711550Y-148008740D01*
X88172050Y-148008740D01*
X88172050Y-146230740D01*
X88426050Y-146230740D01*
X88426050Y-145849740D01*
X86711550Y-145849740D01*
X86711550Y-146230740D01*
G36*
X91081936Y-142620500D02*
G01*
X90967966Y-142633690D01*
X90932711Y-142643648D01*
X90867819Y-142684346D01*
X90778407Y-142757915D01*
X90682052Y-142849685D01*
X90666341Y-142865941D01*
X90489800Y-143051025D01*
X90489800Y-144364449D01*
X90694430Y-144575282D01*
X90899059Y-144786115D01*
X91384992Y-144793167D01*
X91558836Y-144793910D01*
X91713862Y-144791260D01*
X91837238Y-144785685D01*
X91916129Y-144777654D01*
X91934425Y-144773066D01*
X91985361Y-144738025D01*
X92064108Y-144669143D01*
X92155827Y-144579628D01*
X92180488Y-144554058D01*
X92363050Y-144362204D01*
X92363050Y-143706615D01*
X91950300Y-143706615D01*
X91950039Y-143895895D01*
X91948216Y-144032497D01*
X91943276Y-144127242D01*
X91933666Y-144190953D01*
X91917828Y-144234450D01*
X91894207Y-144268556D01*
X91864985Y-144300190D01*
X91825004Y-144339177D01*
X91785219Y-144364717D01*
X91731765Y-144379652D01*
X91650776Y-144386823D01*
X91528386Y-144389071D01*
X91430469Y-144389240D01*
X91274083Y-144388080D01*
X91167558Y-144383117D01*
X91097277Y-144372128D01*
X91049620Y-144352887D01*
X91010970Y-144323171D01*
X91007784Y-144320205D01*
X90980980Y-144292492D01*
X90961637Y-144260770D01*
X90948539Y-144214967D01*
X90940472Y-144145011D01*
X90936220Y-144040829D01*
X90934568Y-143892350D01*
X90934300Y-143711064D01*
X90934722Y-143485625D01*
X90939744Y-143315805D01*
X90955001Y-143193729D01*
X90986127Y-143111526D01*
X91038757Y-143061321D01*
X91118526Y-143035241D01*
X91231068Y-143025414D01*
X91382018Y-143023965D01*
X91426020Y-143023990D01*
X91580639Y-143024635D01*
X91685495Y-143028429D01*
X91754325Y-143038159D01*
X91800865Y-143056610D01*
X91838850Y-143086570D01*
X91864985Y-143113039D01*
X91896946Y-143147949D01*
X91919724Y-143182503D01*
X91934874Y-143227525D01*
X91943951Y-143293835D01*
X91948511Y-143392255D01*
X91950109Y-143533608D01*
X91950300Y-143706615D01*
X92363050Y-143706615D01*
X92363050Y-143048780D01*
X92158423Y-142837947D01*
X91953796Y-142627115D01*
X91488167Y-142616777D01*
X91255989Y-142614831D01*
X91081936Y-142620500D01*
G37*
X91081936Y-142620500D02*
X90967966Y-142633690D01*
X90932711Y-142643648D01*
X90867819Y-142684346D01*
X90778407Y-142757915D01*
X90682052Y-142849685D01*
X90666341Y-142865941D01*
X90489800Y-143051025D01*
X90489800Y-144364449D01*
X90694430Y-144575282D01*
X90899059Y-144786115D01*
X91384992Y-144793167D01*
X91558836Y-144793910D01*
X91713862Y-144791260D01*
X91837238Y-144785685D01*
X91916129Y-144777654D01*
X91934425Y-144773066D01*
X91985361Y-144738025D01*
X92064108Y-144669143D01*
X92155827Y-144579628D01*
X92180488Y-144554058D01*
X92363050Y-144362204D01*
X92363050Y-143706615D01*
X91950300Y-143706615D01*
X91950039Y-143895895D01*
X91948216Y-144032497D01*
X91943276Y-144127242D01*
X91933666Y-144190953D01*
X91917828Y-144234450D01*
X91894207Y-144268556D01*
X91864985Y-144300190D01*
X91825004Y-144339177D01*
X91785219Y-144364717D01*
X91731765Y-144379652D01*
X91650776Y-144386823D01*
X91528386Y-144389071D01*
X91430469Y-144389240D01*
X91274083Y-144388080D01*
X91167558Y-144383117D01*
X91097277Y-144372128D01*
X91049620Y-144352887D01*
X91010970Y-144323171D01*
X91007784Y-144320205D01*
X90980980Y-144292492D01*
X90961637Y-144260770D01*
X90948539Y-144214967D01*
X90940472Y-144145011D01*
X90936220Y-144040829D01*
X90934568Y-143892350D01*
X90934300Y-143711064D01*
X90934722Y-143485625D01*
X90939744Y-143315805D01*
X90955001Y-143193729D01*
X90986127Y-143111526D01*
X91038757Y-143061321D01*
X91118526Y-143035241D01*
X91231068Y-143025414D01*
X91382018Y-143023965D01*
X91426020Y-143023990D01*
X91580639Y-143024635D01*
X91685495Y-143028429D01*
X91754325Y-143038159D01*
X91800865Y-143056610D01*
X91838850Y-143086570D01*
X91864985Y-143113039D01*
X91896946Y-143147949D01*
X91919724Y-143182503D01*
X91934874Y-143227525D01*
X91943951Y-143293835D01*
X91948511Y-143392255D01*
X91950109Y-143533608D01*
X91950300Y-143706615D01*
X92363050Y-143706615D01*
X92363050Y-143048780D01*
X92158423Y-142837947D01*
X91953796Y-142627115D01*
X91488167Y-142616777D01*
X91255989Y-142614831D01*
X91081936Y-142620500D01*
G36*
X88938066Y-142611926D02*
G01*
X88825674Y-142615717D01*
X88748172Y-142625209D01*
X88691257Y-142642999D01*
X88640626Y-142671684D01*
X88597502Y-142702401D01*
X88500183Y-142780489D01*
X88408546Y-142864028D01*
X88386566Y-142886489D01*
X88299456Y-142979416D01*
X88442043Y-143119355D01*
X88584630Y-143259293D01*
X88705116Y-143141641D01*
X88825603Y-143023990D01*
X89112417Y-143023990D01*
X89251975Y-143025541D01*
X89343552Y-143032329D01*
X89402632Y-143047549D01*
X89444702Y-143074401D01*
X89468266Y-143097473D01*
X89493524Y-143127796D01*
X89511742Y-143163468D01*
X89524064Y-143214660D01*
X89531636Y-143291540D01*
X89535600Y-143404279D01*
X89537102Y-143563046D01*
X89537300Y-143711064D01*
X89536956Y-143908397D01*
X89535113Y-144052303D01*
X89530555Y-144152854D01*
X89522068Y-144220123D01*
X89508437Y-144264181D01*
X89488447Y-144295100D01*
X89463817Y-144320205D01*
X89419967Y-144354055D01*
X89366065Y-144374753D01*
X89286205Y-144385386D01*
X89164480Y-144389039D01*
X89107968Y-144389240D01*
X88825603Y-144389240D01*
X88705116Y-144271588D01*
X88584630Y-144153936D01*
X88441778Y-144294135D01*
X88298925Y-144434333D01*
X88433925Y-144573083D01*
X88527172Y-144664315D01*
X88608889Y-144727513D01*
X88694172Y-144767729D01*
X88798116Y-144790015D01*
X88935817Y-144799423D01*
X89115036Y-144801024D01*
X89272496Y-144797735D01*
X89408349Y-144789508D01*
X89507921Y-144777540D01*
X89553175Y-144765264D01*
X89607169Y-144726264D01*
X89688590Y-144656921D01*
X89780154Y-144571983D01*
X89783363Y-144568877D01*
X89950050Y-144407284D01*
X89950050Y-143005945D01*
X89783363Y-142843980D01*
X89690816Y-142758358D01*
X89606585Y-142687809D01*
X89548484Y-142647229D01*
X89547325Y-142646627D01*
X89486815Y-142631944D01*
X89377030Y-142620423D01*
X89232165Y-142613188D01*
X89099652Y-142611240D01*
X88938066Y-142611926D01*
G37*
X88938066Y-142611926D02*
X88825674Y-142615717D01*
X88748172Y-142625209D01*
X88691257Y-142642999D01*
X88640626Y-142671684D01*
X88597502Y-142702401D01*
X88500183Y-142780489D01*
X88408546Y-142864028D01*
X88386566Y-142886489D01*
X88299456Y-142979416D01*
X88442043Y-143119355D01*
X88584630Y-143259293D01*
X88705116Y-143141641D01*
X88825603Y-143023990D01*
X89112417Y-143023990D01*
X89251975Y-143025541D01*
X89343552Y-143032329D01*
X89402632Y-143047549D01*
X89444702Y-143074401D01*
X89468266Y-143097473D01*
X89493524Y-143127796D01*
X89511742Y-143163468D01*
X89524064Y-143214660D01*
X89531636Y-143291540D01*
X89535600Y-143404279D01*
X89537102Y-143563046D01*
X89537300Y-143711064D01*
X89536956Y-143908397D01*
X89535113Y-144052303D01*
X89530555Y-144152854D01*
X89522068Y-144220123D01*
X89508437Y-144264181D01*
X89488447Y-144295100D01*
X89463817Y-144320205D01*
X89419967Y-144354055D01*
X89366065Y-144374753D01*
X89286205Y-144385386D01*
X89164480Y-144389039D01*
X89107968Y-144389240D01*
X88825603Y-144389240D01*
X88705116Y-144271588D01*
X88584630Y-144153936D01*
X88441778Y-144294135D01*
X88298925Y-144434333D01*
X88433925Y-144573083D01*
X88527172Y-144664315D01*
X88608889Y-144727513D01*
X88694172Y-144767729D01*
X88798116Y-144790015D01*
X88935817Y-144799423D01*
X89115036Y-144801024D01*
X89272496Y-144797735D01*
X89408349Y-144789508D01*
X89507921Y-144777540D01*
X89553175Y-144765264D01*
X89607169Y-144726264D01*
X89688590Y-144656921D01*
X89780154Y-144571983D01*
X89783363Y-144568877D01*
X89950050Y-144407284D01*
X89950050Y-143005945D01*
X89783363Y-142843980D01*
X89690816Y-142758358D01*
X89606585Y-142687809D01*
X89548484Y-142647229D01*
X89547325Y-142646627D01*
X89486815Y-142631944D01*
X89377030Y-142620423D01*
X89232165Y-142613188D01*
X89099652Y-142611240D01*
X88938066Y-142611926D01*
G36*
X84493030Y-142612891D02*
G01*
X84349058Y-142620709D01*
X84241177Y-142638990D01*
X84155697Y-142672027D01*
X84078927Y-142724117D01*
X83997176Y-142799555D01*
X83957175Y-142840146D01*
X83822175Y-142978896D01*
X83965028Y-143119094D01*
X84107880Y-143259293D01*
X84228366Y-143141641D01*
X84348853Y-143023990D01*
X84683292Y-143023990D01*
X84834671Y-143025062D01*
X84936415Y-143029960D01*
X85002378Y-143041207D01*
X85046412Y-143061327D01*
X85082369Y-143092841D01*
X85086766Y-143097473D01*
X85142941Y-143196659D01*
X85155800Y-143300315D01*
X85156986Y-143345058D01*
X85155463Y-143379251D01*
X85143607Y-143405440D01*
X85113798Y-143426168D01*
X85058413Y-143443981D01*
X84969829Y-143461424D01*
X84840426Y-143481040D01*
X84662580Y-143505374D01*
X84459531Y-143532770D01*
X84286231Y-143557756D01*
X84132153Y-143582637D01*
X84009728Y-143605202D01*
X83931392Y-143623241D01*
X83912173Y-143630118D01*
X83835967Y-143700580D01*
X83786419Y-143818660D01*
X83762033Y-143988954D01*
X83758800Y-144101623D01*
X83758800Y-144356910D01*
X83962037Y-144571512D01*
X84165273Y-144786115D01*
X84684349Y-144793121D01*
X84863847Y-144793841D01*
X85024537Y-144791304D01*
X85154127Y-144785950D01*
X85240328Y-144778219D01*
X85266925Y-144772282D01*
X85320530Y-144736076D01*
X85399965Y-144667954D01*
X85487831Y-144582866D01*
X85645237Y-144421296D01*
X85521075Y-144294143D01*
X85446854Y-144224095D01*
X85386761Y-144177913D01*
X85361960Y-144166990D01*
X85320968Y-144188169D01*
X85256215Y-144241996D01*
X85219300Y-144278115D01*
X85111594Y-144389240D01*
X84726482Y-144389240D01*
X84562996Y-144388472D01*
X84450443Y-144384815D01*
X84376265Y-144376236D01*
X84327900Y-144360703D01*
X84292788Y-144336183D01*
X84272335Y-144315756D01*
X84216913Y-144219111D01*
X84203300Y-144110819D01*
X84202409Y-144061977D01*
X84205284Y-144025612D01*
X84220248Y-143998687D01*
X84255622Y-143978162D01*
X84319731Y-143960998D01*
X84420896Y-143944158D01*
X84567440Y-143924602D01*
X84767686Y-143899292D01*
X84790675Y-143896367D01*
X85024464Y-143864835D01*
X85202902Y-143836224D01*
X85333947Y-143808528D01*
X85425558Y-143779740D01*
X85485693Y-143747855D01*
X85521428Y-143712138D01*
X85546047Y-143653159D01*
X85561145Y-143554750D01*
X85567909Y-143407165D01*
X85568550Y-143325294D01*
X85568550Y-143005727D01*
X85417738Y-142860761D01*
X85316180Y-142764605D01*
X85234944Y-142696999D01*
X85159297Y-142652914D01*
X85074508Y-142627322D01*
X84965844Y-142615193D01*
X84818575Y-142611500D01*
X84686784Y-142611240D01*
X84493030Y-142612891D01*
G37*
X84493030Y-142612891D02*
X84349058Y-142620709D01*
X84241177Y-142638990D01*
X84155697Y-142672027D01*
X84078927Y-142724117D01*
X83997176Y-142799555D01*
X83957175Y-142840146D01*
X83822175Y-142978896D01*
X83965028Y-143119094D01*
X84107880Y-143259293D01*
X84228366Y-143141641D01*
X84348853Y-143023990D01*
X84683292Y-143023990D01*
X84834671Y-143025062D01*
X84936415Y-143029960D01*
X85002378Y-143041207D01*
X85046412Y-143061327D01*
X85082369Y-143092841D01*
X85086766Y-143097473D01*
X85142941Y-143196659D01*
X85155800Y-143300315D01*
X85156986Y-143345058D01*
X85155463Y-143379251D01*
X85143607Y-143405440D01*
X85113798Y-143426168D01*
X85058413Y-143443981D01*
X84969829Y-143461424D01*
X84840426Y-143481040D01*
X84662580Y-143505374D01*
X84459531Y-143532770D01*
X84286231Y-143557756D01*
X84132153Y-143582637D01*
X84009728Y-143605202D01*
X83931392Y-143623241D01*
X83912173Y-143630118D01*
X83835967Y-143700580D01*
X83786419Y-143818660D01*
X83762033Y-143988954D01*
X83758800Y-144101623D01*
X83758800Y-144356910D01*
X83962037Y-144571512D01*
X84165273Y-144786115D01*
X84684349Y-144793121D01*
X84863847Y-144793841D01*
X85024537Y-144791304D01*
X85154127Y-144785950D01*
X85240328Y-144778219D01*
X85266925Y-144772282D01*
X85320530Y-144736076D01*
X85399965Y-144667954D01*
X85487831Y-144582866D01*
X85645237Y-144421296D01*
X85521075Y-144294143D01*
X85446854Y-144224095D01*
X85386761Y-144177913D01*
X85361960Y-144166990D01*
X85320968Y-144188169D01*
X85256215Y-144241996D01*
X85219300Y-144278115D01*
X85111594Y-144389240D01*
X84726482Y-144389240D01*
X84562996Y-144388472D01*
X84450443Y-144384815D01*
X84376265Y-144376236D01*
X84327900Y-144360703D01*
X84292788Y-144336183D01*
X84272335Y-144315756D01*
X84216913Y-144219111D01*
X84203300Y-144110819D01*
X84202409Y-144061977D01*
X84205284Y-144025612D01*
X84220248Y-143998687D01*
X84255622Y-143978162D01*
X84319731Y-143960998D01*
X84420896Y-143944158D01*
X84567440Y-143924602D01*
X84767686Y-143899292D01*
X84790675Y-143896367D01*
X85024464Y-143864835D01*
X85202902Y-143836224D01*
X85333947Y-143808528D01*
X85425558Y-143779740D01*
X85485693Y-143747855D01*
X85521428Y-143712138D01*
X85546047Y-143653159D01*
X85561145Y-143554750D01*
X85567909Y-143407165D01*
X85568550Y-143325294D01*
X85568550Y-143005727D01*
X85417738Y-142860761D01*
X85316180Y-142764605D01*
X85234944Y-142696999D01*
X85159297Y-142652914D01*
X85074508Y-142627322D01*
X84965844Y-142615193D01*
X84818575Y-142611500D01*
X84686784Y-142611240D01*
X84493030Y-142612891D01*
G36*
X82270566Y-142611926D02*
G01*
X82158174Y-142615717D01*
X82080672Y-142625209D01*
X82023757Y-142642999D01*
X81973126Y-142671684D01*
X81930002Y-142702401D01*
X81832683Y-142780489D01*
X81741046Y-142864028D01*
X81719066Y-142886489D01*
X81631956Y-142979416D01*
X81774543Y-143119355D01*
X81917130Y-143259293D01*
X82037616Y-143141641D01*
X82158103Y-143023990D01*
X82444917Y-143023990D01*
X82584475Y-143025541D01*
X82676052Y-143032329D01*
X82735132Y-143047549D01*
X82777202Y-143074401D01*
X82800766Y-143097473D01*
X82826024Y-143127796D01*
X82844242Y-143163468D01*
X82856564Y-143214660D01*
X82864136Y-143291540D01*
X82868100Y-143404279D01*
X82869602Y-143563046D01*
X82869800Y-143711064D01*
X82869456Y-143908397D01*
X82867613Y-144052303D01*
X82863055Y-144152854D01*
X82854568Y-144220123D01*
X82840937Y-144264181D01*
X82820947Y-144295100D01*
X82796317Y-144320205D01*
X82752467Y-144354055D01*
X82698565Y-144374753D01*
X82618705Y-144385386D01*
X82496980Y-144389039D01*
X82440468Y-144389240D01*
X82158103Y-144389240D01*
X82037616Y-144271588D01*
X81917130Y-144153936D01*
X81774278Y-144294135D01*
X81631425Y-144434333D01*
X81766425Y-144573083D01*
X81859672Y-144664315D01*
X81941389Y-144727513D01*
X82026672Y-144767729D01*
X82130616Y-144790015D01*
X82268317Y-144799423D01*
X82447536Y-144801024D01*
X82604996Y-144797735D01*
X82740849Y-144789508D01*
X82840421Y-144777540D01*
X82885675Y-144765264D01*
X82939669Y-144726264D01*
X83021090Y-144656921D01*
X83112654Y-144571983D01*
X83115863Y-144568877D01*
X83282550Y-144407284D01*
X83282550Y-143005945D01*
X83115863Y-142843980D01*
X83023316Y-142758358D01*
X82939085Y-142687809D01*
X82880984Y-142647229D01*
X82879825Y-142646627D01*
X82819315Y-142631944D01*
X82709530Y-142620423D01*
X82564665Y-142613188D01*
X82432152Y-142611240D01*
X82270566Y-142611926D01*
G37*
X82270566Y-142611926D02*
X82158174Y-142615717D01*
X82080672Y-142625209D01*
X82023757Y-142642999D01*
X81973126Y-142671684D01*
X81930002Y-142702401D01*
X81832683Y-142780489D01*
X81741046Y-142864028D01*
X81719066Y-142886489D01*
X81631956Y-142979416D01*
X81774543Y-143119355D01*
X81917130Y-143259293D01*
X82037616Y-143141641D01*
X82158103Y-143023990D01*
X82444917Y-143023990D01*
X82584475Y-143025541D01*
X82676052Y-143032329D01*
X82735132Y-143047549D01*
X82777202Y-143074401D01*
X82800766Y-143097473D01*
X82826024Y-143127796D01*
X82844242Y-143163468D01*
X82856564Y-143214660D01*
X82864136Y-143291540D01*
X82868100Y-143404279D01*
X82869602Y-143563046D01*
X82869800Y-143711064D01*
X82869456Y-143908397D01*
X82867613Y-144052303D01*
X82863055Y-144152854D01*
X82854568Y-144220123D01*
X82840937Y-144264181D01*
X82820947Y-144295100D01*
X82796317Y-144320205D01*
X82752467Y-144354055D01*
X82698565Y-144374753D01*
X82618705Y-144385386D01*
X82496980Y-144389039D01*
X82440468Y-144389240D01*
X82158103Y-144389240D01*
X82037616Y-144271588D01*
X81917130Y-144153936D01*
X81774278Y-144294135D01*
X81631425Y-144434333D01*
X81766425Y-144573083D01*
X81859672Y-144664315D01*
X81941389Y-144727513D01*
X82026672Y-144767729D01*
X82130616Y-144790015D01*
X82268317Y-144799423D01*
X82447536Y-144801024D01*
X82604996Y-144797735D01*
X82740849Y-144789508D01*
X82840421Y-144777540D01*
X82885675Y-144765264D01*
X82939669Y-144726264D01*
X83021090Y-144656921D01*
X83112654Y-144571983D01*
X83115863Y-144568877D01*
X83282550Y-144407284D01*
X83282550Y-143005945D01*
X83115863Y-142843980D01*
X83023316Y-142758358D01*
X82939085Y-142687809D01*
X82880984Y-142647229D01*
X82879825Y-142646627D01*
X82819315Y-142631944D01*
X82709530Y-142620423D01*
X82564665Y-142613188D01*
X82432152Y-142611240D01*
X82270566Y-142611926D01*
G36*
X78392047Y-143412927D02*
G01*
X78391044Y-144214615D01*
X78314195Y-144301927D01*
X78272079Y-144344875D01*
X78227660Y-144370821D01*
X78164237Y-144384017D01*
X78065109Y-144388721D01*
X77971483Y-144389240D01*
X77837212Y-144387370D01*
X77749996Y-144379363D01*
X77693439Y-144361621D01*
X77651146Y-144330547D01*
X77636585Y-144315756D01*
X77615545Y-144291247D01*
X77599280Y-144262762D01*
X77587177Y-144222393D01*
X77578620Y-144162233D01*
X77572997Y-144074377D01*
X77569693Y-143950917D01*
X77568094Y-143783947D01*
X77567587Y-143565561D01*
X77567550Y-143426756D01*
X77567550Y-142611240D01*
X77154800Y-142611240D01*
X77154800Y-144391960D01*
X77304614Y-144552122D01*
X77405355Y-144654708D01*
X77492221Y-144724651D01*
X77581502Y-144768000D01*
X77689490Y-144790804D01*
X77832476Y-144799112D01*
X77970786Y-144799483D01*
X78115995Y-144796935D01*
X78240304Y-144792006D01*
X78328272Y-144785470D01*
X78361300Y-144779913D01*
X78404685Y-144750908D01*
X78479219Y-144688307D01*
X78571410Y-144603675D01*
X78607363Y-144569024D01*
X78805800Y-144375199D01*
X78805800Y-142611240D01*
X78393050Y-142611240D01*
X78392047Y-143412927D01*
G37*
X78392047Y-143412927D02*
X78391044Y-144214615D01*
X78314195Y-144301927D01*
X78272079Y-144344875D01*
X78227660Y-144370821D01*
X78164237Y-144384017D01*
X78065109Y-144388721D01*
X77971483Y-144389240D01*
X77837212Y-144387370D01*
X77749996Y-144379363D01*
X77693439Y-144361621D01*
X77651146Y-144330547D01*
X77636585Y-144315756D01*
X77615545Y-144291247D01*
X77599280Y-144262762D01*
X77587177Y-144222393D01*
X77578620Y-144162233D01*
X77572997Y-144074377D01*
X77569693Y-143950917D01*
X77568094Y-143783947D01*
X77567587Y-143565561D01*
X77567550Y-143426756D01*
X77567550Y-142611240D01*
X77154800Y-142611240D01*
X77154800Y-144391960D01*
X77304614Y-144552122D01*
X77405355Y-144654708D01*
X77492221Y-144724651D01*
X77581502Y-144768000D01*
X77689490Y-144790804D01*
X77832476Y-144799112D01*
X77970786Y-144799483D01*
X78115995Y-144796935D01*
X78240304Y-144792006D01*
X78328272Y-144785470D01*
X78361300Y-144779913D01*
X78404685Y-144750908D01*
X78479219Y-144688307D01*
X78571410Y-144603675D01*
X78607363Y-144569024D01*
X78805800Y-144375199D01*
X78805800Y-142611240D01*
X78393050Y-142611240D01*
X78392047Y-143412927D01*
G36*
X94236300Y-143500240D02*
G01*
X93410800Y-143500240D01*
X93410800Y-142611240D01*
X92998050Y-142611240D01*
X92998050Y-144770240D01*
X93410800Y-144770240D01*
X93410800Y-143881240D01*
X94236300Y-143881240D01*
X94236300Y-144770240D01*
X94649050Y-144770240D01*
X94649050Y-142611240D01*
X94236300Y-142611240D01*
X94236300Y-143500240D01*
G37*
X94236300Y-143500240D02*
X93410800Y-143500240D01*
X93410800Y-142611240D01*
X92998050Y-142611240D01*
X92998050Y-144770240D01*
X93410800Y-144770240D01*
X93410800Y-143881240D01*
X94236300Y-143881240D01*
X94236300Y-144770240D01*
X94649050Y-144770240D01*
X94649050Y-142611240D01*
X94236300Y-142611240D01*
X94236300Y-143500240D01*
G36*
X87441800Y-143500240D02*
G01*
X86616300Y-143500240D01*
X86616300Y-142611240D01*
X86171800Y-142611240D01*
X86171800Y-144770240D01*
X86616300Y-144770240D01*
X86616300Y-143881240D01*
X87441800Y-143881240D01*
X87441800Y-144770240D01*
X87822800Y-144770240D01*
X87822800Y-142611240D01*
X87441800Y-142611240D01*
X87441800Y-143500240D01*
G37*
X87441800Y-143500240D02*
X86616300Y-143500240D01*
X86616300Y-142611240D01*
X86171800Y-142611240D01*
X86171800Y-144770240D01*
X86616300Y-144770240D01*
X86616300Y-143881240D01*
X87441800Y-143881240D01*
X87441800Y-144770240D01*
X87822800Y-144770240D01*
X87822800Y-142611240D01*
X87441800Y-142611240D01*
X87441800Y-143500240D01*
G36*
X80742550Y-143500240D02*
G01*
X79917050Y-143500240D01*
X79917050Y-142611240D01*
X79504300Y-142611240D01*
X79504300Y-144770240D01*
X79917050Y-144770240D01*
X79917050Y-143881240D01*
X80742550Y-143881240D01*
X80742550Y-144770240D01*
X81155300Y-144770240D01*
X81155300Y-142611240D01*
X80742550Y-142611240D01*
X80742550Y-143500240D01*
G37*
X80742550Y-143500240D02*
X79917050Y-143500240D01*
X79917050Y-142611240D01*
X79504300Y-142611240D01*
X79504300Y-144770240D01*
X79917050Y-144770240D01*
X79917050Y-143881240D01*
X80742550Y-143881240D01*
X80742550Y-144770240D01*
X81155300Y-144770240D01*
X81155300Y-142611240D01*
X80742550Y-142611240D01*
X80742550Y-143500240D01*
G36*
X76075300Y-144389240D02*
G01*
X74995800Y-144389240D01*
X74995800Y-144770240D01*
X76456300Y-144770240D01*
X76456300Y-142611240D01*
X76075300Y-142611240D01*
X76075300Y-144389240D01*
G37*
X76075300Y-144389240D02*
X74995800Y-144389240D01*
X74995800Y-144770240D01*
X76456300Y-144770240D01*
X76456300Y-142611240D01*
X76075300Y-142611240D01*
X76075300Y-144389240D01*
G36*
X73059050Y-142992240D02*
G01*
X74106800Y-142992240D01*
X74106800Y-143500240D01*
X73313050Y-143500240D01*
X73313050Y-143881240D01*
X74106800Y-143881240D01*
X74106800Y-144389240D01*
X73059050Y-144389240D01*
X73059050Y-144770240D01*
X74519550Y-144770240D01*
X74519550Y-142992240D01*
X74773550Y-142992240D01*
X74773550Y-142611240D01*
X73059050Y-142611240D01*
X73059050Y-142992240D01*
G37*
X73059050Y-142992240D02*
X74106800Y-142992240D01*
X74106800Y-143500240D01*
X73313050Y-143500240D01*
X73313050Y-143881240D01*
X74106800Y-143881240D01*
X74106800Y-144389240D01*
X73059050Y-144389240D01*
X73059050Y-144770240D01*
X74519550Y-144770240D01*
X74519550Y-142992240D01*
X74773550Y-142992240D01*
X74773550Y-142611240D01*
X73059050Y-142611240D01*
X73059050Y-142992240D01*
G36*
X93379748Y-140186237D02*
G01*
X93291447Y-140240693D01*
X93229081Y-140332264D01*
X93199307Y-140448388D01*
X93208780Y-140576507D01*
X93236481Y-140654774D01*
X93305145Y-140750992D01*
X93401035Y-140796164D01*
X93534627Y-140795180D01*
X93536701Y-140794878D01*
X93593982Y-140790339D01*
X93622719Y-140809192D01*
X93635008Y-140866866D01*
X93639482Y-140925986D01*
X93652996Y-141023440D01*
X93680722Y-141071279D01*
X93704488Y-141081344D01*
X93726510Y-141080632D01*
X93741831Y-141062458D01*
X93751648Y-141017448D01*
X93757158Y-140936229D01*
X93759559Y-140809426D01*
X93760050Y-140646346D01*
X93760050Y-140587926D01*
X93630059Y-140587926D01*
X93615281Y-140661015D01*
X93575986Y-140696311D01*
X93505484Y-140706176D01*
X93496268Y-140706240D01*
X93412407Y-140693889D01*
X93363637Y-140647400D01*
X93352397Y-140625371D01*
X93317702Y-140489559D01*
X93344220Y-140369562D01*
X93375727Y-140321459D01*
X93428859Y-140270939D01*
X93486292Y-140266771D01*
X93526540Y-140278857D01*
X93582316Y-140305658D01*
X93611249Y-140348659D01*
X93624362Y-140428248D01*
X93627012Y-140464683D01*
X93630059Y-140587926D01*
X93760050Y-140587926D01*
X93760050Y-140200796D01*
X93672738Y-140201462D01*
X93574685Y-140195019D01*
X93487329Y-140181453D01*
X93379748Y-140186237D01*
G37*
X93379748Y-140186237D02*
X93291447Y-140240693D01*
X93229081Y-140332264D01*
X93199307Y-140448388D01*
X93208780Y-140576507D01*
X93236481Y-140654774D01*
X93305145Y-140750992D01*
X93401035Y-140796164D01*
X93534627Y-140795180D01*
X93536701Y-140794878D01*
X93593982Y-140790339D01*
X93622719Y-140809192D01*
X93635008Y-140866866D01*
X93639482Y-140925986D01*
X93652996Y-141023440D01*
X93680722Y-141071279D01*
X93704488Y-141081344D01*
X93726510Y-141080632D01*
X93741831Y-141062458D01*
X93751648Y-141017448D01*
X93757158Y-140936229D01*
X93759559Y-140809426D01*
X93760050Y-140646346D01*
X93760050Y-140587926D01*
X93630059Y-140587926D01*
X93615281Y-140661015D01*
X93575986Y-140696311D01*
X93505484Y-140706176D01*
X93496268Y-140706240D01*
X93412407Y-140693889D01*
X93363637Y-140647400D01*
X93352397Y-140625371D01*
X93317702Y-140489559D01*
X93344220Y-140369562D01*
X93375727Y-140321459D01*
X93428859Y-140270939D01*
X93486292Y-140266771D01*
X93526540Y-140278857D01*
X93582316Y-140305658D01*
X93611249Y-140348659D01*
X93624362Y-140428248D01*
X93627012Y-140464683D01*
X93630059Y-140587926D01*
X93760050Y-140587926D01*
X93760050Y-140200796D01*
X93672738Y-140201462D01*
X93574685Y-140195019D01*
X93487329Y-140181453D01*
X93379748Y-140186237D01*
G36*
X92664190Y-140183247D02*
G01*
X92575658Y-140236011D01*
X92510414Y-140325456D01*
X92476548Y-140438373D01*
X92482148Y-140561552D01*
X92500096Y-140617766D01*
X92562076Y-140728669D01*
X92639837Y-140785618D01*
X92748002Y-140798149D01*
X92773759Y-140796243D01*
X92899912Y-140784212D01*
X92909294Y-140927503D01*
X92922978Y-141024494D01*
X92951218Y-141071829D01*
X92974238Y-141081344D01*
X92996223Y-141080635D01*
X93011531Y-141062501D01*
X93021353Y-141017585D01*
X93026877Y-140936530D01*
X93029296Y-140809981D01*
X93029800Y-140644563D01*
X93029800Y-140493892D01*
X92902800Y-140493892D01*
X92899134Y-140592902D01*
X92889724Y-140664001D01*
X92881634Y-140685073D01*
X92826924Y-140704500D01*
X92747346Y-140702695D01*
X92676820Y-140682439D01*
X92655786Y-140666552D01*
X92623114Y-140594070D01*
X92612105Y-140476793D01*
X92613394Y-140413669D01*
X92643051Y-140326514D01*
X92711954Y-140278803D01*
X92803190Y-140280342D01*
X92827442Y-140289542D01*
X92872049Y-140318215D01*
X92894653Y-140364196D01*
X92902327Y-140446665D01*
X92902800Y-140493892D01*
X93029800Y-140493892D01*
X93029800Y-140197231D01*
X92942488Y-140199435D01*
X92841072Y-140193095D01*
X92767922Y-140180374D01*
X92664190Y-140183247D01*
G37*
X92664190Y-140183247D02*
X92575658Y-140236011D01*
X92510414Y-140325456D01*
X92476548Y-140438373D01*
X92482148Y-140561552D01*
X92500096Y-140617766D01*
X92562076Y-140728669D01*
X92639837Y-140785618D01*
X92748002Y-140798149D01*
X92773759Y-140796243D01*
X92899912Y-140784212D01*
X92909294Y-140927503D01*
X92922978Y-141024494D01*
X92951218Y-141071829D01*
X92974238Y-141081344D01*
X92996223Y-141080635D01*
X93011531Y-141062501D01*
X93021353Y-141017585D01*
X93026877Y-140936530D01*
X93029296Y-140809981D01*
X93029800Y-140644563D01*
X93029800Y-140493892D01*
X92902800Y-140493892D01*
X92899134Y-140592902D01*
X92889724Y-140664001D01*
X92881634Y-140685073D01*
X92826924Y-140704500D01*
X92747346Y-140702695D01*
X92676820Y-140682439D01*
X92655786Y-140666552D01*
X92623114Y-140594070D01*
X92612105Y-140476793D01*
X92613394Y-140413669D01*
X92643051Y-140326514D01*
X92711954Y-140278803D01*
X92803190Y-140280342D01*
X92827442Y-140289542D01*
X92872049Y-140318215D01*
X92894653Y-140364196D01*
X92902327Y-140446665D01*
X92902800Y-140493892D01*
X93029800Y-140493892D01*
X93029800Y-140197231D01*
X92942488Y-140199435D01*
X92841072Y-140193095D01*
X92767922Y-140180374D01*
X92664190Y-140183247D01*
G36*
X94217992Y-139920214D02*
G01*
X94200951Y-139954639D01*
X94166990Y-140035308D01*
X94121249Y-140148921D01*
X94068866Y-140282177D01*
X94014982Y-140421776D01*
X93964734Y-140554416D01*
X93923263Y-140666798D01*
X93895708Y-140745620D01*
X93887050Y-140776720D01*
X93913805Y-140796596D01*
X93953105Y-140801490D01*
X94008065Y-140779705D01*
X94055045Y-140707643D01*
X94069046Y-140674490D01*
X94103105Y-140597561D01*
X94140623Y-140560356D01*
X94204327Y-140548466D01*
X94269419Y-140547490D01*
X94361906Y-140550765D01*
X94413768Y-140570201D01*
X94447856Y-140620216D01*
X94470721Y-140674490D01*
X94517374Y-140763258D01*
X94568959Y-140799337D01*
X94588690Y-140801490D01*
X94637283Y-140787016D01*
X94639712Y-140761802D01*
X94622710Y-140718585D01*
X94587658Y-140628551D01*
X94539380Y-140504116D01*
X94519298Y-140452240D01*
X94389212Y-140452240D01*
X94146889Y-140452240D01*
X94197655Y-140293490D01*
X94229523Y-140204467D01*
X94256669Y-140146864D01*
X94268050Y-140134740D01*
X94287851Y-140162235D01*
X94317540Y-140232804D01*
X94338446Y-140293490D01*
X94389212Y-140452240D01*
X94519298Y-140452240D01*
X94482699Y-140357702D01*
X94472005Y-140330047D01*
X94396204Y-140143071D01*
X94334845Y-140013263D01*
X94285430Y-139936589D01*
X94245460Y-139909020D01*
X94217992Y-139920214D01*
G37*
X94217992Y-139920214D02*
X94200951Y-139954639D01*
X94166990Y-140035308D01*
X94121249Y-140148921D01*
X94068866Y-140282177D01*
X94014982Y-140421776D01*
X93964734Y-140554416D01*
X93923263Y-140666798D01*
X93895708Y-140745620D01*
X93887050Y-140776720D01*
X93913805Y-140796596D01*
X93953105Y-140801490D01*
X94008065Y-140779705D01*
X94055045Y-140707643D01*
X94069046Y-140674490D01*
X94103105Y-140597561D01*
X94140623Y-140560356D01*
X94204327Y-140548466D01*
X94269419Y-140547490D01*
X94361906Y-140550765D01*
X94413768Y-140570201D01*
X94447856Y-140620216D01*
X94470721Y-140674490D01*
X94517374Y-140763258D01*
X94568959Y-140799337D01*
X94588690Y-140801490D01*
X94637283Y-140787016D01*
X94639712Y-140761802D01*
X94622710Y-140718585D01*
X94587658Y-140628551D01*
X94539380Y-140504116D01*
X94519298Y-140452240D01*
X94389212Y-140452240D01*
X94146889Y-140452240D01*
X94197655Y-140293490D01*
X94229523Y-140204467D01*
X94256669Y-140146864D01*
X94268050Y-140134740D01*
X94287851Y-140162235D01*
X94317540Y-140232804D01*
X94338446Y-140293490D01*
X94389212Y-140452240D01*
X94519298Y-140452240D01*
X94482699Y-140357702D01*
X94472005Y-140330047D01*
X94396204Y-140143071D01*
X94334845Y-140013263D01*
X94285430Y-139936589D01*
X94245460Y-139909020D01*
X94217992Y-139920214D01*
G36*
X92216751Y-139906030D02*
G01*
X92202714Y-139940226D01*
X92192827Y-140008124D01*
X92185976Y-140118647D01*
X92181049Y-140280716D01*
X92179616Y-140349052D01*
X92176546Y-140526599D01*
X92176230Y-140650356D01*
X92179875Y-140730015D01*
X92188692Y-140775266D01*
X92203888Y-140795803D01*
X92226673Y-140801316D01*
X92236050Y-140801490D01*
X92261601Y-140798805D01*
X92279165Y-140784291D01*
X92289950Y-140748255D01*
X92295167Y-140681007D01*
X92296022Y-140572854D01*
X92293726Y-140414106D01*
X92292485Y-140349052D01*
X92287958Y-140167451D01*
X92281885Y-140040426D01*
X92273153Y-139959055D01*
X92260650Y-139914416D01*
X92243263Y-139897587D01*
X92236050Y-139896615D01*
X92216751Y-139906030D01*
G37*
X92216751Y-139906030D02*
X92202714Y-139940226D01*
X92192827Y-140008124D01*
X92185976Y-140118647D01*
X92181049Y-140280716D01*
X92179616Y-140349052D01*
X92176546Y-140526599D01*
X92176230Y-140650356D01*
X92179875Y-140730015D01*
X92188692Y-140775266D01*
X92203888Y-140795803D01*
X92226673Y-140801316D01*
X92236050Y-140801490D01*
X92261601Y-140798805D01*
X92279165Y-140784291D01*
X92289950Y-140748255D01*
X92295167Y-140681007D01*
X92296022Y-140572854D01*
X92293726Y-140414106D01*
X92292485Y-140349052D01*
X92287958Y-140167451D01*
X92281885Y-140040426D01*
X92273153Y-139959055D01*
X92260650Y-139914416D01*
X92243263Y-139897587D01*
X92236050Y-139896615D01*
X92216751Y-139906030D01*
G36*
X91889037Y-140202794D02*
G01*
X91870410Y-140224311D01*
X91860190Y-140274568D01*
X91855897Y-140365346D01*
X91855050Y-140499865D01*
X91856009Y-140640053D01*
X91860539Y-140728530D01*
X91871120Y-140777075D01*
X91890231Y-140797466D01*
X91918550Y-140801490D01*
X91948064Y-140796935D01*
X91966691Y-140775418D01*
X91976911Y-140725161D01*
X91981204Y-140634383D01*
X91982050Y-140499865D01*
X91981092Y-140359676D01*
X91976562Y-140271199D01*
X91965981Y-140222654D01*
X91946870Y-140202263D01*
X91918550Y-140198240D01*
X91889037Y-140202794D01*
G37*
X91889037Y-140202794D02*
X91870410Y-140224311D01*
X91860190Y-140274568D01*
X91855897Y-140365346D01*
X91855050Y-140499865D01*
X91856009Y-140640053D01*
X91860539Y-140728530D01*
X91871120Y-140777075D01*
X91890231Y-140797466D01*
X91918550Y-140801490D01*
X91948064Y-140796935D01*
X91966691Y-140775418D01*
X91976911Y-140725161D01*
X91981204Y-140634383D01*
X91982050Y-140499865D01*
X91981092Y-140359676D01*
X91976562Y-140271199D01*
X91965981Y-140222654D01*
X91946870Y-140202263D01*
X91918550Y-140198240D01*
X91889037Y-140202794D01*
G36*
X91290216Y-140186834D02*
G01*
X91219929Y-140233272D01*
X91160444Y-140318372D01*
X91127306Y-140417473D01*
X91124800Y-140449272D01*
X91131462Y-140483158D01*
X91160457Y-140503603D01*
X91225303Y-140515066D01*
X91339515Y-140522005D01*
X91346121Y-140522286D01*
X91567441Y-140531615D01*
X91527912Y-140610990D01*
X91494164Y-140659362D01*
X91441703Y-140685541D01*
X91350591Y-140698081D01*
X91320398Y-140700033D01*
X91213131Y-140714076D01*
X91165918Y-140736462D01*
X91176910Y-140761389D01*
X91244256Y-140783058D01*
X91350665Y-140794933D01*
X91458638Y-140796250D01*
X91527192Y-140781448D01*
X91579638Y-140744251D01*
X91594219Y-140729386D01*
X91641409Y-140658720D01*
X91661967Y-140564408D01*
X91664550Y-140492703D01*
X91659334Y-140389170D01*
X91657799Y-140384646D01*
X91534794Y-140384646D01*
X91484911Y-140411878D01*
X91392347Y-140420490D01*
X91302337Y-140416232D01*
X91261976Y-140399983D01*
X91257410Y-140368330D01*
X91297825Y-140296410D01*
X91371579Y-140270096D01*
X91456109Y-140292383D01*
X91525959Y-140343277D01*
X91534794Y-140384646D01*
X91657799Y-140384646D01*
X91636571Y-140322108D01*
X91585590Y-140264859D01*
X91566864Y-140248687D01*
X91475713Y-140186258D01*
X91389324Y-140169216D01*
X91290216Y-140186834D01*
G37*
X91290216Y-140186834D02*
X91219929Y-140233272D01*
X91160444Y-140318372D01*
X91127306Y-140417473D01*
X91124800Y-140449272D01*
X91131462Y-140483158D01*
X91160457Y-140503603D01*
X91225303Y-140515066D01*
X91339515Y-140522005D01*
X91346121Y-140522286D01*
X91567441Y-140531615D01*
X91527912Y-140610990D01*
X91494164Y-140659362D01*
X91441703Y-140685541D01*
X91350591Y-140698081D01*
X91320398Y-140700033D01*
X91213131Y-140714076D01*
X91165918Y-140736462D01*
X91176910Y-140761389D01*
X91244256Y-140783058D01*
X91350665Y-140794933D01*
X91458638Y-140796250D01*
X91527192Y-140781448D01*
X91579638Y-140744251D01*
X91594219Y-140729386D01*
X91641409Y-140658720D01*
X91661967Y-140564408D01*
X91664550Y-140492703D01*
X91659334Y-140389170D01*
X91657799Y-140384646D01*
X91534794Y-140384646D01*
X91484911Y-140411878D01*
X91392347Y-140420490D01*
X91302337Y-140416232D01*
X91261976Y-140399983D01*
X91257410Y-140368330D01*
X91297825Y-140296410D01*
X91371579Y-140270096D01*
X91456109Y-140292383D01*
X91525959Y-140343277D01*
X91534794Y-140384646D01*
X91657799Y-140384646D01*
X91636571Y-140322108D01*
X91585590Y-140264859D01*
X91566864Y-140248687D01*
X91475713Y-140186258D01*
X91389324Y-140169216D01*
X91290216Y-140186834D01*
G36*
X90486795Y-139901395D02*
G01*
X90473572Y-139925285D01*
X90465051Y-139981408D01*
X90460278Y-140078498D01*
X90458297Y-140225287D01*
X90458050Y-140336428D01*
X90458050Y-140790124D01*
X90656488Y-140795195D01*
X90766343Y-140794361D01*
X90851967Y-140787082D01*
X90889860Y-140777066D01*
X90951419Y-140702206D01*
X90989146Y-140584375D01*
X90996528Y-140498435D01*
X90870800Y-140498435D01*
X90862109Y-140590560D01*
X90840471Y-140657599D01*
X90832701Y-140668140D01*
X90763936Y-140699984D01*
X90674457Y-140702412D01*
X90599824Y-140675422D01*
X90591400Y-140668140D01*
X90561874Y-140602299D01*
X90554278Y-140504973D01*
X90567464Y-140403834D01*
X90600284Y-140326557D01*
X90605846Y-140319802D01*
X90682695Y-140268361D01*
X90758283Y-140272336D01*
X90821711Y-140324378D01*
X90862080Y-140417139D01*
X90870800Y-140498435D01*
X90996528Y-140498435D01*
X90997800Y-140483634D01*
X90973491Y-140356160D01*
X90908963Y-140255491D01*
X90816817Y-140190978D01*
X90709655Y-140171972D01*
X90614713Y-140199357D01*
X90578282Y-140213491D01*
X90560078Y-140196555D01*
X90553865Y-140136002D01*
X90553300Y-140075753D01*
X90545330Y-139966158D01*
X90519911Y-139909929D01*
X90505675Y-139901008D01*
X90486795Y-139901395D01*
G37*
X90486795Y-139901395D02*
X90473572Y-139925285D01*
X90465051Y-139981408D01*
X90460278Y-140078498D01*
X90458297Y-140225287D01*
X90458050Y-140336428D01*
X90458050Y-140790124D01*
X90656488Y-140795195D01*
X90766343Y-140794361D01*
X90851967Y-140787082D01*
X90889860Y-140777066D01*
X90951419Y-140702206D01*
X90989146Y-140584375D01*
X90996528Y-140498435D01*
X90870800Y-140498435D01*
X90862109Y-140590560D01*
X90840471Y-140657599D01*
X90832701Y-140668140D01*
X90763936Y-140699984D01*
X90674457Y-140702412D01*
X90599824Y-140675422D01*
X90591400Y-140668140D01*
X90561874Y-140602299D01*
X90554278Y-140504973D01*
X90567464Y-140403834D01*
X90600284Y-140326557D01*
X90605846Y-140319802D01*
X90682695Y-140268361D01*
X90758283Y-140272336D01*
X90821711Y-140324378D01*
X90862080Y-140417139D01*
X90870800Y-140498435D01*
X90996528Y-140498435D01*
X90997800Y-140483634D01*
X90973491Y-140356160D01*
X90908963Y-140255491D01*
X90816817Y-140190978D01*
X90709655Y-140171972D01*
X90614713Y-140199357D01*
X90578282Y-140213491D01*
X90560078Y-140196555D01*
X90553865Y-140136002D01*
X90553300Y-140075753D01*
X90545330Y-139966158D01*
X90519911Y-139909929D01*
X90505675Y-139901008D01*
X90486795Y-139901395D01*
G36*
X89494046Y-139931086D02*
G01*
X89492272Y-139931761D01*
X89448437Y-139973426D01*
X89442050Y-139999416D01*
X89456014Y-140030104D01*
X89507677Y-140035510D01*
X89557639Y-140029041D01*
X89684470Y-140025107D01*
X89762699Y-140055707D01*
X89789467Y-140111331D01*
X89761915Y-140182469D01*
X89677183Y-140259611D01*
X89634762Y-140285561D01*
X89495362Y-140383501D01*
X89413585Y-140488193D01*
X89391999Y-140595957D01*
X89397094Y-140626191D01*
X89444104Y-140718033D01*
X89533806Y-140774806D01*
X89672365Y-140799710D01*
X89734865Y-140801490D01*
X89839018Y-140798907D01*
X89894429Y-140787857D01*
X89915760Y-140763383D01*
X89918300Y-140739485D01*
X89911320Y-140702802D01*
X89879700Y-140688161D01*
X89807428Y-140690872D01*
X89767488Y-140695296D01*
X89666722Y-140701544D01*
X89604060Y-140686796D01*
X89560347Y-140650767D01*
X89522967Y-140587479D01*
X89534712Y-140526990D01*
X89599655Y-140462190D01*
X89707298Y-140394110D01*
X89805069Y-140329592D01*
X89883187Y-140261447D01*
X89914490Y-140221235D01*
X89935224Y-140127822D01*
X89904108Y-140041786D01*
X89832786Y-139971109D01*
X89732904Y-139923778D01*
X89616109Y-139907775D01*
X89494046Y-139931086D01*
G37*
X89494046Y-139931086D02*
X89492272Y-139931761D01*
X89448437Y-139973426D01*
X89442050Y-139999416D01*
X89456014Y-140030104D01*
X89507677Y-140035510D01*
X89557639Y-140029041D01*
X89684470Y-140025107D01*
X89762699Y-140055707D01*
X89789467Y-140111331D01*
X89761915Y-140182469D01*
X89677183Y-140259611D01*
X89634762Y-140285561D01*
X89495362Y-140383501D01*
X89413585Y-140488193D01*
X89391999Y-140595957D01*
X89397094Y-140626191D01*
X89444104Y-140718033D01*
X89533806Y-140774806D01*
X89672365Y-140799710D01*
X89734865Y-140801490D01*
X89839018Y-140798907D01*
X89894429Y-140787857D01*
X89915760Y-140763383D01*
X89918300Y-140739485D01*
X89911320Y-140702802D01*
X89879700Y-140688161D01*
X89807428Y-140690872D01*
X89767488Y-140695296D01*
X89666722Y-140701544D01*
X89604060Y-140686796D01*
X89560347Y-140650767D01*
X89522967Y-140587479D01*
X89534712Y-140526990D01*
X89599655Y-140462190D01*
X89707298Y-140394110D01*
X89805069Y-140329592D01*
X89883187Y-140261447D01*
X89914490Y-140221235D01*
X89935224Y-140127822D01*
X89904108Y-140041786D01*
X89832786Y-139971109D01*
X89732904Y-139923778D01*
X89616109Y-139907775D01*
X89494046Y-139931086D01*
G36*
X88878434Y-140178903D02*
G01*
X88801777Y-140209861D01*
X88775300Y-140252090D01*
X88791128Y-140282270D01*
X88847680Y-140282135D01*
X88871841Y-140277331D01*
X88989237Y-140276721D01*
X89074231Y-140328361D01*
X89119299Y-140426074D01*
X89124550Y-140484721D01*
X89103409Y-140612257D01*
X89042783Y-140693631D01*
X88946870Y-140724721D01*
X88885214Y-140719792D01*
X88809987Y-140711398D01*
X88779116Y-140727670D01*
X88775300Y-140750331D01*
X88788552Y-140781093D01*
X88837216Y-140796791D01*
X88934654Y-140801470D01*
X88944391Y-140801490D01*
X89056697Y-140795151D01*
X89129875Y-140771291D01*
X89182516Y-140728006D01*
X89241731Y-140622430D01*
X89256504Y-140494356D01*
X89227938Y-140365531D01*
X89158743Y-140259297D01*
X89082015Y-140199937D01*
X89007437Y-140168467D01*
X88992055Y-140166923D01*
X88878434Y-140178903D01*
G37*
X88878434Y-140178903D02*
X88801777Y-140209861D01*
X88775300Y-140252090D01*
X88791128Y-140282270D01*
X88847680Y-140282135D01*
X88871841Y-140277331D01*
X88989237Y-140276721D01*
X89074231Y-140328361D01*
X89119299Y-140426074D01*
X89124550Y-140484721D01*
X89103409Y-140612257D01*
X89042783Y-140693631D01*
X88946870Y-140724721D01*
X88885214Y-140719792D01*
X88809987Y-140711398D01*
X88779116Y-140727670D01*
X88775300Y-140750331D01*
X88788552Y-140781093D01*
X88837216Y-140796791D01*
X88934654Y-140801470D01*
X88944391Y-140801490D01*
X89056697Y-140795151D01*
X89129875Y-140771291D01*
X89182516Y-140728006D01*
X89241731Y-140622430D01*
X89256504Y-140494356D01*
X89227938Y-140365531D01*
X89158743Y-140259297D01*
X89082015Y-140199937D01*
X89007437Y-140168467D01*
X88992055Y-140166923D01*
X88878434Y-140178903D01*
G36*
X88523537Y-140202794D02*
G01*
X88504910Y-140224311D01*
X88494690Y-140274568D01*
X88490397Y-140365346D01*
X88489550Y-140499865D01*
X88490509Y-140640053D01*
X88495039Y-140728530D01*
X88505620Y-140777075D01*
X88524731Y-140797466D01*
X88553050Y-140801490D01*
X88582564Y-140796935D01*
X88601191Y-140775418D01*
X88611411Y-140725161D01*
X88615704Y-140634383D01*
X88616550Y-140499865D01*
X88615592Y-140359676D01*
X88611062Y-140271199D01*
X88600481Y-140222654D01*
X88581370Y-140202263D01*
X88553050Y-140198240D01*
X88523537Y-140202794D01*
G37*
X88523537Y-140202794D02*
X88504910Y-140224311D01*
X88494690Y-140274568D01*
X88490397Y-140365346D01*
X88489550Y-140499865D01*
X88490509Y-140640053D01*
X88495039Y-140728530D01*
X88505620Y-140777075D01*
X88524731Y-140797466D01*
X88553050Y-140801490D01*
X88582564Y-140796935D01*
X88601191Y-140775418D01*
X88611411Y-140725161D01*
X88615704Y-140634383D01*
X88616550Y-140499865D01*
X88615592Y-140359676D01*
X88611062Y-140271199D01*
X88600481Y-140222654D01*
X88581370Y-140202263D01*
X88553050Y-140198240D01*
X88523537Y-140202794D01*
G36*
X87909626Y-140191927D02*
G01*
X87837232Y-140244421D01*
X87772991Y-140344791D01*
X87759300Y-140419046D01*
X87759300Y-140515740D01*
X87965675Y-140515740D01*
X88085259Y-140519447D01*
X88150046Y-140534774D01*
X88168517Y-140568032D01*
X88149153Y-140625531D01*
X88139183Y-140644827D01*
X88102609Y-140684005D01*
X88035929Y-140702467D01*
X87948683Y-140706240D01*
X87849244Y-140711406D01*
X87800882Y-140729274D01*
X87791050Y-140753865D01*
X87805819Y-140781664D01*
X87858104Y-140796507D01*
X87959872Y-140801421D01*
X87979246Y-140801490D01*
X88090025Y-140797952D01*
X88158771Y-140782663D01*
X88206778Y-140748610D01*
X88233246Y-140717833D01*
X88288323Y-140598175D01*
X88299050Y-140493140D01*
X88281042Y-140393660D01*
X88172050Y-140393660D01*
X88143663Y-140409663D01*
X88071844Y-140419260D01*
X88029175Y-140420490D01*
X87928377Y-140412017D01*
X87887430Y-140386332D01*
X87886300Y-140379214D01*
X87913162Y-140313712D01*
X87974920Y-140268397D01*
X88009213Y-140261740D01*
X88066330Y-140281782D01*
X88128097Y-140327628D01*
X88168073Y-140377859D01*
X88172050Y-140393660D01*
X88281042Y-140393660D01*
X88275221Y-140361505D01*
X88211984Y-140258899D01*
X88121720Y-140191990D01*
X88016808Y-140167443D01*
X87909626Y-140191927D01*
G37*
X87909626Y-140191927D02*
X87837232Y-140244421D01*
X87772991Y-140344791D01*
X87759300Y-140419046D01*
X87759300Y-140515740D01*
X87965675Y-140515740D01*
X88085259Y-140519447D01*
X88150046Y-140534774D01*
X88168517Y-140568032D01*
X88149153Y-140625531D01*
X88139183Y-140644827D01*
X88102609Y-140684005D01*
X88035929Y-140702467D01*
X87948683Y-140706240D01*
X87849244Y-140711406D01*
X87800882Y-140729274D01*
X87791050Y-140753865D01*
X87805819Y-140781664D01*
X87858104Y-140796507D01*
X87959872Y-140801421D01*
X87979246Y-140801490D01*
X88090025Y-140797952D01*
X88158771Y-140782663D01*
X88206778Y-140748610D01*
X88233246Y-140717833D01*
X88288323Y-140598175D01*
X88299050Y-140493140D01*
X88281042Y-140393660D01*
X88172050Y-140393660D01*
X88143663Y-140409663D01*
X88071844Y-140419260D01*
X88029175Y-140420490D01*
X87928377Y-140412017D01*
X87887430Y-140386332D01*
X87886300Y-140379214D01*
X87913162Y-140313712D01*
X87974920Y-140268397D01*
X88009213Y-140261740D01*
X88066330Y-140281782D01*
X88128097Y-140327628D01*
X88168073Y-140377859D01*
X88172050Y-140393660D01*
X88281042Y-140393660D01*
X88275221Y-140361505D01*
X88211984Y-140258899D01*
X88121720Y-140191990D01*
X88016808Y-140167443D01*
X87909626Y-140191927D01*
G36*
X87149352Y-140203949D02*
G01*
X87105466Y-140269409D01*
X87079651Y-140382285D01*
X87067017Y-140531328D01*
X87061037Y-140662131D01*
X87061577Y-140742055D01*
X87071101Y-140783591D01*
X87092075Y-140799229D01*
X87120319Y-140801490D01*
X87155836Y-140796328D01*
X87176101Y-140771669D01*
X87185336Y-140713755D01*
X87187761Y-140608827D01*
X87187800Y-140581507D01*
X87193592Y-140441430D01*
X87212343Y-140352734D01*
X87237693Y-140311632D01*
X87277723Y-140274072D01*
X87310598Y-140265534D01*
X87365261Y-140282472D01*
X87392109Y-140292704D01*
X87433643Y-140312467D01*
X87457966Y-140342593D01*
X87469661Y-140398272D01*
X87473310Y-140494691D01*
X87473550Y-140562579D01*
X87475041Y-140684570D01*
X87481840Y-140756227D01*
X87497440Y-140790688D01*
X87525334Y-140801094D01*
X87537050Y-140801490D01*
X87566544Y-140796941D01*
X87585167Y-140775451D01*
X87595393Y-140725248D01*
X87599696Y-140634563D01*
X87600550Y-140499360D01*
X87600550Y-140197231D01*
X87513238Y-140198108D01*
X87418470Y-140193766D01*
X87314800Y-140182221D01*
X87217175Y-140177641D01*
X87149352Y-140203949D01*
G37*
X87149352Y-140203949D02*
X87105466Y-140269409D01*
X87079651Y-140382285D01*
X87067017Y-140531328D01*
X87061037Y-140662131D01*
X87061577Y-140742055D01*
X87071101Y-140783591D01*
X87092075Y-140799229D01*
X87120319Y-140801490D01*
X87155836Y-140796328D01*
X87176101Y-140771669D01*
X87185336Y-140713755D01*
X87187761Y-140608827D01*
X87187800Y-140581507D01*
X87193592Y-140441430D01*
X87212343Y-140352734D01*
X87237693Y-140311632D01*
X87277723Y-140274072D01*
X87310598Y-140265534D01*
X87365261Y-140282472D01*
X87392109Y-140292704D01*
X87433643Y-140312467D01*
X87457966Y-140342593D01*
X87469661Y-140398272D01*
X87473310Y-140494691D01*
X87473550Y-140562579D01*
X87475041Y-140684570D01*
X87481840Y-140756227D01*
X87497440Y-140790688D01*
X87525334Y-140801094D01*
X87537050Y-140801490D01*
X87566544Y-140796941D01*
X87585167Y-140775451D01*
X87595393Y-140725248D01*
X87599696Y-140634563D01*
X87600550Y-140499360D01*
X87600550Y-140197231D01*
X87513238Y-140198108D01*
X87418470Y-140193766D01*
X87314800Y-140182221D01*
X87217175Y-140177641D01*
X87149352Y-140203949D01*
G36*
X86528934Y-140178903D02*
G01*
X86452277Y-140209861D01*
X86425800Y-140252090D01*
X86441628Y-140282270D01*
X86498180Y-140282135D01*
X86522341Y-140277331D01*
X86639672Y-140275640D01*
X86723107Y-140326292D01*
X86768201Y-140425374D01*
X86775050Y-140499865D01*
X86754055Y-140623845D01*
X86692554Y-140699702D01*
X86592775Y-140725479D01*
X86526248Y-140718392D01*
X86455383Y-140710895D01*
X86428083Y-140730879D01*
X86425800Y-140749896D01*
X86438552Y-140780622D01*
X86485776Y-140796458D01*
X86580925Y-140801431D01*
X86598121Y-140801490D01*
X86704905Y-140796951D01*
X86771509Y-140777951D01*
X86820931Y-140736408D01*
X86836246Y-140717833D01*
X86895062Y-140595719D01*
X86903041Y-140458962D01*
X86861446Y-140329060D01*
X86809243Y-140259297D01*
X86732515Y-140199937D01*
X86657937Y-140168467D01*
X86642555Y-140166923D01*
X86528934Y-140178903D01*
G37*
X86528934Y-140178903D02*
X86452277Y-140209861D01*
X86425800Y-140252090D01*
X86441628Y-140282270D01*
X86498180Y-140282135D01*
X86522341Y-140277331D01*
X86639672Y-140275640D01*
X86723107Y-140326292D01*
X86768201Y-140425374D01*
X86775050Y-140499865D01*
X86754055Y-140623845D01*
X86692554Y-140699702D01*
X86592775Y-140725479D01*
X86526248Y-140718392D01*
X86455383Y-140710895D01*
X86428083Y-140730879D01*
X86425800Y-140749896D01*
X86438552Y-140780622D01*
X86485776Y-140796458D01*
X86580925Y-140801431D01*
X86598121Y-140801490D01*
X86704905Y-140796951D01*
X86771509Y-140777951D01*
X86820931Y-140736408D01*
X86836246Y-140717833D01*
X86895062Y-140595719D01*
X86903041Y-140458962D01*
X86861446Y-140329060D01*
X86809243Y-140259297D01*
X86732515Y-140199937D01*
X86657937Y-140168467D01*
X86642555Y-140166923D01*
X86528934Y-140178903D01*
G36*
X85934499Y-140192590D02*
G01*
X85855348Y-140257379D01*
X85790711Y-140340589D01*
X85759639Y-140421951D01*
X85759050Y-140432531D01*
X85762611Y-140474776D01*
X85782522Y-140499676D01*
X85832632Y-140512845D01*
X85926785Y-140519898D01*
X85980371Y-140522286D01*
X86201691Y-140531615D01*
X86162190Y-140610990D01*
X86122419Y-140663754D01*
X86056924Y-140692898D01*
X85971841Y-140706240D01*
X85868855Y-140724446D01*
X85827370Y-140747552D01*
X85846149Y-140770643D01*
X85923958Y-140788802D01*
X85994171Y-140795058D01*
X86102709Y-140796267D01*
X86171359Y-140781093D01*
X86222851Y-140743703D01*
X86232266Y-140733932D01*
X86300897Y-140621131D01*
X86320005Y-140496684D01*
X86299076Y-140393944D01*
X86183476Y-140393944D01*
X86171981Y-140413086D01*
X86117651Y-140419754D01*
X86045070Y-140420490D01*
X85941955Y-140414469D01*
X85892964Y-140394873D01*
X85886050Y-140376752D01*
X85910583Y-140310436D01*
X85971315Y-140276431D01*
X86048950Y-140276192D01*
X86124189Y-140311172D01*
X86164132Y-140355811D01*
X86183476Y-140393944D01*
X86299076Y-140393944D01*
X86295175Y-140374795D01*
X86231992Y-140269668D01*
X86136042Y-140195506D01*
X86012912Y-140166513D01*
X86009114Y-140166490D01*
X85934499Y-140192590D01*
G37*
X85934499Y-140192590D02*
X85855348Y-140257379D01*
X85790711Y-140340589D01*
X85759639Y-140421951D01*
X85759050Y-140432531D01*
X85762611Y-140474776D01*
X85782522Y-140499676D01*
X85832632Y-140512845D01*
X85926785Y-140519898D01*
X85980371Y-140522286D01*
X86201691Y-140531615D01*
X86162190Y-140610990D01*
X86122419Y-140663754D01*
X86056924Y-140692898D01*
X85971841Y-140706240D01*
X85868855Y-140724446D01*
X85827370Y-140747552D01*
X85846149Y-140770643D01*
X85923958Y-140788802D01*
X85994171Y-140795058D01*
X86102709Y-140796267D01*
X86171359Y-140781093D01*
X86222851Y-140743703D01*
X86232266Y-140733932D01*
X86300897Y-140621131D01*
X86320005Y-140496684D01*
X86299076Y-140393944D01*
X86183476Y-140393944D01*
X86171981Y-140413086D01*
X86117651Y-140419754D01*
X86045070Y-140420490D01*
X85941955Y-140414469D01*
X85892964Y-140394873D01*
X85886050Y-140376752D01*
X85910583Y-140310436D01*
X85971315Y-140276431D01*
X86048950Y-140276192D01*
X86124189Y-140311172D01*
X86164132Y-140355811D01*
X86183476Y-140393944D01*
X86299076Y-140393944D01*
X86295175Y-140374795D01*
X86231992Y-140269668D01*
X86136042Y-140195506D01*
X86012912Y-140166513D01*
X86009114Y-140166490D01*
X85934499Y-140192590D01*
G36*
X85281007Y-140195792D02*
G01*
X85251140Y-140244051D01*
X85251050Y-140247335D01*
X85275340Y-140275663D01*
X85352468Y-140284486D01*
X85385988Y-140283626D01*
X85482178Y-140290199D01*
X85520248Y-140318522D01*
X85500200Y-140364764D01*
X85422032Y-140425093D01*
X85385997Y-140446056D01*
X85277409Y-140528296D01*
X85227238Y-140615009D01*
X85232903Y-140695652D01*
X85291826Y-140759677D01*
X85401428Y-140796538D01*
X85472930Y-140801490D01*
X85564907Y-140797753D01*
X85627586Y-140788289D01*
X85640446Y-140782510D01*
X85648223Y-140740008D01*
X85643444Y-140721885D01*
X85612906Y-140696385D01*
X85544275Y-140704292D01*
X85529041Y-140708465D01*
X85430457Y-140719310D01*
X85388460Y-140701703D01*
X85348696Y-140643269D01*
X85371929Y-140587182D01*
X85457667Y-140534439D01*
X85474227Y-140527539D01*
X85584545Y-140463970D01*
X85645129Y-140387682D01*
X85653547Y-140309002D01*
X85607371Y-140238260D01*
X85550571Y-140203058D01*
X85448128Y-140172722D01*
X85352471Y-140171157D01*
X85281007Y-140195792D01*
G37*
X85281007Y-140195792D02*
X85251140Y-140244051D01*
X85251050Y-140247335D01*
X85275340Y-140275663D01*
X85352468Y-140284486D01*
X85385988Y-140283626D01*
X85482178Y-140290199D01*
X85520248Y-140318522D01*
X85500200Y-140364764D01*
X85422032Y-140425093D01*
X85385997Y-140446056D01*
X85277409Y-140528296D01*
X85227238Y-140615009D01*
X85232903Y-140695652D01*
X85291826Y-140759677D01*
X85401428Y-140796538D01*
X85472930Y-140801490D01*
X85564907Y-140797753D01*
X85627586Y-140788289D01*
X85640446Y-140782510D01*
X85648223Y-140740008D01*
X85643444Y-140721885D01*
X85612906Y-140696385D01*
X85544275Y-140704292D01*
X85529041Y-140708465D01*
X85430457Y-140719310D01*
X85388460Y-140701703D01*
X85348696Y-140643269D01*
X85371929Y-140587182D01*
X85457667Y-140534439D01*
X85474227Y-140527539D01*
X85584545Y-140463970D01*
X85645129Y-140387682D01*
X85653547Y-140309002D01*
X85607371Y-140238260D01*
X85550571Y-140203058D01*
X85448128Y-140172722D01*
X85352471Y-140171157D01*
X85281007Y-140195792D01*
G36*
X84476022Y-140180514D02*
G01*
X84381806Y-140194848D01*
X84308888Y-140199799D01*
X84273841Y-140204474D01*
X84252096Y-140227736D01*
X84239368Y-140282600D01*
X84231371Y-140382078D01*
X84228174Y-140444856D01*
X84219308Y-140570253D01*
X84206630Y-140675679D01*
X84192665Y-140740890D01*
X84190627Y-140745927D01*
X84183499Y-140790185D01*
X84225304Y-140801490D01*
X84294383Y-140784507D01*
X84320367Y-140766973D01*
X84358692Y-140749627D01*
X84376216Y-140766973D01*
X84427559Y-140797086D01*
X84511845Y-140802697D01*
X84604526Y-140786269D01*
X84681054Y-140750263D01*
X84698442Y-140734656D01*
X84739408Y-140663344D01*
X84757239Y-140556797D01*
X84757378Y-140551598D01*
X84643732Y-140551598D01*
X84614933Y-140644827D01*
X84557238Y-140695157D01*
X84477118Y-140700967D01*
X84397523Y-140662155D01*
X84380744Y-140645854D01*
X84335943Y-140554885D01*
X84334996Y-140448562D01*
X84374094Y-140351359D01*
X84435413Y-140294487D01*
X84500495Y-140264772D01*
X84542317Y-140273932D01*
X84586226Y-140320819D01*
X84636959Y-140427298D01*
X84643732Y-140551598D01*
X84757378Y-140551598D01*
X84758925Y-140493782D01*
X84754513Y-140386513D01*
X84735317Y-140317954D01*
X84692401Y-140263585D01*
X84666522Y-140240259D01*
X84585698Y-140185901D01*
X84507760Y-140175613D01*
X84476022Y-140180514D01*
G37*
X84476022Y-140180514D02*
X84381806Y-140194848D01*
X84308888Y-140199799D01*
X84273841Y-140204474D01*
X84252096Y-140227736D01*
X84239368Y-140282600D01*
X84231371Y-140382078D01*
X84228174Y-140444856D01*
X84219308Y-140570253D01*
X84206630Y-140675679D01*
X84192665Y-140740890D01*
X84190627Y-140745927D01*
X84183499Y-140790185D01*
X84225304Y-140801490D01*
X84294383Y-140784507D01*
X84320367Y-140766973D01*
X84358692Y-140749627D01*
X84376216Y-140766973D01*
X84427559Y-140797086D01*
X84511845Y-140802697D01*
X84604526Y-140786269D01*
X84681054Y-140750263D01*
X84698442Y-140734656D01*
X84739408Y-140663344D01*
X84757239Y-140556797D01*
X84757378Y-140551598D01*
X84643732Y-140551598D01*
X84614933Y-140644827D01*
X84557238Y-140695157D01*
X84477118Y-140700967D01*
X84397523Y-140662155D01*
X84380744Y-140645854D01*
X84335943Y-140554885D01*
X84334996Y-140448562D01*
X84374094Y-140351359D01*
X84435413Y-140294487D01*
X84500495Y-140264772D01*
X84542317Y-140273932D01*
X84586226Y-140320819D01*
X84636959Y-140427298D01*
X84643732Y-140551598D01*
X84757378Y-140551598D01*
X84758925Y-140493782D01*
X84754513Y-140386513D01*
X84735317Y-140317954D01*
X84692401Y-140263585D01*
X84666522Y-140240259D01*
X84585698Y-140185901D01*
X84507760Y-140175613D01*
X84476022Y-140180514D01*
G36*
X83558744Y-140216196D02*
G01*
X83512737Y-140299453D01*
X83486298Y-140434606D01*
X83477715Y-140550725D01*
X83473112Y-140675840D01*
X83475258Y-140750517D01*
X83487016Y-140787695D01*
X83511248Y-140800318D01*
X83533189Y-140801490D01*
X83567369Y-140796583D01*
X83587386Y-140773015D01*
X83596985Y-140717509D01*
X83599910Y-140616789D01*
X83600050Y-140564482D01*
X83602405Y-140438938D01*
X83611744Y-140361799D01*
X83631479Y-140318068D01*
X83661472Y-140294602D01*
X83755483Y-140279633D01*
X83804347Y-140292699D01*
X83845887Y-140312463D01*
X83870214Y-140342586D01*
X83881910Y-140398258D01*
X83885560Y-140494667D01*
X83885800Y-140562579D01*
X83887291Y-140684570D01*
X83894090Y-140756227D01*
X83909690Y-140790688D01*
X83937584Y-140801094D01*
X83949300Y-140801490D01*
X83978794Y-140796941D01*
X83997417Y-140775451D01*
X84007643Y-140725248D01*
X84011946Y-140634563D01*
X84012800Y-140499360D01*
X84012800Y-140197231D01*
X83925488Y-140198108D01*
X83831129Y-140193196D01*
X83726641Y-140180154D01*
X83726407Y-140180115D01*
X83628556Y-140178520D01*
X83558744Y-140216196D01*
G37*
X83558744Y-140216196D02*
X83512737Y-140299453D01*
X83486298Y-140434606D01*
X83477715Y-140550725D01*
X83473112Y-140675840D01*
X83475258Y-140750517D01*
X83487016Y-140787695D01*
X83511248Y-140800318D01*
X83533189Y-140801490D01*
X83567369Y-140796583D01*
X83587386Y-140773015D01*
X83596985Y-140717509D01*
X83599910Y-140616789D01*
X83600050Y-140564482D01*
X83602405Y-140438938D01*
X83611744Y-140361799D01*
X83631479Y-140318068D01*
X83661472Y-140294602D01*
X83755483Y-140279633D01*
X83804347Y-140292699D01*
X83845887Y-140312463D01*
X83870214Y-140342586D01*
X83881910Y-140398258D01*
X83885560Y-140494667D01*
X83885800Y-140562579D01*
X83887291Y-140684570D01*
X83894090Y-140756227D01*
X83909690Y-140790688D01*
X83937584Y-140801094D01*
X83949300Y-140801490D01*
X83978794Y-140796941D01*
X83997417Y-140775451D01*
X84007643Y-140725248D01*
X84011946Y-140634563D01*
X84012800Y-140499360D01*
X84012800Y-140197231D01*
X83925488Y-140198108D01*
X83831129Y-140193196D01*
X83726641Y-140180154D01*
X83726407Y-140180115D01*
X83628556Y-140178520D01*
X83558744Y-140216196D01*
G36*
X82798008Y-139897841D02*
G01*
X82786563Y-139943029D01*
X82779266Y-140031211D01*
X82775482Y-140169539D01*
X82774550Y-140334376D01*
X82774550Y-140793304D01*
X82972988Y-140797032D01*
X83082860Y-140795452D01*
X83168489Y-140787587D01*
X83206360Y-140777313D01*
X83268173Y-140701715D01*
X83305854Y-140583211D01*
X83313044Y-140498435D01*
X83187300Y-140498435D01*
X83178609Y-140590560D01*
X83156971Y-140657599D01*
X83149200Y-140668140D01*
X83080436Y-140699984D01*
X82990957Y-140702412D01*
X82916324Y-140675422D01*
X82907900Y-140668140D01*
X82878374Y-140602299D01*
X82870778Y-140504973D01*
X82883964Y-140403834D01*
X82916784Y-140326557D01*
X82922346Y-140319802D01*
X82999195Y-140268361D01*
X83074783Y-140272336D01*
X83138211Y-140324378D01*
X83178580Y-140417139D01*
X83187300Y-140498435D01*
X83313044Y-140498435D01*
X83314300Y-140483634D01*
X83290782Y-140362562D01*
X83228901Y-140263090D01*
X83141672Y-140194981D01*
X83042108Y-140167997D01*
X82943222Y-140191900D01*
X82933300Y-140197827D01*
X82904188Y-140205661D01*
X82885871Y-140175411D01*
X82873000Y-140095871D01*
X82869800Y-140064869D01*
X82853693Y-139969622D01*
X82829822Y-139904545D01*
X82814238Y-139888496D01*
X82798008Y-139897841D01*
G37*
X82798008Y-139897841D02*
X82786563Y-139943029D01*
X82779266Y-140031211D01*
X82775482Y-140169539D01*
X82774550Y-140334376D01*
X82774550Y-140793304D01*
X82972988Y-140797032D01*
X83082860Y-140795452D01*
X83168489Y-140787587D01*
X83206360Y-140777313D01*
X83268173Y-140701715D01*
X83305854Y-140583211D01*
X83313044Y-140498435D01*
X83187300Y-140498435D01*
X83178609Y-140590560D01*
X83156971Y-140657599D01*
X83149200Y-140668140D01*
X83080436Y-140699984D01*
X82990957Y-140702412D01*
X82916324Y-140675422D01*
X82907900Y-140668140D01*
X82878374Y-140602299D01*
X82870778Y-140504973D01*
X82883964Y-140403834D01*
X82916784Y-140326557D01*
X82922346Y-140319802D01*
X82999195Y-140268361D01*
X83074783Y-140272336D01*
X83138211Y-140324378D01*
X83178580Y-140417139D01*
X83187300Y-140498435D01*
X83313044Y-140498435D01*
X83314300Y-140483634D01*
X83290782Y-140362562D01*
X83228901Y-140263090D01*
X83141672Y-140194981D01*
X83042108Y-140167997D01*
X82943222Y-140191900D01*
X82933300Y-140197827D01*
X82904188Y-140205661D01*
X82885871Y-140175411D01*
X82873000Y-140095871D01*
X82869800Y-140064869D01*
X82853693Y-139969622D01*
X82829822Y-139904545D01*
X82814238Y-139888496D01*
X82798008Y-139897841D01*
G36*
X81895568Y-139925245D02*
G01*
X81882387Y-139934703D01*
X81863979Y-139969996D01*
X81828080Y-140051273D01*
X81780041Y-140165272D01*
X81725212Y-140298727D01*
X81668945Y-140438376D01*
X81616590Y-140570952D01*
X81573499Y-140683194D01*
X81545023Y-140761835D01*
X81536300Y-140792595D01*
X81563412Y-140799450D01*
X81610650Y-140801490D01*
X81664119Y-140788075D01*
X81700825Y-140737478D01*
X81723049Y-140674490D01*
X81748635Y-140599102D01*
X81779845Y-140561658D01*
X81837151Y-140548879D01*
X81918832Y-140547490D01*
X82013779Y-140550289D01*
X82067197Y-140567603D01*
X82101048Y-140612806D01*
X82127380Y-140674490D01*
X82179409Y-140768807D01*
X82235891Y-140801442D01*
X82238248Y-140801490D01*
X82288009Y-140793010D01*
X82298300Y-140782302D01*
X82286684Y-140738970D01*
X82255447Y-140652067D01*
X82210010Y-140534703D01*
X82172710Y-140442020D01*
X82044300Y-140442020D01*
X82016101Y-140448429D01*
X81945681Y-140451984D01*
X81917558Y-140452240D01*
X81790815Y-140452240D01*
X81842957Y-140317302D01*
X81887241Y-140211483D01*
X81919856Y-140164575D01*
X81947940Y-140174838D01*
X81978632Y-140240532D01*
X81992836Y-140280760D01*
X82022311Y-140369121D01*
X82040932Y-140428508D01*
X82044300Y-140442020D01*
X82172710Y-140442020D01*
X82155794Y-140399988D01*
X82098219Y-140261035D01*
X82042705Y-140130952D01*
X81994672Y-140022850D01*
X81959542Y-139949841D01*
X81943954Y-139925215D01*
X81895568Y-139925245D01*
G37*
X81895568Y-139925245D02*
X81882387Y-139934703D01*
X81863979Y-139969996D01*
X81828080Y-140051273D01*
X81780041Y-140165272D01*
X81725212Y-140298727D01*
X81668945Y-140438376D01*
X81616590Y-140570952D01*
X81573499Y-140683194D01*
X81545023Y-140761835D01*
X81536300Y-140792595D01*
X81563412Y-140799450D01*
X81610650Y-140801490D01*
X81664119Y-140788075D01*
X81700825Y-140737478D01*
X81723049Y-140674490D01*
X81748635Y-140599102D01*
X81779845Y-140561658D01*
X81837151Y-140548879D01*
X81918832Y-140547490D01*
X82013779Y-140550289D01*
X82067197Y-140567603D01*
X82101048Y-140612806D01*
X82127380Y-140674490D01*
X82179409Y-140768807D01*
X82235891Y-140801442D01*
X82238248Y-140801490D01*
X82288009Y-140793010D01*
X82298300Y-140782302D01*
X82286684Y-140738970D01*
X82255447Y-140652067D01*
X82210010Y-140534703D01*
X82172710Y-140442020D01*
X82044300Y-140442020D01*
X82016101Y-140448429D01*
X81945681Y-140451984D01*
X81917558Y-140452240D01*
X81790815Y-140452240D01*
X81842957Y-140317302D01*
X81887241Y-140211483D01*
X81919856Y-140164575D01*
X81947940Y-140174838D01*
X81978632Y-140240532D01*
X81992836Y-140280760D01*
X82022311Y-140369121D01*
X82040932Y-140428508D01*
X82044300Y-140442020D01*
X82172710Y-140442020D01*
X82155794Y-140399988D01*
X82098219Y-140261035D01*
X82042705Y-140130952D01*
X81994672Y-140022850D01*
X81959542Y-139949841D01*
X81943954Y-139925215D01*
X81895568Y-139925245D01*
G36*
X81117123Y-140197604D02*
G01*
X81117644Y-140228756D01*
X81176605Y-140272146D01*
X81183402Y-140275728D01*
X81233835Y-140304581D01*
X81263327Y-140337134D01*
X81277493Y-140389769D01*
X81281950Y-140478865D01*
X81282300Y-140564180D01*
X81283810Y-140685680D01*
X81290690Y-140756886D01*
X81306468Y-140790979D01*
X81334669Y-140801138D01*
X81345800Y-140801490D01*
X81375482Y-140796879D01*
X81394141Y-140775144D01*
X81404309Y-140724425D01*
X81408517Y-140632865D01*
X81409300Y-140504045D01*
X81409300Y-140206600D01*
X81274363Y-140188377D01*
X81170782Y-140182782D01*
X81117123Y-140197604D01*
G37*
X81117123Y-140197604D02*
X81117644Y-140228756D01*
X81176605Y-140272146D01*
X81183402Y-140275728D01*
X81233835Y-140304581D01*
X81263327Y-140337134D01*
X81277493Y-140389769D01*
X81281950Y-140478865D01*
X81282300Y-140564180D01*
X81283810Y-140685680D01*
X81290690Y-140756886D01*
X81306468Y-140790979D01*
X81334669Y-140801138D01*
X81345800Y-140801490D01*
X81375482Y-140796879D01*
X81394141Y-140775144D01*
X81404309Y-140724425D01*
X81408517Y-140632865D01*
X81409300Y-140504045D01*
X81409300Y-140206600D01*
X81274363Y-140188377D01*
X81170782Y-140182782D01*
X81117123Y-140197604D01*
G36*
X80847616Y-140036138D02*
G01*
X80837800Y-140102990D01*
X80829258Y-140171062D01*
X80792943Y-140195965D01*
X80758425Y-140198240D01*
X80698757Y-140209108D01*
X80679050Y-140229990D01*
X80706222Y-140253857D01*
X80758425Y-140261740D01*
X80801243Y-140265404D01*
X80825010Y-140286002D01*
X80835319Y-140337945D01*
X80837763Y-140435642D01*
X80837800Y-140466241D01*
X80832086Y-140595680D01*
X80810747Y-140673806D01*
X80767489Y-140712117D01*
X80697730Y-140722115D01*
X80640853Y-140740144D01*
X80623646Y-140761802D01*
X80637449Y-140788499D01*
X80705865Y-140800453D01*
X80750488Y-140801490D01*
X80840425Y-140797069D01*
X80901203Y-140785947D01*
X80911884Y-140780323D01*
X80921892Y-140740563D01*
X80929347Y-140654268D01*
X80932918Y-140538395D01*
X80933050Y-140510448D01*
X80935372Y-140381682D01*
X80943786Y-140304950D01*
X80960465Y-140268906D01*
X80980675Y-140261740D01*
X81022953Y-140246400D01*
X81028300Y-140233386D01*
X81003033Y-140198678D01*
X80980675Y-140186758D01*
X80944431Y-140144472D01*
X80933050Y-140088111D01*
X80916664Y-140023526D01*
X80885425Y-140007740D01*
X80847616Y-140036138D01*
G37*
X80847616Y-140036138D02*
X80837800Y-140102990D01*
X80829258Y-140171062D01*
X80792943Y-140195965D01*
X80758425Y-140198240D01*
X80698757Y-140209108D01*
X80679050Y-140229990D01*
X80706222Y-140253857D01*
X80758425Y-140261740D01*
X80801243Y-140265404D01*
X80825010Y-140286002D01*
X80835319Y-140337945D01*
X80837763Y-140435642D01*
X80837800Y-140466241D01*
X80832086Y-140595680D01*
X80810747Y-140673806D01*
X80767489Y-140712117D01*
X80697730Y-140722115D01*
X80640853Y-140740144D01*
X80623646Y-140761802D01*
X80637449Y-140788499D01*
X80705865Y-140800453D01*
X80750488Y-140801490D01*
X80840425Y-140797069D01*
X80901203Y-140785947D01*
X80911884Y-140780323D01*
X80921892Y-140740563D01*
X80929347Y-140654268D01*
X80932918Y-140538395D01*
X80933050Y-140510448D01*
X80935372Y-140381682D01*
X80943786Y-140304950D01*
X80960465Y-140268906D01*
X80980675Y-140261740D01*
X81022953Y-140246400D01*
X81028300Y-140233386D01*
X81003033Y-140198678D01*
X80980675Y-140186758D01*
X80944431Y-140144472D01*
X80933050Y-140088111D01*
X80916664Y-140023526D01*
X80885425Y-140007740D01*
X80847616Y-140036138D01*
G36*
X80168576Y-140196762D02*
G01*
X80139353Y-140245780D01*
X80139300Y-140248312D01*
X80163773Y-140278220D01*
X80241265Y-140285401D01*
X80258363Y-140284603D01*
X80345998Y-140293768D01*
X80379971Y-140328366D01*
X80359672Y-140378931D01*
X80284490Y-140435998D01*
X80268678Y-140444413D01*
X80163012Y-140513306D01*
X80115024Y-140587520D01*
X80119061Y-140676998D01*
X80125272Y-140696627D01*
X80149005Y-140747923D01*
X80186389Y-140776038D01*
X80255763Y-140789554D01*
X80335564Y-140795053D01*
X80440534Y-140794809D01*
X80513655Y-140783505D01*
X80535387Y-140771016D01*
X80531530Y-140735551D01*
X80484200Y-140713282D01*
X80413161Y-140711624D01*
X80389764Y-140716364D01*
X80296105Y-140723571D01*
X80243864Y-140694876D01*
X80234894Y-140644043D01*
X80271049Y-140584838D01*
X80354182Y-140531026D01*
X80364248Y-140526831D01*
X80468298Y-140464498D01*
X80525588Y-140386918D01*
X80533382Y-140306346D01*
X80488944Y-140235042D01*
X80436741Y-140202110D01*
X80334787Y-140172206D01*
X80239559Y-140171330D01*
X80168576Y-140196762D01*
G37*
X80168576Y-140196762D02*
X80139353Y-140245780D01*
X80139300Y-140248312D01*
X80163773Y-140278220D01*
X80241265Y-140285401D01*
X80258363Y-140284603D01*
X80345998Y-140293768D01*
X80379971Y-140328366D01*
X80359672Y-140378931D01*
X80284490Y-140435998D01*
X80268678Y-140444413D01*
X80163012Y-140513306D01*
X80115024Y-140587520D01*
X80119061Y-140676998D01*
X80125272Y-140696627D01*
X80149005Y-140747923D01*
X80186389Y-140776038D01*
X80255763Y-140789554D01*
X80335564Y-140795053D01*
X80440534Y-140794809D01*
X80513655Y-140783505D01*
X80535387Y-140771016D01*
X80531530Y-140735551D01*
X80484200Y-140713282D01*
X80413161Y-140711624D01*
X80389764Y-140716364D01*
X80296105Y-140723571D01*
X80243864Y-140694876D01*
X80234894Y-140644043D01*
X80271049Y-140584838D01*
X80354182Y-140531026D01*
X80364248Y-140526831D01*
X80468298Y-140464498D01*
X80525588Y-140386918D01*
X80533382Y-140306346D01*
X80488944Y-140235042D01*
X80436741Y-140202110D01*
X80334787Y-140172206D01*
X80239559Y-140171330D01*
X80168576Y-140196762D01*
G36*
X91863711Y-140002425D02*
G01*
X91855050Y-140039490D01*
X91877645Y-140090567D01*
X91925766Y-140101724D01*
X91966175Y-140071240D01*
X91970313Y-140017985D01*
X91929025Y-139980762D01*
X91900802Y-139975990D01*
X91863711Y-140002425D01*
G37*
X91863711Y-140002425D02*
X91855050Y-140039490D01*
X91877645Y-140090567D01*
X91925766Y-140101724D01*
X91966175Y-140071240D01*
X91970313Y-140017985D01*
X91929025Y-139980762D01*
X91900802Y-139975990D01*
X91863711Y-140002425D01*
G36*
X88498211Y-140002425D02*
G01*
X88489550Y-140039490D01*
X88512145Y-140090567D01*
X88560266Y-140101724D01*
X88600675Y-140071240D01*
X88604813Y-140017985D01*
X88563525Y-139980762D01*
X88535302Y-139975990D01*
X88498211Y-140002425D01*
G37*
X88498211Y-140002425D02*
X88489550Y-140039490D01*
X88512145Y-140090567D01*
X88560266Y-140101724D01*
X88600675Y-140071240D01*
X88604813Y-140017985D01*
X88563525Y-139980762D01*
X88535302Y-139975990D01*
X88498211Y-140002425D01*
G36*
X84133201Y-138583160D02*
G01*
X84118344Y-138601148D01*
X84119089Y-138641165D01*
X84137238Y-138711423D01*
X84174590Y-138820136D01*
X84232949Y-138975516D01*
X84269867Y-139071457D01*
X84331436Y-139220084D01*
X84388588Y-139338229D01*
X84435514Y-139414601D01*
X84457634Y-139436418D01*
X84538481Y-139463664D01*
X84616092Y-139465896D01*
X84668832Y-139444681D01*
X84679550Y-139420365D01*
X84651995Y-139382034D01*
X84600991Y-139372740D01*
X84522985Y-139345525D01*
X84477829Y-139285427D01*
X84458469Y-139238805D01*
X84454057Y-139190449D01*
X84467187Y-139125099D01*
X84500449Y-139027497D01*
X84538493Y-138928240D01*
X84595171Y-138779896D01*
X84628766Y-138680520D01*
X84640617Y-138620461D01*
X84632062Y-138590070D01*
X84604441Y-138579698D01*
X84586946Y-138578990D01*
X84549550Y-138593208D01*
X84513851Y-138642874D01*
X84473545Y-138738505D01*
X84448909Y-138809177D01*
X84371727Y-139039365D01*
X84297139Y-138809177D01*
X84253490Y-138685857D01*
X84217235Y-138613905D01*
X84182116Y-138582673D01*
X84161859Y-138578989D01*
X84133201Y-138583160D01*
G37*
X84133201Y-138583160D02*
X84118344Y-138601148D01*
X84119089Y-138641165D01*
X84137238Y-138711423D01*
X84174590Y-138820136D01*
X84232949Y-138975516D01*
X84269867Y-139071457D01*
X84331436Y-139220084D01*
X84388588Y-139338229D01*
X84435514Y-139414601D01*
X84457634Y-139436418D01*
X84538481Y-139463664D01*
X84616092Y-139465896D01*
X84668832Y-139444681D01*
X84679550Y-139420365D01*
X84651995Y-139382034D01*
X84600991Y-139372740D01*
X84522985Y-139345525D01*
X84477829Y-139285427D01*
X84458469Y-139238805D01*
X84454057Y-139190449D01*
X84467187Y-139125099D01*
X84500449Y-139027497D01*
X84538493Y-138928240D01*
X84595171Y-138779896D01*
X84628766Y-138680520D01*
X84640617Y-138620461D01*
X84632062Y-138590070D01*
X84604441Y-138579698D01*
X84586946Y-138578990D01*
X84549550Y-138593208D01*
X84513851Y-138642874D01*
X84473545Y-138738505D01*
X84448909Y-138809177D01*
X84371727Y-139039365D01*
X84297139Y-138809177D01*
X84253490Y-138685857D01*
X84217235Y-138613905D01*
X84182116Y-138582673D01*
X84161859Y-138578989D01*
X84133201Y-138583160D01*
G36*
X93854523Y-138584638D02*
G01*
X93835468Y-138610376D01*
X93826352Y-138669389D01*
X93823642Y-138774867D01*
X93823550Y-138815997D01*
X93816234Y-138964264D01*
X93791727Y-139056427D01*
X93746189Y-139098464D01*
X93675783Y-139096351D01*
X93648925Y-139087890D01*
X93614839Y-139066242D01*
X93592925Y-139021795D01*
X93578792Y-138940300D01*
X93569550Y-138830240D01*
X93558364Y-138705139D01*
X93543257Y-138630803D01*
X93520521Y-138594497D01*
X93498113Y-138584898D01*
X93472287Y-138586055D01*
X93455924Y-138608807D01*
X93446920Y-138664240D01*
X93443175Y-138763445D01*
X93442550Y-138877931D01*
X93443255Y-139018248D01*
X93447226Y-139106804D01*
X93457247Y-139155336D01*
X93476102Y-139175580D01*
X93506575Y-139179274D01*
X93513988Y-139179070D01*
X93594440Y-139183451D01*
X93693084Y-139197420D01*
X93700052Y-139198735D01*
X93787192Y-139206530D01*
X93847578Y-139181095D01*
X93882614Y-139147937D01*
X93918212Y-139099840D01*
X93938927Y-139038928D01*
X93948464Y-138947704D01*
X93950550Y-138827003D01*
X93949163Y-138702244D01*
X93942796Y-138628048D01*
X93928144Y-138591500D01*
X93901898Y-138579684D01*
X93887050Y-138578990D01*
X93854523Y-138584638D01*
G37*
X93854523Y-138584638D02*
X93835468Y-138610376D01*
X93826352Y-138669389D01*
X93823642Y-138774867D01*
X93823550Y-138815997D01*
X93816234Y-138964264D01*
X93791727Y-139056427D01*
X93746189Y-139098464D01*
X93675783Y-139096351D01*
X93648925Y-139087890D01*
X93614839Y-139066242D01*
X93592925Y-139021795D01*
X93578792Y-138940300D01*
X93569550Y-138830240D01*
X93558364Y-138705139D01*
X93543257Y-138630803D01*
X93520521Y-138594497D01*
X93498113Y-138584898D01*
X93472287Y-138586055D01*
X93455924Y-138608807D01*
X93446920Y-138664240D01*
X93443175Y-138763445D01*
X93442550Y-138877931D01*
X93443255Y-139018248D01*
X93447226Y-139106804D01*
X93457247Y-139155336D01*
X93476102Y-139175580D01*
X93506575Y-139179274D01*
X93513988Y-139179070D01*
X93594440Y-139183451D01*
X93693084Y-139197420D01*
X93700052Y-139198735D01*
X93787192Y-139206530D01*
X93847578Y-139181095D01*
X93882614Y-139147937D01*
X93918212Y-139099840D01*
X93938927Y-139038928D01*
X93948464Y-138947704D01*
X93950550Y-138827003D01*
X93949163Y-138702244D01*
X93942796Y-138628048D01*
X93928144Y-138591500D01*
X93901898Y-138579684D01*
X93887050Y-138578990D01*
X93854523Y-138584638D01*
G36*
X92836799Y-138581068D02*
G01*
X92783944Y-138620832D01*
X92775800Y-138646129D01*
X92803024Y-138664805D01*
X92872341Y-138658081D01*
X92989672Y-138656390D01*
X93073107Y-138707042D01*
X93118201Y-138806124D01*
X93125050Y-138880615D01*
X93103165Y-139004898D01*
X93040471Y-139082926D01*
X92941413Y-139110783D01*
X92872341Y-139103148D01*
X92802383Y-139095397D01*
X92776845Y-139116995D01*
X92775800Y-139128389D01*
X92804920Y-139172326D01*
X92882734Y-139202634D01*
X92987677Y-139213556D01*
X93056010Y-139194033D01*
X93137479Y-139145215D01*
X93154364Y-139131792D01*
X93216287Y-139069734D01*
X93244861Y-139003459D01*
X93252039Y-138904359D01*
X93252050Y-138897949D01*
X93228889Y-138746094D01*
X93161562Y-138635479D01*
X93053304Y-138570716D01*
X93015893Y-138561389D01*
X92921070Y-138558799D01*
X92836799Y-138581068D01*
G37*
X92836799Y-138581068D02*
X92783944Y-138620832D01*
X92775800Y-138646129D01*
X92803024Y-138664805D01*
X92872341Y-138658081D01*
X92989672Y-138656390D01*
X93073107Y-138707042D01*
X93118201Y-138806124D01*
X93125050Y-138880615D01*
X93103165Y-139004898D01*
X93040471Y-139082926D01*
X92941413Y-139110783D01*
X92872341Y-139103148D01*
X92802383Y-139095397D01*
X92776845Y-139116995D01*
X92775800Y-139128389D01*
X92804920Y-139172326D01*
X92882734Y-139202634D01*
X92987677Y-139213556D01*
X93056010Y-139194033D01*
X93137479Y-139145215D01*
X93154364Y-139131792D01*
X93216287Y-139069734D01*
X93244861Y-139003459D01*
X93252039Y-138904359D01*
X93252050Y-138897949D01*
X93228889Y-138746094D01*
X93161562Y-138635479D01*
X93053304Y-138570716D01*
X93015893Y-138561389D01*
X92921070Y-138558799D01*
X92836799Y-138581068D01*
G36*
X92235358Y-138586379D02*
G01*
X92233299Y-138587937D01*
X92159455Y-138674236D01*
X92114774Y-138782866D01*
X92109050Y-138830902D01*
X92114978Y-138866339D01*
X92142166Y-138886093D01*
X92204726Y-138894649D01*
X92315425Y-138896490D01*
X92427573Y-138898670D01*
X92490114Y-138907874D01*
X92516869Y-138928094D01*
X92521800Y-138956102D01*
X92493445Y-139033882D01*
X92412904Y-139083836D01*
X92290945Y-139101660D01*
X92202350Y-139112296D01*
X92154722Y-139136695D01*
X92155256Y-139166585D01*
X92210940Y-139193638D01*
X92376199Y-139209944D01*
X92523700Y-139167287D01*
X92527558Y-139165222D01*
X92600249Y-139106710D01*
X92640562Y-139020157D01*
X92654367Y-138891071D01*
X92654384Y-138851961D01*
X92644086Y-138774410D01*
X92521800Y-138774410D01*
X92493413Y-138790413D01*
X92421594Y-138800010D01*
X92378925Y-138801240D01*
X92278127Y-138792767D01*
X92237180Y-138767082D01*
X92236050Y-138759964D01*
X92262912Y-138694462D01*
X92324670Y-138649147D01*
X92358963Y-138642490D01*
X92416080Y-138662532D01*
X92477847Y-138708378D01*
X92517823Y-138758609D01*
X92521800Y-138774410D01*
X92644086Y-138774410D01*
X92640709Y-138748987D01*
X92592432Y-138671008D01*
X92554957Y-138634552D01*
X92445214Y-138566890D01*
X92333262Y-138550047D01*
X92235358Y-138586379D01*
G37*
X92235358Y-138586379D02*
X92233299Y-138587937D01*
X92159455Y-138674236D01*
X92114774Y-138782866D01*
X92109050Y-138830902D01*
X92114978Y-138866339D01*
X92142166Y-138886093D01*
X92204726Y-138894649D01*
X92315425Y-138896490D01*
X92427573Y-138898670D01*
X92490114Y-138907874D01*
X92516869Y-138928094D01*
X92521800Y-138956102D01*
X92493445Y-139033882D01*
X92412904Y-139083836D01*
X92290945Y-139101660D01*
X92202350Y-139112296D01*
X92154722Y-139136695D01*
X92155256Y-139166585D01*
X92210940Y-139193638D01*
X92376199Y-139209944D01*
X92523700Y-139167287D01*
X92527558Y-139165222D01*
X92600249Y-139106710D01*
X92640562Y-139020157D01*
X92654367Y-138891071D01*
X92654384Y-138851961D01*
X92644086Y-138774410D01*
X92521800Y-138774410D01*
X92493413Y-138790413D01*
X92421594Y-138800010D01*
X92378925Y-138801240D01*
X92278127Y-138792767D01*
X92237180Y-138767082D01*
X92236050Y-138759964D01*
X92262912Y-138694462D01*
X92324670Y-138649147D01*
X92358963Y-138642490D01*
X92416080Y-138662532D01*
X92477847Y-138708378D01*
X92517823Y-138758609D01*
X92521800Y-138774410D01*
X92644086Y-138774410D01*
X92640709Y-138748987D01*
X92592432Y-138671008D01*
X92554957Y-138634552D01*
X92445214Y-138566890D01*
X92333262Y-138550047D01*
X92235358Y-138586379D01*
G36*
X90405881Y-138575200D02*
G01*
X90329185Y-138645533D01*
X90278295Y-138737914D01*
X90267550Y-138799796D01*
X90267550Y-138896490D01*
X90473925Y-138896490D01*
X90597888Y-138901604D01*
X90664744Y-138920396D01*
X90680315Y-138958034D01*
X90650423Y-139019690D01*
X90635888Y-139040341D01*
X90588086Y-139080276D01*
X90510675Y-139095196D01*
X90445388Y-139094721D01*
X90348456Y-139096765D01*
X90304358Y-139115414D01*
X90299300Y-139131598D01*
X90327220Y-139174667D01*
X90398450Y-139201661D01*
X90494196Y-139209750D01*
X90595666Y-139196101D01*
X90637216Y-139182507D01*
X90732127Y-139111847D01*
X90790854Y-138998138D01*
X90806595Y-138881487D01*
X90783507Y-138769224D01*
X90671361Y-138769224D01*
X90626533Y-138793330D01*
X90524196Y-138801240D01*
X90432764Y-138796487D01*
X90374268Y-138784317D01*
X90362800Y-138774410D01*
X90384058Y-138735454D01*
X90428470Y-138688151D01*
X90481984Y-138649249D01*
X90530872Y-138652140D01*
X90576737Y-138675293D01*
X90654863Y-138729637D01*
X90671361Y-138769224D01*
X90783507Y-138769224D01*
X90778599Y-138745365D01*
X90704151Y-138636095D01*
X90595152Y-138566260D01*
X90490445Y-138547240D01*
X90405881Y-138575200D01*
G37*
X90405881Y-138575200D02*
X90329185Y-138645533D01*
X90278295Y-138737914D01*
X90267550Y-138799796D01*
X90267550Y-138896490D01*
X90473925Y-138896490D01*
X90597888Y-138901604D01*
X90664744Y-138920396D01*
X90680315Y-138958034D01*
X90650423Y-139019690D01*
X90635888Y-139040341D01*
X90588086Y-139080276D01*
X90510675Y-139095196D01*
X90445388Y-139094721D01*
X90348456Y-139096765D01*
X90304358Y-139115414D01*
X90299300Y-139131598D01*
X90327220Y-139174667D01*
X90398450Y-139201661D01*
X90494196Y-139209750D01*
X90595666Y-139196101D01*
X90637216Y-139182507D01*
X90732127Y-139111847D01*
X90790854Y-138998138D01*
X90806595Y-138881487D01*
X90783507Y-138769224D01*
X90671361Y-138769224D01*
X90626533Y-138793330D01*
X90524196Y-138801240D01*
X90432764Y-138796487D01*
X90374268Y-138784317D01*
X90362800Y-138774410D01*
X90384058Y-138735454D01*
X90428470Y-138688151D01*
X90481984Y-138649249D01*
X90530872Y-138652140D01*
X90576737Y-138675293D01*
X90654863Y-138729637D01*
X90671361Y-138769224D01*
X90783507Y-138769224D01*
X90778599Y-138745365D01*
X90704151Y-138636095D01*
X90595152Y-138566260D01*
X90490445Y-138547240D01*
X90405881Y-138575200D01*
G36*
X89100738Y-138299177D02*
G01*
X89070159Y-138316282D01*
X89051128Y-138362095D01*
X89039911Y-138449868D01*
X89035219Y-138531693D01*
X89034408Y-138762516D01*
X89056950Y-138938681D01*
X89105330Y-139065503D01*
X89182029Y-139148295D01*
X89289530Y-139192370D01*
X89347848Y-139200923D01*
X89451857Y-139202131D01*
X89539730Y-139190061D01*
X89559262Y-139183632D01*
X89634750Y-139137535D01*
X89687357Y-139067750D01*
X89720535Y-138964153D01*
X89737737Y-138816620D01*
X89742385Y-138646602D01*
X89741818Y-138495394D01*
X89737547Y-138396343D01*
X89727802Y-138338135D01*
X89710815Y-138309459D01*
X89688113Y-138299596D01*
X89660088Y-138300944D01*
X89643289Y-138326695D01*
X89634871Y-138388847D01*
X89631986Y-138499398D01*
X89631793Y-138536974D01*
X89624071Y-138736575D01*
X89603209Y-138895638D01*
X89570672Y-139006512D01*
X89531659Y-139059398D01*
X89470638Y-139078840D01*
X89394425Y-139086017D01*
X89311477Y-139077533D01*
X89257192Y-139059398D01*
X89215203Y-138999648D01*
X89183540Y-138884667D01*
X89163667Y-138722106D01*
X89157058Y-138536974D01*
X89155125Y-138412052D01*
X89148372Y-138338583D01*
X89133954Y-138304551D01*
X89109024Y-138297939D01*
X89100738Y-138299177D01*
G37*
X89100738Y-138299177D02*
X89070159Y-138316282D01*
X89051128Y-138362095D01*
X89039911Y-138449868D01*
X89035219Y-138531693D01*
X89034408Y-138762516D01*
X89056950Y-138938681D01*
X89105330Y-139065503D01*
X89182029Y-139148295D01*
X89289530Y-139192370D01*
X89347848Y-139200923D01*
X89451857Y-139202131D01*
X89539730Y-139190061D01*
X89559262Y-139183632D01*
X89634750Y-139137535D01*
X89687357Y-139067750D01*
X89720535Y-138964153D01*
X89737737Y-138816620D01*
X89742385Y-138646602D01*
X89741818Y-138495394D01*
X89737547Y-138396343D01*
X89727802Y-138338135D01*
X89710815Y-138309459D01*
X89688113Y-138299596D01*
X89660088Y-138300944D01*
X89643289Y-138326695D01*
X89634871Y-138388847D01*
X89631986Y-138499398D01*
X89631793Y-138536974D01*
X89624071Y-138736575D01*
X89603209Y-138895638D01*
X89570672Y-139006512D01*
X89531659Y-139059398D01*
X89470638Y-139078840D01*
X89394425Y-139086017D01*
X89311477Y-139077533D01*
X89257192Y-139059398D01*
X89215203Y-138999648D01*
X89183540Y-138884667D01*
X89163667Y-138722106D01*
X89157058Y-138536974D01*
X89155125Y-138412052D01*
X89148372Y-138338583D01*
X89133954Y-138304551D01*
X89109024Y-138297939D01*
X89100738Y-138299177D01*
G36*
X86753669Y-138575086D02*
G01*
X86678436Y-138644963D01*
X86627713Y-138736375D01*
X86616300Y-138799796D01*
X86616300Y-138896490D01*
X86822675Y-138896490D01*
X86946638Y-138901604D01*
X87013494Y-138920396D01*
X87029065Y-138958034D01*
X86999173Y-139019690D01*
X86984638Y-139040341D01*
X86936836Y-139080276D01*
X86859425Y-139095196D01*
X86794138Y-139094721D01*
X86697206Y-139096765D01*
X86653108Y-139115414D01*
X86648050Y-139131598D01*
X86675717Y-139176161D01*
X86746199Y-139203029D01*
X86840723Y-139209962D01*
X86940512Y-139194719D01*
X86996675Y-139173208D01*
X87093021Y-139094424D01*
X87144124Y-138988934D01*
X87153560Y-138870639D01*
X87130402Y-138775918D01*
X87012460Y-138775918D01*
X86995940Y-138794152D01*
X86936401Y-138800571D01*
X86870300Y-138801240D01*
X86776830Y-138799250D01*
X86734341Y-138789266D01*
X86730344Y-138765262D01*
X86742354Y-138739508D01*
X86782853Y-138680746D01*
X86807255Y-138658083D01*
X86871477Y-138650682D01*
X86944890Y-138682483D01*
X86998451Y-138739890D01*
X87012460Y-138775918D01*
X87130402Y-138775918D01*
X87124906Y-138753439D01*
X87061738Y-138651234D01*
X86967633Y-138577927D01*
X86846168Y-138547415D01*
X86835613Y-138547239D01*
X86753669Y-138575086D01*
G37*
X86753669Y-138575086D02*
X86678436Y-138644963D01*
X86627713Y-138736375D01*
X86616300Y-138799796D01*
X86616300Y-138896490D01*
X86822675Y-138896490D01*
X86946638Y-138901604D01*
X87013494Y-138920396D01*
X87029065Y-138958034D01*
X86999173Y-139019690D01*
X86984638Y-139040341D01*
X86936836Y-139080276D01*
X86859425Y-139095196D01*
X86794138Y-139094721D01*
X86697206Y-139096765D01*
X86653108Y-139115414D01*
X86648050Y-139131598D01*
X86675717Y-139176161D01*
X86746199Y-139203029D01*
X86840723Y-139209962D01*
X86940512Y-139194719D01*
X86996675Y-139173208D01*
X87093021Y-139094424D01*
X87144124Y-138988934D01*
X87153560Y-138870639D01*
X87130402Y-138775918D01*
X87012460Y-138775918D01*
X86995940Y-138794152D01*
X86936401Y-138800571D01*
X86870300Y-138801240D01*
X86776830Y-138799250D01*
X86734341Y-138789266D01*
X86730344Y-138765262D01*
X86742354Y-138739508D01*
X86782853Y-138680746D01*
X86807255Y-138658083D01*
X86871477Y-138650682D01*
X86944890Y-138682483D01*
X86998451Y-138739890D01*
X87012460Y-138775918D01*
X87130402Y-138775918D01*
X87124906Y-138753439D01*
X87061738Y-138651234D01*
X86967633Y-138577927D01*
X86846168Y-138547415D01*
X86835613Y-138547239D01*
X86753669Y-138575086D01*
G36*
X85740862Y-138563843D02*
G01*
X85732953Y-138566491D01*
X85669838Y-138600682D01*
X85666038Y-138632130D01*
X85717542Y-138653439D01*
X85782808Y-138658365D01*
X85877340Y-138672705D01*
X85915925Y-138709096D01*
X85897465Y-138757588D01*
X85820862Y-138808235D01*
X85800319Y-138817010D01*
X85681202Y-138884125D01*
X85623918Y-138965464D01*
X85628388Y-139061145D01*
X85630917Y-139068134D01*
X85695752Y-139160981D01*
X85795429Y-139205661D01*
X85919807Y-139198822D01*
X85973363Y-139181250D01*
X86037305Y-139143235D01*
X86043432Y-139111309D01*
X85997365Y-139094432D01*
X85921508Y-139098589D01*
X85822220Y-139103691D01*
X85764611Y-139077392D01*
X85760024Y-139072288D01*
X85737170Y-139020679D01*
X85764400Y-138972034D01*
X85846963Y-138918822D01*
X85877671Y-138903535D01*
X85985723Y-138837471D01*
X86035009Y-138767633D01*
X86030137Y-138686215D01*
X86020350Y-138661706D01*
X85954749Y-138587553D01*
X85854855Y-138552702D01*
X85740862Y-138563843D01*
G37*
X85740862Y-138563843D02*
X85732953Y-138566491D01*
X85669838Y-138600682D01*
X85666038Y-138632130D01*
X85717542Y-138653439D01*
X85782808Y-138658365D01*
X85877340Y-138672705D01*
X85915925Y-138709096D01*
X85897465Y-138757588D01*
X85820862Y-138808235D01*
X85800319Y-138817010D01*
X85681202Y-138884125D01*
X85623918Y-138965464D01*
X85628388Y-139061145D01*
X85630917Y-139068134D01*
X85695752Y-139160981D01*
X85795429Y-139205661D01*
X85919807Y-139198822D01*
X85973363Y-139181250D01*
X86037305Y-139143235D01*
X86043432Y-139111309D01*
X85997365Y-139094432D01*
X85921508Y-139098589D01*
X85822220Y-139103691D01*
X85764611Y-139077392D01*
X85760024Y-139072288D01*
X85737170Y-139020679D01*
X85764400Y-138972034D01*
X85846963Y-138918822D01*
X85877671Y-138903535D01*
X85985723Y-138837471D01*
X86035009Y-138767633D01*
X86030137Y-138686215D01*
X86020350Y-138661706D01*
X85954749Y-138587553D01*
X85854855Y-138552702D01*
X85740862Y-138563843D01*
G36*
X84980894Y-138401318D02*
G01*
X84966120Y-138452213D01*
X84965300Y-138481411D01*
X84957233Y-138550551D01*
X84922621Y-138576334D01*
X84885925Y-138578990D01*
X84826257Y-138589858D01*
X84806550Y-138610740D01*
X84833722Y-138634607D01*
X84885925Y-138642490D01*
X84927642Y-138645828D01*
X84951386Y-138665138D01*
X84962213Y-138714362D01*
X84965181Y-138807440D01*
X84965300Y-138861343D01*
X84958863Y-138997509D01*
X84936692Y-139078139D01*
X84894501Y-139110154D01*
X84828002Y-139100476D01*
X84819205Y-139097235D01*
X84781438Y-139096582D01*
X84779789Y-139137919D01*
X84816532Y-139190200D01*
X84886270Y-139208786D01*
X84967403Y-139192410D01*
X85026877Y-139152413D01*
X85063182Y-139104003D01*
X85083325Y-139038161D01*
X85091449Y-138936662D01*
X85092300Y-138864740D01*
X85095101Y-138743987D01*
X85105172Y-138674877D01*
X85125016Y-138645730D01*
X85139925Y-138642490D01*
X85182177Y-138625345D01*
X85187550Y-138610740D01*
X85161988Y-138582223D01*
X85142034Y-138578990D01*
X85104768Y-138551043D01*
X85086472Y-138491948D01*
X85059367Y-138419563D01*
X85020863Y-138394370D01*
X84980894Y-138401318D01*
G37*
X84980894Y-138401318D02*
X84966120Y-138452213D01*
X84965300Y-138481411D01*
X84957233Y-138550551D01*
X84922621Y-138576334D01*
X84885925Y-138578990D01*
X84826257Y-138589858D01*
X84806550Y-138610740D01*
X84833722Y-138634607D01*
X84885925Y-138642490D01*
X84927642Y-138645828D01*
X84951386Y-138665138D01*
X84962213Y-138714362D01*
X84965181Y-138807440D01*
X84965300Y-138861343D01*
X84958863Y-138997509D01*
X84936692Y-139078139D01*
X84894501Y-139110154D01*
X84828002Y-139100476D01*
X84819205Y-139097235D01*
X84781438Y-139096582D01*
X84779789Y-139137919D01*
X84816532Y-139190200D01*
X84886270Y-139208786D01*
X84967403Y-139192410D01*
X85026877Y-139152413D01*
X85063182Y-139104003D01*
X85083325Y-139038161D01*
X85091449Y-138936662D01*
X85092300Y-138864740D01*
X85095101Y-138743987D01*
X85105172Y-138674877D01*
X85125016Y-138645730D01*
X85139925Y-138642490D01*
X85182177Y-138625345D01*
X85187550Y-138610740D01*
X85161988Y-138582223D01*
X85142034Y-138578990D01*
X85104768Y-138551043D01*
X85086472Y-138491948D01*
X85059367Y-138419563D01*
X85020863Y-138394370D01*
X84980894Y-138401318D01*
G36*
X83296455Y-138562101D02*
G01*
X83193892Y-138612517D01*
X83117130Y-138704187D01*
X83092909Y-138766302D01*
X83078145Y-138909499D01*
X83108326Y-139033208D01*
X83173580Y-139130099D01*
X83264041Y-139192842D01*
X83369838Y-139214108D01*
X83481103Y-139186567D01*
X83570743Y-139121182D01*
X83645006Y-139005446D01*
X83661859Y-138882070D01*
X83537216Y-138882070D01*
X83515215Y-138989246D01*
X83473050Y-139055240D01*
X83391894Y-139110977D01*
X83317118Y-139105119D01*
X83268991Y-139068894D01*
X83213409Y-138983011D01*
X83196475Y-138887461D01*
X83211696Y-138794186D01*
X83252577Y-138715127D01*
X83312625Y-138662225D01*
X83385348Y-138647423D01*
X83464252Y-138682660D01*
X83474330Y-138691272D01*
X83523619Y-138773824D01*
X83537216Y-138882070D01*
X83661859Y-138882070D01*
X83663473Y-138870259D01*
X83625272Y-138728036D01*
X83601446Y-138683900D01*
X83515982Y-138595240D01*
X83409068Y-138555491D01*
X83296455Y-138562101D01*
G37*
X83296455Y-138562101D02*
X83193892Y-138612517D01*
X83117130Y-138704187D01*
X83092909Y-138766302D01*
X83078145Y-138909499D01*
X83108326Y-139033208D01*
X83173580Y-139130099D01*
X83264041Y-139192842D01*
X83369838Y-139214108D01*
X83481103Y-139186567D01*
X83570743Y-139121182D01*
X83645006Y-139005446D01*
X83661859Y-138882070D01*
X83537216Y-138882070D01*
X83515215Y-138989246D01*
X83473050Y-139055240D01*
X83391894Y-139110977D01*
X83317118Y-139105119D01*
X83268991Y-139068894D01*
X83213409Y-138983011D01*
X83196475Y-138887461D01*
X83211696Y-138794186D01*
X83252577Y-138715127D01*
X83312625Y-138662225D01*
X83385348Y-138647423D01*
X83464252Y-138682660D01*
X83474330Y-138691272D01*
X83523619Y-138773824D01*
X83537216Y-138882070D01*
X83661859Y-138882070D01*
X83663473Y-138870259D01*
X83625272Y-138728036D01*
X83601446Y-138683900D01*
X83515982Y-138595240D01*
X83409068Y-138555491D01*
X83296455Y-138562101D01*
G36*
X94463948Y-138296854D02*
G01*
X94446104Y-138314575D01*
X94435119Y-138356718D01*
X94429343Y-138433598D01*
X94427123Y-138555530D01*
X94426800Y-138690115D01*
X94426800Y-139086990D01*
X94252175Y-139086990D01*
X94146866Y-139091265D01*
X94092649Y-139106268D01*
X94077550Y-139134615D01*
X94090024Y-139159735D01*
X94135101Y-139174481D01*
X94224265Y-139181148D01*
X94315675Y-139182240D01*
X94553800Y-139182240D01*
X94553800Y-138737740D01*
X94553329Y-138561844D01*
X94550987Y-138439688D01*
X94545379Y-138361513D01*
X94535111Y-138317561D01*
X94518790Y-138298074D01*
X94495020Y-138293292D01*
X94490300Y-138293240D01*
X94463948Y-138296854D01*
G37*
X94463948Y-138296854D02*
X94446104Y-138314575D01*
X94435119Y-138356718D01*
X94429343Y-138433598D01*
X94427123Y-138555530D01*
X94426800Y-138690115D01*
X94426800Y-139086990D01*
X94252175Y-139086990D01*
X94146866Y-139091265D01*
X94092649Y-139106268D01*
X94077550Y-139134615D01*
X94090024Y-139159735D01*
X94135101Y-139174481D01*
X94224265Y-139181148D01*
X94315675Y-139182240D01*
X94553800Y-139182240D01*
X94553800Y-138737740D01*
X94553329Y-138561844D01*
X94550987Y-138439688D01*
X94545379Y-138361513D01*
X94535111Y-138317561D01*
X94518790Y-138298074D01*
X94495020Y-138293292D01*
X94490300Y-138293240D01*
X94463948Y-138296854D01*
G36*
X91630779Y-138583229D02*
G01*
X91654404Y-138623363D01*
X91728050Y-138664521D01*
X91776300Y-138685278D01*
X91804676Y-138712516D01*
X91818454Y-138761565D01*
X91822907Y-138847752D01*
X91823300Y-138941357D01*
X91824768Y-139063952D01*
X91831469Y-139136162D01*
X91846856Y-139171077D01*
X91874378Y-139181786D01*
X91886800Y-139182240D01*
X91916314Y-139177685D01*
X91934941Y-139156168D01*
X91945161Y-139105911D01*
X91949454Y-139015133D01*
X91950300Y-138880615D01*
X91949206Y-138740048D01*
X91944387Y-138651289D01*
X91933539Y-138602661D01*
X91914357Y-138582489D01*
X91890769Y-138578989D01*
X91816768Y-138572806D01*
X91732019Y-138559146D01*
X91656817Y-138557411D01*
X91630779Y-138583229D01*
G37*
X91630779Y-138583229D02*
X91654404Y-138623363D01*
X91728050Y-138664521D01*
X91776300Y-138685278D01*
X91804676Y-138712516D01*
X91818454Y-138761565D01*
X91822907Y-138847752D01*
X91823300Y-138941357D01*
X91824768Y-139063952D01*
X91831469Y-139136162D01*
X91846856Y-139171077D01*
X91874378Y-139181786D01*
X91886800Y-139182240D01*
X91916314Y-139177685D01*
X91934941Y-139156168D01*
X91945161Y-139105911D01*
X91949454Y-139015133D01*
X91950300Y-138880615D01*
X91949206Y-138740048D01*
X91944387Y-138651289D01*
X91933539Y-138602661D01*
X91914357Y-138582489D01*
X91890769Y-138578989D01*
X91816768Y-138572806D01*
X91732019Y-138559146D01*
X91656817Y-138557411D01*
X91630779Y-138583229D01*
G36*
X91080008Y-138591636D02*
G01*
X91047309Y-138621844D01*
X91005037Y-138670789D01*
X90980558Y-138724568D01*
X90969147Y-138801833D01*
X90966082Y-138921232D01*
X90966050Y-138942671D01*
X90967533Y-139064864D01*
X90974299Y-139136706D01*
X90989828Y-139171318D01*
X91017597Y-139181825D01*
X91029550Y-139182240D01*
X91063058Y-139176185D01*
X91082184Y-139148930D01*
X91090865Y-139086832D01*
X91093039Y-138976252D01*
X91093050Y-138962257D01*
X91098842Y-138822180D01*
X91117593Y-138733484D01*
X91142943Y-138692382D01*
X91183780Y-138654432D01*
X91217291Y-138646922D01*
X91271880Y-138667461D01*
X91297932Y-138679336D01*
X91339672Y-138702844D01*
X91363880Y-138736449D01*
X91375292Y-138795966D01*
X91378651Y-138897213D01*
X91378800Y-138949211D01*
X91380364Y-139069388D01*
X91387469Y-139139385D01*
X91403736Y-139172490D01*
X91432788Y-139181994D01*
X91442300Y-139182240D01*
X91471794Y-139177691D01*
X91490417Y-139156201D01*
X91500643Y-139105998D01*
X91504946Y-139015313D01*
X91505800Y-138880110D01*
X91505800Y-138577981D01*
X91418488Y-138579433D01*
X91321353Y-138573961D01*
X91229872Y-138560735D01*
X91147263Y-138556561D01*
X91080008Y-138591636D01*
G37*
X91080008Y-138591636D02*
X91047309Y-138621844D01*
X91005037Y-138670789D01*
X90980558Y-138724568D01*
X90969147Y-138801833D01*
X90966082Y-138921232D01*
X90966050Y-138942671D01*
X90967533Y-139064864D01*
X90974299Y-139136706D01*
X90989828Y-139171318D01*
X91017597Y-139181825D01*
X91029550Y-139182240D01*
X91063058Y-139176185D01*
X91082184Y-139148930D01*
X91090865Y-139086832D01*
X91093039Y-138976252D01*
X91093050Y-138962257D01*
X91098842Y-138822180D01*
X91117593Y-138733484D01*
X91142943Y-138692382D01*
X91183780Y-138654432D01*
X91217291Y-138646922D01*
X91271880Y-138667461D01*
X91297932Y-138679336D01*
X91339672Y-138702844D01*
X91363880Y-138736449D01*
X91375292Y-138795966D01*
X91378651Y-138897213D01*
X91378800Y-138949211D01*
X91380364Y-139069388D01*
X91387469Y-139139385D01*
X91403736Y-139172490D01*
X91432788Y-139181994D01*
X91442300Y-139182240D01*
X91471794Y-139177691D01*
X91490417Y-139156201D01*
X91500643Y-139105998D01*
X91504946Y-139015313D01*
X91505800Y-138880110D01*
X91505800Y-138577981D01*
X91418488Y-138579433D01*
X91321353Y-138573961D01*
X91229872Y-138560735D01*
X91147263Y-138556561D01*
X91080008Y-138591636D01*
G36*
X88396074Y-138580561D02*
G01*
X88366125Y-138607165D01*
X88331508Y-138651111D01*
X88311123Y-138708317D01*
X88301471Y-138795537D01*
X88299050Y-138928240D01*
X88300376Y-139054793D01*
X88306482Y-139130640D01*
X88320562Y-139168553D01*
X88345808Y-139181305D01*
X88362550Y-139182240D01*
X88395231Y-139176529D01*
X88414300Y-139150560D01*
X88423350Y-139091072D01*
X88425976Y-138984808D01*
X88426050Y-138948002D01*
X88432224Y-138796858D01*
X88453689Y-138701931D01*
X88494859Y-138656874D01*
X88560149Y-138655342D01*
X88616522Y-138674228D01*
X88665339Y-138697253D01*
X88693767Y-138726475D01*
X88707316Y-138777726D01*
X88711497Y-138866835D01*
X88711800Y-138947966D01*
X88713348Y-139068529D01*
X88720386Y-139138878D01*
X88736509Y-139172271D01*
X88765309Y-139181965D01*
X88775300Y-139182240D01*
X88804794Y-139177691D01*
X88823417Y-139156201D01*
X88833643Y-139105998D01*
X88837946Y-139015313D01*
X88838800Y-138880110D01*
X88838800Y-138577981D01*
X88751488Y-138581240D01*
X88658556Y-138577265D01*
X88553332Y-138563173D01*
X88548687Y-138562295D01*
X88459033Y-138554673D01*
X88396074Y-138580561D01*
G37*
X88396074Y-138580561D02*
X88366125Y-138607165D01*
X88331508Y-138651111D01*
X88311123Y-138708317D01*
X88301471Y-138795537D01*
X88299050Y-138928240D01*
X88300376Y-139054793D01*
X88306482Y-139130640D01*
X88320562Y-139168553D01*
X88345808Y-139181305D01*
X88362550Y-139182240D01*
X88395231Y-139176529D01*
X88414300Y-139150560D01*
X88423350Y-139091072D01*
X88425976Y-138984808D01*
X88426050Y-138948002D01*
X88432224Y-138796858D01*
X88453689Y-138701931D01*
X88494859Y-138656874D01*
X88560149Y-138655342D01*
X88616522Y-138674228D01*
X88665339Y-138697253D01*
X88693767Y-138726475D01*
X88707316Y-138777726D01*
X88711497Y-138866835D01*
X88711800Y-138947966D01*
X88713348Y-139068529D01*
X88720386Y-139138878D01*
X88736509Y-139172271D01*
X88765309Y-139181965D01*
X88775300Y-139182240D01*
X88804794Y-139177691D01*
X88823417Y-139156201D01*
X88833643Y-139105998D01*
X88837946Y-139015313D01*
X88838800Y-138880110D01*
X88838800Y-138577981D01*
X88751488Y-138581240D01*
X88658556Y-138577265D01*
X88553332Y-138563173D01*
X88548687Y-138562295D01*
X88459033Y-138554673D01*
X88396074Y-138580561D01*
G36*
X87983787Y-138583544D02*
G01*
X87965160Y-138605061D01*
X87954940Y-138655318D01*
X87950647Y-138746096D01*
X87949800Y-138880615D01*
X87950759Y-139020803D01*
X87955289Y-139109280D01*
X87965870Y-139157825D01*
X87984981Y-139178216D01*
X88013300Y-139182240D01*
X88042814Y-139177685D01*
X88061441Y-139156168D01*
X88071661Y-139105911D01*
X88075954Y-139015133D01*
X88076800Y-138880615D01*
X88075842Y-138740426D01*
X88071312Y-138651949D01*
X88060731Y-138603404D01*
X88041620Y-138583013D01*
X88013300Y-138578990D01*
X87983787Y-138583544D01*
G37*
X87983787Y-138583544D02*
X87965160Y-138605061D01*
X87954940Y-138655318D01*
X87950647Y-138746096D01*
X87949800Y-138880615D01*
X87950759Y-139020803D01*
X87955289Y-139109280D01*
X87965870Y-139157825D01*
X87984981Y-139178216D01*
X88013300Y-139182240D01*
X88042814Y-139177685D01*
X88061441Y-139156168D01*
X88071661Y-139105911D01*
X88075954Y-139015133D01*
X88076800Y-138880615D01*
X88075842Y-138740426D01*
X88071312Y-138651949D01*
X88060731Y-138603404D01*
X88041620Y-138583013D01*
X88013300Y-138578990D01*
X87983787Y-138583544D01*
G36*
X87332394Y-138791175D02*
G01*
X87391599Y-138950322D01*
X87434228Y-139059227D01*
X87465249Y-139127379D01*
X87489628Y-139164271D01*
X87512332Y-139179393D01*
X87537050Y-139182240D01*
X87588617Y-139155068D01*
X87627352Y-139094927D01*
X87655919Y-139020646D01*
X87697228Y-138910896D01*
X87740906Y-138793302D01*
X87819955Y-138578990D01*
X87748252Y-138578989D01*
X87708207Y-138587595D01*
X87675449Y-138621574D01*
X87642195Y-138693173D01*
X87602936Y-138807551D01*
X87529323Y-139036112D01*
X87460589Y-138815488D01*
X87419410Y-138695316D01*
X87383847Y-138624856D01*
X87346448Y-138591683D01*
X87322200Y-138584800D01*
X87252545Y-138574736D01*
X87332394Y-138791175D01*
G37*
X87332394Y-138791175D02*
X87391599Y-138950322D01*
X87434228Y-139059227D01*
X87465249Y-139127379D01*
X87489628Y-139164271D01*
X87512332Y-139179393D01*
X87537050Y-139182240D01*
X87588617Y-139155068D01*
X87627352Y-139094927D01*
X87655919Y-139020646D01*
X87697228Y-138910896D01*
X87740906Y-138793302D01*
X87819955Y-138578990D01*
X87748252Y-138578989D01*
X87708207Y-138587595D01*
X87675449Y-138621574D01*
X87642195Y-138693173D01*
X87602936Y-138807551D01*
X87529323Y-139036112D01*
X87460589Y-138815488D01*
X87419410Y-138695316D01*
X87383847Y-138624856D01*
X87346448Y-138591683D01*
X87322200Y-138584800D01*
X87252545Y-138574736D01*
X87332394Y-138791175D01*
G36*
X86140059Y-138589712D02*
G01*
X86140050Y-138591161D01*
X86162795Y-138635610D01*
X86185408Y-138642490D01*
X86257245Y-138665364D01*
X86303760Y-138736952D01*
X86326970Y-138861701D01*
X86330550Y-138962257D01*
X86332298Y-139078336D01*
X86340166Y-139144593D01*
X86358091Y-139174668D01*
X86390011Y-139182201D01*
X86394050Y-139182240D01*
X86423544Y-139177691D01*
X86442167Y-139156201D01*
X86452393Y-139105998D01*
X86456696Y-139015313D01*
X86457550Y-138880110D01*
X86457550Y-138577981D01*
X86370238Y-138581217D01*
X86275264Y-138575352D01*
X86211488Y-138562144D01*
X86156010Y-138555679D01*
X86140059Y-138589712D01*
G37*
X86140059Y-138589712D02*
X86140050Y-138591161D01*
X86162795Y-138635610D01*
X86185408Y-138642490D01*
X86257245Y-138665364D01*
X86303760Y-138736952D01*
X86326970Y-138861701D01*
X86330550Y-138962257D01*
X86332298Y-139078336D01*
X86340166Y-139144593D01*
X86358091Y-139174668D01*
X86390011Y-139182201D01*
X86394050Y-139182240D01*
X86423544Y-139177691D01*
X86442167Y-139156201D01*
X86452393Y-139105998D01*
X86456696Y-139015313D01*
X86457550Y-138880110D01*
X86457550Y-138577981D01*
X86370238Y-138581217D01*
X86275264Y-138575352D01*
X86211488Y-138562144D01*
X86156010Y-138555679D01*
X86140059Y-138589712D01*
G36*
X85348537Y-138583544D02*
G01*
X85329910Y-138605061D01*
X85319690Y-138655318D01*
X85315397Y-138746096D01*
X85314550Y-138880615D01*
X85315509Y-139020803D01*
X85320039Y-139109280D01*
X85330620Y-139157825D01*
X85349731Y-139178216D01*
X85378050Y-139182240D01*
X85407564Y-139177685D01*
X85426191Y-139156168D01*
X85436411Y-139105911D01*
X85440704Y-139015133D01*
X85441550Y-138880615D01*
X85440592Y-138740426D01*
X85436062Y-138651949D01*
X85425481Y-138603404D01*
X85406370Y-138583013D01*
X85378050Y-138578990D01*
X85348537Y-138583544D01*
G37*
X85348537Y-138583544D02*
X85329910Y-138605061D01*
X85319690Y-138655318D01*
X85315397Y-138746096D01*
X85314550Y-138880615D01*
X85315509Y-139020803D01*
X85320039Y-139109280D01*
X85330620Y-139157825D01*
X85349731Y-139178216D01*
X85378050Y-139182240D01*
X85407564Y-139177685D01*
X85426191Y-139156168D01*
X85436411Y-139105911D01*
X85440704Y-139015133D01*
X85441550Y-138880615D01*
X85440592Y-138740426D01*
X85436062Y-138651949D01*
X85425481Y-138603404D01*
X85406370Y-138583013D01*
X85378050Y-138578990D01*
X85348537Y-138583544D01*
G36*
X82637741Y-138267555D02*
G01*
X82560580Y-138289544D01*
X82534312Y-138324947D01*
X82559881Y-138357634D01*
X82631675Y-138371466D01*
X82698549Y-138380475D01*
X82727790Y-138418542D01*
X82736875Y-138475802D01*
X82737855Y-138546741D01*
X82712862Y-138574680D01*
X82665437Y-138578990D01*
X82604813Y-138589613D01*
X82584050Y-138610740D01*
X82611222Y-138634607D01*
X82663425Y-138642490D01*
X82701863Y-138644967D01*
X82725321Y-138660782D01*
X82737498Y-138702506D01*
X82742092Y-138782712D01*
X82742800Y-138912365D01*
X82743982Y-139043586D01*
X82749475Y-139123738D01*
X82762200Y-139165239D01*
X82785080Y-139180504D01*
X82806300Y-139182240D01*
X82837176Y-139177217D01*
X82856036Y-139153873D01*
X82865800Y-139099791D01*
X82869392Y-139002554D01*
X82869800Y-138912365D01*
X82871834Y-138777441D01*
X82879235Y-138694864D01*
X82893957Y-138653568D01*
X82917425Y-138642490D01*
X82959677Y-138625345D01*
X82965050Y-138610740D01*
X82939334Y-138582572D01*
X82917425Y-138578990D01*
X82879616Y-138550591D01*
X82869800Y-138483740D01*
X82842673Y-138373954D01*
X82770438Y-138297307D01*
X82666812Y-138266578D01*
X82637741Y-138267555D01*
G37*
X82637741Y-138267555D02*
X82560580Y-138289544D01*
X82534312Y-138324947D01*
X82559881Y-138357634D01*
X82631675Y-138371466D01*
X82698549Y-138380475D01*
X82727790Y-138418542D01*
X82736875Y-138475802D01*
X82737855Y-138546741D01*
X82712862Y-138574680D01*
X82665437Y-138578990D01*
X82604813Y-138589613D01*
X82584050Y-138610740D01*
X82611222Y-138634607D01*
X82663425Y-138642490D01*
X82701863Y-138644967D01*
X82725321Y-138660782D01*
X82737498Y-138702506D01*
X82742092Y-138782712D01*
X82742800Y-138912365D01*
X82743982Y-139043586D01*
X82749475Y-139123738D01*
X82762200Y-139165239D01*
X82785080Y-139180504D01*
X82806300Y-139182240D01*
X82837176Y-139177217D01*
X82856036Y-139153873D01*
X82865800Y-139099791D01*
X82869392Y-139002554D01*
X82869800Y-138912365D01*
X82871834Y-138777441D01*
X82879235Y-138694864D01*
X82893957Y-138653568D01*
X82917425Y-138642490D01*
X82959677Y-138625345D01*
X82965050Y-138610740D01*
X82939334Y-138582572D01*
X82917425Y-138578990D01*
X82879616Y-138550591D01*
X82869800Y-138483740D01*
X82842673Y-138373954D01*
X82770438Y-138297307D01*
X82666812Y-138266578D01*
X82637741Y-138267555D01*
G36*
X87974003Y-138394091D02*
G01*
X87965675Y-138420240D01*
X87992070Y-138465070D01*
X88021238Y-138477695D01*
X88066242Y-138466651D01*
X88076800Y-138420240D01*
X88060731Y-138368129D01*
X88021238Y-138362784D01*
X87974003Y-138394091D01*
G37*
X87974003Y-138394091D02*
X87965675Y-138420240D01*
X87992070Y-138465070D01*
X88021238Y-138477695D01*
X88066242Y-138466651D01*
X88076800Y-138420240D01*
X88060731Y-138368129D01*
X88021238Y-138362784D01*
X87974003Y-138394091D01*
G36*
X85338753Y-138394091D02*
G01*
X85330425Y-138420240D01*
X85356820Y-138465070D01*
X85385988Y-138477695D01*
X85430992Y-138466651D01*
X85441550Y-138420240D01*
X85425481Y-138368129D01*
X85385988Y-138362784D01*
X85338753Y-138394091D01*
G37*
X85338753Y-138394091D02*
X85330425Y-138420240D01*
X85356820Y-138465070D01*
X85385988Y-138477695D01*
X85430992Y-138466651D01*
X85441550Y-138420240D01*
X85425481Y-138368129D01*
X85385988Y-138362784D01*
X85338753Y-138394091D01*
D11*
X119905800Y-146260740D02*
X119205800Y-146260740D01*
X119205800Y-147460740D02*
X119905800Y-147460740D01*
X133945800Y-146260740D02*
X133245800Y-146260740D01*
X133245800Y-147460740D02*
X133945800Y-147460740D01*
D13*
X105058180Y-180471216D02*
X105772466Y-180471216D01*
X105915323Y-180423597D01*
X106010561Y-180328359D01*
X106058180Y-180185501D01*
X106058180Y-180090263D01*
X105153419Y-180899787D02*
X105105800Y-180947406D01*
X105058180Y-181042644D01*
X105058180Y-181280740D01*
X105105800Y-181375978D01*
X105153419Y-181423597D01*
X105248657Y-181471216D01*
X105343895Y-181471216D01*
X105486752Y-181423597D01*
X106058180Y-180852168D01*
X106058180Y-181471216D01*
X105058180Y-182090263D02*
X105058180Y-182185501D01*
X105105800Y-182280740D01*
X105153419Y-182328359D01*
X105248657Y-182375978D01*
X105439133Y-182423597D01*
X105677228Y-182423597D01*
X105867704Y-182375978D01*
X105962942Y-182328359D01*
X106010561Y-182280740D01*
X106058180Y-182185501D01*
X106058180Y-182090263D01*
X106010561Y-181995025D01*
X105962942Y-181947406D01*
X105867704Y-181899787D01*
X105677228Y-181852168D01*
X105439133Y-181852168D01*
X105248657Y-181899787D01*
X105153419Y-181947406D01*
X105105800Y-181995025D01*
X105058180Y-182090263D01*
X105038180Y-104407406D02*
X105752466Y-104407406D01*
X105895323Y-104359787D01*
X105990561Y-104264549D01*
X106038180Y-104121692D01*
X106038180Y-104026454D01*
X106038180Y-104931216D02*
X106038180Y-105121692D01*
X105990561Y-105216930D01*
X105942942Y-105264549D01*
X105800085Y-105359787D01*
X105609609Y-105407406D01*
X105228657Y-105407406D01*
X105133419Y-105359787D01*
X105085800Y-105312168D01*
X105038180Y-105216930D01*
X105038180Y-105026454D01*
X105085800Y-104931216D01*
X105133419Y-104883597D01*
X105228657Y-104835978D01*
X105466752Y-104835978D01*
X105561990Y-104883597D01*
X105609609Y-104931216D01*
X105657228Y-105026454D01*
X105657228Y-105216930D01*
X105609609Y-105312168D01*
X105561990Y-105359787D01*
X105466752Y-105407406D01*
X120307704Y-140313120D02*
X120307704Y-141122644D01*
X120260085Y-141217882D01*
X120212466Y-141265501D01*
X120117228Y-141313120D01*
X119926752Y-141313120D01*
X119831514Y-141265501D01*
X119783895Y-141217882D01*
X119736276Y-141122644D01*
X119736276Y-140313120D01*
X119117228Y-140741692D02*
X119212466Y-140694073D01*
X119260085Y-140646454D01*
X119307704Y-140551216D01*
X119307704Y-140503597D01*
X119260085Y-140408359D01*
X119212466Y-140360740D01*
X119117228Y-140313120D01*
X118926752Y-140313120D01*
X118831514Y-140360740D01*
X118783895Y-140408359D01*
X118736276Y-140503597D01*
X118736276Y-140551216D01*
X118783895Y-140646454D01*
X118831514Y-140694073D01*
X118926752Y-140741692D01*
X119117228Y-140741692D01*
X119212466Y-140789311D01*
X119260085Y-140836930D01*
X119307704Y-140932168D01*
X119307704Y-141122644D01*
X119260085Y-141217882D01*
X119212466Y-141265501D01*
X119117228Y-141313120D01*
X118926752Y-141313120D01*
X118831514Y-141265501D01*
X118783895Y-141217882D01*
X118736276Y-141122644D01*
X118736276Y-140932168D01*
X118783895Y-140836930D01*
X118831514Y-140789311D01*
X118926752Y-140741692D01*
X134167704Y-140153120D02*
X134167704Y-140962644D01*
X134120085Y-141057882D01*
X134072466Y-141105501D01*
X133977228Y-141153120D01*
X133786752Y-141153120D01*
X133691514Y-141105501D01*
X133643895Y-141057882D01*
X133596276Y-140962644D01*
X133596276Y-140153120D01*
X133215323Y-140153120D02*
X132548657Y-140153120D01*
X132977228Y-141153120D01*
X122340085Y-156677406D02*
X121863895Y-156677406D01*
X122435323Y-156963120D02*
X122101990Y-155963120D01*
X121768657Y-156963120D01*
X121482942Y-156058359D02*
X121435323Y-156010740D01*
X121340085Y-155963120D01*
X121101990Y-155963120D01*
X121006752Y-156010740D01*
X120959133Y-156058359D01*
X120911514Y-156153597D01*
X120911514Y-156248835D01*
X120959133Y-156391692D01*
X121530561Y-156963120D01*
X120911514Y-156963120D01*
X130400085Y-156647406D02*
X129923895Y-156647406D01*
X130495323Y-156933120D02*
X130161990Y-155933120D01*
X129828657Y-156933120D01*
X128971514Y-156933120D02*
X129542942Y-156933120D01*
X129257228Y-156933120D02*
X129257228Y-155933120D01*
X129352466Y-156075978D01*
X129447704Y-156171216D01*
X129542942Y-156218835D01*
X130400085Y-129837406D02*
X129923895Y-129837406D01*
X130495323Y-130123120D02*
X130161990Y-129123120D01*
X129828657Y-130123120D01*
X129066752Y-129456454D02*
X129066752Y-130123120D01*
X129304847Y-129075501D02*
X129542942Y-129789787D01*
X128923895Y-129789787D01*
X122320085Y-129837406D02*
X121843895Y-129837406D01*
X122415323Y-130123120D02*
X122081990Y-129123120D01*
X121748657Y-130123120D01*
X121510561Y-129123120D02*
X120891514Y-129123120D01*
X121224847Y-129504073D01*
X121081990Y-129504073D01*
X120986752Y-129551692D01*
X120939133Y-129599311D01*
X120891514Y-129694549D01*
X120891514Y-129932644D01*
X120939133Y-130027882D01*
X120986752Y-130075501D01*
X121081990Y-130123120D01*
X121367704Y-130123120D01*
X121462942Y-130075501D01*
X121510561Y-130027882D01*
X99210561Y-156519311D02*
X99067704Y-156566930D01*
X99020085Y-156614549D01*
X98972466Y-156709787D01*
X98972466Y-156852644D01*
X99020085Y-156947882D01*
X99067704Y-156995501D01*
X99162942Y-157043120D01*
X99543895Y-157043120D01*
X99543895Y-156043120D01*
X99210561Y-156043120D01*
X99115323Y-156090740D01*
X99067704Y-156138359D01*
X99020085Y-156233597D01*
X99020085Y-156328835D01*
X99067704Y-156424073D01*
X99115323Y-156471692D01*
X99210561Y-156519311D01*
X99543895Y-156519311D01*
X98639133Y-156043120D02*
X98020085Y-156043120D01*
X98353419Y-156424073D01*
X98210561Y-156424073D01*
X98115323Y-156471692D01*
X98067704Y-156519311D01*
X98020085Y-156614549D01*
X98020085Y-156852644D01*
X98067704Y-156947882D01*
X98115323Y-156995501D01*
X98210561Y-157043120D01*
X98496276Y-157043120D01*
X98591514Y-156995501D01*
X98639133Y-156947882D01*
X91110561Y-156539311D02*
X90967704Y-156586930D01*
X90920085Y-156634549D01*
X90872466Y-156729787D01*
X90872466Y-156872644D01*
X90920085Y-156967882D01*
X90967704Y-157015501D01*
X91062942Y-157063120D01*
X91443895Y-157063120D01*
X91443895Y-156063120D01*
X91110561Y-156063120D01*
X91015323Y-156110740D01*
X90967704Y-156158359D01*
X90920085Y-156253597D01*
X90920085Y-156348835D01*
X90967704Y-156444073D01*
X91015323Y-156491692D01*
X91110561Y-156539311D01*
X91443895Y-156539311D01*
X90015323Y-156396454D02*
X90015323Y-157063120D01*
X90253419Y-156015501D02*
X90491514Y-156729787D01*
X89872466Y-156729787D01*
X99180561Y-129449311D02*
X99037704Y-129496930D01*
X98990085Y-129544549D01*
X98942466Y-129639787D01*
X98942466Y-129782644D01*
X98990085Y-129877882D01*
X99037704Y-129925501D01*
X99132942Y-129973120D01*
X99513895Y-129973120D01*
X99513895Y-128973120D01*
X99180561Y-128973120D01*
X99085323Y-129020740D01*
X99037704Y-129068359D01*
X98990085Y-129163597D01*
X98990085Y-129258835D01*
X99037704Y-129354073D01*
X99085323Y-129401692D01*
X99180561Y-129449311D01*
X99513895Y-129449311D01*
X98561514Y-129068359D02*
X98513895Y-129020740D01*
X98418657Y-128973120D01*
X98180561Y-128973120D01*
X98085323Y-129020740D01*
X98037704Y-129068359D01*
X97990085Y-129163597D01*
X97990085Y-129258835D01*
X98037704Y-129401692D01*
X98609133Y-129973120D01*
X97990085Y-129973120D01*
X91050561Y-129449311D02*
X90907704Y-129496930D01*
X90860085Y-129544549D01*
X90812466Y-129639787D01*
X90812466Y-129782644D01*
X90860085Y-129877882D01*
X90907704Y-129925501D01*
X91002942Y-129973120D01*
X91383895Y-129973120D01*
X91383895Y-128973120D01*
X91050561Y-128973120D01*
X90955323Y-129020740D01*
X90907704Y-129068359D01*
X90860085Y-129163597D01*
X90860085Y-129258835D01*
X90907704Y-129354073D01*
X90955323Y-129401692D01*
X91050561Y-129449311D01*
X91383895Y-129449311D01*
X89860085Y-129973120D02*
X90431514Y-129973120D01*
X90145800Y-129973120D02*
X90145800Y-128973120D01*
X90241038Y-129115978D01*
X90336276Y-129211216D01*
X90431514Y-129258835D01*
X119722466Y-148717882D02*
X119770085Y-148765501D01*
X119912942Y-148813120D01*
X120008180Y-148813120D01*
X120151038Y-148765501D01*
X120246276Y-148670263D01*
X120293895Y-148575025D01*
X120341514Y-148384549D01*
X120341514Y-148241692D01*
X120293895Y-148051216D01*
X120246276Y-147955978D01*
X120151038Y-147860740D01*
X120008180Y-147813120D01*
X119912942Y-147813120D01*
X119770085Y-147860740D01*
X119722466Y-147908359D01*
X119341514Y-147908359D02*
X119293895Y-147860740D01*
X119198657Y-147813120D01*
X118960561Y-147813120D01*
X118865323Y-147860740D01*
X118817704Y-147908359D01*
X118770085Y-148003597D01*
X118770085Y-148098835D01*
X118817704Y-148241692D01*
X119389133Y-148813120D01*
X118770085Y-148813120D01*
X133762466Y-148717882D02*
X133810085Y-148765501D01*
X133952942Y-148813120D01*
X134048180Y-148813120D01*
X134191038Y-148765501D01*
X134286276Y-148670263D01*
X134333895Y-148575025D01*
X134381514Y-148384549D01*
X134381514Y-148241692D01*
X134333895Y-148051216D01*
X134286276Y-147955978D01*
X134191038Y-147860740D01*
X134048180Y-147813120D01*
X133952942Y-147813120D01*
X133810085Y-147860740D01*
X133762466Y-147908359D01*
X132810085Y-148813120D02*
X133381514Y-148813120D01*
X133095800Y-148813120D02*
X133095800Y-147813120D01*
X133191038Y-147955978D01*
X133286276Y-148051216D01*
X133381514Y-148098835D01*
M02*
