G04 #@! TF.GenerationSoftware,KiCad,Pcbnew,(5.1.5)-3*
G04 #@! TF.CreationDate,2020-06-25T10:39:46+02:00*
G04 #@! TF.ProjectId,StepperClockK02,53746570-7065-4724-936c-6f636b4b3032,v1.0*
G04 #@! TF.SameCoordinates,Original*
G04 #@! TF.FileFunction,Soldermask,Top*
G04 #@! TF.FilePolarity,Negative*
%FSLAX46Y46*%
G04 Gerber Fmt 4.6, Leading zero omitted, Abs format (unit mm)*
G04 Created by KiCad (PCBNEW (5.1.5)-3) date 2020-06-25 10:39:46*
%MOMM*%
%LPD*%
G04 APERTURE LIST*
%ADD10C,0.100000*%
G04 APERTURE END LIST*
D10*
G36*
X104278800Y-182451740D02*
G01*
X102476800Y-182451740D01*
X102476800Y-180649740D01*
X104278800Y-180649740D01*
X104278800Y-182451740D01*
G37*
G36*
X100951312Y-180654667D02*
G01*
X101100612Y-180684364D01*
X101264584Y-180752284D01*
X101412154Y-180850887D01*
X101537653Y-180976386D01*
X101636256Y-181123956D01*
X101704176Y-181287928D01*
X101738800Y-181461999D01*
X101738800Y-181639481D01*
X101704176Y-181813552D01*
X101636256Y-181977524D01*
X101537653Y-182125094D01*
X101412154Y-182250593D01*
X101264584Y-182349196D01*
X101100612Y-182417116D01*
X100951312Y-182446813D01*
X100926542Y-182451740D01*
X100749058Y-182451740D01*
X100724288Y-182446813D01*
X100574988Y-182417116D01*
X100411016Y-182349196D01*
X100263446Y-182250593D01*
X100137947Y-182125094D01*
X100039344Y-181977524D01*
X99971424Y-181813552D01*
X99936800Y-181639481D01*
X99936800Y-181461999D01*
X99971424Y-181287928D01*
X100039344Y-181123956D01*
X100137947Y-180976386D01*
X100263446Y-180850887D01*
X100411016Y-180752284D01*
X100574988Y-180684364D01*
X100724288Y-180654667D01*
X100749058Y-180649740D01*
X100926542Y-180649740D01*
X100951312Y-180654667D01*
G37*
G36*
X98411312Y-180654667D02*
G01*
X98560612Y-180684364D01*
X98724584Y-180752284D01*
X98872154Y-180850887D01*
X98997653Y-180976386D01*
X99096256Y-181123956D01*
X99164176Y-181287928D01*
X99198800Y-181461999D01*
X99198800Y-181639481D01*
X99164176Y-181813552D01*
X99096256Y-181977524D01*
X98997653Y-182125094D01*
X98872154Y-182250593D01*
X98724584Y-182349196D01*
X98560612Y-182417116D01*
X98411312Y-182446813D01*
X98386542Y-182451740D01*
X98209058Y-182451740D01*
X98184288Y-182446813D01*
X98034988Y-182417116D01*
X97871016Y-182349196D01*
X97723446Y-182250593D01*
X97597947Y-182125094D01*
X97499344Y-181977524D01*
X97431424Y-181813552D01*
X97396800Y-181639481D01*
X97396800Y-181461999D01*
X97431424Y-181287928D01*
X97499344Y-181123956D01*
X97597947Y-180976386D01*
X97723446Y-180850887D01*
X97871016Y-180752284D01*
X98034988Y-180684364D01*
X98184288Y-180654667D01*
X98209058Y-180649740D01*
X98386542Y-180649740D01*
X98411312Y-180654667D01*
G37*
G36*
X97586800Y-176216740D02*
G01*
X96424800Y-176216740D01*
X96424800Y-173564740D01*
X97586800Y-173564740D01*
X97586800Y-176216740D01*
G37*
G36*
X99786800Y-176216740D02*
G01*
X98624800Y-176216740D01*
X98624800Y-175464740D01*
X99786800Y-175464740D01*
X99786800Y-176216740D01*
G37*
G36*
X94401800Y-175591740D02*
G01*
X93549800Y-175591740D01*
X93549800Y-174689740D01*
X94401800Y-174689740D01*
X94401800Y-175591740D01*
G37*
G36*
X92786800Y-175291740D02*
G01*
X91784800Y-175291740D01*
X91784800Y-174689740D01*
X92786800Y-174689740D01*
X92786800Y-175291740D01*
G37*
G36*
X101876800Y-174336740D02*
G01*
X100974800Y-174336740D01*
X100974800Y-173484740D01*
X101876800Y-173484740D01*
X101876800Y-174336740D01*
G37*
G36*
X103376800Y-174336740D02*
G01*
X102474800Y-174336740D01*
X102474800Y-173484740D01*
X103376800Y-173484740D01*
X103376800Y-174336740D01*
G37*
G36*
X99786800Y-174316740D02*
G01*
X98624800Y-174316740D01*
X98624800Y-173564740D01*
X99786800Y-173564740D01*
X99786800Y-174316740D01*
G37*
G36*
X94401800Y-174091740D02*
G01*
X93549800Y-174091740D01*
X93549800Y-173189740D01*
X94401800Y-173189740D01*
X94401800Y-174091740D01*
G37*
G36*
X92786800Y-173791740D02*
G01*
X91784800Y-173791740D01*
X91784800Y-173189740D01*
X92786800Y-173189740D01*
X92786800Y-173791740D01*
G37*
G36*
X118845904Y-170880325D02*
G01*
X119014426Y-170950129D01*
X119166091Y-171051468D01*
X119295072Y-171180449D01*
X119396411Y-171332114D01*
X119466215Y-171500636D01*
X119501800Y-171679537D01*
X119501800Y-171861943D01*
X119466215Y-172040844D01*
X119396411Y-172209366D01*
X119295072Y-172361031D01*
X119166091Y-172490012D01*
X119014426Y-172591351D01*
X118845904Y-172661155D01*
X118667003Y-172696740D01*
X118484597Y-172696740D01*
X118305696Y-172661155D01*
X118137174Y-172591351D01*
X117985509Y-172490012D01*
X117856528Y-172361031D01*
X117755189Y-172209366D01*
X117685385Y-172040844D01*
X117649800Y-171861943D01*
X117649800Y-171679537D01*
X117685385Y-171500636D01*
X117755189Y-171332114D01*
X117856528Y-171180449D01*
X117985509Y-171051468D01*
X118137174Y-170950129D01*
X118305696Y-170880325D01*
X118484597Y-170844740D01*
X118667003Y-170844740D01*
X118845904Y-170880325D01*
G37*
G36*
X111615904Y-170880325D02*
G01*
X111784426Y-170950129D01*
X111936091Y-171051468D01*
X112065072Y-171180449D01*
X112166411Y-171332114D01*
X112236215Y-171500636D01*
X112271800Y-171679537D01*
X112271800Y-171861943D01*
X112236215Y-172040844D01*
X112166411Y-172209366D01*
X112065072Y-172361031D01*
X111936091Y-172490012D01*
X111784426Y-172591351D01*
X111615904Y-172661155D01*
X111437003Y-172696740D01*
X111254597Y-172696740D01*
X111075696Y-172661155D01*
X110907174Y-172591351D01*
X110755509Y-172490012D01*
X110626528Y-172361031D01*
X110525189Y-172209366D01*
X110455385Y-172040844D01*
X110419800Y-171861943D01*
X110419800Y-171679537D01*
X110455385Y-171500636D01*
X110525189Y-171332114D01*
X110626528Y-171180449D01*
X110755509Y-171051468D01*
X110907174Y-170950129D01*
X111075696Y-170880325D01*
X111254597Y-170844740D01*
X111437003Y-170844740D01*
X111615904Y-170880325D01*
G37*
G36*
X100496800Y-171211740D02*
G01*
X97894800Y-171211740D01*
X97894800Y-167109740D01*
X100496800Y-167109740D01*
X100496800Y-171211740D01*
G37*
G36*
X111615904Y-168380325D02*
G01*
X111784426Y-168450129D01*
X111936091Y-168551468D01*
X112065072Y-168680449D01*
X112166411Y-168832114D01*
X112236215Y-169000636D01*
X112271800Y-169179537D01*
X112271800Y-169361943D01*
X112236215Y-169540844D01*
X112166411Y-169709366D01*
X112065072Y-169861031D01*
X111936091Y-169990012D01*
X111784426Y-170091351D01*
X111615904Y-170161155D01*
X111437003Y-170196740D01*
X111254597Y-170196740D01*
X111075696Y-170161155D01*
X110907174Y-170091351D01*
X110755509Y-169990012D01*
X110626528Y-169861031D01*
X110525189Y-169709366D01*
X110455385Y-169540844D01*
X110419800Y-169361943D01*
X110419800Y-169179537D01*
X110455385Y-169000636D01*
X110525189Y-168832114D01*
X110626528Y-168680449D01*
X110755509Y-168551468D01*
X110907174Y-168450129D01*
X111075696Y-168380325D01*
X111254597Y-168344740D01*
X111437003Y-168344740D01*
X111615904Y-168380325D01*
G37*
G36*
X118845904Y-168380325D02*
G01*
X119014426Y-168450129D01*
X119166091Y-168551468D01*
X119295072Y-168680449D01*
X119396411Y-168832114D01*
X119466215Y-169000636D01*
X119501800Y-169179537D01*
X119501800Y-169361943D01*
X119466215Y-169540844D01*
X119396411Y-169709366D01*
X119295072Y-169861031D01*
X119166091Y-169990012D01*
X119014426Y-170091351D01*
X118845904Y-170161155D01*
X118667003Y-170196740D01*
X118484597Y-170196740D01*
X118305696Y-170161155D01*
X118137174Y-170091351D01*
X117985509Y-169990012D01*
X117856528Y-169861031D01*
X117755189Y-169709366D01*
X117685385Y-169540844D01*
X117649800Y-169361943D01*
X117649800Y-169179537D01*
X117685385Y-169000636D01*
X117755189Y-168832114D01*
X117856528Y-168680449D01*
X117985509Y-168551468D01*
X118137174Y-168450129D01*
X118305696Y-168380325D01*
X118484597Y-168344740D01*
X118667003Y-168344740D01*
X118845904Y-168380325D01*
G37*
G36*
X82035904Y-166880325D02*
G01*
X82204426Y-166950129D01*
X82356091Y-167051468D01*
X82485072Y-167180449D01*
X82586411Y-167332114D01*
X82656215Y-167500636D01*
X82691800Y-167679537D01*
X82691800Y-167861943D01*
X82656215Y-168040844D01*
X82586411Y-168209366D01*
X82485072Y-168361031D01*
X82356091Y-168490012D01*
X82204426Y-168591351D01*
X82035904Y-168661155D01*
X81857003Y-168696740D01*
X81674597Y-168696740D01*
X81495696Y-168661155D01*
X81327174Y-168591351D01*
X81175509Y-168490012D01*
X81046528Y-168361031D01*
X80945189Y-168209366D01*
X80875385Y-168040844D01*
X80839800Y-167861943D01*
X80839800Y-167679537D01*
X80875385Y-167500636D01*
X80945189Y-167332114D01*
X81046528Y-167180449D01*
X81175509Y-167051468D01*
X81327174Y-166950129D01*
X81495696Y-166880325D01*
X81674597Y-166844740D01*
X81857003Y-166844740D01*
X82035904Y-166880325D01*
G37*
G36*
X79535904Y-166880325D02*
G01*
X79704426Y-166950129D01*
X79856091Y-167051468D01*
X79985072Y-167180449D01*
X80086411Y-167332114D01*
X80156215Y-167500636D01*
X80191800Y-167679537D01*
X80191800Y-167861943D01*
X80156215Y-168040844D01*
X80086411Y-168209366D01*
X79985072Y-168361031D01*
X79856091Y-168490012D01*
X79704426Y-168591351D01*
X79535904Y-168661155D01*
X79357003Y-168696740D01*
X79174597Y-168696740D01*
X78995696Y-168661155D01*
X78827174Y-168591351D01*
X78675509Y-168490012D01*
X78546528Y-168361031D01*
X78445189Y-168209366D01*
X78375385Y-168040844D01*
X78339800Y-167861943D01*
X78339800Y-167679537D01*
X78375385Y-167500636D01*
X78445189Y-167332114D01*
X78546528Y-167180449D01*
X78675509Y-167051468D01*
X78827174Y-166950129D01*
X78995696Y-166880325D01*
X79174597Y-166844740D01*
X79357003Y-166844740D01*
X79535904Y-166880325D01*
G37*
G36*
X77035904Y-166880325D02*
G01*
X77204426Y-166950129D01*
X77356091Y-167051468D01*
X77485072Y-167180449D01*
X77586411Y-167332114D01*
X77656215Y-167500636D01*
X77691800Y-167679537D01*
X77691800Y-167861943D01*
X77656215Y-168040844D01*
X77586411Y-168209366D01*
X77485072Y-168361031D01*
X77356091Y-168490012D01*
X77204426Y-168591351D01*
X77035904Y-168661155D01*
X76857003Y-168696740D01*
X76674597Y-168696740D01*
X76495696Y-168661155D01*
X76327174Y-168591351D01*
X76175509Y-168490012D01*
X76046528Y-168361031D01*
X75945189Y-168209366D01*
X75875385Y-168040844D01*
X75839800Y-167861943D01*
X75839800Y-167679537D01*
X75875385Y-167500636D01*
X75945189Y-167332114D01*
X76046528Y-167180449D01*
X76175509Y-167051468D01*
X76327174Y-166950129D01*
X76495696Y-166880325D01*
X76674597Y-166844740D01*
X76857003Y-166844740D01*
X77035904Y-166880325D01*
G37*
G36*
X85191800Y-168696740D02*
G01*
X83339800Y-168696740D01*
X83339800Y-166844740D01*
X85191800Y-166844740D01*
X85191800Y-168696740D01*
G37*
G36*
X118845904Y-165880325D02*
G01*
X119014426Y-165950129D01*
X119166091Y-166051468D01*
X119295072Y-166180449D01*
X119396411Y-166332114D01*
X119466215Y-166500636D01*
X119501800Y-166679537D01*
X119501800Y-166861943D01*
X119466215Y-167040844D01*
X119396411Y-167209366D01*
X119295072Y-167361031D01*
X119166091Y-167490012D01*
X119014426Y-167591351D01*
X118845904Y-167661155D01*
X118667003Y-167696740D01*
X118484597Y-167696740D01*
X118305696Y-167661155D01*
X118137174Y-167591351D01*
X117985509Y-167490012D01*
X117856528Y-167361031D01*
X117755189Y-167209366D01*
X117685385Y-167040844D01*
X117649800Y-166861943D01*
X117649800Y-166679537D01*
X117685385Y-166500636D01*
X117755189Y-166332114D01*
X117856528Y-166180449D01*
X117985509Y-166051468D01*
X118137174Y-165950129D01*
X118305696Y-165880325D01*
X118484597Y-165844740D01*
X118667003Y-165844740D01*
X118845904Y-165880325D01*
G37*
G36*
X111615904Y-165880325D02*
G01*
X111784426Y-165950129D01*
X111936091Y-166051468D01*
X112065072Y-166180449D01*
X112166411Y-166332114D01*
X112236215Y-166500636D01*
X112271800Y-166679537D01*
X112271800Y-166861943D01*
X112236215Y-167040844D01*
X112166411Y-167209366D01*
X112065072Y-167361031D01*
X111936091Y-167490012D01*
X111784426Y-167591351D01*
X111615904Y-167661155D01*
X111437003Y-167696740D01*
X111254597Y-167696740D01*
X111075696Y-167661155D01*
X110907174Y-167591351D01*
X110755509Y-167490012D01*
X110626528Y-167361031D01*
X110525189Y-167209366D01*
X110455385Y-167040844D01*
X110419800Y-166861943D01*
X110419800Y-166679537D01*
X110455385Y-166500636D01*
X110525189Y-166332114D01*
X110626528Y-166180449D01*
X110755509Y-166051468D01*
X110907174Y-165950129D01*
X111075696Y-165880325D01*
X111254597Y-165844740D01*
X111437003Y-165844740D01*
X111615904Y-165880325D01*
G37*
G36*
X131433564Y-164805142D02*
G01*
X131556245Y-164829545D01*
X131787371Y-164925281D01*
X131892079Y-164995245D01*
X131995377Y-165064266D01*
X132172274Y-165241163D01*
X132311260Y-165449171D01*
X132406995Y-165680296D01*
X132455800Y-165925655D01*
X132455800Y-166175825D01*
X132406995Y-166421184D01*
X132311260Y-166652309D01*
X132172274Y-166860317D01*
X131995377Y-167037214D01*
X131892079Y-167106235D01*
X131787371Y-167176199D01*
X131787370Y-167176200D01*
X131787369Y-167176200D01*
X131719675Y-167204240D01*
X131556245Y-167271935D01*
X131433565Y-167296337D01*
X131310885Y-167320740D01*
X131060715Y-167320740D01*
X130938035Y-167296337D01*
X130815355Y-167271935D01*
X130651925Y-167204240D01*
X130584231Y-167176200D01*
X130584230Y-167176200D01*
X130584229Y-167176199D01*
X130479521Y-167106235D01*
X130376223Y-167037214D01*
X130199326Y-166860317D01*
X130060340Y-166652309D01*
X129964605Y-166421184D01*
X129915800Y-166175825D01*
X129915800Y-165925655D01*
X129964605Y-165680296D01*
X130060340Y-165449171D01*
X130199326Y-165241163D01*
X130376223Y-165064266D01*
X130479521Y-164995245D01*
X130584229Y-164925281D01*
X130815355Y-164829545D01*
X130938036Y-164805142D01*
X131060715Y-164780740D01*
X131310885Y-164780740D01*
X131433564Y-164805142D01*
G37*
G36*
X119501800Y-165196740D02*
G01*
X117649800Y-165196740D01*
X117649800Y-163344740D01*
X119501800Y-163344740D01*
X119501800Y-165196740D01*
G37*
G36*
X112271800Y-165196740D02*
G01*
X110419800Y-165196740D01*
X110419800Y-163344740D01*
X112271800Y-163344740D01*
X112271800Y-165196740D01*
G37*
G36*
X100496800Y-163211740D02*
G01*
X97894800Y-163211740D01*
X97894800Y-159109740D01*
X100496800Y-159109740D01*
X100496800Y-163211740D01*
G37*
G36*
X132504233Y-159665633D02*
G01*
X132594457Y-159683579D01*
X132700067Y-159727325D01*
X132849421Y-159789189D01*
X132925563Y-159840065D01*
X133078886Y-159942512D01*
X133274028Y-160137654D01*
X133288535Y-160159366D01*
X133427351Y-160367119D01*
X133457544Y-160440011D01*
X133532961Y-160622083D01*
X133550907Y-160712307D01*
X133586800Y-160892752D01*
X133586800Y-161168728D01*
X133532961Y-161439396D01*
X133427351Y-161694361D01*
X133427350Y-161694362D01*
X133274028Y-161923826D01*
X133078886Y-162118968D01*
X132925563Y-162221415D01*
X132849421Y-162272291D01*
X132700067Y-162334155D01*
X132594457Y-162377901D01*
X132504233Y-162395847D01*
X132323788Y-162431740D01*
X132047812Y-162431740D01*
X131867367Y-162395847D01*
X131777143Y-162377901D01*
X131671533Y-162334155D01*
X131522179Y-162272291D01*
X131446037Y-162221415D01*
X131292714Y-162118968D01*
X131097572Y-161923826D01*
X130944250Y-161694362D01*
X130944249Y-161694361D01*
X130838639Y-161439396D01*
X130784800Y-161168728D01*
X130784800Y-160892752D01*
X130820693Y-160712307D01*
X130838639Y-160622083D01*
X130914056Y-160440011D01*
X130944249Y-160367119D01*
X131083065Y-160159366D01*
X131097572Y-160137654D01*
X131292714Y-159942512D01*
X131446037Y-159840065D01*
X131522179Y-159789189D01*
X131671533Y-159727325D01*
X131777143Y-159683579D01*
X131867367Y-159665633D01*
X132047812Y-159629740D01*
X132323788Y-159629740D01*
X132504233Y-159665633D01*
G37*
G36*
X69184233Y-159665633D02*
G01*
X69274457Y-159683579D01*
X69380067Y-159727325D01*
X69529421Y-159789189D01*
X69605563Y-159840065D01*
X69758886Y-159942512D01*
X69954028Y-160137654D01*
X69968535Y-160159366D01*
X70107351Y-160367119D01*
X70137544Y-160440011D01*
X70212961Y-160622083D01*
X70230907Y-160712307D01*
X70266800Y-160892752D01*
X70266800Y-161168728D01*
X70212961Y-161439396D01*
X70107351Y-161694361D01*
X70107350Y-161694362D01*
X69954028Y-161923826D01*
X69758886Y-162118968D01*
X69605563Y-162221415D01*
X69529421Y-162272291D01*
X69380067Y-162334155D01*
X69274457Y-162377901D01*
X69184233Y-162395847D01*
X69003788Y-162431740D01*
X68727812Y-162431740D01*
X68547367Y-162395847D01*
X68457143Y-162377901D01*
X68351533Y-162334155D01*
X68202179Y-162272291D01*
X68126037Y-162221415D01*
X67972714Y-162118968D01*
X67777572Y-161923826D01*
X67624250Y-161694362D01*
X67624249Y-161694361D01*
X67518639Y-161439396D01*
X67464800Y-161168728D01*
X67464800Y-160892752D01*
X67500693Y-160712307D01*
X67518639Y-160622083D01*
X67594056Y-160440011D01*
X67624249Y-160367119D01*
X67763065Y-160159366D01*
X67777572Y-160137654D01*
X67972714Y-159942512D01*
X68126037Y-159840065D01*
X68202179Y-159789189D01*
X68351533Y-159727325D01*
X68457143Y-159683579D01*
X68547367Y-159665633D01*
X68727812Y-159629740D01*
X69003788Y-159629740D01*
X69184233Y-159665633D01*
G37*
G36*
X77691800Y-160646740D02*
G01*
X75839800Y-160646740D01*
X75839800Y-158794740D01*
X77691800Y-158794740D01*
X77691800Y-160646740D01*
G37*
G36*
X84535904Y-158830325D02*
G01*
X84704426Y-158900129D01*
X84856091Y-159001468D01*
X84985072Y-159130449D01*
X85086411Y-159282114D01*
X85156215Y-159450636D01*
X85191800Y-159629537D01*
X85191800Y-159811943D01*
X85156215Y-159990844D01*
X85086411Y-160159366D01*
X84985072Y-160311031D01*
X84856091Y-160440012D01*
X84704426Y-160541351D01*
X84535904Y-160611155D01*
X84357003Y-160646740D01*
X84174597Y-160646740D01*
X83995696Y-160611155D01*
X83827174Y-160541351D01*
X83675509Y-160440012D01*
X83546528Y-160311031D01*
X83445189Y-160159366D01*
X83375385Y-159990844D01*
X83339800Y-159811943D01*
X83339800Y-159629537D01*
X83375385Y-159450636D01*
X83445189Y-159282114D01*
X83546528Y-159130449D01*
X83675509Y-159001468D01*
X83827174Y-158900129D01*
X83995696Y-158830325D01*
X84174597Y-158794740D01*
X84357003Y-158794740D01*
X84535904Y-158830325D01*
G37*
G36*
X82035904Y-158830325D02*
G01*
X82204426Y-158900129D01*
X82356091Y-159001468D01*
X82485072Y-159130449D01*
X82586411Y-159282114D01*
X82656215Y-159450636D01*
X82691800Y-159629537D01*
X82691800Y-159811943D01*
X82656215Y-159990844D01*
X82586411Y-160159366D01*
X82485072Y-160311031D01*
X82356091Y-160440012D01*
X82204426Y-160541351D01*
X82035904Y-160611155D01*
X81857003Y-160646740D01*
X81674597Y-160646740D01*
X81495696Y-160611155D01*
X81327174Y-160541351D01*
X81175509Y-160440012D01*
X81046528Y-160311031D01*
X80945189Y-160159366D01*
X80875385Y-159990844D01*
X80839800Y-159811943D01*
X80839800Y-159629537D01*
X80875385Y-159450636D01*
X80945189Y-159282114D01*
X81046528Y-159130449D01*
X81175509Y-159001468D01*
X81327174Y-158900129D01*
X81495696Y-158830325D01*
X81674597Y-158794740D01*
X81857003Y-158794740D01*
X82035904Y-158830325D01*
G37*
G36*
X79535904Y-158830325D02*
G01*
X79704426Y-158900129D01*
X79856091Y-159001468D01*
X79985072Y-159130449D01*
X80086411Y-159282114D01*
X80156215Y-159450636D01*
X80191800Y-159629537D01*
X80191800Y-159811943D01*
X80156215Y-159990844D01*
X80086411Y-160159366D01*
X79985072Y-160311031D01*
X79856091Y-160440012D01*
X79704426Y-160541351D01*
X79535904Y-160611155D01*
X79357003Y-160646740D01*
X79174597Y-160646740D01*
X78995696Y-160611155D01*
X78827174Y-160541351D01*
X78675509Y-160440012D01*
X78546528Y-160311031D01*
X78445189Y-160159366D01*
X78375385Y-159990844D01*
X78339800Y-159811943D01*
X78339800Y-159629537D01*
X78375385Y-159450636D01*
X78445189Y-159282114D01*
X78546528Y-159130449D01*
X78675509Y-159001468D01*
X78827174Y-158900129D01*
X78995696Y-158830325D01*
X79174597Y-158794740D01*
X79357003Y-158794740D01*
X79535904Y-158830325D01*
G37*
G36*
X126098385Y-154959542D02*
G01*
X126248210Y-154989344D01*
X126530474Y-155106261D01*
X126784505Y-155275999D01*
X127000541Y-155492035D01*
X127170279Y-155746066D01*
X127287196Y-156028330D01*
X127346800Y-156327980D01*
X127346800Y-156633500D01*
X127287196Y-156933150D01*
X127170279Y-157215414D01*
X127000541Y-157469445D01*
X126784505Y-157685481D01*
X126530474Y-157855219D01*
X126248210Y-157972136D01*
X126098385Y-158001938D01*
X125948561Y-158031740D01*
X125643039Y-158031740D01*
X125493215Y-158001938D01*
X125343390Y-157972136D01*
X125061126Y-157855219D01*
X124807095Y-157685481D01*
X124591059Y-157469445D01*
X124421321Y-157215414D01*
X124304404Y-156933150D01*
X124244800Y-156633500D01*
X124244800Y-156327980D01*
X124304404Y-156028330D01*
X124421321Y-155746066D01*
X124591059Y-155492035D01*
X124807095Y-155275999D01*
X125061126Y-155106261D01*
X125343390Y-154989344D01*
X125493215Y-154959542D01*
X125643039Y-154929740D01*
X125948561Y-154929740D01*
X126098385Y-154959542D01*
G37*
G36*
X95098385Y-154959542D02*
G01*
X95248210Y-154989344D01*
X95530474Y-155106261D01*
X95784505Y-155275999D01*
X96000541Y-155492035D01*
X96170279Y-155746066D01*
X96287196Y-156028330D01*
X96346800Y-156327980D01*
X96346800Y-156633500D01*
X96287196Y-156933150D01*
X96170279Y-157215414D01*
X96000541Y-157469445D01*
X95784505Y-157685481D01*
X95530474Y-157855219D01*
X95248210Y-157972136D01*
X95098385Y-158001938D01*
X94948561Y-158031740D01*
X94643039Y-158031740D01*
X94493215Y-158001938D01*
X94343390Y-157972136D01*
X94061126Y-157855219D01*
X93807095Y-157685481D01*
X93591059Y-157469445D01*
X93421321Y-157215414D01*
X93304404Y-156933150D01*
X93244800Y-156633500D01*
X93244800Y-156327980D01*
X93304404Y-156028330D01*
X93421321Y-155746066D01*
X93591059Y-155492035D01*
X93807095Y-155275999D01*
X94061126Y-155106261D01*
X94343390Y-154989344D01*
X94493215Y-154959542D01*
X94643039Y-154929740D01*
X94948561Y-154929740D01*
X95098385Y-154959542D01*
G37*
G36*
X110831131Y-153688951D02*
G01*
X111158892Y-153824714D01*
X111453870Y-154021812D01*
X111704728Y-154272670D01*
X111901826Y-154567648D01*
X112037589Y-154895409D01*
X112106800Y-155243356D01*
X112106800Y-155598124D01*
X112037589Y-155946071D01*
X111901826Y-156273832D01*
X111704728Y-156568810D01*
X111453870Y-156819668D01*
X111158892Y-157016766D01*
X110831131Y-157152529D01*
X110483184Y-157221740D01*
X110128416Y-157221740D01*
X109780469Y-157152529D01*
X109452708Y-157016766D01*
X109157730Y-156819668D01*
X108906872Y-156568810D01*
X108709774Y-156273832D01*
X108574011Y-155946071D01*
X108504800Y-155598124D01*
X108504800Y-155243356D01*
X108574011Y-154895409D01*
X108709774Y-154567648D01*
X108906872Y-154272670D01*
X109157730Y-154021812D01*
X109452708Y-153824714D01*
X109780469Y-153688951D01*
X110128416Y-153619740D01*
X110483184Y-153619740D01*
X110831131Y-153688951D01*
G37*
G36*
X64363564Y-154535142D02*
G01*
X64486245Y-154559545D01*
X64717371Y-154655281D01*
X64822079Y-154725245D01*
X64925377Y-154794266D01*
X65102274Y-154971163D01*
X65241260Y-155179171D01*
X65336995Y-155410296D01*
X65385800Y-155655655D01*
X65385800Y-155905825D01*
X65377794Y-155946072D01*
X65336995Y-156151185D01*
X65241259Y-156382311D01*
X65102273Y-156590318D01*
X64925378Y-156767213D01*
X64717371Y-156906199D01*
X64486245Y-157001935D01*
X64411689Y-157016765D01*
X64240885Y-157050740D01*
X63990715Y-157050740D01*
X63819911Y-157016765D01*
X63745355Y-157001935D01*
X63514229Y-156906199D01*
X63306222Y-156767213D01*
X63129327Y-156590318D01*
X62990341Y-156382311D01*
X62894605Y-156151185D01*
X62853806Y-155946072D01*
X62845800Y-155905825D01*
X62845800Y-155655655D01*
X62894605Y-155410296D01*
X62990340Y-155179171D01*
X63129326Y-154971163D01*
X63306223Y-154794266D01*
X63409521Y-154725245D01*
X63514229Y-154655281D01*
X63745355Y-154559545D01*
X63868036Y-154535142D01*
X63990715Y-154510740D01*
X64240885Y-154510740D01*
X64363564Y-154535142D01*
G37*
G36*
X130102364Y-153470129D02*
G01*
X130293633Y-153549355D01*
X130293635Y-153549356D01*
X130398972Y-153619740D01*
X130465773Y-153664375D01*
X130612165Y-153810767D01*
X130727185Y-153982907D01*
X130806411Y-154174176D01*
X130846800Y-154377224D01*
X130846800Y-154584256D01*
X130806411Y-154787304D01*
X130747412Y-154929740D01*
X130727184Y-154978575D01*
X130612165Y-155150713D01*
X130465773Y-155297105D01*
X130293635Y-155412124D01*
X130293634Y-155412125D01*
X130293633Y-155412125D01*
X130102364Y-155491351D01*
X129899316Y-155531740D01*
X129692284Y-155531740D01*
X129489236Y-155491351D01*
X129297967Y-155412125D01*
X129297966Y-155412125D01*
X129297965Y-155412124D01*
X129125827Y-155297105D01*
X128979435Y-155150713D01*
X128864416Y-154978575D01*
X128844188Y-154929740D01*
X128785189Y-154787304D01*
X128744800Y-154584256D01*
X128744800Y-154377224D01*
X128785189Y-154174176D01*
X128864415Y-153982907D01*
X128979435Y-153810767D01*
X129125827Y-153664375D01*
X129192628Y-153619740D01*
X129297965Y-153549356D01*
X129297967Y-153549355D01*
X129489236Y-153470129D01*
X129692284Y-153429740D01*
X129899316Y-153429740D01*
X130102364Y-153470129D01*
G37*
G36*
X122102364Y-153470129D02*
G01*
X122293633Y-153549355D01*
X122293635Y-153549356D01*
X122398972Y-153619740D01*
X122465773Y-153664375D01*
X122612165Y-153810767D01*
X122727185Y-153982907D01*
X122806411Y-154174176D01*
X122846800Y-154377224D01*
X122846800Y-154584256D01*
X122806411Y-154787304D01*
X122747412Y-154929740D01*
X122727184Y-154978575D01*
X122612165Y-155150713D01*
X122465773Y-155297105D01*
X122293635Y-155412124D01*
X122293634Y-155412125D01*
X122293633Y-155412125D01*
X122102364Y-155491351D01*
X121899316Y-155531740D01*
X121692284Y-155531740D01*
X121489236Y-155491351D01*
X121297967Y-155412125D01*
X121297966Y-155412125D01*
X121297965Y-155412124D01*
X121125827Y-155297105D01*
X120979435Y-155150713D01*
X120864416Y-154978575D01*
X120844188Y-154929740D01*
X120785189Y-154787304D01*
X120744800Y-154584256D01*
X120744800Y-154377224D01*
X120785189Y-154174176D01*
X120864415Y-153982907D01*
X120979435Y-153810767D01*
X121125827Y-153664375D01*
X121192628Y-153619740D01*
X121297965Y-153549356D01*
X121297967Y-153549355D01*
X121489236Y-153470129D01*
X121692284Y-153429740D01*
X121899316Y-153429740D01*
X122102364Y-153470129D01*
G37*
G36*
X99102364Y-153470129D02*
G01*
X99293633Y-153549355D01*
X99293635Y-153549356D01*
X99398972Y-153619740D01*
X99465773Y-153664375D01*
X99612165Y-153810767D01*
X99727185Y-153982907D01*
X99806411Y-154174176D01*
X99846800Y-154377224D01*
X99846800Y-154584256D01*
X99806411Y-154787304D01*
X99747412Y-154929740D01*
X99727184Y-154978575D01*
X99612165Y-155150713D01*
X99465773Y-155297105D01*
X99293635Y-155412124D01*
X99293634Y-155412125D01*
X99293633Y-155412125D01*
X99102364Y-155491351D01*
X98899316Y-155531740D01*
X98692284Y-155531740D01*
X98489236Y-155491351D01*
X98297967Y-155412125D01*
X98297966Y-155412125D01*
X98297965Y-155412124D01*
X98125827Y-155297105D01*
X97979435Y-155150713D01*
X97864416Y-154978575D01*
X97844188Y-154929740D01*
X97785189Y-154787304D01*
X97744800Y-154584256D01*
X97744800Y-154377224D01*
X97785189Y-154174176D01*
X97864415Y-153982907D01*
X97979435Y-153810767D01*
X98125827Y-153664375D01*
X98192628Y-153619740D01*
X98297965Y-153549356D01*
X98297967Y-153549355D01*
X98489236Y-153470129D01*
X98692284Y-153429740D01*
X98899316Y-153429740D01*
X99102364Y-153470129D01*
G37*
G36*
X91102364Y-153470129D02*
G01*
X91293633Y-153549355D01*
X91293635Y-153549356D01*
X91398972Y-153619740D01*
X91465773Y-153664375D01*
X91612165Y-153810767D01*
X91727185Y-153982907D01*
X91806411Y-154174176D01*
X91846800Y-154377224D01*
X91846800Y-154584256D01*
X91806411Y-154787304D01*
X91747412Y-154929740D01*
X91727184Y-154978575D01*
X91612165Y-155150713D01*
X91465773Y-155297105D01*
X91293635Y-155412124D01*
X91293634Y-155412125D01*
X91293633Y-155412125D01*
X91102364Y-155491351D01*
X90899316Y-155531740D01*
X90692284Y-155531740D01*
X90489236Y-155491351D01*
X90297967Y-155412125D01*
X90297966Y-155412125D01*
X90297965Y-155412124D01*
X90125827Y-155297105D01*
X89979435Y-155150713D01*
X89864416Y-154978575D01*
X89844188Y-154929740D01*
X89785189Y-154787304D01*
X89744800Y-154584256D01*
X89744800Y-154377224D01*
X89785189Y-154174176D01*
X89864415Y-153982907D01*
X89979435Y-153810767D01*
X90125827Y-153664375D01*
X90192628Y-153619740D01*
X90297965Y-153549356D01*
X90297967Y-153549355D01*
X90489236Y-153470129D01*
X90692284Y-153429740D01*
X90899316Y-153429740D01*
X91102364Y-153470129D01*
G37*
G36*
X76946800Y-153201740D02*
G01*
X75944800Y-153201740D01*
X75944800Y-152599740D01*
X76946800Y-152599740D01*
X76946800Y-153201740D01*
G37*
G36*
X65351800Y-152361740D02*
G01*
X64499800Y-152361740D01*
X64499800Y-151459740D01*
X65351800Y-151459740D01*
X65351800Y-152361740D01*
G37*
G36*
X76946800Y-151701740D02*
G01*
X75944800Y-151701740D01*
X75944800Y-151099740D01*
X76946800Y-151099740D01*
X76946800Y-151701740D01*
G37*
G36*
X65351800Y-150861740D02*
G01*
X64499800Y-150861740D01*
X64499800Y-149959740D01*
X65351800Y-149959740D01*
X65351800Y-150861740D01*
G37*
G36*
X71731800Y-149111740D02*
G01*
X71029800Y-149111740D01*
X71029800Y-147009740D01*
X71731800Y-147009740D01*
X71731800Y-149111740D01*
G37*
G36*
X79351800Y-149111740D02*
G01*
X78649800Y-149111740D01*
X78649800Y-147009740D01*
X79351800Y-147009740D01*
X79351800Y-149111740D01*
G37*
G36*
X62841800Y-149111740D02*
G01*
X62139800Y-149111740D01*
X62139800Y-147009740D01*
X62841800Y-147009740D01*
X62841800Y-149111740D01*
G37*
G36*
X64111800Y-149111740D02*
G01*
X63409800Y-149111740D01*
X63409800Y-147009740D01*
X64111800Y-147009740D01*
X64111800Y-149111740D01*
G37*
G36*
X65381800Y-149111740D02*
G01*
X64679800Y-149111740D01*
X64679800Y-147009740D01*
X65381800Y-147009740D01*
X65381800Y-149111740D01*
G37*
G36*
X66651800Y-149111740D02*
G01*
X65949800Y-149111740D01*
X65949800Y-147009740D01*
X66651800Y-147009740D01*
X66651800Y-149111740D01*
G37*
G36*
X67921800Y-149111740D02*
G01*
X67219800Y-149111740D01*
X67219800Y-147009740D01*
X67921800Y-147009740D01*
X67921800Y-149111740D01*
G37*
G36*
X69191800Y-149111740D02*
G01*
X68489800Y-149111740D01*
X68489800Y-147009740D01*
X69191800Y-147009740D01*
X69191800Y-149111740D01*
G37*
G36*
X70461800Y-149111740D02*
G01*
X69759800Y-149111740D01*
X69759800Y-147009740D01*
X70461800Y-147009740D01*
X70461800Y-149111740D01*
G37*
G36*
X73001800Y-149111740D02*
G01*
X72299800Y-149111740D01*
X72299800Y-147009740D01*
X73001800Y-147009740D01*
X73001800Y-149111740D01*
G37*
G36*
X74271800Y-149111740D02*
G01*
X73569800Y-149111740D01*
X73569800Y-147009740D01*
X74271800Y-147009740D01*
X74271800Y-149111740D01*
G37*
G36*
X75541800Y-149111740D02*
G01*
X74839800Y-149111740D01*
X74839800Y-147009740D01*
X75541800Y-147009740D01*
X75541800Y-149111740D01*
G37*
G36*
X76811800Y-149111740D02*
G01*
X76109800Y-149111740D01*
X76109800Y-147009740D01*
X76811800Y-147009740D01*
X76811800Y-149111740D01*
G37*
G36*
X78081800Y-149111740D02*
G01*
X77379800Y-149111740D01*
X77379800Y-147009740D01*
X78081800Y-147009740D01*
X78081800Y-149111740D01*
G37*
G36*
X101685743Y-140486988D02*
G01*
X102240989Y-140716978D01*
X102240990Y-140716979D01*
X102740699Y-141050874D01*
X103165666Y-141475841D01*
X103165667Y-141475843D01*
X103499562Y-141975551D01*
X103729552Y-142530797D01*
X103846800Y-143120241D01*
X103846800Y-143721239D01*
X103729552Y-144310683D01*
X103499562Y-144865929D01*
X103499561Y-144865930D01*
X103165666Y-145365639D01*
X102740699Y-145790606D01*
X102489147Y-145958688D01*
X102240989Y-146124502D01*
X101685743Y-146354492D01*
X101096299Y-146471740D01*
X100495301Y-146471740D01*
X99905857Y-146354492D01*
X99350611Y-146124502D01*
X99102453Y-145958688D01*
X98850901Y-145790606D01*
X98425934Y-145365639D01*
X98092039Y-144865930D01*
X98092038Y-144865929D01*
X97862048Y-144310683D01*
X97744800Y-143721239D01*
X97744800Y-143120241D01*
X97862048Y-142530797D01*
X98092038Y-141975551D01*
X98425933Y-141475843D01*
X98425934Y-141475841D01*
X98850901Y-141050874D01*
X99350610Y-140716979D01*
X99350611Y-140716978D01*
X99905857Y-140486988D01*
X100495301Y-140369740D01*
X101096299Y-140369740D01*
X101685743Y-140486988D01*
G37*
G36*
X64111800Y-139711740D02*
G01*
X63409800Y-139711740D01*
X63409800Y-137609740D01*
X64111800Y-137609740D01*
X64111800Y-139711740D01*
G37*
G36*
X62841800Y-139711740D02*
G01*
X62139800Y-139711740D01*
X62139800Y-137609740D01*
X62841800Y-137609740D01*
X62841800Y-139711740D01*
G37*
G36*
X66651800Y-139711740D02*
G01*
X65949800Y-139711740D01*
X65949800Y-137609740D01*
X66651800Y-137609740D01*
X66651800Y-139711740D01*
G37*
G36*
X67921800Y-139711740D02*
G01*
X67219800Y-139711740D01*
X67219800Y-137609740D01*
X67921800Y-137609740D01*
X67921800Y-139711740D01*
G37*
G36*
X69191800Y-139711740D02*
G01*
X68489800Y-139711740D01*
X68489800Y-137609740D01*
X69191800Y-137609740D01*
X69191800Y-139711740D01*
G37*
G36*
X74271800Y-139711740D02*
G01*
X73569800Y-139711740D01*
X73569800Y-137609740D01*
X74271800Y-137609740D01*
X74271800Y-139711740D01*
G37*
G36*
X70461800Y-139711740D02*
G01*
X69759800Y-139711740D01*
X69759800Y-137609740D01*
X70461800Y-137609740D01*
X70461800Y-139711740D01*
G37*
G36*
X73001800Y-139711740D02*
G01*
X72299800Y-139711740D01*
X72299800Y-137609740D01*
X73001800Y-137609740D01*
X73001800Y-139711740D01*
G37*
G36*
X75541800Y-139711740D02*
G01*
X74839800Y-139711740D01*
X74839800Y-137609740D01*
X75541800Y-137609740D01*
X75541800Y-139711740D01*
G37*
G36*
X76811800Y-139711740D02*
G01*
X76109800Y-139711740D01*
X76109800Y-137609740D01*
X76811800Y-137609740D01*
X76811800Y-139711740D01*
G37*
G36*
X78081800Y-139711740D02*
G01*
X77379800Y-139711740D01*
X77379800Y-137609740D01*
X78081800Y-137609740D01*
X78081800Y-139711740D01*
G37*
G36*
X79351800Y-139711740D02*
G01*
X78649800Y-139711740D01*
X78649800Y-137609740D01*
X79351800Y-137609740D01*
X79351800Y-139711740D01*
G37*
G36*
X65381800Y-139711740D02*
G01*
X64679800Y-139711740D01*
X64679800Y-137609740D01*
X65381800Y-137609740D01*
X65381800Y-139711740D01*
G37*
G36*
X71731800Y-139711740D02*
G01*
X71029800Y-139711740D01*
X71029800Y-137609740D01*
X71731800Y-137609740D01*
X71731800Y-139711740D01*
G37*
G36*
X80986800Y-136896740D02*
G01*
X80084800Y-136896740D01*
X80084800Y-136044740D01*
X80986800Y-136044740D01*
X80986800Y-136896740D01*
G37*
G36*
X79486800Y-136896740D02*
G01*
X78584800Y-136896740D01*
X78584800Y-136044740D01*
X79486800Y-136044740D01*
X79486800Y-136896740D01*
G37*
G36*
X135831131Y-132688951D02*
G01*
X136158892Y-132824714D01*
X136453870Y-133021812D01*
X136704728Y-133272670D01*
X136901826Y-133567648D01*
X137037589Y-133895409D01*
X137106800Y-134243356D01*
X137106800Y-134598124D01*
X137037589Y-134946071D01*
X136901826Y-135273832D01*
X136704728Y-135568810D01*
X136453870Y-135819668D01*
X136158892Y-136016766D01*
X135831131Y-136152529D01*
X135483184Y-136221740D01*
X135128416Y-136221740D01*
X134780469Y-136152529D01*
X134452708Y-136016766D01*
X134157730Y-135819668D01*
X133906872Y-135568810D01*
X133709774Y-135273832D01*
X133574011Y-134946071D01*
X133504800Y-134598124D01*
X133504800Y-134243356D01*
X133574011Y-133895409D01*
X133709774Y-133567648D01*
X133906872Y-133272670D01*
X134157730Y-133021812D01*
X134452708Y-132824714D01*
X134780469Y-132688951D01*
X135128416Y-132619740D01*
X135483184Y-132619740D01*
X135831131Y-132688951D01*
G37*
G36*
X85831131Y-132688951D02*
G01*
X86158892Y-132824714D01*
X86453870Y-133021812D01*
X86704728Y-133272670D01*
X86901826Y-133567648D01*
X87037589Y-133895409D01*
X87106800Y-134243356D01*
X87106800Y-134598124D01*
X87037589Y-134946071D01*
X86901826Y-135273832D01*
X86704728Y-135568810D01*
X86453870Y-135819668D01*
X86158892Y-136016766D01*
X85831131Y-136152529D01*
X85483184Y-136221740D01*
X85128416Y-136221740D01*
X84780469Y-136152529D01*
X84452708Y-136016766D01*
X84157730Y-135819668D01*
X83906872Y-135568810D01*
X83709774Y-135273832D01*
X83574011Y-134946071D01*
X83504800Y-134598124D01*
X83504800Y-134243356D01*
X83574011Y-133895409D01*
X83709774Y-133567648D01*
X83906872Y-133272670D01*
X84157730Y-133021812D01*
X84452708Y-132824714D01*
X84780469Y-132688951D01*
X85128416Y-132619740D01*
X85483184Y-132619740D01*
X85831131Y-132688951D01*
G37*
G36*
X130102364Y-130470129D02*
G01*
X130293633Y-130549355D01*
X130293635Y-130549356D01*
X130465773Y-130664375D01*
X130612165Y-130810767D01*
X130727185Y-130982907D01*
X130806411Y-131174176D01*
X130846800Y-131377224D01*
X130846800Y-131584256D01*
X130806411Y-131787304D01*
X130727185Y-131978573D01*
X130727184Y-131978575D01*
X130612165Y-132150713D01*
X130465773Y-132297105D01*
X130293635Y-132412124D01*
X130293634Y-132412125D01*
X130293633Y-132412125D01*
X130102364Y-132491351D01*
X129899316Y-132531740D01*
X129692284Y-132531740D01*
X129489236Y-132491351D01*
X129297967Y-132412125D01*
X129297966Y-132412125D01*
X129297965Y-132412124D01*
X129125827Y-132297105D01*
X128979435Y-132150713D01*
X128864416Y-131978575D01*
X128864415Y-131978573D01*
X128785189Y-131787304D01*
X128744800Y-131584256D01*
X128744800Y-131377224D01*
X128785189Y-131174176D01*
X128864415Y-130982907D01*
X128979435Y-130810767D01*
X129125827Y-130664375D01*
X129297965Y-130549356D01*
X129297967Y-130549355D01*
X129489236Y-130470129D01*
X129692284Y-130429740D01*
X129899316Y-130429740D01*
X130102364Y-130470129D01*
G37*
G36*
X122102364Y-130470129D02*
G01*
X122293633Y-130549355D01*
X122293635Y-130549356D01*
X122465773Y-130664375D01*
X122612165Y-130810767D01*
X122727185Y-130982907D01*
X122806411Y-131174176D01*
X122846800Y-131377224D01*
X122846800Y-131584256D01*
X122806411Y-131787304D01*
X122727185Y-131978573D01*
X122727184Y-131978575D01*
X122612165Y-132150713D01*
X122465773Y-132297105D01*
X122293635Y-132412124D01*
X122293634Y-132412125D01*
X122293633Y-132412125D01*
X122102364Y-132491351D01*
X121899316Y-132531740D01*
X121692284Y-132531740D01*
X121489236Y-132491351D01*
X121297967Y-132412125D01*
X121297966Y-132412125D01*
X121297965Y-132412124D01*
X121125827Y-132297105D01*
X120979435Y-132150713D01*
X120864416Y-131978575D01*
X120864415Y-131978573D01*
X120785189Y-131787304D01*
X120744800Y-131584256D01*
X120744800Y-131377224D01*
X120785189Y-131174176D01*
X120864415Y-130982907D01*
X120979435Y-130810767D01*
X121125827Y-130664375D01*
X121297965Y-130549356D01*
X121297967Y-130549355D01*
X121489236Y-130470129D01*
X121692284Y-130429740D01*
X121899316Y-130429740D01*
X122102364Y-130470129D01*
G37*
G36*
X99102364Y-130470129D02*
G01*
X99293633Y-130549355D01*
X99293635Y-130549356D01*
X99465773Y-130664375D01*
X99612165Y-130810767D01*
X99727185Y-130982907D01*
X99806411Y-131174176D01*
X99846800Y-131377224D01*
X99846800Y-131584256D01*
X99806411Y-131787304D01*
X99727185Y-131978573D01*
X99727184Y-131978575D01*
X99612165Y-132150713D01*
X99465773Y-132297105D01*
X99293635Y-132412124D01*
X99293634Y-132412125D01*
X99293633Y-132412125D01*
X99102364Y-132491351D01*
X98899316Y-132531740D01*
X98692284Y-132531740D01*
X98489236Y-132491351D01*
X98297967Y-132412125D01*
X98297966Y-132412125D01*
X98297965Y-132412124D01*
X98125827Y-132297105D01*
X97979435Y-132150713D01*
X97864416Y-131978575D01*
X97864415Y-131978573D01*
X97785189Y-131787304D01*
X97744800Y-131584256D01*
X97744800Y-131377224D01*
X97785189Y-131174176D01*
X97864415Y-130982907D01*
X97979435Y-130810767D01*
X98125827Y-130664375D01*
X98297965Y-130549356D01*
X98297967Y-130549355D01*
X98489236Y-130470129D01*
X98692284Y-130429740D01*
X98899316Y-130429740D01*
X99102364Y-130470129D01*
G37*
G36*
X91102364Y-130470129D02*
G01*
X91293633Y-130549355D01*
X91293635Y-130549356D01*
X91465773Y-130664375D01*
X91612165Y-130810767D01*
X91727185Y-130982907D01*
X91806411Y-131174176D01*
X91846800Y-131377224D01*
X91846800Y-131584256D01*
X91806411Y-131787304D01*
X91727185Y-131978573D01*
X91727184Y-131978575D01*
X91612165Y-132150713D01*
X91465773Y-132297105D01*
X91293635Y-132412124D01*
X91293634Y-132412125D01*
X91293633Y-132412125D01*
X91102364Y-132491351D01*
X90899316Y-132531740D01*
X90692284Y-132531740D01*
X90489236Y-132491351D01*
X90297967Y-132412125D01*
X90297966Y-132412125D01*
X90297965Y-132412124D01*
X90125827Y-132297105D01*
X89979435Y-132150713D01*
X89864416Y-131978575D01*
X89864415Y-131978573D01*
X89785189Y-131787304D01*
X89744800Y-131584256D01*
X89744800Y-131377224D01*
X89785189Y-131174176D01*
X89864415Y-130982907D01*
X89979435Y-130810767D01*
X90125827Y-130664375D01*
X90297965Y-130549356D01*
X90297967Y-130549355D01*
X90489236Y-130470129D01*
X90692284Y-130429740D01*
X90899316Y-130429740D01*
X91102364Y-130470129D01*
G37*
G36*
X95098385Y-127959542D02*
G01*
X95248210Y-127989344D01*
X95530474Y-128106261D01*
X95784505Y-128275999D01*
X96000541Y-128492035D01*
X96170279Y-128746066D01*
X96287196Y-129028330D01*
X96346800Y-129327980D01*
X96346800Y-129633500D01*
X96287196Y-129933150D01*
X96170279Y-130215414D01*
X96000541Y-130469445D01*
X95784505Y-130685481D01*
X95530474Y-130855219D01*
X95248210Y-130972136D01*
X95194070Y-130982905D01*
X94948561Y-131031740D01*
X94643039Y-131031740D01*
X94397530Y-130982905D01*
X94343390Y-130972136D01*
X94061126Y-130855219D01*
X93807095Y-130685481D01*
X93591059Y-130469445D01*
X93421321Y-130215414D01*
X93304404Y-129933150D01*
X93244800Y-129633500D01*
X93244800Y-129327980D01*
X93304404Y-129028330D01*
X93421321Y-128746066D01*
X93591059Y-128492035D01*
X93807095Y-128275999D01*
X94061126Y-128106261D01*
X94343390Y-127989344D01*
X94493215Y-127959542D01*
X94643039Y-127929740D01*
X94948561Y-127929740D01*
X95098385Y-127959542D01*
G37*
G36*
X126098385Y-127959542D02*
G01*
X126248210Y-127989344D01*
X126530474Y-128106261D01*
X126784505Y-128275999D01*
X127000541Y-128492035D01*
X127170279Y-128746066D01*
X127287196Y-129028330D01*
X127346800Y-129327980D01*
X127346800Y-129633500D01*
X127287196Y-129933150D01*
X127170279Y-130215414D01*
X127000541Y-130469445D01*
X126784505Y-130685481D01*
X126530474Y-130855219D01*
X126248210Y-130972136D01*
X126194070Y-130982905D01*
X125948561Y-131031740D01*
X125643039Y-131031740D01*
X125397530Y-130982905D01*
X125343390Y-130972136D01*
X125061126Y-130855219D01*
X124807095Y-130685481D01*
X124591059Y-130469445D01*
X124421321Y-130215414D01*
X124304404Y-129933150D01*
X124244800Y-129633500D01*
X124244800Y-129327980D01*
X124304404Y-129028330D01*
X124421321Y-128746066D01*
X124591059Y-128492035D01*
X124807095Y-128275999D01*
X125061126Y-128106261D01*
X125343390Y-127989344D01*
X125493215Y-127959542D01*
X125643039Y-127929740D01*
X125948561Y-127929740D01*
X126098385Y-127959542D01*
G37*
G36*
X80001800Y-122369741D02*
G01*
X80004202Y-122394127D01*
X80011315Y-122417576D01*
X80022866Y-122439187D01*
X80038411Y-122458129D01*
X80057353Y-122473674D01*
X80078964Y-122485225D01*
X80102413Y-122492338D01*
X80126799Y-122494740D01*
X80876800Y-122494740D01*
X80876800Y-126346740D01*
X80126799Y-126346740D01*
X80102413Y-126349142D01*
X80078964Y-126356255D01*
X80057353Y-126367806D01*
X80038411Y-126383351D01*
X80022866Y-126402293D01*
X80011315Y-126423904D01*
X80004202Y-126447353D01*
X80001800Y-126471739D01*
X80001800Y-127221740D01*
X76149800Y-127221740D01*
X76149800Y-126471739D01*
X76147398Y-126447353D01*
X76140285Y-126423904D01*
X76128734Y-126402293D01*
X76113189Y-126383351D01*
X76094247Y-126367806D01*
X76072636Y-126356255D01*
X76049187Y-126349142D01*
X76024801Y-126346740D01*
X75274800Y-126346740D01*
X75274800Y-122494740D01*
X76024801Y-122494740D01*
X76049187Y-122492338D01*
X76072636Y-122485225D01*
X76094247Y-122473674D01*
X76113189Y-122458129D01*
X76128734Y-122439187D01*
X76140285Y-122417576D01*
X76147398Y-122394127D01*
X76149800Y-122369741D01*
X76149800Y-121619740D01*
X80001800Y-121619740D01*
X80001800Y-122369741D01*
G37*
G36*
X132504233Y-123385633D02*
G01*
X132594457Y-123403579D01*
X132700067Y-123447325D01*
X132849421Y-123509189D01*
X132849422Y-123509190D01*
X133078886Y-123662512D01*
X133274028Y-123857654D01*
X133365625Y-123994740D01*
X133427351Y-124087119D01*
X133489215Y-124236473D01*
X133532961Y-124342083D01*
X133538462Y-124369740D01*
X133586800Y-124612752D01*
X133586800Y-124888728D01*
X133532961Y-125159396D01*
X133427351Y-125414361D01*
X133427350Y-125414362D01*
X133274028Y-125643826D01*
X133078886Y-125838968D01*
X132925563Y-125941415D01*
X132849421Y-125992291D01*
X132700067Y-126054155D01*
X132594457Y-126097901D01*
X132504233Y-126115847D01*
X132323788Y-126151740D01*
X132047812Y-126151740D01*
X131867367Y-126115847D01*
X131777143Y-126097901D01*
X131671533Y-126054155D01*
X131522179Y-125992291D01*
X131446037Y-125941415D01*
X131292714Y-125838968D01*
X131097572Y-125643826D01*
X130944250Y-125414362D01*
X130944249Y-125414361D01*
X130838639Y-125159396D01*
X130784800Y-124888728D01*
X130784800Y-124612752D01*
X130833138Y-124369740D01*
X130838639Y-124342083D01*
X130882385Y-124236473D01*
X130944249Y-124087119D01*
X131005975Y-123994740D01*
X131097572Y-123857654D01*
X131292714Y-123662512D01*
X131522178Y-123509190D01*
X131522179Y-123509189D01*
X131671533Y-123447325D01*
X131777143Y-123403579D01*
X131867367Y-123385633D01*
X132047812Y-123349740D01*
X132323788Y-123349740D01*
X132504233Y-123385633D01*
G37*
G36*
X69184233Y-123385633D02*
G01*
X69274457Y-123403579D01*
X69380067Y-123447325D01*
X69529421Y-123509189D01*
X69529422Y-123509190D01*
X69758886Y-123662512D01*
X69954028Y-123857654D01*
X70045625Y-123994740D01*
X70107351Y-124087119D01*
X70169215Y-124236473D01*
X70212961Y-124342083D01*
X70218462Y-124369740D01*
X70266800Y-124612752D01*
X70266800Y-124888728D01*
X70212961Y-125159396D01*
X70107351Y-125414361D01*
X70107350Y-125414362D01*
X69954028Y-125643826D01*
X69758886Y-125838968D01*
X69605563Y-125941415D01*
X69529421Y-125992291D01*
X69380067Y-126054155D01*
X69274457Y-126097901D01*
X69184233Y-126115847D01*
X69003788Y-126151740D01*
X68727812Y-126151740D01*
X68547367Y-126115847D01*
X68457143Y-126097901D01*
X68351533Y-126054155D01*
X68202179Y-125992291D01*
X68126037Y-125941415D01*
X67972714Y-125838968D01*
X67777572Y-125643826D01*
X67624250Y-125414362D01*
X67624249Y-125414361D01*
X67518639Y-125159396D01*
X67464800Y-124888728D01*
X67464800Y-124612752D01*
X67513138Y-124369740D01*
X67518639Y-124342083D01*
X67562385Y-124236473D01*
X67624249Y-124087119D01*
X67685975Y-123994740D01*
X67777572Y-123857654D01*
X67972714Y-123662512D01*
X68202178Y-123509190D01*
X68202179Y-123509189D01*
X68351533Y-123447325D01*
X68457143Y-123403579D01*
X68547367Y-123385633D01*
X68727812Y-123349740D01*
X69003788Y-123349740D01*
X69184233Y-123385633D01*
G37*
G36*
X128466800Y-125371740D02*
G01*
X127464800Y-125371740D01*
X127464800Y-124769740D01*
X128466800Y-124769740D01*
X128466800Y-125371740D01*
G37*
G36*
X104391800Y-124366740D02*
G01*
X102739800Y-124366740D01*
X102739800Y-123664740D01*
X104391800Y-123664740D01*
X104391800Y-124366740D01*
G37*
G36*
X109791800Y-124366740D02*
G01*
X108139800Y-124366740D01*
X108139800Y-123664740D01*
X109791800Y-123664740D01*
X109791800Y-124366740D01*
G37*
G36*
X128466800Y-123871740D02*
G01*
X127464800Y-123871740D01*
X127464800Y-123269740D01*
X128466800Y-123269740D01*
X128466800Y-123871740D01*
G37*
G36*
X124111800Y-123856740D02*
G01*
X122259800Y-123856740D01*
X122259800Y-122004740D01*
X124111800Y-122004740D01*
X124111800Y-123856740D01*
G37*
G36*
X116561800Y-123816740D02*
G01*
X114709800Y-123816740D01*
X114709800Y-121964740D01*
X116561800Y-121964740D01*
X116561800Y-123816740D01*
G37*
G36*
X109791800Y-123096740D02*
G01*
X108139800Y-123096740D01*
X108139800Y-122394740D01*
X109791800Y-122394740D01*
X109791800Y-123096740D01*
G37*
G36*
X104391800Y-123096740D02*
G01*
X102739800Y-123096740D01*
X102739800Y-122394740D01*
X104391800Y-122394740D01*
X104391800Y-123096740D01*
G37*
G36*
X91701800Y-123056740D02*
G01*
X89849800Y-123056740D01*
X89849800Y-121204740D01*
X91701800Y-121204740D01*
X91701800Y-123056740D01*
G37*
G36*
X98545904Y-121240325D02*
G01*
X98714426Y-121310129D01*
X98866091Y-121411468D01*
X98995072Y-121540449D01*
X99096411Y-121692114D01*
X99166215Y-121860636D01*
X99201800Y-122039537D01*
X99201800Y-122221943D01*
X99166215Y-122400844D01*
X99096411Y-122569366D01*
X98995072Y-122721031D01*
X98866091Y-122850012D01*
X98714426Y-122951351D01*
X98545904Y-123021155D01*
X98367003Y-123056740D01*
X98184597Y-123056740D01*
X98005696Y-123021155D01*
X97837174Y-122951351D01*
X97685509Y-122850012D01*
X97556528Y-122721031D01*
X97455189Y-122569366D01*
X97385385Y-122400844D01*
X97349800Y-122221943D01*
X97349800Y-122039537D01*
X97385385Y-121860636D01*
X97455189Y-121692114D01*
X97556528Y-121540449D01*
X97685509Y-121411468D01*
X97837174Y-121310129D01*
X98005696Y-121240325D01*
X98184597Y-121204740D01*
X98367003Y-121204740D01*
X98545904Y-121240325D01*
G37*
G36*
X96045904Y-121240325D02*
G01*
X96214426Y-121310129D01*
X96366091Y-121411468D01*
X96495072Y-121540449D01*
X96596411Y-121692114D01*
X96666215Y-121860636D01*
X96701800Y-122039537D01*
X96701800Y-122221943D01*
X96666215Y-122400844D01*
X96596411Y-122569366D01*
X96495072Y-122721031D01*
X96366091Y-122850012D01*
X96214426Y-122951351D01*
X96045904Y-123021155D01*
X95867003Y-123056740D01*
X95684597Y-123056740D01*
X95505696Y-123021155D01*
X95337174Y-122951351D01*
X95185509Y-122850012D01*
X95056528Y-122721031D01*
X94955189Y-122569366D01*
X94885385Y-122400844D01*
X94849800Y-122221943D01*
X94849800Y-122039537D01*
X94885385Y-121860636D01*
X94955189Y-121692114D01*
X95056528Y-121540449D01*
X95185509Y-121411468D01*
X95337174Y-121310129D01*
X95505696Y-121240325D01*
X95684597Y-121204740D01*
X95867003Y-121204740D01*
X96045904Y-121240325D01*
G37*
G36*
X93545904Y-121240325D02*
G01*
X93714426Y-121310129D01*
X93866091Y-121411468D01*
X93995072Y-121540449D01*
X94096411Y-121692114D01*
X94166215Y-121860636D01*
X94201800Y-122039537D01*
X94201800Y-122221943D01*
X94166215Y-122400844D01*
X94096411Y-122569366D01*
X93995072Y-122721031D01*
X93866091Y-122850012D01*
X93714426Y-122951351D01*
X93545904Y-123021155D01*
X93367003Y-123056740D01*
X93184597Y-123056740D01*
X93005696Y-123021155D01*
X92837174Y-122951351D01*
X92685509Y-122850012D01*
X92556528Y-122721031D01*
X92455189Y-122569366D01*
X92385385Y-122400844D01*
X92349800Y-122221943D01*
X92349800Y-122039537D01*
X92385385Y-121860636D01*
X92455189Y-121692114D01*
X92556528Y-121540449D01*
X92685509Y-121411468D01*
X92837174Y-121310129D01*
X93005696Y-121240325D01*
X93184597Y-121204740D01*
X93367003Y-121204740D01*
X93545904Y-121240325D01*
G37*
G36*
X104391800Y-121826740D02*
G01*
X102739800Y-121826740D01*
X102739800Y-121124740D01*
X104391800Y-121124740D01*
X104391800Y-121826740D01*
G37*
G36*
X109791800Y-121826740D02*
G01*
X108139800Y-121826740D01*
X108139800Y-121124740D01*
X109791800Y-121124740D01*
X109791800Y-121826740D01*
G37*
G36*
X73381800Y-121671740D02*
G01*
X72529800Y-121671740D01*
X72529800Y-120769740D01*
X73381800Y-120769740D01*
X73381800Y-121671740D01*
G37*
G36*
X74711800Y-121671740D02*
G01*
X73859800Y-121671740D01*
X73859800Y-120769740D01*
X74711800Y-120769740D01*
X74711800Y-121671740D01*
G37*
G36*
X123455904Y-119540325D02*
G01*
X123624426Y-119610129D01*
X123776091Y-119711468D01*
X123905072Y-119840449D01*
X124006411Y-119992114D01*
X124076215Y-120160636D01*
X124111800Y-120339537D01*
X124111800Y-120521943D01*
X124076215Y-120700844D01*
X124006411Y-120869366D01*
X123905072Y-121021031D01*
X123776091Y-121150012D01*
X123624426Y-121251351D01*
X123455904Y-121321155D01*
X123277003Y-121356740D01*
X123094597Y-121356740D01*
X122915696Y-121321155D01*
X122747174Y-121251351D01*
X122595509Y-121150012D01*
X122466528Y-121021031D01*
X122365189Y-120869366D01*
X122295385Y-120700844D01*
X122259800Y-120521943D01*
X122259800Y-120339537D01*
X122295385Y-120160636D01*
X122365189Y-119992114D01*
X122466528Y-119840449D01*
X122595509Y-119711468D01*
X122747174Y-119610129D01*
X122915696Y-119540325D01*
X123094597Y-119504740D01*
X123277003Y-119504740D01*
X123455904Y-119540325D01*
G37*
G36*
X115905904Y-119500325D02*
G01*
X116074426Y-119570129D01*
X116226091Y-119671468D01*
X116355072Y-119800449D01*
X116456411Y-119952114D01*
X116526215Y-120120636D01*
X116561800Y-120299537D01*
X116561800Y-120481943D01*
X116526215Y-120660844D01*
X116456411Y-120829366D01*
X116355072Y-120981031D01*
X116226091Y-121110012D01*
X116074426Y-121211351D01*
X115905904Y-121281155D01*
X115727003Y-121316740D01*
X115544597Y-121316740D01*
X115365696Y-121281155D01*
X115197174Y-121211351D01*
X115045509Y-121110012D01*
X114916528Y-120981031D01*
X114815189Y-120829366D01*
X114745385Y-120660844D01*
X114709800Y-120481943D01*
X114709800Y-120299537D01*
X114745385Y-120120636D01*
X114815189Y-119952114D01*
X114916528Y-119800449D01*
X115045509Y-119671468D01*
X115197174Y-119570129D01*
X115365696Y-119500325D01*
X115544597Y-119464740D01*
X115727003Y-119464740D01*
X115905904Y-119500325D01*
G37*
G36*
X129037999Y-118810694D02*
G01*
X129050250Y-118811296D01*
X129068669Y-118811296D01*
X129090949Y-118813490D01*
X129175033Y-118830216D01*
X129196460Y-118836716D01*
X129275658Y-118869520D01*
X129281103Y-118872431D01*
X129281109Y-118872433D01*
X129289969Y-118877169D01*
X129289973Y-118877172D01*
X129295414Y-118880080D01*
X129366699Y-118927711D01*
X129384004Y-118941912D01*
X129444628Y-119002536D01*
X129458829Y-119019841D01*
X129506460Y-119091126D01*
X129509368Y-119096567D01*
X129509371Y-119096571D01*
X129514107Y-119105431D01*
X129514109Y-119105437D01*
X129517020Y-119110882D01*
X129549824Y-119190080D01*
X129556324Y-119211507D01*
X129573050Y-119295591D01*
X129575244Y-119317871D01*
X129575244Y-119336290D01*
X129575846Y-119348541D01*
X129577652Y-119366879D01*
X129577652Y-119854600D01*
X129576063Y-119870739D01*
X129573148Y-119880348D01*
X129568410Y-119889212D01*
X129562037Y-119896977D01*
X129549594Y-119907188D01*
X129539225Y-119914118D01*
X129521898Y-119931445D01*
X129508285Y-119951820D01*
X129498909Y-119974460D01*
X129494129Y-119998493D01*
X129494130Y-120022997D01*
X129498912Y-120047030D01*
X129508290Y-120069669D01*
X129521905Y-120090042D01*
X129539232Y-120107369D01*
X129549602Y-120114298D01*
X129562037Y-120124503D01*
X129568410Y-120132268D01*
X129573148Y-120141132D01*
X129576063Y-120150741D01*
X129577652Y-120166880D01*
X129577652Y-120654602D01*
X129575846Y-120672939D01*
X129575244Y-120685190D01*
X129575244Y-120703609D01*
X129573050Y-120725889D01*
X129556324Y-120809973D01*
X129549824Y-120831400D01*
X129517020Y-120910598D01*
X129514109Y-120916043D01*
X129514107Y-120916049D01*
X129509371Y-120924909D01*
X129509368Y-120924913D01*
X129506460Y-120930354D01*
X129458829Y-121001639D01*
X129444628Y-121018944D01*
X129384004Y-121079568D01*
X129366699Y-121093769D01*
X129295414Y-121141400D01*
X129289973Y-121144308D01*
X129289969Y-121144311D01*
X129281109Y-121149047D01*
X129281103Y-121149049D01*
X129275658Y-121151960D01*
X129196460Y-121184764D01*
X129175033Y-121191264D01*
X129090949Y-121207990D01*
X129068669Y-121210184D01*
X129050250Y-121210184D01*
X129037999Y-121210786D01*
X129019662Y-121212592D01*
X128531938Y-121212592D01*
X128513601Y-121210786D01*
X128501350Y-121210184D01*
X128482931Y-121210184D01*
X128460651Y-121207990D01*
X128376567Y-121191264D01*
X128355140Y-121184764D01*
X128275942Y-121151960D01*
X128270497Y-121149049D01*
X128270491Y-121149047D01*
X128261631Y-121144311D01*
X128261627Y-121144308D01*
X128256186Y-121141400D01*
X128184901Y-121093769D01*
X128167596Y-121079568D01*
X128106972Y-121018944D01*
X128092771Y-121001639D01*
X128045140Y-120930354D01*
X128042232Y-120924913D01*
X128042229Y-120924909D01*
X128037493Y-120916049D01*
X128037491Y-120916043D01*
X128034580Y-120910598D01*
X128001776Y-120831400D01*
X127995276Y-120809973D01*
X127978550Y-120725889D01*
X127976356Y-120703609D01*
X127976356Y-120685190D01*
X127975754Y-120672939D01*
X127973948Y-120654602D01*
X127973948Y-120166880D01*
X127975537Y-120150741D01*
X127978452Y-120141132D01*
X127983190Y-120132268D01*
X127989563Y-120124503D01*
X128002006Y-120114292D01*
X128012375Y-120107362D01*
X128029702Y-120090035D01*
X128043315Y-120069660D01*
X128052691Y-120047020D01*
X128057471Y-120022987D01*
X128057470Y-119998483D01*
X128052688Y-119974450D01*
X128043310Y-119951811D01*
X128029695Y-119931438D01*
X128012368Y-119914111D01*
X128001998Y-119907182D01*
X127989563Y-119896977D01*
X127983190Y-119889212D01*
X127978452Y-119880348D01*
X127975537Y-119870739D01*
X127973948Y-119854600D01*
X127973948Y-119366879D01*
X127975754Y-119348541D01*
X127976356Y-119336290D01*
X127976356Y-119317871D01*
X127978550Y-119295591D01*
X127995276Y-119211507D01*
X128001776Y-119190080D01*
X128034580Y-119110882D01*
X128037491Y-119105437D01*
X128037493Y-119105431D01*
X128042229Y-119096571D01*
X128042232Y-119096567D01*
X128045140Y-119091126D01*
X128092771Y-119019841D01*
X128106972Y-119002536D01*
X128167596Y-118941912D01*
X128184901Y-118927711D01*
X128256186Y-118880080D01*
X128261627Y-118877172D01*
X128261631Y-118877169D01*
X128270491Y-118872433D01*
X128270497Y-118872431D01*
X128275942Y-118869520D01*
X128355140Y-118836716D01*
X128376567Y-118830216D01*
X128460651Y-118813490D01*
X128482931Y-118811296D01*
X128501350Y-118811296D01*
X128513601Y-118810694D01*
X128531939Y-118808888D01*
X129019661Y-118808888D01*
X129037999Y-118810694D01*
G37*
G36*
X109791800Y-120556740D02*
G01*
X108139800Y-120556740D01*
X108139800Y-119854740D01*
X109791800Y-119854740D01*
X109791800Y-120556740D01*
G37*
G36*
X104391800Y-120556740D02*
G01*
X102739800Y-120556740D01*
X102739800Y-119854740D01*
X104391800Y-119854740D01*
X104391800Y-120556740D01*
G37*
G36*
X73381800Y-120171740D02*
G01*
X72529800Y-120171740D01*
X72529800Y-119269740D01*
X73381800Y-119269740D01*
X73381800Y-120171740D01*
G37*
G36*
X74711800Y-120171740D02*
G01*
X73859800Y-120171740D01*
X73859800Y-119269740D01*
X74711800Y-119269740D01*
X74711800Y-120171740D01*
G37*
G36*
X86088378Y-119044937D02*
G01*
X86141150Y-119055434D01*
X86240570Y-119096615D01*
X86330046Y-119156401D01*
X86406139Y-119232494D01*
X86465925Y-119321970D01*
X86507106Y-119421390D01*
X86528100Y-119526934D01*
X86528100Y-119634546D01*
X86507106Y-119740090D01*
X86465925Y-119839510D01*
X86406139Y-119928986D01*
X86330046Y-120005079D01*
X86240570Y-120064865D01*
X86141150Y-120106046D01*
X86099664Y-120114298D01*
X86035607Y-120127040D01*
X85927993Y-120127040D01*
X85863936Y-120114298D01*
X85822450Y-120106046D01*
X85723030Y-120064865D01*
X85633554Y-120005079D01*
X85557461Y-119928986D01*
X85497675Y-119839510D01*
X85456494Y-119740090D01*
X85435500Y-119634546D01*
X85435500Y-119526934D01*
X85456494Y-119421390D01*
X85497675Y-119321970D01*
X85557461Y-119232494D01*
X85633554Y-119156401D01*
X85723030Y-119096615D01*
X85822450Y-119055434D01*
X85875222Y-119044937D01*
X85927993Y-119034440D01*
X86035607Y-119034440D01*
X86088378Y-119044937D01*
G37*
G36*
X84056378Y-119044937D02*
G01*
X84109150Y-119055434D01*
X84208570Y-119096615D01*
X84298046Y-119156401D01*
X84374139Y-119232494D01*
X84433925Y-119321970D01*
X84475106Y-119421390D01*
X84496100Y-119526934D01*
X84496100Y-119634546D01*
X84475106Y-119740090D01*
X84433925Y-119839510D01*
X84374139Y-119928986D01*
X84298046Y-120005079D01*
X84208570Y-120064865D01*
X84109150Y-120106046D01*
X84067664Y-120114298D01*
X84003607Y-120127040D01*
X83895993Y-120127040D01*
X83831936Y-120114298D01*
X83790450Y-120106046D01*
X83691030Y-120064865D01*
X83601554Y-120005079D01*
X83525461Y-119928986D01*
X83465675Y-119839510D01*
X83424494Y-119740090D01*
X83403500Y-119634546D01*
X83403500Y-119526934D01*
X83424494Y-119421390D01*
X83465675Y-119321970D01*
X83525461Y-119232494D01*
X83601554Y-119156401D01*
X83691030Y-119096615D01*
X83790450Y-119055434D01*
X83843222Y-119044937D01*
X83895993Y-119034440D01*
X84003607Y-119034440D01*
X84056378Y-119044937D01*
G37*
G36*
X84460514Y-117883129D02*
G01*
X84541445Y-117916652D01*
X84614280Y-117965319D01*
X84676221Y-118027260D01*
X84724888Y-118100095D01*
X84758411Y-118181026D01*
X84775500Y-118266941D01*
X84775500Y-118354539D01*
X84758411Y-118440454D01*
X84724888Y-118521385D01*
X84676221Y-118594220D01*
X84614280Y-118656161D01*
X84541445Y-118704828D01*
X84541444Y-118704829D01*
X84541443Y-118704829D01*
X84460514Y-118738351D01*
X84374601Y-118755440D01*
X84286999Y-118755440D01*
X84201086Y-118738351D01*
X84120157Y-118704829D01*
X84120156Y-118704829D01*
X84120155Y-118704828D01*
X84047320Y-118656161D01*
X83985379Y-118594220D01*
X83936712Y-118521385D01*
X83903189Y-118440454D01*
X83886100Y-118354539D01*
X83886100Y-118266941D01*
X83903189Y-118181026D01*
X83936712Y-118100095D01*
X83985379Y-118027260D01*
X84047320Y-117965319D01*
X84120155Y-117916652D01*
X84201086Y-117883129D01*
X84286999Y-117866040D01*
X84374601Y-117866040D01*
X84460514Y-117883129D01*
G37*
G36*
X85730514Y-117883129D02*
G01*
X85811445Y-117916652D01*
X85884280Y-117965319D01*
X85946221Y-118027260D01*
X85994888Y-118100095D01*
X86028411Y-118181026D01*
X86045500Y-118266941D01*
X86045500Y-118354539D01*
X86028411Y-118440454D01*
X85994888Y-118521385D01*
X85946221Y-118594220D01*
X85884280Y-118656161D01*
X85811445Y-118704828D01*
X85811444Y-118704829D01*
X85811443Y-118704829D01*
X85730514Y-118738351D01*
X85644601Y-118755440D01*
X85556999Y-118755440D01*
X85471086Y-118738351D01*
X85390157Y-118704829D01*
X85390156Y-118704829D01*
X85390155Y-118704828D01*
X85317320Y-118656161D01*
X85255379Y-118594220D01*
X85206712Y-118521385D01*
X85173189Y-118440454D01*
X85156100Y-118354539D01*
X85156100Y-118266941D01*
X85173189Y-118181026D01*
X85206712Y-118100095D01*
X85255379Y-118027260D01*
X85317320Y-117965319D01*
X85390155Y-117916652D01*
X85471086Y-117883129D01*
X85556999Y-117866040D01*
X85644601Y-117866040D01*
X85730514Y-117883129D01*
G37*
G36*
X109896800Y-118736740D02*
G01*
X108994800Y-118736740D01*
X108994800Y-117884740D01*
X109896800Y-117884740D01*
X109896800Y-118736740D01*
G37*
G36*
X108396800Y-118736740D02*
G01*
X107494800Y-118736740D01*
X107494800Y-117884740D01*
X108396800Y-117884740D01*
X108396800Y-118736740D01*
G37*
G36*
X98666800Y-118661740D02*
G01*
X98064800Y-118661740D01*
X98064800Y-117659740D01*
X98666800Y-117659740D01*
X98666800Y-118661740D01*
G37*
G36*
X100166800Y-118661740D02*
G01*
X99564800Y-118661740D01*
X99564800Y-117659740D01*
X100166800Y-117659740D01*
X100166800Y-118661740D01*
G37*
G36*
X95876800Y-118611740D02*
G01*
X94974800Y-118611740D01*
X94974800Y-117709740D01*
X95876800Y-117709740D01*
X95876800Y-118611740D01*
G37*
G36*
X97376800Y-118611740D02*
G01*
X96474800Y-118611740D01*
X96474800Y-117709740D01*
X97376800Y-117709740D01*
X97376800Y-118611740D01*
G37*
G36*
X93736800Y-118551740D02*
G01*
X93134800Y-118551740D01*
X93134800Y-117549740D01*
X93736800Y-117549740D01*
X93736800Y-118551740D01*
G37*
G36*
X92236800Y-118551740D02*
G01*
X91634800Y-118551740D01*
X91634800Y-117549740D01*
X92236800Y-117549740D01*
X92236800Y-118551740D01*
G37*
G36*
X76682800Y-118385740D02*
G01*
X75680800Y-118385740D01*
X75680800Y-117283740D01*
X76682800Y-117283740D01*
X76682800Y-118385740D01*
G37*
G36*
X80782800Y-118385740D02*
G01*
X79780800Y-118385740D01*
X79780800Y-117283740D01*
X80782800Y-117283740D01*
X80782800Y-118385740D01*
G37*
G36*
X84460514Y-116613129D02*
G01*
X84541445Y-116646652D01*
X84614280Y-116695319D01*
X84676221Y-116757260D01*
X84724888Y-116830095D01*
X84758411Y-116911026D01*
X84775500Y-116996941D01*
X84775500Y-117084539D01*
X84758411Y-117170454D01*
X84724888Y-117251385D01*
X84676221Y-117324220D01*
X84614280Y-117386161D01*
X84541445Y-117434828D01*
X84541444Y-117434829D01*
X84541443Y-117434829D01*
X84460514Y-117468351D01*
X84374601Y-117485440D01*
X84286999Y-117485440D01*
X84201086Y-117468351D01*
X84120157Y-117434829D01*
X84120156Y-117434829D01*
X84120155Y-117434828D01*
X84047320Y-117386161D01*
X83985379Y-117324220D01*
X83936712Y-117251385D01*
X83903189Y-117170454D01*
X83886100Y-117084539D01*
X83886100Y-116996941D01*
X83903189Y-116911026D01*
X83936712Y-116830095D01*
X83985379Y-116757260D01*
X84047320Y-116695319D01*
X84120155Y-116646652D01*
X84201086Y-116613129D01*
X84286999Y-116596040D01*
X84374601Y-116596040D01*
X84460514Y-116613129D01*
G37*
G36*
X85730514Y-116613129D02*
G01*
X85811445Y-116646652D01*
X85884280Y-116695319D01*
X85946221Y-116757260D01*
X85994888Y-116830095D01*
X86028411Y-116911026D01*
X86045500Y-116996941D01*
X86045500Y-117084539D01*
X86028411Y-117170454D01*
X85994888Y-117251385D01*
X85946221Y-117324220D01*
X85884280Y-117386161D01*
X85811445Y-117434828D01*
X85811444Y-117434829D01*
X85811443Y-117434829D01*
X85730514Y-117468351D01*
X85644601Y-117485440D01*
X85556999Y-117485440D01*
X85471086Y-117468351D01*
X85390157Y-117434829D01*
X85390156Y-117434829D01*
X85390155Y-117434828D01*
X85317320Y-117386161D01*
X85255379Y-117324220D01*
X85206712Y-117251385D01*
X85173189Y-117170454D01*
X85156100Y-117084539D01*
X85156100Y-116996941D01*
X85173189Y-116911026D01*
X85206712Y-116830095D01*
X85255379Y-116757260D01*
X85317320Y-116695319D01*
X85390155Y-116646652D01*
X85471086Y-116613129D01*
X85556999Y-116596040D01*
X85644601Y-116596040D01*
X85730514Y-116613129D01*
G37*
G36*
X109896800Y-117286740D02*
G01*
X108994800Y-117286740D01*
X108994800Y-116434740D01*
X109896800Y-116434740D01*
X109896800Y-117286740D01*
G37*
G36*
X108396800Y-117286740D02*
G01*
X107494800Y-117286740D01*
X107494800Y-116434740D01*
X108396800Y-116434740D01*
X108396800Y-117286740D01*
G37*
G36*
X80782800Y-116785740D02*
G01*
X79780800Y-116785740D01*
X79780800Y-115683740D01*
X80782800Y-115683740D01*
X80782800Y-116785740D01*
G37*
G36*
X76682800Y-116785740D02*
G01*
X75680800Y-116785740D01*
X75680800Y-115683740D01*
X76682800Y-115683740D01*
X76682800Y-116785740D01*
G37*
G36*
X96386800Y-116421740D02*
G01*
X93884800Y-116421740D01*
X93884800Y-115579740D01*
X96386800Y-115579740D01*
X96386800Y-116421740D01*
G37*
G36*
X92486800Y-116421740D02*
G01*
X89984800Y-116421740D01*
X89984800Y-115579740D01*
X92486800Y-115579740D01*
X92486800Y-116421740D01*
G37*
G36*
X126753564Y-113705142D02*
G01*
X126876245Y-113729545D01*
X127107371Y-113825281D01*
X127315378Y-113964267D01*
X127492273Y-114141162D01*
X127631259Y-114349169D01*
X127716330Y-114554547D01*
X127726995Y-114580296D01*
X127775800Y-114825655D01*
X127775800Y-115075825D01*
X127752820Y-115191351D01*
X127726995Y-115321185D01*
X127631259Y-115552311D01*
X127492273Y-115760318D01*
X127315378Y-115937213D01*
X127107371Y-116076199D01*
X126876245Y-116171935D01*
X126753564Y-116196338D01*
X126630885Y-116220740D01*
X126380715Y-116220740D01*
X126258036Y-116196338D01*
X126135355Y-116171935D01*
X125904229Y-116076199D01*
X125696222Y-115937213D01*
X125519327Y-115760318D01*
X125380341Y-115552311D01*
X125284605Y-115321185D01*
X125258780Y-115191351D01*
X125235800Y-115075825D01*
X125235800Y-114825655D01*
X125284605Y-114580296D01*
X125295271Y-114554547D01*
X125380341Y-114349169D01*
X125519327Y-114141162D01*
X125696222Y-113964267D01*
X125904229Y-113825281D01*
X126135355Y-113729545D01*
X126258036Y-113705142D01*
X126380715Y-113680740D01*
X126630885Y-113680740D01*
X126753564Y-113705142D01*
G37*
G36*
X85730514Y-115343129D02*
G01*
X85811445Y-115376652D01*
X85884280Y-115425319D01*
X85946221Y-115487260D01*
X85994888Y-115560095D01*
X86028411Y-115641026D01*
X86045500Y-115726941D01*
X86045500Y-115814539D01*
X86028411Y-115900454D01*
X85994888Y-115981385D01*
X85946221Y-116054220D01*
X85884280Y-116116161D01*
X85811445Y-116164828D01*
X85811444Y-116164829D01*
X85811443Y-116164829D01*
X85730514Y-116198351D01*
X85644601Y-116215440D01*
X85556999Y-116215440D01*
X85471086Y-116198351D01*
X85390157Y-116164829D01*
X85390156Y-116164829D01*
X85390155Y-116164828D01*
X85317320Y-116116161D01*
X85255379Y-116054220D01*
X85206712Y-115981385D01*
X85173189Y-115900454D01*
X85156100Y-115814539D01*
X85156100Y-115726941D01*
X85173189Y-115641026D01*
X85206712Y-115560095D01*
X85255379Y-115487260D01*
X85317320Y-115425319D01*
X85390155Y-115376652D01*
X85471086Y-115343129D01*
X85556999Y-115326040D01*
X85644601Y-115326040D01*
X85730514Y-115343129D01*
G37*
G36*
X84460514Y-115343129D02*
G01*
X84541445Y-115376652D01*
X84614280Y-115425319D01*
X84676221Y-115487260D01*
X84724888Y-115560095D01*
X84758411Y-115641026D01*
X84775500Y-115726941D01*
X84775500Y-115814539D01*
X84758411Y-115900454D01*
X84724888Y-115981385D01*
X84676221Y-116054220D01*
X84614280Y-116116161D01*
X84541445Y-116164828D01*
X84541444Y-116164829D01*
X84541443Y-116164829D01*
X84460514Y-116198351D01*
X84374601Y-116215440D01*
X84286999Y-116215440D01*
X84201086Y-116198351D01*
X84120157Y-116164829D01*
X84120156Y-116164829D01*
X84120155Y-116164828D01*
X84047320Y-116116161D01*
X83985379Y-116054220D01*
X83936712Y-115981385D01*
X83903189Y-115900454D01*
X83886100Y-115814539D01*
X83886100Y-115726941D01*
X83903189Y-115641026D01*
X83936712Y-115560095D01*
X83985379Y-115487260D01*
X84047320Y-115425319D01*
X84120155Y-115376652D01*
X84201086Y-115343129D01*
X84286999Y-115326040D01*
X84374601Y-115326040D01*
X84460514Y-115343129D01*
G37*
G36*
X116095904Y-113480325D02*
G01*
X116264426Y-113550129D01*
X116416091Y-113651468D01*
X116545072Y-113780449D01*
X116646411Y-113932114D01*
X116716215Y-114100636D01*
X116751800Y-114279537D01*
X116751800Y-114461943D01*
X116716215Y-114640844D01*
X116646411Y-114809366D01*
X116545072Y-114961031D01*
X116416091Y-115090012D01*
X116264426Y-115191351D01*
X116095904Y-115261155D01*
X115917003Y-115296740D01*
X115734597Y-115296740D01*
X115555696Y-115261155D01*
X115387174Y-115191351D01*
X115235509Y-115090012D01*
X115106528Y-114961031D01*
X115005189Y-114809366D01*
X114935385Y-114640844D01*
X114899800Y-114461943D01*
X114899800Y-114279537D01*
X114935385Y-114100636D01*
X115005189Y-113932114D01*
X115106528Y-113780449D01*
X115235509Y-113651468D01*
X115387174Y-113550129D01*
X115555696Y-113480325D01*
X115734597Y-113444740D01*
X115917003Y-113444740D01*
X116095904Y-113480325D01*
G37*
G36*
X118595904Y-113480325D02*
G01*
X118764426Y-113550129D01*
X118916091Y-113651468D01*
X119045072Y-113780449D01*
X119146411Y-113932114D01*
X119216215Y-114100636D01*
X119251800Y-114279537D01*
X119251800Y-114461943D01*
X119216215Y-114640844D01*
X119146411Y-114809366D01*
X119045072Y-114961031D01*
X118916091Y-115090012D01*
X118764426Y-115191351D01*
X118595904Y-115261155D01*
X118417003Y-115296740D01*
X118234597Y-115296740D01*
X118055696Y-115261155D01*
X117887174Y-115191351D01*
X117735509Y-115090012D01*
X117606528Y-114961031D01*
X117505189Y-114809366D01*
X117435385Y-114640844D01*
X117399800Y-114461943D01*
X117399800Y-114279537D01*
X117435385Y-114100636D01*
X117505189Y-113932114D01*
X117606528Y-113780449D01*
X117735509Y-113651468D01*
X117887174Y-113550129D01*
X118055696Y-113480325D01*
X118234597Y-113444740D01*
X118417003Y-113444740D01*
X118595904Y-113480325D01*
G37*
G36*
X121751800Y-115296740D02*
G01*
X119899800Y-115296740D01*
X119899800Y-113444740D01*
X121751800Y-113444740D01*
X121751800Y-115296740D01*
G37*
G36*
X96386800Y-115151740D02*
G01*
X93884800Y-115151740D01*
X93884800Y-114309740D01*
X96386800Y-114309740D01*
X96386800Y-115151740D01*
G37*
G36*
X92486800Y-115151740D02*
G01*
X89984800Y-115151740D01*
X89984800Y-114309740D01*
X92486800Y-114309740D01*
X92486800Y-115151740D01*
G37*
G36*
X108481800Y-115081740D02*
G01*
X107629800Y-115081740D01*
X107629800Y-114179740D01*
X108481800Y-114179740D01*
X108481800Y-115081740D01*
G37*
G36*
X85069005Y-113964266D02*
G01*
X85125150Y-113975434D01*
X85224570Y-114016615D01*
X85314046Y-114076401D01*
X85390139Y-114152494D01*
X85449925Y-114241970D01*
X85491106Y-114341390D01*
X85512100Y-114446934D01*
X85512100Y-114554546D01*
X85491106Y-114660090D01*
X85449925Y-114759510D01*
X85390139Y-114848986D01*
X85314046Y-114925079D01*
X85224570Y-114984865D01*
X85125150Y-115026046D01*
X85072378Y-115036543D01*
X85019607Y-115047040D01*
X84911993Y-115047040D01*
X84859222Y-115036543D01*
X84806450Y-115026046D01*
X84707030Y-114984865D01*
X84617554Y-114925079D01*
X84541461Y-114848986D01*
X84481675Y-114759510D01*
X84440494Y-114660090D01*
X84419500Y-114554546D01*
X84419500Y-114446934D01*
X84440494Y-114341390D01*
X84481675Y-114241970D01*
X84541461Y-114152494D01*
X84617554Y-114076401D01*
X84707030Y-114016615D01*
X84806450Y-113975434D01*
X84862595Y-113964266D01*
X84911993Y-113954440D01*
X85019607Y-113954440D01*
X85069005Y-113964266D01*
G37*
G36*
X106291800Y-114491740D02*
G01*
X99939800Y-114491740D01*
X99939800Y-113389740D01*
X106291800Y-113389740D01*
X106291800Y-114491740D01*
G37*
G36*
X96386800Y-113881740D02*
G01*
X93884800Y-113881740D01*
X93884800Y-113039740D01*
X96386800Y-113039740D01*
X96386800Y-113881740D01*
G37*
G36*
X92486800Y-113881740D02*
G01*
X89984800Y-113881740D01*
X89984800Y-113039740D01*
X92486800Y-113039740D01*
X92486800Y-113881740D01*
G37*
G36*
X108481800Y-113581740D02*
G01*
X107629800Y-113581740D01*
X107629800Y-112679740D01*
X108481800Y-112679740D01*
X108481800Y-113581740D01*
G37*
G36*
X96386800Y-112611740D02*
G01*
X93884800Y-112611740D01*
X93884800Y-111769740D01*
X96386800Y-111769740D01*
X96386800Y-112611740D01*
G37*
G36*
X92486800Y-112611740D02*
G01*
X89984800Y-112611740D01*
X89984800Y-111769740D01*
X92486800Y-111769740D01*
X92486800Y-112611740D01*
G37*
G36*
X86276800Y-112497740D02*
G01*
X85274800Y-112497740D01*
X85274800Y-111895740D01*
X86276800Y-111895740D01*
X86276800Y-112497740D01*
G37*
G36*
X88130800Y-112497740D02*
G01*
X87128800Y-112497740D01*
X87128800Y-111895740D01*
X88130800Y-111895740D01*
X88130800Y-112497740D01*
G37*
G36*
X92486800Y-111341740D02*
G01*
X89984800Y-111341740D01*
X89984800Y-110499740D01*
X92486800Y-110499740D01*
X92486800Y-111341740D01*
G37*
G36*
X96386800Y-111341740D02*
G01*
X93884800Y-111341740D01*
X93884800Y-110499740D01*
X96386800Y-110499740D01*
X96386800Y-111341740D01*
G37*
G36*
X86276800Y-110997740D02*
G01*
X85274800Y-110997740D01*
X85274800Y-110395740D01*
X86276800Y-110395740D01*
X86276800Y-110997740D01*
G37*
G36*
X88130800Y-110997740D02*
G01*
X87128800Y-110997740D01*
X87128800Y-110395740D01*
X88130800Y-110395740D01*
X88130800Y-110997740D01*
G37*
G36*
X110606800Y-110521740D02*
G01*
X109604800Y-110521740D01*
X109604800Y-109619740D01*
X110606800Y-109619740D01*
X110606800Y-110521740D01*
G37*
G36*
X109051800Y-110271740D02*
G01*
X108199800Y-110271740D01*
X108199800Y-109369740D01*
X109051800Y-109369740D01*
X109051800Y-110271740D01*
G37*
G36*
X114496800Y-109971740D02*
G01*
X113394800Y-109971740D01*
X113394800Y-108269740D01*
X114496800Y-108269740D01*
X114496800Y-109971740D01*
G37*
G36*
X117496800Y-109971740D02*
G01*
X116394800Y-109971740D01*
X116394800Y-108269740D01*
X117496800Y-108269740D01*
X117496800Y-109971740D01*
G37*
G36*
X120126800Y-109961740D02*
G01*
X119524800Y-109961740D01*
X119524800Y-108959740D01*
X120126800Y-108959740D01*
X120126800Y-109961740D01*
G37*
G36*
X118626800Y-109961740D02*
G01*
X118024800Y-109961740D01*
X118024800Y-108959740D01*
X118626800Y-108959740D01*
X118626800Y-109961740D01*
G37*
G36*
X112606800Y-109571740D02*
G01*
X111604800Y-109571740D01*
X111604800Y-108669740D01*
X112606800Y-108669740D01*
X112606800Y-109571740D01*
G37*
G36*
X96208800Y-109332740D02*
G01*
X95306800Y-109332740D01*
X95306800Y-108480740D01*
X96208800Y-108480740D01*
X96208800Y-109332740D01*
G37*
G36*
X94708800Y-109332740D02*
G01*
X93806800Y-109332740D01*
X93806800Y-108480740D01*
X94708800Y-108480740D01*
X94708800Y-109332740D01*
G37*
G36*
X109051800Y-108771740D02*
G01*
X108199800Y-108771740D01*
X108199800Y-107869740D01*
X109051800Y-107869740D01*
X109051800Y-108771740D01*
G37*
G36*
X106291800Y-108691740D02*
G01*
X99939800Y-108691740D01*
X99939800Y-107589740D01*
X106291800Y-107589740D01*
X106291800Y-108691740D01*
G37*
G36*
X110606800Y-108621740D02*
G01*
X109604800Y-108621740D01*
X109604800Y-107719740D01*
X110606800Y-107719740D01*
X110606800Y-108621740D01*
G37*
G36*
X98696800Y-108491740D02*
G01*
X97694800Y-108491740D01*
X97694800Y-107889740D01*
X98696800Y-107889740D01*
X98696800Y-108491740D01*
G37*
G36*
X98696800Y-106991740D02*
G01*
X97694800Y-106991740D01*
X97694800Y-106389740D01*
X98696800Y-106389740D01*
X98696800Y-106991740D01*
G37*
G36*
X98409312Y-103364667D02*
G01*
X98558612Y-103394364D01*
X98722584Y-103462284D01*
X98870154Y-103560887D01*
X98995653Y-103686386D01*
X99094256Y-103833956D01*
X99162176Y-103997928D01*
X99196800Y-104171999D01*
X99196800Y-104349481D01*
X99162176Y-104523552D01*
X99094256Y-104687524D01*
X98995653Y-104835094D01*
X98870154Y-104960593D01*
X98722584Y-105059196D01*
X98558612Y-105127116D01*
X98409312Y-105156813D01*
X98384542Y-105161740D01*
X98207058Y-105161740D01*
X98182288Y-105156813D01*
X98032988Y-105127116D01*
X97869016Y-105059196D01*
X97721446Y-104960593D01*
X97595947Y-104835094D01*
X97497344Y-104687524D01*
X97429424Y-104523552D01*
X97394800Y-104349481D01*
X97394800Y-104171999D01*
X97429424Y-103997928D01*
X97497344Y-103833956D01*
X97595947Y-103686386D01*
X97721446Y-103560887D01*
X97869016Y-103462284D01*
X98032988Y-103394364D01*
X98182288Y-103364667D01*
X98207058Y-103359740D01*
X98384542Y-103359740D01*
X98409312Y-103364667D01*
G37*
G36*
X100949312Y-103364667D02*
G01*
X101098612Y-103394364D01*
X101262584Y-103462284D01*
X101410154Y-103560887D01*
X101535653Y-103686386D01*
X101634256Y-103833956D01*
X101702176Y-103997928D01*
X101736800Y-104171999D01*
X101736800Y-104349481D01*
X101702176Y-104523552D01*
X101634256Y-104687524D01*
X101535653Y-104835094D01*
X101410154Y-104960593D01*
X101262584Y-105059196D01*
X101098612Y-105127116D01*
X100949312Y-105156813D01*
X100924542Y-105161740D01*
X100747058Y-105161740D01*
X100722288Y-105156813D01*
X100572988Y-105127116D01*
X100409016Y-105059196D01*
X100261446Y-104960593D01*
X100135947Y-104835094D01*
X100037344Y-104687524D01*
X99969424Y-104523552D01*
X99934800Y-104349481D01*
X99934800Y-104171999D01*
X99969424Y-103997928D01*
X100037344Y-103833956D01*
X100135947Y-103686386D01*
X100261446Y-103560887D01*
X100409016Y-103462284D01*
X100572988Y-103394364D01*
X100722288Y-103364667D01*
X100747058Y-103359740D01*
X100924542Y-103359740D01*
X100949312Y-103364667D01*
G37*
G36*
X104276800Y-105161740D02*
G01*
X102474800Y-105161740D01*
X102474800Y-103359740D01*
X104276800Y-103359740D01*
X104276800Y-105161740D01*
G37*
M02*
