G04 #@! TF.GenerationSoftware,KiCad,Pcbnew,(5.1.5)-3*
G04 #@! TF.CreationDate,2020-06-25T10:39:46+02:00*
G04 #@! TF.ProjectId,StepperClockK02,53746570-7065-4724-936c-6f636b4b3032,v1.0*
G04 #@! TF.SameCoordinates,Original*
G04 #@! TF.FileFunction,Copper,L2,Bot*
G04 #@! TF.FilePolarity,Positive*
%FSLAX46Y46*%
G04 Gerber Fmt 4.6, Leading zero omitted, Abs format (unit mm)*
G04 Created by KiCad (PCBNEW (5.1.5)-3) date 2020-06-25 10:39:46*
%MOMM*%
%LPD*%
G04 APERTURE LIST*
%ADD10R,1.750000X1.750000*%
%ADD11C,1.750000*%
%ADD12R,1.700000X1.700000*%
%ADD13O,1.700000X1.700000*%
%ADD14R,0.900000X0.800000*%
%ADD15C,2.000000*%
%ADD16C,1.000000*%
%ADD17R,0.800000X0.750000*%
%ADD18C,0.800000*%
%ADD19C,2.000000*%
%ADD20C,0.250000*%
%ADD21C,0.500000*%
%ADD22C,0.254000*%
G04 APERTURE END LIST*
D10*
X120825800Y-114370740D03*
D11*
X118325800Y-114370740D03*
X115825800Y-114370740D03*
D10*
X84265800Y-167770740D03*
D11*
X81765800Y-167770740D03*
X79265800Y-167770740D03*
X76765800Y-167770740D03*
D10*
X90775800Y-122130740D03*
D11*
X93275800Y-122130740D03*
X95775800Y-122130740D03*
X98275800Y-122130740D03*
D10*
X76765800Y-159720740D03*
D11*
X79265800Y-159720740D03*
X81765800Y-159720740D03*
X84265800Y-159720740D03*
D12*
X103377800Y-181550740D03*
D13*
X100837800Y-181550740D03*
X98297800Y-181550740D03*
D10*
X115635800Y-122890740D03*
D11*
X115635800Y-120390740D03*
D10*
X111345800Y-164270740D03*
D11*
X111345800Y-166770740D03*
X111345800Y-169270740D03*
X111345800Y-171770740D03*
D10*
X123185800Y-122930740D03*
D11*
X123185800Y-120430740D03*
D10*
X118575800Y-164270740D03*
D11*
X118575800Y-166770740D03*
X118575800Y-169270740D03*
X118575800Y-171770740D03*
D12*
X103375800Y-104260740D03*
D13*
X100835800Y-104260740D03*
X98295800Y-104260740D03*
D14*
X118815800Y-144400740D03*
X118815800Y-142500740D03*
X120815800Y-143450740D03*
X132635800Y-144360740D03*
X132635800Y-142460740D03*
X134635800Y-143410740D03*
D15*
X129795800Y-154480740D03*
X129795800Y-131480740D03*
X121795800Y-154480740D03*
X121795800Y-131480740D03*
X98795800Y-154480740D03*
X98795800Y-131480740D03*
X90795800Y-154480740D03*
X90795800Y-131480740D03*
D16*
X126505800Y-114950740D03*
X131165800Y-166070740D03*
X64095800Y-155790740D03*
D17*
X120305800Y-146860740D03*
X118805800Y-146860740D03*
X134345800Y-146860740D03*
X132845800Y-146860740D03*
D18*
X101985800Y-130350740D03*
X113725800Y-164270740D03*
X115775800Y-164270740D03*
X113634977Y-166299917D03*
X115955800Y-166250740D03*
X136055800Y-155610740D03*
X138435800Y-142660740D03*
X135465800Y-129450740D03*
X94935800Y-104060740D03*
X130525800Y-147290740D03*
X129855800Y-137090740D03*
X123205800Y-135110740D03*
X115745800Y-129540740D03*
X105905800Y-174330740D03*
X85905800Y-172970740D03*
X66125800Y-157070740D03*
X86155800Y-138730740D03*
X64705800Y-129160740D03*
X108005800Y-142000740D03*
X130515800Y-118480740D03*
X68775800Y-120330740D03*
X94825800Y-164380740D03*
X70205800Y-145690740D03*
X77645800Y-173380740D03*
X82645800Y-176480740D03*
X88715800Y-179330740D03*
X95205800Y-180940740D03*
X107055800Y-181000740D03*
X113365800Y-179160740D03*
X119735800Y-175940740D03*
X125395800Y-172010740D03*
X129385800Y-168200740D03*
X137545800Y-151770740D03*
X138735800Y-146290740D03*
X137605800Y-136510740D03*
X124145800Y-112410740D03*
X85565800Y-107170740D03*
X62345800Y-141580740D03*
X108905800Y-132240740D03*
X92885800Y-140270740D03*
X104315800Y-155460740D03*
X116825800Y-155760740D03*
X123375800Y-147060740D03*
X120875800Y-139440740D03*
X123665800Y-143070740D03*
X102775800Y-164330740D03*
X80625800Y-153850740D03*
X70315800Y-167070740D03*
X113195800Y-159920740D03*
X124145800Y-152060740D03*
X97825800Y-134680740D03*
X114615800Y-147900740D03*
X103225800Y-110940740D03*
X80517800Y-120590740D03*
X108935800Y-167990740D03*
X106265800Y-162050740D03*
X109045800Y-170640740D03*
X120605800Y-173230740D03*
X119665800Y-162430740D03*
X109115800Y-160050740D03*
X120835800Y-160150740D03*
X116075800Y-159980740D03*
X108905800Y-176100740D03*
X114465800Y-176620740D03*
X103185800Y-167040740D03*
X67195800Y-136010740D03*
X62185800Y-135310740D03*
X102775800Y-115940740D03*
X63085800Y-151780740D03*
X95295800Y-176540740D03*
X91205800Y-169730740D03*
X90865800Y-160900740D03*
X78985800Y-162330740D03*
X85425800Y-162430740D03*
X85425800Y-149690740D03*
X106205800Y-117100740D03*
X85035800Y-120720740D03*
X78739800Y-110938740D03*
X82295800Y-108652740D03*
X89915800Y-105604740D03*
X88899800Y-127956740D03*
X71735800Y-120320740D03*
X111435800Y-118520740D03*
X125835800Y-122020740D03*
X88835800Y-118220740D03*
X75335800Y-113320740D03*
X85635800Y-154920740D03*
X113595800Y-169520740D03*
X113535800Y-171720740D03*
X116295800Y-169490740D03*
X116115800Y-171720740D03*
X109980800Y-114630740D03*
X111735800Y-114620740D03*
X78745236Y-119745740D03*
X74135800Y-134490750D03*
X73800380Y-136805253D03*
X77046202Y-143830837D03*
X76035800Y-143760781D03*
X75735800Y-136840740D03*
X76895800Y-134490750D03*
X80532525Y-127620740D03*
X79455376Y-120457464D03*
X81406003Y-128945739D03*
X63805800Y-144790740D03*
X63805800Y-134290740D03*
X73530800Y-127688087D03*
X77745233Y-119745740D03*
X65005800Y-143800740D03*
X64530800Y-135143343D03*
X74255800Y-126470740D03*
X76755800Y-119890740D03*
X86613800Y-115510740D03*
X84581800Y-112208740D03*
X86625800Y-116725740D03*
X81635800Y-116720740D03*
X77100800Y-129730720D03*
X83595800Y-127620740D03*
X83615800Y-121280740D03*
X80050800Y-129669729D03*
X91627646Y-127662586D03*
X94475800Y-120130740D03*
X115955800Y-135770741D03*
X115985800Y-138220740D03*
X117015800Y-143440740D03*
X80652201Y-119599811D03*
X80635800Y-114234729D03*
X83135800Y-115720740D03*
X130935800Y-144420740D03*
X120735800Y-145320740D03*
X73659800Y-124945740D03*
X66755800Y-143860740D03*
X80055800Y-144740740D03*
X116035800Y-142470740D03*
X87805800Y-147360740D03*
X66021939Y-132495120D03*
X74025800Y-144500740D03*
X98355800Y-147320740D03*
X73286920Y-126718279D03*
X130375800Y-141770740D03*
X65296939Y-133261879D03*
X65755800Y-144502430D03*
X75070283Y-145465740D03*
X80845800Y-145465740D03*
X87930800Y-148352898D03*
X99265800Y-148045740D03*
X73590191Y-123948164D03*
X72520814Y-126075562D03*
X120835800Y-122920740D03*
X120635800Y-120420740D03*
X101945800Y-118855739D03*
X101100790Y-121400740D03*
X80545800Y-139260741D03*
X87845800Y-143350740D03*
X76600800Y-128785917D03*
X75859941Y-134501303D03*
X74763480Y-137074402D03*
X75035797Y-143760781D03*
X88323271Y-145105364D03*
X88696241Y-139260741D03*
X88715800Y-138170751D03*
X88715800Y-135770741D03*
X87565800Y-133030750D03*
X75885800Y-127940740D03*
X101405800Y-125445740D03*
X101405800Y-126895740D03*
X78495800Y-134490750D03*
X84320800Y-129107173D03*
X84595803Y-127620740D03*
X84320800Y-124395740D03*
X81125800Y-135120740D03*
X86395800Y-129669729D03*
X86415800Y-127620740D03*
X86001826Y-123895740D03*
X101569825Y-120305739D03*
X103075800Y-118780740D03*
X113204759Y-107410740D03*
X115395800Y-107430740D03*
D19*
X111345800Y-166770740D02*
X118575800Y-166770740D01*
X118575800Y-166770740D02*
X118575800Y-164270740D01*
X118575800Y-164270740D02*
X111345800Y-164270740D01*
X111345800Y-164270740D02*
X111345800Y-166770740D01*
X111605800Y-164270740D02*
X113634977Y-166299917D01*
X111345800Y-164270740D02*
X111605800Y-164270740D01*
X117935800Y-164270740D02*
X115955800Y-166250740D01*
X118575800Y-164270740D02*
X117935800Y-164270740D01*
X113845800Y-169270740D02*
X113595800Y-169520740D01*
X118575800Y-169270740D02*
X113845800Y-169270740D01*
X116075800Y-169270740D02*
X116295800Y-169490740D01*
X111345800Y-169270740D02*
X116075800Y-169270740D01*
X117700801Y-170145739D02*
X115820801Y-170145739D01*
X115820801Y-170145739D02*
X114195800Y-171770740D01*
X118575800Y-169270740D02*
X117700801Y-170145739D01*
X111345800Y-171770740D02*
X113335800Y-171770740D01*
X114650799Y-170145739D02*
X116130800Y-171625740D01*
X111345800Y-169270740D02*
X112220799Y-170145739D01*
X114195800Y-171770740D02*
X116275800Y-171770740D01*
X112220799Y-170145739D02*
X114650799Y-170145739D01*
X116275800Y-171770740D02*
X118575800Y-171770740D01*
X113595800Y-169520740D02*
X111345800Y-171770740D01*
X113335800Y-171770740D02*
X114195800Y-171770740D01*
X116295800Y-169490740D02*
X118575800Y-171770740D01*
X116130800Y-171625740D02*
X116275800Y-171770740D01*
D20*
X109990800Y-114620740D02*
X109980800Y-114630740D01*
X111735800Y-114620740D02*
X109990800Y-114620740D01*
X76083801Y-136115739D02*
X77185800Y-137217738D01*
X73800380Y-136805253D02*
X74489894Y-136115739D01*
X74489894Y-136115739D02*
X76083801Y-136115739D01*
X77046202Y-143265152D02*
X77185800Y-143125554D01*
X77185800Y-143125554D02*
X77185800Y-137217738D01*
X77046202Y-143830837D02*
X77046202Y-143265152D01*
X74145212Y-128290740D02*
X74145212Y-134481338D01*
X76675820Y-125760132D02*
X74145212Y-128290740D01*
X78745236Y-120311425D02*
X78465921Y-120590740D01*
X77842210Y-120590740D02*
X76675820Y-121757130D01*
X74145212Y-134481338D02*
X74135800Y-134490750D01*
X78745236Y-119745740D02*
X78745236Y-120311425D01*
X78465921Y-120590740D02*
X77842210Y-120590740D01*
X76675820Y-121757130D02*
X76675820Y-125760132D01*
X76035800Y-143760781D02*
X76035800Y-137140740D01*
X76035800Y-137140740D02*
X75735800Y-136840740D01*
X81006004Y-130380546D02*
X77295799Y-134090751D01*
X81006004Y-129345738D02*
X81006004Y-130380546D01*
X77295799Y-134090751D02*
X76895800Y-134490750D01*
X81406003Y-128945739D02*
X81006004Y-129345738D01*
X79455376Y-126543591D02*
X79455376Y-120457464D01*
X80532525Y-127620740D02*
X79455376Y-126543591D01*
X63805800Y-144790740D02*
X63805800Y-134290740D01*
X74111455Y-127688087D02*
X73530800Y-127688087D01*
X76225810Y-125573732D02*
X74111455Y-127688087D01*
X77745233Y-119745740D02*
X77745233Y-120051307D01*
X76225810Y-121570730D02*
X76225810Y-125573732D01*
X77745233Y-120051307D02*
X76225810Y-121570730D01*
X65005800Y-143800740D02*
X64530800Y-143325740D01*
X64530800Y-143325740D02*
X64530800Y-135143343D01*
X74692392Y-126470740D02*
X74255800Y-126470740D01*
X75775800Y-125387332D02*
X74692392Y-126470740D01*
X76755800Y-119890740D02*
X75775800Y-120870740D01*
X75775800Y-120870740D02*
X75775800Y-125387332D01*
X84581800Y-112902694D02*
X84581800Y-112208740D01*
X86613800Y-115510740D02*
X86613800Y-114934694D01*
X86613800Y-114934694D02*
X84581800Y-112902694D01*
X83540800Y-116725740D02*
X86625800Y-116725740D01*
X83540800Y-116725740D02*
X83002800Y-116725740D01*
X83002800Y-116725740D02*
X81640800Y-116725740D01*
X81640800Y-116725740D02*
X81635800Y-116720740D01*
X83595800Y-123255720D02*
X83585800Y-123245720D01*
X83595800Y-127620740D02*
X83595800Y-123255720D01*
X83595800Y-121866425D02*
X83595800Y-123255720D01*
X83615800Y-121846425D02*
X83595800Y-121866425D01*
X83615800Y-121280740D02*
X83615800Y-121846425D01*
X77100800Y-129730720D02*
X79989809Y-129730720D01*
X79989809Y-129730720D02*
X80050800Y-129669729D01*
X91627646Y-127662586D02*
X94475801Y-124814431D01*
X94475801Y-120130741D02*
X94475800Y-120130740D01*
X94475801Y-124814431D02*
X94475801Y-120130741D01*
X132635800Y-146650740D02*
X132845800Y-146860740D01*
X132635800Y-144360740D02*
X132635800Y-146650740D01*
X118815800Y-144400740D02*
X118815800Y-146850740D01*
X132595800Y-144400740D02*
X132635800Y-144360740D01*
X115955800Y-135770741D02*
X115955800Y-138190740D01*
X115955800Y-138190740D02*
X115985800Y-138220740D01*
X117975800Y-144400740D02*
X118815800Y-144400740D01*
X117015800Y-143440740D02*
X117975800Y-144400740D01*
X80652201Y-119599811D02*
X80652201Y-114251130D01*
X80652201Y-114251130D02*
X80635800Y-114234729D01*
X81649789Y-114234729D02*
X80635800Y-114234729D01*
X83135800Y-115720740D02*
X81649789Y-114234729D01*
X132635800Y-144360740D02*
X130995800Y-144360740D01*
X130995800Y-144360740D02*
X130935800Y-144420740D01*
X119815800Y-144400740D02*
X118815800Y-144400740D01*
X120735800Y-145320740D02*
X119815800Y-144400740D01*
X98355800Y-147320740D02*
X87845800Y-147320740D01*
X118815800Y-142500740D02*
X116065800Y-142500740D01*
X66021939Y-142060781D02*
X66755800Y-142794642D01*
X65746949Y-141785791D02*
X66021939Y-142060781D01*
X65746949Y-134090740D02*
X65746949Y-141785791D01*
X116065800Y-142500740D02*
X116035800Y-142470740D01*
X66021939Y-133815750D02*
X65746949Y-134090740D01*
X74265800Y-144740740D02*
X74025800Y-144500740D01*
X87845800Y-147320740D02*
X87805800Y-147360740D01*
X66021939Y-132495120D02*
X66021939Y-133815750D01*
X66755800Y-142794642D02*
X66755800Y-143860740D01*
X80055800Y-144740740D02*
X74265800Y-144740740D01*
X73286920Y-125318620D02*
X73659800Y-124945740D01*
X73286920Y-126718279D02*
X73286920Y-125318620D01*
X131065800Y-142460740D02*
X132635800Y-142460740D01*
X130375800Y-141770740D02*
X131065800Y-142460740D01*
X65755800Y-143477738D02*
X65755800Y-144502430D01*
X65296939Y-133261879D02*
X65296939Y-143018877D01*
X65296939Y-143018877D02*
X65755800Y-143477738D01*
X75070283Y-145465740D02*
X80845800Y-145465740D01*
X87930800Y-148352898D02*
X87930800Y-148275740D01*
X88237958Y-148045740D02*
X87930800Y-148352898D01*
X99265800Y-148045740D02*
X88237958Y-148045740D01*
X72520814Y-125509877D02*
X72520814Y-126075562D01*
X73311799Y-124220739D02*
X72520814Y-125011724D01*
X72520814Y-125011724D02*
X72520814Y-125509877D01*
X73590191Y-123948164D02*
X73590191Y-123962349D01*
X73331801Y-124220739D02*
X73311799Y-124220739D01*
X73590191Y-123962349D02*
X73331801Y-124220739D01*
X123185800Y-122930740D02*
X120845800Y-122930740D01*
X120845800Y-122930740D02*
X120835800Y-122920740D01*
X123185800Y-120430740D02*
X120645800Y-120430740D01*
X120645800Y-120430740D02*
X120635800Y-120420740D01*
X100844824Y-121144774D02*
X101100790Y-121400740D01*
X101945800Y-118855739D02*
X100844824Y-119956715D01*
X100844824Y-119956715D02*
X100844824Y-121144774D01*
D21*
X83755801Y-139260741D02*
X87845800Y-143350740D01*
X80545800Y-139260741D02*
X83755801Y-139260741D01*
D20*
X76600800Y-128785917D02*
X75859941Y-129526776D01*
X75859941Y-129526776D02*
X75859941Y-134501303D01*
X74763480Y-137074402D02*
X74763480Y-143488464D01*
X74763480Y-143488464D02*
X75035797Y-143760781D01*
X88723270Y-139287770D02*
X88696241Y-139260741D01*
X88323271Y-145105364D02*
X88723270Y-144705365D01*
X88723270Y-144705365D02*
X88723270Y-139287770D01*
X88715800Y-138170751D02*
X88715800Y-135770741D01*
X87565800Y-129766727D02*
X86181246Y-128382173D01*
X87565800Y-133030750D02*
X87565800Y-129766727D01*
X83022798Y-128120740D02*
X83284231Y-128382173D01*
X80910799Y-128345741D02*
X81135800Y-128120740D01*
X80184524Y-128345741D02*
X80910799Y-128345741D01*
X81135800Y-128120740D02*
X83022798Y-128120740D01*
X79779523Y-127940740D02*
X80184524Y-128345741D01*
X83284231Y-128382173D02*
X86181246Y-128382173D01*
X75885800Y-127940740D02*
X79779523Y-127940740D01*
X101405800Y-125445740D02*
X101405800Y-126895740D01*
X78495800Y-134490750D02*
X83879377Y-129107173D01*
X83879377Y-129107173D02*
X84320800Y-129107173D01*
X84320800Y-127345737D02*
X84595803Y-127620740D01*
X84320800Y-124395740D02*
X84320800Y-127345737D01*
X81125800Y-135120740D02*
X86395800Y-129850740D01*
X86395800Y-129850740D02*
X86395800Y-129669729D01*
X86415800Y-127620740D02*
X86415800Y-124309714D01*
X86415800Y-124309714D02*
X86001826Y-123895740D01*
X101569825Y-120305739D02*
X101569825Y-120286715D01*
X101569825Y-120286715D02*
X103075800Y-118780740D01*
X113204759Y-107410740D02*
X115375800Y-107410740D01*
X115375800Y-107410740D02*
X115395800Y-107430740D01*
D22*
G36*
X96979810Y-103557329D02*
G01*
X96867868Y-103827582D01*
X96810800Y-104114480D01*
X96810800Y-104407000D01*
X96867868Y-104693898D01*
X96979810Y-104964151D01*
X97142325Y-105207372D01*
X97349168Y-105414215D01*
X97592389Y-105576730D01*
X97862642Y-105688672D01*
X98149540Y-105745740D01*
X98442060Y-105745740D01*
X98728958Y-105688672D01*
X98999211Y-105576730D01*
X99242432Y-105414215D01*
X99449275Y-105207372D01*
X99570995Y-105025206D01*
X99640622Y-105142095D01*
X99835531Y-105358328D01*
X100068880Y-105532381D01*
X100331701Y-105657565D01*
X100478910Y-105702216D01*
X100708800Y-105580895D01*
X100708800Y-104387740D01*
X100688800Y-104387740D01*
X100688800Y-104133740D01*
X100708800Y-104133740D01*
X100708800Y-104113740D01*
X100962800Y-104113740D01*
X100962800Y-104133740D01*
X100982800Y-104133740D01*
X100982800Y-104387740D01*
X100962800Y-104387740D01*
X100962800Y-105580895D01*
X101192690Y-105702216D01*
X101339899Y-105657565D01*
X101602720Y-105532381D01*
X101836069Y-105358328D01*
X101911834Y-105274274D01*
X101936298Y-105354920D01*
X101995263Y-105465234D01*
X102074615Y-105561925D01*
X102171306Y-105641277D01*
X102281620Y-105700242D01*
X102401318Y-105736552D01*
X102525800Y-105748812D01*
X104225800Y-105748812D01*
X104350282Y-105736552D01*
X104469980Y-105700242D01*
X104580294Y-105641277D01*
X104676985Y-105561925D01*
X104756337Y-105465234D01*
X104815302Y-105354920D01*
X104851612Y-105235222D01*
X104863872Y-105110740D01*
X104863872Y-103624541D01*
X106703397Y-103856927D01*
X109140277Y-104321787D01*
X111543159Y-104938742D01*
X113902560Y-105705358D01*
X116209170Y-106618610D01*
X118453885Y-107674892D01*
X120627846Y-108870037D01*
X122722473Y-110199328D01*
X124729500Y-111657519D01*
X126641006Y-113238854D01*
X127128363Y-113696513D01*
X126913290Y-113607426D01*
X126643392Y-113553740D01*
X126368208Y-113553740D01*
X126098310Y-113607426D01*
X125844073Y-113712735D01*
X125615265Y-113865620D01*
X125420680Y-114060205D01*
X125267795Y-114289013D01*
X125162486Y-114543250D01*
X125108800Y-114813148D01*
X125108800Y-115088332D01*
X125162486Y-115358230D01*
X125267795Y-115612467D01*
X125420680Y-115841275D01*
X125615265Y-116035860D01*
X125844073Y-116188745D01*
X126098310Y-116294054D01*
X126368208Y-116347740D01*
X126643392Y-116347740D01*
X126913290Y-116294054D01*
X127167527Y-116188745D01*
X127396335Y-116035860D01*
X127590920Y-115841275D01*
X127743805Y-115612467D01*
X127849114Y-115358230D01*
X127902800Y-115088332D01*
X127902800Y-114813148D01*
X127849114Y-114543250D01*
X127743805Y-114289013D01*
X127717687Y-114249925D01*
X128449447Y-114937093D01*
X130147686Y-116745534D01*
X131729021Y-118657040D01*
X133187212Y-120664067D01*
X133822573Y-121665235D01*
X133200004Y-121407359D01*
X132528255Y-121273740D01*
X131843345Y-121273740D01*
X131171596Y-121407359D01*
X130538823Y-121669462D01*
X129969342Y-122049978D01*
X129485038Y-122534282D01*
X129104522Y-123103763D01*
X128842419Y-123736536D01*
X128708800Y-124408285D01*
X128708800Y-125093195D01*
X128842419Y-125764944D01*
X129104522Y-126397717D01*
X129485038Y-126967198D01*
X129969342Y-127451502D01*
X130538823Y-127832018D01*
X131171596Y-128094121D01*
X131843345Y-128227740D01*
X132528255Y-128227740D01*
X133200004Y-128094121D01*
X133832777Y-127832018D01*
X134402258Y-127451502D01*
X134886562Y-126967198D01*
X135267078Y-126397717D01*
X135529181Y-125764944D01*
X135662800Y-125093195D01*
X135662800Y-124843801D01*
X135711648Y-124932655D01*
X136767930Y-127177370D01*
X137681182Y-129483980D01*
X138447798Y-131843381D01*
X139064753Y-134246263D01*
X139529613Y-136683143D01*
X139840542Y-139144403D01*
X139996314Y-141620329D01*
X139996314Y-144101151D01*
X139840542Y-146577077D01*
X139529613Y-149038337D01*
X139064753Y-151475217D01*
X138447798Y-153878099D01*
X137681182Y-156237500D01*
X136767930Y-158544110D01*
X135711648Y-160788825D01*
X135662800Y-160877679D01*
X135662800Y-160688285D01*
X135529181Y-160016536D01*
X135267078Y-159383763D01*
X134886562Y-158814282D01*
X134402258Y-158329978D01*
X133832777Y-157949462D01*
X133200004Y-157687359D01*
X132528255Y-157553740D01*
X131843345Y-157553740D01*
X131171596Y-157687359D01*
X130538823Y-157949462D01*
X129969342Y-158329978D01*
X129485038Y-158814282D01*
X129104522Y-159383763D01*
X128842419Y-160016536D01*
X128708800Y-160688285D01*
X128708800Y-161373195D01*
X128842419Y-162044944D01*
X129104522Y-162677717D01*
X129485038Y-163247198D01*
X129969342Y-163731502D01*
X130538823Y-164112018D01*
X131171596Y-164374121D01*
X131843345Y-164507740D01*
X132528255Y-164507740D01*
X133200004Y-164374121D01*
X133770917Y-164137641D01*
X133187212Y-165057413D01*
X132560254Y-165920347D01*
X132509114Y-165663250D01*
X132403805Y-165409013D01*
X132250920Y-165180205D01*
X132056335Y-164985620D01*
X131827527Y-164832735D01*
X131573290Y-164727426D01*
X131303392Y-164673740D01*
X131028208Y-164673740D01*
X130758310Y-164727426D01*
X130504073Y-164832735D01*
X130275265Y-164985620D01*
X130080680Y-165180205D01*
X129927795Y-165409013D01*
X129822486Y-165663250D01*
X129768800Y-165933148D01*
X129768800Y-166208332D01*
X129822486Y-166478230D01*
X129927795Y-166732467D01*
X130080680Y-166961275D01*
X130275265Y-167155860D01*
X130504073Y-167308745D01*
X130758310Y-167414054D01*
X131028208Y-167467740D01*
X131303392Y-167467740D01*
X131413501Y-167445838D01*
X130147686Y-168975946D01*
X128449447Y-170784387D01*
X126641006Y-172482626D01*
X124729500Y-174063961D01*
X122722473Y-175522152D01*
X120627846Y-176851443D01*
X118453885Y-178046588D01*
X116209170Y-179102870D01*
X113902560Y-180016122D01*
X111543159Y-180782738D01*
X109140277Y-181399693D01*
X106703397Y-181864553D01*
X104865872Y-182096686D01*
X104865872Y-180700740D01*
X104853612Y-180576258D01*
X104817302Y-180456560D01*
X104758337Y-180346246D01*
X104678985Y-180249555D01*
X104582294Y-180170203D01*
X104471980Y-180111238D01*
X104352282Y-180074928D01*
X104227800Y-180062668D01*
X102527800Y-180062668D01*
X102403318Y-180074928D01*
X102283620Y-180111238D01*
X102173306Y-180170203D01*
X102076615Y-180249555D01*
X101997263Y-180346246D01*
X101938298Y-180456560D01*
X101916287Y-180529120D01*
X101784432Y-180397265D01*
X101541211Y-180234750D01*
X101270958Y-180122808D01*
X100984060Y-180065740D01*
X100691540Y-180065740D01*
X100404642Y-180122808D01*
X100134389Y-180234750D01*
X99891168Y-180397265D01*
X99684325Y-180604108D01*
X99567800Y-180778500D01*
X99451275Y-180604108D01*
X99244432Y-180397265D01*
X99001211Y-180234750D01*
X98730958Y-180122808D01*
X98444060Y-180065740D01*
X98151540Y-180065740D01*
X97864642Y-180122808D01*
X97594389Y-180234750D01*
X97351168Y-180397265D01*
X97144325Y-180604108D01*
X96981810Y-180847329D01*
X96869868Y-181117582D01*
X96812800Y-181404480D01*
X96812800Y-181697000D01*
X96869868Y-181983898D01*
X96952964Y-182184510D01*
X96809463Y-182175482D01*
X94348203Y-181864553D01*
X91911323Y-181399693D01*
X89508441Y-180782738D01*
X87149040Y-180016122D01*
X84842430Y-179102870D01*
X82597715Y-178046588D01*
X80423754Y-176851443D01*
X78329127Y-175522152D01*
X76322100Y-174063961D01*
X74410594Y-172482626D01*
X72602153Y-170784387D01*
X70903914Y-168975946D01*
X69783848Y-167622018D01*
X75255800Y-167622018D01*
X75255800Y-167919462D01*
X75313829Y-168211191D01*
X75427656Y-168485993D01*
X75592907Y-168733309D01*
X75803231Y-168943633D01*
X76050547Y-169108884D01*
X76325349Y-169222711D01*
X76617078Y-169280740D01*
X76914522Y-169280740D01*
X77206251Y-169222711D01*
X77481053Y-169108884D01*
X77728369Y-168943633D01*
X77938693Y-168733309D01*
X78015800Y-168617910D01*
X78092907Y-168733309D01*
X78303231Y-168943633D01*
X78550547Y-169108884D01*
X78825349Y-169222711D01*
X79117078Y-169280740D01*
X79414522Y-169280740D01*
X79706251Y-169222711D01*
X79981053Y-169108884D01*
X80228369Y-168943633D01*
X80438693Y-168733309D01*
X80515800Y-168617910D01*
X80592907Y-168733309D01*
X80803231Y-168943633D01*
X81050547Y-169108884D01*
X81325349Y-169222711D01*
X81617078Y-169280740D01*
X81914522Y-169280740D01*
X82206251Y-169222711D01*
X82481053Y-169108884D01*
X82728369Y-168943633D01*
X82796826Y-168875176D01*
X82801298Y-168889920D01*
X82860263Y-169000234D01*
X82939615Y-169096925D01*
X83036306Y-169176277D01*
X83146620Y-169235242D01*
X83266318Y-169271552D01*
X83390800Y-169283812D01*
X85140800Y-169283812D01*
X85265282Y-169271552D01*
X85267958Y-169270740D01*
X109702889Y-169270740D01*
X109734457Y-169591256D01*
X109827948Y-169899455D01*
X109979769Y-170183492D01*
X110184086Y-170432454D01*
X110246487Y-170483665D01*
X110283562Y-170520740D01*
X110246486Y-170557816D01*
X110184086Y-170609026D01*
X109979769Y-170857988D01*
X109827948Y-171142025D01*
X109734457Y-171450224D01*
X109702889Y-171770740D01*
X109734457Y-172091256D01*
X109827948Y-172399455D01*
X109979769Y-172683492D01*
X110184086Y-172932454D01*
X110433048Y-173136771D01*
X110717085Y-173288592D01*
X111025284Y-173382083D01*
X111265478Y-173405740D01*
X111265481Y-173405740D01*
X111345800Y-173413651D01*
X111426119Y-173405740D01*
X114115481Y-173405740D01*
X114195800Y-173413651D01*
X114276119Y-173405740D01*
X116195481Y-173405740D01*
X116275800Y-173413651D01*
X116356119Y-173405740D01*
X118495480Y-173405740D01*
X118575800Y-173413651D01*
X118656119Y-173405740D01*
X118656122Y-173405740D01*
X118896316Y-173382083D01*
X119204515Y-173288592D01*
X119488552Y-173136771D01*
X119737514Y-172932454D01*
X119941831Y-172683492D01*
X120093652Y-172399455D01*
X120187143Y-172091256D01*
X120218711Y-171770740D01*
X120187143Y-171450224D01*
X120093652Y-171142025D01*
X119941831Y-170857988D01*
X119737514Y-170609026D01*
X119675118Y-170557820D01*
X119638038Y-170520740D01*
X119675113Y-170483665D01*
X119737514Y-170432454D01*
X119941831Y-170183492D01*
X120093652Y-169899455D01*
X120187143Y-169591256D01*
X120218711Y-169270740D01*
X120187143Y-168950224D01*
X120093652Y-168642025D01*
X119941831Y-168357988D01*
X119737514Y-168109026D01*
X119488552Y-167904709D01*
X119425173Y-167870832D01*
X119442435Y-167816980D01*
X118575800Y-166950345D01*
X118561658Y-166964488D01*
X118382053Y-166784883D01*
X118396195Y-166770740D01*
X118382053Y-166756598D01*
X118561658Y-166576993D01*
X118575800Y-166591135D01*
X118589943Y-166576993D01*
X118769548Y-166756598D01*
X118755405Y-166770740D01*
X119622040Y-167637375D01*
X119873668Y-167556715D01*
X120002067Y-167288411D01*
X120075655Y-167000214D01*
X120091604Y-166703197D01*
X120049301Y-166408777D01*
X119950372Y-166128266D01*
X119873668Y-165984765D01*
X119622042Y-165904106D01*
X119738067Y-165788081D01*
X119687498Y-165737512D01*
X119694980Y-165735242D01*
X119805294Y-165676277D01*
X119901985Y-165596925D01*
X119981337Y-165500234D01*
X120040302Y-165389920D01*
X120076612Y-165270222D01*
X120088872Y-165145740D01*
X120085800Y-164556490D01*
X119927050Y-164397740D01*
X118702800Y-164397740D01*
X118702800Y-164417740D01*
X118448800Y-164417740D01*
X118448800Y-164397740D01*
X117224550Y-164397740D01*
X117065800Y-164556490D01*
X117062728Y-165145740D01*
X117074988Y-165270222D01*
X117111298Y-165389920D01*
X117170263Y-165500234D01*
X117249615Y-165596925D01*
X117346306Y-165676277D01*
X117456620Y-165735242D01*
X117464102Y-165737512D01*
X117413533Y-165788081D01*
X117529558Y-165904106D01*
X117277932Y-165984765D01*
X117149533Y-166253069D01*
X117075945Y-166541266D01*
X117059996Y-166838283D01*
X117102299Y-167132703D01*
X117201228Y-167413214D01*
X117277932Y-167556715D01*
X117524459Y-167635740D01*
X116156119Y-167635740D01*
X116075800Y-167627829D01*
X115995481Y-167635740D01*
X113926119Y-167635740D01*
X113845799Y-167627829D01*
X113765480Y-167635740D01*
X112397141Y-167635740D01*
X112643668Y-167556715D01*
X112772067Y-167288411D01*
X112845655Y-167000214D01*
X112861604Y-166703197D01*
X112819301Y-166408777D01*
X112720372Y-166128266D01*
X112643668Y-165984765D01*
X112392042Y-165904106D01*
X112508067Y-165788081D01*
X112457498Y-165737512D01*
X112464980Y-165735242D01*
X112575294Y-165676277D01*
X112671985Y-165596925D01*
X112751337Y-165500234D01*
X112810302Y-165389920D01*
X112846612Y-165270222D01*
X112858872Y-165145740D01*
X112855800Y-164556490D01*
X112697050Y-164397740D01*
X111472800Y-164397740D01*
X111472800Y-164417740D01*
X111218800Y-164417740D01*
X111218800Y-164397740D01*
X109994550Y-164397740D01*
X109835800Y-164556490D01*
X109832728Y-165145740D01*
X109844988Y-165270222D01*
X109881298Y-165389920D01*
X109940263Y-165500234D01*
X110019615Y-165596925D01*
X110116306Y-165676277D01*
X110226620Y-165735242D01*
X110234102Y-165737512D01*
X110183533Y-165788081D01*
X110299558Y-165904106D01*
X110047932Y-165984765D01*
X109919533Y-166253069D01*
X109845945Y-166541266D01*
X109829996Y-166838283D01*
X109872299Y-167132703D01*
X109971228Y-167413214D01*
X110047932Y-167556715D01*
X110299560Y-167637375D01*
X111166195Y-166770740D01*
X111152053Y-166756598D01*
X111331658Y-166576993D01*
X111345800Y-166591135D01*
X111359943Y-166576993D01*
X111539548Y-166756598D01*
X111525405Y-166770740D01*
X111539548Y-166784883D01*
X111359943Y-166964488D01*
X111345800Y-166950345D01*
X110479165Y-167816980D01*
X110496427Y-167870832D01*
X110433048Y-167904709D01*
X110184086Y-168109026D01*
X109979769Y-168357988D01*
X109827948Y-168642025D01*
X109734457Y-168950224D01*
X109702889Y-169270740D01*
X85267958Y-169270740D01*
X85384980Y-169235242D01*
X85495294Y-169176277D01*
X85591985Y-169096925D01*
X85671337Y-169000234D01*
X85730302Y-168889920D01*
X85766612Y-168770222D01*
X85778872Y-168645740D01*
X85778872Y-166895740D01*
X85766612Y-166771258D01*
X85730302Y-166651560D01*
X85671337Y-166541246D01*
X85591985Y-166444555D01*
X85495294Y-166365203D01*
X85384980Y-166306238D01*
X85265282Y-166269928D01*
X85140800Y-166257668D01*
X83390800Y-166257668D01*
X83266318Y-166269928D01*
X83146620Y-166306238D01*
X83036306Y-166365203D01*
X82939615Y-166444555D01*
X82860263Y-166541246D01*
X82801298Y-166651560D01*
X82796826Y-166666304D01*
X82728369Y-166597847D01*
X82481053Y-166432596D01*
X82206251Y-166318769D01*
X81914522Y-166260740D01*
X81617078Y-166260740D01*
X81325349Y-166318769D01*
X81050547Y-166432596D01*
X80803231Y-166597847D01*
X80592907Y-166808171D01*
X80515800Y-166923570D01*
X80438693Y-166808171D01*
X80228369Y-166597847D01*
X79981053Y-166432596D01*
X79706251Y-166318769D01*
X79414522Y-166260740D01*
X79117078Y-166260740D01*
X78825349Y-166318769D01*
X78550547Y-166432596D01*
X78303231Y-166597847D01*
X78092907Y-166808171D01*
X78015800Y-166923570D01*
X77938693Y-166808171D01*
X77728369Y-166597847D01*
X77481053Y-166432596D01*
X77206251Y-166318769D01*
X76914522Y-166260740D01*
X76617078Y-166260740D01*
X76325349Y-166318769D01*
X76050547Y-166432596D01*
X75803231Y-166597847D01*
X75592907Y-166808171D01*
X75427656Y-167055487D01*
X75313829Y-167330289D01*
X75255800Y-167622018D01*
X69783848Y-167622018D01*
X69322579Y-167064440D01*
X67864388Y-165057413D01*
X67280683Y-164137641D01*
X67851596Y-164374121D01*
X68523345Y-164507740D01*
X69208255Y-164507740D01*
X69880004Y-164374121D01*
X70512777Y-164112018D01*
X71082258Y-163731502D01*
X71418020Y-163395740D01*
X109832728Y-163395740D01*
X109835800Y-163984990D01*
X109994550Y-164143740D01*
X111218800Y-164143740D01*
X111218800Y-162919490D01*
X111472800Y-162919490D01*
X111472800Y-164143740D01*
X112697050Y-164143740D01*
X112855800Y-163984990D01*
X112858872Y-163395740D01*
X117062728Y-163395740D01*
X117065800Y-163984990D01*
X117224550Y-164143740D01*
X118448800Y-164143740D01*
X118448800Y-162919490D01*
X118702800Y-162919490D01*
X118702800Y-164143740D01*
X119927050Y-164143740D01*
X120085800Y-163984990D01*
X120088872Y-163395740D01*
X120076612Y-163271258D01*
X120040302Y-163151560D01*
X119981337Y-163041246D01*
X119901985Y-162944555D01*
X119805294Y-162865203D01*
X119694980Y-162806238D01*
X119575282Y-162769928D01*
X119450800Y-162757668D01*
X118861550Y-162760740D01*
X118702800Y-162919490D01*
X118448800Y-162919490D01*
X118290050Y-162760740D01*
X117700800Y-162757668D01*
X117576318Y-162769928D01*
X117456620Y-162806238D01*
X117346306Y-162865203D01*
X117249615Y-162944555D01*
X117170263Y-163041246D01*
X117111298Y-163151560D01*
X117074988Y-163271258D01*
X117062728Y-163395740D01*
X112858872Y-163395740D01*
X112846612Y-163271258D01*
X112810302Y-163151560D01*
X112751337Y-163041246D01*
X112671985Y-162944555D01*
X112575294Y-162865203D01*
X112464980Y-162806238D01*
X112345282Y-162769928D01*
X112220800Y-162757668D01*
X111631550Y-162760740D01*
X111472800Y-162919490D01*
X111218800Y-162919490D01*
X111060050Y-162760740D01*
X110470800Y-162757668D01*
X110346318Y-162769928D01*
X110226620Y-162806238D01*
X110116306Y-162865203D01*
X110019615Y-162944555D01*
X109940263Y-163041246D01*
X109881298Y-163151560D01*
X109844988Y-163271258D01*
X109832728Y-163395740D01*
X71418020Y-163395740D01*
X71566562Y-163247198D01*
X71947078Y-162677717D01*
X72209181Y-162044944D01*
X72342800Y-161373195D01*
X72342800Y-160688285D01*
X72209181Y-160016536D01*
X71947078Y-159383763D01*
X71587582Y-158845740D01*
X75252728Y-158845740D01*
X75252728Y-160595740D01*
X75264988Y-160720222D01*
X75301298Y-160839920D01*
X75360263Y-160950234D01*
X75439615Y-161046925D01*
X75536306Y-161126277D01*
X75646620Y-161185242D01*
X75766318Y-161221552D01*
X75890800Y-161233812D01*
X77640800Y-161233812D01*
X77765282Y-161221552D01*
X77884980Y-161185242D01*
X77995294Y-161126277D01*
X78091985Y-161046925D01*
X78171337Y-160950234D01*
X78230302Y-160839920D01*
X78234774Y-160825176D01*
X78303231Y-160893633D01*
X78550547Y-161058884D01*
X78825349Y-161172711D01*
X79117078Y-161230740D01*
X79414522Y-161230740D01*
X79706251Y-161172711D01*
X79981053Y-161058884D01*
X80228369Y-160893633D01*
X80438693Y-160683309D01*
X80515800Y-160567910D01*
X80592907Y-160683309D01*
X80803231Y-160893633D01*
X81050547Y-161058884D01*
X81325349Y-161172711D01*
X81617078Y-161230740D01*
X81914522Y-161230740D01*
X82206251Y-161172711D01*
X82481053Y-161058884D01*
X82728369Y-160893633D01*
X82938693Y-160683309D01*
X83015800Y-160567910D01*
X83092907Y-160683309D01*
X83303231Y-160893633D01*
X83550547Y-161058884D01*
X83825349Y-161172711D01*
X84117078Y-161230740D01*
X84414522Y-161230740D01*
X84706251Y-161172711D01*
X84981053Y-161058884D01*
X85228369Y-160893633D01*
X85438693Y-160683309D01*
X85603944Y-160435993D01*
X85717771Y-160161191D01*
X85775800Y-159869462D01*
X85775800Y-159572018D01*
X85717771Y-159280289D01*
X85603944Y-159005487D01*
X85438693Y-158758171D01*
X85228369Y-158547847D01*
X84981053Y-158382596D01*
X84706251Y-158268769D01*
X84414522Y-158210740D01*
X84117078Y-158210740D01*
X83825349Y-158268769D01*
X83550547Y-158382596D01*
X83303231Y-158547847D01*
X83092907Y-158758171D01*
X83015800Y-158873570D01*
X82938693Y-158758171D01*
X82728369Y-158547847D01*
X82481053Y-158382596D01*
X82206251Y-158268769D01*
X81914522Y-158210740D01*
X81617078Y-158210740D01*
X81325349Y-158268769D01*
X81050547Y-158382596D01*
X80803231Y-158547847D01*
X80592907Y-158758171D01*
X80515800Y-158873570D01*
X80438693Y-158758171D01*
X80228369Y-158547847D01*
X79981053Y-158382596D01*
X79706251Y-158268769D01*
X79414522Y-158210740D01*
X79117078Y-158210740D01*
X78825349Y-158268769D01*
X78550547Y-158382596D01*
X78303231Y-158547847D01*
X78234774Y-158616304D01*
X78230302Y-158601560D01*
X78171337Y-158491246D01*
X78091985Y-158394555D01*
X77995294Y-158315203D01*
X77884980Y-158256238D01*
X77765282Y-158219928D01*
X77640800Y-158207668D01*
X75890800Y-158207668D01*
X75766318Y-158219928D01*
X75646620Y-158256238D01*
X75536306Y-158315203D01*
X75439615Y-158394555D01*
X75360263Y-158491246D01*
X75301298Y-158601560D01*
X75264988Y-158721258D01*
X75252728Y-158845740D01*
X71587582Y-158845740D01*
X71566562Y-158814282D01*
X71082258Y-158329978D01*
X70512777Y-157949462D01*
X69880004Y-157687359D01*
X69208255Y-157553740D01*
X68523345Y-157553740D01*
X67851596Y-157687359D01*
X67218823Y-157949462D01*
X66649342Y-158329978D01*
X66165038Y-158814282D01*
X65784522Y-159383763D01*
X65522419Y-160016536D01*
X65388800Y-160688285D01*
X65388800Y-160877679D01*
X65339952Y-160788825D01*
X64283670Y-158544110D01*
X63728559Y-157142060D01*
X63958208Y-157187740D01*
X64233392Y-157187740D01*
X64503290Y-157134054D01*
X64757527Y-157028745D01*
X64986335Y-156875860D01*
X65180920Y-156681275D01*
X65333805Y-156452467D01*
X65409194Y-156270461D01*
X92660800Y-156270461D01*
X92660800Y-156691019D01*
X92742847Y-157103496D01*
X92903788Y-157492042D01*
X93137437Y-157841723D01*
X93434817Y-158139103D01*
X93784498Y-158372752D01*
X94173044Y-158533693D01*
X94585521Y-158615740D01*
X95006079Y-158615740D01*
X95418556Y-158533693D01*
X95807102Y-158372752D01*
X96156783Y-158139103D01*
X96454163Y-157841723D01*
X96687812Y-157492042D01*
X96848753Y-157103496D01*
X96930800Y-156691019D01*
X96930800Y-156270461D01*
X96848753Y-155857984D01*
X96687812Y-155469438D01*
X96454163Y-155119757D01*
X96156783Y-154822377D01*
X95807102Y-154588728D01*
X95418556Y-154427787D01*
X95006079Y-154345740D01*
X94585521Y-154345740D01*
X94173044Y-154427787D01*
X93784498Y-154588728D01*
X93434817Y-154822377D01*
X93137437Y-155119757D01*
X92903788Y-155469438D01*
X92742847Y-155857984D01*
X92660800Y-156270461D01*
X65409194Y-156270461D01*
X65439114Y-156198230D01*
X65492800Y-155928332D01*
X65492800Y-155653148D01*
X65439114Y-155383250D01*
X65333805Y-155129013D01*
X65180920Y-154900205D01*
X64986335Y-154705620D01*
X64757527Y-154552735D01*
X64503290Y-154447426D01*
X64233392Y-154393740D01*
X63958208Y-154393740D01*
X63688310Y-154447426D01*
X63434073Y-154552735D01*
X63205265Y-154705620D01*
X63010680Y-154900205D01*
X62960369Y-154975500D01*
X62747290Y-154319707D01*
X89160800Y-154319707D01*
X89160800Y-154641773D01*
X89223632Y-154957652D01*
X89346882Y-155255203D01*
X89525813Y-155522992D01*
X89753548Y-155750727D01*
X90021337Y-155929658D01*
X90318888Y-156052908D01*
X90634767Y-156115740D01*
X90956833Y-156115740D01*
X91272712Y-156052908D01*
X91570263Y-155929658D01*
X91838052Y-155750727D01*
X92065787Y-155522992D01*
X92244718Y-155255203D01*
X92367968Y-154957652D01*
X92430800Y-154641773D01*
X92430800Y-154319707D01*
X97160800Y-154319707D01*
X97160800Y-154641773D01*
X97223632Y-154957652D01*
X97346882Y-155255203D01*
X97525813Y-155522992D01*
X97753548Y-155750727D01*
X98021337Y-155929658D01*
X98318888Y-156052908D01*
X98634767Y-156115740D01*
X98956833Y-156115740D01*
X99272712Y-156052908D01*
X99570263Y-155929658D01*
X99838052Y-155750727D01*
X100065787Y-155522992D01*
X100244718Y-155255203D01*
X100273450Y-155185838D01*
X107920800Y-155185838D01*
X107920800Y-155655642D01*
X108012454Y-156116419D01*
X108192240Y-156550461D01*
X108453250Y-156941089D01*
X108785451Y-157273290D01*
X109176079Y-157534300D01*
X109610121Y-157714086D01*
X110070898Y-157805740D01*
X110540702Y-157805740D01*
X111001479Y-157714086D01*
X111435521Y-157534300D01*
X111826149Y-157273290D01*
X112158350Y-156941089D01*
X112419360Y-156550461D01*
X112535339Y-156270461D01*
X123660800Y-156270461D01*
X123660800Y-156691019D01*
X123742847Y-157103496D01*
X123903788Y-157492042D01*
X124137437Y-157841723D01*
X124434817Y-158139103D01*
X124784498Y-158372752D01*
X125173044Y-158533693D01*
X125585521Y-158615740D01*
X126006079Y-158615740D01*
X126418556Y-158533693D01*
X126807102Y-158372752D01*
X127156783Y-158139103D01*
X127454163Y-157841723D01*
X127687812Y-157492042D01*
X127848753Y-157103496D01*
X127930800Y-156691019D01*
X127930800Y-156270461D01*
X127848753Y-155857984D01*
X127687812Y-155469438D01*
X127454163Y-155119757D01*
X127156783Y-154822377D01*
X126807102Y-154588728D01*
X126418556Y-154427787D01*
X126006079Y-154345740D01*
X125585521Y-154345740D01*
X125173044Y-154427787D01*
X124784498Y-154588728D01*
X124434817Y-154822377D01*
X124137437Y-155119757D01*
X123903788Y-155469438D01*
X123742847Y-155857984D01*
X123660800Y-156270461D01*
X112535339Y-156270461D01*
X112599146Y-156116419D01*
X112690800Y-155655642D01*
X112690800Y-155185838D01*
X112599146Y-154725061D01*
X112431243Y-154319707D01*
X120160800Y-154319707D01*
X120160800Y-154641773D01*
X120223632Y-154957652D01*
X120346882Y-155255203D01*
X120525813Y-155522992D01*
X120753548Y-155750727D01*
X121021337Y-155929658D01*
X121318888Y-156052908D01*
X121634767Y-156115740D01*
X121956833Y-156115740D01*
X122272712Y-156052908D01*
X122570263Y-155929658D01*
X122838052Y-155750727D01*
X123065787Y-155522992D01*
X123244718Y-155255203D01*
X123367968Y-154957652D01*
X123430800Y-154641773D01*
X123430800Y-154319707D01*
X128160800Y-154319707D01*
X128160800Y-154641773D01*
X128223632Y-154957652D01*
X128346882Y-155255203D01*
X128525813Y-155522992D01*
X128753548Y-155750727D01*
X129021337Y-155929658D01*
X129318888Y-156052908D01*
X129634767Y-156115740D01*
X129956833Y-156115740D01*
X130272712Y-156052908D01*
X130570263Y-155929658D01*
X130838052Y-155750727D01*
X131065787Y-155522992D01*
X131244718Y-155255203D01*
X131367968Y-154957652D01*
X131430800Y-154641773D01*
X131430800Y-154319707D01*
X131367968Y-154003828D01*
X131244718Y-153706277D01*
X131065787Y-153438488D01*
X130838052Y-153210753D01*
X130570263Y-153031822D01*
X130272712Y-152908572D01*
X129956833Y-152845740D01*
X129634767Y-152845740D01*
X129318888Y-152908572D01*
X129021337Y-153031822D01*
X128753548Y-153210753D01*
X128525813Y-153438488D01*
X128346882Y-153706277D01*
X128223632Y-154003828D01*
X128160800Y-154319707D01*
X123430800Y-154319707D01*
X123367968Y-154003828D01*
X123244718Y-153706277D01*
X123065787Y-153438488D01*
X122838052Y-153210753D01*
X122570263Y-153031822D01*
X122272712Y-152908572D01*
X121956833Y-152845740D01*
X121634767Y-152845740D01*
X121318888Y-152908572D01*
X121021337Y-153031822D01*
X120753548Y-153210753D01*
X120525813Y-153438488D01*
X120346882Y-153706277D01*
X120223632Y-154003828D01*
X120160800Y-154319707D01*
X112431243Y-154319707D01*
X112419360Y-154291019D01*
X112158350Y-153900391D01*
X111826149Y-153568190D01*
X111435521Y-153307180D01*
X111001479Y-153127394D01*
X110540702Y-153035740D01*
X110070898Y-153035740D01*
X109610121Y-153127394D01*
X109176079Y-153307180D01*
X108785451Y-153568190D01*
X108453250Y-153900391D01*
X108192240Y-154291019D01*
X108012454Y-154725061D01*
X107920800Y-155185838D01*
X100273450Y-155185838D01*
X100367968Y-154957652D01*
X100430800Y-154641773D01*
X100430800Y-154319707D01*
X100367968Y-154003828D01*
X100244718Y-153706277D01*
X100065787Y-153438488D01*
X99838052Y-153210753D01*
X99570263Y-153031822D01*
X99272712Y-152908572D01*
X98956833Y-152845740D01*
X98634767Y-152845740D01*
X98318888Y-152908572D01*
X98021337Y-153031822D01*
X97753548Y-153210753D01*
X97525813Y-153438488D01*
X97346882Y-153706277D01*
X97223632Y-154003828D01*
X97160800Y-154319707D01*
X92430800Y-154319707D01*
X92367968Y-154003828D01*
X92244718Y-153706277D01*
X92065787Y-153438488D01*
X91838052Y-153210753D01*
X91570263Y-153031822D01*
X91272712Y-152908572D01*
X90956833Y-152845740D01*
X90634767Y-152845740D01*
X90318888Y-152908572D01*
X90021337Y-153031822D01*
X89753548Y-153210753D01*
X89525813Y-153438488D01*
X89346882Y-153706277D01*
X89223632Y-154003828D01*
X89160800Y-154319707D01*
X62747290Y-154319707D01*
X62603802Y-153878099D01*
X61986847Y-151475217D01*
X61521987Y-149038337D01*
X61297180Y-147258801D01*
X86770800Y-147258801D01*
X86770800Y-147462679D01*
X86810574Y-147662638D01*
X86888595Y-147850996D01*
X86968737Y-147970938D01*
X86935574Y-148051000D01*
X86895800Y-148250959D01*
X86895800Y-148454837D01*
X86935574Y-148654796D01*
X87013595Y-148843154D01*
X87126863Y-149012672D01*
X87271026Y-149156835D01*
X87440544Y-149270103D01*
X87628902Y-149348124D01*
X87828861Y-149387898D01*
X88032739Y-149387898D01*
X88232698Y-149348124D01*
X88421056Y-149270103D01*
X88590574Y-149156835D01*
X88734737Y-149012672D01*
X88848005Y-148843154D01*
X88863502Y-148805740D01*
X98562089Y-148805740D01*
X98606026Y-148849677D01*
X98775544Y-148962945D01*
X98963902Y-149040966D01*
X99163861Y-149080740D01*
X99367739Y-149080740D01*
X99567698Y-149040966D01*
X99756056Y-148962945D01*
X99925574Y-148849677D01*
X100069737Y-148705514D01*
X100183005Y-148535996D01*
X100261026Y-148347638D01*
X100300800Y-148147679D01*
X100300800Y-147943801D01*
X100261026Y-147743842D01*
X100183005Y-147555484D01*
X100069737Y-147385966D01*
X99925574Y-147241803D01*
X99756056Y-147128535D01*
X99567698Y-147050514D01*
X99367739Y-147010740D01*
X99347670Y-147010740D01*
X99273005Y-146830484D01*
X99175064Y-146683905D01*
X99735510Y-146916049D01*
X100437784Y-147055740D01*
X101153816Y-147055740D01*
X101856090Y-146916049D01*
X102517618Y-146642035D01*
X103112977Y-146244229D01*
X103619289Y-145737917D01*
X104017095Y-145142558D01*
X104291109Y-144481030D01*
X104430800Y-143778756D01*
X104430800Y-143062724D01*
X104292771Y-142368801D01*
X115000800Y-142368801D01*
X115000800Y-142572679D01*
X115040574Y-142772638D01*
X115118595Y-142960996D01*
X115231863Y-143130514D01*
X115376026Y-143274677D01*
X115545544Y-143387945D01*
X115733902Y-143465966D01*
X115933861Y-143505740D01*
X115980800Y-143505740D01*
X115980800Y-143542679D01*
X116020574Y-143742638D01*
X116098595Y-143930996D01*
X116211863Y-144100514D01*
X116356026Y-144244677D01*
X116525544Y-144357945D01*
X116713902Y-144435966D01*
X116913861Y-144475740D01*
X116975998Y-144475740D01*
X117412000Y-144911742D01*
X117435799Y-144940741D01*
X117464797Y-144964539D01*
X117551523Y-145035714D01*
X117639962Y-145082986D01*
X117683553Y-145106286D01*
X117826814Y-145149743D01*
X117832634Y-145150316D01*
X117835263Y-145155234D01*
X117914615Y-145251925D01*
X118011306Y-145331277D01*
X118055800Y-145355060D01*
X118055801Y-145952801D01*
X118051306Y-145955203D01*
X117954615Y-146034555D01*
X117875263Y-146131246D01*
X117816298Y-146241560D01*
X117779988Y-146361258D01*
X117767728Y-146485740D01*
X117767728Y-147235740D01*
X117779988Y-147360222D01*
X117816298Y-147479920D01*
X117875263Y-147590234D01*
X117954615Y-147686925D01*
X118051306Y-147766277D01*
X118161620Y-147825242D01*
X118281318Y-147861552D01*
X118405800Y-147873812D01*
X119205800Y-147873812D01*
X119330282Y-147861552D01*
X119449980Y-147825242D01*
X119555800Y-147768679D01*
X119661620Y-147825242D01*
X119781318Y-147861552D01*
X119905800Y-147873812D01*
X120020050Y-147870740D01*
X120178800Y-147711990D01*
X120178800Y-146987740D01*
X120432800Y-146987740D01*
X120432800Y-147711990D01*
X120591550Y-147870740D01*
X120705800Y-147873812D01*
X120830282Y-147861552D01*
X120949980Y-147825242D01*
X121060294Y-147766277D01*
X121156985Y-147686925D01*
X121236337Y-147590234D01*
X121295302Y-147479920D01*
X121331612Y-147360222D01*
X121343872Y-147235740D01*
X121340800Y-147146490D01*
X121182050Y-146987740D01*
X120432800Y-146987740D01*
X120178800Y-146987740D01*
X120158800Y-146987740D01*
X120158800Y-146733740D01*
X120178800Y-146733740D01*
X120178800Y-146713740D01*
X120432800Y-146713740D01*
X120432800Y-146733740D01*
X121182050Y-146733740D01*
X121340800Y-146574990D01*
X121343872Y-146485740D01*
X121331612Y-146361258D01*
X121295302Y-146241560D01*
X121275655Y-146204804D01*
X121395574Y-146124677D01*
X121539737Y-145980514D01*
X121653005Y-145810996D01*
X121731026Y-145622638D01*
X121770800Y-145422679D01*
X121770800Y-145218801D01*
X121731026Y-145018842D01*
X121653005Y-144830484D01*
X121539737Y-144660966D01*
X121395574Y-144516803D01*
X121342393Y-144481269D01*
X121390282Y-144476552D01*
X121509980Y-144440242D01*
X121620294Y-144381277D01*
X121716985Y-144301925D01*
X121796337Y-144205234D01*
X121855302Y-144094920D01*
X121891612Y-143975222D01*
X121903872Y-143850740D01*
X121900800Y-143736490D01*
X121742050Y-143577740D01*
X120942800Y-143577740D01*
X120942800Y-143597740D01*
X120688800Y-143597740D01*
X120688800Y-143577740D01*
X119889550Y-143577740D01*
X119828933Y-143638357D01*
X119815800Y-143637064D01*
X119790821Y-143639524D01*
X119716985Y-143549555D01*
X119620294Y-143470203D01*
X119583882Y-143450740D01*
X119620294Y-143431277D01*
X119716985Y-143351925D01*
X119796337Y-143255234D01*
X119804943Y-143239133D01*
X119889550Y-143323740D01*
X120688800Y-143323740D01*
X120688800Y-142574490D01*
X120942800Y-142574490D01*
X120942800Y-143323740D01*
X121742050Y-143323740D01*
X121900800Y-143164990D01*
X121903872Y-143050740D01*
X121891612Y-142926258D01*
X121855302Y-142806560D01*
X121796337Y-142696246D01*
X121716985Y-142599555D01*
X121620294Y-142520203D01*
X121509980Y-142461238D01*
X121390282Y-142424928D01*
X121265800Y-142412668D01*
X121101550Y-142415740D01*
X120942800Y-142574490D01*
X120688800Y-142574490D01*
X120530050Y-142415740D01*
X120365800Y-142412668D01*
X120241318Y-142424928D01*
X120121620Y-142461238D01*
X120011306Y-142520203D01*
X119914615Y-142599555D01*
X119903872Y-142612645D01*
X119903872Y-142100740D01*
X119891612Y-141976258D01*
X119855302Y-141856560D01*
X119796337Y-141746246D01*
X119732780Y-141668801D01*
X129340800Y-141668801D01*
X129340800Y-141872679D01*
X129380574Y-142072638D01*
X129458595Y-142260996D01*
X129571863Y-142430514D01*
X129716026Y-142574677D01*
X129885544Y-142687945D01*
X130073902Y-142765966D01*
X130273861Y-142805740D01*
X130335998Y-142805740D01*
X130502001Y-142971742D01*
X130525799Y-143000741D01*
X130641524Y-143095714D01*
X130773553Y-143166286D01*
X130916814Y-143209743D01*
X131028467Y-143220740D01*
X131028476Y-143220740D01*
X131065799Y-143224416D01*
X131103122Y-143220740D01*
X131659782Y-143220740D01*
X131734615Y-143311925D01*
X131831306Y-143391277D01*
X131867718Y-143410740D01*
X131831306Y-143430203D01*
X131734615Y-143509555D01*
X131659782Y-143600740D01*
X131571534Y-143600740D01*
X131426056Y-143503535D01*
X131237698Y-143425514D01*
X131037739Y-143385740D01*
X130833861Y-143385740D01*
X130633902Y-143425514D01*
X130445544Y-143503535D01*
X130276026Y-143616803D01*
X130131863Y-143760966D01*
X130018595Y-143930484D01*
X129940574Y-144118842D01*
X129900800Y-144318801D01*
X129900800Y-144522679D01*
X129940574Y-144722638D01*
X130018595Y-144910996D01*
X130131863Y-145080514D01*
X130276026Y-145224677D01*
X130445544Y-145337945D01*
X130633902Y-145415966D01*
X130833861Y-145455740D01*
X131037739Y-145455740D01*
X131237698Y-145415966D01*
X131426056Y-145337945D01*
X131595574Y-145224677D01*
X131677690Y-145142561D01*
X131734615Y-145211925D01*
X131831306Y-145291277D01*
X131875800Y-145315060D01*
X131875801Y-146205073D01*
X131856298Y-146241560D01*
X131819988Y-146361258D01*
X131807728Y-146485740D01*
X131807728Y-147235740D01*
X131819988Y-147360222D01*
X131856298Y-147479920D01*
X131915263Y-147590234D01*
X131994615Y-147686925D01*
X132091306Y-147766277D01*
X132201620Y-147825242D01*
X132321318Y-147861552D01*
X132445800Y-147873812D01*
X133245800Y-147873812D01*
X133370282Y-147861552D01*
X133489980Y-147825242D01*
X133595800Y-147768679D01*
X133701620Y-147825242D01*
X133821318Y-147861552D01*
X133945800Y-147873812D01*
X134060050Y-147870740D01*
X134218800Y-147711990D01*
X134218800Y-146987740D01*
X134472800Y-146987740D01*
X134472800Y-147711990D01*
X134631550Y-147870740D01*
X134745800Y-147873812D01*
X134870282Y-147861552D01*
X134989980Y-147825242D01*
X135100294Y-147766277D01*
X135196985Y-147686925D01*
X135276337Y-147590234D01*
X135335302Y-147479920D01*
X135371612Y-147360222D01*
X135383872Y-147235740D01*
X135380800Y-147146490D01*
X135222050Y-146987740D01*
X134472800Y-146987740D01*
X134218800Y-146987740D01*
X134198800Y-146987740D01*
X134198800Y-146733740D01*
X134218800Y-146733740D01*
X134218800Y-146009490D01*
X134472800Y-146009490D01*
X134472800Y-146733740D01*
X135222050Y-146733740D01*
X135380800Y-146574990D01*
X135383872Y-146485740D01*
X135371612Y-146361258D01*
X135335302Y-146241560D01*
X135276337Y-146131246D01*
X135196985Y-146034555D01*
X135100294Y-145955203D01*
X134989980Y-145896238D01*
X134870282Y-145859928D01*
X134745800Y-145847668D01*
X134631550Y-145850740D01*
X134472800Y-146009490D01*
X134218800Y-146009490D01*
X134060050Y-145850740D01*
X133945800Y-145847668D01*
X133821318Y-145859928D01*
X133701620Y-145896238D01*
X133595800Y-145952801D01*
X133489980Y-145896238D01*
X133395800Y-145867669D01*
X133395800Y-145315060D01*
X133440294Y-145291277D01*
X133536985Y-145211925D01*
X133616337Y-145115234D01*
X133675302Y-145004920D01*
X133711612Y-144885222D01*
X133723872Y-144760740D01*
X133723872Y-144248835D01*
X133734615Y-144261925D01*
X133831306Y-144341277D01*
X133941620Y-144400242D01*
X134061318Y-144436552D01*
X134185800Y-144448812D01*
X134350050Y-144445740D01*
X134508800Y-144286990D01*
X134508800Y-143537740D01*
X134762800Y-143537740D01*
X134762800Y-144286990D01*
X134921550Y-144445740D01*
X135085800Y-144448812D01*
X135210282Y-144436552D01*
X135329980Y-144400242D01*
X135440294Y-144341277D01*
X135536985Y-144261925D01*
X135616337Y-144165234D01*
X135675302Y-144054920D01*
X135711612Y-143935222D01*
X135723872Y-143810740D01*
X135720800Y-143696490D01*
X135562050Y-143537740D01*
X134762800Y-143537740D01*
X134508800Y-143537740D01*
X133709550Y-143537740D01*
X133624943Y-143622347D01*
X133616337Y-143606246D01*
X133536985Y-143509555D01*
X133440294Y-143430203D01*
X133403882Y-143410740D01*
X133440294Y-143391277D01*
X133536985Y-143311925D01*
X133616337Y-143215234D01*
X133624943Y-143199133D01*
X133709550Y-143283740D01*
X134508800Y-143283740D01*
X134508800Y-142534490D01*
X134762800Y-142534490D01*
X134762800Y-143283740D01*
X135562050Y-143283740D01*
X135720800Y-143124990D01*
X135723872Y-143010740D01*
X135711612Y-142886258D01*
X135675302Y-142766560D01*
X135616337Y-142656246D01*
X135536985Y-142559555D01*
X135440294Y-142480203D01*
X135329980Y-142421238D01*
X135210282Y-142384928D01*
X135085800Y-142372668D01*
X134921550Y-142375740D01*
X134762800Y-142534490D01*
X134508800Y-142534490D01*
X134350050Y-142375740D01*
X134185800Y-142372668D01*
X134061318Y-142384928D01*
X133941620Y-142421238D01*
X133831306Y-142480203D01*
X133734615Y-142559555D01*
X133723872Y-142572645D01*
X133723872Y-142060740D01*
X133711612Y-141936258D01*
X133675302Y-141816560D01*
X133616337Y-141706246D01*
X133536985Y-141609555D01*
X133440294Y-141530203D01*
X133329980Y-141471238D01*
X133210282Y-141434928D01*
X133085800Y-141422668D01*
X132185800Y-141422668D01*
X132061318Y-141434928D01*
X131941620Y-141471238D01*
X131831306Y-141530203D01*
X131734615Y-141609555D01*
X131659782Y-141700740D01*
X131410800Y-141700740D01*
X131410800Y-141668801D01*
X131371026Y-141468842D01*
X131293005Y-141280484D01*
X131179737Y-141110966D01*
X131035574Y-140966803D01*
X130866056Y-140853535D01*
X130677698Y-140775514D01*
X130477739Y-140735740D01*
X130273861Y-140735740D01*
X130073902Y-140775514D01*
X129885544Y-140853535D01*
X129716026Y-140966803D01*
X129571863Y-141110966D01*
X129458595Y-141280484D01*
X129380574Y-141468842D01*
X129340800Y-141668801D01*
X119732780Y-141668801D01*
X119716985Y-141649555D01*
X119620294Y-141570203D01*
X119509980Y-141511238D01*
X119390282Y-141474928D01*
X119265800Y-141462668D01*
X118365800Y-141462668D01*
X118241318Y-141474928D01*
X118121620Y-141511238D01*
X118011306Y-141570203D01*
X117914615Y-141649555D01*
X117839782Y-141740740D01*
X116769511Y-141740740D01*
X116695574Y-141666803D01*
X116526056Y-141553535D01*
X116337698Y-141475514D01*
X116137739Y-141435740D01*
X115933861Y-141435740D01*
X115733902Y-141475514D01*
X115545544Y-141553535D01*
X115376026Y-141666803D01*
X115231863Y-141810966D01*
X115118595Y-141980484D01*
X115040574Y-142168842D01*
X115000800Y-142368801D01*
X104292771Y-142368801D01*
X104291109Y-142360450D01*
X104017095Y-141698922D01*
X103619289Y-141103563D01*
X103112977Y-140597251D01*
X102517618Y-140199445D01*
X101856090Y-139925431D01*
X101153816Y-139785740D01*
X100437784Y-139785740D01*
X99735510Y-139925431D01*
X99073982Y-140199445D01*
X98478623Y-140597251D01*
X97972311Y-141103563D01*
X97574505Y-141698922D01*
X97300491Y-142360450D01*
X97160800Y-143062724D01*
X97160800Y-143778756D01*
X97300491Y-144481030D01*
X97574505Y-145142558D01*
X97972311Y-145737917D01*
X98478623Y-146244229D01*
X98575934Y-146309250D01*
X98457739Y-146285740D01*
X98253861Y-146285740D01*
X98053902Y-146325514D01*
X97865544Y-146403535D01*
X97696026Y-146516803D01*
X97652089Y-146560740D01*
X88469511Y-146560740D01*
X88465574Y-146556803D01*
X88296056Y-146443535D01*
X88107698Y-146365514D01*
X87907739Y-146325740D01*
X87703861Y-146325740D01*
X87503902Y-146365514D01*
X87315544Y-146443535D01*
X87146026Y-146556803D01*
X87001863Y-146700966D01*
X86888595Y-146870484D01*
X86810574Y-147058842D01*
X86770800Y-147258801D01*
X61297180Y-147258801D01*
X61211058Y-146577077D01*
X61055286Y-144101151D01*
X61055286Y-141620329D01*
X61211058Y-139144403D01*
X61521987Y-136683143D01*
X61986847Y-134246263D01*
X62001600Y-134188801D01*
X62770800Y-134188801D01*
X62770800Y-134392679D01*
X62810574Y-134592638D01*
X62888595Y-134780996D01*
X63001863Y-134950514D01*
X63045801Y-134994452D01*
X63045800Y-144087029D01*
X63001863Y-144130966D01*
X62888595Y-144300484D01*
X62810574Y-144488842D01*
X62770800Y-144688801D01*
X62770800Y-144892679D01*
X62810574Y-145092638D01*
X62888595Y-145280996D01*
X63001863Y-145450514D01*
X63146026Y-145594677D01*
X63315544Y-145707945D01*
X63503902Y-145785966D01*
X63703861Y-145825740D01*
X63907739Y-145825740D01*
X64107698Y-145785966D01*
X64296056Y-145707945D01*
X64465574Y-145594677D01*
X64609737Y-145450514D01*
X64723005Y-145280996D01*
X64801026Y-145092638D01*
X64826646Y-144963838D01*
X64838595Y-144992686D01*
X64951863Y-145162204D01*
X65096026Y-145306367D01*
X65265544Y-145419635D01*
X65453902Y-145497656D01*
X65653861Y-145537430D01*
X65857739Y-145537430D01*
X66057698Y-145497656D01*
X66246056Y-145419635D01*
X66415574Y-145306367D01*
X66559737Y-145162204D01*
X66673005Y-144992686D01*
X66713162Y-144895740D01*
X66857739Y-144895740D01*
X67057698Y-144855966D01*
X67246056Y-144777945D01*
X67415574Y-144664677D01*
X67559737Y-144520514D01*
X67673005Y-144350996D01*
X67751026Y-144162638D01*
X67790800Y-143962679D01*
X67790800Y-143758801D01*
X67751026Y-143558842D01*
X67673005Y-143370484D01*
X67559737Y-143200966D01*
X67515800Y-143157029D01*
X67515800Y-142831964D01*
X67519476Y-142794641D01*
X67515800Y-142757318D01*
X67515800Y-142757309D01*
X67504803Y-142645656D01*
X67461346Y-142502395D01*
X67390774Y-142370366D01*
X67295801Y-142254641D01*
X67266804Y-142230844D01*
X66532941Y-141496982D01*
X66506949Y-141470990D01*
X66506949Y-134405541D01*
X66532936Y-134379554D01*
X66561940Y-134355751D01*
X66656913Y-134240026D01*
X66727485Y-134107997D01*
X66770942Y-133964736D01*
X66781939Y-133853083D01*
X66785616Y-133815750D01*
X66781939Y-133778417D01*
X66781939Y-133198831D01*
X66825876Y-133154894D01*
X66939144Y-132985376D01*
X67017165Y-132797018D01*
X67056939Y-132597059D01*
X67056939Y-132393181D01*
X67017165Y-132193222D01*
X66939144Y-132004864D01*
X66825876Y-131835346D01*
X66681713Y-131691183D01*
X66512195Y-131577915D01*
X66323837Y-131499894D01*
X66123878Y-131460120D01*
X65920000Y-131460120D01*
X65720041Y-131499894D01*
X65531683Y-131577915D01*
X65362165Y-131691183D01*
X65218002Y-131835346D01*
X65104734Y-132004864D01*
X65026713Y-132193222D01*
X65012810Y-132263119D01*
X64995041Y-132266653D01*
X64806683Y-132344674D01*
X64637165Y-132457942D01*
X64493002Y-132602105D01*
X64379734Y-132771623D01*
X64301713Y-132959981D01*
X64261939Y-133159940D01*
X64261939Y-133359403D01*
X64107698Y-133295514D01*
X63907739Y-133255740D01*
X63703861Y-133255740D01*
X63503902Y-133295514D01*
X63315544Y-133373535D01*
X63146026Y-133486803D01*
X63001863Y-133630966D01*
X62888595Y-133800484D01*
X62810574Y-133988842D01*
X62770800Y-134188801D01*
X62001600Y-134188801D01*
X62603802Y-131843381D01*
X63370418Y-129483980D01*
X64283670Y-127177370D01*
X65339952Y-124932655D01*
X65388800Y-124843801D01*
X65388800Y-125093195D01*
X65522419Y-125764944D01*
X65784522Y-126397717D01*
X66165038Y-126967198D01*
X66649342Y-127451502D01*
X67218823Y-127832018D01*
X67851596Y-128094121D01*
X68523345Y-128227740D01*
X69208255Y-128227740D01*
X69880004Y-128094121D01*
X70512777Y-127832018D01*
X71082258Y-127451502D01*
X71566562Y-126967198D01*
X71719641Y-126738100D01*
X71861040Y-126879499D01*
X72030558Y-126992767D01*
X72218916Y-127070788D01*
X72321075Y-127091109D01*
X72369715Y-127208535D01*
X72482983Y-127378053D01*
X72528198Y-127423268D01*
X72495800Y-127586148D01*
X72495800Y-127790026D01*
X72535574Y-127989985D01*
X72613595Y-128178343D01*
X72726863Y-128347861D01*
X72871026Y-128492024D01*
X73040544Y-128605292D01*
X73228902Y-128683313D01*
X73385212Y-128714405D01*
X73385213Y-133777626D01*
X73331863Y-133830976D01*
X73218595Y-134000494D01*
X73140574Y-134188852D01*
X73100800Y-134388811D01*
X73100800Y-134592689D01*
X73140574Y-134792648D01*
X73218595Y-134981006D01*
X73331863Y-135150524D01*
X73476026Y-135294687D01*
X73645544Y-135407955D01*
X73833902Y-135485976D01*
X74015302Y-135522058D01*
X73997945Y-135536303D01*
X73949893Y-135575738D01*
X73926095Y-135604737D01*
X73760578Y-135770253D01*
X73698441Y-135770253D01*
X73498482Y-135810027D01*
X73310124Y-135888048D01*
X73140606Y-136001316D01*
X72996443Y-136145479D01*
X72883175Y-136314997D01*
X72805154Y-136503355D01*
X72765380Y-136703314D01*
X72765380Y-136907192D01*
X72805154Y-137107151D01*
X72883175Y-137295509D01*
X72996443Y-137465027D01*
X73140606Y-137609190D01*
X73310124Y-137722458D01*
X73498482Y-137800479D01*
X73698441Y-137840253D01*
X73902319Y-137840253D01*
X74003480Y-137820131D01*
X74003481Y-143451132D01*
X74002042Y-143465740D01*
X73923861Y-143465740D01*
X73723902Y-143505514D01*
X73535544Y-143583535D01*
X73366026Y-143696803D01*
X73221863Y-143840966D01*
X73108595Y-144010484D01*
X73030574Y-144198842D01*
X72990800Y-144398801D01*
X72990800Y-144602679D01*
X73030574Y-144802638D01*
X73108595Y-144990996D01*
X73221863Y-145160514D01*
X73366026Y-145304677D01*
X73535544Y-145417945D01*
X73723902Y-145495966D01*
X73923861Y-145535740D01*
X74035283Y-145535740D01*
X74035283Y-145567679D01*
X74075057Y-145767638D01*
X74153078Y-145955996D01*
X74266346Y-146125514D01*
X74410509Y-146269677D01*
X74580027Y-146382945D01*
X74768385Y-146460966D01*
X74968344Y-146500740D01*
X75172222Y-146500740D01*
X75372181Y-146460966D01*
X75560539Y-146382945D01*
X75730057Y-146269677D01*
X75773994Y-146225740D01*
X80142089Y-146225740D01*
X80186026Y-146269677D01*
X80355544Y-146382945D01*
X80543902Y-146460966D01*
X80743861Y-146500740D01*
X80947739Y-146500740D01*
X81147698Y-146460966D01*
X81336056Y-146382945D01*
X81505574Y-146269677D01*
X81649737Y-146125514D01*
X81763005Y-145955996D01*
X81841026Y-145767638D01*
X81880800Y-145567679D01*
X81880800Y-145363801D01*
X81841026Y-145163842D01*
X81763005Y-144975484D01*
X81649737Y-144805966D01*
X81505574Y-144661803D01*
X81336056Y-144548535D01*
X81147698Y-144470514D01*
X81053603Y-144451797D01*
X81051026Y-144438842D01*
X80973005Y-144250484D01*
X80859737Y-144080966D01*
X80715574Y-143936803D01*
X80546056Y-143823535D01*
X80357698Y-143745514D01*
X80157739Y-143705740D01*
X79953861Y-143705740D01*
X79753902Y-143745514D01*
X79565544Y-143823535D01*
X79396026Y-143936803D01*
X79352089Y-143980740D01*
X78071661Y-143980740D01*
X78081202Y-143932776D01*
X78081202Y-143728898D01*
X78041428Y-143528939D01*
X77963407Y-143340581D01*
X77929956Y-143290518D01*
X77934803Y-143274540D01*
X77945800Y-143162887D01*
X77945800Y-143162877D01*
X77949476Y-143125555D01*
X77945800Y-143088232D01*
X77945800Y-139158802D01*
X79510800Y-139158802D01*
X79510800Y-139362680D01*
X79550574Y-139562639D01*
X79628595Y-139750997D01*
X79741863Y-139920515D01*
X79886026Y-140064678D01*
X80055544Y-140177946D01*
X80243902Y-140255967D01*
X80443861Y-140295741D01*
X80647739Y-140295741D01*
X80847698Y-140255967D01*
X81036056Y-140177946D01*
X81084254Y-140145741D01*
X83389223Y-140145741D01*
X86839265Y-143595784D01*
X86850574Y-143652638D01*
X86928595Y-143840996D01*
X87041863Y-144010514D01*
X87186026Y-144154677D01*
X87355544Y-144267945D01*
X87543902Y-144345966D01*
X87606505Y-144358419D01*
X87519334Y-144445590D01*
X87406066Y-144615108D01*
X87328045Y-144803466D01*
X87288271Y-145003425D01*
X87288271Y-145207303D01*
X87328045Y-145407262D01*
X87406066Y-145595620D01*
X87519334Y-145765138D01*
X87663497Y-145909301D01*
X87833015Y-146022569D01*
X88021373Y-146100590D01*
X88221332Y-146140364D01*
X88425210Y-146140364D01*
X88625169Y-146100590D01*
X88813527Y-146022569D01*
X88983045Y-145909301D01*
X89127208Y-145765138D01*
X89240476Y-145595620D01*
X89318497Y-145407262D01*
X89358271Y-145207303D01*
X89358271Y-145129590D01*
X89428816Y-144997612D01*
X89472273Y-144854351D01*
X89483270Y-144742698D01*
X89483270Y-144742688D01*
X89486946Y-144705366D01*
X89483270Y-144668043D01*
X89483270Y-139937423D01*
X89500178Y-139920515D01*
X89613446Y-139750997D01*
X89691467Y-139562639D01*
X89731241Y-139362680D01*
X89731241Y-139158802D01*
X89691467Y-138958843D01*
X89613446Y-138770485D01*
X89586650Y-138730382D01*
X89633005Y-138661007D01*
X89711026Y-138472649D01*
X89750800Y-138272690D01*
X89750800Y-138068812D01*
X89711026Y-137868853D01*
X89633005Y-137680495D01*
X89519737Y-137510977D01*
X89475800Y-137467040D01*
X89475800Y-136474452D01*
X89519737Y-136430515D01*
X89633005Y-136260997D01*
X89711026Y-136072639D01*
X89750800Y-135872680D01*
X89750800Y-135668802D01*
X114920800Y-135668802D01*
X114920800Y-135872680D01*
X114960574Y-136072639D01*
X115038595Y-136260997D01*
X115151863Y-136430515D01*
X115195800Y-136474452D01*
X115195801Y-137547028D01*
X115181863Y-137560966D01*
X115068595Y-137730484D01*
X114990574Y-137918842D01*
X114950800Y-138118801D01*
X114950800Y-138322679D01*
X114990574Y-138522638D01*
X115068595Y-138710996D01*
X115181863Y-138880514D01*
X115326026Y-139024677D01*
X115495544Y-139137945D01*
X115683902Y-139215966D01*
X115883861Y-139255740D01*
X116087739Y-139255740D01*
X116287698Y-139215966D01*
X116476056Y-139137945D01*
X116645574Y-139024677D01*
X116789737Y-138880514D01*
X116903005Y-138710996D01*
X116981026Y-138522638D01*
X117020800Y-138322679D01*
X117020800Y-138118801D01*
X116981026Y-137918842D01*
X116903005Y-137730484D01*
X116789737Y-137560966D01*
X116715800Y-137487029D01*
X116715800Y-136474452D01*
X116759737Y-136430515D01*
X116873005Y-136260997D01*
X116951026Y-136072639D01*
X116990800Y-135872680D01*
X116990800Y-135668802D01*
X116951026Y-135468843D01*
X116873005Y-135280485D01*
X116759737Y-135110967D01*
X116615574Y-134966804D01*
X116446056Y-134853536D01*
X116257698Y-134775515D01*
X116057739Y-134735741D01*
X115853861Y-134735741D01*
X115653902Y-134775515D01*
X115465544Y-134853536D01*
X115296026Y-134966804D01*
X115151863Y-135110967D01*
X115038595Y-135280485D01*
X114960574Y-135468843D01*
X114920800Y-135668802D01*
X89750800Y-135668802D01*
X89711026Y-135468843D01*
X89633005Y-135280485D01*
X89519737Y-135110967D01*
X89375574Y-134966804D01*
X89206056Y-134853536D01*
X89017698Y-134775515D01*
X88817739Y-134735741D01*
X88613861Y-134735741D01*
X88413902Y-134775515D01*
X88225544Y-134853536D01*
X88056026Y-134966804D01*
X87911863Y-135110967D01*
X87798595Y-135280485D01*
X87720574Y-135468843D01*
X87680800Y-135668802D01*
X87680800Y-135872680D01*
X87720574Y-136072639D01*
X87798595Y-136260997D01*
X87911863Y-136430515D01*
X87955801Y-136474453D01*
X87955800Y-137467040D01*
X87911863Y-137510977D01*
X87798595Y-137680495D01*
X87720574Y-137868853D01*
X87680800Y-138068812D01*
X87680800Y-138272690D01*
X87720574Y-138472649D01*
X87798595Y-138661007D01*
X87825391Y-138701110D01*
X87779036Y-138770485D01*
X87701015Y-138958843D01*
X87661241Y-139158802D01*
X87661241Y-139362680D01*
X87701015Y-139562639D01*
X87779036Y-139750997D01*
X87892304Y-139920515D01*
X87963271Y-139991482D01*
X87963270Y-142216632D01*
X84412335Y-138665697D01*
X84384618Y-138631924D01*
X84249860Y-138521330D01*
X84096114Y-138439152D01*
X83929291Y-138388546D01*
X83799278Y-138375741D01*
X83799270Y-138375741D01*
X83755801Y-138371460D01*
X83712332Y-138375741D01*
X81084254Y-138375741D01*
X81036056Y-138343536D01*
X80847698Y-138265515D01*
X80647739Y-138225741D01*
X80443861Y-138225741D01*
X80243902Y-138265515D01*
X80055544Y-138343536D01*
X79886026Y-138456804D01*
X79741863Y-138600967D01*
X79628595Y-138770485D01*
X79550574Y-138958843D01*
X79510800Y-139158802D01*
X77945800Y-139158802D01*
X77945800Y-137255061D01*
X77949476Y-137217738D01*
X77945800Y-137180415D01*
X77945800Y-137180405D01*
X77934803Y-137068752D01*
X77891346Y-136925491D01*
X77835646Y-136821285D01*
X77820774Y-136793461D01*
X77749599Y-136706735D01*
X77725801Y-136677737D01*
X77696803Y-136653939D01*
X76647605Y-135604741D01*
X76623802Y-135575738D01*
X76508077Y-135480765D01*
X76376048Y-135410193D01*
X76366827Y-135407396D01*
X76385767Y-135394741D01*
X76405544Y-135407955D01*
X76593902Y-135485976D01*
X76793861Y-135525750D01*
X76997739Y-135525750D01*
X77197698Y-135485976D01*
X77386056Y-135407955D01*
X77555574Y-135294687D01*
X77695800Y-135154461D01*
X77836026Y-135294687D01*
X78005544Y-135407955D01*
X78193902Y-135485976D01*
X78393861Y-135525750D01*
X78597739Y-135525750D01*
X78797698Y-135485976D01*
X78986056Y-135407955D01*
X79155574Y-135294687D01*
X79299737Y-135150524D01*
X79413005Y-134981006D01*
X79491026Y-134792648D01*
X79530800Y-134592689D01*
X79530800Y-134530551D01*
X83976512Y-130084840D01*
X84018902Y-130102399D01*
X84218861Y-130142173D01*
X84422739Y-130142173D01*
X84622698Y-130102399D01*
X84811056Y-130024378D01*
X84980574Y-129911110D01*
X85124737Y-129766947D01*
X85238005Y-129597429D01*
X85316026Y-129409071D01*
X85355800Y-129209112D01*
X85355800Y-129142173D01*
X85503518Y-129142173D01*
X85478595Y-129179473D01*
X85400574Y-129367831D01*
X85360800Y-129567790D01*
X85360800Y-129771668D01*
X85367315Y-129804422D01*
X81085999Y-134085740D01*
X81023861Y-134085740D01*
X80823902Y-134125514D01*
X80635544Y-134203535D01*
X80466026Y-134316803D01*
X80321863Y-134460966D01*
X80208595Y-134630484D01*
X80130574Y-134818842D01*
X80090800Y-135018801D01*
X80090800Y-135222679D01*
X80130574Y-135422638D01*
X80208595Y-135610996D01*
X80321863Y-135780514D01*
X80466026Y-135924677D01*
X80635544Y-136037945D01*
X80823902Y-136115966D01*
X81023861Y-136155740D01*
X81227739Y-136155740D01*
X81427698Y-136115966D01*
X81616056Y-136037945D01*
X81785574Y-135924677D01*
X81929737Y-135780514D01*
X82043005Y-135610996D01*
X82121026Y-135422638D01*
X82160800Y-135222679D01*
X82160800Y-135160541D01*
X82920800Y-134400541D01*
X82920800Y-134655642D01*
X83012454Y-135116419D01*
X83192240Y-135550461D01*
X83453250Y-135941089D01*
X83785451Y-136273290D01*
X84176079Y-136534300D01*
X84610121Y-136714086D01*
X85070898Y-136805740D01*
X85540702Y-136805740D01*
X86001479Y-136714086D01*
X86435521Y-136534300D01*
X86826149Y-136273290D01*
X87158350Y-135941089D01*
X87419360Y-135550461D01*
X87599146Y-135116419D01*
X87690800Y-134655642D01*
X87690800Y-134185838D01*
X132920800Y-134185838D01*
X132920800Y-134655642D01*
X133012454Y-135116419D01*
X133192240Y-135550461D01*
X133453250Y-135941089D01*
X133785451Y-136273290D01*
X134176079Y-136534300D01*
X134610121Y-136714086D01*
X135070898Y-136805740D01*
X135540702Y-136805740D01*
X136001479Y-136714086D01*
X136435521Y-136534300D01*
X136826149Y-136273290D01*
X137158350Y-135941089D01*
X137419360Y-135550461D01*
X137599146Y-135116419D01*
X137690800Y-134655642D01*
X137690800Y-134185838D01*
X137599146Y-133725061D01*
X137419360Y-133291019D01*
X137158350Y-132900391D01*
X136826149Y-132568190D01*
X136435521Y-132307180D01*
X136001479Y-132127394D01*
X135540702Y-132035740D01*
X135070898Y-132035740D01*
X134610121Y-132127394D01*
X134176079Y-132307180D01*
X133785451Y-132568190D01*
X133453250Y-132900391D01*
X133192240Y-133291019D01*
X133012454Y-133725061D01*
X132920800Y-134185838D01*
X87690800Y-134185838D01*
X87666913Y-134065750D01*
X87667739Y-134065750D01*
X87867698Y-134025976D01*
X88056056Y-133947955D01*
X88225574Y-133834687D01*
X88369737Y-133690524D01*
X88483005Y-133521006D01*
X88561026Y-133332648D01*
X88600800Y-133132689D01*
X88600800Y-132928811D01*
X88561026Y-132728852D01*
X88483005Y-132540494D01*
X88369737Y-132370976D01*
X88325800Y-132327039D01*
X88325800Y-131319707D01*
X89160800Y-131319707D01*
X89160800Y-131641773D01*
X89223632Y-131957652D01*
X89346882Y-132255203D01*
X89525813Y-132522992D01*
X89753548Y-132750727D01*
X90021337Y-132929658D01*
X90318888Y-133052908D01*
X90634767Y-133115740D01*
X90956833Y-133115740D01*
X91272712Y-133052908D01*
X91570263Y-132929658D01*
X91838052Y-132750727D01*
X92065787Y-132522992D01*
X92244718Y-132255203D01*
X92367968Y-131957652D01*
X92430800Y-131641773D01*
X92430800Y-131319707D01*
X92367968Y-131003828D01*
X92244718Y-130706277D01*
X92065787Y-130438488D01*
X91838052Y-130210753D01*
X91570263Y-130031822D01*
X91272712Y-129908572D01*
X90956833Y-129845740D01*
X90634767Y-129845740D01*
X90318888Y-129908572D01*
X90021337Y-130031822D01*
X89753548Y-130210753D01*
X89525813Y-130438488D01*
X89346882Y-130706277D01*
X89223632Y-131003828D01*
X89160800Y-131319707D01*
X88325800Y-131319707D01*
X88325800Y-129804049D01*
X88329476Y-129766726D01*
X88325800Y-129729403D01*
X88325800Y-129729394D01*
X88314803Y-129617741D01*
X88271346Y-129474480D01*
X88219664Y-129377791D01*
X88200774Y-129342450D01*
X88141694Y-129270461D01*
X92660800Y-129270461D01*
X92660800Y-129691019D01*
X92742847Y-130103496D01*
X92903788Y-130492042D01*
X93137437Y-130841723D01*
X93434817Y-131139103D01*
X93784498Y-131372752D01*
X94173044Y-131533693D01*
X94585521Y-131615740D01*
X95006079Y-131615740D01*
X95418556Y-131533693D01*
X95807102Y-131372752D01*
X95886489Y-131319707D01*
X97160800Y-131319707D01*
X97160800Y-131641773D01*
X97223632Y-131957652D01*
X97346882Y-132255203D01*
X97525813Y-132522992D01*
X97753548Y-132750727D01*
X98021337Y-132929658D01*
X98318888Y-133052908D01*
X98634767Y-133115740D01*
X98956833Y-133115740D01*
X99272712Y-133052908D01*
X99570263Y-132929658D01*
X99838052Y-132750727D01*
X100065787Y-132522992D01*
X100244718Y-132255203D01*
X100367968Y-131957652D01*
X100430800Y-131641773D01*
X100430800Y-131319707D01*
X120160800Y-131319707D01*
X120160800Y-131641773D01*
X120223632Y-131957652D01*
X120346882Y-132255203D01*
X120525813Y-132522992D01*
X120753548Y-132750727D01*
X121021337Y-132929658D01*
X121318888Y-133052908D01*
X121634767Y-133115740D01*
X121956833Y-133115740D01*
X122272712Y-133052908D01*
X122570263Y-132929658D01*
X122838052Y-132750727D01*
X123065787Y-132522992D01*
X123244718Y-132255203D01*
X123367968Y-131957652D01*
X123430800Y-131641773D01*
X123430800Y-131319707D01*
X123367968Y-131003828D01*
X123244718Y-130706277D01*
X123065787Y-130438488D01*
X122838052Y-130210753D01*
X122570263Y-130031822D01*
X122272712Y-129908572D01*
X121956833Y-129845740D01*
X121634767Y-129845740D01*
X121318888Y-129908572D01*
X121021337Y-130031822D01*
X120753548Y-130210753D01*
X120525813Y-130438488D01*
X120346882Y-130706277D01*
X120223632Y-131003828D01*
X120160800Y-131319707D01*
X100430800Y-131319707D01*
X100367968Y-131003828D01*
X100244718Y-130706277D01*
X100065787Y-130438488D01*
X99838052Y-130210753D01*
X99570263Y-130031822D01*
X99272712Y-129908572D01*
X98956833Y-129845740D01*
X98634767Y-129845740D01*
X98318888Y-129908572D01*
X98021337Y-130031822D01*
X97753548Y-130210753D01*
X97525813Y-130438488D01*
X97346882Y-130706277D01*
X97223632Y-131003828D01*
X97160800Y-131319707D01*
X95886489Y-131319707D01*
X96156783Y-131139103D01*
X96454163Y-130841723D01*
X96687812Y-130492042D01*
X96848753Y-130103496D01*
X96930800Y-129691019D01*
X96930800Y-129270461D01*
X123660800Y-129270461D01*
X123660800Y-129691019D01*
X123742847Y-130103496D01*
X123903788Y-130492042D01*
X124137437Y-130841723D01*
X124434817Y-131139103D01*
X124784498Y-131372752D01*
X125173044Y-131533693D01*
X125585521Y-131615740D01*
X126006079Y-131615740D01*
X126418556Y-131533693D01*
X126807102Y-131372752D01*
X126886489Y-131319707D01*
X128160800Y-131319707D01*
X128160800Y-131641773D01*
X128223632Y-131957652D01*
X128346882Y-132255203D01*
X128525813Y-132522992D01*
X128753548Y-132750727D01*
X129021337Y-132929658D01*
X129318888Y-133052908D01*
X129634767Y-133115740D01*
X129956833Y-133115740D01*
X130272712Y-133052908D01*
X130570263Y-132929658D01*
X130838052Y-132750727D01*
X131065787Y-132522992D01*
X131244718Y-132255203D01*
X131367968Y-131957652D01*
X131430800Y-131641773D01*
X131430800Y-131319707D01*
X131367968Y-131003828D01*
X131244718Y-130706277D01*
X131065787Y-130438488D01*
X130838052Y-130210753D01*
X130570263Y-130031822D01*
X130272712Y-129908572D01*
X129956833Y-129845740D01*
X129634767Y-129845740D01*
X129318888Y-129908572D01*
X129021337Y-130031822D01*
X128753548Y-130210753D01*
X128525813Y-130438488D01*
X128346882Y-130706277D01*
X128223632Y-131003828D01*
X128160800Y-131319707D01*
X126886489Y-131319707D01*
X127156783Y-131139103D01*
X127454163Y-130841723D01*
X127687812Y-130492042D01*
X127848753Y-130103496D01*
X127930800Y-129691019D01*
X127930800Y-129270461D01*
X127848753Y-128857984D01*
X127687812Y-128469438D01*
X127454163Y-128119757D01*
X127156783Y-127822377D01*
X126807102Y-127588728D01*
X126418556Y-127427787D01*
X126006079Y-127345740D01*
X125585521Y-127345740D01*
X125173044Y-127427787D01*
X124784498Y-127588728D01*
X124434817Y-127822377D01*
X124137437Y-128119757D01*
X123903788Y-128469438D01*
X123742847Y-128857984D01*
X123660800Y-129270461D01*
X96930800Y-129270461D01*
X96848753Y-128857984D01*
X96687812Y-128469438D01*
X96454163Y-128119757D01*
X96156783Y-127822377D01*
X95807102Y-127588728D01*
X95418556Y-127427787D01*
X95006079Y-127345740D01*
X94585521Y-127345740D01*
X94173044Y-127427787D01*
X93784498Y-127588728D01*
X93434817Y-127822377D01*
X93137437Y-128119757D01*
X92903788Y-128469438D01*
X92742847Y-128857984D01*
X92660800Y-129270461D01*
X88141694Y-129270461D01*
X88129599Y-129255724D01*
X88105801Y-129226726D01*
X88076803Y-129202928D01*
X87187063Y-128313188D01*
X87219737Y-128280514D01*
X87333005Y-128110996D01*
X87411026Y-127922638D01*
X87450800Y-127722679D01*
X87450800Y-127560647D01*
X90592646Y-127560647D01*
X90592646Y-127764525D01*
X90632420Y-127964484D01*
X90710441Y-128152842D01*
X90823709Y-128322360D01*
X90967872Y-128466523D01*
X91137390Y-128579791D01*
X91325748Y-128657812D01*
X91525707Y-128697586D01*
X91729585Y-128697586D01*
X91929544Y-128657812D01*
X92117902Y-128579791D01*
X92287420Y-128466523D01*
X92431583Y-128322360D01*
X92544851Y-128152842D01*
X92622872Y-127964484D01*
X92662646Y-127764525D01*
X92662646Y-127702387D01*
X94986810Y-125378225D01*
X95015802Y-125354432D01*
X95024526Y-125343801D01*
X100370800Y-125343801D01*
X100370800Y-125547679D01*
X100410574Y-125747638D01*
X100488595Y-125935996D01*
X100601863Y-126105514D01*
X100645800Y-126149451D01*
X100645801Y-126192028D01*
X100601863Y-126235966D01*
X100488595Y-126405484D01*
X100410574Y-126593842D01*
X100370800Y-126793801D01*
X100370800Y-126997679D01*
X100410574Y-127197638D01*
X100488595Y-127385996D01*
X100601863Y-127555514D01*
X100746026Y-127699677D01*
X100915544Y-127812945D01*
X101103902Y-127890966D01*
X101303861Y-127930740D01*
X101507739Y-127930740D01*
X101707698Y-127890966D01*
X101896056Y-127812945D01*
X102065574Y-127699677D01*
X102209737Y-127555514D01*
X102323005Y-127385996D01*
X102401026Y-127197638D01*
X102440800Y-126997679D01*
X102440800Y-126793801D01*
X102401026Y-126593842D01*
X102323005Y-126405484D01*
X102209737Y-126235966D01*
X102165800Y-126192029D01*
X102165800Y-126149451D01*
X102209737Y-126105514D01*
X102323005Y-125935996D01*
X102401026Y-125747638D01*
X102440800Y-125547679D01*
X102440800Y-125343801D01*
X102401026Y-125143842D01*
X102323005Y-124955484D01*
X102209737Y-124785966D01*
X102065574Y-124641803D01*
X101896056Y-124528535D01*
X101707698Y-124450514D01*
X101507739Y-124410740D01*
X101303861Y-124410740D01*
X101103902Y-124450514D01*
X100915544Y-124528535D01*
X100746026Y-124641803D01*
X100601863Y-124785966D01*
X100488595Y-124955484D01*
X100410574Y-125143842D01*
X100370800Y-125343801D01*
X95024526Y-125343801D01*
X95039596Y-125325439D01*
X95039600Y-125325435D01*
X95097612Y-125254746D01*
X95110775Y-125238707D01*
X95181347Y-125106678D01*
X95224804Y-124963417D01*
X95235801Y-124851764D01*
X95235801Y-124851755D01*
X95239477Y-124814432D01*
X95235801Y-124777109D01*
X95235801Y-123541477D01*
X95335349Y-123582711D01*
X95627078Y-123640740D01*
X95924522Y-123640740D01*
X96216251Y-123582711D01*
X96491053Y-123468884D01*
X96738369Y-123303633D01*
X96948693Y-123093309D01*
X97025800Y-122977910D01*
X97102907Y-123093309D01*
X97313231Y-123303633D01*
X97560547Y-123468884D01*
X97835349Y-123582711D01*
X98127078Y-123640740D01*
X98424522Y-123640740D01*
X98716251Y-123582711D01*
X98991053Y-123468884D01*
X99238369Y-123303633D01*
X99448693Y-123093309D01*
X99613944Y-122845993D01*
X99727771Y-122571191D01*
X99785800Y-122279462D01*
X99785800Y-121982018D01*
X99727771Y-121690289D01*
X99613944Y-121415487D01*
X99535978Y-121298801D01*
X100065790Y-121298801D01*
X100065790Y-121502679D01*
X100105564Y-121702638D01*
X100183585Y-121890996D01*
X100296853Y-122060514D01*
X100441016Y-122204677D01*
X100610534Y-122317945D01*
X100798892Y-122395966D01*
X100998851Y-122435740D01*
X101202729Y-122435740D01*
X101402688Y-122395966D01*
X101591046Y-122317945D01*
X101760564Y-122204677D01*
X101904727Y-122060514D01*
X101934643Y-122015740D01*
X114122728Y-122015740D01*
X114122728Y-123765740D01*
X114134988Y-123890222D01*
X114171298Y-124009920D01*
X114230263Y-124120234D01*
X114309615Y-124216925D01*
X114406306Y-124296277D01*
X114516620Y-124355242D01*
X114636318Y-124391552D01*
X114760800Y-124403812D01*
X116510800Y-124403812D01*
X116635282Y-124391552D01*
X116754980Y-124355242D01*
X116865294Y-124296277D01*
X116961985Y-124216925D01*
X117041337Y-124120234D01*
X117100302Y-124009920D01*
X117136612Y-123890222D01*
X117148872Y-123765740D01*
X117148872Y-122015740D01*
X117136612Y-121891258D01*
X117100302Y-121771560D01*
X117041337Y-121661246D01*
X116961985Y-121564555D01*
X116865294Y-121485203D01*
X116754980Y-121426238D01*
X116740236Y-121421766D01*
X116808693Y-121353309D01*
X116973944Y-121105993D01*
X117087771Y-120831191D01*
X117145800Y-120539462D01*
X117145800Y-120318801D01*
X119600800Y-120318801D01*
X119600800Y-120522679D01*
X119640574Y-120722638D01*
X119718595Y-120910996D01*
X119831863Y-121080514D01*
X119976026Y-121224677D01*
X120145544Y-121337945D01*
X120333902Y-121415966D01*
X120533861Y-121455740D01*
X120737739Y-121455740D01*
X120937698Y-121415966D01*
X121126056Y-121337945D01*
X121295574Y-121224677D01*
X121329511Y-121190740D01*
X121877555Y-121190740D01*
X122012907Y-121393309D01*
X122081364Y-121461766D01*
X122066620Y-121466238D01*
X121956306Y-121525203D01*
X121859615Y-121604555D01*
X121780263Y-121701246D01*
X121721298Y-121811560D01*
X121684988Y-121931258D01*
X121672728Y-122055740D01*
X121672728Y-122170740D01*
X121549511Y-122170740D01*
X121495574Y-122116803D01*
X121326056Y-122003535D01*
X121137698Y-121925514D01*
X120937739Y-121885740D01*
X120733861Y-121885740D01*
X120533902Y-121925514D01*
X120345544Y-122003535D01*
X120176026Y-122116803D01*
X120031863Y-122260966D01*
X119918595Y-122430484D01*
X119840574Y-122618842D01*
X119800800Y-122818801D01*
X119800800Y-123022679D01*
X119840574Y-123222638D01*
X119918595Y-123410996D01*
X120031863Y-123580514D01*
X120176026Y-123724677D01*
X120345544Y-123837945D01*
X120533902Y-123915966D01*
X120733861Y-123955740D01*
X120937739Y-123955740D01*
X121137698Y-123915966D01*
X121326056Y-123837945D01*
X121495574Y-123724677D01*
X121529511Y-123690740D01*
X121672728Y-123690740D01*
X121672728Y-123805740D01*
X121684988Y-123930222D01*
X121721298Y-124049920D01*
X121780263Y-124160234D01*
X121859615Y-124256925D01*
X121956306Y-124336277D01*
X122066620Y-124395242D01*
X122186318Y-124431552D01*
X122310800Y-124443812D01*
X124060800Y-124443812D01*
X124185282Y-124431552D01*
X124304980Y-124395242D01*
X124415294Y-124336277D01*
X124511985Y-124256925D01*
X124591337Y-124160234D01*
X124650302Y-124049920D01*
X124686612Y-123930222D01*
X124698872Y-123805740D01*
X124698872Y-122055740D01*
X124686612Y-121931258D01*
X124650302Y-121811560D01*
X124591337Y-121701246D01*
X124511985Y-121604555D01*
X124415294Y-121525203D01*
X124304980Y-121466238D01*
X124290236Y-121461766D01*
X124358693Y-121393309D01*
X124523944Y-121145993D01*
X124637771Y-120871191D01*
X124695800Y-120579462D01*
X124695800Y-120282018D01*
X124637771Y-119990289D01*
X124523944Y-119715487D01*
X124358693Y-119468171D01*
X124148369Y-119257847D01*
X123901053Y-119092596D01*
X123626251Y-118978769D01*
X123334522Y-118920740D01*
X123037078Y-118920740D01*
X122745349Y-118978769D01*
X122470547Y-119092596D01*
X122223231Y-119257847D01*
X122012907Y-119468171D01*
X121877555Y-119670740D01*
X121349511Y-119670740D01*
X121295574Y-119616803D01*
X121126056Y-119503535D01*
X120937698Y-119425514D01*
X120737739Y-119385740D01*
X120533861Y-119385740D01*
X120333902Y-119425514D01*
X120145544Y-119503535D01*
X119976026Y-119616803D01*
X119831863Y-119760966D01*
X119718595Y-119930484D01*
X119640574Y-120118842D01*
X119600800Y-120318801D01*
X117145800Y-120318801D01*
X117145800Y-120242018D01*
X117087771Y-119950289D01*
X116973944Y-119675487D01*
X116808693Y-119428171D01*
X116598369Y-119217847D01*
X116351053Y-119052596D01*
X116076251Y-118938769D01*
X115784522Y-118880740D01*
X115487078Y-118880740D01*
X115195349Y-118938769D01*
X114920547Y-119052596D01*
X114673231Y-119217847D01*
X114462907Y-119428171D01*
X114297656Y-119675487D01*
X114183829Y-119950289D01*
X114125800Y-120242018D01*
X114125800Y-120539462D01*
X114183829Y-120831191D01*
X114297656Y-121105993D01*
X114462907Y-121353309D01*
X114531364Y-121421766D01*
X114516620Y-121426238D01*
X114406306Y-121485203D01*
X114309615Y-121564555D01*
X114230263Y-121661246D01*
X114171298Y-121771560D01*
X114134988Y-121891258D01*
X114122728Y-122015740D01*
X101934643Y-122015740D01*
X102017995Y-121890996D01*
X102096016Y-121702638D01*
X102135790Y-121502679D01*
X102135790Y-121298801D01*
X102113590Y-121187191D01*
X102229599Y-121109676D01*
X102373762Y-120965513D01*
X102487030Y-120795995D01*
X102565051Y-120607637D01*
X102604825Y-120407678D01*
X102604825Y-120326516D01*
X103115602Y-119815740D01*
X103177739Y-119815740D01*
X103377698Y-119775966D01*
X103566056Y-119697945D01*
X103735574Y-119584677D01*
X103879737Y-119440514D01*
X103993005Y-119270996D01*
X104071026Y-119082638D01*
X104110800Y-118882679D01*
X104110800Y-118678801D01*
X104071026Y-118478842D01*
X103993005Y-118290484D01*
X103879737Y-118120966D01*
X103735574Y-117976803D01*
X103566056Y-117863535D01*
X103377698Y-117785514D01*
X103177739Y-117745740D01*
X102973861Y-117745740D01*
X102773902Y-117785514D01*
X102585544Y-117863535D01*
X102454678Y-117950977D01*
X102436056Y-117938534D01*
X102247698Y-117860513D01*
X102047739Y-117820739D01*
X101843861Y-117820739D01*
X101643902Y-117860513D01*
X101455544Y-117938534D01*
X101286026Y-118051802D01*
X101141863Y-118195965D01*
X101028595Y-118365483D01*
X100950574Y-118553841D01*
X100910800Y-118753800D01*
X100910800Y-118815937D01*
X100333826Y-119392911D01*
X100304823Y-119416714D01*
X100274640Y-119453493D01*
X100209850Y-119532439D01*
X100159289Y-119627031D01*
X100139278Y-119664469D01*
X100095821Y-119807730D01*
X100084824Y-119919383D01*
X100084824Y-119919393D01*
X100081148Y-119956715D01*
X100084824Y-119994038D01*
X100084825Y-121107442D01*
X100081148Y-121144774D01*
X100084825Y-121182107D01*
X100086208Y-121196151D01*
X100065790Y-121298801D01*
X99535978Y-121298801D01*
X99448693Y-121168171D01*
X99238369Y-120957847D01*
X98991053Y-120792596D01*
X98716251Y-120678769D01*
X98424522Y-120620740D01*
X98127078Y-120620740D01*
X97835349Y-120678769D01*
X97560547Y-120792596D01*
X97313231Y-120957847D01*
X97102907Y-121168171D01*
X97025800Y-121283570D01*
X96948693Y-121168171D01*
X96738369Y-120957847D01*
X96491053Y-120792596D01*
X96216251Y-120678769D01*
X95924522Y-120620740D01*
X95627078Y-120620740D01*
X95357323Y-120674398D01*
X95393005Y-120620996D01*
X95471026Y-120432638D01*
X95510800Y-120232679D01*
X95510800Y-120028801D01*
X95471026Y-119828842D01*
X95393005Y-119640484D01*
X95279737Y-119470966D01*
X95135574Y-119326803D01*
X94966056Y-119213535D01*
X94777698Y-119135514D01*
X94577739Y-119095740D01*
X94373861Y-119095740D01*
X94173902Y-119135514D01*
X93985544Y-119213535D01*
X93816026Y-119326803D01*
X93671863Y-119470966D01*
X93558595Y-119640484D01*
X93480574Y-119828842D01*
X93440800Y-120028801D01*
X93440800Y-120232679D01*
X93480574Y-120432638D01*
X93558595Y-120620996D01*
X93578949Y-120651458D01*
X93424522Y-120620740D01*
X93127078Y-120620740D01*
X92835349Y-120678769D01*
X92560547Y-120792596D01*
X92313231Y-120957847D01*
X92244774Y-121026304D01*
X92240302Y-121011560D01*
X92181337Y-120901246D01*
X92101985Y-120804555D01*
X92005294Y-120725203D01*
X91894980Y-120666238D01*
X91775282Y-120629928D01*
X91650800Y-120617668D01*
X91061550Y-120620740D01*
X90902800Y-120779490D01*
X90902800Y-122003740D01*
X90922800Y-122003740D01*
X90922800Y-122257740D01*
X90902800Y-122257740D01*
X90902800Y-123481990D01*
X91061550Y-123640740D01*
X91650800Y-123643812D01*
X91775282Y-123631552D01*
X91894980Y-123595242D01*
X92005294Y-123536277D01*
X92101985Y-123456925D01*
X92181337Y-123360234D01*
X92240302Y-123249920D01*
X92244774Y-123235176D01*
X92313231Y-123303633D01*
X92560547Y-123468884D01*
X92835349Y-123582711D01*
X93127078Y-123640740D01*
X93424522Y-123640740D01*
X93715801Y-123582800D01*
X93715801Y-124499628D01*
X91587845Y-126627586D01*
X91525707Y-126627586D01*
X91325748Y-126667360D01*
X91137390Y-126745381D01*
X90967872Y-126858649D01*
X90823709Y-127002812D01*
X90710441Y-127172330D01*
X90632420Y-127360688D01*
X90592646Y-127560647D01*
X87450800Y-127560647D01*
X87450800Y-127518801D01*
X87411026Y-127318842D01*
X87333005Y-127130484D01*
X87219737Y-126960966D01*
X87175800Y-126917029D01*
X87175800Y-124347039D01*
X87179476Y-124309714D01*
X87175800Y-124272389D01*
X87175800Y-124272381D01*
X87164803Y-124160728D01*
X87121346Y-124017467D01*
X87050774Y-123885438D01*
X87036826Y-123868442D01*
X87036826Y-123793801D01*
X86997052Y-123593842D01*
X86919031Y-123405484D01*
X86805763Y-123235966D01*
X86661600Y-123091803D01*
X86532798Y-123005740D01*
X89262728Y-123005740D01*
X89274988Y-123130222D01*
X89311298Y-123249920D01*
X89370263Y-123360234D01*
X89449615Y-123456925D01*
X89546306Y-123536277D01*
X89656620Y-123595242D01*
X89776318Y-123631552D01*
X89900800Y-123643812D01*
X90490050Y-123640740D01*
X90648800Y-123481990D01*
X90648800Y-122257740D01*
X89424550Y-122257740D01*
X89265800Y-122416490D01*
X89262728Y-123005740D01*
X86532798Y-123005740D01*
X86492082Y-122978535D01*
X86303724Y-122900514D01*
X86103765Y-122860740D01*
X85899887Y-122860740D01*
X85699928Y-122900514D01*
X85511570Y-122978535D01*
X85342052Y-123091803D01*
X85197889Y-123235966D01*
X85084621Y-123405484D01*
X85006600Y-123593842D01*
X85002620Y-123613849D01*
X84980574Y-123591803D01*
X84811056Y-123478535D01*
X84622698Y-123400514D01*
X84422739Y-123360740D01*
X84355800Y-123360740D01*
X84355800Y-123293042D01*
X84359476Y-123255719D01*
X84355800Y-123218397D01*
X84355800Y-122025090D01*
X84364787Y-121995464D01*
X84419737Y-121940514D01*
X84533005Y-121770996D01*
X84611026Y-121582638D01*
X84650800Y-121382679D01*
X84650800Y-121255740D01*
X89262728Y-121255740D01*
X89265800Y-121844990D01*
X89424550Y-122003740D01*
X90648800Y-122003740D01*
X90648800Y-120779490D01*
X90490050Y-120620740D01*
X89900800Y-120617668D01*
X89776318Y-120629928D01*
X89656620Y-120666238D01*
X89546306Y-120725203D01*
X89449615Y-120804555D01*
X89370263Y-120901246D01*
X89311298Y-121011560D01*
X89274988Y-121131258D01*
X89262728Y-121255740D01*
X84650800Y-121255740D01*
X84650800Y-121178801D01*
X84611026Y-120978842D01*
X84533005Y-120790484D01*
X84419737Y-120620966D01*
X84411639Y-120612868D01*
X84485198Y-120582399D01*
X84670324Y-120458701D01*
X84827761Y-120301264D01*
X84951459Y-120116138D01*
X84965800Y-120081516D01*
X84980141Y-120116138D01*
X85103839Y-120301264D01*
X85261276Y-120458701D01*
X85446402Y-120582399D01*
X85652104Y-120667603D01*
X85870475Y-120711040D01*
X86093125Y-120711040D01*
X86311496Y-120667603D01*
X86517198Y-120582399D01*
X86702324Y-120458701D01*
X86859761Y-120301264D01*
X86983459Y-120116138D01*
X87068663Y-119910436D01*
X87112100Y-119692065D01*
X87112100Y-119469415D01*
X87068663Y-119251044D01*
X86983459Y-119045342D01*
X86859761Y-118860216D01*
X86702324Y-118702779D01*
X86517198Y-118579081D01*
X86311496Y-118493877D01*
X86093125Y-118450440D01*
X85870475Y-118450440D01*
X85652104Y-118493877D01*
X85446402Y-118579081D01*
X85261276Y-118702779D01*
X85103839Y-118860216D01*
X84980141Y-119045342D01*
X84965800Y-119079964D01*
X84951459Y-119045342D01*
X84827761Y-118860216D01*
X84670324Y-118702779D01*
X84485198Y-118579081D01*
X84279496Y-118493877D01*
X84061125Y-118450440D01*
X83838475Y-118450440D01*
X83620104Y-118493877D01*
X83414402Y-118579081D01*
X83229276Y-118702779D01*
X83071839Y-118860216D01*
X82948141Y-119045342D01*
X82862937Y-119251044D01*
X82819500Y-119469415D01*
X82819500Y-119692065D01*
X82862937Y-119910436D01*
X82948141Y-120116138D01*
X83071839Y-120301264D01*
X83131601Y-120361026D01*
X83125544Y-120363535D01*
X82956026Y-120476803D01*
X82811863Y-120620966D01*
X82698595Y-120790484D01*
X82620574Y-120978842D01*
X82580800Y-121178801D01*
X82580800Y-121382679D01*
X82620574Y-121582638D01*
X82698595Y-121770996D01*
X82811863Y-121940514D01*
X82835800Y-121964451D01*
X82835801Y-123106859D01*
X82822124Y-123245720D01*
X82835801Y-123384582D01*
X82835800Y-126917029D01*
X82791863Y-126960966D01*
X82678595Y-127130484D01*
X82600574Y-127318842D01*
X82592240Y-127360740D01*
X81536085Y-127360740D01*
X81527751Y-127318842D01*
X81449730Y-127130484D01*
X81336462Y-126960966D01*
X81192299Y-126816803D01*
X81022781Y-126703535D01*
X80834423Y-126625514D01*
X80634464Y-126585740D01*
X80572327Y-126585740D01*
X80215376Y-126228790D01*
X80215376Y-121161175D01*
X80259313Y-121117238D01*
X80372581Y-120947720D01*
X80450602Y-120759362D01*
X80478227Y-120620482D01*
X80550262Y-120634811D01*
X80754140Y-120634811D01*
X80954099Y-120595037D01*
X81142457Y-120517016D01*
X81311975Y-120403748D01*
X81456138Y-120259585D01*
X81569406Y-120090067D01*
X81647427Y-119901709D01*
X81687201Y-119701750D01*
X81687201Y-119497872D01*
X81647427Y-119297913D01*
X81569406Y-119109555D01*
X81456138Y-118940037D01*
X81412201Y-118896100D01*
X81412201Y-117731541D01*
X81533861Y-117755740D01*
X81737739Y-117755740D01*
X81937698Y-117715966D01*
X82126056Y-117637945D01*
X82295574Y-117524677D01*
X82334511Y-117485740D01*
X85922089Y-117485740D01*
X85966026Y-117529677D01*
X86135544Y-117642945D01*
X86323902Y-117720966D01*
X86523861Y-117760740D01*
X86727739Y-117760740D01*
X86927698Y-117720966D01*
X87116056Y-117642945D01*
X87285574Y-117529677D01*
X87429737Y-117385514D01*
X87543005Y-117215996D01*
X87621026Y-117027638D01*
X87660800Y-116827679D01*
X87660800Y-116623801D01*
X87621026Y-116423842D01*
X87543005Y-116235484D01*
X87458665Y-116109260D01*
X87531005Y-116000996D01*
X87609026Y-115812638D01*
X87648800Y-115612679D01*
X87648800Y-115408801D01*
X87609026Y-115208842D01*
X87531005Y-115020484D01*
X87417737Y-114850966D01*
X87363931Y-114797160D01*
X87362803Y-114785708D01*
X87319346Y-114642447D01*
X87266391Y-114543376D01*
X87258601Y-114528801D01*
X108945800Y-114528801D01*
X108945800Y-114732679D01*
X108985574Y-114932638D01*
X109063595Y-115120996D01*
X109176863Y-115290514D01*
X109321026Y-115434677D01*
X109490544Y-115547945D01*
X109678902Y-115625966D01*
X109878861Y-115665740D01*
X110082739Y-115665740D01*
X110282698Y-115625966D01*
X110471056Y-115547945D01*
X110640574Y-115434677D01*
X110694511Y-115380740D01*
X111032089Y-115380740D01*
X111076026Y-115424677D01*
X111245544Y-115537945D01*
X111433902Y-115615966D01*
X111633861Y-115655740D01*
X111837739Y-115655740D01*
X112037698Y-115615966D01*
X112226056Y-115537945D01*
X112395574Y-115424677D01*
X112539737Y-115280514D01*
X112653005Y-115110996D01*
X112731026Y-114922638D01*
X112770800Y-114722679D01*
X112770800Y-114518801D01*
X112731026Y-114318842D01*
X112690920Y-114222018D01*
X114315800Y-114222018D01*
X114315800Y-114519462D01*
X114373829Y-114811191D01*
X114487656Y-115085993D01*
X114652907Y-115333309D01*
X114863231Y-115543633D01*
X115110547Y-115708884D01*
X115385349Y-115822711D01*
X115677078Y-115880740D01*
X115974522Y-115880740D01*
X116266251Y-115822711D01*
X116541053Y-115708884D01*
X116788369Y-115543633D01*
X116998693Y-115333309D01*
X117101032Y-115180147D01*
X117279560Y-115237375D01*
X118146195Y-114370740D01*
X117279560Y-113504105D01*
X117101032Y-113561333D01*
X116998693Y-113408171D01*
X116915022Y-113324500D01*
X117459165Y-113324500D01*
X118325800Y-114191135D01*
X118339943Y-114176993D01*
X118519548Y-114356598D01*
X118505405Y-114370740D01*
X118519548Y-114384883D01*
X118339943Y-114564488D01*
X118325800Y-114550345D01*
X117459165Y-115416980D01*
X117539825Y-115668608D01*
X117808129Y-115797007D01*
X118096326Y-115870595D01*
X118393343Y-115886544D01*
X118687763Y-115844241D01*
X118968274Y-115745312D01*
X119111775Y-115668608D01*
X119192434Y-115416982D01*
X119308459Y-115533007D01*
X119359028Y-115482438D01*
X119361298Y-115489920D01*
X119420263Y-115600234D01*
X119499615Y-115696925D01*
X119596306Y-115776277D01*
X119706620Y-115835242D01*
X119826318Y-115871552D01*
X119950800Y-115883812D01*
X121700800Y-115883812D01*
X121825282Y-115871552D01*
X121944980Y-115835242D01*
X122055294Y-115776277D01*
X122151985Y-115696925D01*
X122231337Y-115600234D01*
X122290302Y-115489920D01*
X122326612Y-115370222D01*
X122338872Y-115245740D01*
X122338872Y-113495740D01*
X122326612Y-113371258D01*
X122290302Y-113251560D01*
X122231337Y-113141246D01*
X122151985Y-113044555D01*
X122055294Y-112965203D01*
X121944980Y-112906238D01*
X121825282Y-112869928D01*
X121700800Y-112857668D01*
X119950800Y-112857668D01*
X119826318Y-112869928D01*
X119706620Y-112906238D01*
X119596306Y-112965203D01*
X119499615Y-113044555D01*
X119420263Y-113141246D01*
X119361298Y-113251560D01*
X119359028Y-113259042D01*
X119308459Y-113208473D01*
X119192434Y-113324498D01*
X119111775Y-113072872D01*
X118843471Y-112944473D01*
X118555274Y-112870885D01*
X118258257Y-112854936D01*
X117963837Y-112897239D01*
X117683326Y-112996168D01*
X117539825Y-113072872D01*
X117459165Y-113324500D01*
X116915022Y-113324500D01*
X116788369Y-113197847D01*
X116541053Y-113032596D01*
X116266251Y-112918769D01*
X115974522Y-112860740D01*
X115677078Y-112860740D01*
X115385349Y-112918769D01*
X115110547Y-113032596D01*
X114863231Y-113197847D01*
X114652907Y-113408171D01*
X114487656Y-113655487D01*
X114373829Y-113930289D01*
X114315800Y-114222018D01*
X112690920Y-114222018D01*
X112653005Y-114130484D01*
X112539737Y-113960966D01*
X112395574Y-113816803D01*
X112226056Y-113703535D01*
X112037698Y-113625514D01*
X111837739Y-113585740D01*
X111633861Y-113585740D01*
X111433902Y-113625514D01*
X111245544Y-113703535D01*
X111076026Y-113816803D01*
X111032089Y-113860740D01*
X110674511Y-113860740D01*
X110640574Y-113826803D01*
X110471056Y-113713535D01*
X110282698Y-113635514D01*
X110082739Y-113595740D01*
X109878861Y-113595740D01*
X109678902Y-113635514D01*
X109490544Y-113713535D01*
X109321026Y-113826803D01*
X109176863Y-113970966D01*
X109063595Y-114140484D01*
X108985574Y-114328842D01*
X108945800Y-114528801D01*
X87258601Y-114528801D01*
X87248774Y-114510417D01*
X87177599Y-114423691D01*
X87153801Y-114394693D01*
X87124803Y-114370895D01*
X85480539Y-112726632D01*
X85499005Y-112698996D01*
X85577026Y-112510638D01*
X85616800Y-112310679D01*
X85616800Y-112106801D01*
X85577026Y-111906842D01*
X85499005Y-111718484D01*
X85385737Y-111548966D01*
X85241574Y-111404803D01*
X85072056Y-111291535D01*
X84883698Y-111213514D01*
X84683739Y-111173740D01*
X84479861Y-111173740D01*
X84279902Y-111213514D01*
X84091544Y-111291535D01*
X83922026Y-111404803D01*
X83777863Y-111548966D01*
X83664595Y-111718484D01*
X83586574Y-111906842D01*
X83546800Y-112106801D01*
X83546800Y-112310679D01*
X83586574Y-112510638D01*
X83664595Y-112698996D01*
X83777863Y-112868514D01*
X83818788Y-112909439D01*
X83821800Y-112940016D01*
X83821800Y-112940026D01*
X83832797Y-113051679D01*
X83876254Y-113194940D01*
X83946826Y-113326970D01*
X83982501Y-113370440D01*
X84041799Y-113442695D01*
X84070803Y-113466498D01*
X84236180Y-113631875D01*
X84087839Y-113780216D01*
X83964141Y-113965342D01*
X83878937Y-114171044D01*
X83835500Y-114389415D01*
X83835500Y-114612065D01*
X83878937Y-114830436D01*
X83964141Y-115036138D01*
X84087839Y-115221264D01*
X84245276Y-115378701D01*
X84430402Y-115502399D01*
X84636104Y-115587603D01*
X84854475Y-115631040D01*
X85077125Y-115631040D01*
X85295496Y-115587603D01*
X85501198Y-115502399D01*
X85578800Y-115450547D01*
X85578800Y-115612679D01*
X85618574Y-115812638D01*
X85681991Y-115965740D01*
X84142344Y-115965740D01*
X84170800Y-115822679D01*
X84170800Y-115618801D01*
X84131026Y-115418842D01*
X84053005Y-115230484D01*
X83939737Y-115060966D01*
X83795574Y-114916803D01*
X83626056Y-114803535D01*
X83437698Y-114725514D01*
X83237739Y-114685740D01*
X83175602Y-114685740D01*
X82213593Y-113723732D01*
X82189790Y-113694728D01*
X82074065Y-113599755D01*
X81942036Y-113529183D01*
X81798775Y-113485726D01*
X81687122Y-113474729D01*
X81687111Y-113474729D01*
X81649789Y-113471053D01*
X81612467Y-113474729D01*
X81339511Y-113474729D01*
X81295574Y-113430792D01*
X81126056Y-113317524D01*
X80937698Y-113239503D01*
X80737739Y-113199729D01*
X80533861Y-113199729D01*
X80333902Y-113239503D01*
X80145544Y-113317524D01*
X79976026Y-113430792D01*
X79831863Y-113574955D01*
X79718595Y-113744473D01*
X79640574Y-113932831D01*
X79600800Y-114132790D01*
X79600800Y-114336668D01*
X79640574Y-114536627D01*
X79718595Y-114724985D01*
X79831863Y-114894503D01*
X79892202Y-114954842D01*
X79892201Y-118896100D01*
X79848264Y-118940037D01*
X79734996Y-119109555D01*
X79668495Y-119270101D01*
X79662441Y-119255484D01*
X79549173Y-119085966D01*
X79405010Y-118941803D01*
X79235492Y-118828535D01*
X79047134Y-118750514D01*
X78847175Y-118710740D01*
X78643297Y-118710740D01*
X78443338Y-118750514D01*
X78254980Y-118828535D01*
X78245235Y-118835047D01*
X78235489Y-118828535D01*
X78047131Y-118750514D01*
X77847172Y-118710740D01*
X77643294Y-118710740D01*
X77443335Y-118750514D01*
X77254977Y-118828535D01*
X77117601Y-118920327D01*
X77057698Y-118895514D01*
X76857739Y-118855740D01*
X76653861Y-118855740D01*
X76453902Y-118895514D01*
X76265544Y-118973535D01*
X76096026Y-119086803D01*
X75951863Y-119230966D01*
X75838595Y-119400484D01*
X75760574Y-119588842D01*
X75720800Y-119788801D01*
X75720800Y-119850939D01*
X75264802Y-120306936D01*
X75235799Y-120330739D01*
X75207075Y-120365740D01*
X75140826Y-120446464D01*
X75078905Y-120562310D01*
X75070254Y-120578494D01*
X75026797Y-120721755D01*
X75015800Y-120833408D01*
X75015800Y-120833418D01*
X75012124Y-120870740D01*
X75015800Y-120908063D01*
X75015801Y-125072529D01*
X74596673Y-125491658D01*
X74557698Y-125475514D01*
X74551433Y-125474268D01*
X74577005Y-125435996D01*
X74655026Y-125247638D01*
X74694800Y-125047679D01*
X74694800Y-124843801D01*
X74655026Y-124643842D01*
X74577005Y-124455484D01*
X74529671Y-124384644D01*
X74585417Y-124250062D01*
X74625191Y-124050103D01*
X74625191Y-123846225D01*
X74585417Y-123646266D01*
X74507396Y-123457908D01*
X74394128Y-123288390D01*
X74249965Y-123144227D01*
X74080447Y-123030959D01*
X73892089Y-122952938D01*
X73692130Y-122913164D01*
X73488252Y-122913164D01*
X73288293Y-122952938D01*
X73099935Y-123030959D01*
X72930417Y-123144227D01*
X72786254Y-123288390D01*
X72672986Y-123457908D01*
X72594965Y-123646266D01*
X72555191Y-123846225D01*
X72555191Y-123902545D01*
X72294130Y-124163606D01*
X72209181Y-123736536D01*
X71947078Y-123103763D01*
X71566562Y-122534282D01*
X71082258Y-122049978D01*
X70512777Y-121669462D01*
X69880004Y-121407359D01*
X69208255Y-121273740D01*
X68523345Y-121273740D01*
X67851596Y-121407359D01*
X67229027Y-121665235D01*
X67864388Y-120664067D01*
X69322579Y-118657040D01*
X70903914Y-116745534D01*
X72602153Y-114937093D01*
X74410594Y-113238854D01*
X76322100Y-111657519D01*
X78329127Y-110199328D01*
X80423754Y-108870037D01*
X82597715Y-107674892D01*
X83375698Y-107308801D01*
X112169759Y-107308801D01*
X112169759Y-107512679D01*
X112209533Y-107712638D01*
X112287554Y-107900996D01*
X112400822Y-108070514D01*
X112544985Y-108214677D01*
X112714503Y-108327945D01*
X112902861Y-108405966D01*
X113102820Y-108445740D01*
X113306698Y-108445740D01*
X113506657Y-108405966D01*
X113695015Y-108327945D01*
X113864533Y-108214677D01*
X113908470Y-108170740D01*
X114672089Y-108170740D01*
X114736026Y-108234677D01*
X114905544Y-108347945D01*
X115093902Y-108425966D01*
X115293861Y-108465740D01*
X115497739Y-108465740D01*
X115697698Y-108425966D01*
X115886056Y-108347945D01*
X116055574Y-108234677D01*
X116199737Y-108090514D01*
X116313005Y-107920996D01*
X116391026Y-107732638D01*
X116430800Y-107532679D01*
X116430800Y-107328801D01*
X116391026Y-107128842D01*
X116313005Y-106940484D01*
X116199737Y-106770966D01*
X116055574Y-106626803D01*
X115886056Y-106513535D01*
X115697698Y-106435514D01*
X115497739Y-106395740D01*
X115293861Y-106395740D01*
X115093902Y-106435514D01*
X114905544Y-106513535D01*
X114736026Y-106626803D01*
X114712089Y-106650740D01*
X113908470Y-106650740D01*
X113864533Y-106606803D01*
X113695015Y-106493535D01*
X113506657Y-106415514D01*
X113306698Y-106375740D01*
X113102820Y-106375740D01*
X112902861Y-106415514D01*
X112714503Y-106493535D01*
X112544985Y-106606803D01*
X112400822Y-106750966D01*
X112287554Y-106920484D01*
X112209533Y-107108842D01*
X112169759Y-107308801D01*
X83375698Y-107308801D01*
X84842430Y-106618610D01*
X87149040Y-105705358D01*
X89508441Y-104938742D01*
X91911323Y-104321787D01*
X94348203Y-103856927D01*
X96809463Y-103545998D01*
X96995189Y-103534313D01*
X96979810Y-103557329D01*
G37*
X96979810Y-103557329D02*
X96867868Y-103827582D01*
X96810800Y-104114480D01*
X96810800Y-104407000D01*
X96867868Y-104693898D01*
X96979810Y-104964151D01*
X97142325Y-105207372D01*
X97349168Y-105414215D01*
X97592389Y-105576730D01*
X97862642Y-105688672D01*
X98149540Y-105745740D01*
X98442060Y-105745740D01*
X98728958Y-105688672D01*
X98999211Y-105576730D01*
X99242432Y-105414215D01*
X99449275Y-105207372D01*
X99570995Y-105025206D01*
X99640622Y-105142095D01*
X99835531Y-105358328D01*
X100068880Y-105532381D01*
X100331701Y-105657565D01*
X100478910Y-105702216D01*
X100708800Y-105580895D01*
X100708800Y-104387740D01*
X100688800Y-104387740D01*
X100688800Y-104133740D01*
X100708800Y-104133740D01*
X100708800Y-104113740D01*
X100962800Y-104113740D01*
X100962800Y-104133740D01*
X100982800Y-104133740D01*
X100982800Y-104387740D01*
X100962800Y-104387740D01*
X100962800Y-105580895D01*
X101192690Y-105702216D01*
X101339899Y-105657565D01*
X101602720Y-105532381D01*
X101836069Y-105358328D01*
X101911834Y-105274274D01*
X101936298Y-105354920D01*
X101995263Y-105465234D01*
X102074615Y-105561925D01*
X102171306Y-105641277D01*
X102281620Y-105700242D01*
X102401318Y-105736552D01*
X102525800Y-105748812D01*
X104225800Y-105748812D01*
X104350282Y-105736552D01*
X104469980Y-105700242D01*
X104580294Y-105641277D01*
X104676985Y-105561925D01*
X104756337Y-105465234D01*
X104815302Y-105354920D01*
X104851612Y-105235222D01*
X104863872Y-105110740D01*
X104863872Y-103624541D01*
X106703397Y-103856927D01*
X109140277Y-104321787D01*
X111543159Y-104938742D01*
X113902560Y-105705358D01*
X116209170Y-106618610D01*
X118453885Y-107674892D01*
X120627846Y-108870037D01*
X122722473Y-110199328D01*
X124729500Y-111657519D01*
X126641006Y-113238854D01*
X127128363Y-113696513D01*
X126913290Y-113607426D01*
X126643392Y-113553740D01*
X126368208Y-113553740D01*
X126098310Y-113607426D01*
X125844073Y-113712735D01*
X125615265Y-113865620D01*
X125420680Y-114060205D01*
X125267795Y-114289013D01*
X125162486Y-114543250D01*
X125108800Y-114813148D01*
X125108800Y-115088332D01*
X125162486Y-115358230D01*
X125267795Y-115612467D01*
X125420680Y-115841275D01*
X125615265Y-116035860D01*
X125844073Y-116188745D01*
X126098310Y-116294054D01*
X126368208Y-116347740D01*
X126643392Y-116347740D01*
X126913290Y-116294054D01*
X127167527Y-116188745D01*
X127396335Y-116035860D01*
X127590920Y-115841275D01*
X127743805Y-115612467D01*
X127849114Y-115358230D01*
X127902800Y-115088332D01*
X127902800Y-114813148D01*
X127849114Y-114543250D01*
X127743805Y-114289013D01*
X127717687Y-114249925D01*
X128449447Y-114937093D01*
X130147686Y-116745534D01*
X131729021Y-118657040D01*
X133187212Y-120664067D01*
X133822573Y-121665235D01*
X133200004Y-121407359D01*
X132528255Y-121273740D01*
X131843345Y-121273740D01*
X131171596Y-121407359D01*
X130538823Y-121669462D01*
X129969342Y-122049978D01*
X129485038Y-122534282D01*
X129104522Y-123103763D01*
X128842419Y-123736536D01*
X128708800Y-124408285D01*
X128708800Y-125093195D01*
X128842419Y-125764944D01*
X129104522Y-126397717D01*
X129485038Y-126967198D01*
X129969342Y-127451502D01*
X130538823Y-127832018D01*
X131171596Y-128094121D01*
X131843345Y-128227740D01*
X132528255Y-128227740D01*
X133200004Y-128094121D01*
X133832777Y-127832018D01*
X134402258Y-127451502D01*
X134886562Y-126967198D01*
X135267078Y-126397717D01*
X135529181Y-125764944D01*
X135662800Y-125093195D01*
X135662800Y-124843801D01*
X135711648Y-124932655D01*
X136767930Y-127177370D01*
X137681182Y-129483980D01*
X138447798Y-131843381D01*
X139064753Y-134246263D01*
X139529613Y-136683143D01*
X139840542Y-139144403D01*
X139996314Y-141620329D01*
X139996314Y-144101151D01*
X139840542Y-146577077D01*
X139529613Y-149038337D01*
X139064753Y-151475217D01*
X138447798Y-153878099D01*
X137681182Y-156237500D01*
X136767930Y-158544110D01*
X135711648Y-160788825D01*
X135662800Y-160877679D01*
X135662800Y-160688285D01*
X135529181Y-160016536D01*
X135267078Y-159383763D01*
X134886562Y-158814282D01*
X134402258Y-158329978D01*
X133832777Y-157949462D01*
X133200004Y-157687359D01*
X132528255Y-157553740D01*
X131843345Y-157553740D01*
X131171596Y-157687359D01*
X130538823Y-157949462D01*
X129969342Y-158329978D01*
X129485038Y-158814282D01*
X129104522Y-159383763D01*
X128842419Y-160016536D01*
X128708800Y-160688285D01*
X128708800Y-161373195D01*
X128842419Y-162044944D01*
X129104522Y-162677717D01*
X129485038Y-163247198D01*
X129969342Y-163731502D01*
X130538823Y-164112018D01*
X131171596Y-164374121D01*
X131843345Y-164507740D01*
X132528255Y-164507740D01*
X133200004Y-164374121D01*
X133770917Y-164137641D01*
X133187212Y-165057413D01*
X132560254Y-165920347D01*
X132509114Y-165663250D01*
X132403805Y-165409013D01*
X132250920Y-165180205D01*
X132056335Y-164985620D01*
X131827527Y-164832735D01*
X131573290Y-164727426D01*
X131303392Y-164673740D01*
X131028208Y-164673740D01*
X130758310Y-164727426D01*
X130504073Y-164832735D01*
X130275265Y-164985620D01*
X130080680Y-165180205D01*
X129927795Y-165409013D01*
X129822486Y-165663250D01*
X129768800Y-165933148D01*
X129768800Y-166208332D01*
X129822486Y-166478230D01*
X129927795Y-166732467D01*
X130080680Y-166961275D01*
X130275265Y-167155860D01*
X130504073Y-167308745D01*
X130758310Y-167414054D01*
X131028208Y-167467740D01*
X131303392Y-167467740D01*
X131413501Y-167445838D01*
X130147686Y-168975946D01*
X128449447Y-170784387D01*
X126641006Y-172482626D01*
X124729500Y-174063961D01*
X122722473Y-175522152D01*
X120627846Y-176851443D01*
X118453885Y-178046588D01*
X116209170Y-179102870D01*
X113902560Y-180016122D01*
X111543159Y-180782738D01*
X109140277Y-181399693D01*
X106703397Y-181864553D01*
X104865872Y-182096686D01*
X104865872Y-180700740D01*
X104853612Y-180576258D01*
X104817302Y-180456560D01*
X104758337Y-180346246D01*
X104678985Y-180249555D01*
X104582294Y-180170203D01*
X104471980Y-180111238D01*
X104352282Y-180074928D01*
X104227800Y-180062668D01*
X102527800Y-180062668D01*
X102403318Y-180074928D01*
X102283620Y-180111238D01*
X102173306Y-180170203D01*
X102076615Y-180249555D01*
X101997263Y-180346246D01*
X101938298Y-180456560D01*
X101916287Y-180529120D01*
X101784432Y-180397265D01*
X101541211Y-180234750D01*
X101270958Y-180122808D01*
X100984060Y-180065740D01*
X100691540Y-180065740D01*
X100404642Y-180122808D01*
X100134389Y-180234750D01*
X99891168Y-180397265D01*
X99684325Y-180604108D01*
X99567800Y-180778500D01*
X99451275Y-180604108D01*
X99244432Y-180397265D01*
X99001211Y-180234750D01*
X98730958Y-180122808D01*
X98444060Y-180065740D01*
X98151540Y-180065740D01*
X97864642Y-180122808D01*
X97594389Y-180234750D01*
X97351168Y-180397265D01*
X97144325Y-180604108D01*
X96981810Y-180847329D01*
X96869868Y-181117582D01*
X96812800Y-181404480D01*
X96812800Y-181697000D01*
X96869868Y-181983898D01*
X96952964Y-182184510D01*
X96809463Y-182175482D01*
X94348203Y-181864553D01*
X91911323Y-181399693D01*
X89508441Y-180782738D01*
X87149040Y-180016122D01*
X84842430Y-179102870D01*
X82597715Y-178046588D01*
X80423754Y-176851443D01*
X78329127Y-175522152D01*
X76322100Y-174063961D01*
X74410594Y-172482626D01*
X72602153Y-170784387D01*
X70903914Y-168975946D01*
X69783848Y-167622018D01*
X75255800Y-167622018D01*
X75255800Y-167919462D01*
X75313829Y-168211191D01*
X75427656Y-168485993D01*
X75592907Y-168733309D01*
X75803231Y-168943633D01*
X76050547Y-169108884D01*
X76325349Y-169222711D01*
X76617078Y-169280740D01*
X76914522Y-169280740D01*
X77206251Y-169222711D01*
X77481053Y-169108884D01*
X77728369Y-168943633D01*
X77938693Y-168733309D01*
X78015800Y-168617910D01*
X78092907Y-168733309D01*
X78303231Y-168943633D01*
X78550547Y-169108884D01*
X78825349Y-169222711D01*
X79117078Y-169280740D01*
X79414522Y-169280740D01*
X79706251Y-169222711D01*
X79981053Y-169108884D01*
X80228369Y-168943633D01*
X80438693Y-168733309D01*
X80515800Y-168617910D01*
X80592907Y-168733309D01*
X80803231Y-168943633D01*
X81050547Y-169108884D01*
X81325349Y-169222711D01*
X81617078Y-169280740D01*
X81914522Y-169280740D01*
X82206251Y-169222711D01*
X82481053Y-169108884D01*
X82728369Y-168943633D01*
X82796826Y-168875176D01*
X82801298Y-168889920D01*
X82860263Y-169000234D01*
X82939615Y-169096925D01*
X83036306Y-169176277D01*
X83146620Y-169235242D01*
X83266318Y-169271552D01*
X83390800Y-169283812D01*
X85140800Y-169283812D01*
X85265282Y-169271552D01*
X85267958Y-169270740D01*
X109702889Y-169270740D01*
X109734457Y-169591256D01*
X109827948Y-169899455D01*
X109979769Y-170183492D01*
X110184086Y-170432454D01*
X110246487Y-170483665D01*
X110283562Y-170520740D01*
X110246486Y-170557816D01*
X110184086Y-170609026D01*
X109979769Y-170857988D01*
X109827948Y-171142025D01*
X109734457Y-171450224D01*
X109702889Y-171770740D01*
X109734457Y-172091256D01*
X109827948Y-172399455D01*
X109979769Y-172683492D01*
X110184086Y-172932454D01*
X110433048Y-173136771D01*
X110717085Y-173288592D01*
X111025284Y-173382083D01*
X111265478Y-173405740D01*
X111265481Y-173405740D01*
X111345800Y-173413651D01*
X111426119Y-173405740D01*
X114115481Y-173405740D01*
X114195800Y-173413651D01*
X114276119Y-173405740D01*
X116195481Y-173405740D01*
X116275800Y-173413651D01*
X116356119Y-173405740D01*
X118495480Y-173405740D01*
X118575800Y-173413651D01*
X118656119Y-173405740D01*
X118656122Y-173405740D01*
X118896316Y-173382083D01*
X119204515Y-173288592D01*
X119488552Y-173136771D01*
X119737514Y-172932454D01*
X119941831Y-172683492D01*
X120093652Y-172399455D01*
X120187143Y-172091256D01*
X120218711Y-171770740D01*
X120187143Y-171450224D01*
X120093652Y-171142025D01*
X119941831Y-170857988D01*
X119737514Y-170609026D01*
X119675118Y-170557820D01*
X119638038Y-170520740D01*
X119675113Y-170483665D01*
X119737514Y-170432454D01*
X119941831Y-170183492D01*
X120093652Y-169899455D01*
X120187143Y-169591256D01*
X120218711Y-169270740D01*
X120187143Y-168950224D01*
X120093652Y-168642025D01*
X119941831Y-168357988D01*
X119737514Y-168109026D01*
X119488552Y-167904709D01*
X119425173Y-167870832D01*
X119442435Y-167816980D01*
X118575800Y-166950345D01*
X118561658Y-166964488D01*
X118382053Y-166784883D01*
X118396195Y-166770740D01*
X118382053Y-166756598D01*
X118561658Y-166576993D01*
X118575800Y-166591135D01*
X118589943Y-166576993D01*
X118769548Y-166756598D01*
X118755405Y-166770740D01*
X119622040Y-167637375D01*
X119873668Y-167556715D01*
X120002067Y-167288411D01*
X120075655Y-167000214D01*
X120091604Y-166703197D01*
X120049301Y-166408777D01*
X119950372Y-166128266D01*
X119873668Y-165984765D01*
X119622042Y-165904106D01*
X119738067Y-165788081D01*
X119687498Y-165737512D01*
X119694980Y-165735242D01*
X119805294Y-165676277D01*
X119901985Y-165596925D01*
X119981337Y-165500234D01*
X120040302Y-165389920D01*
X120076612Y-165270222D01*
X120088872Y-165145740D01*
X120085800Y-164556490D01*
X119927050Y-164397740D01*
X118702800Y-164397740D01*
X118702800Y-164417740D01*
X118448800Y-164417740D01*
X118448800Y-164397740D01*
X117224550Y-164397740D01*
X117065800Y-164556490D01*
X117062728Y-165145740D01*
X117074988Y-165270222D01*
X117111298Y-165389920D01*
X117170263Y-165500234D01*
X117249615Y-165596925D01*
X117346306Y-165676277D01*
X117456620Y-165735242D01*
X117464102Y-165737512D01*
X117413533Y-165788081D01*
X117529558Y-165904106D01*
X117277932Y-165984765D01*
X117149533Y-166253069D01*
X117075945Y-166541266D01*
X117059996Y-166838283D01*
X117102299Y-167132703D01*
X117201228Y-167413214D01*
X117277932Y-167556715D01*
X117524459Y-167635740D01*
X116156119Y-167635740D01*
X116075800Y-167627829D01*
X115995481Y-167635740D01*
X113926119Y-167635740D01*
X113845799Y-167627829D01*
X113765480Y-167635740D01*
X112397141Y-167635740D01*
X112643668Y-167556715D01*
X112772067Y-167288411D01*
X112845655Y-167000214D01*
X112861604Y-166703197D01*
X112819301Y-166408777D01*
X112720372Y-166128266D01*
X112643668Y-165984765D01*
X112392042Y-165904106D01*
X112508067Y-165788081D01*
X112457498Y-165737512D01*
X112464980Y-165735242D01*
X112575294Y-165676277D01*
X112671985Y-165596925D01*
X112751337Y-165500234D01*
X112810302Y-165389920D01*
X112846612Y-165270222D01*
X112858872Y-165145740D01*
X112855800Y-164556490D01*
X112697050Y-164397740D01*
X111472800Y-164397740D01*
X111472800Y-164417740D01*
X111218800Y-164417740D01*
X111218800Y-164397740D01*
X109994550Y-164397740D01*
X109835800Y-164556490D01*
X109832728Y-165145740D01*
X109844988Y-165270222D01*
X109881298Y-165389920D01*
X109940263Y-165500234D01*
X110019615Y-165596925D01*
X110116306Y-165676277D01*
X110226620Y-165735242D01*
X110234102Y-165737512D01*
X110183533Y-165788081D01*
X110299558Y-165904106D01*
X110047932Y-165984765D01*
X109919533Y-166253069D01*
X109845945Y-166541266D01*
X109829996Y-166838283D01*
X109872299Y-167132703D01*
X109971228Y-167413214D01*
X110047932Y-167556715D01*
X110299560Y-167637375D01*
X111166195Y-166770740D01*
X111152053Y-166756598D01*
X111331658Y-166576993D01*
X111345800Y-166591135D01*
X111359943Y-166576993D01*
X111539548Y-166756598D01*
X111525405Y-166770740D01*
X111539548Y-166784883D01*
X111359943Y-166964488D01*
X111345800Y-166950345D01*
X110479165Y-167816980D01*
X110496427Y-167870832D01*
X110433048Y-167904709D01*
X110184086Y-168109026D01*
X109979769Y-168357988D01*
X109827948Y-168642025D01*
X109734457Y-168950224D01*
X109702889Y-169270740D01*
X85267958Y-169270740D01*
X85384980Y-169235242D01*
X85495294Y-169176277D01*
X85591985Y-169096925D01*
X85671337Y-169000234D01*
X85730302Y-168889920D01*
X85766612Y-168770222D01*
X85778872Y-168645740D01*
X85778872Y-166895740D01*
X85766612Y-166771258D01*
X85730302Y-166651560D01*
X85671337Y-166541246D01*
X85591985Y-166444555D01*
X85495294Y-166365203D01*
X85384980Y-166306238D01*
X85265282Y-166269928D01*
X85140800Y-166257668D01*
X83390800Y-166257668D01*
X83266318Y-166269928D01*
X83146620Y-166306238D01*
X83036306Y-166365203D01*
X82939615Y-166444555D01*
X82860263Y-166541246D01*
X82801298Y-166651560D01*
X82796826Y-166666304D01*
X82728369Y-166597847D01*
X82481053Y-166432596D01*
X82206251Y-166318769D01*
X81914522Y-166260740D01*
X81617078Y-166260740D01*
X81325349Y-166318769D01*
X81050547Y-166432596D01*
X80803231Y-166597847D01*
X80592907Y-166808171D01*
X80515800Y-166923570D01*
X80438693Y-166808171D01*
X80228369Y-166597847D01*
X79981053Y-166432596D01*
X79706251Y-166318769D01*
X79414522Y-166260740D01*
X79117078Y-166260740D01*
X78825349Y-166318769D01*
X78550547Y-166432596D01*
X78303231Y-166597847D01*
X78092907Y-166808171D01*
X78015800Y-166923570D01*
X77938693Y-166808171D01*
X77728369Y-166597847D01*
X77481053Y-166432596D01*
X77206251Y-166318769D01*
X76914522Y-166260740D01*
X76617078Y-166260740D01*
X76325349Y-166318769D01*
X76050547Y-166432596D01*
X75803231Y-166597847D01*
X75592907Y-166808171D01*
X75427656Y-167055487D01*
X75313829Y-167330289D01*
X75255800Y-167622018D01*
X69783848Y-167622018D01*
X69322579Y-167064440D01*
X67864388Y-165057413D01*
X67280683Y-164137641D01*
X67851596Y-164374121D01*
X68523345Y-164507740D01*
X69208255Y-164507740D01*
X69880004Y-164374121D01*
X70512777Y-164112018D01*
X71082258Y-163731502D01*
X71418020Y-163395740D01*
X109832728Y-163395740D01*
X109835800Y-163984990D01*
X109994550Y-164143740D01*
X111218800Y-164143740D01*
X111218800Y-162919490D01*
X111472800Y-162919490D01*
X111472800Y-164143740D01*
X112697050Y-164143740D01*
X112855800Y-163984990D01*
X112858872Y-163395740D01*
X117062728Y-163395740D01*
X117065800Y-163984990D01*
X117224550Y-164143740D01*
X118448800Y-164143740D01*
X118448800Y-162919490D01*
X118702800Y-162919490D01*
X118702800Y-164143740D01*
X119927050Y-164143740D01*
X120085800Y-163984990D01*
X120088872Y-163395740D01*
X120076612Y-163271258D01*
X120040302Y-163151560D01*
X119981337Y-163041246D01*
X119901985Y-162944555D01*
X119805294Y-162865203D01*
X119694980Y-162806238D01*
X119575282Y-162769928D01*
X119450800Y-162757668D01*
X118861550Y-162760740D01*
X118702800Y-162919490D01*
X118448800Y-162919490D01*
X118290050Y-162760740D01*
X117700800Y-162757668D01*
X117576318Y-162769928D01*
X117456620Y-162806238D01*
X117346306Y-162865203D01*
X117249615Y-162944555D01*
X117170263Y-163041246D01*
X117111298Y-163151560D01*
X117074988Y-163271258D01*
X117062728Y-163395740D01*
X112858872Y-163395740D01*
X112846612Y-163271258D01*
X112810302Y-163151560D01*
X112751337Y-163041246D01*
X112671985Y-162944555D01*
X112575294Y-162865203D01*
X112464980Y-162806238D01*
X112345282Y-162769928D01*
X112220800Y-162757668D01*
X111631550Y-162760740D01*
X111472800Y-162919490D01*
X111218800Y-162919490D01*
X111060050Y-162760740D01*
X110470800Y-162757668D01*
X110346318Y-162769928D01*
X110226620Y-162806238D01*
X110116306Y-162865203D01*
X110019615Y-162944555D01*
X109940263Y-163041246D01*
X109881298Y-163151560D01*
X109844988Y-163271258D01*
X109832728Y-163395740D01*
X71418020Y-163395740D01*
X71566562Y-163247198D01*
X71947078Y-162677717D01*
X72209181Y-162044944D01*
X72342800Y-161373195D01*
X72342800Y-160688285D01*
X72209181Y-160016536D01*
X71947078Y-159383763D01*
X71587582Y-158845740D01*
X75252728Y-158845740D01*
X75252728Y-160595740D01*
X75264988Y-160720222D01*
X75301298Y-160839920D01*
X75360263Y-160950234D01*
X75439615Y-161046925D01*
X75536306Y-161126277D01*
X75646620Y-161185242D01*
X75766318Y-161221552D01*
X75890800Y-161233812D01*
X77640800Y-161233812D01*
X77765282Y-161221552D01*
X77884980Y-161185242D01*
X77995294Y-161126277D01*
X78091985Y-161046925D01*
X78171337Y-160950234D01*
X78230302Y-160839920D01*
X78234774Y-160825176D01*
X78303231Y-160893633D01*
X78550547Y-161058884D01*
X78825349Y-161172711D01*
X79117078Y-161230740D01*
X79414522Y-161230740D01*
X79706251Y-161172711D01*
X79981053Y-161058884D01*
X80228369Y-160893633D01*
X80438693Y-160683309D01*
X80515800Y-160567910D01*
X80592907Y-160683309D01*
X80803231Y-160893633D01*
X81050547Y-161058884D01*
X81325349Y-161172711D01*
X81617078Y-161230740D01*
X81914522Y-161230740D01*
X82206251Y-161172711D01*
X82481053Y-161058884D01*
X82728369Y-160893633D01*
X82938693Y-160683309D01*
X83015800Y-160567910D01*
X83092907Y-160683309D01*
X83303231Y-160893633D01*
X83550547Y-161058884D01*
X83825349Y-161172711D01*
X84117078Y-161230740D01*
X84414522Y-161230740D01*
X84706251Y-161172711D01*
X84981053Y-161058884D01*
X85228369Y-160893633D01*
X85438693Y-160683309D01*
X85603944Y-160435993D01*
X85717771Y-160161191D01*
X85775800Y-159869462D01*
X85775800Y-159572018D01*
X85717771Y-159280289D01*
X85603944Y-159005487D01*
X85438693Y-158758171D01*
X85228369Y-158547847D01*
X84981053Y-158382596D01*
X84706251Y-158268769D01*
X84414522Y-158210740D01*
X84117078Y-158210740D01*
X83825349Y-158268769D01*
X83550547Y-158382596D01*
X83303231Y-158547847D01*
X83092907Y-158758171D01*
X83015800Y-158873570D01*
X82938693Y-158758171D01*
X82728369Y-158547847D01*
X82481053Y-158382596D01*
X82206251Y-158268769D01*
X81914522Y-158210740D01*
X81617078Y-158210740D01*
X81325349Y-158268769D01*
X81050547Y-158382596D01*
X80803231Y-158547847D01*
X80592907Y-158758171D01*
X80515800Y-158873570D01*
X80438693Y-158758171D01*
X80228369Y-158547847D01*
X79981053Y-158382596D01*
X79706251Y-158268769D01*
X79414522Y-158210740D01*
X79117078Y-158210740D01*
X78825349Y-158268769D01*
X78550547Y-158382596D01*
X78303231Y-158547847D01*
X78234774Y-158616304D01*
X78230302Y-158601560D01*
X78171337Y-158491246D01*
X78091985Y-158394555D01*
X77995294Y-158315203D01*
X77884980Y-158256238D01*
X77765282Y-158219928D01*
X77640800Y-158207668D01*
X75890800Y-158207668D01*
X75766318Y-158219928D01*
X75646620Y-158256238D01*
X75536306Y-158315203D01*
X75439615Y-158394555D01*
X75360263Y-158491246D01*
X75301298Y-158601560D01*
X75264988Y-158721258D01*
X75252728Y-158845740D01*
X71587582Y-158845740D01*
X71566562Y-158814282D01*
X71082258Y-158329978D01*
X70512777Y-157949462D01*
X69880004Y-157687359D01*
X69208255Y-157553740D01*
X68523345Y-157553740D01*
X67851596Y-157687359D01*
X67218823Y-157949462D01*
X66649342Y-158329978D01*
X66165038Y-158814282D01*
X65784522Y-159383763D01*
X65522419Y-160016536D01*
X65388800Y-160688285D01*
X65388800Y-160877679D01*
X65339952Y-160788825D01*
X64283670Y-158544110D01*
X63728559Y-157142060D01*
X63958208Y-157187740D01*
X64233392Y-157187740D01*
X64503290Y-157134054D01*
X64757527Y-157028745D01*
X64986335Y-156875860D01*
X65180920Y-156681275D01*
X65333805Y-156452467D01*
X65409194Y-156270461D01*
X92660800Y-156270461D01*
X92660800Y-156691019D01*
X92742847Y-157103496D01*
X92903788Y-157492042D01*
X93137437Y-157841723D01*
X93434817Y-158139103D01*
X93784498Y-158372752D01*
X94173044Y-158533693D01*
X94585521Y-158615740D01*
X95006079Y-158615740D01*
X95418556Y-158533693D01*
X95807102Y-158372752D01*
X96156783Y-158139103D01*
X96454163Y-157841723D01*
X96687812Y-157492042D01*
X96848753Y-157103496D01*
X96930800Y-156691019D01*
X96930800Y-156270461D01*
X96848753Y-155857984D01*
X96687812Y-155469438D01*
X96454163Y-155119757D01*
X96156783Y-154822377D01*
X95807102Y-154588728D01*
X95418556Y-154427787D01*
X95006079Y-154345740D01*
X94585521Y-154345740D01*
X94173044Y-154427787D01*
X93784498Y-154588728D01*
X93434817Y-154822377D01*
X93137437Y-155119757D01*
X92903788Y-155469438D01*
X92742847Y-155857984D01*
X92660800Y-156270461D01*
X65409194Y-156270461D01*
X65439114Y-156198230D01*
X65492800Y-155928332D01*
X65492800Y-155653148D01*
X65439114Y-155383250D01*
X65333805Y-155129013D01*
X65180920Y-154900205D01*
X64986335Y-154705620D01*
X64757527Y-154552735D01*
X64503290Y-154447426D01*
X64233392Y-154393740D01*
X63958208Y-154393740D01*
X63688310Y-154447426D01*
X63434073Y-154552735D01*
X63205265Y-154705620D01*
X63010680Y-154900205D01*
X62960369Y-154975500D01*
X62747290Y-154319707D01*
X89160800Y-154319707D01*
X89160800Y-154641773D01*
X89223632Y-154957652D01*
X89346882Y-155255203D01*
X89525813Y-155522992D01*
X89753548Y-155750727D01*
X90021337Y-155929658D01*
X90318888Y-156052908D01*
X90634767Y-156115740D01*
X90956833Y-156115740D01*
X91272712Y-156052908D01*
X91570263Y-155929658D01*
X91838052Y-155750727D01*
X92065787Y-155522992D01*
X92244718Y-155255203D01*
X92367968Y-154957652D01*
X92430800Y-154641773D01*
X92430800Y-154319707D01*
X97160800Y-154319707D01*
X97160800Y-154641773D01*
X97223632Y-154957652D01*
X97346882Y-155255203D01*
X97525813Y-155522992D01*
X97753548Y-155750727D01*
X98021337Y-155929658D01*
X98318888Y-156052908D01*
X98634767Y-156115740D01*
X98956833Y-156115740D01*
X99272712Y-156052908D01*
X99570263Y-155929658D01*
X99838052Y-155750727D01*
X100065787Y-155522992D01*
X100244718Y-155255203D01*
X100273450Y-155185838D01*
X107920800Y-155185838D01*
X107920800Y-155655642D01*
X108012454Y-156116419D01*
X108192240Y-156550461D01*
X108453250Y-156941089D01*
X108785451Y-157273290D01*
X109176079Y-157534300D01*
X109610121Y-157714086D01*
X110070898Y-157805740D01*
X110540702Y-157805740D01*
X111001479Y-157714086D01*
X111435521Y-157534300D01*
X111826149Y-157273290D01*
X112158350Y-156941089D01*
X112419360Y-156550461D01*
X112535339Y-156270461D01*
X123660800Y-156270461D01*
X123660800Y-156691019D01*
X123742847Y-157103496D01*
X123903788Y-157492042D01*
X124137437Y-157841723D01*
X124434817Y-158139103D01*
X124784498Y-158372752D01*
X125173044Y-158533693D01*
X125585521Y-158615740D01*
X126006079Y-158615740D01*
X126418556Y-158533693D01*
X126807102Y-158372752D01*
X127156783Y-158139103D01*
X127454163Y-157841723D01*
X127687812Y-157492042D01*
X127848753Y-157103496D01*
X127930800Y-156691019D01*
X127930800Y-156270461D01*
X127848753Y-155857984D01*
X127687812Y-155469438D01*
X127454163Y-155119757D01*
X127156783Y-154822377D01*
X126807102Y-154588728D01*
X126418556Y-154427787D01*
X126006079Y-154345740D01*
X125585521Y-154345740D01*
X125173044Y-154427787D01*
X124784498Y-154588728D01*
X124434817Y-154822377D01*
X124137437Y-155119757D01*
X123903788Y-155469438D01*
X123742847Y-155857984D01*
X123660800Y-156270461D01*
X112535339Y-156270461D01*
X112599146Y-156116419D01*
X112690800Y-155655642D01*
X112690800Y-155185838D01*
X112599146Y-154725061D01*
X112431243Y-154319707D01*
X120160800Y-154319707D01*
X120160800Y-154641773D01*
X120223632Y-154957652D01*
X120346882Y-155255203D01*
X120525813Y-155522992D01*
X120753548Y-155750727D01*
X121021337Y-155929658D01*
X121318888Y-156052908D01*
X121634767Y-156115740D01*
X121956833Y-156115740D01*
X122272712Y-156052908D01*
X122570263Y-155929658D01*
X122838052Y-155750727D01*
X123065787Y-155522992D01*
X123244718Y-155255203D01*
X123367968Y-154957652D01*
X123430800Y-154641773D01*
X123430800Y-154319707D01*
X128160800Y-154319707D01*
X128160800Y-154641773D01*
X128223632Y-154957652D01*
X128346882Y-155255203D01*
X128525813Y-155522992D01*
X128753548Y-155750727D01*
X129021337Y-155929658D01*
X129318888Y-156052908D01*
X129634767Y-156115740D01*
X129956833Y-156115740D01*
X130272712Y-156052908D01*
X130570263Y-155929658D01*
X130838052Y-155750727D01*
X131065787Y-155522992D01*
X131244718Y-155255203D01*
X131367968Y-154957652D01*
X131430800Y-154641773D01*
X131430800Y-154319707D01*
X131367968Y-154003828D01*
X131244718Y-153706277D01*
X131065787Y-153438488D01*
X130838052Y-153210753D01*
X130570263Y-153031822D01*
X130272712Y-152908572D01*
X129956833Y-152845740D01*
X129634767Y-152845740D01*
X129318888Y-152908572D01*
X129021337Y-153031822D01*
X128753548Y-153210753D01*
X128525813Y-153438488D01*
X128346882Y-153706277D01*
X128223632Y-154003828D01*
X128160800Y-154319707D01*
X123430800Y-154319707D01*
X123367968Y-154003828D01*
X123244718Y-153706277D01*
X123065787Y-153438488D01*
X122838052Y-153210753D01*
X122570263Y-153031822D01*
X122272712Y-152908572D01*
X121956833Y-152845740D01*
X121634767Y-152845740D01*
X121318888Y-152908572D01*
X121021337Y-153031822D01*
X120753548Y-153210753D01*
X120525813Y-153438488D01*
X120346882Y-153706277D01*
X120223632Y-154003828D01*
X120160800Y-154319707D01*
X112431243Y-154319707D01*
X112419360Y-154291019D01*
X112158350Y-153900391D01*
X111826149Y-153568190D01*
X111435521Y-153307180D01*
X111001479Y-153127394D01*
X110540702Y-153035740D01*
X110070898Y-153035740D01*
X109610121Y-153127394D01*
X109176079Y-153307180D01*
X108785451Y-153568190D01*
X108453250Y-153900391D01*
X108192240Y-154291019D01*
X108012454Y-154725061D01*
X107920800Y-155185838D01*
X100273450Y-155185838D01*
X100367968Y-154957652D01*
X100430800Y-154641773D01*
X100430800Y-154319707D01*
X100367968Y-154003828D01*
X100244718Y-153706277D01*
X100065787Y-153438488D01*
X99838052Y-153210753D01*
X99570263Y-153031822D01*
X99272712Y-152908572D01*
X98956833Y-152845740D01*
X98634767Y-152845740D01*
X98318888Y-152908572D01*
X98021337Y-153031822D01*
X97753548Y-153210753D01*
X97525813Y-153438488D01*
X97346882Y-153706277D01*
X97223632Y-154003828D01*
X97160800Y-154319707D01*
X92430800Y-154319707D01*
X92367968Y-154003828D01*
X92244718Y-153706277D01*
X92065787Y-153438488D01*
X91838052Y-153210753D01*
X91570263Y-153031822D01*
X91272712Y-152908572D01*
X90956833Y-152845740D01*
X90634767Y-152845740D01*
X90318888Y-152908572D01*
X90021337Y-153031822D01*
X89753548Y-153210753D01*
X89525813Y-153438488D01*
X89346882Y-153706277D01*
X89223632Y-154003828D01*
X89160800Y-154319707D01*
X62747290Y-154319707D01*
X62603802Y-153878099D01*
X61986847Y-151475217D01*
X61521987Y-149038337D01*
X61297180Y-147258801D01*
X86770800Y-147258801D01*
X86770800Y-147462679D01*
X86810574Y-147662638D01*
X86888595Y-147850996D01*
X86968737Y-147970938D01*
X86935574Y-148051000D01*
X86895800Y-148250959D01*
X86895800Y-148454837D01*
X86935574Y-148654796D01*
X87013595Y-148843154D01*
X87126863Y-149012672D01*
X87271026Y-149156835D01*
X87440544Y-149270103D01*
X87628902Y-149348124D01*
X87828861Y-149387898D01*
X88032739Y-149387898D01*
X88232698Y-149348124D01*
X88421056Y-149270103D01*
X88590574Y-149156835D01*
X88734737Y-149012672D01*
X88848005Y-148843154D01*
X88863502Y-148805740D01*
X98562089Y-148805740D01*
X98606026Y-148849677D01*
X98775544Y-148962945D01*
X98963902Y-149040966D01*
X99163861Y-149080740D01*
X99367739Y-149080740D01*
X99567698Y-149040966D01*
X99756056Y-148962945D01*
X99925574Y-148849677D01*
X100069737Y-148705514D01*
X100183005Y-148535996D01*
X100261026Y-148347638D01*
X100300800Y-148147679D01*
X100300800Y-147943801D01*
X100261026Y-147743842D01*
X100183005Y-147555484D01*
X100069737Y-147385966D01*
X99925574Y-147241803D01*
X99756056Y-147128535D01*
X99567698Y-147050514D01*
X99367739Y-147010740D01*
X99347670Y-147010740D01*
X99273005Y-146830484D01*
X99175064Y-146683905D01*
X99735510Y-146916049D01*
X100437784Y-147055740D01*
X101153816Y-147055740D01*
X101856090Y-146916049D01*
X102517618Y-146642035D01*
X103112977Y-146244229D01*
X103619289Y-145737917D01*
X104017095Y-145142558D01*
X104291109Y-144481030D01*
X104430800Y-143778756D01*
X104430800Y-143062724D01*
X104292771Y-142368801D01*
X115000800Y-142368801D01*
X115000800Y-142572679D01*
X115040574Y-142772638D01*
X115118595Y-142960996D01*
X115231863Y-143130514D01*
X115376026Y-143274677D01*
X115545544Y-143387945D01*
X115733902Y-143465966D01*
X115933861Y-143505740D01*
X115980800Y-143505740D01*
X115980800Y-143542679D01*
X116020574Y-143742638D01*
X116098595Y-143930996D01*
X116211863Y-144100514D01*
X116356026Y-144244677D01*
X116525544Y-144357945D01*
X116713902Y-144435966D01*
X116913861Y-144475740D01*
X116975998Y-144475740D01*
X117412000Y-144911742D01*
X117435799Y-144940741D01*
X117464797Y-144964539D01*
X117551523Y-145035714D01*
X117639962Y-145082986D01*
X117683553Y-145106286D01*
X117826814Y-145149743D01*
X117832634Y-145150316D01*
X117835263Y-145155234D01*
X117914615Y-145251925D01*
X118011306Y-145331277D01*
X118055800Y-145355060D01*
X118055801Y-145952801D01*
X118051306Y-145955203D01*
X117954615Y-146034555D01*
X117875263Y-146131246D01*
X117816298Y-146241560D01*
X117779988Y-146361258D01*
X117767728Y-146485740D01*
X117767728Y-147235740D01*
X117779988Y-147360222D01*
X117816298Y-147479920D01*
X117875263Y-147590234D01*
X117954615Y-147686925D01*
X118051306Y-147766277D01*
X118161620Y-147825242D01*
X118281318Y-147861552D01*
X118405800Y-147873812D01*
X119205800Y-147873812D01*
X119330282Y-147861552D01*
X119449980Y-147825242D01*
X119555800Y-147768679D01*
X119661620Y-147825242D01*
X119781318Y-147861552D01*
X119905800Y-147873812D01*
X120020050Y-147870740D01*
X120178800Y-147711990D01*
X120178800Y-146987740D01*
X120432800Y-146987740D01*
X120432800Y-147711990D01*
X120591550Y-147870740D01*
X120705800Y-147873812D01*
X120830282Y-147861552D01*
X120949980Y-147825242D01*
X121060294Y-147766277D01*
X121156985Y-147686925D01*
X121236337Y-147590234D01*
X121295302Y-147479920D01*
X121331612Y-147360222D01*
X121343872Y-147235740D01*
X121340800Y-147146490D01*
X121182050Y-146987740D01*
X120432800Y-146987740D01*
X120178800Y-146987740D01*
X120158800Y-146987740D01*
X120158800Y-146733740D01*
X120178800Y-146733740D01*
X120178800Y-146713740D01*
X120432800Y-146713740D01*
X120432800Y-146733740D01*
X121182050Y-146733740D01*
X121340800Y-146574990D01*
X121343872Y-146485740D01*
X121331612Y-146361258D01*
X121295302Y-146241560D01*
X121275655Y-146204804D01*
X121395574Y-146124677D01*
X121539737Y-145980514D01*
X121653005Y-145810996D01*
X121731026Y-145622638D01*
X121770800Y-145422679D01*
X121770800Y-145218801D01*
X121731026Y-145018842D01*
X121653005Y-144830484D01*
X121539737Y-144660966D01*
X121395574Y-144516803D01*
X121342393Y-144481269D01*
X121390282Y-144476552D01*
X121509980Y-144440242D01*
X121620294Y-144381277D01*
X121716985Y-144301925D01*
X121796337Y-144205234D01*
X121855302Y-144094920D01*
X121891612Y-143975222D01*
X121903872Y-143850740D01*
X121900800Y-143736490D01*
X121742050Y-143577740D01*
X120942800Y-143577740D01*
X120942800Y-143597740D01*
X120688800Y-143597740D01*
X120688800Y-143577740D01*
X119889550Y-143577740D01*
X119828933Y-143638357D01*
X119815800Y-143637064D01*
X119790821Y-143639524D01*
X119716985Y-143549555D01*
X119620294Y-143470203D01*
X119583882Y-143450740D01*
X119620294Y-143431277D01*
X119716985Y-143351925D01*
X119796337Y-143255234D01*
X119804943Y-143239133D01*
X119889550Y-143323740D01*
X120688800Y-143323740D01*
X120688800Y-142574490D01*
X120942800Y-142574490D01*
X120942800Y-143323740D01*
X121742050Y-143323740D01*
X121900800Y-143164990D01*
X121903872Y-143050740D01*
X121891612Y-142926258D01*
X121855302Y-142806560D01*
X121796337Y-142696246D01*
X121716985Y-142599555D01*
X121620294Y-142520203D01*
X121509980Y-142461238D01*
X121390282Y-142424928D01*
X121265800Y-142412668D01*
X121101550Y-142415740D01*
X120942800Y-142574490D01*
X120688800Y-142574490D01*
X120530050Y-142415740D01*
X120365800Y-142412668D01*
X120241318Y-142424928D01*
X120121620Y-142461238D01*
X120011306Y-142520203D01*
X119914615Y-142599555D01*
X119903872Y-142612645D01*
X119903872Y-142100740D01*
X119891612Y-141976258D01*
X119855302Y-141856560D01*
X119796337Y-141746246D01*
X119732780Y-141668801D01*
X129340800Y-141668801D01*
X129340800Y-141872679D01*
X129380574Y-142072638D01*
X129458595Y-142260996D01*
X129571863Y-142430514D01*
X129716026Y-142574677D01*
X129885544Y-142687945D01*
X130073902Y-142765966D01*
X130273861Y-142805740D01*
X130335998Y-142805740D01*
X130502001Y-142971742D01*
X130525799Y-143000741D01*
X130641524Y-143095714D01*
X130773553Y-143166286D01*
X130916814Y-143209743D01*
X131028467Y-143220740D01*
X131028476Y-143220740D01*
X131065799Y-143224416D01*
X131103122Y-143220740D01*
X131659782Y-143220740D01*
X131734615Y-143311925D01*
X131831306Y-143391277D01*
X131867718Y-143410740D01*
X131831306Y-143430203D01*
X131734615Y-143509555D01*
X131659782Y-143600740D01*
X131571534Y-143600740D01*
X131426056Y-143503535D01*
X131237698Y-143425514D01*
X131037739Y-143385740D01*
X130833861Y-143385740D01*
X130633902Y-143425514D01*
X130445544Y-143503535D01*
X130276026Y-143616803D01*
X130131863Y-143760966D01*
X130018595Y-143930484D01*
X129940574Y-144118842D01*
X129900800Y-144318801D01*
X129900800Y-144522679D01*
X129940574Y-144722638D01*
X130018595Y-144910996D01*
X130131863Y-145080514D01*
X130276026Y-145224677D01*
X130445544Y-145337945D01*
X130633902Y-145415966D01*
X130833861Y-145455740D01*
X131037739Y-145455740D01*
X131237698Y-145415966D01*
X131426056Y-145337945D01*
X131595574Y-145224677D01*
X131677690Y-145142561D01*
X131734615Y-145211925D01*
X131831306Y-145291277D01*
X131875800Y-145315060D01*
X131875801Y-146205073D01*
X131856298Y-146241560D01*
X131819988Y-146361258D01*
X131807728Y-146485740D01*
X131807728Y-147235740D01*
X131819988Y-147360222D01*
X131856298Y-147479920D01*
X131915263Y-147590234D01*
X131994615Y-147686925D01*
X132091306Y-147766277D01*
X132201620Y-147825242D01*
X132321318Y-147861552D01*
X132445800Y-147873812D01*
X133245800Y-147873812D01*
X133370282Y-147861552D01*
X133489980Y-147825242D01*
X133595800Y-147768679D01*
X133701620Y-147825242D01*
X133821318Y-147861552D01*
X133945800Y-147873812D01*
X134060050Y-147870740D01*
X134218800Y-147711990D01*
X134218800Y-146987740D01*
X134472800Y-146987740D01*
X134472800Y-147711990D01*
X134631550Y-147870740D01*
X134745800Y-147873812D01*
X134870282Y-147861552D01*
X134989980Y-147825242D01*
X135100294Y-147766277D01*
X135196985Y-147686925D01*
X135276337Y-147590234D01*
X135335302Y-147479920D01*
X135371612Y-147360222D01*
X135383872Y-147235740D01*
X135380800Y-147146490D01*
X135222050Y-146987740D01*
X134472800Y-146987740D01*
X134218800Y-146987740D01*
X134198800Y-146987740D01*
X134198800Y-146733740D01*
X134218800Y-146733740D01*
X134218800Y-146009490D01*
X134472800Y-146009490D01*
X134472800Y-146733740D01*
X135222050Y-146733740D01*
X135380800Y-146574990D01*
X135383872Y-146485740D01*
X135371612Y-146361258D01*
X135335302Y-146241560D01*
X135276337Y-146131246D01*
X135196985Y-146034555D01*
X135100294Y-145955203D01*
X134989980Y-145896238D01*
X134870282Y-145859928D01*
X134745800Y-145847668D01*
X134631550Y-145850740D01*
X134472800Y-146009490D01*
X134218800Y-146009490D01*
X134060050Y-145850740D01*
X133945800Y-145847668D01*
X133821318Y-145859928D01*
X133701620Y-145896238D01*
X133595800Y-145952801D01*
X133489980Y-145896238D01*
X133395800Y-145867669D01*
X133395800Y-145315060D01*
X133440294Y-145291277D01*
X133536985Y-145211925D01*
X133616337Y-145115234D01*
X133675302Y-145004920D01*
X133711612Y-144885222D01*
X133723872Y-144760740D01*
X133723872Y-144248835D01*
X133734615Y-144261925D01*
X133831306Y-144341277D01*
X133941620Y-144400242D01*
X134061318Y-144436552D01*
X134185800Y-144448812D01*
X134350050Y-144445740D01*
X134508800Y-144286990D01*
X134508800Y-143537740D01*
X134762800Y-143537740D01*
X134762800Y-144286990D01*
X134921550Y-144445740D01*
X135085800Y-144448812D01*
X135210282Y-144436552D01*
X135329980Y-144400242D01*
X135440294Y-144341277D01*
X135536985Y-144261925D01*
X135616337Y-144165234D01*
X135675302Y-144054920D01*
X135711612Y-143935222D01*
X135723872Y-143810740D01*
X135720800Y-143696490D01*
X135562050Y-143537740D01*
X134762800Y-143537740D01*
X134508800Y-143537740D01*
X133709550Y-143537740D01*
X133624943Y-143622347D01*
X133616337Y-143606246D01*
X133536985Y-143509555D01*
X133440294Y-143430203D01*
X133403882Y-143410740D01*
X133440294Y-143391277D01*
X133536985Y-143311925D01*
X133616337Y-143215234D01*
X133624943Y-143199133D01*
X133709550Y-143283740D01*
X134508800Y-143283740D01*
X134508800Y-142534490D01*
X134762800Y-142534490D01*
X134762800Y-143283740D01*
X135562050Y-143283740D01*
X135720800Y-143124990D01*
X135723872Y-143010740D01*
X135711612Y-142886258D01*
X135675302Y-142766560D01*
X135616337Y-142656246D01*
X135536985Y-142559555D01*
X135440294Y-142480203D01*
X135329980Y-142421238D01*
X135210282Y-142384928D01*
X135085800Y-142372668D01*
X134921550Y-142375740D01*
X134762800Y-142534490D01*
X134508800Y-142534490D01*
X134350050Y-142375740D01*
X134185800Y-142372668D01*
X134061318Y-142384928D01*
X133941620Y-142421238D01*
X133831306Y-142480203D01*
X133734615Y-142559555D01*
X133723872Y-142572645D01*
X133723872Y-142060740D01*
X133711612Y-141936258D01*
X133675302Y-141816560D01*
X133616337Y-141706246D01*
X133536985Y-141609555D01*
X133440294Y-141530203D01*
X133329980Y-141471238D01*
X133210282Y-141434928D01*
X133085800Y-141422668D01*
X132185800Y-141422668D01*
X132061318Y-141434928D01*
X131941620Y-141471238D01*
X131831306Y-141530203D01*
X131734615Y-141609555D01*
X131659782Y-141700740D01*
X131410800Y-141700740D01*
X131410800Y-141668801D01*
X131371026Y-141468842D01*
X131293005Y-141280484D01*
X131179737Y-141110966D01*
X131035574Y-140966803D01*
X130866056Y-140853535D01*
X130677698Y-140775514D01*
X130477739Y-140735740D01*
X130273861Y-140735740D01*
X130073902Y-140775514D01*
X129885544Y-140853535D01*
X129716026Y-140966803D01*
X129571863Y-141110966D01*
X129458595Y-141280484D01*
X129380574Y-141468842D01*
X129340800Y-141668801D01*
X119732780Y-141668801D01*
X119716985Y-141649555D01*
X119620294Y-141570203D01*
X119509980Y-141511238D01*
X119390282Y-141474928D01*
X119265800Y-141462668D01*
X118365800Y-141462668D01*
X118241318Y-141474928D01*
X118121620Y-141511238D01*
X118011306Y-141570203D01*
X117914615Y-141649555D01*
X117839782Y-141740740D01*
X116769511Y-141740740D01*
X116695574Y-141666803D01*
X116526056Y-141553535D01*
X116337698Y-141475514D01*
X116137739Y-141435740D01*
X115933861Y-141435740D01*
X115733902Y-141475514D01*
X115545544Y-141553535D01*
X115376026Y-141666803D01*
X115231863Y-141810966D01*
X115118595Y-141980484D01*
X115040574Y-142168842D01*
X115000800Y-142368801D01*
X104292771Y-142368801D01*
X104291109Y-142360450D01*
X104017095Y-141698922D01*
X103619289Y-141103563D01*
X103112977Y-140597251D01*
X102517618Y-140199445D01*
X101856090Y-139925431D01*
X101153816Y-139785740D01*
X100437784Y-139785740D01*
X99735510Y-139925431D01*
X99073982Y-140199445D01*
X98478623Y-140597251D01*
X97972311Y-141103563D01*
X97574505Y-141698922D01*
X97300491Y-142360450D01*
X97160800Y-143062724D01*
X97160800Y-143778756D01*
X97300491Y-144481030D01*
X97574505Y-145142558D01*
X97972311Y-145737917D01*
X98478623Y-146244229D01*
X98575934Y-146309250D01*
X98457739Y-146285740D01*
X98253861Y-146285740D01*
X98053902Y-146325514D01*
X97865544Y-146403535D01*
X97696026Y-146516803D01*
X97652089Y-146560740D01*
X88469511Y-146560740D01*
X88465574Y-146556803D01*
X88296056Y-146443535D01*
X88107698Y-146365514D01*
X87907739Y-146325740D01*
X87703861Y-146325740D01*
X87503902Y-146365514D01*
X87315544Y-146443535D01*
X87146026Y-146556803D01*
X87001863Y-146700966D01*
X86888595Y-146870484D01*
X86810574Y-147058842D01*
X86770800Y-147258801D01*
X61297180Y-147258801D01*
X61211058Y-146577077D01*
X61055286Y-144101151D01*
X61055286Y-141620329D01*
X61211058Y-139144403D01*
X61521987Y-136683143D01*
X61986847Y-134246263D01*
X62001600Y-134188801D01*
X62770800Y-134188801D01*
X62770800Y-134392679D01*
X62810574Y-134592638D01*
X62888595Y-134780996D01*
X63001863Y-134950514D01*
X63045801Y-134994452D01*
X63045800Y-144087029D01*
X63001863Y-144130966D01*
X62888595Y-144300484D01*
X62810574Y-144488842D01*
X62770800Y-144688801D01*
X62770800Y-144892679D01*
X62810574Y-145092638D01*
X62888595Y-145280996D01*
X63001863Y-145450514D01*
X63146026Y-145594677D01*
X63315544Y-145707945D01*
X63503902Y-145785966D01*
X63703861Y-145825740D01*
X63907739Y-145825740D01*
X64107698Y-145785966D01*
X64296056Y-145707945D01*
X64465574Y-145594677D01*
X64609737Y-145450514D01*
X64723005Y-145280996D01*
X64801026Y-145092638D01*
X64826646Y-144963838D01*
X64838595Y-144992686D01*
X64951863Y-145162204D01*
X65096026Y-145306367D01*
X65265544Y-145419635D01*
X65453902Y-145497656D01*
X65653861Y-145537430D01*
X65857739Y-145537430D01*
X66057698Y-145497656D01*
X66246056Y-145419635D01*
X66415574Y-145306367D01*
X66559737Y-145162204D01*
X66673005Y-144992686D01*
X66713162Y-144895740D01*
X66857739Y-144895740D01*
X67057698Y-144855966D01*
X67246056Y-144777945D01*
X67415574Y-144664677D01*
X67559737Y-144520514D01*
X67673005Y-144350996D01*
X67751026Y-144162638D01*
X67790800Y-143962679D01*
X67790800Y-143758801D01*
X67751026Y-143558842D01*
X67673005Y-143370484D01*
X67559737Y-143200966D01*
X67515800Y-143157029D01*
X67515800Y-142831964D01*
X67519476Y-142794641D01*
X67515800Y-142757318D01*
X67515800Y-142757309D01*
X67504803Y-142645656D01*
X67461346Y-142502395D01*
X67390774Y-142370366D01*
X67295801Y-142254641D01*
X67266804Y-142230844D01*
X66532941Y-141496982D01*
X66506949Y-141470990D01*
X66506949Y-134405541D01*
X66532936Y-134379554D01*
X66561940Y-134355751D01*
X66656913Y-134240026D01*
X66727485Y-134107997D01*
X66770942Y-133964736D01*
X66781939Y-133853083D01*
X66785616Y-133815750D01*
X66781939Y-133778417D01*
X66781939Y-133198831D01*
X66825876Y-133154894D01*
X66939144Y-132985376D01*
X67017165Y-132797018D01*
X67056939Y-132597059D01*
X67056939Y-132393181D01*
X67017165Y-132193222D01*
X66939144Y-132004864D01*
X66825876Y-131835346D01*
X66681713Y-131691183D01*
X66512195Y-131577915D01*
X66323837Y-131499894D01*
X66123878Y-131460120D01*
X65920000Y-131460120D01*
X65720041Y-131499894D01*
X65531683Y-131577915D01*
X65362165Y-131691183D01*
X65218002Y-131835346D01*
X65104734Y-132004864D01*
X65026713Y-132193222D01*
X65012810Y-132263119D01*
X64995041Y-132266653D01*
X64806683Y-132344674D01*
X64637165Y-132457942D01*
X64493002Y-132602105D01*
X64379734Y-132771623D01*
X64301713Y-132959981D01*
X64261939Y-133159940D01*
X64261939Y-133359403D01*
X64107698Y-133295514D01*
X63907739Y-133255740D01*
X63703861Y-133255740D01*
X63503902Y-133295514D01*
X63315544Y-133373535D01*
X63146026Y-133486803D01*
X63001863Y-133630966D01*
X62888595Y-133800484D01*
X62810574Y-133988842D01*
X62770800Y-134188801D01*
X62001600Y-134188801D01*
X62603802Y-131843381D01*
X63370418Y-129483980D01*
X64283670Y-127177370D01*
X65339952Y-124932655D01*
X65388800Y-124843801D01*
X65388800Y-125093195D01*
X65522419Y-125764944D01*
X65784522Y-126397717D01*
X66165038Y-126967198D01*
X66649342Y-127451502D01*
X67218823Y-127832018D01*
X67851596Y-128094121D01*
X68523345Y-128227740D01*
X69208255Y-128227740D01*
X69880004Y-128094121D01*
X70512777Y-127832018D01*
X71082258Y-127451502D01*
X71566562Y-126967198D01*
X71719641Y-126738100D01*
X71861040Y-126879499D01*
X72030558Y-126992767D01*
X72218916Y-127070788D01*
X72321075Y-127091109D01*
X72369715Y-127208535D01*
X72482983Y-127378053D01*
X72528198Y-127423268D01*
X72495800Y-127586148D01*
X72495800Y-127790026D01*
X72535574Y-127989985D01*
X72613595Y-128178343D01*
X72726863Y-128347861D01*
X72871026Y-128492024D01*
X73040544Y-128605292D01*
X73228902Y-128683313D01*
X73385212Y-128714405D01*
X73385213Y-133777626D01*
X73331863Y-133830976D01*
X73218595Y-134000494D01*
X73140574Y-134188852D01*
X73100800Y-134388811D01*
X73100800Y-134592689D01*
X73140574Y-134792648D01*
X73218595Y-134981006D01*
X73331863Y-135150524D01*
X73476026Y-135294687D01*
X73645544Y-135407955D01*
X73833902Y-135485976D01*
X74015302Y-135522058D01*
X73997945Y-135536303D01*
X73949893Y-135575738D01*
X73926095Y-135604737D01*
X73760578Y-135770253D01*
X73698441Y-135770253D01*
X73498482Y-135810027D01*
X73310124Y-135888048D01*
X73140606Y-136001316D01*
X72996443Y-136145479D01*
X72883175Y-136314997D01*
X72805154Y-136503355D01*
X72765380Y-136703314D01*
X72765380Y-136907192D01*
X72805154Y-137107151D01*
X72883175Y-137295509D01*
X72996443Y-137465027D01*
X73140606Y-137609190D01*
X73310124Y-137722458D01*
X73498482Y-137800479D01*
X73698441Y-137840253D01*
X73902319Y-137840253D01*
X74003480Y-137820131D01*
X74003481Y-143451132D01*
X74002042Y-143465740D01*
X73923861Y-143465740D01*
X73723902Y-143505514D01*
X73535544Y-143583535D01*
X73366026Y-143696803D01*
X73221863Y-143840966D01*
X73108595Y-144010484D01*
X73030574Y-144198842D01*
X72990800Y-144398801D01*
X72990800Y-144602679D01*
X73030574Y-144802638D01*
X73108595Y-144990996D01*
X73221863Y-145160514D01*
X73366026Y-145304677D01*
X73535544Y-145417945D01*
X73723902Y-145495966D01*
X73923861Y-145535740D01*
X74035283Y-145535740D01*
X74035283Y-145567679D01*
X74075057Y-145767638D01*
X74153078Y-145955996D01*
X74266346Y-146125514D01*
X74410509Y-146269677D01*
X74580027Y-146382945D01*
X74768385Y-146460966D01*
X74968344Y-146500740D01*
X75172222Y-146500740D01*
X75372181Y-146460966D01*
X75560539Y-146382945D01*
X75730057Y-146269677D01*
X75773994Y-146225740D01*
X80142089Y-146225740D01*
X80186026Y-146269677D01*
X80355544Y-146382945D01*
X80543902Y-146460966D01*
X80743861Y-146500740D01*
X80947739Y-146500740D01*
X81147698Y-146460966D01*
X81336056Y-146382945D01*
X81505574Y-146269677D01*
X81649737Y-146125514D01*
X81763005Y-145955996D01*
X81841026Y-145767638D01*
X81880800Y-145567679D01*
X81880800Y-145363801D01*
X81841026Y-145163842D01*
X81763005Y-144975484D01*
X81649737Y-144805966D01*
X81505574Y-144661803D01*
X81336056Y-144548535D01*
X81147698Y-144470514D01*
X81053603Y-144451797D01*
X81051026Y-144438842D01*
X80973005Y-144250484D01*
X80859737Y-144080966D01*
X80715574Y-143936803D01*
X80546056Y-143823535D01*
X80357698Y-143745514D01*
X80157739Y-143705740D01*
X79953861Y-143705740D01*
X79753902Y-143745514D01*
X79565544Y-143823535D01*
X79396026Y-143936803D01*
X79352089Y-143980740D01*
X78071661Y-143980740D01*
X78081202Y-143932776D01*
X78081202Y-143728898D01*
X78041428Y-143528939D01*
X77963407Y-143340581D01*
X77929956Y-143290518D01*
X77934803Y-143274540D01*
X77945800Y-143162887D01*
X77945800Y-143162877D01*
X77949476Y-143125555D01*
X77945800Y-143088232D01*
X77945800Y-139158802D01*
X79510800Y-139158802D01*
X79510800Y-139362680D01*
X79550574Y-139562639D01*
X79628595Y-139750997D01*
X79741863Y-139920515D01*
X79886026Y-140064678D01*
X80055544Y-140177946D01*
X80243902Y-140255967D01*
X80443861Y-140295741D01*
X80647739Y-140295741D01*
X80847698Y-140255967D01*
X81036056Y-140177946D01*
X81084254Y-140145741D01*
X83389223Y-140145741D01*
X86839265Y-143595784D01*
X86850574Y-143652638D01*
X86928595Y-143840996D01*
X87041863Y-144010514D01*
X87186026Y-144154677D01*
X87355544Y-144267945D01*
X87543902Y-144345966D01*
X87606505Y-144358419D01*
X87519334Y-144445590D01*
X87406066Y-144615108D01*
X87328045Y-144803466D01*
X87288271Y-145003425D01*
X87288271Y-145207303D01*
X87328045Y-145407262D01*
X87406066Y-145595620D01*
X87519334Y-145765138D01*
X87663497Y-145909301D01*
X87833015Y-146022569D01*
X88021373Y-146100590D01*
X88221332Y-146140364D01*
X88425210Y-146140364D01*
X88625169Y-146100590D01*
X88813527Y-146022569D01*
X88983045Y-145909301D01*
X89127208Y-145765138D01*
X89240476Y-145595620D01*
X89318497Y-145407262D01*
X89358271Y-145207303D01*
X89358271Y-145129590D01*
X89428816Y-144997612D01*
X89472273Y-144854351D01*
X89483270Y-144742698D01*
X89483270Y-144742688D01*
X89486946Y-144705366D01*
X89483270Y-144668043D01*
X89483270Y-139937423D01*
X89500178Y-139920515D01*
X89613446Y-139750997D01*
X89691467Y-139562639D01*
X89731241Y-139362680D01*
X89731241Y-139158802D01*
X89691467Y-138958843D01*
X89613446Y-138770485D01*
X89586650Y-138730382D01*
X89633005Y-138661007D01*
X89711026Y-138472649D01*
X89750800Y-138272690D01*
X89750800Y-138068812D01*
X89711026Y-137868853D01*
X89633005Y-137680495D01*
X89519737Y-137510977D01*
X89475800Y-137467040D01*
X89475800Y-136474452D01*
X89519737Y-136430515D01*
X89633005Y-136260997D01*
X89711026Y-136072639D01*
X89750800Y-135872680D01*
X89750800Y-135668802D01*
X114920800Y-135668802D01*
X114920800Y-135872680D01*
X114960574Y-136072639D01*
X115038595Y-136260997D01*
X115151863Y-136430515D01*
X115195800Y-136474452D01*
X115195801Y-137547028D01*
X115181863Y-137560966D01*
X115068595Y-137730484D01*
X114990574Y-137918842D01*
X114950800Y-138118801D01*
X114950800Y-138322679D01*
X114990574Y-138522638D01*
X115068595Y-138710996D01*
X115181863Y-138880514D01*
X115326026Y-139024677D01*
X115495544Y-139137945D01*
X115683902Y-139215966D01*
X115883861Y-139255740D01*
X116087739Y-139255740D01*
X116287698Y-139215966D01*
X116476056Y-139137945D01*
X116645574Y-139024677D01*
X116789737Y-138880514D01*
X116903005Y-138710996D01*
X116981026Y-138522638D01*
X117020800Y-138322679D01*
X117020800Y-138118801D01*
X116981026Y-137918842D01*
X116903005Y-137730484D01*
X116789737Y-137560966D01*
X116715800Y-137487029D01*
X116715800Y-136474452D01*
X116759737Y-136430515D01*
X116873005Y-136260997D01*
X116951026Y-136072639D01*
X116990800Y-135872680D01*
X116990800Y-135668802D01*
X116951026Y-135468843D01*
X116873005Y-135280485D01*
X116759737Y-135110967D01*
X116615574Y-134966804D01*
X116446056Y-134853536D01*
X116257698Y-134775515D01*
X116057739Y-134735741D01*
X115853861Y-134735741D01*
X115653902Y-134775515D01*
X115465544Y-134853536D01*
X115296026Y-134966804D01*
X115151863Y-135110967D01*
X115038595Y-135280485D01*
X114960574Y-135468843D01*
X114920800Y-135668802D01*
X89750800Y-135668802D01*
X89711026Y-135468843D01*
X89633005Y-135280485D01*
X89519737Y-135110967D01*
X89375574Y-134966804D01*
X89206056Y-134853536D01*
X89017698Y-134775515D01*
X88817739Y-134735741D01*
X88613861Y-134735741D01*
X88413902Y-134775515D01*
X88225544Y-134853536D01*
X88056026Y-134966804D01*
X87911863Y-135110967D01*
X87798595Y-135280485D01*
X87720574Y-135468843D01*
X87680800Y-135668802D01*
X87680800Y-135872680D01*
X87720574Y-136072639D01*
X87798595Y-136260997D01*
X87911863Y-136430515D01*
X87955801Y-136474453D01*
X87955800Y-137467040D01*
X87911863Y-137510977D01*
X87798595Y-137680495D01*
X87720574Y-137868853D01*
X87680800Y-138068812D01*
X87680800Y-138272690D01*
X87720574Y-138472649D01*
X87798595Y-138661007D01*
X87825391Y-138701110D01*
X87779036Y-138770485D01*
X87701015Y-138958843D01*
X87661241Y-139158802D01*
X87661241Y-139362680D01*
X87701015Y-139562639D01*
X87779036Y-139750997D01*
X87892304Y-139920515D01*
X87963271Y-139991482D01*
X87963270Y-142216632D01*
X84412335Y-138665697D01*
X84384618Y-138631924D01*
X84249860Y-138521330D01*
X84096114Y-138439152D01*
X83929291Y-138388546D01*
X83799278Y-138375741D01*
X83799270Y-138375741D01*
X83755801Y-138371460D01*
X83712332Y-138375741D01*
X81084254Y-138375741D01*
X81036056Y-138343536D01*
X80847698Y-138265515D01*
X80647739Y-138225741D01*
X80443861Y-138225741D01*
X80243902Y-138265515D01*
X80055544Y-138343536D01*
X79886026Y-138456804D01*
X79741863Y-138600967D01*
X79628595Y-138770485D01*
X79550574Y-138958843D01*
X79510800Y-139158802D01*
X77945800Y-139158802D01*
X77945800Y-137255061D01*
X77949476Y-137217738D01*
X77945800Y-137180415D01*
X77945800Y-137180405D01*
X77934803Y-137068752D01*
X77891346Y-136925491D01*
X77835646Y-136821285D01*
X77820774Y-136793461D01*
X77749599Y-136706735D01*
X77725801Y-136677737D01*
X77696803Y-136653939D01*
X76647605Y-135604741D01*
X76623802Y-135575738D01*
X76508077Y-135480765D01*
X76376048Y-135410193D01*
X76366827Y-135407396D01*
X76385767Y-135394741D01*
X76405544Y-135407955D01*
X76593902Y-135485976D01*
X76793861Y-135525750D01*
X76997739Y-135525750D01*
X77197698Y-135485976D01*
X77386056Y-135407955D01*
X77555574Y-135294687D01*
X77695800Y-135154461D01*
X77836026Y-135294687D01*
X78005544Y-135407955D01*
X78193902Y-135485976D01*
X78393861Y-135525750D01*
X78597739Y-135525750D01*
X78797698Y-135485976D01*
X78986056Y-135407955D01*
X79155574Y-135294687D01*
X79299737Y-135150524D01*
X79413005Y-134981006D01*
X79491026Y-134792648D01*
X79530800Y-134592689D01*
X79530800Y-134530551D01*
X83976512Y-130084840D01*
X84018902Y-130102399D01*
X84218861Y-130142173D01*
X84422739Y-130142173D01*
X84622698Y-130102399D01*
X84811056Y-130024378D01*
X84980574Y-129911110D01*
X85124737Y-129766947D01*
X85238005Y-129597429D01*
X85316026Y-129409071D01*
X85355800Y-129209112D01*
X85355800Y-129142173D01*
X85503518Y-129142173D01*
X85478595Y-129179473D01*
X85400574Y-129367831D01*
X85360800Y-129567790D01*
X85360800Y-129771668D01*
X85367315Y-129804422D01*
X81085999Y-134085740D01*
X81023861Y-134085740D01*
X80823902Y-134125514D01*
X80635544Y-134203535D01*
X80466026Y-134316803D01*
X80321863Y-134460966D01*
X80208595Y-134630484D01*
X80130574Y-134818842D01*
X80090800Y-135018801D01*
X80090800Y-135222679D01*
X80130574Y-135422638D01*
X80208595Y-135610996D01*
X80321863Y-135780514D01*
X80466026Y-135924677D01*
X80635544Y-136037945D01*
X80823902Y-136115966D01*
X81023861Y-136155740D01*
X81227739Y-136155740D01*
X81427698Y-136115966D01*
X81616056Y-136037945D01*
X81785574Y-135924677D01*
X81929737Y-135780514D01*
X82043005Y-135610996D01*
X82121026Y-135422638D01*
X82160800Y-135222679D01*
X82160800Y-135160541D01*
X82920800Y-134400541D01*
X82920800Y-134655642D01*
X83012454Y-135116419D01*
X83192240Y-135550461D01*
X83453250Y-135941089D01*
X83785451Y-136273290D01*
X84176079Y-136534300D01*
X84610121Y-136714086D01*
X85070898Y-136805740D01*
X85540702Y-136805740D01*
X86001479Y-136714086D01*
X86435521Y-136534300D01*
X86826149Y-136273290D01*
X87158350Y-135941089D01*
X87419360Y-135550461D01*
X87599146Y-135116419D01*
X87690800Y-134655642D01*
X87690800Y-134185838D01*
X132920800Y-134185838D01*
X132920800Y-134655642D01*
X133012454Y-135116419D01*
X133192240Y-135550461D01*
X133453250Y-135941089D01*
X133785451Y-136273290D01*
X134176079Y-136534300D01*
X134610121Y-136714086D01*
X135070898Y-136805740D01*
X135540702Y-136805740D01*
X136001479Y-136714086D01*
X136435521Y-136534300D01*
X136826149Y-136273290D01*
X137158350Y-135941089D01*
X137419360Y-135550461D01*
X137599146Y-135116419D01*
X137690800Y-134655642D01*
X137690800Y-134185838D01*
X137599146Y-133725061D01*
X137419360Y-133291019D01*
X137158350Y-132900391D01*
X136826149Y-132568190D01*
X136435521Y-132307180D01*
X136001479Y-132127394D01*
X135540702Y-132035740D01*
X135070898Y-132035740D01*
X134610121Y-132127394D01*
X134176079Y-132307180D01*
X133785451Y-132568190D01*
X133453250Y-132900391D01*
X133192240Y-133291019D01*
X133012454Y-133725061D01*
X132920800Y-134185838D01*
X87690800Y-134185838D01*
X87666913Y-134065750D01*
X87667739Y-134065750D01*
X87867698Y-134025976D01*
X88056056Y-133947955D01*
X88225574Y-133834687D01*
X88369737Y-133690524D01*
X88483005Y-133521006D01*
X88561026Y-133332648D01*
X88600800Y-133132689D01*
X88600800Y-132928811D01*
X88561026Y-132728852D01*
X88483005Y-132540494D01*
X88369737Y-132370976D01*
X88325800Y-132327039D01*
X88325800Y-131319707D01*
X89160800Y-131319707D01*
X89160800Y-131641773D01*
X89223632Y-131957652D01*
X89346882Y-132255203D01*
X89525813Y-132522992D01*
X89753548Y-132750727D01*
X90021337Y-132929658D01*
X90318888Y-133052908D01*
X90634767Y-133115740D01*
X90956833Y-133115740D01*
X91272712Y-133052908D01*
X91570263Y-132929658D01*
X91838052Y-132750727D01*
X92065787Y-132522992D01*
X92244718Y-132255203D01*
X92367968Y-131957652D01*
X92430800Y-131641773D01*
X92430800Y-131319707D01*
X92367968Y-131003828D01*
X92244718Y-130706277D01*
X92065787Y-130438488D01*
X91838052Y-130210753D01*
X91570263Y-130031822D01*
X91272712Y-129908572D01*
X90956833Y-129845740D01*
X90634767Y-129845740D01*
X90318888Y-129908572D01*
X90021337Y-130031822D01*
X89753548Y-130210753D01*
X89525813Y-130438488D01*
X89346882Y-130706277D01*
X89223632Y-131003828D01*
X89160800Y-131319707D01*
X88325800Y-131319707D01*
X88325800Y-129804049D01*
X88329476Y-129766726D01*
X88325800Y-129729403D01*
X88325800Y-129729394D01*
X88314803Y-129617741D01*
X88271346Y-129474480D01*
X88219664Y-129377791D01*
X88200774Y-129342450D01*
X88141694Y-129270461D01*
X92660800Y-129270461D01*
X92660800Y-129691019D01*
X92742847Y-130103496D01*
X92903788Y-130492042D01*
X93137437Y-130841723D01*
X93434817Y-131139103D01*
X93784498Y-131372752D01*
X94173044Y-131533693D01*
X94585521Y-131615740D01*
X95006079Y-131615740D01*
X95418556Y-131533693D01*
X95807102Y-131372752D01*
X95886489Y-131319707D01*
X97160800Y-131319707D01*
X97160800Y-131641773D01*
X97223632Y-131957652D01*
X97346882Y-132255203D01*
X97525813Y-132522992D01*
X97753548Y-132750727D01*
X98021337Y-132929658D01*
X98318888Y-133052908D01*
X98634767Y-133115740D01*
X98956833Y-133115740D01*
X99272712Y-133052908D01*
X99570263Y-132929658D01*
X99838052Y-132750727D01*
X100065787Y-132522992D01*
X100244718Y-132255203D01*
X100367968Y-131957652D01*
X100430800Y-131641773D01*
X100430800Y-131319707D01*
X120160800Y-131319707D01*
X120160800Y-131641773D01*
X120223632Y-131957652D01*
X120346882Y-132255203D01*
X120525813Y-132522992D01*
X120753548Y-132750727D01*
X121021337Y-132929658D01*
X121318888Y-133052908D01*
X121634767Y-133115740D01*
X121956833Y-133115740D01*
X122272712Y-133052908D01*
X122570263Y-132929658D01*
X122838052Y-132750727D01*
X123065787Y-132522992D01*
X123244718Y-132255203D01*
X123367968Y-131957652D01*
X123430800Y-131641773D01*
X123430800Y-131319707D01*
X123367968Y-131003828D01*
X123244718Y-130706277D01*
X123065787Y-130438488D01*
X122838052Y-130210753D01*
X122570263Y-130031822D01*
X122272712Y-129908572D01*
X121956833Y-129845740D01*
X121634767Y-129845740D01*
X121318888Y-129908572D01*
X121021337Y-130031822D01*
X120753548Y-130210753D01*
X120525813Y-130438488D01*
X120346882Y-130706277D01*
X120223632Y-131003828D01*
X120160800Y-131319707D01*
X100430800Y-131319707D01*
X100367968Y-131003828D01*
X100244718Y-130706277D01*
X100065787Y-130438488D01*
X99838052Y-130210753D01*
X99570263Y-130031822D01*
X99272712Y-129908572D01*
X98956833Y-129845740D01*
X98634767Y-129845740D01*
X98318888Y-129908572D01*
X98021337Y-130031822D01*
X97753548Y-130210753D01*
X97525813Y-130438488D01*
X97346882Y-130706277D01*
X97223632Y-131003828D01*
X97160800Y-131319707D01*
X95886489Y-131319707D01*
X96156783Y-131139103D01*
X96454163Y-130841723D01*
X96687812Y-130492042D01*
X96848753Y-130103496D01*
X96930800Y-129691019D01*
X96930800Y-129270461D01*
X123660800Y-129270461D01*
X123660800Y-129691019D01*
X123742847Y-130103496D01*
X123903788Y-130492042D01*
X124137437Y-130841723D01*
X124434817Y-131139103D01*
X124784498Y-131372752D01*
X125173044Y-131533693D01*
X125585521Y-131615740D01*
X126006079Y-131615740D01*
X126418556Y-131533693D01*
X126807102Y-131372752D01*
X126886489Y-131319707D01*
X128160800Y-131319707D01*
X128160800Y-131641773D01*
X128223632Y-131957652D01*
X128346882Y-132255203D01*
X128525813Y-132522992D01*
X128753548Y-132750727D01*
X129021337Y-132929658D01*
X129318888Y-133052908D01*
X129634767Y-133115740D01*
X129956833Y-133115740D01*
X130272712Y-133052908D01*
X130570263Y-132929658D01*
X130838052Y-132750727D01*
X131065787Y-132522992D01*
X131244718Y-132255203D01*
X131367968Y-131957652D01*
X131430800Y-131641773D01*
X131430800Y-131319707D01*
X131367968Y-131003828D01*
X131244718Y-130706277D01*
X131065787Y-130438488D01*
X130838052Y-130210753D01*
X130570263Y-130031822D01*
X130272712Y-129908572D01*
X129956833Y-129845740D01*
X129634767Y-129845740D01*
X129318888Y-129908572D01*
X129021337Y-130031822D01*
X128753548Y-130210753D01*
X128525813Y-130438488D01*
X128346882Y-130706277D01*
X128223632Y-131003828D01*
X128160800Y-131319707D01*
X126886489Y-131319707D01*
X127156783Y-131139103D01*
X127454163Y-130841723D01*
X127687812Y-130492042D01*
X127848753Y-130103496D01*
X127930800Y-129691019D01*
X127930800Y-129270461D01*
X127848753Y-128857984D01*
X127687812Y-128469438D01*
X127454163Y-128119757D01*
X127156783Y-127822377D01*
X126807102Y-127588728D01*
X126418556Y-127427787D01*
X126006079Y-127345740D01*
X125585521Y-127345740D01*
X125173044Y-127427787D01*
X124784498Y-127588728D01*
X124434817Y-127822377D01*
X124137437Y-128119757D01*
X123903788Y-128469438D01*
X123742847Y-128857984D01*
X123660800Y-129270461D01*
X96930800Y-129270461D01*
X96848753Y-128857984D01*
X96687812Y-128469438D01*
X96454163Y-128119757D01*
X96156783Y-127822377D01*
X95807102Y-127588728D01*
X95418556Y-127427787D01*
X95006079Y-127345740D01*
X94585521Y-127345740D01*
X94173044Y-127427787D01*
X93784498Y-127588728D01*
X93434817Y-127822377D01*
X93137437Y-128119757D01*
X92903788Y-128469438D01*
X92742847Y-128857984D01*
X92660800Y-129270461D01*
X88141694Y-129270461D01*
X88129599Y-129255724D01*
X88105801Y-129226726D01*
X88076803Y-129202928D01*
X87187063Y-128313188D01*
X87219737Y-128280514D01*
X87333005Y-128110996D01*
X87411026Y-127922638D01*
X87450800Y-127722679D01*
X87450800Y-127560647D01*
X90592646Y-127560647D01*
X90592646Y-127764525D01*
X90632420Y-127964484D01*
X90710441Y-128152842D01*
X90823709Y-128322360D01*
X90967872Y-128466523D01*
X91137390Y-128579791D01*
X91325748Y-128657812D01*
X91525707Y-128697586D01*
X91729585Y-128697586D01*
X91929544Y-128657812D01*
X92117902Y-128579791D01*
X92287420Y-128466523D01*
X92431583Y-128322360D01*
X92544851Y-128152842D01*
X92622872Y-127964484D01*
X92662646Y-127764525D01*
X92662646Y-127702387D01*
X94986810Y-125378225D01*
X95015802Y-125354432D01*
X95024526Y-125343801D01*
X100370800Y-125343801D01*
X100370800Y-125547679D01*
X100410574Y-125747638D01*
X100488595Y-125935996D01*
X100601863Y-126105514D01*
X100645800Y-126149451D01*
X100645801Y-126192028D01*
X100601863Y-126235966D01*
X100488595Y-126405484D01*
X100410574Y-126593842D01*
X100370800Y-126793801D01*
X100370800Y-126997679D01*
X100410574Y-127197638D01*
X100488595Y-127385996D01*
X100601863Y-127555514D01*
X100746026Y-127699677D01*
X100915544Y-127812945D01*
X101103902Y-127890966D01*
X101303861Y-127930740D01*
X101507739Y-127930740D01*
X101707698Y-127890966D01*
X101896056Y-127812945D01*
X102065574Y-127699677D01*
X102209737Y-127555514D01*
X102323005Y-127385996D01*
X102401026Y-127197638D01*
X102440800Y-126997679D01*
X102440800Y-126793801D01*
X102401026Y-126593842D01*
X102323005Y-126405484D01*
X102209737Y-126235966D01*
X102165800Y-126192029D01*
X102165800Y-126149451D01*
X102209737Y-126105514D01*
X102323005Y-125935996D01*
X102401026Y-125747638D01*
X102440800Y-125547679D01*
X102440800Y-125343801D01*
X102401026Y-125143842D01*
X102323005Y-124955484D01*
X102209737Y-124785966D01*
X102065574Y-124641803D01*
X101896056Y-124528535D01*
X101707698Y-124450514D01*
X101507739Y-124410740D01*
X101303861Y-124410740D01*
X101103902Y-124450514D01*
X100915544Y-124528535D01*
X100746026Y-124641803D01*
X100601863Y-124785966D01*
X100488595Y-124955484D01*
X100410574Y-125143842D01*
X100370800Y-125343801D01*
X95024526Y-125343801D01*
X95039596Y-125325439D01*
X95039600Y-125325435D01*
X95097612Y-125254746D01*
X95110775Y-125238707D01*
X95181347Y-125106678D01*
X95224804Y-124963417D01*
X95235801Y-124851764D01*
X95235801Y-124851755D01*
X95239477Y-124814432D01*
X95235801Y-124777109D01*
X95235801Y-123541477D01*
X95335349Y-123582711D01*
X95627078Y-123640740D01*
X95924522Y-123640740D01*
X96216251Y-123582711D01*
X96491053Y-123468884D01*
X96738369Y-123303633D01*
X96948693Y-123093309D01*
X97025800Y-122977910D01*
X97102907Y-123093309D01*
X97313231Y-123303633D01*
X97560547Y-123468884D01*
X97835349Y-123582711D01*
X98127078Y-123640740D01*
X98424522Y-123640740D01*
X98716251Y-123582711D01*
X98991053Y-123468884D01*
X99238369Y-123303633D01*
X99448693Y-123093309D01*
X99613944Y-122845993D01*
X99727771Y-122571191D01*
X99785800Y-122279462D01*
X99785800Y-121982018D01*
X99727771Y-121690289D01*
X99613944Y-121415487D01*
X99535978Y-121298801D01*
X100065790Y-121298801D01*
X100065790Y-121502679D01*
X100105564Y-121702638D01*
X100183585Y-121890996D01*
X100296853Y-122060514D01*
X100441016Y-122204677D01*
X100610534Y-122317945D01*
X100798892Y-122395966D01*
X100998851Y-122435740D01*
X101202729Y-122435740D01*
X101402688Y-122395966D01*
X101591046Y-122317945D01*
X101760564Y-122204677D01*
X101904727Y-122060514D01*
X101934643Y-122015740D01*
X114122728Y-122015740D01*
X114122728Y-123765740D01*
X114134988Y-123890222D01*
X114171298Y-124009920D01*
X114230263Y-124120234D01*
X114309615Y-124216925D01*
X114406306Y-124296277D01*
X114516620Y-124355242D01*
X114636318Y-124391552D01*
X114760800Y-124403812D01*
X116510800Y-124403812D01*
X116635282Y-124391552D01*
X116754980Y-124355242D01*
X116865294Y-124296277D01*
X116961985Y-124216925D01*
X117041337Y-124120234D01*
X117100302Y-124009920D01*
X117136612Y-123890222D01*
X117148872Y-123765740D01*
X117148872Y-122015740D01*
X117136612Y-121891258D01*
X117100302Y-121771560D01*
X117041337Y-121661246D01*
X116961985Y-121564555D01*
X116865294Y-121485203D01*
X116754980Y-121426238D01*
X116740236Y-121421766D01*
X116808693Y-121353309D01*
X116973944Y-121105993D01*
X117087771Y-120831191D01*
X117145800Y-120539462D01*
X117145800Y-120318801D01*
X119600800Y-120318801D01*
X119600800Y-120522679D01*
X119640574Y-120722638D01*
X119718595Y-120910996D01*
X119831863Y-121080514D01*
X119976026Y-121224677D01*
X120145544Y-121337945D01*
X120333902Y-121415966D01*
X120533861Y-121455740D01*
X120737739Y-121455740D01*
X120937698Y-121415966D01*
X121126056Y-121337945D01*
X121295574Y-121224677D01*
X121329511Y-121190740D01*
X121877555Y-121190740D01*
X122012907Y-121393309D01*
X122081364Y-121461766D01*
X122066620Y-121466238D01*
X121956306Y-121525203D01*
X121859615Y-121604555D01*
X121780263Y-121701246D01*
X121721298Y-121811560D01*
X121684988Y-121931258D01*
X121672728Y-122055740D01*
X121672728Y-122170740D01*
X121549511Y-122170740D01*
X121495574Y-122116803D01*
X121326056Y-122003535D01*
X121137698Y-121925514D01*
X120937739Y-121885740D01*
X120733861Y-121885740D01*
X120533902Y-121925514D01*
X120345544Y-122003535D01*
X120176026Y-122116803D01*
X120031863Y-122260966D01*
X119918595Y-122430484D01*
X119840574Y-122618842D01*
X119800800Y-122818801D01*
X119800800Y-123022679D01*
X119840574Y-123222638D01*
X119918595Y-123410996D01*
X120031863Y-123580514D01*
X120176026Y-123724677D01*
X120345544Y-123837945D01*
X120533902Y-123915966D01*
X120733861Y-123955740D01*
X120937739Y-123955740D01*
X121137698Y-123915966D01*
X121326056Y-123837945D01*
X121495574Y-123724677D01*
X121529511Y-123690740D01*
X121672728Y-123690740D01*
X121672728Y-123805740D01*
X121684988Y-123930222D01*
X121721298Y-124049920D01*
X121780263Y-124160234D01*
X121859615Y-124256925D01*
X121956306Y-124336277D01*
X122066620Y-124395242D01*
X122186318Y-124431552D01*
X122310800Y-124443812D01*
X124060800Y-124443812D01*
X124185282Y-124431552D01*
X124304980Y-124395242D01*
X124415294Y-124336277D01*
X124511985Y-124256925D01*
X124591337Y-124160234D01*
X124650302Y-124049920D01*
X124686612Y-123930222D01*
X124698872Y-123805740D01*
X124698872Y-122055740D01*
X124686612Y-121931258D01*
X124650302Y-121811560D01*
X124591337Y-121701246D01*
X124511985Y-121604555D01*
X124415294Y-121525203D01*
X124304980Y-121466238D01*
X124290236Y-121461766D01*
X124358693Y-121393309D01*
X124523944Y-121145993D01*
X124637771Y-120871191D01*
X124695800Y-120579462D01*
X124695800Y-120282018D01*
X124637771Y-119990289D01*
X124523944Y-119715487D01*
X124358693Y-119468171D01*
X124148369Y-119257847D01*
X123901053Y-119092596D01*
X123626251Y-118978769D01*
X123334522Y-118920740D01*
X123037078Y-118920740D01*
X122745349Y-118978769D01*
X122470547Y-119092596D01*
X122223231Y-119257847D01*
X122012907Y-119468171D01*
X121877555Y-119670740D01*
X121349511Y-119670740D01*
X121295574Y-119616803D01*
X121126056Y-119503535D01*
X120937698Y-119425514D01*
X120737739Y-119385740D01*
X120533861Y-119385740D01*
X120333902Y-119425514D01*
X120145544Y-119503535D01*
X119976026Y-119616803D01*
X119831863Y-119760966D01*
X119718595Y-119930484D01*
X119640574Y-120118842D01*
X119600800Y-120318801D01*
X117145800Y-120318801D01*
X117145800Y-120242018D01*
X117087771Y-119950289D01*
X116973944Y-119675487D01*
X116808693Y-119428171D01*
X116598369Y-119217847D01*
X116351053Y-119052596D01*
X116076251Y-118938769D01*
X115784522Y-118880740D01*
X115487078Y-118880740D01*
X115195349Y-118938769D01*
X114920547Y-119052596D01*
X114673231Y-119217847D01*
X114462907Y-119428171D01*
X114297656Y-119675487D01*
X114183829Y-119950289D01*
X114125800Y-120242018D01*
X114125800Y-120539462D01*
X114183829Y-120831191D01*
X114297656Y-121105993D01*
X114462907Y-121353309D01*
X114531364Y-121421766D01*
X114516620Y-121426238D01*
X114406306Y-121485203D01*
X114309615Y-121564555D01*
X114230263Y-121661246D01*
X114171298Y-121771560D01*
X114134988Y-121891258D01*
X114122728Y-122015740D01*
X101934643Y-122015740D01*
X102017995Y-121890996D01*
X102096016Y-121702638D01*
X102135790Y-121502679D01*
X102135790Y-121298801D01*
X102113590Y-121187191D01*
X102229599Y-121109676D01*
X102373762Y-120965513D01*
X102487030Y-120795995D01*
X102565051Y-120607637D01*
X102604825Y-120407678D01*
X102604825Y-120326516D01*
X103115602Y-119815740D01*
X103177739Y-119815740D01*
X103377698Y-119775966D01*
X103566056Y-119697945D01*
X103735574Y-119584677D01*
X103879737Y-119440514D01*
X103993005Y-119270996D01*
X104071026Y-119082638D01*
X104110800Y-118882679D01*
X104110800Y-118678801D01*
X104071026Y-118478842D01*
X103993005Y-118290484D01*
X103879737Y-118120966D01*
X103735574Y-117976803D01*
X103566056Y-117863535D01*
X103377698Y-117785514D01*
X103177739Y-117745740D01*
X102973861Y-117745740D01*
X102773902Y-117785514D01*
X102585544Y-117863535D01*
X102454678Y-117950977D01*
X102436056Y-117938534D01*
X102247698Y-117860513D01*
X102047739Y-117820739D01*
X101843861Y-117820739D01*
X101643902Y-117860513D01*
X101455544Y-117938534D01*
X101286026Y-118051802D01*
X101141863Y-118195965D01*
X101028595Y-118365483D01*
X100950574Y-118553841D01*
X100910800Y-118753800D01*
X100910800Y-118815937D01*
X100333826Y-119392911D01*
X100304823Y-119416714D01*
X100274640Y-119453493D01*
X100209850Y-119532439D01*
X100159289Y-119627031D01*
X100139278Y-119664469D01*
X100095821Y-119807730D01*
X100084824Y-119919383D01*
X100084824Y-119919393D01*
X100081148Y-119956715D01*
X100084824Y-119994038D01*
X100084825Y-121107442D01*
X100081148Y-121144774D01*
X100084825Y-121182107D01*
X100086208Y-121196151D01*
X100065790Y-121298801D01*
X99535978Y-121298801D01*
X99448693Y-121168171D01*
X99238369Y-120957847D01*
X98991053Y-120792596D01*
X98716251Y-120678769D01*
X98424522Y-120620740D01*
X98127078Y-120620740D01*
X97835349Y-120678769D01*
X97560547Y-120792596D01*
X97313231Y-120957847D01*
X97102907Y-121168171D01*
X97025800Y-121283570D01*
X96948693Y-121168171D01*
X96738369Y-120957847D01*
X96491053Y-120792596D01*
X96216251Y-120678769D01*
X95924522Y-120620740D01*
X95627078Y-120620740D01*
X95357323Y-120674398D01*
X95393005Y-120620996D01*
X95471026Y-120432638D01*
X95510800Y-120232679D01*
X95510800Y-120028801D01*
X95471026Y-119828842D01*
X95393005Y-119640484D01*
X95279737Y-119470966D01*
X95135574Y-119326803D01*
X94966056Y-119213535D01*
X94777698Y-119135514D01*
X94577739Y-119095740D01*
X94373861Y-119095740D01*
X94173902Y-119135514D01*
X93985544Y-119213535D01*
X93816026Y-119326803D01*
X93671863Y-119470966D01*
X93558595Y-119640484D01*
X93480574Y-119828842D01*
X93440800Y-120028801D01*
X93440800Y-120232679D01*
X93480574Y-120432638D01*
X93558595Y-120620996D01*
X93578949Y-120651458D01*
X93424522Y-120620740D01*
X93127078Y-120620740D01*
X92835349Y-120678769D01*
X92560547Y-120792596D01*
X92313231Y-120957847D01*
X92244774Y-121026304D01*
X92240302Y-121011560D01*
X92181337Y-120901246D01*
X92101985Y-120804555D01*
X92005294Y-120725203D01*
X91894980Y-120666238D01*
X91775282Y-120629928D01*
X91650800Y-120617668D01*
X91061550Y-120620740D01*
X90902800Y-120779490D01*
X90902800Y-122003740D01*
X90922800Y-122003740D01*
X90922800Y-122257740D01*
X90902800Y-122257740D01*
X90902800Y-123481990D01*
X91061550Y-123640740D01*
X91650800Y-123643812D01*
X91775282Y-123631552D01*
X91894980Y-123595242D01*
X92005294Y-123536277D01*
X92101985Y-123456925D01*
X92181337Y-123360234D01*
X92240302Y-123249920D01*
X92244774Y-123235176D01*
X92313231Y-123303633D01*
X92560547Y-123468884D01*
X92835349Y-123582711D01*
X93127078Y-123640740D01*
X93424522Y-123640740D01*
X93715801Y-123582800D01*
X93715801Y-124499628D01*
X91587845Y-126627586D01*
X91525707Y-126627586D01*
X91325748Y-126667360D01*
X91137390Y-126745381D01*
X90967872Y-126858649D01*
X90823709Y-127002812D01*
X90710441Y-127172330D01*
X90632420Y-127360688D01*
X90592646Y-127560647D01*
X87450800Y-127560647D01*
X87450800Y-127518801D01*
X87411026Y-127318842D01*
X87333005Y-127130484D01*
X87219737Y-126960966D01*
X87175800Y-126917029D01*
X87175800Y-124347039D01*
X87179476Y-124309714D01*
X87175800Y-124272389D01*
X87175800Y-124272381D01*
X87164803Y-124160728D01*
X87121346Y-124017467D01*
X87050774Y-123885438D01*
X87036826Y-123868442D01*
X87036826Y-123793801D01*
X86997052Y-123593842D01*
X86919031Y-123405484D01*
X86805763Y-123235966D01*
X86661600Y-123091803D01*
X86532798Y-123005740D01*
X89262728Y-123005740D01*
X89274988Y-123130222D01*
X89311298Y-123249920D01*
X89370263Y-123360234D01*
X89449615Y-123456925D01*
X89546306Y-123536277D01*
X89656620Y-123595242D01*
X89776318Y-123631552D01*
X89900800Y-123643812D01*
X90490050Y-123640740D01*
X90648800Y-123481990D01*
X90648800Y-122257740D01*
X89424550Y-122257740D01*
X89265800Y-122416490D01*
X89262728Y-123005740D01*
X86532798Y-123005740D01*
X86492082Y-122978535D01*
X86303724Y-122900514D01*
X86103765Y-122860740D01*
X85899887Y-122860740D01*
X85699928Y-122900514D01*
X85511570Y-122978535D01*
X85342052Y-123091803D01*
X85197889Y-123235966D01*
X85084621Y-123405484D01*
X85006600Y-123593842D01*
X85002620Y-123613849D01*
X84980574Y-123591803D01*
X84811056Y-123478535D01*
X84622698Y-123400514D01*
X84422739Y-123360740D01*
X84355800Y-123360740D01*
X84355800Y-123293042D01*
X84359476Y-123255719D01*
X84355800Y-123218397D01*
X84355800Y-122025090D01*
X84364787Y-121995464D01*
X84419737Y-121940514D01*
X84533005Y-121770996D01*
X84611026Y-121582638D01*
X84650800Y-121382679D01*
X84650800Y-121255740D01*
X89262728Y-121255740D01*
X89265800Y-121844990D01*
X89424550Y-122003740D01*
X90648800Y-122003740D01*
X90648800Y-120779490D01*
X90490050Y-120620740D01*
X89900800Y-120617668D01*
X89776318Y-120629928D01*
X89656620Y-120666238D01*
X89546306Y-120725203D01*
X89449615Y-120804555D01*
X89370263Y-120901246D01*
X89311298Y-121011560D01*
X89274988Y-121131258D01*
X89262728Y-121255740D01*
X84650800Y-121255740D01*
X84650800Y-121178801D01*
X84611026Y-120978842D01*
X84533005Y-120790484D01*
X84419737Y-120620966D01*
X84411639Y-120612868D01*
X84485198Y-120582399D01*
X84670324Y-120458701D01*
X84827761Y-120301264D01*
X84951459Y-120116138D01*
X84965800Y-120081516D01*
X84980141Y-120116138D01*
X85103839Y-120301264D01*
X85261276Y-120458701D01*
X85446402Y-120582399D01*
X85652104Y-120667603D01*
X85870475Y-120711040D01*
X86093125Y-120711040D01*
X86311496Y-120667603D01*
X86517198Y-120582399D01*
X86702324Y-120458701D01*
X86859761Y-120301264D01*
X86983459Y-120116138D01*
X87068663Y-119910436D01*
X87112100Y-119692065D01*
X87112100Y-119469415D01*
X87068663Y-119251044D01*
X86983459Y-119045342D01*
X86859761Y-118860216D01*
X86702324Y-118702779D01*
X86517198Y-118579081D01*
X86311496Y-118493877D01*
X86093125Y-118450440D01*
X85870475Y-118450440D01*
X85652104Y-118493877D01*
X85446402Y-118579081D01*
X85261276Y-118702779D01*
X85103839Y-118860216D01*
X84980141Y-119045342D01*
X84965800Y-119079964D01*
X84951459Y-119045342D01*
X84827761Y-118860216D01*
X84670324Y-118702779D01*
X84485198Y-118579081D01*
X84279496Y-118493877D01*
X84061125Y-118450440D01*
X83838475Y-118450440D01*
X83620104Y-118493877D01*
X83414402Y-118579081D01*
X83229276Y-118702779D01*
X83071839Y-118860216D01*
X82948141Y-119045342D01*
X82862937Y-119251044D01*
X82819500Y-119469415D01*
X82819500Y-119692065D01*
X82862937Y-119910436D01*
X82948141Y-120116138D01*
X83071839Y-120301264D01*
X83131601Y-120361026D01*
X83125544Y-120363535D01*
X82956026Y-120476803D01*
X82811863Y-120620966D01*
X82698595Y-120790484D01*
X82620574Y-120978842D01*
X82580800Y-121178801D01*
X82580800Y-121382679D01*
X82620574Y-121582638D01*
X82698595Y-121770996D01*
X82811863Y-121940514D01*
X82835800Y-121964451D01*
X82835801Y-123106859D01*
X82822124Y-123245720D01*
X82835801Y-123384582D01*
X82835800Y-126917029D01*
X82791863Y-126960966D01*
X82678595Y-127130484D01*
X82600574Y-127318842D01*
X82592240Y-127360740D01*
X81536085Y-127360740D01*
X81527751Y-127318842D01*
X81449730Y-127130484D01*
X81336462Y-126960966D01*
X81192299Y-126816803D01*
X81022781Y-126703535D01*
X80834423Y-126625514D01*
X80634464Y-126585740D01*
X80572327Y-126585740D01*
X80215376Y-126228790D01*
X80215376Y-121161175D01*
X80259313Y-121117238D01*
X80372581Y-120947720D01*
X80450602Y-120759362D01*
X80478227Y-120620482D01*
X80550262Y-120634811D01*
X80754140Y-120634811D01*
X80954099Y-120595037D01*
X81142457Y-120517016D01*
X81311975Y-120403748D01*
X81456138Y-120259585D01*
X81569406Y-120090067D01*
X81647427Y-119901709D01*
X81687201Y-119701750D01*
X81687201Y-119497872D01*
X81647427Y-119297913D01*
X81569406Y-119109555D01*
X81456138Y-118940037D01*
X81412201Y-118896100D01*
X81412201Y-117731541D01*
X81533861Y-117755740D01*
X81737739Y-117755740D01*
X81937698Y-117715966D01*
X82126056Y-117637945D01*
X82295574Y-117524677D01*
X82334511Y-117485740D01*
X85922089Y-117485740D01*
X85966026Y-117529677D01*
X86135544Y-117642945D01*
X86323902Y-117720966D01*
X86523861Y-117760740D01*
X86727739Y-117760740D01*
X86927698Y-117720966D01*
X87116056Y-117642945D01*
X87285574Y-117529677D01*
X87429737Y-117385514D01*
X87543005Y-117215996D01*
X87621026Y-117027638D01*
X87660800Y-116827679D01*
X87660800Y-116623801D01*
X87621026Y-116423842D01*
X87543005Y-116235484D01*
X87458665Y-116109260D01*
X87531005Y-116000996D01*
X87609026Y-115812638D01*
X87648800Y-115612679D01*
X87648800Y-115408801D01*
X87609026Y-115208842D01*
X87531005Y-115020484D01*
X87417737Y-114850966D01*
X87363931Y-114797160D01*
X87362803Y-114785708D01*
X87319346Y-114642447D01*
X87266391Y-114543376D01*
X87258601Y-114528801D01*
X108945800Y-114528801D01*
X108945800Y-114732679D01*
X108985574Y-114932638D01*
X109063595Y-115120996D01*
X109176863Y-115290514D01*
X109321026Y-115434677D01*
X109490544Y-115547945D01*
X109678902Y-115625966D01*
X109878861Y-115665740D01*
X110082739Y-115665740D01*
X110282698Y-115625966D01*
X110471056Y-115547945D01*
X110640574Y-115434677D01*
X110694511Y-115380740D01*
X111032089Y-115380740D01*
X111076026Y-115424677D01*
X111245544Y-115537945D01*
X111433902Y-115615966D01*
X111633861Y-115655740D01*
X111837739Y-115655740D01*
X112037698Y-115615966D01*
X112226056Y-115537945D01*
X112395574Y-115424677D01*
X112539737Y-115280514D01*
X112653005Y-115110996D01*
X112731026Y-114922638D01*
X112770800Y-114722679D01*
X112770800Y-114518801D01*
X112731026Y-114318842D01*
X112690920Y-114222018D01*
X114315800Y-114222018D01*
X114315800Y-114519462D01*
X114373829Y-114811191D01*
X114487656Y-115085993D01*
X114652907Y-115333309D01*
X114863231Y-115543633D01*
X115110547Y-115708884D01*
X115385349Y-115822711D01*
X115677078Y-115880740D01*
X115974522Y-115880740D01*
X116266251Y-115822711D01*
X116541053Y-115708884D01*
X116788369Y-115543633D01*
X116998693Y-115333309D01*
X117101032Y-115180147D01*
X117279560Y-115237375D01*
X118146195Y-114370740D01*
X117279560Y-113504105D01*
X117101032Y-113561333D01*
X116998693Y-113408171D01*
X116915022Y-113324500D01*
X117459165Y-113324500D01*
X118325800Y-114191135D01*
X118339943Y-114176993D01*
X118519548Y-114356598D01*
X118505405Y-114370740D01*
X118519548Y-114384883D01*
X118339943Y-114564488D01*
X118325800Y-114550345D01*
X117459165Y-115416980D01*
X117539825Y-115668608D01*
X117808129Y-115797007D01*
X118096326Y-115870595D01*
X118393343Y-115886544D01*
X118687763Y-115844241D01*
X118968274Y-115745312D01*
X119111775Y-115668608D01*
X119192434Y-115416982D01*
X119308459Y-115533007D01*
X119359028Y-115482438D01*
X119361298Y-115489920D01*
X119420263Y-115600234D01*
X119499615Y-115696925D01*
X119596306Y-115776277D01*
X119706620Y-115835242D01*
X119826318Y-115871552D01*
X119950800Y-115883812D01*
X121700800Y-115883812D01*
X121825282Y-115871552D01*
X121944980Y-115835242D01*
X122055294Y-115776277D01*
X122151985Y-115696925D01*
X122231337Y-115600234D01*
X122290302Y-115489920D01*
X122326612Y-115370222D01*
X122338872Y-115245740D01*
X122338872Y-113495740D01*
X122326612Y-113371258D01*
X122290302Y-113251560D01*
X122231337Y-113141246D01*
X122151985Y-113044555D01*
X122055294Y-112965203D01*
X121944980Y-112906238D01*
X121825282Y-112869928D01*
X121700800Y-112857668D01*
X119950800Y-112857668D01*
X119826318Y-112869928D01*
X119706620Y-112906238D01*
X119596306Y-112965203D01*
X119499615Y-113044555D01*
X119420263Y-113141246D01*
X119361298Y-113251560D01*
X119359028Y-113259042D01*
X119308459Y-113208473D01*
X119192434Y-113324498D01*
X119111775Y-113072872D01*
X118843471Y-112944473D01*
X118555274Y-112870885D01*
X118258257Y-112854936D01*
X117963837Y-112897239D01*
X117683326Y-112996168D01*
X117539825Y-113072872D01*
X117459165Y-113324500D01*
X116915022Y-113324500D01*
X116788369Y-113197847D01*
X116541053Y-113032596D01*
X116266251Y-112918769D01*
X115974522Y-112860740D01*
X115677078Y-112860740D01*
X115385349Y-112918769D01*
X115110547Y-113032596D01*
X114863231Y-113197847D01*
X114652907Y-113408171D01*
X114487656Y-113655487D01*
X114373829Y-113930289D01*
X114315800Y-114222018D01*
X112690920Y-114222018D01*
X112653005Y-114130484D01*
X112539737Y-113960966D01*
X112395574Y-113816803D01*
X112226056Y-113703535D01*
X112037698Y-113625514D01*
X111837739Y-113585740D01*
X111633861Y-113585740D01*
X111433902Y-113625514D01*
X111245544Y-113703535D01*
X111076026Y-113816803D01*
X111032089Y-113860740D01*
X110674511Y-113860740D01*
X110640574Y-113826803D01*
X110471056Y-113713535D01*
X110282698Y-113635514D01*
X110082739Y-113595740D01*
X109878861Y-113595740D01*
X109678902Y-113635514D01*
X109490544Y-113713535D01*
X109321026Y-113826803D01*
X109176863Y-113970966D01*
X109063595Y-114140484D01*
X108985574Y-114328842D01*
X108945800Y-114528801D01*
X87258601Y-114528801D01*
X87248774Y-114510417D01*
X87177599Y-114423691D01*
X87153801Y-114394693D01*
X87124803Y-114370895D01*
X85480539Y-112726632D01*
X85499005Y-112698996D01*
X85577026Y-112510638D01*
X85616800Y-112310679D01*
X85616800Y-112106801D01*
X85577026Y-111906842D01*
X85499005Y-111718484D01*
X85385737Y-111548966D01*
X85241574Y-111404803D01*
X85072056Y-111291535D01*
X84883698Y-111213514D01*
X84683739Y-111173740D01*
X84479861Y-111173740D01*
X84279902Y-111213514D01*
X84091544Y-111291535D01*
X83922026Y-111404803D01*
X83777863Y-111548966D01*
X83664595Y-111718484D01*
X83586574Y-111906842D01*
X83546800Y-112106801D01*
X83546800Y-112310679D01*
X83586574Y-112510638D01*
X83664595Y-112698996D01*
X83777863Y-112868514D01*
X83818788Y-112909439D01*
X83821800Y-112940016D01*
X83821800Y-112940026D01*
X83832797Y-113051679D01*
X83876254Y-113194940D01*
X83946826Y-113326970D01*
X83982501Y-113370440D01*
X84041799Y-113442695D01*
X84070803Y-113466498D01*
X84236180Y-113631875D01*
X84087839Y-113780216D01*
X83964141Y-113965342D01*
X83878937Y-114171044D01*
X83835500Y-114389415D01*
X83835500Y-114612065D01*
X83878937Y-114830436D01*
X83964141Y-115036138D01*
X84087839Y-115221264D01*
X84245276Y-115378701D01*
X84430402Y-115502399D01*
X84636104Y-115587603D01*
X84854475Y-115631040D01*
X85077125Y-115631040D01*
X85295496Y-115587603D01*
X85501198Y-115502399D01*
X85578800Y-115450547D01*
X85578800Y-115612679D01*
X85618574Y-115812638D01*
X85681991Y-115965740D01*
X84142344Y-115965740D01*
X84170800Y-115822679D01*
X84170800Y-115618801D01*
X84131026Y-115418842D01*
X84053005Y-115230484D01*
X83939737Y-115060966D01*
X83795574Y-114916803D01*
X83626056Y-114803535D01*
X83437698Y-114725514D01*
X83237739Y-114685740D01*
X83175602Y-114685740D01*
X82213593Y-113723732D01*
X82189790Y-113694728D01*
X82074065Y-113599755D01*
X81942036Y-113529183D01*
X81798775Y-113485726D01*
X81687122Y-113474729D01*
X81687111Y-113474729D01*
X81649789Y-113471053D01*
X81612467Y-113474729D01*
X81339511Y-113474729D01*
X81295574Y-113430792D01*
X81126056Y-113317524D01*
X80937698Y-113239503D01*
X80737739Y-113199729D01*
X80533861Y-113199729D01*
X80333902Y-113239503D01*
X80145544Y-113317524D01*
X79976026Y-113430792D01*
X79831863Y-113574955D01*
X79718595Y-113744473D01*
X79640574Y-113932831D01*
X79600800Y-114132790D01*
X79600800Y-114336668D01*
X79640574Y-114536627D01*
X79718595Y-114724985D01*
X79831863Y-114894503D01*
X79892202Y-114954842D01*
X79892201Y-118896100D01*
X79848264Y-118940037D01*
X79734996Y-119109555D01*
X79668495Y-119270101D01*
X79662441Y-119255484D01*
X79549173Y-119085966D01*
X79405010Y-118941803D01*
X79235492Y-118828535D01*
X79047134Y-118750514D01*
X78847175Y-118710740D01*
X78643297Y-118710740D01*
X78443338Y-118750514D01*
X78254980Y-118828535D01*
X78245235Y-118835047D01*
X78235489Y-118828535D01*
X78047131Y-118750514D01*
X77847172Y-118710740D01*
X77643294Y-118710740D01*
X77443335Y-118750514D01*
X77254977Y-118828535D01*
X77117601Y-118920327D01*
X77057698Y-118895514D01*
X76857739Y-118855740D01*
X76653861Y-118855740D01*
X76453902Y-118895514D01*
X76265544Y-118973535D01*
X76096026Y-119086803D01*
X75951863Y-119230966D01*
X75838595Y-119400484D01*
X75760574Y-119588842D01*
X75720800Y-119788801D01*
X75720800Y-119850939D01*
X75264802Y-120306936D01*
X75235799Y-120330739D01*
X75207075Y-120365740D01*
X75140826Y-120446464D01*
X75078905Y-120562310D01*
X75070254Y-120578494D01*
X75026797Y-120721755D01*
X75015800Y-120833408D01*
X75015800Y-120833418D01*
X75012124Y-120870740D01*
X75015800Y-120908063D01*
X75015801Y-125072529D01*
X74596673Y-125491658D01*
X74557698Y-125475514D01*
X74551433Y-125474268D01*
X74577005Y-125435996D01*
X74655026Y-125247638D01*
X74694800Y-125047679D01*
X74694800Y-124843801D01*
X74655026Y-124643842D01*
X74577005Y-124455484D01*
X74529671Y-124384644D01*
X74585417Y-124250062D01*
X74625191Y-124050103D01*
X74625191Y-123846225D01*
X74585417Y-123646266D01*
X74507396Y-123457908D01*
X74394128Y-123288390D01*
X74249965Y-123144227D01*
X74080447Y-123030959D01*
X73892089Y-122952938D01*
X73692130Y-122913164D01*
X73488252Y-122913164D01*
X73288293Y-122952938D01*
X73099935Y-123030959D01*
X72930417Y-123144227D01*
X72786254Y-123288390D01*
X72672986Y-123457908D01*
X72594965Y-123646266D01*
X72555191Y-123846225D01*
X72555191Y-123902545D01*
X72294130Y-124163606D01*
X72209181Y-123736536D01*
X71947078Y-123103763D01*
X71566562Y-122534282D01*
X71082258Y-122049978D01*
X70512777Y-121669462D01*
X69880004Y-121407359D01*
X69208255Y-121273740D01*
X68523345Y-121273740D01*
X67851596Y-121407359D01*
X67229027Y-121665235D01*
X67864388Y-120664067D01*
X69322579Y-118657040D01*
X70903914Y-116745534D01*
X72602153Y-114937093D01*
X74410594Y-113238854D01*
X76322100Y-111657519D01*
X78329127Y-110199328D01*
X80423754Y-108870037D01*
X82597715Y-107674892D01*
X83375698Y-107308801D01*
X112169759Y-107308801D01*
X112169759Y-107512679D01*
X112209533Y-107712638D01*
X112287554Y-107900996D01*
X112400822Y-108070514D01*
X112544985Y-108214677D01*
X112714503Y-108327945D01*
X112902861Y-108405966D01*
X113102820Y-108445740D01*
X113306698Y-108445740D01*
X113506657Y-108405966D01*
X113695015Y-108327945D01*
X113864533Y-108214677D01*
X113908470Y-108170740D01*
X114672089Y-108170740D01*
X114736026Y-108234677D01*
X114905544Y-108347945D01*
X115093902Y-108425966D01*
X115293861Y-108465740D01*
X115497739Y-108465740D01*
X115697698Y-108425966D01*
X115886056Y-108347945D01*
X116055574Y-108234677D01*
X116199737Y-108090514D01*
X116313005Y-107920996D01*
X116391026Y-107732638D01*
X116430800Y-107532679D01*
X116430800Y-107328801D01*
X116391026Y-107128842D01*
X116313005Y-106940484D01*
X116199737Y-106770966D01*
X116055574Y-106626803D01*
X115886056Y-106513535D01*
X115697698Y-106435514D01*
X115497739Y-106395740D01*
X115293861Y-106395740D01*
X115093902Y-106435514D01*
X114905544Y-106513535D01*
X114736026Y-106626803D01*
X114712089Y-106650740D01*
X113908470Y-106650740D01*
X113864533Y-106606803D01*
X113695015Y-106493535D01*
X113506657Y-106415514D01*
X113306698Y-106375740D01*
X113102820Y-106375740D01*
X112902861Y-106415514D01*
X112714503Y-106493535D01*
X112544985Y-106606803D01*
X112400822Y-106750966D01*
X112287554Y-106920484D01*
X112209533Y-107108842D01*
X112169759Y-107308801D01*
X83375698Y-107308801D01*
X84842430Y-106618610D01*
X87149040Y-105705358D01*
X89508441Y-104938742D01*
X91911323Y-104321787D01*
X94348203Y-103856927D01*
X96809463Y-103545998D01*
X96995189Y-103534313D01*
X96979810Y-103557329D01*
M02*
