M48
METRIC,TZ
T1C0.400
T2C0.850
T3C1.000
T4C1.050
%
G90
G05
T1
X62346Y-141581
X62436Y-135321
X63086Y-151781
X63806Y-134291
X63806Y-144791
X64531Y-135143
X64706Y-129161
X65006Y-143801
X65297Y-133262
X65756Y-144502
X66022Y-132495
X66126Y-157071
X66756Y-143861
X67196Y-136011
X68776Y-120331
X70206Y-145691
X70316Y-167071
X71736Y-120321
X72521Y-126076
X73287Y-126718
X73531Y-127688
X73590Y-123948
X73636Y-134491
X73660Y-124946
X73800Y-136805
X74026Y-144501
X74256Y-126471
X74634Y-134431
X74763Y-137074
X75036Y-143761
X75070Y-145466
X75336Y-113321
X75359Y-136107
X75634Y-134431
X75886Y-127941
X76036Y-143761
X76601Y-128786
X76629Y-134530
X76756Y-119891
X77101Y-129731
X77211Y-146191
X77646Y-173381
X77745Y-119746
X78740Y-110939
X78745Y-119746
X78986Y-162331
X79455Y-120457
X79536Y-134521
X80051Y-129670
X80056Y-144741
X80518Y-120591
X80533Y-127621
X80546Y-139261
X80626Y-153851
X80636Y-114235
X80652Y-119600
X80846Y-145466
X80936Y-137721
X81406Y-128946
X81636Y-116721
X82296Y-108653
X82646Y-176481
X83136Y-115721
X83511Y-129296
X83596Y-127621
X83616Y-121281
X84321Y-124396
X84582Y-112209
X84596Y-127621
X84617Y-129216
X85036Y-120721
X85426Y-149691
X85426Y-162431
X85566Y-107171
X85636Y-127621
X85636Y-154921
X85906Y-172971
X86002Y-123896
X86614Y-115511
X86626Y-116726
X87236Y-126896
X87482Y-125246
X87536Y-132331
X87806Y-147361
X87846Y-143351
X87931Y-148353
X88236Y-114121
X88323Y-145105
X88716Y-179331
X88736Y-135171
X88836Y-118221
X89916Y-105605
X90836Y-133721
X90866Y-160901
X91206Y-169731
X91628Y-127663
X92236Y-150621
X92886Y-140271
X94476Y-120131
X94536Y-104721
X94826Y-164381
X95206Y-180941
X95296Y-176541
X98356Y-147321
X99266Y-148046
X101101Y-121401
X101570Y-120306
X101946Y-118856
X101986Y-130351
X102776Y-115941
X102776Y-164331
X103076Y-118781
X103186Y-167041
X103226Y-110941
X104316Y-155461
X105906Y-174331
X106136Y-104721
X106206Y-117101
X106266Y-162051
X107056Y-181001
X108006Y-142001
X108906Y-132241
X108906Y-176101
X108936Y-167991
X109046Y-170641
X109116Y-160051
X109981Y-114631
X111436Y-118521
X111736Y-114621
X112136Y-112521
X113196Y-159921
X113205Y-107411
X113366Y-179161
X113536Y-171721
X113596Y-169521
X113635Y-166300
X113726Y-164271
X114466Y-176621
X115036Y-147121
X115396Y-107431
X115746Y-129541
X115776Y-164271
X115956Y-166251
X116036Y-142471
X116076Y-159981
X116116Y-171721
X116296Y-169491
X116826Y-155761
X117016Y-143441
X117036Y-136521
X117036Y-139321
X119666Y-162431
X119736Y-175941
X120606Y-173231
X120636Y-120421
X120736Y-145321
X120836Y-122921
X120836Y-160151
X123336Y-139321
X124146Y-112411
X125396Y-172011
X125836Y-122021
X126636Y-142521
X126836Y-145021
X128136Y-134621
X128936Y-150121
X129386Y-168201
X130516Y-118481
X135466Y-129451
X136056Y-155611
X137546Y-151771
X137606Y-136511
X138436Y-142661
X138736Y-146291
T2
X90536Y-130881
X90536Y-153881
X98536Y-130881
X98536Y-153881
X121536Y-130881
X121536Y-153881
X129536Y-130881
X129536Y-153881
T3
X111346Y-164271
X111346Y-166771
X111346Y-169271
X111346Y-171771
X98298Y-181551
X100838Y-181551
X103378Y-181551
X76766Y-159721
X79266Y-159721
X81766Y-159721
X84266Y-159721
X76766Y-167771
X79266Y-167771
X81766Y-167771
X84266Y-167771
X115826Y-114371
X118326Y-114371
X120826Y-114371
X90776Y-122131
X93276Y-122131
X95776Y-122131
X98276Y-122131
X98296Y-104261
X100836Y-104261
X103376Y-104261
X118576Y-164271
X118576Y-166771
X118576Y-169271
X118576Y-171771
T4
X115636Y-120391
X115636Y-122891
X123186Y-120431
X123186Y-122931
T0
M30
