G04 #@! TF.GenerationSoftware,KiCad,Pcbnew,(5.1.5)-3*
G04 #@! TF.CreationDate,2020-09-03T11:23:43+02:00*
G04 #@! TF.ProjectId,StepperClockK02,53746570-7065-4724-936c-6f636b4b3032,v1.5*
G04 #@! TF.SameCoordinates,Original*
G04 #@! TF.FileFunction,Legend,Top*
G04 #@! TF.FilePolarity,Positive*
%FSLAX46Y46*%
G04 Gerber Fmt 4.6, Leading zero omitted, Abs format (unit mm)*
G04 Created by KiCad (PCBNEW (5.1.5)-3) date 2020-09-03 11:23:43*
%MOMM*%
%LPD*%
G04 APERTURE LIST*
%ADD10C,0.500000*%
%ADD11C,0.100000*%
%ADD12C,0.300000*%
%ADD13C,0.150000*%
%ADD14C,0.200000*%
%ADD15C,0.120000*%
G04 APERTURE END LIST*
D10*
X113035800Y-110320740D02*
G75*
G03X113035800Y-110320740I-100000J0D01*
G01*
X97789800Y-115720740D02*
G75*
G03X97789800Y-115720740I-254000J0D01*
G01*
D11*
X90132466Y-123670740D02*
X90065800Y-123637406D01*
X89965800Y-123637406D01*
X89865800Y-123670740D01*
X89799133Y-123737406D01*
X89765800Y-123804073D01*
X89732466Y-123937406D01*
X89732466Y-124037406D01*
X89765800Y-124170740D01*
X89799133Y-124237406D01*
X89865800Y-124304073D01*
X89965800Y-124337406D01*
X90032466Y-124337406D01*
X90132466Y-124304073D01*
X90165800Y-124270740D01*
X90165800Y-124037406D01*
X90032466Y-124037406D01*
X90465800Y-124337406D02*
X90465800Y-123637406D01*
X90865800Y-124337406D01*
X90865800Y-123637406D01*
X91199133Y-124337406D02*
X91199133Y-123637406D01*
X91365800Y-123637406D01*
X91465800Y-123670740D01*
X91532466Y-123737406D01*
X91565800Y-123804073D01*
X91599133Y-123937406D01*
X91599133Y-124037406D01*
X91565800Y-124170740D01*
X91532466Y-124237406D01*
X91465800Y-124304073D01*
X91365800Y-124337406D01*
X91199133Y-124337406D01*
X91935800Y-124357406D02*
X91935800Y-123657406D01*
X92169133Y-124157406D01*
X92402466Y-123657406D01*
X92402466Y-124357406D01*
X93035800Y-124357406D02*
X93035800Y-123990740D01*
X93002466Y-123924073D01*
X92935800Y-123890740D01*
X92802466Y-123890740D01*
X92735800Y-123924073D01*
X93035800Y-124324073D02*
X92969133Y-124357406D01*
X92802466Y-124357406D01*
X92735800Y-124324073D01*
X92702466Y-124257406D01*
X92702466Y-124190740D01*
X92735800Y-124124073D01*
X92802466Y-124090740D01*
X92969133Y-124090740D01*
X93035800Y-124057406D01*
X93669133Y-123890740D02*
X93669133Y-124457406D01*
X93635800Y-124524073D01*
X93602466Y-124557406D01*
X93535800Y-124590740D01*
X93435800Y-124590740D01*
X93369133Y-124557406D01*
X93669133Y-124324073D02*
X93602466Y-124357406D01*
X93469133Y-124357406D01*
X93402466Y-124324073D01*
X93369133Y-124290740D01*
X93335800Y-124224073D01*
X93335800Y-124024073D01*
X93369133Y-123957406D01*
X93402466Y-123924073D01*
X93469133Y-123890740D01*
X93602466Y-123890740D01*
X93669133Y-123924073D01*
X93935800Y-123657406D02*
X94369133Y-123657406D01*
X94135800Y-123924073D01*
X94235800Y-123924073D01*
X94302466Y-123957406D01*
X94335800Y-123990740D01*
X94369133Y-124057406D01*
X94369133Y-124224073D01*
X94335800Y-124290740D01*
X94302466Y-124324073D01*
X94235800Y-124357406D01*
X94035800Y-124357406D01*
X93969133Y-124324073D01*
X93935800Y-124290740D01*
X94585800Y-124397406D02*
X94585800Y-123697406D01*
X94819133Y-124197406D01*
X95052466Y-123697406D01*
X95052466Y-124397406D01*
X95685800Y-124397406D02*
X95685800Y-124030740D01*
X95652466Y-123964073D01*
X95585800Y-123930740D01*
X95452466Y-123930740D01*
X95385800Y-123964073D01*
X95685800Y-124364073D02*
X95619133Y-124397406D01*
X95452466Y-124397406D01*
X95385800Y-124364073D01*
X95352466Y-124297406D01*
X95352466Y-124230740D01*
X95385800Y-124164073D01*
X95452466Y-124130740D01*
X95619133Y-124130740D01*
X95685800Y-124097406D01*
X96319133Y-123930740D02*
X96319133Y-124497406D01*
X96285800Y-124564073D01*
X96252466Y-124597406D01*
X96185800Y-124630740D01*
X96085800Y-124630740D01*
X96019133Y-124597406D01*
X96319133Y-124364073D02*
X96252466Y-124397406D01*
X96119133Y-124397406D01*
X96052466Y-124364073D01*
X96019133Y-124330740D01*
X95985800Y-124264073D01*
X95985800Y-124064073D01*
X96019133Y-123997406D01*
X96052466Y-123964073D01*
X96119133Y-123930740D01*
X96252466Y-123930740D01*
X96319133Y-123964073D01*
X96619133Y-123764073D02*
X96652466Y-123730740D01*
X96719133Y-123697406D01*
X96885800Y-123697406D01*
X96952466Y-123730740D01*
X96985800Y-123764073D01*
X97019133Y-123830740D01*
X97019133Y-123897406D01*
X96985800Y-123997406D01*
X96585800Y-124397406D01*
X97019133Y-124397406D01*
X97349133Y-123717406D02*
X97782466Y-123717406D01*
X97549133Y-123984073D01*
X97649133Y-123984073D01*
X97715800Y-124017406D01*
X97749133Y-124050740D01*
X97782466Y-124117406D01*
X97782466Y-124284073D01*
X97749133Y-124350740D01*
X97715800Y-124384073D01*
X97649133Y-124417406D01*
X97449133Y-124417406D01*
X97382466Y-124384073D01*
X97349133Y-124350740D01*
X97982466Y-123717406D02*
X98215800Y-124417406D01*
X98449133Y-123717406D01*
X98615800Y-123717406D02*
X99049133Y-123717406D01*
X98815800Y-123984073D01*
X98915800Y-123984073D01*
X98982466Y-124017406D01*
X99015800Y-124050740D01*
X99049133Y-124117406D01*
X99049133Y-124284073D01*
X99015800Y-124350740D01*
X98982466Y-124384073D01*
X98915800Y-124417406D01*
X98715800Y-124417406D01*
X98649133Y-124384073D01*
X98615800Y-124350740D01*
D12*
X92144371Y-160177882D02*
X93287228Y-160177882D01*
D11*
X120139133Y-112537406D02*
X120139133Y-111837406D01*
X120305800Y-111837406D01*
X120405800Y-111870740D01*
X120472466Y-111937406D01*
X120505800Y-112004073D01*
X120539133Y-112137406D01*
X120539133Y-112237406D01*
X120505800Y-112370740D01*
X120472466Y-112437406D01*
X120405800Y-112504073D01*
X120305800Y-112537406D01*
X120139133Y-112537406D01*
X120839133Y-112537406D02*
X120839133Y-111837406D01*
X121172466Y-112537406D02*
X121172466Y-111837406D01*
X121572466Y-112537406D01*
X121572466Y-111837406D01*
X117722466Y-111920740D02*
X117655800Y-111887406D01*
X117555800Y-111887406D01*
X117455800Y-111920740D01*
X117389133Y-111987406D01*
X117355800Y-112054073D01*
X117322466Y-112187406D01*
X117322466Y-112287406D01*
X117355800Y-112420740D01*
X117389133Y-112487406D01*
X117455800Y-112554073D01*
X117555800Y-112587406D01*
X117622466Y-112587406D01*
X117722466Y-112554073D01*
X117755800Y-112520740D01*
X117755800Y-112287406D01*
X117622466Y-112287406D01*
X118055800Y-112587406D02*
X118055800Y-111887406D01*
X118455800Y-112587406D01*
X118455800Y-111887406D01*
X118789133Y-112587406D02*
X118789133Y-111887406D01*
X118955800Y-111887406D01*
X119055800Y-111920740D01*
X119122466Y-111987406D01*
X119155800Y-112054073D01*
X119189133Y-112187406D01*
X119189133Y-112287406D01*
X119155800Y-112420740D01*
X119122466Y-112487406D01*
X119055800Y-112554073D01*
X118955800Y-112587406D01*
X118789133Y-112587406D01*
X115492466Y-111837406D02*
X115159133Y-111837406D01*
X115125800Y-112170740D01*
X115159133Y-112137406D01*
X115225800Y-112104073D01*
X115392466Y-112104073D01*
X115459133Y-112137406D01*
X115492466Y-112170740D01*
X115525800Y-112237406D01*
X115525800Y-112404073D01*
X115492466Y-112470740D01*
X115459133Y-112504073D01*
X115392466Y-112537406D01*
X115225800Y-112537406D01*
X115159133Y-112504073D01*
X115125800Y-112470740D01*
X115725800Y-111837406D02*
X115959133Y-112537406D01*
X116192466Y-111837406D01*
D12*
X80717329Y-121280740D02*
G75*
G03X80717329Y-121280740I-131529J0D01*
G01*
D13*
X77242942Y-171903120D02*
X77242942Y-170903120D01*
X77576276Y-171617406D01*
X77909609Y-170903120D01*
X77909609Y-171903120D01*
X78528657Y-171903120D02*
X78433419Y-171855501D01*
X78385800Y-171807882D01*
X78338180Y-171712644D01*
X78338180Y-171426930D01*
X78385800Y-171331692D01*
X78433419Y-171284073D01*
X78528657Y-171236454D01*
X78671514Y-171236454D01*
X78766752Y-171284073D01*
X78814371Y-171331692D01*
X78861990Y-171426930D01*
X78861990Y-171712644D01*
X78814371Y-171807882D01*
X78766752Y-171855501D01*
X78671514Y-171903120D01*
X78528657Y-171903120D01*
X79147704Y-171236454D02*
X79528657Y-171236454D01*
X79290561Y-170903120D02*
X79290561Y-171760263D01*
X79338180Y-171855501D01*
X79433419Y-171903120D01*
X79528657Y-171903120D01*
X80004847Y-171903120D02*
X79909609Y-171855501D01*
X79861990Y-171807882D01*
X79814371Y-171712644D01*
X79814371Y-171426930D01*
X79861990Y-171331692D01*
X79909609Y-171284073D01*
X80004847Y-171236454D01*
X80147704Y-171236454D01*
X80242942Y-171284073D01*
X80290561Y-171331692D01*
X80338180Y-171426930D01*
X80338180Y-171712644D01*
X80290561Y-171807882D01*
X80242942Y-171855501D01*
X80147704Y-171903120D01*
X80004847Y-171903120D01*
X80766752Y-171903120D02*
X80766752Y-171236454D01*
X80766752Y-171426930D02*
X80814371Y-171331692D01*
X80861990Y-171284073D01*
X80957228Y-171236454D01*
X81052466Y-171236454D01*
X82052466Y-170903120D02*
X82671514Y-170903120D01*
X82338180Y-171284073D01*
X82481038Y-171284073D01*
X82576276Y-171331692D01*
X82623895Y-171379311D01*
X82671514Y-171474549D01*
X82671514Y-171712644D01*
X82623895Y-171807882D01*
X82576276Y-171855501D01*
X82481038Y-171903120D01*
X82195323Y-171903120D01*
X82100085Y-171855501D01*
X82052466Y-171807882D01*
X83242942Y-171903120D02*
X83147704Y-171855501D01*
X83100085Y-171807882D01*
X83052466Y-171712644D01*
X83052466Y-171426930D01*
X83100085Y-171331692D01*
X83147704Y-171284073D01*
X83242942Y-171236454D01*
X83385799Y-171236454D01*
X83481038Y-171284073D01*
X83528657Y-171331692D01*
X83576276Y-171426930D01*
X83576276Y-171712644D01*
X83528657Y-171807882D01*
X83481038Y-171855501D01*
X83385799Y-171903120D01*
X83242942Y-171903120D01*
X77367228Y-156163120D02*
X77367228Y-155163120D01*
X77700561Y-155877406D01*
X78033895Y-155163120D01*
X78033895Y-156163120D01*
X78652942Y-156163120D02*
X78557704Y-156115501D01*
X78510085Y-156067882D01*
X78462466Y-155972644D01*
X78462466Y-155686930D01*
X78510085Y-155591692D01*
X78557704Y-155544073D01*
X78652942Y-155496454D01*
X78795800Y-155496454D01*
X78891038Y-155544073D01*
X78938657Y-155591692D01*
X78986276Y-155686930D01*
X78986276Y-155972644D01*
X78938657Y-156067882D01*
X78891038Y-156115501D01*
X78795800Y-156163120D01*
X78652942Y-156163120D01*
X79271990Y-155496454D02*
X79652942Y-155496454D01*
X79414847Y-155163120D02*
X79414847Y-156020263D01*
X79462466Y-156115501D01*
X79557704Y-156163120D01*
X79652942Y-156163120D01*
X80129133Y-156163120D02*
X80033895Y-156115501D01*
X79986276Y-156067882D01*
X79938657Y-155972644D01*
X79938657Y-155686930D01*
X79986276Y-155591692D01*
X80033895Y-155544073D01*
X80129133Y-155496454D01*
X80271990Y-155496454D01*
X80367228Y-155544073D01*
X80414847Y-155591692D01*
X80462466Y-155686930D01*
X80462466Y-155972644D01*
X80414847Y-156067882D01*
X80367228Y-156115501D01*
X80271990Y-156163120D01*
X80129133Y-156163120D01*
X80891038Y-156163120D02*
X80891038Y-155496454D01*
X80891038Y-155686930D02*
X80938657Y-155591692D01*
X80986276Y-155544073D01*
X81081514Y-155496454D01*
X81176752Y-155496454D01*
X82224371Y-155258359D02*
X82271990Y-155210740D01*
X82367228Y-155163120D01*
X82605323Y-155163120D01*
X82700561Y-155210740D01*
X82748180Y-155258359D01*
X82795800Y-155353597D01*
X82795800Y-155448835D01*
X82748180Y-155591692D01*
X82176752Y-156163120D01*
X82795800Y-156163120D01*
X83224371Y-156163120D02*
X83224371Y-155496454D01*
X83224371Y-155163120D02*
X83176752Y-155210740D01*
X83224371Y-155258359D01*
X83271990Y-155210740D01*
X83224371Y-155163120D01*
X83224371Y-155258359D01*
X98265323Y-179143120D02*
X97789133Y-179143120D01*
X97741514Y-179619311D01*
X97789133Y-179571692D01*
X97884371Y-179524073D01*
X98122466Y-179524073D01*
X98217704Y-179571692D01*
X98265323Y-179619311D01*
X98312942Y-179714549D01*
X98312942Y-179952644D01*
X98265323Y-180047882D01*
X98217704Y-180095501D01*
X98122466Y-180143120D01*
X97884371Y-180143120D01*
X97789133Y-180095501D01*
X97741514Y-180047882D01*
X98598657Y-179143120D02*
X98931990Y-180143120D01*
X99265323Y-179143120D01*
X100635323Y-179163120D02*
X100159133Y-179163120D01*
X100111514Y-179639311D01*
X100159133Y-179591692D01*
X100254371Y-179544073D01*
X100492466Y-179544073D01*
X100587704Y-179591692D01*
X100635323Y-179639311D01*
X100682942Y-179734549D01*
X100682942Y-179972644D01*
X100635323Y-180067882D01*
X100587704Y-180115501D01*
X100492466Y-180163120D01*
X100254371Y-180163120D01*
X100159133Y-180115501D01*
X100111514Y-180067882D01*
X100968657Y-179163120D02*
X101301990Y-180163120D01*
X101635323Y-179163120D01*
D11*
X103182466Y-105407406D02*
X102849133Y-105407406D01*
X102815800Y-105740740D01*
X102849133Y-105707406D01*
X102915800Y-105674073D01*
X103082466Y-105674073D01*
X103149133Y-105707406D01*
X103182466Y-105740740D01*
X103215800Y-105807406D01*
X103215800Y-105974073D01*
X103182466Y-106040740D01*
X103149133Y-106074073D01*
X103082466Y-106107406D01*
X102915800Y-106107406D01*
X102849133Y-106074073D01*
X102815800Y-106040740D01*
X103415800Y-105407406D02*
X103649133Y-106107406D01*
X103882466Y-105407406D01*
D13*
X88388180Y-117268359D02*
X87388180Y-117268359D01*
X87388180Y-117030263D01*
X87435800Y-116887406D01*
X87531038Y-116792168D01*
X87626276Y-116744549D01*
X87816752Y-116696930D01*
X87959609Y-116696930D01*
X88150085Y-116744549D01*
X88245323Y-116792168D01*
X88340561Y-116887406D01*
X88388180Y-117030263D01*
X88388180Y-117268359D01*
X88340561Y-115887406D02*
X88388180Y-115982644D01*
X88388180Y-116173120D01*
X88340561Y-116268359D01*
X88245323Y-116315978D01*
X87864371Y-116315978D01*
X87769133Y-116268359D01*
X87721514Y-116173120D01*
X87721514Y-115982644D01*
X87769133Y-115887406D01*
X87864371Y-115839787D01*
X87959609Y-115839787D01*
X88054847Y-116315978D01*
X88388180Y-115411216D02*
X87388180Y-115411216D01*
X87769133Y-115411216D02*
X87721514Y-115315978D01*
X87721514Y-115125501D01*
X87769133Y-115030263D01*
X87816752Y-114982644D01*
X87911990Y-114935025D01*
X88197704Y-114935025D01*
X88292942Y-114982644D01*
X88340561Y-115030263D01*
X88388180Y-115125501D01*
X88388180Y-115315978D01*
X88340561Y-115411216D01*
X87721514Y-114077882D02*
X88388180Y-114077882D01*
X87721514Y-114506454D02*
X88245323Y-114506454D01*
X88340561Y-114458835D01*
X88388180Y-114363597D01*
X88388180Y-114220740D01*
X88340561Y-114125501D01*
X88292942Y-114077882D01*
X87721514Y-113173120D02*
X88531038Y-113173120D01*
X88626276Y-113220740D01*
X88673895Y-113268359D01*
X88721514Y-113363597D01*
X88721514Y-113506454D01*
X88673895Y-113601692D01*
X88340561Y-113173120D02*
X88388180Y-113268359D01*
X88388180Y-113458835D01*
X88340561Y-113554073D01*
X88292942Y-113601692D01*
X88197704Y-113649311D01*
X87911990Y-113649311D01*
X87816752Y-113601692D01*
X87769133Y-113554073D01*
X87721514Y-113458835D01*
X87721514Y-113268359D01*
X87769133Y-113173120D01*
D14*
X66010085Y-130307406D02*
X66486276Y-130307406D01*
X65914847Y-130593120D02*
X66248180Y-129593120D01*
X66581514Y-130593120D01*
X66914847Y-130593120D02*
X66914847Y-129593120D01*
X67152942Y-129593120D01*
X67295800Y-129640740D01*
X67391038Y-129735978D01*
X67438657Y-129831216D01*
X67486276Y-130021692D01*
X67486276Y-130164549D01*
X67438657Y-130355025D01*
X67391038Y-130450263D01*
X67295800Y-130545501D01*
X67152942Y-130593120D01*
X66914847Y-130593120D01*
X67914847Y-130593120D02*
X67914847Y-129593120D01*
X68343419Y-130545501D02*
X68486276Y-130593120D01*
X68724371Y-130593120D01*
X68819609Y-130545501D01*
X68867228Y-130497882D01*
X68914847Y-130402644D01*
X68914847Y-130307406D01*
X68867228Y-130212168D01*
X68819609Y-130164549D01*
X68724371Y-130116930D01*
X68533895Y-130069311D01*
X68438657Y-130021692D01*
X68391038Y-129974073D01*
X68343419Y-129878835D01*
X68343419Y-129783597D01*
X68391038Y-129688359D01*
X68438657Y-129640740D01*
X68533895Y-129593120D01*
X68771990Y-129593120D01*
X68914847Y-129640740D01*
X70105323Y-130593120D02*
X70105323Y-129593120D01*
X70676752Y-130593120D02*
X70248180Y-130021692D01*
X70676752Y-129593120D02*
X70105323Y-130164549D01*
X71295800Y-129593120D02*
X71391038Y-129593120D01*
X71486276Y-129640740D01*
X71533895Y-129688359D01*
X71581514Y-129783597D01*
X71629133Y-129974073D01*
X71629133Y-130212168D01*
X71581514Y-130402644D01*
X71533895Y-130497882D01*
X71486276Y-130545501D01*
X71391038Y-130593120D01*
X71295800Y-130593120D01*
X71200561Y-130545501D01*
X71152942Y-130497882D01*
X71105323Y-130402644D01*
X71057704Y-130212168D01*
X71057704Y-129974073D01*
X71105323Y-129783597D01*
X71152942Y-129688359D01*
X71200561Y-129640740D01*
X71295800Y-129593120D01*
X72010085Y-129688359D02*
X72057704Y-129640740D01*
X72152942Y-129593120D01*
X72391038Y-129593120D01*
X72486276Y-129640740D01*
X72533895Y-129688359D01*
X72581514Y-129783597D01*
X72581514Y-129878835D01*
X72533895Y-130021692D01*
X71962466Y-130593120D01*
X72581514Y-130593120D01*
X73629133Y-129593120D02*
X73962466Y-130593120D01*
X74295800Y-129593120D01*
X75152942Y-130593120D02*
X74581514Y-130593120D01*
X74867228Y-130593120D02*
X74867228Y-129593120D01*
X74771990Y-129735978D01*
X74676752Y-129831216D01*
X74581514Y-129878835D01*
X75581514Y-130497882D02*
X75629133Y-130545501D01*
X75581514Y-130593120D01*
X75533895Y-130545501D01*
X75581514Y-130497882D01*
X75581514Y-130593120D01*
X76533895Y-129593120D02*
X76057704Y-129593120D01*
X76010085Y-130069311D01*
X76057704Y-130021692D01*
X76152942Y-129974073D01*
X76391038Y-129974073D01*
X76486276Y-130021692D01*
X76533895Y-130069311D01*
X76581514Y-130164549D01*
X76581514Y-130402644D01*
X76533895Y-130497882D01*
X76486276Y-130545501D01*
X76391038Y-130593120D01*
X76152942Y-130593120D01*
X76057704Y-130545501D01*
X76010085Y-130497882D01*
X66938657Y-131769311D02*
X67271990Y-131769311D01*
X67414847Y-132293120D02*
X66938657Y-132293120D01*
X66938657Y-131293120D01*
X67414847Y-131293120D01*
X67843419Y-132293120D02*
X67843419Y-131626454D01*
X67843419Y-131816930D02*
X67891038Y-131721692D01*
X67938657Y-131674073D01*
X68033895Y-131626454D01*
X68129133Y-131626454D01*
X68462466Y-132293120D02*
X68462466Y-131626454D01*
X68462466Y-131293120D02*
X68414847Y-131340740D01*
X68462466Y-131388359D01*
X68510085Y-131340740D01*
X68462466Y-131293120D01*
X68462466Y-131388359D01*
X69367228Y-132245501D02*
X69271990Y-132293120D01*
X69081514Y-132293120D01*
X68986276Y-132245501D01*
X68938657Y-132197882D01*
X68891038Y-132102644D01*
X68891038Y-131816930D01*
X68938657Y-131721692D01*
X68986276Y-131674073D01*
X69081514Y-131626454D01*
X69271990Y-131626454D01*
X69367228Y-131674073D01*
X69795800Y-132293120D02*
X69795800Y-131293120D01*
X70224371Y-132293120D02*
X70224371Y-131769311D01*
X70176752Y-131674073D01*
X70081514Y-131626454D01*
X69938657Y-131626454D01*
X69843419Y-131674073D01*
X69795800Y-131721692D01*
X71414847Y-132245501D02*
X71557704Y-132293120D01*
X71795800Y-132293120D01*
X71891038Y-132245501D01*
X71938657Y-132197882D01*
X71986276Y-132102644D01*
X71986276Y-132007406D01*
X71938657Y-131912168D01*
X71891038Y-131864549D01*
X71795800Y-131816930D01*
X71605323Y-131769311D01*
X71510085Y-131721692D01*
X71462466Y-131674073D01*
X71414847Y-131578835D01*
X71414847Y-131483597D01*
X71462466Y-131388359D01*
X71510085Y-131340740D01*
X71605323Y-131293120D01*
X71843419Y-131293120D01*
X71986276Y-131340740D01*
X72271990Y-131626454D02*
X72652942Y-131626454D01*
X72414847Y-131293120D02*
X72414847Y-132150263D01*
X72462466Y-132245501D01*
X72557704Y-132293120D01*
X72652942Y-132293120D01*
X72891038Y-131626454D02*
X73129133Y-132293120D01*
X73367228Y-131626454D02*
X73129133Y-132293120D01*
X73033895Y-132531216D01*
X72986276Y-132578835D01*
X72891038Y-132626454D01*
X74176752Y-131626454D02*
X74176752Y-132435978D01*
X74129133Y-132531216D01*
X74081514Y-132578835D01*
X73986276Y-132626454D01*
X73843419Y-132626454D01*
X73748180Y-132578835D01*
X74176752Y-132245501D02*
X74081514Y-132293120D01*
X73891038Y-132293120D01*
X73795800Y-132245501D01*
X73748180Y-132197882D01*
X73700561Y-132102644D01*
X73700561Y-131816930D01*
X73748180Y-131721692D01*
X73795800Y-131674073D01*
X73891038Y-131626454D01*
X74081514Y-131626454D01*
X74176752Y-131674073D01*
X75033895Y-132245501D02*
X74938657Y-132293120D01*
X74748180Y-132293120D01*
X74652942Y-132245501D01*
X74605323Y-132150263D01*
X74605323Y-131769311D01*
X74652942Y-131674073D01*
X74748180Y-131626454D01*
X74938657Y-131626454D01*
X75033895Y-131674073D01*
X75081514Y-131769311D01*
X75081514Y-131864549D01*
X74605323Y-131959787D01*
X75510085Y-132293120D02*
X75510085Y-131626454D01*
X75510085Y-131816930D02*
X75557704Y-131721692D01*
X75605323Y-131674073D01*
X75700561Y-131626454D01*
X75795800Y-131626454D01*
X66510085Y-133088359D02*
X66557704Y-133040740D01*
X66652942Y-132993120D01*
X66891038Y-132993120D01*
X66986276Y-133040740D01*
X67033895Y-133088359D01*
X67081514Y-133183597D01*
X67081514Y-133278835D01*
X67033895Y-133421692D01*
X66462466Y-133993120D01*
X67081514Y-133993120D01*
X67510085Y-133612168D02*
X68271990Y-133612168D01*
X68700561Y-133945501D02*
X68843419Y-133993120D01*
X69081514Y-133993120D01*
X69176752Y-133945501D01*
X69224371Y-133897882D01*
X69271990Y-133802644D01*
X69271990Y-133707406D01*
X69224371Y-133612168D01*
X69176752Y-133564549D01*
X69081514Y-133516930D01*
X68891038Y-133469311D01*
X68795800Y-133421692D01*
X68748180Y-133374073D01*
X68700561Y-133278835D01*
X68700561Y-133183597D01*
X68748180Y-133088359D01*
X68795800Y-133040740D01*
X68891038Y-132993120D01*
X69129133Y-132993120D01*
X69271990Y-133040740D01*
X70081514Y-133945501D02*
X69986276Y-133993120D01*
X69795800Y-133993120D01*
X69700561Y-133945501D01*
X69652942Y-133850263D01*
X69652942Y-133469311D01*
X69700561Y-133374073D01*
X69795800Y-133326454D01*
X69986276Y-133326454D01*
X70081514Y-133374073D01*
X70129133Y-133469311D01*
X70129133Y-133564549D01*
X69652942Y-133659787D01*
X70557704Y-133326454D02*
X70557704Y-134326454D01*
X70557704Y-133374073D02*
X70652942Y-133326454D01*
X70843419Y-133326454D01*
X70938657Y-133374073D01*
X70986276Y-133421692D01*
X71033895Y-133516930D01*
X71033895Y-133802644D01*
X70986276Y-133897882D01*
X70938657Y-133945501D01*
X70843419Y-133993120D01*
X70652942Y-133993120D01*
X70557704Y-133945501D01*
X71462466Y-133612168D02*
X72224371Y-133612168D01*
X72652942Y-133088359D02*
X72700561Y-133040740D01*
X72795800Y-132993120D01*
X73033895Y-132993120D01*
X73129133Y-133040740D01*
X73176752Y-133088359D01*
X73224371Y-133183597D01*
X73224371Y-133278835D01*
X73176752Y-133421692D01*
X72605323Y-133993120D01*
X73224371Y-133993120D01*
X73843419Y-132993120D02*
X73938657Y-132993120D01*
X74033895Y-133040740D01*
X74081514Y-133088359D01*
X74129133Y-133183597D01*
X74176752Y-133374073D01*
X74176752Y-133612168D01*
X74129133Y-133802644D01*
X74081514Y-133897882D01*
X74033895Y-133945501D01*
X73938657Y-133993120D01*
X73843419Y-133993120D01*
X73748180Y-133945501D01*
X73700561Y-133897882D01*
X73652942Y-133802644D01*
X73605323Y-133612168D01*
X73605323Y-133374073D01*
X73652942Y-133183597D01*
X73700561Y-133088359D01*
X73748180Y-133040740D01*
X73843419Y-132993120D01*
X74557704Y-133088359D02*
X74605323Y-133040740D01*
X74700561Y-132993120D01*
X74938657Y-132993120D01*
X75033895Y-133040740D01*
X75081514Y-133088359D01*
X75129133Y-133183597D01*
X75129133Y-133278835D01*
X75081514Y-133421692D01*
X74510085Y-133993120D01*
X75129133Y-133993120D01*
X75748180Y-132993120D02*
X75843419Y-132993120D01*
X75938657Y-133040740D01*
X75986276Y-133088359D01*
X76033895Y-133183597D01*
X76081514Y-133374073D01*
X76081514Y-133612168D01*
X76033895Y-133802644D01*
X75986276Y-133897882D01*
X75938657Y-133945501D01*
X75843419Y-133993120D01*
X75748180Y-133993120D01*
X75652942Y-133945501D01*
X75605323Y-133897882D01*
X75557704Y-133802644D01*
X75510085Y-133612168D01*
X75510085Y-133374073D01*
X75557704Y-133183597D01*
X75605323Y-133088359D01*
X75652942Y-133040740D01*
X75748180Y-132993120D01*
D11*
X97366752Y-106102644D02*
X97366752Y-105302644D01*
X97557228Y-105302644D01*
X97671514Y-105340740D01*
X97747704Y-105416930D01*
X97785800Y-105493120D01*
X97823895Y-105645501D01*
X97823895Y-105759787D01*
X97785800Y-105912168D01*
X97747704Y-105988359D01*
X97671514Y-106064549D01*
X97557228Y-106102644D01*
X97366752Y-106102644D01*
X98166752Y-106102644D02*
X98166752Y-105302644D01*
X98547704Y-106102644D02*
X98547704Y-105302644D01*
X99004847Y-106102644D01*
X99004847Y-105302644D01*
X100302466Y-105440740D02*
X100235800Y-105407406D01*
X100135800Y-105407406D01*
X100035800Y-105440740D01*
X99969133Y-105507406D01*
X99935800Y-105574073D01*
X99902466Y-105707406D01*
X99902466Y-105807406D01*
X99935800Y-105940740D01*
X99969133Y-106007406D01*
X100035800Y-106074073D01*
X100135800Y-106107406D01*
X100202466Y-106107406D01*
X100302466Y-106074073D01*
X100335800Y-106040740D01*
X100335800Y-105807406D01*
X100202466Y-105807406D01*
X100635800Y-106107406D02*
X100635800Y-105407406D01*
X101035800Y-106107406D01*
X101035800Y-105407406D01*
X101369133Y-106107406D02*
X101369133Y-105407406D01*
X101535800Y-105407406D01*
X101635800Y-105440740D01*
X101702466Y-105507406D01*
X101735800Y-105574073D01*
X101769133Y-105707406D01*
X101769133Y-105807406D01*
X101735800Y-105940740D01*
X101702466Y-106007406D01*
X101635800Y-106074073D01*
X101535800Y-106107406D01*
X101369133Y-106107406D01*
D13*
X103245323Y-179073120D02*
X102769133Y-179073120D01*
X102721514Y-179549311D01*
X102769133Y-179501692D01*
X102864371Y-179454073D01*
X103102466Y-179454073D01*
X103197704Y-179501692D01*
X103245323Y-179549311D01*
X103292942Y-179644549D01*
X103292942Y-179882644D01*
X103245323Y-179977882D01*
X103197704Y-180025501D01*
X103102466Y-180073120D01*
X102864371Y-180073120D01*
X102769133Y-180025501D01*
X102721514Y-179977882D01*
X103578657Y-179073120D02*
X103911990Y-180073120D01*
X104245323Y-179073120D01*
D14*
X112589609Y-176023120D02*
X112589609Y-175023120D01*
X112970561Y-175023120D01*
X113065800Y-175070740D01*
X113113419Y-175118359D01*
X113161038Y-175213597D01*
X113161038Y-175356454D01*
X113113419Y-175451692D01*
X113065800Y-175499311D01*
X112970561Y-175546930D01*
X112589609Y-175546930D01*
X113732466Y-176023120D02*
X113637228Y-175975501D01*
X113589609Y-175927882D01*
X113541990Y-175832644D01*
X113541990Y-175546930D01*
X113589609Y-175451692D01*
X113637228Y-175404073D01*
X113732466Y-175356454D01*
X113875323Y-175356454D01*
X113970561Y-175404073D01*
X114018180Y-175451692D01*
X114065800Y-175546930D01*
X114065800Y-175832644D01*
X114018180Y-175927882D01*
X113970561Y-175975501D01*
X113875323Y-176023120D01*
X113732466Y-176023120D01*
X114399133Y-175356454D02*
X114589609Y-176023120D01*
X114780085Y-175546930D01*
X114970561Y-176023120D01*
X115161038Y-175356454D01*
X115922942Y-175975501D02*
X115827704Y-176023120D01*
X115637228Y-176023120D01*
X115541990Y-175975501D01*
X115494371Y-175880263D01*
X115494371Y-175499311D01*
X115541990Y-175404073D01*
X115637228Y-175356454D01*
X115827704Y-175356454D01*
X115922942Y-175404073D01*
X115970561Y-175499311D01*
X115970561Y-175594549D01*
X115494371Y-175689787D01*
X116399133Y-176023120D02*
X116399133Y-175356454D01*
X116399133Y-175546930D02*
X116446752Y-175451692D01*
X116494371Y-175404073D01*
X116589609Y-175356454D01*
X116684847Y-175356454D01*
X117921514Y-126873120D02*
X117588180Y-126396930D01*
X117350085Y-126873120D02*
X117350085Y-125873120D01*
X117731038Y-125873120D01*
X117826276Y-125920740D01*
X117873895Y-125968359D01*
X117921514Y-126063597D01*
X117921514Y-126206454D01*
X117873895Y-126301692D01*
X117826276Y-126349311D01*
X117731038Y-126396930D01*
X117350085Y-126396930D01*
X118302466Y-126825501D02*
X118445323Y-126873120D01*
X118683419Y-126873120D01*
X118778657Y-126825501D01*
X118826276Y-126777882D01*
X118873895Y-126682644D01*
X118873895Y-126587406D01*
X118826276Y-126492168D01*
X118778657Y-126444549D01*
X118683419Y-126396930D01*
X118492942Y-126349311D01*
X118397704Y-126301692D01*
X118350085Y-126254073D01*
X118302466Y-126158835D01*
X118302466Y-126063597D01*
X118350085Y-125968359D01*
X118397704Y-125920740D01*
X118492942Y-125873120D01*
X118731038Y-125873120D01*
X118873895Y-125920740D01*
X119302466Y-126492168D02*
X120064371Y-126492168D01*
X120969133Y-126206454D02*
X120969133Y-126873120D01*
X120731038Y-125825501D02*
X120492942Y-126539787D01*
X121111990Y-126539787D01*
X121635800Y-126301692D02*
X121540561Y-126254073D01*
X121492942Y-126206454D01*
X121445323Y-126111216D01*
X121445323Y-126063597D01*
X121492942Y-125968359D01*
X121540561Y-125920740D01*
X121635800Y-125873120D01*
X121826276Y-125873120D01*
X121921514Y-125920740D01*
X121969133Y-125968359D01*
X122016752Y-126063597D01*
X122016752Y-126111216D01*
X121969133Y-126206454D01*
X121921514Y-126254073D01*
X121826276Y-126301692D01*
X121635800Y-126301692D01*
X121540561Y-126349311D01*
X121492942Y-126396930D01*
X121445323Y-126492168D01*
X121445323Y-126682644D01*
X121492942Y-126777882D01*
X121540561Y-126825501D01*
X121635800Y-126873120D01*
X121826276Y-126873120D01*
X121921514Y-126825501D01*
X121969133Y-126777882D01*
X122016752Y-126682644D01*
X122016752Y-126492168D01*
X121969133Y-126396930D01*
X121921514Y-126349311D01*
X121826276Y-126301692D01*
X122921514Y-125873120D02*
X122445323Y-125873120D01*
X122397704Y-126349311D01*
X122445323Y-126301692D01*
X122540561Y-126254073D01*
X122778657Y-126254073D01*
X122873895Y-126301692D01*
X122921514Y-126349311D01*
X122969133Y-126444549D01*
X122969133Y-126682644D01*
X122921514Y-126777882D01*
X122873895Y-126825501D01*
X122778657Y-126873120D01*
X122540561Y-126873120D01*
X122445323Y-126825501D01*
X122397704Y-126777882D01*
X112167704Y-123057406D02*
X112643895Y-123057406D01*
X112072466Y-123343120D02*
X112405800Y-122343120D01*
X112739133Y-123343120D01*
X112557228Y-120099311D02*
X112700085Y-120146930D01*
X112747704Y-120194549D01*
X112795323Y-120289787D01*
X112795323Y-120432644D01*
X112747704Y-120527882D01*
X112700085Y-120575501D01*
X112604847Y-120623120D01*
X112223895Y-120623120D01*
X112223895Y-119623120D01*
X112557228Y-119623120D01*
X112652466Y-119670740D01*
X112700085Y-119718359D01*
X112747704Y-119813597D01*
X112747704Y-119908835D01*
X112700085Y-120004073D01*
X112652466Y-120051692D01*
X112557228Y-120099311D01*
X112223895Y-120099311D01*
X120047228Y-120079311D02*
X120190085Y-120126930D01*
X120237704Y-120174549D01*
X120285323Y-120269787D01*
X120285323Y-120412644D01*
X120237704Y-120507882D01*
X120190085Y-120555501D01*
X120094847Y-120603120D01*
X119713895Y-120603120D01*
X119713895Y-119603120D01*
X120047228Y-119603120D01*
X120142466Y-119650740D01*
X120190085Y-119698359D01*
X120237704Y-119793597D01*
X120237704Y-119888835D01*
X120190085Y-119984073D01*
X120142466Y-120031692D01*
X120047228Y-120079311D01*
X119713895Y-120079311D01*
X119497704Y-123357406D02*
X119973895Y-123357406D01*
X119402466Y-123643120D02*
X119735800Y-122643120D01*
X120069133Y-123643120D01*
X76993704Y-114947120D02*
X76660371Y-114470930D01*
X76422276Y-114947120D02*
X76422276Y-113947120D01*
X76803228Y-113947120D01*
X76898466Y-113994740D01*
X76946085Y-114042359D01*
X76993704Y-114137597D01*
X76993704Y-114280454D01*
X76946085Y-114375692D01*
X76898466Y-114423311D01*
X76803228Y-114470930D01*
X76422276Y-114470930D01*
X77803228Y-114899501D02*
X77707990Y-114947120D01*
X77517514Y-114947120D01*
X77422276Y-114899501D01*
X77374657Y-114804263D01*
X77374657Y-114423311D01*
X77422276Y-114328073D01*
X77517514Y-114280454D01*
X77707990Y-114280454D01*
X77803228Y-114328073D01*
X77850847Y-114423311D01*
X77850847Y-114518549D01*
X77374657Y-114613787D01*
X78231800Y-114899501D02*
X78327038Y-114947120D01*
X78517514Y-114947120D01*
X78612752Y-114899501D01*
X78660371Y-114804263D01*
X78660371Y-114756644D01*
X78612752Y-114661406D01*
X78517514Y-114613787D01*
X78374657Y-114613787D01*
X78279419Y-114566168D01*
X78231800Y-114470930D01*
X78231800Y-114423311D01*
X78279419Y-114328073D01*
X78374657Y-114280454D01*
X78517514Y-114280454D01*
X78612752Y-114328073D01*
X79469895Y-114899501D02*
X79374657Y-114947120D01*
X79184180Y-114947120D01*
X79088942Y-114899501D01*
X79041323Y-114804263D01*
X79041323Y-114423311D01*
X79088942Y-114328073D01*
X79184180Y-114280454D01*
X79374657Y-114280454D01*
X79469895Y-114328073D01*
X79517514Y-114423311D01*
X79517514Y-114518549D01*
X79041323Y-114613787D01*
X79803228Y-114280454D02*
X80184180Y-114280454D01*
X79946085Y-113947120D02*
X79946085Y-114804263D01*
X79993704Y-114899501D01*
X80088942Y-114947120D01*
X80184180Y-114947120D01*
X105243895Y-166290740D02*
X105148657Y-166243120D01*
X105005800Y-166243120D01*
X104862942Y-166290740D01*
X104767704Y-166385978D01*
X104720085Y-166481216D01*
X104672466Y-166671692D01*
X104672466Y-166814549D01*
X104720085Y-167005025D01*
X104767704Y-167100263D01*
X104862942Y-167195501D01*
X105005800Y-167243120D01*
X105101038Y-167243120D01*
X105243895Y-167195501D01*
X105291514Y-167147882D01*
X105291514Y-166814549D01*
X105101038Y-166814549D01*
X105720085Y-167243120D02*
X105720085Y-166243120D01*
X106291514Y-167243120D01*
X106291514Y-166243120D01*
X106767704Y-167243120D02*
X106767704Y-166243120D01*
X107005800Y-166243120D01*
X107148657Y-166290740D01*
X107243895Y-166385978D01*
X107291514Y-166481216D01*
X107339133Y-166671692D01*
X107339133Y-166814549D01*
X107291514Y-167005025D01*
X107243895Y-167100263D01*
X107148657Y-167195501D01*
X107005800Y-167243120D01*
X106767704Y-167243120D01*
X105313895Y-163820740D02*
X105218657Y-163773120D01*
X105075800Y-163773120D01*
X104932942Y-163820740D01*
X104837704Y-163915978D01*
X104790085Y-164011216D01*
X104742466Y-164201692D01*
X104742466Y-164344549D01*
X104790085Y-164535025D01*
X104837704Y-164630263D01*
X104932942Y-164725501D01*
X105075800Y-164773120D01*
X105171038Y-164773120D01*
X105313895Y-164725501D01*
X105361514Y-164677882D01*
X105361514Y-164344549D01*
X105171038Y-164344549D01*
X105790085Y-164773120D02*
X105790085Y-163773120D01*
X106361514Y-164773120D01*
X106361514Y-163773120D01*
X106837704Y-164773120D02*
X106837704Y-163773120D01*
X107075800Y-163773120D01*
X107218657Y-163820740D01*
X107313895Y-163915978D01*
X107361514Y-164011216D01*
X107409133Y-164201692D01*
X107409133Y-164344549D01*
X107361514Y-164535025D01*
X107313895Y-164630263D01*
X107218657Y-164725501D01*
X107075800Y-164773120D01*
X106837704Y-164773120D01*
X122273895Y-163860740D02*
X122178657Y-163813120D01*
X122035800Y-163813120D01*
X121892942Y-163860740D01*
X121797704Y-163955978D01*
X121750085Y-164051216D01*
X121702466Y-164241692D01*
X121702466Y-164384549D01*
X121750085Y-164575025D01*
X121797704Y-164670263D01*
X121892942Y-164765501D01*
X122035800Y-164813120D01*
X122131038Y-164813120D01*
X122273895Y-164765501D01*
X122321514Y-164717882D01*
X122321514Y-164384549D01*
X122131038Y-164384549D01*
X122750085Y-164813120D02*
X122750085Y-163813120D01*
X123321514Y-164813120D01*
X123321514Y-163813120D01*
X123797704Y-164813120D02*
X123797704Y-163813120D01*
X124035800Y-163813120D01*
X124178657Y-163860740D01*
X124273895Y-163955978D01*
X124321514Y-164051216D01*
X124369133Y-164241692D01*
X124369133Y-164384549D01*
X124321514Y-164575025D01*
X124273895Y-164670263D01*
X124178657Y-164765501D01*
X124035800Y-164813120D01*
X123797704Y-164813120D01*
X122203895Y-166400740D02*
X122108657Y-166353120D01*
X121965800Y-166353120D01*
X121822942Y-166400740D01*
X121727704Y-166495978D01*
X121680085Y-166591216D01*
X121632466Y-166781692D01*
X121632466Y-166924549D01*
X121680085Y-167115025D01*
X121727704Y-167210263D01*
X121822942Y-167305501D01*
X121965800Y-167353120D01*
X122061038Y-167353120D01*
X122203895Y-167305501D01*
X122251514Y-167257882D01*
X122251514Y-166924549D01*
X122061038Y-166924549D01*
X122680085Y-167353120D02*
X122680085Y-166353120D01*
X123251514Y-167353120D01*
X123251514Y-166353120D01*
X123727704Y-167353120D02*
X123727704Y-166353120D01*
X123965800Y-166353120D01*
X124108657Y-166400740D01*
X124203895Y-166495978D01*
X124251514Y-166591216D01*
X124299133Y-166781692D01*
X124299133Y-166924549D01*
X124251514Y-167115025D01*
X124203895Y-167210263D01*
X124108657Y-167305501D01*
X123965800Y-167353120D01*
X123727704Y-167353120D01*
X122625323Y-168903120D02*
X122149133Y-168903120D01*
X122101514Y-169379311D01*
X122149133Y-169331692D01*
X122244371Y-169284073D01*
X122482466Y-169284073D01*
X122577704Y-169331692D01*
X122625323Y-169379311D01*
X122672942Y-169474549D01*
X122672942Y-169712644D01*
X122625323Y-169807882D01*
X122577704Y-169855501D01*
X122482466Y-169903120D01*
X122244371Y-169903120D01*
X122149133Y-169855501D01*
X122101514Y-169807882D01*
X122958657Y-168903120D02*
X123291990Y-169903120D01*
X123625323Y-168903120D01*
X106355323Y-168823120D02*
X105879133Y-168823120D01*
X105831514Y-169299311D01*
X105879133Y-169251692D01*
X105974371Y-169204073D01*
X106212466Y-169204073D01*
X106307704Y-169251692D01*
X106355323Y-169299311D01*
X106402942Y-169394549D01*
X106402942Y-169632644D01*
X106355323Y-169727882D01*
X106307704Y-169775501D01*
X106212466Y-169823120D01*
X105974371Y-169823120D01*
X105879133Y-169775501D01*
X105831514Y-169727882D01*
X106688657Y-168823120D02*
X107021990Y-169823120D01*
X107355323Y-168823120D01*
X122635323Y-171333120D02*
X122159133Y-171333120D01*
X122111514Y-171809311D01*
X122159133Y-171761692D01*
X122254371Y-171714073D01*
X122492466Y-171714073D01*
X122587704Y-171761692D01*
X122635323Y-171809311D01*
X122682942Y-171904549D01*
X122682942Y-172142644D01*
X122635323Y-172237882D01*
X122587704Y-172285501D01*
X122492466Y-172333120D01*
X122254371Y-172333120D01*
X122159133Y-172285501D01*
X122111514Y-172237882D01*
X122968657Y-171333120D02*
X123301990Y-172333120D01*
X123635323Y-171333120D01*
X106275323Y-171313120D02*
X105799133Y-171313120D01*
X105751514Y-171789311D01*
X105799133Y-171741692D01*
X105894371Y-171694073D01*
X106132466Y-171694073D01*
X106227704Y-171741692D01*
X106275323Y-171789311D01*
X106322942Y-171884549D01*
X106322942Y-172122644D01*
X106275323Y-172217882D01*
X106227704Y-172265501D01*
X106132466Y-172313120D01*
X105894371Y-172313120D01*
X105799133Y-172265501D01*
X105751514Y-172217882D01*
X106608657Y-171313120D02*
X106941990Y-172313120D01*
X107275323Y-171313120D01*
X92997704Y-126573120D02*
X92997704Y-125573120D01*
X93331038Y-126287406D01*
X93664371Y-125573120D01*
X93664371Y-126573120D01*
X94569133Y-126573120D02*
X94569133Y-126049311D01*
X94521514Y-125954073D01*
X94426276Y-125906454D01*
X94235800Y-125906454D01*
X94140561Y-125954073D01*
X94569133Y-126525501D02*
X94473895Y-126573120D01*
X94235800Y-126573120D01*
X94140561Y-126525501D01*
X94092942Y-126430263D01*
X94092942Y-126335025D01*
X94140561Y-126239787D01*
X94235800Y-126192168D01*
X94473895Y-126192168D01*
X94569133Y-126144549D01*
X95473895Y-125906454D02*
X95473895Y-126715978D01*
X95426276Y-126811216D01*
X95378657Y-126858835D01*
X95283419Y-126906454D01*
X95140561Y-126906454D01*
X95045323Y-126858835D01*
X95473895Y-126525501D02*
X95378657Y-126573120D01*
X95188180Y-126573120D01*
X95092942Y-126525501D01*
X95045323Y-126477882D01*
X94997704Y-126382644D01*
X94997704Y-126096930D01*
X95045323Y-126001692D01*
X95092942Y-125954073D01*
X95188180Y-125906454D01*
X95378657Y-125906454D01*
X95473895Y-125954073D01*
D15*
X83695800Y-115135740D02*
X84330800Y-115135740D01*
X83695800Y-115770740D02*
X83695800Y-115135740D01*
X91420800Y-110290740D02*
X91420800Y-110225740D01*
X94950800Y-110290740D02*
X94950800Y-110225740D01*
X91420800Y-116695740D02*
X91420800Y-116630740D01*
X94950800Y-116695740D02*
X94950800Y-116630740D01*
X96275800Y-116630740D02*
X94950800Y-116630740D01*
X94950800Y-110225740D02*
X91420800Y-110225740D01*
X94950800Y-116695740D02*
X91420800Y-116695740D01*
D13*
X106565800Y-113365740D02*
X106465800Y-113365740D01*
X99740800Y-113365740D02*
X99765800Y-113365740D01*
X99740800Y-108715740D02*
X99765800Y-108715740D01*
X106565800Y-107640740D02*
X106565800Y-113365740D01*
X99740800Y-108715740D02*
X99740800Y-113365740D01*
D15*
X116445800Y-108100740D02*
X114445800Y-108100740D01*
X114445800Y-110140740D02*
X116445800Y-110140740D01*
X123375800Y-116820740D02*
X123375800Y-110870740D01*
X123375800Y-110870740D02*
X113275800Y-110870740D01*
X113275800Y-110870740D02*
X113275800Y-116820740D01*
X113275800Y-116820740D02*
X123375800Y-116820740D01*
X120075800Y-116820740D02*
X120075800Y-116070740D01*
X120075800Y-116070740D02*
X116575800Y-116070740D01*
X116575800Y-116070740D02*
X116575800Y-116820740D01*
X116575800Y-116820740D02*
X120075800Y-116820740D01*
X123375800Y-116820740D02*
X123375800Y-116070740D01*
X123375800Y-116070740D02*
X121575800Y-116070740D01*
X121575800Y-116070740D02*
X121575800Y-116820740D01*
X121575800Y-116820740D02*
X123375800Y-116820740D01*
X115075800Y-116820740D02*
X115075800Y-116070740D01*
X115075800Y-116070740D02*
X113275800Y-116070740D01*
X113275800Y-116070740D02*
X113275800Y-116820740D01*
X113275800Y-116820740D02*
X115075800Y-116820740D01*
X123375800Y-114570740D02*
X122625800Y-114570740D01*
X122625800Y-114570740D02*
X122625800Y-111620740D01*
X122625800Y-111620740D02*
X118325800Y-111620740D01*
X113275800Y-114570740D02*
X114025800Y-114570740D01*
X114025800Y-114570740D02*
X114025800Y-111620740D01*
X114025800Y-111620740D02*
X118325800Y-111620740D01*
X121175800Y-117120740D02*
X123675800Y-117120740D01*
X123675800Y-117120740D02*
X123675800Y-114620740D01*
X102525800Y-174510740D02*
X101825800Y-174510740D01*
X101825800Y-173310740D02*
X102525800Y-173310740D01*
X93375800Y-174740740D02*
X93375800Y-174040740D01*
X94575800Y-174040740D02*
X94575800Y-174740740D01*
D13*
X79870800Y-139485740D02*
X79620800Y-139485740D01*
X79870800Y-147235740D02*
X79525800Y-147235740D01*
X61620800Y-147235740D02*
X61965800Y-147235740D01*
X61620800Y-139485740D02*
X61965800Y-139485740D01*
X79870800Y-139485740D02*
X79870800Y-147235740D01*
X61620800Y-139485740D02*
X61620800Y-147235740D01*
X79620800Y-139485740D02*
X79620800Y-137660740D01*
D15*
X97205800Y-176500740D02*
X99005800Y-176500740D01*
X99005800Y-173280740D02*
X96555800Y-173280740D01*
X97515800Y-107940740D02*
X97515800Y-106940740D01*
X98875800Y-106940740D02*
X98875800Y-107940740D01*
X92965800Y-173740740D02*
X92965800Y-174740740D01*
X91605800Y-174740740D02*
X91605800Y-173740740D01*
X86815800Y-170220740D02*
X86815800Y-164270740D01*
X86815800Y-164270740D02*
X74215800Y-164270740D01*
X74215800Y-164270740D02*
X74215800Y-170220740D01*
X74215800Y-170220740D02*
X86815800Y-170220740D01*
X83515800Y-170220740D02*
X83515800Y-169470740D01*
X83515800Y-169470740D02*
X77515800Y-169470740D01*
X77515800Y-169470740D02*
X77515800Y-170220740D01*
X77515800Y-170220740D02*
X83515800Y-170220740D01*
X86815800Y-170220740D02*
X86815800Y-169470740D01*
X86815800Y-169470740D02*
X85015800Y-169470740D01*
X85015800Y-169470740D02*
X85015800Y-170220740D01*
X85015800Y-170220740D02*
X86815800Y-170220740D01*
X76015800Y-170220740D02*
X76015800Y-169470740D01*
X76015800Y-169470740D02*
X74215800Y-169470740D01*
X74215800Y-169470740D02*
X74215800Y-170220740D01*
X74215800Y-170220740D02*
X76015800Y-170220740D01*
X86815800Y-167970740D02*
X86065800Y-167970740D01*
X86065800Y-167970740D02*
X86065800Y-165020740D01*
X86065800Y-165020740D02*
X80515800Y-165020740D01*
X74215800Y-167970740D02*
X74965800Y-167970740D01*
X74965800Y-167970740D02*
X74965800Y-165020740D01*
X74965800Y-165020740D02*
X80515800Y-165020740D01*
X84615800Y-170520740D02*
X87115800Y-170520740D01*
X87115800Y-170520740D02*
X87115800Y-168020740D01*
X88225800Y-119680740D02*
X88225800Y-125630740D01*
X88225800Y-125630740D02*
X100825800Y-125630740D01*
X100825800Y-125630740D02*
X100825800Y-119680740D01*
X100825800Y-119680740D02*
X88225800Y-119680740D01*
X91525800Y-119680740D02*
X91525800Y-120430740D01*
X91525800Y-120430740D02*
X97525800Y-120430740D01*
X97525800Y-120430740D02*
X97525800Y-119680740D01*
X97525800Y-119680740D02*
X91525800Y-119680740D01*
X88225800Y-119680740D02*
X88225800Y-120430740D01*
X88225800Y-120430740D02*
X90025800Y-120430740D01*
X90025800Y-120430740D02*
X90025800Y-119680740D01*
X90025800Y-119680740D02*
X88225800Y-119680740D01*
X99025800Y-119680740D02*
X99025800Y-120430740D01*
X99025800Y-120430740D02*
X100825800Y-120430740D01*
X100825800Y-120430740D02*
X100825800Y-119680740D01*
X100825800Y-119680740D02*
X99025800Y-119680740D01*
X88225800Y-121930740D02*
X88975800Y-121930740D01*
X88975800Y-121930740D02*
X88975800Y-124880740D01*
X88975800Y-124880740D02*
X94525800Y-124880740D01*
X100825800Y-121930740D02*
X100075800Y-121930740D01*
X100075800Y-121930740D02*
X100075800Y-124880740D01*
X100075800Y-124880740D02*
X94525800Y-124880740D01*
X90425800Y-119380740D02*
X87925800Y-119380740D01*
X87925800Y-119380740D02*
X87925800Y-121880740D01*
X74215800Y-157270740D02*
X74215800Y-163220740D01*
X74215800Y-163220740D02*
X86815800Y-163220740D01*
X86815800Y-163220740D02*
X86815800Y-157270740D01*
X86815800Y-157270740D02*
X74215800Y-157270740D01*
X77515800Y-157270740D02*
X77515800Y-158020740D01*
X77515800Y-158020740D02*
X83515800Y-158020740D01*
X83515800Y-158020740D02*
X83515800Y-157270740D01*
X83515800Y-157270740D02*
X77515800Y-157270740D01*
X74215800Y-157270740D02*
X74215800Y-158020740D01*
X74215800Y-158020740D02*
X76015800Y-158020740D01*
X76015800Y-158020740D02*
X76015800Y-157270740D01*
X76015800Y-157270740D02*
X74215800Y-157270740D01*
X85015800Y-157270740D02*
X85015800Y-158020740D01*
X85015800Y-158020740D02*
X86815800Y-158020740D01*
X86815800Y-158020740D02*
X86815800Y-157270740D01*
X86815800Y-157270740D02*
X85015800Y-157270740D01*
X74215800Y-159520740D02*
X74965800Y-159520740D01*
X74965800Y-159520740D02*
X74965800Y-162470740D01*
X74965800Y-162470740D02*
X80515800Y-162470740D01*
X86815800Y-159520740D02*
X86065800Y-159520740D01*
X86065800Y-159520740D02*
X86065800Y-162470740D01*
X86065800Y-162470740D02*
X80515800Y-162470740D01*
X76415800Y-156970740D02*
X73915800Y-156970740D01*
X73915800Y-156970740D02*
X73915800Y-159470740D01*
X94745800Y-170370740D02*
X97635800Y-170370740D01*
X103645800Y-170370740D02*
X100755800Y-170370740D01*
X104405800Y-159950740D02*
X100755800Y-159950740D01*
X93985800Y-159950740D02*
X97635800Y-159950740D01*
X104405800Y-159950740D02*
X104405800Y-169610740D01*
X104405800Y-169610740D02*
X103645800Y-170370740D01*
X94745800Y-170370740D02*
X93985800Y-169610740D01*
X93985800Y-169610740D02*
X93985800Y-159950740D01*
X118575800Y-108780740D02*
X119575800Y-108780740D01*
X119575800Y-110140740D02*
X118575800Y-110140740D01*
X113185800Y-125440740D02*
X119135800Y-125440740D01*
X119135800Y-125440740D02*
X119135800Y-117840740D01*
X119135800Y-117840740D02*
X113185800Y-117840740D01*
X113185800Y-117840740D02*
X113185800Y-125440740D01*
X113185800Y-122140740D02*
X113935800Y-122140740D01*
X113935800Y-122140740D02*
X113935800Y-121140740D01*
X113935800Y-121140740D02*
X113185800Y-121140740D01*
X113185800Y-121140740D02*
X113185800Y-122140740D01*
X113185800Y-125440740D02*
X113935800Y-125440740D01*
X113935800Y-125440740D02*
X113935800Y-123640740D01*
X113935800Y-123640740D02*
X113185800Y-123640740D01*
X113185800Y-123640740D02*
X113185800Y-125440740D01*
X113185800Y-119640740D02*
X113935800Y-119640740D01*
X113935800Y-119640740D02*
X113935800Y-117840740D01*
X113935800Y-117840740D02*
X113185800Y-117840740D01*
X113185800Y-117840740D02*
X113185800Y-119640740D01*
X115435800Y-125440740D02*
X115435800Y-124690740D01*
X115435800Y-124690740D02*
X118385800Y-124690740D01*
X118385800Y-124690740D02*
X118385800Y-121640740D01*
X115435800Y-117840740D02*
X115435800Y-118590740D01*
X115435800Y-118590740D02*
X118385800Y-118590740D01*
X118385800Y-118590740D02*
X118385800Y-121640740D01*
X112885800Y-123240740D02*
X112885800Y-125740740D01*
X112885800Y-125740740D02*
X115385800Y-125740740D01*
X113795800Y-161720740D02*
X107845800Y-161720740D01*
X107845800Y-161720740D02*
X107845800Y-174320740D01*
X107845800Y-174320740D02*
X113795800Y-174320740D01*
X113795800Y-174320740D02*
X113795800Y-161720740D01*
X113795800Y-165020740D02*
X113045800Y-165020740D01*
X113045800Y-165020740D02*
X113045800Y-171020740D01*
X113045800Y-171020740D02*
X113795800Y-171020740D01*
X113795800Y-171020740D02*
X113795800Y-165020740D01*
X113795800Y-161720740D02*
X113045800Y-161720740D01*
X113045800Y-161720740D02*
X113045800Y-163520740D01*
X113045800Y-163520740D02*
X113795800Y-163520740D01*
X113795800Y-163520740D02*
X113795800Y-161720740D01*
X113795800Y-172520740D02*
X113045800Y-172520740D01*
X113045800Y-172520740D02*
X113045800Y-174320740D01*
X113045800Y-174320740D02*
X113795800Y-174320740D01*
X113795800Y-174320740D02*
X113795800Y-172520740D01*
X111545800Y-161720740D02*
X111545800Y-162470740D01*
X111545800Y-162470740D02*
X108595800Y-162470740D01*
X108595800Y-162470740D02*
X108595800Y-168020740D01*
X111545800Y-174320740D02*
X111545800Y-173570740D01*
X111545800Y-173570740D02*
X108595800Y-173570740D01*
X108595800Y-173570740D02*
X108595800Y-168020740D01*
X114095800Y-163920740D02*
X114095800Y-161420740D01*
X114095800Y-161420740D02*
X111595800Y-161420740D01*
X120735800Y-125480740D02*
X126685800Y-125480740D01*
X126685800Y-125480740D02*
X126685800Y-117880740D01*
X126685800Y-117880740D02*
X120735800Y-117880740D01*
X120735800Y-117880740D02*
X120735800Y-125480740D01*
X120735800Y-122180740D02*
X121485800Y-122180740D01*
X121485800Y-122180740D02*
X121485800Y-121180740D01*
X121485800Y-121180740D02*
X120735800Y-121180740D01*
X120735800Y-121180740D02*
X120735800Y-122180740D01*
X120735800Y-125480740D02*
X121485800Y-125480740D01*
X121485800Y-125480740D02*
X121485800Y-123680740D01*
X121485800Y-123680740D02*
X120735800Y-123680740D01*
X120735800Y-123680740D02*
X120735800Y-125480740D01*
X120735800Y-119680740D02*
X121485800Y-119680740D01*
X121485800Y-119680740D02*
X121485800Y-117880740D01*
X121485800Y-117880740D02*
X120735800Y-117880740D01*
X120735800Y-117880740D02*
X120735800Y-119680740D01*
X122985800Y-125480740D02*
X122985800Y-124730740D01*
X122985800Y-124730740D02*
X125935800Y-124730740D01*
X125935800Y-124730740D02*
X125935800Y-121680740D01*
X122985800Y-117880740D02*
X122985800Y-118630740D01*
X122985800Y-118630740D02*
X125935800Y-118630740D01*
X125935800Y-118630740D02*
X125935800Y-121680740D01*
X120435800Y-123280740D02*
X120435800Y-125780740D01*
X120435800Y-125780740D02*
X122935800Y-125780740D01*
X121025800Y-161720740D02*
X115075800Y-161720740D01*
X115075800Y-161720740D02*
X115075800Y-174320740D01*
X115075800Y-174320740D02*
X121025800Y-174320740D01*
X121025800Y-174320740D02*
X121025800Y-161720740D01*
X121025800Y-165020740D02*
X120275800Y-165020740D01*
X120275800Y-165020740D02*
X120275800Y-171020740D01*
X120275800Y-171020740D02*
X121025800Y-171020740D01*
X121025800Y-171020740D02*
X121025800Y-165020740D01*
X121025800Y-161720740D02*
X120275800Y-161720740D01*
X120275800Y-161720740D02*
X120275800Y-163520740D01*
X120275800Y-163520740D02*
X121025800Y-163520740D01*
X121025800Y-163520740D02*
X121025800Y-161720740D01*
X121025800Y-172520740D02*
X120275800Y-172520740D01*
X120275800Y-172520740D02*
X120275800Y-174320740D01*
X120275800Y-174320740D02*
X121025800Y-174320740D01*
X121025800Y-174320740D02*
X121025800Y-172520740D01*
X118775800Y-161720740D02*
X118775800Y-162470740D01*
X118775800Y-162470740D02*
X115825800Y-162470740D01*
X115825800Y-162470740D02*
X115825800Y-168020740D01*
X118775800Y-174320740D02*
X118775800Y-173570740D01*
X118775800Y-173570740D02*
X115825800Y-173570740D01*
X115825800Y-173570740D02*
X115825800Y-168020740D01*
X121325800Y-163920740D02*
X121325800Y-161420740D01*
X121325800Y-161420740D02*
X118825800Y-161420740D01*
X108655800Y-113530740D02*
X108655800Y-114230740D01*
X107455800Y-114230740D02*
X107455800Y-113530740D01*
X111865800Y-110700740D02*
X111865800Y-109770740D01*
X111865800Y-107540740D02*
X111865800Y-108470740D01*
X111865800Y-107540740D02*
X109705800Y-107540740D01*
X111865800Y-110700740D02*
X110405800Y-110700740D01*
D13*
X104190800Y-119535740D02*
X104190800Y-119585740D01*
X108340800Y-119535740D02*
X108340800Y-119680740D01*
X108340800Y-124685740D02*
X108340800Y-124540740D01*
X104190800Y-124685740D02*
X104190800Y-124540740D01*
X104190800Y-119535740D02*
X108340800Y-119535740D01*
X104190800Y-124685740D02*
X108340800Y-124685740D01*
X104190800Y-119585740D02*
X102790800Y-119585740D01*
X80700800Y-127045740D02*
X80175800Y-127045740D01*
X75450800Y-121795740D02*
X75975800Y-121795740D01*
X75450800Y-127045740D02*
X75975800Y-127045740D01*
X80700800Y-121795740D02*
X80700800Y-122320740D01*
X75450800Y-121795740D02*
X75450800Y-122320740D01*
X75450800Y-127045740D02*
X75450800Y-126520740D01*
X80700800Y-127045740D02*
X80700800Y-126520740D01*
X125315971Y-127113911D02*
G75*
G02X125695945Y-157780740I-180171J-15338001D01*
G01*
X95525800Y-157700619D02*
G75*
G02X95475800Y-127061139I60000J15319879D01*
G01*
X94419820Y-127106033D02*
X125939820Y-127066033D01*
X94595800Y-157680740D02*
X126255800Y-157830740D01*
D15*
X80431800Y-116984740D02*
X80431800Y-117084740D01*
X76031800Y-118584740D02*
X80431800Y-118584740D01*
X80431800Y-115484740D02*
X76031800Y-115484740D01*
X76031800Y-116984740D02*
X76031800Y-117084740D01*
X98615800Y-117480740D02*
X99615800Y-117480740D01*
X99615800Y-118840740D02*
X98615800Y-118840740D01*
X92185800Y-117370740D02*
X93185800Y-117370740D01*
X93185800Y-118730740D02*
X92185800Y-118730740D01*
X85095800Y-111946740D02*
X85095800Y-110946740D01*
X86455800Y-110946740D02*
X86455800Y-111946740D01*
X86949800Y-111946740D02*
X86949800Y-110946740D01*
X88309800Y-110946740D02*
X88309800Y-111946740D01*
X128645800Y-123820740D02*
X128645800Y-124820740D01*
X127285800Y-124820740D02*
X127285800Y-123820740D01*
X75765800Y-152650740D02*
X75765800Y-151650740D01*
X77125800Y-151650740D02*
X77125800Y-152650740D01*
X129775800Y-119310740D02*
X129775800Y-120710740D01*
X129075800Y-121410740D02*
X128475800Y-121410740D01*
X127775800Y-120710740D02*
X127775800Y-119310740D01*
X128475800Y-118610740D02*
X129075800Y-118610740D01*
X129075800Y-118610740D02*
G75*
G02X129775800Y-119310740I0J-700000D01*
G01*
X127775800Y-119310740D02*
G75*
G02X128475800Y-118610740I700000J0D01*
G01*
X128475800Y-121410740D02*
G75*
G02X127775800Y-120710740I0J700000D01*
G01*
X129775800Y-120710740D02*
G75*
G02X129075800Y-121410740I-700000J0D01*
G01*
X94875800Y-118660740D02*
X96575800Y-118660740D01*
X94875800Y-117860740D02*
X94875800Y-118660740D01*
X94875800Y-117660740D02*
X94875800Y-117860740D01*
X94975800Y-117660740D02*
X94875800Y-117660740D01*
X95075800Y-117660740D02*
X94975800Y-117660740D01*
X95075800Y-117660740D02*
X96575800Y-117660740D01*
X73685800Y-120820740D02*
X73685800Y-120120740D01*
X74885800Y-120120740D02*
X74885800Y-120820740D01*
X73555800Y-120120740D02*
X73555800Y-120820740D01*
X72355800Y-120820740D02*
X72355800Y-120120740D01*
X109225800Y-108720740D02*
X109225800Y-109420740D01*
X108025800Y-109420740D02*
X108025800Y-108720740D01*
X108345800Y-117710740D02*
X109045800Y-117710740D01*
X109045800Y-118910740D02*
X108345800Y-118910740D01*
X108345800Y-116260740D02*
X109045800Y-116260740D01*
X109045800Y-117460740D02*
X108345800Y-117460740D01*
X64325800Y-151510740D02*
X64325800Y-150810740D01*
X65525800Y-150810740D02*
X65525800Y-151510740D01*
X95357800Y-109506740D02*
X94657800Y-109506740D01*
X94657800Y-108306740D02*
X95357800Y-108306740D01*
X79235800Y-136620740D02*
X78535800Y-136620740D01*
X78535800Y-135420740D02*
X79235800Y-135420740D01*
D13*
X81748180Y-121146263D02*
X82462466Y-121146263D01*
X82605323Y-121193882D01*
X82700561Y-121289120D01*
X82748180Y-121431978D01*
X82748180Y-121527216D01*
X82748180Y-120146263D02*
X82748180Y-120717692D01*
X82748180Y-120431978D02*
X81748180Y-120431978D01*
X81891038Y-120527216D01*
X81986276Y-120622454D01*
X82033895Y-120717692D01*
X81748180Y-119812930D02*
X81748180Y-119193882D01*
X82129133Y-119527216D01*
X82129133Y-119384359D01*
X82176752Y-119289120D01*
X82224371Y-119241501D01*
X82319609Y-119193882D01*
X82557704Y-119193882D01*
X82652942Y-119241501D01*
X82700561Y-119289120D01*
X82748180Y-119384359D01*
X82748180Y-119670073D01*
X82700561Y-119765311D01*
X82652942Y-119812930D01*
X96988180Y-113732644D02*
X97797704Y-113732644D01*
X97892942Y-113685025D01*
X97940561Y-113637406D01*
X97988180Y-113542168D01*
X97988180Y-113351692D01*
X97940561Y-113256454D01*
X97892942Y-113208835D01*
X97797704Y-113161216D01*
X96988180Y-113161216D01*
X97321514Y-112256454D02*
X97988180Y-112256454D01*
X96940561Y-112494549D02*
X97654847Y-112732644D01*
X97654847Y-112113597D01*
X106868180Y-111802644D02*
X107677704Y-111802644D01*
X107772942Y-111755025D01*
X107820561Y-111707406D01*
X107868180Y-111612168D01*
X107868180Y-111421692D01*
X107820561Y-111326454D01*
X107772942Y-111278835D01*
X107677704Y-111231216D01*
X106868180Y-111231216D01*
X106868180Y-110850263D02*
X106868180Y-110231216D01*
X107249133Y-110564549D01*
X107249133Y-110421692D01*
X107296752Y-110326454D01*
X107344371Y-110278835D01*
X107439609Y-110231216D01*
X107677704Y-110231216D01*
X107772942Y-110278835D01*
X107820561Y-110326454D01*
X107868180Y-110421692D01*
X107868180Y-110707406D01*
X107820561Y-110802644D01*
X107772942Y-110850263D01*
X115062942Y-107827882D02*
X115015323Y-107875501D01*
X114872466Y-107923120D01*
X114777228Y-107923120D01*
X114634371Y-107875501D01*
X114539133Y-107780263D01*
X114491514Y-107685025D01*
X114443895Y-107494549D01*
X114443895Y-107351692D01*
X114491514Y-107161216D01*
X114539133Y-107065978D01*
X114634371Y-106970740D01*
X114777228Y-106923120D01*
X114872466Y-106923120D01*
X115015323Y-106970740D01*
X115062942Y-107018359D01*
X116015323Y-107923120D02*
X115443895Y-107923120D01*
X115729609Y-107923120D02*
X115729609Y-106923120D01*
X115634371Y-107065978D01*
X115539133Y-107161216D01*
X115443895Y-107208835D01*
X116586752Y-107351692D02*
X116491514Y-107304073D01*
X116443895Y-107256454D01*
X116396276Y-107161216D01*
X116396276Y-107113597D01*
X116443895Y-107018359D01*
X116491514Y-106970740D01*
X116586752Y-106923120D01*
X116777228Y-106923120D01*
X116872466Y-106970740D01*
X116920085Y-107018359D01*
X116967704Y-107113597D01*
X116967704Y-107161216D01*
X116920085Y-107256454D01*
X116872466Y-107304073D01*
X116777228Y-107351692D01*
X116586752Y-107351692D01*
X116491514Y-107399311D01*
X116443895Y-107446930D01*
X116396276Y-107542168D01*
X116396276Y-107732644D01*
X116443895Y-107827882D01*
X116491514Y-107875501D01*
X116586752Y-107923120D01*
X116777228Y-107923120D01*
X116872466Y-107875501D01*
X116920085Y-107827882D01*
X116967704Y-107732644D01*
X116967704Y-107542168D01*
X116920085Y-107446930D01*
X116872466Y-107399311D01*
X116777228Y-107351692D01*
X124272466Y-113213120D02*
X124272466Y-113927406D01*
X124224847Y-114070263D01*
X124129609Y-114165501D01*
X123986752Y-114213120D01*
X123891514Y-114213120D01*
X124653419Y-113213120D02*
X125320085Y-113213120D01*
X124891514Y-114213120D01*
X102069133Y-175977882D02*
X102021514Y-176025501D01*
X101878657Y-176073120D01*
X101783419Y-176073120D01*
X101640561Y-176025501D01*
X101545323Y-175930263D01*
X101497704Y-175835025D01*
X101450085Y-175644549D01*
X101450085Y-175501692D01*
X101497704Y-175311216D01*
X101545323Y-175215978D01*
X101640561Y-175120740D01*
X101783419Y-175073120D01*
X101878657Y-175073120D01*
X102021514Y-175120740D01*
X102069133Y-175168359D01*
X102926276Y-175073120D02*
X102735800Y-175073120D01*
X102640561Y-175120740D01*
X102592942Y-175168359D01*
X102497704Y-175311216D01*
X102450085Y-175501692D01*
X102450085Y-175882644D01*
X102497704Y-175977882D01*
X102545323Y-176025501D01*
X102640561Y-176073120D01*
X102831038Y-176073120D01*
X102926276Y-176025501D01*
X102973895Y-175977882D01*
X103021514Y-175882644D01*
X103021514Y-175644549D01*
X102973895Y-175549311D01*
X102926276Y-175501692D01*
X102831038Y-175454073D01*
X102640561Y-175454073D01*
X102545323Y-175501692D01*
X102497704Y-175549311D01*
X102450085Y-175644549D01*
X94392942Y-176987406D02*
X94440561Y-177035025D01*
X94488180Y-177177882D01*
X94488180Y-177273120D01*
X94440561Y-177415978D01*
X94345323Y-177511216D01*
X94250085Y-177558835D01*
X94059609Y-177606454D01*
X93916752Y-177606454D01*
X93726276Y-177558835D01*
X93631038Y-177511216D01*
X93535800Y-177415978D01*
X93488180Y-177273120D01*
X93488180Y-177177882D01*
X93535800Y-177035025D01*
X93583419Y-176987406D01*
X93488180Y-176654073D02*
X93488180Y-175987406D01*
X94488180Y-176415978D01*
X80058180Y-150032644D02*
X80867704Y-150032644D01*
X80962942Y-149985025D01*
X81010561Y-149937406D01*
X81058180Y-149842168D01*
X81058180Y-149651692D01*
X81010561Y-149556454D01*
X80962942Y-149508835D01*
X80867704Y-149461216D01*
X80058180Y-149461216D01*
X80058180Y-148556454D02*
X80058180Y-148746930D01*
X80105800Y-148842168D01*
X80153419Y-148889787D01*
X80296276Y-148985025D01*
X80486752Y-149032644D01*
X80867704Y-149032644D01*
X80962942Y-148985025D01*
X81010561Y-148937406D01*
X81058180Y-148842168D01*
X81058180Y-148651692D01*
X81010561Y-148556454D01*
X80962942Y-148508835D01*
X80867704Y-148461216D01*
X80629609Y-148461216D01*
X80534371Y-148508835D01*
X80486752Y-148556454D01*
X80439133Y-148651692D01*
X80439133Y-148842168D01*
X80486752Y-148937406D01*
X80534371Y-148985025D01*
X80629609Y-149032644D01*
X97373895Y-176973120D02*
X97373895Y-177782644D01*
X97421514Y-177877882D01*
X97469133Y-177925501D01*
X97564371Y-177973120D01*
X97754847Y-177973120D01*
X97850085Y-177925501D01*
X97897704Y-177877882D01*
X97945323Y-177782644D01*
X97945323Y-176973120D01*
X98897704Y-176973120D02*
X98421514Y-176973120D01*
X98373895Y-177449311D01*
X98421514Y-177401692D01*
X98516752Y-177354073D01*
X98754847Y-177354073D01*
X98850085Y-177401692D01*
X98897704Y-177449311D01*
X98945323Y-177544549D01*
X98945323Y-177782644D01*
X98897704Y-177877882D01*
X98850085Y-177925501D01*
X98754847Y-177973120D01*
X98516752Y-177973120D01*
X98421514Y-177925501D01*
X98373895Y-177877882D01*
X98718180Y-109797406D02*
X98241990Y-110130740D01*
X98718180Y-110368835D02*
X97718180Y-110368835D01*
X97718180Y-109987882D01*
X97765800Y-109892644D01*
X97813419Y-109845025D01*
X97908657Y-109797406D01*
X98051514Y-109797406D01*
X98146752Y-109845025D01*
X98194371Y-109892644D01*
X98241990Y-109987882D01*
X98241990Y-110368835D01*
X98718180Y-109321216D02*
X98718180Y-109130740D01*
X98670561Y-109035501D01*
X98622942Y-108987882D01*
X98480085Y-108892644D01*
X98289609Y-108845025D01*
X97908657Y-108845025D01*
X97813419Y-108892644D01*
X97765800Y-108940263D01*
X97718180Y-109035501D01*
X97718180Y-109225978D01*
X97765800Y-109321216D01*
X97813419Y-109368835D01*
X97908657Y-109416454D01*
X98146752Y-109416454D01*
X98241990Y-109368835D01*
X98289609Y-109321216D01*
X98337228Y-109225978D01*
X98337228Y-109035501D01*
X98289609Y-108940263D01*
X98241990Y-108892644D01*
X98146752Y-108845025D01*
X92788180Y-176887406D02*
X92311990Y-177220740D01*
X92788180Y-177458835D02*
X91788180Y-177458835D01*
X91788180Y-177077882D01*
X91835800Y-176982644D01*
X91883419Y-176935025D01*
X91978657Y-176887406D01*
X92121514Y-176887406D01*
X92216752Y-176935025D01*
X92264371Y-176982644D01*
X92311990Y-177077882D01*
X92311990Y-177458835D01*
X92216752Y-176315978D02*
X92169133Y-176411216D01*
X92121514Y-176458835D01*
X92026276Y-176506454D01*
X91978657Y-176506454D01*
X91883419Y-176458835D01*
X91835800Y-176411216D01*
X91788180Y-176315978D01*
X91788180Y-176125501D01*
X91835800Y-176030263D01*
X91883419Y-175982644D01*
X91978657Y-175935025D01*
X92026276Y-175935025D01*
X92121514Y-175982644D01*
X92169133Y-176030263D01*
X92216752Y-176125501D01*
X92216752Y-176315978D01*
X92264371Y-176411216D01*
X92311990Y-176458835D01*
X92407228Y-176506454D01*
X92597704Y-176506454D01*
X92692942Y-176458835D01*
X92740561Y-176411216D01*
X92788180Y-176315978D01*
X92788180Y-176125501D01*
X92740561Y-176030263D01*
X92692942Y-175982644D01*
X92597704Y-175935025D01*
X92407228Y-175935025D01*
X92311990Y-175982644D01*
X92264371Y-176030263D01*
X92216752Y-176125501D01*
X87916276Y-166223120D02*
X87916276Y-166937406D01*
X87868657Y-167080263D01*
X87773419Y-167175501D01*
X87630561Y-167223120D01*
X87535323Y-167223120D01*
X88916276Y-167223120D02*
X88344847Y-167223120D01*
X88630561Y-167223120D02*
X88630561Y-166223120D01*
X88535323Y-166365978D01*
X88440085Y-166461216D01*
X88344847Y-166508835D01*
X89535323Y-166223120D02*
X89630561Y-166223120D01*
X89725800Y-166270740D01*
X89773419Y-166318359D01*
X89821038Y-166413597D01*
X89868657Y-166604073D01*
X89868657Y-166842168D01*
X89821038Y-167032644D01*
X89773419Y-167127882D01*
X89725800Y-167175501D01*
X89630561Y-167223120D01*
X89535323Y-167223120D01*
X89440085Y-167175501D01*
X89392466Y-167127882D01*
X89344847Y-167032644D01*
X89297228Y-166842168D01*
X89297228Y-166604073D01*
X89344847Y-166413597D01*
X89392466Y-166318359D01*
X89440085Y-166270740D01*
X89535323Y-166223120D01*
X85646276Y-120443120D02*
X85646276Y-121157406D01*
X85598657Y-121300263D01*
X85503419Y-121395501D01*
X85360561Y-121443120D01*
X85265323Y-121443120D01*
X86646276Y-121443120D02*
X86074847Y-121443120D01*
X86360561Y-121443120D02*
X86360561Y-120443120D01*
X86265323Y-120585978D01*
X86170085Y-120681216D01*
X86074847Y-120728835D01*
X87598657Y-121443120D02*
X87027228Y-121443120D01*
X87312942Y-121443120D02*
X87312942Y-120443120D01*
X87217704Y-120585978D01*
X87122466Y-120681216D01*
X87027228Y-120728835D01*
X88242466Y-160023120D02*
X88242466Y-160737406D01*
X88194847Y-160880263D01*
X88099609Y-160975501D01*
X87956752Y-161023120D01*
X87861514Y-161023120D01*
X88861514Y-160451692D02*
X88766276Y-160404073D01*
X88718657Y-160356454D01*
X88671038Y-160261216D01*
X88671038Y-160213597D01*
X88718657Y-160118359D01*
X88766276Y-160070740D01*
X88861514Y-160023120D01*
X89051990Y-160023120D01*
X89147228Y-160070740D01*
X89194847Y-160118359D01*
X89242466Y-160213597D01*
X89242466Y-160261216D01*
X89194847Y-160356454D01*
X89147228Y-160404073D01*
X89051990Y-160451692D01*
X88861514Y-160451692D01*
X88766276Y-160499311D01*
X88718657Y-160546930D01*
X88671038Y-160642168D01*
X88671038Y-160832644D01*
X88718657Y-160927882D01*
X88766276Y-160975501D01*
X88861514Y-161023120D01*
X89051990Y-161023120D01*
X89147228Y-160975501D01*
X89194847Y-160927882D01*
X89242466Y-160832644D01*
X89242466Y-160642168D01*
X89194847Y-160546930D01*
X89147228Y-160499311D01*
X89051990Y-160451692D01*
X94234942Y-171867882D02*
X94187323Y-171915501D01*
X94044466Y-171963120D01*
X93949228Y-171963120D01*
X93806371Y-171915501D01*
X93711133Y-171820263D01*
X93663514Y-171725025D01*
X93615895Y-171534549D01*
X93615895Y-171391692D01*
X93663514Y-171201216D01*
X93711133Y-171105978D01*
X93806371Y-171010740D01*
X93949228Y-170963120D01*
X94044466Y-170963120D01*
X94187323Y-171010740D01*
X94234942Y-171058359D01*
X95187323Y-171963120D02*
X94615895Y-171963120D01*
X94901609Y-171963120D02*
X94901609Y-170963120D01*
X94806371Y-171105978D01*
X94711133Y-171201216D01*
X94615895Y-171248835D01*
X95568276Y-171058359D02*
X95615895Y-171010740D01*
X95711133Y-170963120D01*
X95949228Y-170963120D01*
X96044466Y-171010740D01*
X96092085Y-171058359D01*
X96139704Y-171153597D01*
X96139704Y-171248835D01*
X96092085Y-171391692D01*
X95520657Y-171963120D01*
X96139704Y-171963120D01*
X104237228Y-171321692D02*
X104237228Y-170559787D01*
X104618180Y-170940740D02*
X103856276Y-170940740D01*
X121009133Y-110373120D02*
X120675800Y-109896930D01*
X120437704Y-110373120D02*
X120437704Y-109373120D01*
X120818657Y-109373120D01*
X120913895Y-109420740D01*
X120961514Y-109468359D01*
X121009133Y-109563597D01*
X121009133Y-109706454D01*
X120961514Y-109801692D01*
X120913895Y-109849311D01*
X120818657Y-109896930D01*
X120437704Y-109896930D01*
X121342466Y-109373120D02*
X122009133Y-109373120D01*
X121580561Y-110373120D01*
X111488180Y-126354073D02*
X112202466Y-126354073D01*
X112345323Y-126401692D01*
X112440561Y-126496930D01*
X112488180Y-126639787D01*
X112488180Y-126735025D01*
X111488180Y-125401692D02*
X111488180Y-125877882D01*
X111964371Y-125925501D01*
X111916752Y-125877882D01*
X111869133Y-125782644D01*
X111869133Y-125544549D01*
X111916752Y-125449311D01*
X111964371Y-125401692D01*
X112059609Y-125354073D01*
X112297704Y-125354073D01*
X112392942Y-125401692D01*
X112440561Y-125449311D01*
X112488180Y-125544549D01*
X112488180Y-125782644D01*
X112440561Y-125877882D01*
X112392942Y-125925501D01*
X110408180Y-160874073D02*
X111122466Y-160874073D01*
X111265323Y-160921692D01*
X111360561Y-161016930D01*
X111408180Y-161159787D01*
X111408180Y-161255025D01*
X110741514Y-159969311D02*
X111408180Y-159969311D01*
X110360561Y-160207406D02*
X111074847Y-160445501D01*
X111074847Y-159826454D01*
X125908180Y-126754073D02*
X126622466Y-126754073D01*
X126765323Y-126801692D01*
X126860561Y-126896930D01*
X126908180Y-127039787D01*
X126908180Y-127135025D01*
X125908180Y-126373120D02*
X125908180Y-125754073D01*
X126289133Y-126087406D01*
X126289133Y-125944549D01*
X126336752Y-125849311D01*
X126384371Y-125801692D01*
X126479609Y-125754073D01*
X126717704Y-125754073D01*
X126812942Y-125801692D01*
X126860561Y-125849311D01*
X126908180Y-125944549D01*
X126908180Y-126230263D01*
X126860561Y-126325501D01*
X126812942Y-126373120D01*
X117578180Y-160774073D02*
X118292466Y-160774073D01*
X118435323Y-160821692D01*
X118530561Y-160916930D01*
X118578180Y-161059787D01*
X118578180Y-161155025D01*
X117673419Y-160345501D02*
X117625800Y-160297882D01*
X117578180Y-160202644D01*
X117578180Y-159964549D01*
X117625800Y-159869311D01*
X117673419Y-159821692D01*
X117768657Y-159774073D01*
X117863895Y-159774073D01*
X118006752Y-159821692D01*
X118578180Y-160393120D01*
X118578180Y-159774073D01*
X109792942Y-113687406D02*
X109840561Y-113735025D01*
X109888180Y-113877882D01*
X109888180Y-113973120D01*
X109840561Y-114115978D01*
X109745323Y-114211216D01*
X109650085Y-114258835D01*
X109459609Y-114306454D01*
X109316752Y-114306454D01*
X109126276Y-114258835D01*
X109031038Y-114211216D01*
X108935800Y-114115978D01*
X108888180Y-113973120D01*
X108888180Y-113877882D01*
X108935800Y-113735025D01*
X108983419Y-113687406D01*
X108888180Y-112782644D02*
X108888180Y-113258835D01*
X109364371Y-113306454D01*
X109316752Y-113258835D01*
X109269133Y-113163597D01*
X109269133Y-112925501D01*
X109316752Y-112830263D01*
X109364371Y-112782644D01*
X109459609Y-112735025D01*
X109697704Y-112735025D01*
X109792942Y-112782644D01*
X109840561Y-112830263D01*
X109888180Y-112925501D01*
X109888180Y-113163597D01*
X109840561Y-113258835D01*
X109792942Y-113306454D01*
X109867704Y-106073120D02*
X109867704Y-106882644D01*
X109915323Y-106977882D01*
X109962942Y-107025501D01*
X110058180Y-107073120D01*
X110248657Y-107073120D01*
X110343895Y-107025501D01*
X110391514Y-106977882D01*
X110439133Y-106882644D01*
X110439133Y-106073120D01*
X111439133Y-107073120D02*
X110867704Y-107073120D01*
X111153419Y-107073120D02*
X111153419Y-106073120D01*
X111058180Y-106215978D01*
X110962942Y-106311216D01*
X110867704Y-106358835D01*
X111772466Y-106073120D02*
X112439133Y-106073120D01*
X112010561Y-107073120D01*
X104987704Y-125013120D02*
X104987704Y-125822644D01*
X105035323Y-125917882D01*
X105082942Y-125965501D01*
X105178180Y-126013120D01*
X105368657Y-126013120D01*
X105463895Y-125965501D01*
X105511514Y-125917882D01*
X105559133Y-125822644D01*
X105559133Y-125013120D01*
X106559133Y-126013120D02*
X105987704Y-126013120D01*
X106273419Y-126013120D02*
X106273419Y-125013120D01*
X106178180Y-125155978D01*
X106082942Y-125251216D01*
X105987704Y-125298835D01*
X107416276Y-125013120D02*
X107225800Y-125013120D01*
X107130561Y-125060740D01*
X107082942Y-125108359D01*
X106987704Y-125251216D01*
X106940085Y-125441692D01*
X106940085Y-125822644D01*
X106987704Y-125917882D01*
X107035323Y-125965501D01*
X107130561Y-126013120D01*
X107321038Y-126013120D01*
X107416276Y-125965501D01*
X107463895Y-125917882D01*
X107511514Y-125822644D01*
X107511514Y-125584549D01*
X107463895Y-125489311D01*
X107416276Y-125441692D01*
X107321038Y-125394073D01*
X107130561Y-125394073D01*
X107035323Y-125441692D01*
X106987704Y-125489311D01*
X106940085Y-125584549D01*
X81278180Y-125182644D02*
X82087704Y-125182644D01*
X82182942Y-125135025D01*
X82230561Y-125087406D01*
X82278180Y-124992168D01*
X82278180Y-124801692D01*
X82230561Y-124706454D01*
X82182942Y-124658835D01*
X82087704Y-124611216D01*
X81278180Y-124611216D01*
X81373419Y-124182644D02*
X81325800Y-124135025D01*
X81278180Y-124039787D01*
X81278180Y-123801692D01*
X81325800Y-123706454D01*
X81373419Y-123658835D01*
X81468657Y-123611216D01*
X81563895Y-123611216D01*
X81706752Y-123658835D01*
X82278180Y-124230263D01*
X82278180Y-123611216D01*
X104883895Y-158093120D02*
X104883895Y-158902644D01*
X104931514Y-158997882D01*
X104979133Y-159045501D01*
X105074371Y-159093120D01*
X105264847Y-159093120D01*
X105360085Y-159045501D01*
X105407704Y-158997882D01*
X105455323Y-158902644D01*
X105455323Y-158093120D01*
X106455323Y-159093120D02*
X105883895Y-159093120D01*
X106169609Y-159093120D02*
X106169609Y-158093120D01*
X106074371Y-158235978D01*
X105979133Y-158331216D01*
X105883895Y-158378835D01*
X124988180Y-152233120D02*
X124988180Y-152042644D01*
X125035800Y-151947406D01*
X125131038Y-151852168D01*
X125321514Y-151804549D01*
X125654847Y-151804549D01*
X125845323Y-151852168D01*
X125940561Y-151947406D01*
X125988180Y-152042644D01*
X125988180Y-152233120D01*
X125940561Y-152328359D01*
X125845323Y-152423597D01*
X125654847Y-152471216D01*
X125321514Y-152471216D01*
X125131038Y-152423597D01*
X125035800Y-152328359D01*
X124988180Y-152233120D01*
X125321514Y-150947406D02*
X125988180Y-150947406D01*
X125321514Y-151375978D02*
X125845323Y-151375978D01*
X125940561Y-151328359D01*
X125988180Y-151233120D01*
X125988180Y-151090263D01*
X125940561Y-150995025D01*
X125892942Y-150947406D01*
X125321514Y-150614073D02*
X125321514Y-150233120D01*
X124988180Y-150471216D02*
X125845323Y-150471216D01*
X125940561Y-150423597D01*
X125988180Y-150328359D01*
X125988180Y-150233120D01*
X125940561Y-149518835D02*
X125988180Y-149614073D01*
X125988180Y-149804549D01*
X125940561Y-149899787D01*
X125845323Y-149947406D01*
X125464371Y-149947406D01*
X125369133Y-149899787D01*
X125321514Y-149804549D01*
X125321514Y-149614073D01*
X125369133Y-149518835D01*
X125464371Y-149471216D01*
X125559609Y-149471216D01*
X125654847Y-149947406D01*
X125988180Y-149042644D02*
X125321514Y-149042644D01*
X125511990Y-149042644D02*
X125416752Y-148995025D01*
X125369133Y-148947406D01*
X125321514Y-148852168D01*
X125321514Y-148756930D01*
X126369133Y-147375978D02*
X126321514Y-147423597D01*
X126178657Y-147518835D01*
X126083419Y-147566454D01*
X125940561Y-147614073D01*
X125702466Y-147661692D01*
X125511990Y-147661692D01*
X125273895Y-147614073D01*
X125131038Y-147566454D01*
X125035800Y-147518835D01*
X124892942Y-147423597D01*
X124845323Y-147375978D01*
X125321514Y-146995025D02*
X126321514Y-146995025D01*
X125369133Y-146995025D02*
X125321514Y-146899787D01*
X125321514Y-146709311D01*
X125369133Y-146614073D01*
X125416752Y-146566454D01*
X125511990Y-146518835D01*
X125797704Y-146518835D01*
X125892942Y-146566454D01*
X125940561Y-146614073D01*
X125988180Y-146709311D01*
X125988180Y-146899787D01*
X125940561Y-146995025D01*
X125988180Y-145947406D02*
X125940561Y-146042644D01*
X125845323Y-146090263D01*
X124988180Y-146090263D01*
X125988180Y-145137882D02*
X125464371Y-145137882D01*
X125369133Y-145185501D01*
X125321514Y-145280740D01*
X125321514Y-145471216D01*
X125369133Y-145566454D01*
X125940561Y-145137882D02*
X125988180Y-145233120D01*
X125988180Y-145471216D01*
X125940561Y-145566454D01*
X125845323Y-145614073D01*
X125750085Y-145614073D01*
X125654847Y-145566454D01*
X125607228Y-145471216D01*
X125607228Y-145233120D01*
X125559609Y-145137882D01*
X125940561Y-144709311D02*
X125988180Y-144614073D01*
X125988180Y-144423597D01*
X125940561Y-144328359D01*
X125845323Y-144280740D01*
X125797704Y-144280740D01*
X125702466Y-144328359D01*
X125654847Y-144423597D01*
X125654847Y-144566454D01*
X125607228Y-144661692D01*
X125511990Y-144709311D01*
X125464371Y-144709311D01*
X125369133Y-144661692D01*
X125321514Y-144566454D01*
X125321514Y-144423597D01*
X125369133Y-144328359D01*
X125321514Y-143995025D02*
X125321514Y-143614073D01*
X124988180Y-143852168D02*
X125845323Y-143852168D01*
X125940561Y-143804549D01*
X125988180Y-143709311D01*
X125988180Y-143614073D01*
X125988180Y-143280740D02*
X125321514Y-143280740D01*
X124988180Y-143280740D02*
X125035800Y-143328359D01*
X125083419Y-143280740D01*
X125035800Y-143233120D01*
X124988180Y-143280740D01*
X125083419Y-143280740D01*
X125940561Y-142375978D02*
X125988180Y-142471216D01*
X125988180Y-142661692D01*
X125940561Y-142756930D01*
X125892942Y-142804549D01*
X125797704Y-142852168D01*
X125511990Y-142852168D01*
X125416752Y-142804549D01*
X125369133Y-142756930D01*
X125321514Y-142661692D01*
X125321514Y-142471216D01*
X125369133Y-142375978D01*
X126369133Y-142042644D02*
X126321514Y-141995025D01*
X126178657Y-141899787D01*
X126083419Y-141852168D01*
X125940561Y-141804549D01*
X125702466Y-141756930D01*
X125511990Y-141756930D01*
X125273895Y-141804549D01*
X125131038Y-141852168D01*
X125035800Y-141899787D01*
X124892942Y-141995025D01*
X124845323Y-142042644D01*
X125940561Y-140566454D02*
X125988180Y-140471216D01*
X125988180Y-140280740D01*
X125940561Y-140185501D01*
X125845323Y-140137882D01*
X125797704Y-140137882D01*
X125702466Y-140185501D01*
X125654847Y-140280740D01*
X125654847Y-140423597D01*
X125607228Y-140518835D01*
X125511990Y-140566454D01*
X125464371Y-140566454D01*
X125369133Y-140518835D01*
X125321514Y-140423597D01*
X125321514Y-140280740D01*
X125369133Y-140185501D01*
X125988180Y-139709311D02*
X124988180Y-139709311D01*
X125988180Y-139280740D02*
X125464371Y-139280740D01*
X125369133Y-139328359D01*
X125321514Y-139423597D01*
X125321514Y-139566454D01*
X125369133Y-139661692D01*
X125416752Y-139709311D01*
X125988180Y-138375978D02*
X125464371Y-138375978D01*
X125369133Y-138423597D01*
X125321514Y-138518835D01*
X125321514Y-138709311D01*
X125369133Y-138804549D01*
X125940561Y-138375978D02*
X125988180Y-138471216D01*
X125988180Y-138709311D01*
X125940561Y-138804549D01*
X125845323Y-138852168D01*
X125750085Y-138852168D01*
X125654847Y-138804549D01*
X125607228Y-138709311D01*
X125607228Y-138471216D01*
X125559609Y-138375978D01*
X125321514Y-138042644D02*
X125321514Y-137661692D01*
X125988180Y-137899787D02*
X125131038Y-137899787D01*
X125035800Y-137852168D01*
X124988180Y-137756930D01*
X124988180Y-137661692D01*
X125321514Y-137471216D02*
X125321514Y-137090263D01*
X124988180Y-137328359D02*
X125845323Y-137328359D01*
X125940561Y-137280740D01*
X125988180Y-137185501D01*
X125988180Y-137090263D01*
X125988180Y-135995025D02*
X125321514Y-135995025D01*
X125416752Y-135995025D02*
X125369133Y-135947406D01*
X125321514Y-135852168D01*
X125321514Y-135709311D01*
X125369133Y-135614073D01*
X125464371Y-135566454D01*
X125988180Y-135566454D01*
X125464371Y-135566454D02*
X125369133Y-135518835D01*
X125321514Y-135423597D01*
X125321514Y-135280740D01*
X125369133Y-135185501D01*
X125464371Y-135137882D01*
X125988180Y-135137882D01*
X125988180Y-134518835D02*
X125940561Y-134614073D01*
X125892942Y-134661692D01*
X125797704Y-134709311D01*
X125511990Y-134709311D01*
X125416752Y-134661692D01*
X125369133Y-134614073D01*
X125321514Y-134518835D01*
X125321514Y-134375978D01*
X125369133Y-134280740D01*
X125416752Y-134233120D01*
X125511990Y-134185501D01*
X125797704Y-134185501D01*
X125892942Y-134233120D01*
X125940561Y-134280740D01*
X125988180Y-134375978D01*
X125988180Y-134518835D01*
X125321514Y-133899787D02*
X125321514Y-133518835D01*
X124988180Y-133756930D02*
X125845323Y-133756930D01*
X125940561Y-133709311D01*
X125988180Y-133614073D01*
X125988180Y-133518835D01*
X125988180Y-133042644D02*
X125940561Y-133137882D01*
X125892942Y-133185501D01*
X125797704Y-133233120D01*
X125511990Y-133233120D01*
X125416752Y-133185501D01*
X125369133Y-133137882D01*
X125321514Y-133042644D01*
X125321514Y-132899787D01*
X125369133Y-132804549D01*
X125416752Y-132756930D01*
X125511990Y-132709311D01*
X125797704Y-132709311D01*
X125892942Y-132756930D01*
X125940561Y-132804549D01*
X125988180Y-132899787D01*
X125988180Y-133042644D01*
X125988180Y-132280740D02*
X125321514Y-132280740D01*
X125511990Y-132280740D02*
X125416752Y-132233120D01*
X125369133Y-132185501D01*
X125321514Y-132090263D01*
X125321514Y-131995025D01*
X94788180Y-151566454D02*
X93788180Y-151566454D01*
X94121514Y-151090263D02*
X94788180Y-151090263D01*
X94216752Y-151090263D02*
X94169133Y-151042644D01*
X94121514Y-150947406D01*
X94121514Y-150804549D01*
X94169133Y-150709311D01*
X94264371Y-150661692D01*
X94788180Y-150661692D01*
X94121514Y-150185501D02*
X94788180Y-150185501D01*
X94216752Y-150185501D02*
X94169133Y-150137882D01*
X94121514Y-150042644D01*
X94121514Y-149899787D01*
X94169133Y-149804549D01*
X94264371Y-149756930D01*
X94788180Y-149756930D01*
X94740561Y-148899787D02*
X94788180Y-148995025D01*
X94788180Y-149185501D01*
X94740561Y-149280740D01*
X94645323Y-149328359D01*
X94264371Y-149328359D01*
X94169133Y-149280740D01*
X94121514Y-149185501D01*
X94121514Y-148995025D01*
X94169133Y-148899787D01*
X94264371Y-148852168D01*
X94359609Y-148852168D01*
X94454847Y-149328359D01*
X94788180Y-148423597D02*
X94121514Y-148423597D01*
X94311990Y-148423597D02*
X94216752Y-148375978D01*
X94169133Y-148328359D01*
X94121514Y-148233120D01*
X94121514Y-148137882D01*
X95169133Y-146756930D02*
X95121514Y-146804549D01*
X94978657Y-146899787D01*
X94883419Y-146947406D01*
X94740561Y-146995025D01*
X94502466Y-147042644D01*
X94311990Y-147042644D01*
X94073895Y-146995025D01*
X93931038Y-146947406D01*
X93835800Y-146899787D01*
X93692942Y-146804549D01*
X93645323Y-146756930D01*
X94740561Y-146423597D02*
X94788180Y-146328359D01*
X94788180Y-146137882D01*
X94740561Y-146042644D01*
X94645323Y-145995025D01*
X94597704Y-145995025D01*
X94502466Y-146042644D01*
X94454847Y-146137882D01*
X94454847Y-146280740D01*
X94407228Y-146375978D01*
X94311990Y-146423597D01*
X94264371Y-146423597D01*
X94169133Y-146375978D01*
X94121514Y-146280740D01*
X94121514Y-146137882D01*
X94169133Y-146042644D01*
X94121514Y-145709311D02*
X94121514Y-145328359D01*
X93788180Y-145566454D02*
X94645323Y-145566454D01*
X94740561Y-145518835D01*
X94788180Y-145423597D01*
X94788180Y-145328359D01*
X94740561Y-144614073D02*
X94788180Y-144709311D01*
X94788180Y-144899787D01*
X94740561Y-144995025D01*
X94645323Y-145042644D01*
X94264371Y-145042644D01*
X94169133Y-144995025D01*
X94121514Y-144899787D01*
X94121514Y-144709311D01*
X94169133Y-144614073D01*
X94264371Y-144566454D01*
X94359609Y-144566454D01*
X94454847Y-145042644D01*
X94740561Y-143756930D02*
X94788180Y-143852168D01*
X94788180Y-144042644D01*
X94740561Y-144137882D01*
X94645323Y-144185501D01*
X94264371Y-144185501D01*
X94169133Y-144137882D01*
X94121514Y-144042644D01*
X94121514Y-143852168D01*
X94169133Y-143756930D01*
X94264371Y-143709311D01*
X94359609Y-143709311D01*
X94454847Y-144185501D01*
X94788180Y-143137882D02*
X94740561Y-143233120D01*
X94645323Y-143280740D01*
X93788180Y-143280740D01*
X95169133Y-142852168D02*
X95121514Y-142804549D01*
X94978657Y-142709311D01*
X94883419Y-142661692D01*
X94740561Y-142614073D01*
X94502466Y-142566454D01*
X94311990Y-142566454D01*
X94073895Y-142614073D01*
X93931038Y-142661692D01*
X93835800Y-142709311D01*
X93692942Y-142804549D01*
X93645323Y-142852168D01*
X94740561Y-141375978D02*
X94788180Y-141233120D01*
X94788180Y-140995025D01*
X94740561Y-140899787D01*
X94692942Y-140852168D01*
X94597704Y-140804549D01*
X94502466Y-140804549D01*
X94407228Y-140852168D01*
X94359609Y-140899787D01*
X94311990Y-140995025D01*
X94264371Y-141185501D01*
X94216752Y-141280740D01*
X94169133Y-141328359D01*
X94073895Y-141375978D01*
X93978657Y-141375978D01*
X93883419Y-141328359D01*
X93835800Y-141280740D01*
X93788180Y-141185501D01*
X93788180Y-140947406D01*
X93835800Y-140804549D01*
X94788180Y-140375978D02*
X93788180Y-140375978D01*
X94788180Y-139947406D02*
X94264371Y-139947406D01*
X94169133Y-139995025D01*
X94121514Y-140090263D01*
X94121514Y-140233120D01*
X94169133Y-140328359D01*
X94216752Y-140375978D01*
X94788180Y-139042644D02*
X94264371Y-139042644D01*
X94169133Y-139090263D01*
X94121514Y-139185501D01*
X94121514Y-139375978D01*
X94169133Y-139471216D01*
X94740561Y-139042644D02*
X94788180Y-139137882D01*
X94788180Y-139375978D01*
X94740561Y-139471216D01*
X94645323Y-139518835D01*
X94550085Y-139518835D01*
X94454847Y-139471216D01*
X94407228Y-139375978D01*
X94407228Y-139137882D01*
X94359609Y-139042644D01*
X94121514Y-138709311D02*
X94121514Y-138328359D01*
X94788180Y-138566454D02*
X93931038Y-138566454D01*
X93835800Y-138518835D01*
X93788180Y-138423597D01*
X93788180Y-138328359D01*
X94121514Y-138137882D02*
X94121514Y-137756930D01*
X93788180Y-137995025D02*
X94645323Y-137995025D01*
X94740561Y-137947406D01*
X94788180Y-137852168D01*
X94788180Y-137756930D01*
X94788180Y-136661692D02*
X93788180Y-136661692D01*
X94502466Y-136328359D01*
X93788180Y-135995025D01*
X94788180Y-135995025D01*
X94788180Y-135375978D02*
X94740561Y-135471216D01*
X94692942Y-135518835D01*
X94597704Y-135566454D01*
X94311990Y-135566454D01*
X94216752Y-135518835D01*
X94169133Y-135471216D01*
X94121514Y-135375978D01*
X94121514Y-135233120D01*
X94169133Y-135137882D01*
X94216752Y-135090263D01*
X94311990Y-135042644D01*
X94597704Y-135042644D01*
X94692942Y-135090263D01*
X94740561Y-135137882D01*
X94788180Y-135233120D01*
X94788180Y-135375978D01*
X94121514Y-134756930D02*
X94121514Y-134375978D01*
X93788180Y-134614073D02*
X94645323Y-134614073D01*
X94740561Y-134566454D01*
X94788180Y-134471216D01*
X94788180Y-134375978D01*
X94788180Y-133899787D02*
X94740561Y-133995025D01*
X94692942Y-134042644D01*
X94597704Y-134090263D01*
X94311990Y-134090263D01*
X94216752Y-134042644D01*
X94169133Y-133995025D01*
X94121514Y-133899787D01*
X94121514Y-133756930D01*
X94169133Y-133661692D01*
X94216752Y-133614073D01*
X94311990Y-133566454D01*
X94597704Y-133566454D01*
X94692942Y-133614073D01*
X94740561Y-133661692D01*
X94788180Y-133756930D01*
X94788180Y-133899787D01*
X94788180Y-133137882D02*
X94121514Y-133137882D01*
X94311990Y-133137882D02*
X94216752Y-133090263D01*
X94169133Y-133042644D01*
X94121514Y-132947406D01*
X94121514Y-132852168D01*
X78640561Y-118254073D02*
X78688180Y-118111216D01*
X78688180Y-117873120D01*
X78640561Y-117777882D01*
X78592942Y-117730263D01*
X78497704Y-117682644D01*
X78402466Y-117682644D01*
X78307228Y-117730263D01*
X78259609Y-117777882D01*
X78211990Y-117873120D01*
X78164371Y-118063597D01*
X78116752Y-118158835D01*
X78069133Y-118206454D01*
X77973895Y-118254073D01*
X77878657Y-118254073D01*
X77783419Y-118206454D01*
X77735800Y-118158835D01*
X77688180Y-118063597D01*
X77688180Y-117825501D01*
X77735800Y-117682644D01*
X77688180Y-117349311D02*
X78688180Y-117111216D01*
X77973895Y-116920740D01*
X78688180Y-116730263D01*
X77688180Y-116492168D01*
X78688180Y-115587406D02*
X78688180Y-116158835D01*
X78688180Y-115873120D02*
X77688180Y-115873120D01*
X77831038Y-115968359D01*
X77926276Y-116063597D01*
X77973895Y-116158835D01*
X101399133Y-118163120D02*
X101065800Y-117686930D01*
X100827704Y-118163120D02*
X100827704Y-117163120D01*
X101208657Y-117163120D01*
X101303895Y-117210740D01*
X101351514Y-117258359D01*
X101399133Y-117353597D01*
X101399133Y-117496454D01*
X101351514Y-117591692D01*
X101303895Y-117639311D01*
X101208657Y-117686930D01*
X100827704Y-117686930D01*
X102256276Y-117163120D02*
X102065800Y-117163120D01*
X101970561Y-117210740D01*
X101922942Y-117258359D01*
X101827704Y-117401216D01*
X101780085Y-117591692D01*
X101780085Y-117972644D01*
X101827704Y-118067882D01*
X101875323Y-118115501D01*
X101970561Y-118163120D01*
X102161038Y-118163120D01*
X102256276Y-118115501D01*
X102303895Y-118067882D01*
X102351514Y-117972644D01*
X102351514Y-117734549D01*
X102303895Y-117639311D01*
X102256276Y-117591692D01*
X102161038Y-117544073D01*
X101970561Y-117544073D01*
X101875323Y-117591692D01*
X101827704Y-117639311D01*
X101780085Y-117734549D01*
X90199133Y-118543120D02*
X89865800Y-118066930D01*
X89627704Y-118543120D02*
X89627704Y-117543120D01*
X90008657Y-117543120D01*
X90103895Y-117590740D01*
X90151514Y-117638359D01*
X90199133Y-117733597D01*
X90199133Y-117876454D01*
X90151514Y-117971692D01*
X90103895Y-118019311D01*
X90008657Y-118066930D01*
X89627704Y-118066930D01*
X91103895Y-117543120D02*
X90627704Y-117543120D01*
X90580085Y-118019311D01*
X90627704Y-117971692D01*
X90722942Y-117924073D01*
X90961038Y-117924073D01*
X91056276Y-117971692D01*
X91103895Y-118019311D01*
X91151514Y-118114549D01*
X91151514Y-118352644D01*
X91103895Y-118447882D01*
X91056276Y-118495501D01*
X90961038Y-118543120D01*
X90722942Y-118543120D01*
X90627704Y-118495501D01*
X90580085Y-118447882D01*
X86050180Y-109327406D02*
X85573990Y-109660740D01*
X86050180Y-109898835D02*
X85050180Y-109898835D01*
X85050180Y-109517882D01*
X85097800Y-109422644D01*
X85145419Y-109375025D01*
X85240657Y-109327406D01*
X85383514Y-109327406D01*
X85478752Y-109375025D01*
X85526371Y-109422644D01*
X85573990Y-109517882D01*
X85573990Y-109898835D01*
X85383514Y-108470263D02*
X86050180Y-108470263D01*
X85002561Y-108708359D02*
X85716847Y-108946454D01*
X85716847Y-108327406D01*
X88082180Y-109327406D02*
X87605990Y-109660740D01*
X88082180Y-109898835D02*
X87082180Y-109898835D01*
X87082180Y-109517882D01*
X87129800Y-109422644D01*
X87177419Y-109375025D01*
X87272657Y-109327406D01*
X87415514Y-109327406D01*
X87510752Y-109375025D01*
X87558371Y-109422644D01*
X87605990Y-109517882D01*
X87605990Y-109898835D01*
X87082180Y-108994073D02*
X87082180Y-108375025D01*
X87463133Y-108708359D01*
X87463133Y-108565501D01*
X87510752Y-108470263D01*
X87558371Y-108422644D01*
X87653609Y-108375025D01*
X87891704Y-108375025D01*
X87986942Y-108422644D01*
X88034561Y-108470263D01*
X88082180Y-108565501D01*
X88082180Y-108851216D01*
X88034561Y-108946454D01*
X87986942Y-108994073D01*
X128688180Y-126787406D02*
X128211990Y-127120740D01*
X128688180Y-127358835D02*
X127688180Y-127358835D01*
X127688180Y-126977882D01*
X127735800Y-126882644D01*
X127783419Y-126835025D01*
X127878657Y-126787406D01*
X128021514Y-126787406D01*
X128116752Y-126835025D01*
X128164371Y-126882644D01*
X128211990Y-126977882D01*
X128211990Y-127358835D01*
X127783419Y-126406454D02*
X127735800Y-126358835D01*
X127688180Y-126263597D01*
X127688180Y-126025501D01*
X127735800Y-125930263D01*
X127783419Y-125882644D01*
X127878657Y-125835025D01*
X127973895Y-125835025D01*
X128116752Y-125882644D01*
X128688180Y-126454073D01*
X128688180Y-125835025D01*
X78348180Y-152317406D02*
X77871990Y-152650740D01*
X78348180Y-152888835D02*
X77348180Y-152888835D01*
X77348180Y-152507882D01*
X77395800Y-152412644D01*
X77443419Y-152365025D01*
X77538657Y-152317406D01*
X77681514Y-152317406D01*
X77776752Y-152365025D01*
X77824371Y-152412644D01*
X77871990Y-152507882D01*
X77871990Y-152888835D01*
X78348180Y-151365025D02*
X78348180Y-151936454D01*
X78348180Y-151650740D02*
X77348180Y-151650740D01*
X77491038Y-151745978D01*
X77586276Y-151841216D01*
X77633895Y-151936454D01*
X128128180Y-117644073D02*
X128842466Y-117644073D01*
X128985323Y-117691692D01*
X129080561Y-117786930D01*
X129128180Y-117929787D01*
X129128180Y-118025025D01*
X129128180Y-116644073D02*
X129128180Y-117215501D01*
X129128180Y-116929787D02*
X128128180Y-116929787D01*
X128271038Y-117025025D01*
X128366276Y-117120263D01*
X128413895Y-117215501D01*
X96897704Y-117373120D02*
X96897704Y-116373120D01*
X97135800Y-116373120D01*
X97278657Y-116420740D01*
X97373895Y-116515978D01*
X97421514Y-116611216D01*
X97469133Y-116801692D01*
X97469133Y-116944549D01*
X97421514Y-117135025D01*
X97373895Y-117230263D01*
X97278657Y-117325501D01*
X97135800Y-117373120D01*
X96897704Y-117373120D01*
X98421514Y-117373120D02*
X97850085Y-117373120D01*
X98135800Y-117373120D02*
X98135800Y-116373120D01*
X98040561Y-116515978D01*
X97945323Y-116611216D01*
X97850085Y-116658835D01*
X74682942Y-118243597D02*
X74730561Y-118291216D01*
X74778180Y-118434073D01*
X74778180Y-118529311D01*
X74730561Y-118672168D01*
X74635323Y-118767406D01*
X74540085Y-118815025D01*
X74349609Y-118862644D01*
X74206752Y-118862644D01*
X74016276Y-118815025D01*
X73921038Y-118767406D01*
X73825800Y-118672168D01*
X73778180Y-118529311D01*
X73778180Y-118434073D01*
X73825800Y-118291216D01*
X73873419Y-118243597D01*
X73873419Y-117862644D02*
X73825800Y-117815025D01*
X73778180Y-117719787D01*
X73778180Y-117481692D01*
X73825800Y-117386454D01*
X73873419Y-117338835D01*
X73968657Y-117291216D01*
X74063895Y-117291216D01*
X74206752Y-117338835D01*
X74778180Y-117910263D01*
X74778180Y-117291216D01*
X74778180Y-116338835D02*
X74778180Y-116910263D01*
X74778180Y-116624549D02*
X73778180Y-116624549D01*
X73921038Y-116719787D01*
X74016276Y-116815025D01*
X74063895Y-116910263D01*
X73312942Y-118263597D02*
X73360561Y-118311216D01*
X73408180Y-118454073D01*
X73408180Y-118549311D01*
X73360561Y-118692168D01*
X73265323Y-118787406D01*
X73170085Y-118835025D01*
X72979609Y-118882644D01*
X72836752Y-118882644D01*
X72646276Y-118835025D01*
X72551038Y-118787406D01*
X72455800Y-118692168D01*
X72408180Y-118549311D01*
X72408180Y-118454073D01*
X72455800Y-118311216D01*
X72503419Y-118263597D01*
X72503419Y-117882644D02*
X72455800Y-117835025D01*
X72408180Y-117739787D01*
X72408180Y-117501692D01*
X72455800Y-117406454D01*
X72503419Y-117358835D01*
X72598657Y-117311216D01*
X72693895Y-117311216D01*
X72836752Y-117358835D01*
X73408180Y-117930263D01*
X73408180Y-117311216D01*
X72408180Y-116692168D02*
X72408180Y-116596930D01*
X72455800Y-116501692D01*
X72503419Y-116454073D01*
X72598657Y-116406454D01*
X72789133Y-116358835D01*
X73027228Y-116358835D01*
X73217704Y-116406454D01*
X73312942Y-116454073D01*
X73360561Y-116501692D01*
X73408180Y-116596930D01*
X73408180Y-116692168D01*
X73360561Y-116787406D01*
X73312942Y-116835025D01*
X73217704Y-116882644D01*
X73027228Y-116930263D01*
X72789133Y-116930263D01*
X72598657Y-116882644D01*
X72503419Y-116835025D01*
X72455800Y-116787406D01*
X72408180Y-116692168D01*
X109032942Y-106803597D02*
X109080561Y-106851216D01*
X109128180Y-106994073D01*
X109128180Y-107089311D01*
X109080561Y-107232168D01*
X108985323Y-107327406D01*
X108890085Y-107375025D01*
X108699609Y-107422644D01*
X108556752Y-107422644D01*
X108366276Y-107375025D01*
X108271038Y-107327406D01*
X108175800Y-107232168D01*
X108128180Y-107089311D01*
X108128180Y-106994073D01*
X108175800Y-106851216D01*
X108223419Y-106803597D01*
X109128180Y-105851216D02*
X109128180Y-106422644D01*
X109128180Y-106136930D02*
X108128180Y-106136930D01*
X108271038Y-106232168D01*
X108366276Y-106327406D01*
X108413895Y-106422644D01*
X109128180Y-105375025D02*
X109128180Y-105184549D01*
X109080561Y-105089311D01*
X109032942Y-105041692D01*
X108890085Y-104946454D01*
X108699609Y-104898835D01*
X108318657Y-104898835D01*
X108223419Y-104946454D01*
X108175800Y-104994073D01*
X108128180Y-105089311D01*
X108128180Y-105279787D01*
X108175800Y-105375025D01*
X108223419Y-105422644D01*
X108318657Y-105470263D01*
X108556752Y-105470263D01*
X108651990Y-105422644D01*
X108699609Y-105375025D01*
X108747228Y-105279787D01*
X108747228Y-105089311D01*
X108699609Y-104994073D01*
X108651990Y-104946454D01*
X108556752Y-104898835D01*
X105132942Y-118707882D02*
X105085323Y-118755501D01*
X104942466Y-118803120D01*
X104847228Y-118803120D01*
X104704371Y-118755501D01*
X104609133Y-118660263D01*
X104561514Y-118565025D01*
X104513895Y-118374549D01*
X104513895Y-118231692D01*
X104561514Y-118041216D01*
X104609133Y-117945978D01*
X104704371Y-117850740D01*
X104847228Y-117803120D01*
X104942466Y-117803120D01*
X105085323Y-117850740D01*
X105132942Y-117898359D01*
X106085323Y-118803120D02*
X105513895Y-118803120D01*
X105799609Y-118803120D02*
X105799609Y-117803120D01*
X105704371Y-117945978D01*
X105609133Y-118041216D01*
X105513895Y-118088835D01*
X106418657Y-117803120D02*
X107085323Y-117803120D01*
X106656752Y-118803120D01*
X105052942Y-117317882D02*
X105005323Y-117365501D01*
X104862466Y-117413120D01*
X104767228Y-117413120D01*
X104624371Y-117365501D01*
X104529133Y-117270263D01*
X104481514Y-117175025D01*
X104433895Y-116984549D01*
X104433895Y-116841692D01*
X104481514Y-116651216D01*
X104529133Y-116555978D01*
X104624371Y-116460740D01*
X104767228Y-116413120D01*
X104862466Y-116413120D01*
X105005323Y-116460740D01*
X105052942Y-116508359D01*
X106005323Y-117413120D02*
X105433895Y-117413120D01*
X105719609Y-117413120D02*
X105719609Y-116413120D01*
X105624371Y-116555978D01*
X105529133Y-116651216D01*
X105433895Y-116698835D01*
X106862466Y-116413120D02*
X106671990Y-116413120D01*
X106576752Y-116460740D01*
X106529133Y-116508359D01*
X106433895Y-116651216D01*
X106386276Y-116841692D01*
X106386276Y-117222644D01*
X106433895Y-117317882D01*
X106481514Y-117365501D01*
X106576752Y-117413120D01*
X106767228Y-117413120D01*
X106862466Y-117365501D01*
X106910085Y-117317882D01*
X106957704Y-117222644D01*
X106957704Y-116984549D01*
X106910085Y-116889311D01*
X106862466Y-116841692D01*
X106767228Y-116794073D01*
X106576752Y-116794073D01*
X106481514Y-116841692D01*
X106433895Y-116889311D01*
X106386276Y-116984549D01*
X66822942Y-151803597D02*
X66870561Y-151851216D01*
X66918180Y-151994073D01*
X66918180Y-152089311D01*
X66870561Y-152232168D01*
X66775323Y-152327406D01*
X66680085Y-152375025D01*
X66489609Y-152422644D01*
X66346752Y-152422644D01*
X66156276Y-152375025D01*
X66061038Y-152327406D01*
X65965800Y-152232168D01*
X65918180Y-152089311D01*
X65918180Y-151994073D01*
X65965800Y-151851216D01*
X66013419Y-151803597D01*
X66918180Y-150851216D02*
X66918180Y-151422644D01*
X66918180Y-151136930D02*
X65918180Y-151136930D01*
X66061038Y-151232168D01*
X66156276Y-151327406D01*
X66203895Y-151422644D01*
X65918180Y-150232168D02*
X65918180Y-150136930D01*
X65965800Y-150041692D01*
X66013419Y-149994073D01*
X66108657Y-149946454D01*
X66299133Y-149898835D01*
X66537228Y-149898835D01*
X66727704Y-149946454D01*
X66822942Y-149994073D01*
X66870561Y-150041692D01*
X66918180Y-150136930D01*
X66918180Y-150232168D01*
X66870561Y-150327406D01*
X66822942Y-150375025D01*
X66727704Y-150422644D01*
X66537228Y-150470263D01*
X66299133Y-150470263D01*
X66108657Y-150422644D01*
X66013419Y-150375025D01*
X65965800Y-150327406D01*
X65918180Y-150232168D01*
X94829133Y-107993882D02*
X94781514Y-108041501D01*
X94638657Y-108089120D01*
X94543419Y-108089120D01*
X94400561Y-108041501D01*
X94305323Y-107946263D01*
X94257704Y-107851025D01*
X94210085Y-107660549D01*
X94210085Y-107517692D01*
X94257704Y-107327216D01*
X94305323Y-107231978D01*
X94400561Y-107136740D01*
X94543419Y-107089120D01*
X94638657Y-107089120D01*
X94781514Y-107136740D01*
X94829133Y-107184359D01*
X95686276Y-107422454D02*
X95686276Y-108089120D01*
X95448180Y-107041501D02*
X95210085Y-107755787D01*
X95829133Y-107755787D01*
X78719133Y-134877882D02*
X78671514Y-134925501D01*
X78528657Y-134973120D01*
X78433419Y-134973120D01*
X78290561Y-134925501D01*
X78195323Y-134830263D01*
X78147704Y-134735025D01*
X78100085Y-134544549D01*
X78100085Y-134401692D01*
X78147704Y-134211216D01*
X78195323Y-134115978D01*
X78290561Y-134020740D01*
X78433419Y-133973120D01*
X78528657Y-133973120D01*
X78671514Y-134020740D01*
X78719133Y-134068359D01*
X79052466Y-133973120D02*
X79671514Y-133973120D01*
X79338180Y-134354073D01*
X79481038Y-134354073D01*
X79576276Y-134401692D01*
X79623895Y-134449311D01*
X79671514Y-134544549D01*
X79671514Y-134782644D01*
X79623895Y-134877882D01*
X79576276Y-134925501D01*
X79481038Y-134973120D01*
X79195323Y-134973120D01*
X79100085Y-134925501D01*
X79052466Y-134877882D01*
M02*
