<?xml version="1.0" encoding="UTF-8" standalone="no"?>
<svg
   xmlns:dc="http://purl.org/dc/elements/1.1/"
   xmlns:cc="http://creativecommons.org/ns#"
   xmlns:rdf="http://www.w3.org/1999/02/22-rdf-syntax-ns#"
   xmlns:svg="http://www.w3.org/2000/svg"
   xmlns="http://www.w3.org/2000/svg"
   xmlns:sodipodi="http://sodipodi.sourceforge.net/DTD/sodipodi-0.dtd"
   xmlns:inkscape="http://www.inkscape.org/namespaces/inkscape"
   width="443.50577mm"
   height="608.75452mm"
   viewBox="0 0 443.50576 608.75452"
   version="1.1"
   id="svg8"
   inkscape:version="1.0.2 (e86c870879, 2021-01-15, custom)"
   sodipodi:docname="RoundClockV5.svg">
  <defs
     id="defs2">
    <inkscape:path-effect
       effect="skeletal"
       id="path-effect1080"
       is_visible="true"
       lpeversion="1"
       pattern="m 443.29676,-531.40668 a 39.949993,39.949993 0 0 1 -39.94999,39.95 39.949993,39.949993 0 0 1 -39.94999,-39.95 39.949993,39.949993 0 0 1 39.94999,-39.94999 39.949993,39.949993 0 0 1 39.94999,39.94999 z"
       copytype="repeated"
       prop_scale="1"
       scale_y_rel="false"
       spacing="2.1"
       normal_offset="1.6"
       tang_offset="0"
       prop_units="false"
       vertical_pattern="false"
       hide_knot="false"
       fuse_tolerance="0" />
  </defs>
  <sodipodi:namedview
     id="base"
     pagecolor="#ffffff"
     bordercolor="#666666"
     borderopacity="1.0"
     inkscape:pageopacity="0.0"
     inkscape:pageshadow="2"
     inkscape:zoom="0.49497474"
     inkscape:cx="987.60285"
     inkscape:cy="1662.5715"
     inkscape:document-units="mm"
     inkscape:current-layer="layer1"
     inkscape:document-rotation="0"
     showgrid="false"
     inkscape:window-width="1920"
     inkscape:window-height="1177"
     inkscape:window-x="-8"
     inkscape:window-y="-8"
     inkscape:window-maximized="1"
     fit-margin-top="0"
     fit-margin-left="0"
     fit-margin-right="0"
     fit-margin-bottom="0" />
  <metadata
     id="metadata5">
    <rdf:RDF>
      <cc:Work
         rdf:about="">
        <dc:format>image/svg+xml</dc:format>
        <dc:type
           rdf:resource="http://purl.org/dc/dcmitype/StillImage" />
        <dc:title></dc:title>
      </cc:Work>
    </rdf:RDF>
  </metadata>
  <g
     inkscape:label="Layer 1"
     inkscape:groupmode="layer"
     id="layer1"
     transform="translate(612.45453,1035.7308)">
    <text
       xml:space="preserve"
       style="font-style:normal;font-variant:normal;font-weight:normal;font-stretch:normal;font-size:10.5833px;line-height:1.25;font-family:sans-serif;-inkscape-font-specification:'sans-serif, Normal';font-variant-ligatures:normal;font-variant-caps:normal;font-variant-numeric:normal;font-variant-east-asian:normal;fill:#000000;fill-opacity:1;stroke:none;stroke-width:0.264583"
       x="-612.45453"
       y="-1027.6383"
       id="text915"><tspan
         sodipodi:role="line"
         id="tspan1103"
         x="-612.45453"
         y="-1027.6383">How to make 'circle of circle':</tspan><tspan
         sodipodi:role="line"
         id="tspan1105"
         x="-612.45453"
         y="-1014.4092">a) create circle for the path (convert to path)</tspan><tspan
         sodipodi:role="line"
         id="tspan1107"
         x="-612.45453"
         y="-1001.1801">b) create cirecle to build the circle around it</tspan><tspan
         sodipodi:role="line"
         id="tspan1109"
         x="-612.45453"
         y="-987.95093">c) select both and use Extensions &gt; Generate from Path &gt; Scatter</tspan><tspan
         sodipodi:role="line"
         id="tspan1111"
         x="-612.45453"
         y="-974.7218">d) Enable:</tspan><tspan
         sodipodi:role="line"
         id="tspan1113"
         x="-612.45453"
         y="-961.49268">    Scretch spaces to fit sekeleton length</tspan><tspan
         sodipodi:role="line"
         id="tspan1115"
         x="-612.45453"
         y="-948.26355">   Duplicate the pattern before deformation</tspan></text>
    <g
       id="g1767"
       transform="translate(0.64765455,-0.49772598)">
      <path
         id="path833-9-8-5-15-5-3"
         style="fill:none;stroke:#000000;stroke-width:0.396305;stroke-miterlimit:4;stroke-dasharray:none;stroke-opacity:1"
         d="m -209.94902,-626.27827 a 158.30184,158.30183 0 0 1 -158.30179,158.30184 158.30184,158.30183 0 0 1 -158.3019,-158.30184 158.30184,158.30183 0 0 1 158.3019,-158.30185 158.30184,158.30183 0 0 1 158.30179,158.30185 z" />
      <path
         id="path6023"
         style="fill:none;stroke:#000000;stroke-width:0.102515;stroke-miterlimit:4;stroke-dasharray:none;stroke-opacity:1"
         d="m -169.00002,-626.27859 a 40.948746,40.948739 0 0 1 -40.94874,40.94876 40.948746,40.948739 0 0 1 -40.94875,-40.94876 40.948746,40.948739 0 0 1 40.94875,-40.94873 40.948746,40.948739 0 0 1 40.94874,40.94873 z" />
      <path
         id="path8312"
         style="fill:none;stroke:#000000;stroke-width:0.102515;stroke-miterlimit:4;stroke-dasharray:none;stroke-opacity:1"
         d="m -190.18502,-547.12429 a 40.948746,40.948739 0 0 1 -40.94874,40.94876 40.948746,40.948739 0 0 1 -40.94875,-40.94876 40.948746,40.948739 0 0 1 40.94875,-40.94873 40.948746,40.948739 0 0 1 40.94874,40.94873 z" />
      <path
         id="path2479"
         style="fill:none;stroke:#000000;stroke-width:0.102515;stroke-miterlimit:4;stroke-dasharray:none;stroke-opacity:1"
         d="m -248.13302,-489.17029 a 40.948746,40.948739 0 0 1 -40.94874,40.94876 40.948746,40.948739 0 0 1 -40.94875,-40.94876 40.948746,40.948739 0 0 1 40.94875,-40.94873 40.948746,40.948739 0 0 1 40.94874,40.94873 z" />
      <path
         id="path1710"
         style="fill:none;stroke:#000000;stroke-width:0.102515;stroke-miterlimit:4;stroke-dasharray:none;stroke-opacity:1"
         d="m -327.28502,-467.97729 a 40.948746,40.948739 0 0 1 -40.94874,40.94876 40.948746,40.948739 0 0 1 -40.94875,-40.94876 40.948746,40.948739 0 0 1 40.94875,-40.94873 40.948746,40.948739 0 0 1 40.94874,40.94873 z" />
      <path
         id="path2210"
         style="fill:none;stroke:#000000;stroke-width:0.102515;stroke-miterlimit:4;stroke-dasharray:none;stroke-opacity:1"
         d="m -406.43812,-489.18829 a 40.948746,40.948739 0 0 1 -40.94874,40.94876 40.948746,40.948739 0 0 1 -40.94875,-40.94876 40.948746,40.948739 0 0 1 40.94875,-40.94873 40.948746,40.948739 0 0 1 40.94874,40.94873 z" />
      <path
         id="path8127"
         style="fill:none;stroke:#000000;stroke-width:0.102515;stroke-miterlimit:4;stroke-dasharray:none;stroke-opacity:1"
         d="m -464.38382,-547.12829 a 40.948746,40.948739 0 0 1 -40.94874,40.94876 40.948746,40.948739 0 0 1 -40.94875,-40.94876 40.948746,40.948739 0 0 1 40.94875,-40.94873 40.948746,40.948739 0 0 1 40.94874,40.94873 z" />
      <path
         id="path2287"
         style="fill:none;stroke:#000000;stroke-width:0.102515;stroke-miterlimit:4;stroke-dasharray:none;stroke-opacity:1"
         d="m -485.60422,-626.27859 a 40.948746,40.948739 0 0 1 -40.94874,40.94876 40.948746,40.948739 0 0 1 -40.94875,-40.94876 40.948746,40.948739 0 0 1 40.94875,-40.94873 40.948746,40.948739 0 0 1 40.94874,40.94873 z" />
      <path
         id="path7978"
         style="fill:none;stroke:#000000;stroke-width:0.102515;stroke-miterlimit:4;stroke-dasharray:none;stroke-opacity:1"
         d="m -464.38382,-705.42919 a 40.948746,40.948739 0 0 1 -40.94874,40.94876 40.948746,40.948739 0 0 1 -40.94875,-40.94876 40.948746,40.948739 0 0 1 40.94875,-40.94873 40.948746,40.948739 0 0 1 40.94874,40.94873 z" />
      <path
         id="path428"
         style="fill:none;stroke:#000000;stroke-width:0.102515;stroke-miterlimit:4;stroke-dasharray:none;stroke-opacity:1"
         d="m -406.43812,-763.36869 a 40.948746,40.948739 0 0 1 -40.94874,40.94876 40.948746,40.948739 0 0 1 -40.94875,-40.94876 40.948746,40.948739 0 0 1 40.94875,-40.94873 40.948746,40.948739 0 0 1 40.94874,40.94873 z" />
      <path
         id="path2283"
         style="fill:none;stroke:#000000;stroke-width:0.102515;stroke-miterlimit:4;stroke-dasharray:none;stroke-opacity:1"
         d="m -327.28502,-784.58029 a 40.948746,40.948739 0 0 1 -40.94874,40.94876 40.948746,40.948739 0 0 1 -40.94875,-40.94876 40.948746,40.948739 0 0 1 40.94875,-40.94873 40.948746,40.948739 0 0 1 40.94874,40.94873 z" />
      <path
         id="path2131"
         style="fill:none;stroke:#000000;stroke-width:0.102515;stroke-miterlimit:4;stroke-dasharray:none;stroke-opacity:1"
         d="m -248.13302,-763.38679 a 40.948746,40.948739 0 0 1 -40.94874,40.94876 40.948746,40.948739 0 0 1 -40.94875,-40.94876 40.948746,40.948739 0 0 1 40.94875,-40.94873 40.948746,40.948739 0 0 1 40.94874,40.94873 z" />
      <path
         id="path814"
         style="fill:none;stroke:#000000;stroke-width:0.102515;stroke-miterlimit:4;stroke-dasharray:none;stroke-opacity:1"
         d="m -190.18502,-705.43269 a 40.948746,40.948739 0 0 1 -40.94874,40.94876 40.948746,40.948739 0 0 1 -40.94875,-40.94876 40.948746,40.948739 0 0 1 40.94875,-40.94873 40.948746,40.948739 0 0 1 40.94874,40.94873 z" />
      <path
         id="path8880"
         style="fill:none;stroke:#000000;stroke-width:0.102515;stroke-miterlimit:4;stroke-dasharray:none;stroke-opacity:1"
         d="m -169.00002,-626.27859 a 40.948746,40.948739 0 0 1 -40.94874,40.94876 40.948746,40.948739 0 0 1 -40.94875,-40.94876 40.948746,40.948739 0 0 1 40.94875,-40.94873 40.948746,40.948739 0 0 1 40.94874,40.94873 z" />
      <path
         id="path5815"
         style="fill:none;stroke:#000000;stroke-width:0.102515;stroke-miterlimit:4;stroke-dasharray:none;stroke-opacity:1"
         d="m -169.00002,-626.27829 a 40.948746,40.948739 0 0 1 -40.94874,40.94876 40.948746,40.948739 0 0 1 -40.94875,-40.94876 40.948746,40.948739 0 0 1 40.94875,-40.94873 40.948746,40.948739 0 0 1 40.94874,40.94873 z" />
      <path
         id="path3429"
         style="fill:none;stroke:#000000;stroke-width:0.102515;stroke-miterlimit:4;stroke-dasharray:none;stroke-opacity:1"
         d="m -190.21802,-547.13229 a 40.948746,40.948739 0 0 1 -40.94874,40.94876 40.948746,40.948739 0 0 1 -40.94875,-40.94876 40.948746,40.948739 0 0 1 40.94875,-40.94873 40.948746,40.948739 0 0 1 40.94874,40.94873 z" />
      <path
         id="path3648"
         style="fill:none;stroke:#000000;stroke-width:0.102515;stroke-miterlimit:4;stroke-dasharray:none;stroke-opacity:1"
         d="m -248.15602,-489.19429 a 40.948746,40.948739 0 0 1 -40.94874,40.94876 40.948746,40.948739 0 0 1 -40.94875,-40.94876 40.948746,40.948739 0 0 1 40.94875,-40.94873 40.948746,40.948739 0 0 1 40.94874,40.94873 z" />
      <path
         id="path3973"
         style="fill:none;stroke:#000000;stroke-width:0.102515;stroke-miterlimit:4;stroke-dasharray:none;stroke-opacity:1"
         d="m -327.30202,-467.97629 a 40.948746,40.948739 0 0 1 -40.94874,40.94876 40.948746,40.948739 0 0 1 -40.94875,-40.94876 40.948746,40.948739 0 0 1 40.94875,-40.94873 40.948746,40.948739 0 0 1 40.94874,40.94873 z" />
      <path
         id="path349"
         style="fill:none;stroke:#000000;stroke-width:0.102515;stroke-miterlimit:4;stroke-dasharray:none;stroke-opacity:1"
         d="m -406.44772,-489.19429 a 40.948746,40.948739 0 0 1 -40.94874,40.94876 40.948746,40.948739 0 0 1 -40.94875,-40.94876 40.948746,40.948739 0 0 1 40.94875,-40.94873 40.948746,40.948739 0 0 1 40.94874,40.94873 z" />
      <path
         id="path8695"
         style="fill:none;stroke:#000000;stroke-width:0.102515;stroke-miterlimit:4;stroke-dasharray:none;stroke-opacity:1"
         d="m -464.38642,-547.13229 a 40.948746,40.948739 0 0 1 -40.94874,40.94876 40.948746,40.948739 0 0 1 -40.94875,-40.94876 40.948746,40.948739 0 0 1 40.94875,-40.94873 40.948746,40.948739 0 0 1 40.94874,40.94873 z" />
      <path
         id="path2888"
         style="fill:none;stroke:#000000;stroke-width:0.102515;stroke-miterlimit:4;stroke-dasharray:none;stroke-opacity:1"
         d="m -485.60402,-626.27829 a 40.948746,40.948739 0 0 1 -40.94874,40.94876 40.948746,40.948739 0 0 1 -40.94875,-40.94876 40.948746,40.948739 0 0 1 40.94875,-40.94873 40.948746,40.948739 0 0 1 40.94874,40.94873 z" />
      <path
         id="path1969"
         style="fill:none;stroke:#000000;stroke-width:0.102515;stroke-miterlimit:4;stroke-dasharray:none;stroke-opacity:1"
         d="m -464.38642,-705.42399 a 40.948746,40.948739 0 0 1 -40.94874,40.94876 40.948746,40.948739 0 0 1 -40.94875,-40.94876 40.948746,40.948739 0 0 1 40.94875,-40.94873 40.948746,40.948739 0 0 1 40.94874,40.94873 z" />
      <path
         id="path3881"
         style="fill:none;stroke:#000000;stroke-width:0.102515;stroke-miterlimit:4;stroke-dasharray:none;stroke-opacity:1"
         d="m -406.44772,-763.36269 a 40.948746,40.948739 0 0 1 -40.94874,40.94876 40.948746,40.948739 0 0 1 -40.94875,-40.94876 40.948746,40.948739 0 0 1 40.94875,-40.94873 40.948746,40.948739 0 0 1 40.94874,40.94873 z" />
      <path
         id="path8318"
         style="fill:none;stroke:#000000;stroke-width:0.102515;stroke-miterlimit:4;stroke-dasharray:none;stroke-opacity:1"
         d="m -327.30202,-784.58029 a 40.948746,40.948739 0 0 1 -40.94874,40.94876 40.948746,40.948739 0 0 1 -40.94875,-40.94876 40.948746,40.948739 0 0 1 40.94875,-40.94873 40.948746,40.948739 0 0 1 40.94874,40.94873 z" />
      <path
         id="path1321"
         style="fill:none;stroke:#000000;stroke-width:0.102515;stroke-miterlimit:4;stroke-dasharray:none;stroke-opacity:1"
         d="m -248.15602,-763.36269 a 40.948746,40.948739 0 0 1 -40.94874,40.94876 40.948746,40.948739 0 0 1 -40.94875,-40.94876 40.948746,40.948739 0 0 1 40.94875,-40.94873 40.948746,40.948739 0 0 1 40.94874,40.94873 z" />
      <path
         id="path5361"
         style="fill:none;stroke:#000000;stroke-width:0.102515;stroke-miterlimit:4;stroke-dasharray:none;stroke-opacity:1"
         d="m -190.21802,-705.42399 a 40.948746,40.948739 0 0 1 -40.94874,40.94876 40.948746,40.948739 0 0 1 -40.94875,-40.94876 40.948746,40.948739 0 0 1 40.94875,-40.94873 40.948746,40.948739 0 0 1 40.94874,40.94873 z" />
      <path
         id="path7798"
         style="fill:none;stroke:#000000;stroke-width:0.102515;stroke-miterlimit:4;stroke-dasharray:none;stroke-opacity:1"
         d="m -169.00002,-626.27829 a 40.948746,40.948739 0 0 1 -40.94874,40.94876 40.948746,40.948739 0 0 1 -40.94875,-40.94876 40.948746,40.948739 0 0 1 40.94875,-40.94873 40.948746,40.948739 0 0 1 40.94874,40.94873 z" />
      <path
         id="path7564-3-6"
         style="fill:none;stroke:#000000;stroke-width:0.102515;stroke-miterlimit:4;stroke-dasharray:none;stroke-opacity:1"
         d="m -327.30212,-626.27829 a 40.948746,40.948739 0 0 1 -40.94874,40.94876 40.948746,40.948739 0 0 1 -40.94875,-40.94876 40.948746,40.948739 0 0 1 40.94875,-40.94873 40.948746,40.948739 0 0 1 40.94874,40.94873 z" />
      <circle
         style="fill:none;stroke:#ff0000;stroke-width:0.0809716;stroke-linejoin:round;stroke-miterlimit:4;stroke-dasharray:none;stroke-opacity:1"
         id="path4586-9-4"
         cx="-368.25085"
         cy="-626.27826"
         r="33.959515" />
      <circle
         style="fill:none;stroke:#ff0000;stroke-width:0.0809716;stroke-linejoin:round;stroke-miterlimit:4;stroke-dasharray:none;stroke-opacity:1"
         id="path4586-9-4-0"
         cx="-447.39645"
         cy="-489.19427"
         r="33.959515" />
      <circle
         style="fill:none;stroke:#ff0000;stroke-width:0.0809716;stroke-linejoin:round;stroke-miterlimit:4;stroke-dasharray:none;stroke-opacity:1"
         id="path4586-9-4-3"
         cx="-368.25076"
         cy="-467.97629"
         r="33.959515" />
      <circle
         style="fill:none;stroke:#ff0000;stroke-width:0.0809716;stroke-linejoin:round;stroke-miterlimit:4;stroke-dasharray:none;stroke-opacity:1"
         id="path4586-9-4-4"
         cx="-289.10477"
         cy="-489.19427"
         r="33.959515" />
      <circle
         style="fill:none;stroke:#ff0000;stroke-width:0.0809716;stroke-linejoin:round;stroke-miterlimit:4;stroke-dasharray:none;stroke-opacity:1"
         id="path4586-9-4-9"
         cx="-231.16676"
         cy="-547.13226"
         r="33.959515" />
      <circle
         style="fill:none;stroke:#ff0000;stroke-width:0.0809716;stroke-linejoin:round;stroke-miterlimit:4;stroke-dasharray:none;stroke-opacity:1"
         id="path4586-9-4-38"
         cx="-209.94876"
         cy="-626.27826"
         r="33.959515" />
      <circle
         style="fill:none;stroke:#ff0000;stroke-width:0.0809716;stroke-linejoin:round;stroke-miterlimit:4;stroke-dasharray:none;stroke-opacity:1"
         id="path4586-9-4-8"
         cx="-231.16676"
         cy="-705.42395"
         r="33.959515" />
      <circle
         style="fill:none;stroke:#ff0000;stroke-width:0.0809716;stroke-linejoin:round;stroke-miterlimit:4;stroke-dasharray:none;stroke-opacity:1"
         id="path4586-9-4-89"
         cx="-289.10477"
         cy="-763.36267"
         r="33.959515" />
      <circle
         style="fill:none;stroke:#ff0000;stroke-width:0.0809716;stroke-linejoin:round;stroke-miterlimit:4;stroke-dasharray:none;stroke-opacity:1"
         id="path4586-9-4-08"
         cx="-368.25076"
         cy="-784.58026"
         r="33.959515" />
      <circle
         style="fill:none;stroke:#ff0000;stroke-width:0.0809716;stroke-linejoin:round;stroke-miterlimit:4;stroke-dasharray:none;stroke-opacity:1"
         id="path4586-9-4-2"
         cx="-447.39645"
         cy="-763.36267"
         r="33.959515" />
      <circle
         style="fill:none;stroke:#ff0000;stroke-width:0.0809716;stroke-linejoin:round;stroke-miterlimit:4;stroke-dasharray:none;stroke-opacity:1"
         id="path4586-9-4-84"
         cx="-505.33517"
         cy="-705.42395"
         r="33.959515" />
      <circle
         style="fill:none;stroke:#ff0000;stroke-width:0.0809716;stroke-linejoin:round;stroke-miterlimit:4;stroke-dasharray:none;stroke-opacity:1"
         id="path4586-9-4-387"
         cx="-526.5528"
         cy="-626.27826"
         r="33.959515" />
      <circle
         style="fill:none;stroke:#ff0000;stroke-width:0.0809716;stroke-linejoin:round;stroke-miterlimit:4;stroke-dasharray:none;stroke-opacity:1"
         id="path4586-9-4-82"
         cx="-505.33517"
         cy="-547.13226"
         r="33.959515" />
    </g>
    <rect
       style="fill:none;fill-opacity:1;stroke:#000000;stroke-width:0.170776;stroke-linejoin:round;stroke-opacity:1"
       id="rect1724"
       width="399.82922"
       height="399.82922"
       x="-567.51782"
       y="-826.69061"
       rx="3.0637341"
       ry="3.9583321" />
  </g>
</svg>
