<?xml version="1.0" encoding="UTF-8" standalone="no"?>
<!-- Created with Inkscape (http://www.inkscape.org/) -->

<svg
   xmlns:dc="http://purl.org/dc/elements/1.1/"
   xmlns:cc="http://creativecommons.org/ns#"
   xmlns:rdf="http://www.w3.org/1999/02/22-rdf-syntax-ns#"
   xmlns:svg="http://www.w3.org/2000/svg"
   xmlns="http://www.w3.org/2000/svg"
   xmlns:sodipodi="http://sodipodi.sourceforge.net/DTD/sodipodi-0.dtd"
   xmlns:inkscape="http://www.inkscape.org/namespaces/inkscape"
   width="300mm"
   height="230mm"
   viewBox="0 0 300 229.99999"
   version="1.1"
   id="svg8"
   inkscape:version="0.92.1 r15371"
   sodipodi:docname="LedRingHolder2x2.svg">
  <defs
     id="defs2" />
  <sodipodi:namedview
     id="base"
     pagecolor="#ffffff"
     bordercolor="#666666"
     borderopacity="1.0"
     inkscape:pageopacity="0.0"
     inkscape:pageshadow="2"
     inkscape:zoom="1.4142136"
     inkscape:cx="401.32182"
     inkscape:cy="312.88706"
     inkscape:document-units="mm"
     inkscape:current-layer="layer1"
     showgrid="false"
     inkscape:window-width="1920"
     inkscape:window-height="1027"
     inkscape:window-x="-8"
     inkscape:window-y="1192"
     inkscape:window-maximized="1"
     fit-margin-top="0"
     fit-margin-left="0"
     fit-margin-right="0"
     fit-margin-bottom="0"
     inkscape:measure-start="1076.57,535.28"
     inkscape:measure-end="70.7107,535.28"
     showguides="false" />
  <metadata
     id="metadata5">
    <rdf:RDF>
      <cc:Work
         rdf:about="">
        <dc:format>image/svg+xml</dc:format>
        <dc:type
           rdf:resource="http://purl.org/dc/dcmitype/StillImage" />
        <dc:title></dc:title>
      </cc:Work>
    </rdf:RDF>
  </metadata>
  <g
     inkscape:label="Layer 1"
     inkscape:groupmode="layer"
     id="layer1"
     transform="translate(11.929475,54.447976)">
    <rect
       style="opacity:1;fill:none;fill-opacity:1;stroke:#ff0000;stroke-width:0.10000002;stroke-linecap:round;stroke-linejoin:round;stroke-miterlimit:4;stroke-dasharray:none;stroke-dashoffset:0;stroke-opacity:1;paint-order:markers fill stroke"
       id="rect4853"
       width="164.07362"
       height="161.05136"
       x="-13.866291"
       y="14.976345" />
    <path
       style="opacity:1;fill:none;fill-opacity:1;stroke:#ff0000;stroke-width:0.09999994;stroke-linecap:round;stroke-linejoin:round;stroke-miterlimit:4;stroke-dasharray:none;stroke-dashoffset:0;stroke-opacity:1;paint-order:markers fill stroke"
       id="path4487-9-9-0-3"
       sodipodi:type="arc"
       sodipodi:cx="104.12053"
       sodipodi:cy="59.552017"
       sodipodi:rx="32.949997"
       sodipodi:ry="32.950001"
       sodipodi:start="0"
       sodipodi:end="6.2806022"
       sodipodi:open="true"
       d="M 137.07053,59.552017 A 32.949997,32.950001 0 0 1 104.14181,92.502011 32.949997,32.950001 0 0 1 71.17056,59.594574 32.949997,32.950001 0 0 1 104.05669,26.602078 32.949997,32.950001 0 0 1 137.07042,59.466904" />
    <rect
       style="opacity:1;fill:none;fill-opacity:1;stroke:#000000;stroke-width:0.10000001;stroke-linecap:round;stroke-linejoin:round;stroke-miterlimit:4;stroke-dasharray:none;stroke-dashoffset:0;stroke-opacity:1;paint-order:markers fill stroke"
       id="rect4551-2-6-9"
       width="69.900002"
       height="69.900002"
       x="68.170517"
       y="25.602028" />
    <path
       style="opacity:1;fill:none;fill-opacity:1;stroke:#ff0000;stroke-width:0.09999995;stroke-linecap:round;stroke-linejoin:round;stroke-miterlimit:4;stroke-dasharray:none;stroke-dashoffset:0;stroke-opacity:1;paint-order:markers fill stroke"
       id="path4487-9-9-0-1-9-8"
       sodipodi:type="arc"
       sodipodi:cx="103.12051"
       sodipodi:cy="130.45203"
       sodipodi:rx="32.949997"
       sodipodi:ry="32.950001"
       sodipodi:start="0"
       sodipodi:end="6.2806022"
       sodipodi:open="true"
       d="M 136.0705,130.45203 A 32.949997,32.950001 0 0 1 103.14178,163.40202 32.949997,32.950001 0 0 1 70.170537,130.49458 32.949997,32.950001 0 0 1 103.05667,97.502087 32.949997,32.950001 0 0 1 136.07039,130.36691" />
    <rect
       style="opacity:1;fill:none;fill-opacity:1;stroke:#000000;stroke-width:0.10000001;stroke-linecap:round;stroke-linejoin:round;stroke-miterlimit:4;stroke-dasharray:none;stroke-dashoffset:0;stroke-opacity:1;paint-order:markers fill stroke"
       id="rect4551-2-6-7-6-6"
       width="69.900002"
       height="69.900002"
       x="68.170517"
       y="95.502029" />
    <path
       style="opacity:1;fill:none;fill-opacity:1;stroke:#ff0000;stroke-width:0.09999994;stroke-linecap:round;stroke-linejoin:round;stroke-miterlimit:4;stroke-dasharray:none;stroke-dashoffset:0;stroke-opacity:1;paint-order:markers fill stroke"
       id="path4487-9-9-0-3-1"
       sodipodi:type="arc"
       sodipodi:cx="34.220535"
       sodipodi:cy="59.552017"
       sodipodi:rx="32.949997"
       sodipodi:ry="32.950001"
       sodipodi:start="0"
       sodipodi:end="6.2806022"
       sodipodi:open="true"
       d="M 67.170532,59.552017 A 32.949997,32.950001 0 0 1 34.241814,92.502011 32.949997,32.950001 0 0 1 1.2705658,59.594574 32.949997,32.950001 0 0 1 34.1567,26.602078 32.949997,32.950001 0 0 1 67.170422,59.466904" />
    <rect
       style="opacity:1;fill:none;fill-opacity:1;stroke:#000000;stroke-width:0.10000001;stroke-linecap:round;stroke-linejoin:round;stroke-miterlimit:4;stroke-dasharray:none;stroke-dashoffset:0;stroke-opacity:1;paint-order:markers fill stroke"
       id="rect4551-2-6-9-9"
       width="69.900002"
       height="69.900002"
       x="-1.7294769"
       y="25.60202" />
    <path
       style="opacity:1;fill:none;fill-opacity:1;stroke:#ff0000;stroke-width:0.09999995;stroke-linecap:round;stroke-linejoin:round;stroke-miterlimit:4;stroke-dasharray:none;stroke-dashoffset:0;stroke-opacity:1;paint-order:markers fill stroke"
       id="path4487-9-9-0-1-9-8-1"
       sodipodi:type="arc"
       sodipodi:cx="33.22052"
       sodipodi:cy="130.45203"
       sodipodi:rx="32.949997"
       sodipodi:ry="32.950001"
       sodipodi:start="0"
       sodipodi:end="6.2806022"
       sodipodi:open="true"
       d="M 66.170517,130.45203 A 32.949997,32.950001 0 0 1 33.241798,163.40202 32.949997,32.950001 0 0 1 0.27055055,130.49458 32.949997,32.950001 0 0 1 33.156685,97.502087 32.949997,32.950001 0 0 1 66.170407,130.36691" />
    <rect
       style="opacity:1;fill:none;fill-opacity:1;stroke:#000000;stroke-width:0.10000001;stroke-linecap:round;stroke-linejoin:round;stroke-miterlimit:4;stroke-dasharray:none;stroke-dashoffset:0;stroke-opacity:1;paint-order:markers fill stroke"
       id="rect4551-2-6-7-6-6-7"
       width="69.900002"
       height="69.900002"
       x="-1.7294769"
       y="95.502029" />
    <path
       style="opacity:1;fill:none;fill-opacity:1;stroke:#ff0000;stroke-width:0.09999995;stroke-linecap:round;stroke-linejoin:round;stroke-miterlimit:4;stroke-dasharray:none;stroke-dashoffset:0;stroke-opacity:1;paint-order:markers fill stroke"
       id="path4487-9-9-0-3-1-4"
       sodipodi:type="arc"
       sodipodi:cx="34.220535"
       sodipodi:cy="59.552017"
       sodipodi:rx="2.9499974"
       sodipodi:ry="2.9499998"
       sodipodi:start="0"
       sodipodi:end="6.2806022"
       sodipodi:open="true"
       d="m 37.170533,59.552017 a 2.9499974,2.9499998 0 0 1 -2.948093,2.949999 2.9499974,2.9499998 0 0 1 -2.9519,-2.946189 2.9499974,2.9499998 0 0 1 2.94428,-2.953804 2.9499974,2.9499998 0 0 1 2.955703,2.942374" />
    <path
       style="opacity:1;fill:none;fill-opacity:1;stroke:#ff0000;stroke-width:0.09999995;stroke-linecap:round;stroke-linejoin:round;stroke-miterlimit:4;stroke-dasharray:none;stroke-dashoffset:0;stroke-opacity:1;paint-order:markers fill stroke"
       id="path4487-9-9-0-3-1-4-9"
       sodipodi:type="arc"
       sodipodi:cx="104.12053"
       sodipodi:cy="59.552017"
       sodipodi:rx="2.9499974"
       sodipodi:ry="2.9499998"
       sodipodi:start="0"
       sodipodi:end="6.2806022"
       sodipodi:open="true"
       d="m 107.07053,59.552017 a 2.9499974,2.9499998 0 0 1 -2.9481,2.949999 2.9499974,2.9499998 0 0 1 -2.9519,-2.946189 2.9499974,2.9499998 0 0 1 2.94428,-2.953804 2.9499974,2.9499998 0 0 1 2.95571,2.942374" />
    <path
       style="opacity:1;fill:none;fill-opacity:1;stroke:#ff0000;stroke-width:0.09999995;stroke-linecap:round;stroke-linejoin:round;stroke-miterlimit:4;stroke-dasharray:none;stroke-dashoffset:0;stroke-opacity:1;paint-order:markers fill stroke"
       id="path4487-9-9-0-3-1-4-67"
       sodipodi:type="arc"
       sodipodi:cx="103.12051"
       sodipodi:cy="130.45203"
       sodipodi:rx="2.9499974"
       sodipodi:ry="2.9499998"
       sodipodi:start="0"
       sodipodi:end="6.2806022"
       sodipodi:open="true"
       d="m 106.0705,130.45203 a 2.9499974,2.9499998 0 0 1 -2.94809,2.95 2.9499974,2.9499998 0 0 1 -2.9519,-2.94619 2.9499974,2.9499998 0 0 1 2.94428,-2.95381 2.9499974,2.9499998 0 0 1 2.9557,2.94238" />
    <path
       style="opacity:1;fill:none;fill-opacity:1;stroke:#ff0000;stroke-width:0.09999995;stroke-linecap:round;stroke-linejoin:round;stroke-miterlimit:4;stroke-dasharray:none;stroke-dashoffset:0;stroke-opacity:1;paint-order:markers fill stroke"
       id="path4487-9-9-0-3-1-4-63"
       sodipodi:type="arc"
       sodipodi:cx="33.22052"
       sodipodi:cy="130.45203"
       sodipodi:rx="2.9499974"
       sodipodi:ry="2.9499998"
       sodipodi:start="0"
       sodipodi:end="6.2806022"
       sodipodi:open="true"
       d="m 36.170517,130.45203 a 2.9499974,2.9499998 0 0 1 -2.948092,2.95 2.9499974,2.9499998 0 0 1 -2.9519,-2.94619 2.9499974,2.9499998 0 0 1 2.94428,-2.95381 2.9499974,2.9499998 0 0 1 2.955703,2.94238" />
  </g>
</svg>
