G04 #@! TF.GenerationSoftware,KiCad,Pcbnew,(5.1.5)-3*
G04 #@! TF.CreationDate,2020-06-24T07:37:59+02:00*
G04 #@! TF.ProjectId,Ring80,52696e67-3830-42e6-9b69-6361645f7063,V0.1*
G04 #@! TF.SameCoordinates,Original*
G04 #@! TF.FileFunction,Copper,L2,Bot*
G04 #@! TF.FilePolarity,Positive*
%FSLAX46Y46*%
G04 Gerber Fmt 4.6, Leading zero omitted, Abs format (unit mm)*
G04 Created by KiCad (PCBNEW (5.1.5)-3) date 2020-06-24 07:37:59*
%MOMM*%
%LPD*%
G04 APERTURE LIST*
%ADD10R,1.700000X1.700000*%
%ADD11O,1.700000X1.700000*%
%ADD12C,0.800000*%
%ADD13C,0.250000*%
%ADD14C,0.500000*%
%ADD15C,0.254000*%
G04 APERTURE END LIST*
D10*
X96888000Y-166072000D03*
D11*
X94348000Y-166072000D03*
X91808000Y-166072000D03*
D10*
X96890000Y-88960000D03*
D11*
X94350000Y-88960000D03*
X91810000Y-88960000D03*
D12*
X91710000Y-90800000D03*
X89880000Y-88790000D03*
X86390000Y-93312223D03*
X67420000Y-104450000D03*
X71160000Y-100440000D03*
X59240000Y-124660000D03*
X59180000Y-130330000D03*
X59780000Y-135670000D03*
X96990000Y-92330000D03*
X102600000Y-92790000D03*
X112880000Y-97440000D03*
X117428840Y-100414965D03*
X121190000Y-104370000D03*
X124580000Y-108790000D03*
X127210000Y-113710000D03*
X128920000Y-119030000D03*
X129940000Y-124700000D03*
X130040000Y-130340000D03*
X129110000Y-135830000D03*
X127230000Y-141330000D03*
X124830000Y-146350000D03*
X121550000Y-150760000D03*
X117490000Y-154670000D03*
X112970000Y-157860000D03*
X107990000Y-160390000D03*
X102610000Y-162130000D03*
X91380000Y-163050000D03*
X80570000Y-160310000D03*
X75660000Y-157900000D03*
X67190000Y-150660000D03*
X63740000Y-145940000D03*
X61300000Y-140860000D03*
X97050000Y-162390000D03*
X86020000Y-161530000D03*
X93092215Y-164437901D03*
X81060000Y-94830203D03*
X109285131Y-161466838D03*
X131490001Y-128830000D03*
X130560001Y-134346197D03*
X128964332Y-140450000D03*
X126601726Y-145899056D03*
X123541910Y-150396196D03*
X119364154Y-154894154D03*
X114539154Y-158389154D03*
X103914272Y-163498992D03*
X131188743Y-123029766D03*
X129940780Y-117339221D03*
X127818014Y-111911986D03*
X124739082Y-106810921D03*
X121532584Y-102659116D03*
X116861587Y-98296030D03*
X112112397Y-95198274D03*
X107552643Y-92836529D03*
X102340000Y-91338564D03*
X71270000Y-154500000D03*
X86440000Y-163561436D03*
X81060000Y-161993471D03*
X75695632Y-159671726D03*
X70930846Y-156259154D03*
X66600846Y-152169154D03*
X63714763Y-148013070D03*
X60484016Y-142455984D03*
X58723300Y-137307533D03*
X57853837Y-132163059D03*
X61990000Y-113810000D03*
X64230000Y-108960000D03*
X62540846Y-108550846D03*
X59859174Y-113723274D03*
X58248564Y-119605285D03*
X65935846Y-103835846D03*
X69785846Y-99715846D03*
X73589301Y-97119301D03*
X78979016Y-93999015D03*
X84970000Y-91862223D03*
X91590000Y-92340000D03*
X107802454Y-94767546D03*
X76010000Y-97370000D03*
X60000000Y-119030000D03*
X90259999Y-91059609D03*
X57559999Y-125060000D03*
X99243670Y-163815868D03*
D13*
X89880000Y-88970000D02*
X89880000Y-88790000D01*
X91710000Y-90800000D02*
X89880000Y-88970000D01*
D14*
X91808000Y-166072000D02*
X96888000Y-166072000D01*
D15*
G36*
X99946666Y-88524424D02*
G01*
X102405094Y-88957912D01*
X104831080Y-89546449D01*
X107214854Y-90287668D01*
X109546817Y-91178582D01*
X111817581Y-92215605D01*
X114018000Y-93394561D01*
X116139215Y-94710702D01*
X118172685Y-96158729D01*
X120110221Y-97732812D01*
X121944022Y-99426611D01*
X123666703Y-101233308D01*
X125271329Y-103145625D01*
X126751437Y-105155865D01*
X128101067Y-107255931D01*
X129314787Y-109437369D01*
X130387707Y-111691393D01*
X131315508Y-114008928D01*
X132094454Y-116380641D01*
X132721408Y-118796984D01*
X133193846Y-121248225D01*
X133509865Y-123724495D01*
X133668194Y-126215823D01*
X133668194Y-128712177D01*
X133509865Y-131203505D01*
X133193846Y-133679775D01*
X132721408Y-136131016D01*
X132094454Y-138547359D01*
X131315508Y-140919072D01*
X130387707Y-143236607D01*
X129314787Y-145490631D01*
X128101067Y-147672069D01*
X126751437Y-149772135D01*
X125271329Y-151782375D01*
X123666703Y-153694692D01*
X121944022Y-155501389D01*
X120110221Y-157195188D01*
X118172685Y-158769271D01*
X116139215Y-160217298D01*
X114018000Y-161533439D01*
X111817581Y-162712395D01*
X109546817Y-163749418D01*
X107214854Y-164640332D01*
X104831080Y-165381551D01*
X102405094Y-165970088D01*
X99946666Y-166403576D01*
X98376072Y-166578737D01*
X98376072Y-165222000D01*
X98363812Y-165097518D01*
X98327502Y-164977820D01*
X98268537Y-164867506D01*
X98189185Y-164770815D01*
X98092494Y-164691463D01*
X97982180Y-164632498D01*
X97862482Y-164596188D01*
X97738000Y-164583928D01*
X96038000Y-164583928D01*
X95913518Y-164596188D01*
X95793820Y-164632498D01*
X95683506Y-164691463D01*
X95586815Y-164770815D01*
X95507463Y-164867506D01*
X95448498Y-164977820D01*
X95426487Y-165050380D01*
X95294632Y-164918525D01*
X95051411Y-164756010D01*
X94781158Y-164644068D01*
X94494260Y-164587000D01*
X94201740Y-164587000D01*
X93914842Y-164644068D01*
X93644589Y-164756010D01*
X93401368Y-164918525D01*
X93194525Y-165125368D01*
X93153344Y-165187000D01*
X93002656Y-165187000D01*
X92961475Y-165125368D01*
X92754632Y-164918525D01*
X92511411Y-164756010D01*
X92241158Y-164644068D01*
X91954260Y-164587000D01*
X91661740Y-164587000D01*
X91374842Y-164644068D01*
X91104589Y-164756010D01*
X90861368Y-164918525D01*
X90654525Y-165125368D01*
X90492010Y-165368589D01*
X90380068Y-165638842D01*
X90323000Y-165925740D01*
X90323000Y-166218260D01*
X90380068Y-166505158D01*
X90417608Y-166595789D01*
X89987625Y-166561605D01*
X87516681Y-166206337D01*
X85073243Y-165695067D01*
X82667152Y-165029854D01*
X80308096Y-164213377D01*
X78005573Y-163248923D01*
X75768856Y-162140375D01*
X73606950Y-160892198D01*
X71528561Y-159509418D01*
X69542058Y-157997602D01*
X67655440Y-156362838D01*
X65876303Y-154611708D01*
X64211812Y-152751265D01*
X62668668Y-150788998D01*
X61253086Y-148732810D01*
X59970766Y-146590980D01*
X58826870Y-144372132D01*
X57826006Y-142085201D01*
X56972202Y-139739396D01*
X56268898Y-137344162D01*
X55718925Y-134909144D01*
X55324498Y-132444147D01*
X55087204Y-129959097D01*
X55008000Y-127464000D01*
X55045585Y-126279986D01*
X59688218Y-126279986D01*
X59688218Y-128648014D01*
X59849818Y-131010521D01*
X60172264Y-133356492D01*
X60654053Y-135674990D01*
X61292939Y-137955205D01*
X62085944Y-140186504D01*
X63029368Y-142358486D01*
X64118815Y-144461022D01*
X65349204Y-146484311D01*
X66714799Y-148418918D01*
X68209232Y-150255824D01*
X69825537Y-151986463D01*
X71556176Y-153602768D01*
X73393082Y-155097201D01*
X75327689Y-156462796D01*
X77350978Y-157693185D01*
X79453514Y-158782632D01*
X81625496Y-159726056D01*
X83856795Y-160519061D01*
X86137010Y-161157947D01*
X88455508Y-161639736D01*
X90801479Y-161962182D01*
X93163986Y-162123782D01*
X95532014Y-162123782D01*
X97894521Y-161962182D01*
X100240492Y-161639736D01*
X102558990Y-161157947D01*
X104839205Y-160519061D01*
X107070504Y-159726056D01*
X109242486Y-158782632D01*
X111345022Y-157693185D01*
X113368311Y-156462796D01*
X115302918Y-155097201D01*
X117139824Y-153602768D01*
X118870463Y-151986463D01*
X120486768Y-150255824D01*
X121981201Y-148418918D01*
X123346796Y-146484311D01*
X124577185Y-144461022D01*
X125666632Y-142358486D01*
X126610056Y-140186504D01*
X127403061Y-137955205D01*
X128041947Y-135674990D01*
X128523736Y-133356492D01*
X128846182Y-131010521D01*
X129007782Y-128648014D01*
X129007782Y-126279986D01*
X128846182Y-123917479D01*
X128523736Y-121571508D01*
X128041947Y-119253010D01*
X127403061Y-116972795D01*
X126610056Y-114741496D01*
X125666632Y-112569514D01*
X124577185Y-110466978D01*
X123346796Y-108443689D01*
X121981201Y-106509082D01*
X120486768Y-104672176D01*
X118870463Y-102941537D01*
X117139824Y-101325232D01*
X115302918Y-99830799D01*
X113368311Y-98465204D01*
X111345022Y-97234815D01*
X109242486Y-96145368D01*
X107070504Y-95201944D01*
X104839205Y-94408939D01*
X102558990Y-93770053D01*
X100240492Y-93288264D01*
X97894521Y-92965818D01*
X95532014Y-92804218D01*
X93163986Y-92804218D01*
X90801479Y-92965818D01*
X88455508Y-93288264D01*
X86137010Y-93770053D01*
X83856795Y-94408939D01*
X81625496Y-95201944D01*
X79453514Y-96145368D01*
X77350978Y-97234815D01*
X75327689Y-98465204D01*
X73393082Y-99830799D01*
X71556176Y-101325232D01*
X69825537Y-102941537D01*
X68209232Y-104672176D01*
X66714799Y-106509082D01*
X65349204Y-108443689D01*
X64118815Y-110466978D01*
X63029368Y-112569514D01*
X62085944Y-114741496D01*
X61292939Y-116972795D01*
X60654053Y-119253010D01*
X60172264Y-121571508D01*
X59849818Y-123917479D01*
X59688218Y-126279986D01*
X55045585Y-126279986D01*
X55087204Y-124968903D01*
X55324498Y-122483853D01*
X55718925Y-120018856D01*
X56268898Y-117583838D01*
X56972202Y-115188604D01*
X57826006Y-112842799D01*
X58826870Y-110555868D01*
X59970766Y-108337020D01*
X61253086Y-106195190D01*
X62668668Y-104139002D01*
X64211812Y-102176735D01*
X65876303Y-100316292D01*
X67655440Y-98565162D01*
X69542058Y-96930398D01*
X71528561Y-95418582D01*
X73606950Y-94035802D01*
X75768856Y-92787625D01*
X78005573Y-91679077D01*
X80308096Y-90714623D01*
X82667152Y-89898146D01*
X85073243Y-89232933D01*
X87516681Y-88721663D01*
X88877226Y-88526046D01*
X88845000Y-88688061D01*
X88845000Y-88891939D01*
X88884774Y-89091898D01*
X88962795Y-89280256D01*
X89076063Y-89449774D01*
X89220226Y-89593937D01*
X89389744Y-89707205D01*
X89578102Y-89785226D01*
X89630934Y-89795735D01*
X90675000Y-90839802D01*
X90675000Y-90901939D01*
X90714774Y-91101898D01*
X90792795Y-91290256D01*
X90906063Y-91459774D01*
X91050226Y-91603937D01*
X91219744Y-91717205D01*
X91408102Y-91795226D01*
X91608061Y-91835000D01*
X91811939Y-91835000D01*
X92011898Y-91795226D01*
X92200256Y-91717205D01*
X92369774Y-91603937D01*
X92513937Y-91459774D01*
X92627205Y-91290256D01*
X92705226Y-91101898D01*
X92745000Y-90901939D01*
X92745000Y-90698061D01*
X92705226Y-90498102D01*
X92627205Y-90309744D01*
X92576489Y-90233842D01*
X92756632Y-90113475D01*
X92963475Y-89906632D01*
X93085195Y-89724466D01*
X93154822Y-89841355D01*
X93349731Y-90057588D01*
X93583080Y-90231641D01*
X93845901Y-90356825D01*
X93993110Y-90401476D01*
X94223000Y-90280155D01*
X94223000Y-89087000D01*
X94203000Y-89087000D01*
X94203000Y-88833000D01*
X94223000Y-88833000D01*
X94223000Y-88813000D01*
X94477000Y-88813000D01*
X94477000Y-88833000D01*
X94497000Y-88833000D01*
X94497000Y-89087000D01*
X94477000Y-89087000D01*
X94477000Y-90280155D01*
X94706890Y-90401476D01*
X94854099Y-90356825D01*
X95116920Y-90231641D01*
X95350269Y-90057588D01*
X95426034Y-89973534D01*
X95450498Y-90054180D01*
X95509463Y-90164494D01*
X95588815Y-90261185D01*
X95685506Y-90340537D01*
X95795820Y-90399502D01*
X95915518Y-90435812D01*
X96040000Y-90448072D01*
X97740000Y-90448072D01*
X97864482Y-90435812D01*
X97984180Y-90399502D01*
X98094494Y-90340537D01*
X98191185Y-90261185D01*
X98270537Y-90164494D01*
X98329502Y-90054180D01*
X98365812Y-89934482D01*
X98378072Y-89810000D01*
X98378072Y-88349486D01*
X99946666Y-88524424D01*
G37*
X99946666Y-88524424D02*
X102405094Y-88957912D01*
X104831080Y-89546449D01*
X107214854Y-90287668D01*
X109546817Y-91178582D01*
X111817581Y-92215605D01*
X114018000Y-93394561D01*
X116139215Y-94710702D01*
X118172685Y-96158729D01*
X120110221Y-97732812D01*
X121944022Y-99426611D01*
X123666703Y-101233308D01*
X125271329Y-103145625D01*
X126751437Y-105155865D01*
X128101067Y-107255931D01*
X129314787Y-109437369D01*
X130387707Y-111691393D01*
X131315508Y-114008928D01*
X132094454Y-116380641D01*
X132721408Y-118796984D01*
X133193846Y-121248225D01*
X133509865Y-123724495D01*
X133668194Y-126215823D01*
X133668194Y-128712177D01*
X133509865Y-131203505D01*
X133193846Y-133679775D01*
X132721408Y-136131016D01*
X132094454Y-138547359D01*
X131315508Y-140919072D01*
X130387707Y-143236607D01*
X129314787Y-145490631D01*
X128101067Y-147672069D01*
X126751437Y-149772135D01*
X125271329Y-151782375D01*
X123666703Y-153694692D01*
X121944022Y-155501389D01*
X120110221Y-157195188D01*
X118172685Y-158769271D01*
X116139215Y-160217298D01*
X114018000Y-161533439D01*
X111817581Y-162712395D01*
X109546817Y-163749418D01*
X107214854Y-164640332D01*
X104831080Y-165381551D01*
X102405094Y-165970088D01*
X99946666Y-166403576D01*
X98376072Y-166578737D01*
X98376072Y-165222000D01*
X98363812Y-165097518D01*
X98327502Y-164977820D01*
X98268537Y-164867506D01*
X98189185Y-164770815D01*
X98092494Y-164691463D01*
X97982180Y-164632498D01*
X97862482Y-164596188D01*
X97738000Y-164583928D01*
X96038000Y-164583928D01*
X95913518Y-164596188D01*
X95793820Y-164632498D01*
X95683506Y-164691463D01*
X95586815Y-164770815D01*
X95507463Y-164867506D01*
X95448498Y-164977820D01*
X95426487Y-165050380D01*
X95294632Y-164918525D01*
X95051411Y-164756010D01*
X94781158Y-164644068D01*
X94494260Y-164587000D01*
X94201740Y-164587000D01*
X93914842Y-164644068D01*
X93644589Y-164756010D01*
X93401368Y-164918525D01*
X93194525Y-165125368D01*
X93153344Y-165187000D01*
X93002656Y-165187000D01*
X92961475Y-165125368D01*
X92754632Y-164918525D01*
X92511411Y-164756010D01*
X92241158Y-164644068D01*
X91954260Y-164587000D01*
X91661740Y-164587000D01*
X91374842Y-164644068D01*
X91104589Y-164756010D01*
X90861368Y-164918525D01*
X90654525Y-165125368D01*
X90492010Y-165368589D01*
X90380068Y-165638842D01*
X90323000Y-165925740D01*
X90323000Y-166218260D01*
X90380068Y-166505158D01*
X90417608Y-166595789D01*
X89987625Y-166561605D01*
X87516681Y-166206337D01*
X85073243Y-165695067D01*
X82667152Y-165029854D01*
X80308096Y-164213377D01*
X78005573Y-163248923D01*
X75768856Y-162140375D01*
X73606950Y-160892198D01*
X71528561Y-159509418D01*
X69542058Y-157997602D01*
X67655440Y-156362838D01*
X65876303Y-154611708D01*
X64211812Y-152751265D01*
X62668668Y-150788998D01*
X61253086Y-148732810D01*
X59970766Y-146590980D01*
X58826870Y-144372132D01*
X57826006Y-142085201D01*
X56972202Y-139739396D01*
X56268898Y-137344162D01*
X55718925Y-134909144D01*
X55324498Y-132444147D01*
X55087204Y-129959097D01*
X55008000Y-127464000D01*
X55045585Y-126279986D01*
X59688218Y-126279986D01*
X59688218Y-128648014D01*
X59849818Y-131010521D01*
X60172264Y-133356492D01*
X60654053Y-135674990D01*
X61292939Y-137955205D01*
X62085944Y-140186504D01*
X63029368Y-142358486D01*
X64118815Y-144461022D01*
X65349204Y-146484311D01*
X66714799Y-148418918D01*
X68209232Y-150255824D01*
X69825537Y-151986463D01*
X71556176Y-153602768D01*
X73393082Y-155097201D01*
X75327689Y-156462796D01*
X77350978Y-157693185D01*
X79453514Y-158782632D01*
X81625496Y-159726056D01*
X83856795Y-160519061D01*
X86137010Y-161157947D01*
X88455508Y-161639736D01*
X90801479Y-161962182D01*
X93163986Y-162123782D01*
X95532014Y-162123782D01*
X97894521Y-161962182D01*
X100240492Y-161639736D01*
X102558990Y-161157947D01*
X104839205Y-160519061D01*
X107070504Y-159726056D01*
X109242486Y-158782632D01*
X111345022Y-157693185D01*
X113368311Y-156462796D01*
X115302918Y-155097201D01*
X117139824Y-153602768D01*
X118870463Y-151986463D01*
X120486768Y-150255824D01*
X121981201Y-148418918D01*
X123346796Y-146484311D01*
X124577185Y-144461022D01*
X125666632Y-142358486D01*
X126610056Y-140186504D01*
X127403061Y-137955205D01*
X128041947Y-135674990D01*
X128523736Y-133356492D01*
X128846182Y-131010521D01*
X129007782Y-128648014D01*
X129007782Y-126279986D01*
X128846182Y-123917479D01*
X128523736Y-121571508D01*
X128041947Y-119253010D01*
X127403061Y-116972795D01*
X126610056Y-114741496D01*
X125666632Y-112569514D01*
X124577185Y-110466978D01*
X123346796Y-108443689D01*
X121981201Y-106509082D01*
X120486768Y-104672176D01*
X118870463Y-102941537D01*
X117139824Y-101325232D01*
X115302918Y-99830799D01*
X113368311Y-98465204D01*
X111345022Y-97234815D01*
X109242486Y-96145368D01*
X107070504Y-95201944D01*
X104839205Y-94408939D01*
X102558990Y-93770053D01*
X100240492Y-93288264D01*
X97894521Y-92965818D01*
X95532014Y-92804218D01*
X93163986Y-92804218D01*
X90801479Y-92965818D01*
X88455508Y-93288264D01*
X86137010Y-93770053D01*
X83856795Y-94408939D01*
X81625496Y-95201944D01*
X79453514Y-96145368D01*
X77350978Y-97234815D01*
X75327689Y-98465204D01*
X73393082Y-99830799D01*
X71556176Y-101325232D01*
X69825537Y-102941537D01*
X68209232Y-104672176D01*
X66714799Y-106509082D01*
X65349204Y-108443689D01*
X64118815Y-110466978D01*
X63029368Y-112569514D01*
X62085944Y-114741496D01*
X61292939Y-116972795D01*
X60654053Y-119253010D01*
X60172264Y-121571508D01*
X59849818Y-123917479D01*
X59688218Y-126279986D01*
X55045585Y-126279986D01*
X55087204Y-124968903D01*
X55324498Y-122483853D01*
X55718925Y-120018856D01*
X56268898Y-117583838D01*
X56972202Y-115188604D01*
X57826006Y-112842799D01*
X58826870Y-110555868D01*
X59970766Y-108337020D01*
X61253086Y-106195190D01*
X62668668Y-104139002D01*
X64211812Y-102176735D01*
X65876303Y-100316292D01*
X67655440Y-98565162D01*
X69542058Y-96930398D01*
X71528561Y-95418582D01*
X73606950Y-94035802D01*
X75768856Y-92787625D01*
X78005573Y-91679077D01*
X80308096Y-90714623D01*
X82667152Y-89898146D01*
X85073243Y-89232933D01*
X87516681Y-88721663D01*
X88877226Y-88526046D01*
X88845000Y-88688061D01*
X88845000Y-88891939D01*
X88884774Y-89091898D01*
X88962795Y-89280256D01*
X89076063Y-89449774D01*
X89220226Y-89593937D01*
X89389744Y-89707205D01*
X89578102Y-89785226D01*
X89630934Y-89795735D01*
X90675000Y-90839802D01*
X90675000Y-90901939D01*
X90714774Y-91101898D01*
X90792795Y-91290256D01*
X90906063Y-91459774D01*
X91050226Y-91603937D01*
X91219744Y-91717205D01*
X91408102Y-91795226D01*
X91608061Y-91835000D01*
X91811939Y-91835000D01*
X92011898Y-91795226D01*
X92200256Y-91717205D01*
X92369774Y-91603937D01*
X92513937Y-91459774D01*
X92627205Y-91290256D01*
X92705226Y-91101898D01*
X92745000Y-90901939D01*
X92745000Y-90698061D01*
X92705226Y-90498102D01*
X92627205Y-90309744D01*
X92576489Y-90233842D01*
X92756632Y-90113475D01*
X92963475Y-89906632D01*
X93085195Y-89724466D01*
X93154822Y-89841355D01*
X93349731Y-90057588D01*
X93583080Y-90231641D01*
X93845901Y-90356825D01*
X93993110Y-90401476D01*
X94223000Y-90280155D01*
X94223000Y-89087000D01*
X94203000Y-89087000D01*
X94203000Y-88833000D01*
X94223000Y-88833000D01*
X94223000Y-88813000D01*
X94477000Y-88813000D01*
X94477000Y-88833000D01*
X94497000Y-88833000D01*
X94497000Y-89087000D01*
X94477000Y-89087000D01*
X94477000Y-90280155D01*
X94706890Y-90401476D01*
X94854099Y-90356825D01*
X95116920Y-90231641D01*
X95350269Y-90057588D01*
X95426034Y-89973534D01*
X95450498Y-90054180D01*
X95509463Y-90164494D01*
X95588815Y-90261185D01*
X95685506Y-90340537D01*
X95795820Y-90399502D01*
X95915518Y-90435812D01*
X96040000Y-90448072D01*
X97740000Y-90448072D01*
X97864482Y-90435812D01*
X97984180Y-90399502D01*
X98094494Y-90340537D01*
X98191185Y-90261185D01*
X98270537Y-90164494D01*
X98329502Y-90054180D01*
X98365812Y-89934482D01*
X98378072Y-89810000D01*
X98378072Y-88349486D01*
X99946666Y-88524424D01*
M02*
