G04 #@! TF.GenerationSoftware,KiCad,Pcbnew,(5.1.5)-3*
G04 #@! TF.CreationDate,2020-06-24T07:37:59+02:00*
G04 #@! TF.ProjectId,Ring80,52696e67-3830-42e6-9b69-6361645f7063,V0.1*
G04 #@! TF.SameCoordinates,Original*
G04 #@! TF.FileFunction,Paste,Top*
G04 #@! TF.FilePolarity,Positive*
%FSLAX46Y46*%
G04 Gerber Fmt 4.6, Leading zero omitted, Abs format (unit mm)*
G04 Created by KiCad (PCBNEW (5.1.5)-3) date 2020-06-24 07:37:59*
%MOMM*%
%LPD*%
G04 APERTURE LIST*
%ADD10C,0.100000*%
%ADD11R,1.200000X0.450000*%
%ADD12R,1.200000X0.700000*%
%ADD13R,0.450000X1.200000*%
%ADD14R,0.700000X1.200000*%
%ADD15R,0.750000X0.800000*%
%ADD16R,0.800000X0.750000*%
G04 APERTURE END LIST*
D10*
G36*
X125479106Y-149317263D02*
G01*
X124872344Y-148876424D01*
X125342572Y-148229211D01*
X125949334Y-148670050D01*
X125479106Y-149317263D01*
G37*
G36*
X124597428Y-150530789D02*
G01*
X123990666Y-150089950D01*
X124460894Y-149442737D01*
X125067656Y-149883576D01*
X124597428Y-150530789D01*
G37*
G36*
X63612344Y-149903576D02*
G01*
X64219106Y-149462737D01*
X64689334Y-150109950D01*
X64082572Y-150550789D01*
X63612344Y-149903576D01*
G37*
G36*
X62730666Y-148690050D02*
G01*
X63337428Y-148249211D01*
X63807656Y-148896424D01*
X63200894Y-149337263D01*
X62730666Y-148690050D01*
G37*
G36*
X87843942Y-93564246D02*
G01*
X87300713Y-93650284D01*
X87238140Y-93255209D01*
X87015910Y-93290407D01*
X86929871Y-92747178D01*
X87152101Y-92711981D01*
X87112992Y-92465058D01*
X87656221Y-92379020D01*
X87843942Y-93564246D01*
G37*
G36*
X88337787Y-93486028D02*
G01*
X88150065Y-92300802D01*
X88841447Y-92191298D01*
X89029169Y-93376524D01*
X88337787Y-93486028D01*
G37*
G36*
X90781856Y-92137084D02*
G01*
X91004086Y-92101886D01*
X91090125Y-92645114D01*
X90867895Y-92680312D01*
X90930469Y-93075388D01*
X90387240Y-93161426D01*
X90199519Y-91976200D01*
X90742748Y-91890162D01*
X90781856Y-92137084D01*
G37*
G36*
X89473628Y-93306129D02*
G01*
X89285906Y-92120903D01*
X89730366Y-92050507D01*
X89918088Y-93235733D01*
X89473628Y-93306129D01*
G37*
G36*
X61721966Y-116181211D02*
G01*
X60580698Y-115810391D01*
X60719756Y-115382415D01*
X61861024Y-115753235D01*
X61721966Y-116181211D01*
G37*
G36*
X61274263Y-114484837D02*
G01*
X61343792Y-114270849D01*
X61866873Y-114440808D01*
X61797344Y-114654796D01*
X62177767Y-114778403D01*
X62007807Y-115301484D01*
X60866539Y-114930663D01*
X61036499Y-114407582D01*
X61274263Y-114484837D01*
G37*
G36*
X61366597Y-117274926D02*
G01*
X60225329Y-116904106D01*
X60441641Y-116238366D01*
X61582909Y-116609186D01*
X61366597Y-117274926D01*
G37*
G36*
X61212089Y-117750455D02*
G01*
X61042129Y-118273536D01*
X60661707Y-118149929D01*
X60592178Y-118363917D01*
X60069097Y-118193957D01*
X60138626Y-117979970D01*
X59900861Y-117902715D01*
X60070821Y-117379634D01*
X61212089Y-117750455D01*
G37*
G36*
X118906637Y-103215165D02*
G01*
X119755165Y-102366637D01*
X120073363Y-102684835D01*
X119224835Y-103533363D01*
X118906637Y-103215165D01*
G37*
G36*
X120621372Y-103586397D02*
G01*
X120780471Y-103745496D01*
X120391562Y-104134405D01*
X120232463Y-103975306D01*
X119949620Y-104258148D01*
X119560712Y-103869240D01*
X120409240Y-103020712D01*
X120798148Y-103409620D01*
X120621372Y-103586397D01*
G37*
G36*
X118093465Y-102401993D02*
G01*
X118941993Y-101553465D01*
X119436967Y-102048439D01*
X118588439Y-102896967D01*
X118093465Y-102401993D01*
G37*
G36*
X117739911Y-102048439D02*
G01*
X117351003Y-101659531D01*
X117633845Y-101376688D01*
X117474746Y-101217589D01*
X117863655Y-100828680D01*
X118022754Y-100987779D01*
X118199531Y-100811003D01*
X118588439Y-101199911D01*
X117739911Y-102048439D01*
G37*
G36*
X84199609Y-94509302D02*
G01*
X83828789Y-93368034D01*
X84256765Y-93228976D01*
X84627585Y-94370244D01*
X84199609Y-94509302D01*
G37*
G36*
X85308852Y-93149998D02*
G01*
X85522839Y-93080469D01*
X85692799Y-93603550D01*
X85478811Y-93673079D01*
X85602418Y-94053501D01*
X85079337Y-94223461D01*
X84708516Y-93082193D01*
X85231597Y-92912233D01*
X85308852Y-93149998D01*
G37*
G36*
X83105894Y-94864671D02*
G01*
X82735074Y-93723403D01*
X83400814Y-93507091D01*
X83771634Y-94648359D01*
X83105894Y-94864671D01*
G37*
G36*
X82630366Y-95019179D02*
G01*
X82107285Y-95189139D01*
X81983678Y-94808716D01*
X81769690Y-94878245D01*
X81599731Y-94355164D01*
X81813719Y-94285635D01*
X81736464Y-94047871D01*
X82259545Y-93877911D01*
X82630366Y-95019179D01*
G37*
G36*
X79171072Y-96501658D02*
G01*
X78626283Y-95432450D01*
X79027236Y-95228154D01*
X79572025Y-96297362D01*
X79171072Y-96501658D01*
G37*
G36*
X80054016Y-94985565D02*
G01*
X80254493Y-94883417D01*
X80504187Y-95373471D01*
X80303711Y-95475619D01*
X80485307Y-95832022D01*
X79995254Y-96081716D01*
X79450465Y-95012508D01*
X79940518Y-94762814D01*
X80054016Y-94985565D01*
G37*
G36*
X78146415Y-97023747D02*
G01*
X77601626Y-95954539D01*
X78225331Y-95636745D01*
X78770120Y-96705953D01*
X78146415Y-97023747D01*
G37*
G36*
X77700911Y-97250743D02*
G01*
X77210858Y-97500437D01*
X77029261Y-97144035D01*
X76828785Y-97246183D01*
X76579090Y-96756129D01*
X76779567Y-96653981D01*
X76666069Y-96431229D01*
X77156122Y-96181535D01*
X77700911Y-97250743D01*
G37*
G36*
X74339884Y-99325183D02*
G01*
X73634542Y-98354362D01*
X73998600Y-98089859D01*
X74703942Y-99060680D01*
X74339884Y-99325183D01*
G37*
G36*
X74974789Y-97689633D02*
G01*
X75156818Y-97557381D01*
X75480100Y-98002341D01*
X75298071Y-98134592D01*
X75533185Y-98458199D01*
X75088225Y-98781481D01*
X74382883Y-97810661D01*
X74827843Y-97487379D01*
X74974789Y-97689633D01*
G37*
G36*
X73409515Y-100001135D02*
G01*
X72704173Y-99030315D01*
X73270485Y-98618865D01*
X73975827Y-99589685D01*
X73409515Y-100001135D01*
G37*
G36*
X73005007Y-100295028D02*
G01*
X72560047Y-100618310D01*
X72324933Y-100294703D01*
X72142905Y-100426955D01*
X71819623Y-99981996D01*
X72001651Y-99849744D01*
X71854705Y-99647490D01*
X72299665Y-99324208D01*
X73005007Y-100295028D01*
G37*
G36*
X70174784Y-102843744D02*
G01*
X69326256Y-101995216D01*
X69644454Y-101677018D01*
X70492982Y-102525546D01*
X70174784Y-102843744D01*
G37*
G36*
X70546016Y-101129009D02*
G01*
X70705115Y-100969910D01*
X71094024Y-101358819D01*
X70934925Y-101517918D01*
X71217767Y-101800761D01*
X70828859Y-102189669D01*
X69980331Y-101341141D01*
X70369239Y-100952233D01*
X70546016Y-101129009D01*
G37*
G36*
X69361612Y-103656916D02*
G01*
X68513084Y-102808388D01*
X69008058Y-102313414D01*
X69856586Y-103161942D01*
X69361612Y-103656916D01*
G37*
G36*
X69008058Y-104010470D02*
G01*
X68619150Y-104399378D01*
X68336307Y-104116536D01*
X68177208Y-104275635D01*
X67788299Y-103886726D01*
X67947398Y-103727627D01*
X67770622Y-103550850D01*
X68159530Y-103161942D01*
X69008058Y-104010470D01*
G37*
G36*
X66685219Y-106798839D02*
G01*
X65714398Y-106093497D01*
X65978901Y-105729439D01*
X66949722Y-106434781D01*
X66685219Y-106798839D01*
G37*
G36*
X66783636Y-105047142D02*
G01*
X66915888Y-104865114D01*
X67360847Y-105188396D01*
X67228595Y-105370424D01*
X67552202Y-105605538D01*
X67228920Y-106050498D01*
X66258100Y-105345156D01*
X66581382Y-104900196D01*
X66783636Y-105047142D01*
G37*
G36*
X66009266Y-107729208D02*
G01*
X65038446Y-107023866D01*
X65449896Y-106457554D01*
X66420716Y-107162896D01*
X66009266Y-107729208D01*
G37*
G36*
X65715373Y-108133716D02*
G01*
X65392091Y-108578676D01*
X65068484Y-108343562D01*
X64936233Y-108525591D01*
X64491273Y-108202309D01*
X64623525Y-108020280D01*
X64421271Y-107873334D01*
X64744553Y-107428374D01*
X65715373Y-108133716D01*
G37*
G36*
X63837550Y-111243717D02*
G01*
X62768342Y-110698928D01*
X62972638Y-110297975D01*
X64041846Y-110842764D01*
X63837550Y-111243717D01*
G37*
G36*
X63660730Y-109498191D02*
G01*
X63762878Y-109297714D01*
X64252932Y-109547409D01*
X64150784Y-109747885D01*
X64507186Y-109929482D01*
X64257492Y-110419535D01*
X63188284Y-109874746D01*
X63437978Y-109384693D01*
X63660730Y-109498191D01*
G37*
G36*
X63315461Y-112268374D02*
G01*
X62246253Y-111723585D01*
X62564047Y-111099880D01*
X63633255Y-111644669D01*
X63315461Y-112268374D01*
G37*
G36*
X63088465Y-112713878D02*
G01*
X62838771Y-113203931D01*
X62482368Y-113022335D01*
X62380220Y-113222811D01*
X61890166Y-112973117D01*
X61992314Y-112772640D01*
X61769563Y-112659142D01*
X62019257Y-112169089D01*
X63088465Y-112713878D01*
G37*
G36*
X60339097Y-121534094D02*
G01*
X59153871Y-121346372D01*
X59224267Y-120901912D01*
X60409493Y-121089634D01*
X60339097Y-121534094D01*
G37*
G36*
X59631535Y-119928640D02*
G01*
X59666732Y-119706410D01*
X60209961Y-119792449D01*
X60174763Y-120014679D01*
X60569838Y-120077252D01*
X60483800Y-120620481D01*
X59298574Y-120432760D01*
X59384612Y-119889531D01*
X59631535Y-119928640D01*
G37*
G36*
X60159198Y-122669935D02*
G01*
X58973972Y-122482213D01*
X59083476Y-121790831D01*
X60268702Y-121978553D01*
X60159198Y-122669935D01*
G37*
G36*
X60080980Y-123163779D02*
G01*
X59994942Y-123707008D01*
X59599866Y-123644434D01*
X59564668Y-123866664D01*
X59021440Y-123780625D01*
X59056638Y-123558395D01*
X58809716Y-123519287D01*
X58895754Y-122976058D01*
X60080980Y-123163779D01*
G37*
D11*
X59210000Y-126950000D03*
D10*
G36*
X58860000Y-125700000D02*
G01*
X58860000Y-125475000D01*
X59410000Y-125475000D01*
X59410000Y-125700000D01*
X59810000Y-125700000D01*
X59810000Y-126250000D01*
X58610000Y-126250000D01*
X58610000Y-125700000D01*
X58860000Y-125700000D01*
G37*
D12*
X59210000Y-127975000D03*
D10*
G36*
X59810000Y-128825000D02*
G01*
X59810000Y-129375000D01*
X59410000Y-129375000D01*
X59410000Y-129600000D01*
X58860000Y-129600000D01*
X58860000Y-129375000D01*
X58610000Y-129375000D01*
X58610000Y-128825000D01*
X59810000Y-128825000D01*
G37*
G36*
X60206129Y-132426372D02*
G01*
X59020903Y-132614094D01*
X58950507Y-132169634D01*
X60135733Y-131981912D01*
X60206129Y-132426372D01*
G37*
G36*
X59037084Y-131118144D02*
G01*
X59001886Y-130895914D01*
X59545114Y-130809875D01*
X59580312Y-131032105D01*
X59975388Y-130969531D01*
X60061426Y-131512760D01*
X58876200Y-131700481D01*
X58790162Y-131157252D01*
X59037084Y-131118144D01*
G37*
G36*
X60386028Y-133562213D02*
G01*
X59200802Y-133749935D01*
X59091298Y-133058553D01*
X60276524Y-132870831D01*
X60386028Y-133562213D01*
G37*
G36*
X60464246Y-134056058D02*
G01*
X60550284Y-134599287D01*
X60155209Y-134661860D01*
X60190407Y-134884090D01*
X59647178Y-134970129D01*
X59611981Y-134747899D01*
X59365058Y-134787008D01*
X59279020Y-134243779D01*
X60464246Y-134056058D01*
G37*
G36*
X61309302Y-137490391D02*
G01*
X60168034Y-137861211D01*
X60028976Y-137433235D01*
X61170244Y-137062415D01*
X61309302Y-137490391D01*
G37*
G36*
X59949998Y-136381148D02*
G01*
X59880469Y-136167161D01*
X60403550Y-135997201D01*
X60473079Y-136211189D01*
X60853501Y-136087582D01*
X61023461Y-136610663D01*
X59882193Y-136981484D01*
X59712233Y-136458403D01*
X59949998Y-136381148D01*
G37*
G36*
X61664671Y-138584106D02*
G01*
X60523403Y-138954926D01*
X60307091Y-138289186D01*
X61448359Y-137918366D01*
X61664671Y-138584106D01*
G37*
G36*
X61819179Y-139059634D02*
G01*
X61989139Y-139582715D01*
X61608716Y-139706322D01*
X61678245Y-139920310D01*
X61155164Y-140090269D01*
X61085635Y-139876281D01*
X60847871Y-139953536D01*
X60677911Y-139430455D01*
X61819179Y-139059634D01*
G37*
G36*
X63271658Y-142548928D02*
G01*
X62202450Y-143093717D01*
X61998154Y-142692764D01*
X63067362Y-142147975D01*
X63271658Y-142548928D01*
G37*
G36*
X61755565Y-141665984D02*
G01*
X61653417Y-141465507D01*
X62143471Y-141215813D01*
X62245619Y-141416289D01*
X62602022Y-141234693D01*
X62851716Y-141724746D01*
X61782508Y-142269535D01*
X61532814Y-141779482D01*
X61755565Y-141665984D01*
G37*
G36*
X63793747Y-143573585D02*
G01*
X62724539Y-144118374D01*
X62406745Y-143494669D01*
X63475953Y-142949880D01*
X63793747Y-143573585D01*
G37*
G36*
X64020743Y-144019089D02*
G01*
X64270437Y-144509142D01*
X63914035Y-144690739D01*
X64016183Y-144891215D01*
X63526129Y-145140910D01*
X63423981Y-144940433D01*
X63201229Y-145053931D01*
X62951535Y-144563878D01*
X64020743Y-144019089D01*
G37*
G36*
X66037662Y-147239358D02*
G01*
X65066841Y-147944700D01*
X64802338Y-147580642D01*
X65773159Y-146875300D01*
X66037662Y-147239358D01*
G37*
G36*
X64402112Y-146604453D02*
G01*
X64269860Y-146422424D01*
X64714820Y-146099142D01*
X64847071Y-146281171D01*
X65170678Y-146046057D01*
X65493960Y-146491017D01*
X64523140Y-147196359D01*
X64199858Y-146751399D01*
X64402112Y-146604453D01*
G37*
G36*
X66713614Y-148169727D02*
G01*
X65742794Y-148875069D01*
X65331344Y-148308757D01*
X66302164Y-147603415D01*
X66713614Y-148169727D01*
G37*
G36*
X67007507Y-148574235D02*
G01*
X67330789Y-149019195D01*
X67007182Y-149254309D01*
X67139434Y-149436337D01*
X66694475Y-149759619D01*
X66562223Y-149577591D01*
X66359969Y-149724537D01*
X66036687Y-149279577D01*
X67007507Y-148574235D01*
G37*
G36*
X69683363Y-151664835D02*
G01*
X68834835Y-152513363D01*
X68516637Y-152195165D01*
X69365165Y-151346637D01*
X69683363Y-151664835D01*
G37*
G36*
X67968628Y-151293603D02*
G01*
X67809529Y-151134504D01*
X68198438Y-150745595D01*
X68357537Y-150904694D01*
X68640380Y-150621852D01*
X69029288Y-151010760D01*
X68180760Y-151859288D01*
X67791852Y-151470380D01*
X67968628Y-151293603D01*
G37*
G36*
X70496535Y-152478007D02*
G01*
X69648007Y-153326535D01*
X69153033Y-152831561D01*
X70001561Y-151983033D01*
X70496535Y-152478007D01*
G37*
G36*
X70850089Y-152831561D02*
G01*
X71238997Y-153220469D01*
X70956155Y-153503312D01*
X71115254Y-153662411D01*
X70726345Y-154051320D01*
X70567246Y-153892221D01*
X70390469Y-154068997D01*
X70001561Y-153680089D01*
X70850089Y-152831561D01*
G37*
G36*
X73758839Y-155224781D02*
G01*
X73053497Y-156195602D01*
X72689439Y-155931099D01*
X73394781Y-154960278D01*
X73758839Y-155224781D01*
G37*
G36*
X72007142Y-155126364D02*
G01*
X71825114Y-154994112D01*
X72148396Y-154549153D01*
X72330424Y-154681405D01*
X72565538Y-154357798D01*
X73010498Y-154681080D01*
X72305156Y-155651900D01*
X71860196Y-155328618D01*
X72007142Y-155126364D01*
G37*
G36*
X74689208Y-155900734D02*
G01*
X73983866Y-156871554D01*
X73417554Y-156460104D01*
X74122896Y-155489284D01*
X74689208Y-155900734D01*
G37*
G36*
X75093716Y-156194627D02*
G01*
X75538676Y-156517909D01*
X75303562Y-156841516D01*
X75485591Y-156973767D01*
X75162309Y-157418727D01*
X74980280Y-157286475D01*
X74833334Y-157488729D01*
X74388374Y-157165447D01*
X75093716Y-156194627D01*
G37*
G36*
X78213717Y-157972450D02*
G01*
X77668928Y-159041658D01*
X77267975Y-158837362D01*
X77812764Y-157768154D01*
X78213717Y-157972450D01*
G37*
G36*
X76468191Y-158149270D02*
G01*
X76267714Y-158047122D01*
X76517409Y-157557068D01*
X76717885Y-157659216D01*
X76899482Y-157302814D01*
X77389535Y-157552508D01*
X76844746Y-158621716D01*
X76354693Y-158372022D01*
X76468191Y-158149270D01*
G37*
G36*
X79238374Y-158494539D02*
G01*
X78693585Y-159563747D01*
X78069880Y-159245953D01*
X78614669Y-158176745D01*
X79238374Y-158494539D01*
G37*
G36*
X79683878Y-158721535D02*
G01*
X80173931Y-158971229D01*
X79992335Y-159327632D01*
X80192811Y-159429780D01*
X79943117Y-159919834D01*
X79742640Y-159817686D01*
X79629142Y-160040437D01*
X79139089Y-159790743D01*
X79683878Y-158721535D01*
G37*
G36*
X83061211Y-160088034D02*
G01*
X82690391Y-161229302D01*
X82262415Y-161090244D01*
X82633235Y-159948976D01*
X83061211Y-160088034D01*
G37*
G36*
X81364837Y-160535737D02*
G01*
X81150849Y-160466208D01*
X81320808Y-159943127D01*
X81534796Y-160012656D01*
X81658403Y-159632233D01*
X82181484Y-159802193D01*
X81810663Y-160943461D01*
X81287582Y-160773501D01*
X81364837Y-160535737D01*
G37*
G36*
X84154926Y-160443403D02*
G01*
X83784106Y-161584671D01*
X83118366Y-161368359D01*
X83489186Y-160227091D01*
X84154926Y-160443403D01*
G37*
G36*
X84630455Y-160597911D02*
G01*
X85153536Y-160767871D01*
X85029929Y-161148293D01*
X85243917Y-161217822D01*
X85073957Y-161740903D01*
X84859970Y-161671374D01*
X84782715Y-161909139D01*
X84259634Y-161739179D01*
X84630455Y-160597911D01*
G37*
G36*
X88374094Y-161470903D02*
G01*
X88186372Y-162656129D01*
X87741912Y-162585733D01*
X87929634Y-161400507D01*
X88374094Y-161470903D01*
G37*
G36*
X86768640Y-162178465D02*
G01*
X86546410Y-162143268D01*
X86632449Y-161600039D01*
X86854679Y-161635237D01*
X86917252Y-161240162D01*
X87460481Y-161326200D01*
X87272760Y-162511426D01*
X86729531Y-162425388D01*
X86768640Y-162178465D01*
G37*
G36*
X89509935Y-161650802D02*
G01*
X89322213Y-162836028D01*
X88630831Y-162726524D01*
X88818553Y-161541298D01*
X89509935Y-161650802D01*
G37*
G36*
X90003779Y-161729020D02*
G01*
X90547008Y-161815058D01*
X90484434Y-162210134D01*
X90706664Y-162245332D01*
X90620625Y-162788560D01*
X90398395Y-162753362D01*
X90359287Y-163000284D01*
X89816058Y-162914246D01*
X90003779Y-161729020D01*
G37*
D13*
X93698000Y-162516000D03*
D10*
G36*
X92448000Y-162866000D02*
G01*
X92223000Y-162866000D01*
X92223000Y-162316000D01*
X92448000Y-162316000D01*
X92448000Y-161916000D01*
X92998000Y-161916000D01*
X92998000Y-163116000D01*
X92448000Y-163116000D01*
X92448000Y-162866000D01*
G37*
D14*
X94723000Y-162516000D03*
D10*
G36*
X95573000Y-161916000D02*
G01*
X96123000Y-161916000D01*
X96123000Y-162316000D01*
X96348000Y-162316000D01*
X96348000Y-162866000D01*
X96123000Y-162866000D01*
X96123000Y-163116000D01*
X95573000Y-163116000D01*
X95573000Y-161916000D01*
G37*
G36*
X99308369Y-161662189D02*
G01*
X99496091Y-162847415D01*
X99051631Y-162917811D01*
X98863909Y-161732585D01*
X99308369Y-161662189D01*
G37*
G36*
X98000141Y-162831234D02*
G01*
X97777911Y-162866432D01*
X97691872Y-162323204D01*
X97914102Y-162288006D01*
X97851528Y-161892930D01*
X98394757Y-161806892D01*
X98582478Y-162992118D01*
X98039249Y-163078156D01*
X98000141Y-162831234D01*
G37*
G36*
X100444210Y-161482290D02*
G01*
X100631932Y-162667516D01*
X99940550Y-162777020D01*
X99752828Y-161591794D01*
X100444210Y-161482290D01*
G37*
G36*
X100938055Y-161404072D02*
G01*
X101481284Y-161318034D01*
X101543857Y-161713109D01*
X101766087Y-161677911D01*
X101852126Y-162221140D01*
X101629896Y-162256337D01*
X101669005Y-162503260D01*
X101125776Y-162589298D01*
X100938055Y-161404072D01*
G37*
G36*
X104658578Y-160399837D02*
G01*
X105029398Y-161541105D01*
X104601422Y-161680163D01*
X104230602Y-160538895D01*
X104658578Y-160399837D01*
G37*
G36*
X103549335Y-161759141D02*
G01*
X103335348Y-161828670D01*
X103165388Y-161305589D01*
X103379376Y-161236060D01*
X103255769Y-160855638D01*
X103778850Y-160685678D01*
X104149671Y-161826946D01*
X103626590Y-161996906D01*
X103549335Y-161759141D01*
G37*
G36*
X105752293Y-160044468D02*
G01*
X106123113Y-161185736D01*
X105457373Y-161402048D01*
X105086553Y-160260780D01*
X105752293Y-160044468D01*
G37*
G36*
X106227821Y-159889960D02*
G01*
X106750902Y-159720000D01*
X106874509Y-160100423D01*
X107088497Y-160030894D01*
X107258456Y-160553975D01*
X107044468Y-160623504D01*
X107121723Y-160861268D01*
X106598642Y-161031228D01*
X106227821Y-159889960D01*
G37*
G36*
X109608928Y-158448342D02*
G01*
X110153717Y-159517550D01*
X109752764Y-159721846D01*
X109207975Y-158652638D01*
X109608928Y-158448342D01*
G37*
G36*
X108725984Y-159964435D02*
G01*
X108525507Y-160066583D01*
X108275813Y-159576529D01*
X108476289Y-159474381D01*
X108294693Y-159117978D01*
X108784746Y-158868284D01*
X109329535Y-159937492D01*
X108839482Y-160187186D01*
X108725984Y-159964435D01*
G37*
G36*
X110633585Y-157926253D02*
G01*
X111178374Y-158995461D01*
X110554669Y-159313255D01*
X110009880Y-158244047D01*
X110633585Y-157926253D01*
G37*
G36*
X111079089Y-157699257D02*
G01*
X111569142Y-157449563D01*
X111750739Y-157805965D01*
X111951215Y-157703817D01*
X112200910Y-158193871D01*
X112000433Y-158296019D01*
X112113931Y-158518771D01*
X111623878Y-158768465D01*
X111079089Y-157699257D01*
G37*
G36*
X114353497Y-155594398D02*
G01*
X115058839Y-156565219D01*
X114694781Y-156829722D01*
X113989439Y-155858901D01*
X114353497Y-155594398D01*
G37*
G36*
X113718592Y-157229948D02*
G01*
X113536563Y-157362200D01*
X113213281Y-156917240D01*
X113395310Y-156784989D01*
X113160196Y-156461382D01*
X113605156Y-156138100D01*
X114310498Y-157108920D01*
X113865538Y-157432202D01*
X113718592Y-157229948D01*
G37*
G36*
X115283866Y-154918446D02*
G01*
X115989208Y-155889266D01*
X115422896Y-156300716D01*
X114717554Y-155329896D01*
X115283866Y-154918446D01*
G37*
G36*
X115688374Y-154624553D02*
G01*
X116133334Y-154301271D01*
X116368448Y-154624878D01*
X116550476Y-154492626D01*
X116873758Y-154937585D01*
X116691730Y-155069837D01*
X116838676Y-155272091D01*
X116393716Y-155595373D01*
X115688374Y-154624553D01*
G37*
G36*
X118574835Y-152066637D02*
G01*
X119423363Y-152915165D01*
X119105165Y-153233363D01*
X118256637Y-152384835D01*
X118574835Y-152066637D01*
G37*
G36*
X118203603Y-153781372D02*
G01*
X118044504Y-153940471D01*
X117655595Y-153551562D01*
X117814694Y-153392463D01*
X117531852Y-153109620D01*
X117920760Y-152720712D01*
X118769288Y-153569240D01*
X118380380Y-153958148D01*
X118203603Y-153781372D01*
G37*
G36*
X119388007Y-151253465D02*
G01*
X120236535Y-152101993D01*
X119741561Y-152596967D01*
X118893033Y-151748439D01*
X119388007Y-151253465D01*
G37*
G36*
X119741561Y-150899911D02*
G01*
X120130469Y-150511003D01*
X120413312Y-150793845D01*
X120572411Y-150634746D01*
X120961320Y-151023655D01*
X120802221Y-151182754D01*
X120978997Y-151359531D01*
X120590089Y-151748439D01*
X119741561Y-150899911D01*
G37*
G36*
X122064781Y-148151161D02*
G01*
X123035602Y-148856503D01*
X122771099Y-149220561D01*
X121800278Y-148515219D01*
X122064781Y-148151161D01*
G37*
G36*
X121966364Y-149902858D02*
G01*
X121834112Y-150084886D01*
X121389153Y-149761604D01*
X121521405Y-149579576D01*
X121197798Y-149344462D01*
X121521080Y-148899502D01*
X122491900Y-149604844D01*
X122168618Y-150049804D01*
X121966364Y-149902858D01*
G37*
G36*
X122740734Y-147220792D02*
G01*
X123711554Y-147926134D01*
X123300104Y-148492446D01*
X122329284Y-147787104D01*
X122740734Y-147220792D01*
G37*
G36*
X123034627Y-146816284D02*
G01*
X123357909Y-146371324D01*
X123681516Y-146606438D01*
X123813767Y-146424409D01*
X124258727Y-146747691D01*
X124126475Y-146929720D01*
X124328729Y-147076666D01*
X124005447Y-147521626D01*
X123034627Y-146816284D01*
G37*
G36*
X124902450Y-143586283D02*
G01*
X125971658Y-144131072D01*
X125767362Y-144532025D01*
X124698154Y-143987236D01*
X124902450Y-143586283D01*
G37*
G36*
X125079270Y-145331809D02*
G01*
X124977122Y-145532286D01*
X124487068Y-145282591D01*
X124589216Y-145082115D01*
X124232814Y-144900518D01*
X124482508Y-144410465D01*
X125551716Y-144955254D01*
X125302022Y-145445307D01*
X125079270Y-145331809D01*
G37*
G36*
X125424539Y-142561626D02*
G01*
X126493747Y-143106415D01*
X126175953Y-143730120D01*
X125106745Y-143185331D01*
X125424539Y-142561626D01*
G37*
G36*
X125651535Y-142116122D02*
G01*
X125901229Y-141626069D01*
X126257632Y-141807665D01*
X126359780Y-141607189D01*
X126849834Y-141856883D01*
X126747686Y-142057360D01*
X126970437Y-142170858D01*
X126720743Y-142660911D01*
X125651535Y-142116122D01*
G37*
G36*
X127058895Y-138460602D02*
G01*
X128200163Y-138831422D01*
X128061105Y-139259398D01*
X126919837Y-138888578D01*
X127058895Y-138460602D01*
G37*
G36*
X127506598Y-140156976D02*
G01*
X127437069Y-140370964D01*
X126913988Y-140201005D01*
X126983517Y-139987017D01*
X126603094Y-139863410D01*
X126773054Y-139340329D01*
X127914322Y-139711150D01*
X127744362Y-140234231D01*
X127506598Y-140156976D01*
G37*
G36*
X127414264Y-137366887D02*
G01*
X128555532Y-137737707D01*
X128339220Y-138403447D01*
X127197952Y-138032627D01*
X127414264Y-137366887D01*
G37*
G36*
X127568772Y-136891358D02*
G01*
X127738732Y-136368277D01*
X128119154Y-136491884D01*
X128188683Y-136277896D01*
X128711764Y-136447856D01*
X128642235Y-136661843D01*
X128880000Y-136739098D01*
X128710040Y-137262179D01*
X127568772Y-136891358D01*
G37*
G36*
X128400903Y-133135906D02*
G01*
X129586129Y-133323628D01*
X129515733Y-133768088D01*
X128330507Y-133580366D01*
X128400903Y-133135906D01*
G37*
G36*
X129108465Y-134741360D02*
G01*
X129073268Y-134963590D01*
X128530039Y-134877551D01*
X128565237Y-134655321D01*
X128170162Y-134592748D01*
X128256200Y-134049519D01*
X129441426Y-134237240D01*
X129355388Y-134780469D01*
X129108465Y-134741360D01*
G37*
G36*
X128580802Y-132000065D02*
G01*
X129766028Y-132187787D01*
X129656524Y-132879169D01*
X128471298Y-132691447D01*
X128580802Y-132000065D01*
G37*
G36*
X128659020Y-131506221D02*
G01*
X128745058Y-130962992D01*
X129140134Y-131025566D01*
X129175332Y-130803336D01*
X129718560Y-130889375D01*
X129683362Y-131111605D01*
X129930284Y-131150713D01*
X129844246Y-131693942D01*
X128659020Y-131506221D01*
G37*
D11*
X129450000Y-127960000D03*
D10*
G36*
X129800000Y-129210000D02*
G01*
X129800000Y-129435000D01*
X129250000Y-129435000D01*
X129250000Y-129210000D01*
X128850000Y-129210000D01*
X128850000Y-128660000D01*
X130050000Y-128660000D01*
X130050000Y-129210000D01*
X129800000Y-129210000D01*
G37*
D12*
X129450000Y-126935000D03*
D10*
G36*
X128850000Y-126085000D02*
G01*
X128850000Y-125535000D01*
X129250000Y-125535000D01*
X129250000Y-125310000D01*
X129800000Y-125310000D01*
X129800000Y-125535000D01*
X130050000Y-125535000D01*
X130050000Y-126085000D01*
X128850000Y-126085000D01*
G37*
G36*
X128453871Y-122383628D02*
G01*
X129639097Y-122195906D01*
X129709493Y-122640366D01*
X128524267Y-122828088D01*
X128453871Y-122383628D01*
G37*
G36*
X129622916Y-123691856D02*
G01*
X129658114Y-123914086D01*
X129114886Y-124000125D01*
X129079688Y-123777895D01*
X128684612Y-123840469D01*
X128598574Y-123297240D01*
X129783800Y-123109519D01*
X129869838Y-123652748D01*
X129622916Y-123691856D01*
G37*
G36*
X128273972Y-121247787D02*
G01*
X129459198Y-121060065D01*
X129568702Y-121751447D01*
X128383476Y-121939169D01*
X128273972Y-121247787D01*
G37*
G36*
X128195754Y-120753942D02*
G01*
X128109716Y-120210713D01*
X128504791Y-120148140D01*
X128469593Y-119925910D01*
X129012822Y-119839871D01*
X129048019Y-120062101D01*
X129294942Y-120022992D01*
X129380980Y-120566221D01*
X128195754Y-120753942D01*
G37*
G36*
X127199837Y-117001422D02*
G01*
X128341105Y-116630602D01*
X128480163Y-117058578D01*
X127338895Y-117429398D01*
X127199837Y-117001422D01*
G37*
G36*
X128559141Y-118110665D02*
G01*
X128628670Y-118324652D01*
X128105589Y-118494612D01*
X128036060Y-118280624D01*
X127655638Y-118404231D01*
X127485678Y-117881150D01*
X128626946Y-117510329D01*
X128796906Y-118033410D01*
X128559141Y-118110665D01*
G37*
G36*
X126844468Y-115907707D02*
G01*
X127985736Y-115536887D01*
X128202048Y-116202627D01*
X127060780Y-116573447D01*
X126844468Y-115907707D01*
G37*
G36*
X126689960Y-115432179D02*
G01*
X126520000Y-114909098D01*
X126900423Y-114785491D01*
X126830894Y-114571503D01*
X127353975Y-114401544D01*
X127423504Y-114615532D01*
X127661268Y-114538277D01*
X127831228Y-115061358D01*
X126689960Y-115432179D01*
G37*
G36*
X125163248Y-111951918D02*
G01*
X126232456Y-111407129D01*
X126436752Y-111808082D01*
X125367544Y-112352871D01*
X125163248Y-111951918D01*
G37*
G36*
X126679341Y-112834862D02*
G01*
X126781489Y-113035339D01*
X126291435Y-113285033D01*
X126189287Y-113084557D01*
X125832884Y-113266153D01*
X125583190Y-112776100D01*
X126652398Y-112231311D01*
X126902092Y-112721364D01*
X126679341Y-112834862D01*
G37*
G36*
X124641159Y-110927261D02*
G01*
X125710367Y-110382472D01*
X126028161Y-111006177D01*
X124958953Y-111550966D01*
X124641159Y-110927261D01*
G37*
G36*
X124414163Y-110481757D02*
G01*
X124164469Y-109991704D01*
X124520871Y-109810107D01*
X124418723Y-109609631D01*
X124908777Y-109359936D01*
X125010925Y-109560413D01*
X125233677Y-109446915D01*
X125483371Y-109936968D01*
X124414163Y-110481757D01*
G37*
G36*
X122382338Y-107410642D02*
G01*
X123353159Y-106705300D01*
X123617662Y-107069358D01*
X122646841Y-107774700D01*
X122382338Y-107410642D01*
G37*
G36*
X124017888Y-108045547D02*
G01*
X124150140Y-108227576D01*
X123705180Y-108550858D01*
X123572929Y-108368829D01*
X123249322Y-108603943D01*
X122926040Y-108158983D01*
X123896860Y-107453641D01*
X124220142Y-107898601D01*
X124017888Y-108045547D01*
G37*
G36*
X121706386Y-106480273D02*
G01*
X122677206Y-105774931D01*
X123088656Y-106341243D01*
X122117836Y-107046585D01*
X121706386Y-106480273D01*
G37*
G36*
X121412493Y-106075765D02*
G01*
X121089211Y-105630805D01*
X121412818Y-105395691D01*
X121280566Y-105213663D01*
X121725525Y-104890381D01*
X121857777Y-105072409D01*
X122060031Y-104925463D01*
X122383313Y-105370423D01*
X121412493Y-106075765D01*
G37*
G36*
X114975300Y-99773159D02*
G01*
X115680642Y-98802338D01*
X116044700Y-99066841D01*
X115339358Y-100037662D01*
X114975300Y-99773159D01*
G37*
G36*
X116726997Y-99871576D02*
G01*
X116909025Y-100003828D01*
X116585743Y-100448787D01*
X116403715Y-100316535D01*
X116168601Y-100640142D01*
X115723641Y-100316860D01*
X116428983Y-99346040D01*
X116873943Y-99669322D01*
X116726997Y-99871576D01*
G37*
G36*
X114044931Y-99097206D02*
G01*
X114750273Y-98126386D01*
X115316585Y-98537836D01*
X114611243Y-99508656D01*
X114044931Y-99097206D01*
G37*
G36*
X113640423Y-98803313D02*
G01*
X113195463Y-98480031D01*
X113430577Y-98156424D01*
X113248548Y-98024173D01*
X113571830Y-97579213D01*
X113753859Y-97711465D01*
X113900805Y-97509211D01*
X114345765Y-97832493D01*
X113640423Y-98803313D01*
G37*
G36*
X110386283Y-96897550D02*
G01*
X110931072Y-95828342D01*
X111332025Y-96032638D01*
X110787236Y-97101846D01*
X110386283Y-96897550D01*
G37*
G36*
X112131809Y-96720730D02*
G01*
X112332286Y-96822878D01*
X112082591Y-97312932D01*
X111882115Y-97210784D01*
X111700518Y-97567186D01*
X111210465Y-97317492D01*
X111755254Y-96248284D01*
X112245307Y-96497978D01*
X112131809Y-96720730D01*
G37*
G36*
X109361626Y-96375461D02*
G01*
X109906415Y-95306253D01*
X110530120Y-95624047D01*
X109985331Y-96693255D01*
X109361626Y-96375461D01*
G37*
G36*
X108916122Y-96148465D02*
G01*
X108426069Y-95898771D01*
X108607665Y-95542368D01*
X108407189Y-95440220D01*
X108656883Y-94950166D01*
X108857360Y-95052314D01*
X108970858Y-94829563D01*
X109460911Y-95079257D01*
X108916122Y-96148465D01*
G37*
G36*
X105268789Y-94741966D02*
G01*
X105639609Y-93600698D01*
X106067585Y-93739756D01*
X105696765Y-94881024D01*
X105268789Y-94741966D01*
G37*
G36*
X106965163Y-94294263D02*
G01*
X107179151Y-94363792D01*
X107009192Y-94886873D01*
X106795204Y-94817344D01*
X106671597Y-95197767D01*
X106148516Y-95027807D01*
X106519337Y-93886539D01*
X107042418Y-94056499D01*
X106965163Y-94294263D01*
G37*
G36*
X104175074Y-94386597D02*
G01*
X104545894Y-93245329D01*
X105211634Y-93461641D01*
X104840814Y-94602909D01*
X104175074Y-94386597D01*
G37*
G36*
X103699545Y-94232089D02*
G01*
X103176464Y-94062129D01*
X103300071Y-93681707D01*
X103086083Y-93612178D01*
X103256043Y-93089097D01*
X103470030Y-93158626D01*
X103547285Y-92920861D01*
X104070366Y-93090821D01*
X103699545Y-94232089D01*
G37*
G36*
X88005646Y-89944369D02*
G01*
X88122972Y-90685135D01*
X87332822Y-90810283D01*
X87215496Y-90069517D01*
X88005646Y-89944369D01*
G37*
G36*
X89487178Y-89709717D02*
G01*
X89604504Y-90450483D01*
X88814354Y-90575631D01*
X88697028Y-89834865D01*
X89487178Y-89709717D01*
G37*
G36*
X82651249Y-91251510D02*
G01*
X82883012Y-91964802D01*
X82122167Y-92212016D01*
X81890404Y-91498724D01*
X82651249Y-91251510D01*
G37*
G36*
X84077833Y-90787984D02*
G01*
X84309596Y-91501276D01*
X83548751Y-91748490D01*
X83316988Y-91035198D01*
X84077833Y-90787984D01*
G37*
G36*
X77077901Y-93604769D02*
G01*
X77418394Y-94273024D01*
X76705589Y-94636217D01*
X76365096Y-93967962D01*
X77077901Y-93604769D01*
G37*
G36*
X78414411Y-92923783D02*
G01*
X78754904Y-93592038D01*
X78042099Y-93955231D01*
X77701606Y-93286976D01*
X78414411Y-92923783D01*
G37*
G36*
X71806424Y-96812344D02*
G01*
X72247263Y-97419106D01*
X71600050Y-97889334D01*
X71159211Y-97282572D01*
X71806424Y-96812344D01*
G37*
G36*
X73019950Y-95930666D02*
G01*
X73460789Y-96537428D01*
X72813576Y-97007656D01*
X72372737Y-96400894D01*
X73019950Y-95930666D01*
G37*
G36*
X67407348Y-100612322D02*
G01*
X67937678Y-101142652D01*
X67371992Y-101708338D01*
X66841662Y-101178008D01*
X67407348Y-100612322D01*
G37*
G36*
X68468008Y-99551662D02*
G01*
X68998338Y-100081992D01*
X68432652Y-100647678D01*
X67902322Y-100117348D01*
X68468008Y-99551662D01*
G37*
G36*
X63670894Y-104972737D02*
G01*
X64277656Y-105413576D01*
X63807428Y-106060789D01*
X63200666Y-105619950D01*
X63670894Y-104972737D01*
G37*
G36*
X64552572Y-103759211D02*
G01*
X65159334Y-104200050D01*
X64689106Y-104847263D01*
X64082344Y-104406424D01*
X64552572Y-103759211D01*
G37*
G36*
X60556976Y-109921606D02*
G01*
X61225231Y-110262099D01*
X60862038Y-110974904D01*
X60193783Y-110634411D01*
X60556976Y-109921606D01*
G37*
G36*
X61237962Y-108585096D02*
G01*
X61906217Y-108925589D01*
X61543024Y-109638394D01*
X60874769Y-109297901D01*
X61237962Y-108585096D01*
G37*
G36*
X58285198Y-115366988D02*
G01*
X58998490Y-115598751D01*
X58751276Y-116359596D01*
X58037984Y-116127833D01*
X58285198Y-115366988D01*
G37*
G36*
X58748724Y-113940404D02*
G01*
X59462016Y-114172167D01*
X59214802Y-114933012D01*
X58501510Y-114701249D01*
X58748724Y-113940404D01*
G37*
G36*
X56794865Y-121257028D02*
G01*
X57535631Y-121374354D01*
X57410483Y-122164504D01*
X56669717Y-122047178D01*
X56794865Y-121257028D01*
G37*
G36*
X57029517Y-119775496D02*
G01*
X57770283Y-119892822D01*
X57645135Y-120682972D01*
X56904369Y-120565646D01*
X57029517Y-119775496D01*
G37*
D15*
X56700000Y-127810000D03*
X56700000Y-126310000D03*
D10*
G36*
X56764369Y-133364354D02*
G01*
X57505135Y-133247028D01*
X57630283Y-134037178D01*
X56889517Y-134154504D01*
X56764369Y-133364354D01*
G37*
G36*
X56529717Y-131882822D02*
G01*
X57270483Y-131765496D01*
X57395631Y-132555646D01*
X56654865Y-132672972D01*
X56529717Y-131882822D01*
G37*
G36*
X58111510Y-139118751D02*
G01*
X58824802Y-138886988D01*
X59072016Y-139647833D01*
X58358724Y-139879596D01*
X58111510Y-139118751D01*
G37*
G36*
X57647984Y-137692167D02*
G01*
X58361276Y-137460404D01*
X58608490Y-138221249D01*
X57895198Y-138453012D01*
X57647984Y-137692167D01*
G37*
G36*
X60404769Y-144612099D02*
G01*
X61073024Y-144271606D01*
X61436217Y-144984411D01*
X60767962Y-145324904D01*
X60404769Y-144612099D01*
G37*
G36*
X59723783Y-143275589D02*
G01*
X60392038Y-142935096D01*
X60755231Y-143647901D01*
X60086976Y-143988394D01*
X59723783Y-143275589D01*
G37*
G36*
X67691992Y-154612322D02*
G01*
X68222322Y-154081992D01*
X68788008Y-154647678D01*
X68257678Y-155178008D01*
X67691992Y-154612322D01*
G37*
G36*
X66631332Y-153551662D02*
G01*
X67161662Y-153021332D01*
X67727348Y-153587018D01*
X67197018Y-154117348D01*
X66631332Y-153551662D01*
G37*
G36*
X72152737Y-158309106D02*
G01*
X72593576Y-157702344D01*
X73240789Y-158172572D01*
X72799950Y-158779334D01*
X72152737Y-158309106D01*
G37*
G36*
X70939211Y-157427428D02*
G01*
X71380050Y-156820666D01*
X72027263Y-157290894D01*
X71586424Y-157897656D01*
X70939211Y-157427428D01*
G37*
G36*
X77163351Y-161392531D02*
G01*
X77503844Y-160724276D01*
X78216649Y-161087469D01*
X77876156Y-161755724D01*
X77163351Y-161392531D01*
G37*
G36*
X75826841Y-160711545D02*
G01*
X76167334Y-160043290D01*
X76880139Y-160406483D01*
X76539646Y-161074738D01*
X75826841Y-160711545D01*
G37*
G36*
X82586988Y-163634802D02*
G01*
X82818751Y-162921510D01*
X83579596Y-163168724D01*
X83347833Y-163882016D01*
X82586988Y-163634802D01*
G37*
G36*
X81160404Y-163171276D02*
G01*
X81392167Y-162457984D01*
X82153012Y-162705198D01*
X81921249Y-163418490D01*
X81160404Y-163171276D01*
G37*
G36*
X88097028Y-164965135D02*
G01*
X88214354Y-164224369D01*
X89004504Y-164349517D01*
X88887178Y-165090283D01*
X88097028Y-164965135D01*
G37*
G36*
X86615496Y-164730483D02*
G01*
X86732822Y-163989717D01*
X87522972Y-164114865D01*
X87405646Y-164855631D01*
X86615496Y-164730483D01*
G37*
D16*
X95470000Y-164130000D03*
X93970000Y-164130000D03*
D10*
G36*
X100734354Y-164985631D02*
G01*
X100617028Y-164244865D01*
X101407178Y-164119717D01*
X101524504Y-164860483D01*
X100734354Y-164985631D01*
G37*
G36*
X99252822Y-165220283D02*
G01*
X99135496Y-164479517D01*
X99925646Y-164354369D01*
X100042972Y-165095135D01*
X99252822Y-165220283D01*
G37*
G36*
X106318751Y-163568490D02*
G01*
X106086988Y-162855198D01*
X106847833Y-162607984D01*
X107079596Y-163321276D01*
X106318751Y-163568490D01*
G37*
G36*
X104892167Y-164032016D02*
G01*
X104660404Y-163318724D01*
X105421249Y-163071510D01*
X105653012Y-163784802D01*
X104892167Y-164032016D01*
G37*
G36*
X111812099Y-161225231D02*
G01*
X111471606Y-160556976D01*
X112184411Y-160193783D01*
X112524904Y-160862038D01*
X111812099Y-161225231D01*
G37*
G36*
X110475589Y-161906217D02*
G01*
X110135096Y-161237962D01*
X110847901Y-160874769D01*
X111188394Y-161543024D01*
X110475589Y-161906217D01*
G37*
G36*
X116973576Y-158017656D02*
G01*
X116532737Y-157410894D01*
X117179950Y-156940666D01*
X117620789Y-157547428D01*
X116973576Y-158017656D01*
G37*
G36*
X115760050Y-158899334D02*
G01*
X115319211Y-158292572D01*
X115966424Y-157822344D01*
X116407263Y-158429106D01*
X115760050Y-158899334D01*
G37*
G36*
X121542322Y-154028008D02*
G01*
X121011992Y-153497678D01*
X121577678Y-152931992D01*
X122108008Y-153462322D01*
X121542322Y-154028008D01*
G37*
G36*
X120481662Y-155088668D02*
G01*
X119951332Y-154558338D01*
X120517018Y-153992652D01*
X121047348Y-154522982D01*
X120481662Y-155088668D01*
G37*
G36*
X128353024Y-144488394D02*
G01*
X127684769Y-144147901D01*
X128047962Y-143435096D01*
X128716217Y-143775589D01*
X128353024Y-144488394D01*
G37*
G36*
X127672038Y-145824904D02*
G01*
X127003783Y-145484411D01*
X127366976Y-144771606D01*
X128035231Y-145112099D01*
X127672038Y-145824904D01*
G37*
G36*
X130626565Y-139009720D02*
G01*
X129913273Y-138777957D01*
X130160487Y-138017112D01*
X130873779Y-138248875D01*
X130626565Y-139009720D01*
G37*
G36*
X130163039Y-140436304D02*
G01*
X129449747Y-140204541D01*
X129696961Y-139443696D01*
X130410253Y-139675459D01*
X130163039Y-140436304D01*
G37*
G36*
X132055135Y-132732972D02*
G01*
X131314369Y-132615646D01*
X131439517Y-131825496D01*
X132180283Y-131942822D01*
X132055135Y-132732972D01*
G37*
G36*
X131820483Y-134214504D02*
G01*
X131079717Y-134097178D01*
X131204865Y-133307028D01*
X131945631Y-133424354D01*
X131820483Y-134214504D01*
G37*
D15*
X132010000Y-126410000D03*
X132010000Y-127910000D03*
D10*
G36*
X131845631Y-121095646D02*
G01*
X131104865Y-121212972D01*
X130979717Y-120422822D01*
X131720483Y-120305496D01*
X131845631Y-121095646D01*
G37*
G36*
X132080283Y-122577178D02*
G01*
X131339517Y-122694504D01*
X131214369Y-121904354D01*
X131955135Y-121787028D01*
X132080283Y-122577178D01*
G37*
G36*
X130348490Y-115211249D02*
G01*
X129635198Y-115443012D01*
X129387984Y-114682167D01*
X130101276Y-114450404D01*
X130348490Y-115211249D01*
G37*
G36*
X130812016Y-116637833D02*
G01*
X130098724Y-116869596D01*
X129851510Y-116108751D01*
X130564802Y-115876988D01*
X130812016Y-116637833D01*
G37*
G36*
X128005231Y-109757901D02*
G01*
X127336976Y-110098394D01*
X126973783Y-109385589D01*
X127642038Y-109045096D01*
X128005231Y-109757901D01*
G37*
G36*
X128686217Y-111094411D02*
G01*
X128017962Y-111434904D01*
X127654769Y-110722099D01*
X128323024Y-110381606D01*
X128686217Y-111094411D01*
G37*
G36*
X124787656Y-104706424D02*
G01*
X124180894Y-105147263D01*
X123710666Y-104500050D01*
X124317428Y-104059211D01*
X124787656Y-104706424D01*
G37*
G36*
X125669334Y-105919950D02*
G01*
X125062572Y-106360789D01*
X124592344Y-105713576D01*
X125199106Y-105272737D01*
X125669334Y-105919950D01*
G37*
G36*
X121017678Y-100437348D02*
G01*
X120487348Y-100967678D01*
X119921662Y-100401992D01*
X120451992Y-99871662D01*
X121017678Y-100437348D01*
G37*
G36*
X122078338Y-101498008D02*
G01*
X121548008Y-102028338D01*
X120982322Y-101462652D01*
X121512652Y-100932322D01*
X122078338Y-101498008D01*
G37*
G36*
X116497263Y-96680894D02*
G01*
X116056424Y-97287656D01*
X115409211Y-96817428D01*
X115850050Y-96210666D01*
X116497263Y-96680894D01*
G37*
G36*
X117710789Y-97562572D02*
G01*
X117269950Y-98169334D01*
X116622737Y-97699106D01*
X117063576Y-97092344D01*
X117710789Y-97562572D01*
G37*
G36*
X111328394Y-93486976D02*
G01*
X110987901Y-94155231D01*
X110275096Y-93792038D01*
X110615589Y-93123783D01*
X111328394Y-93486976D01*
G37*
G36*
X112664904Y-94167962D02*
G01*
X112324411Y-94836217D01*
X111611606Y-94473024D01*
X111952099Y-93804769D01*
X112664904Y-94167962D01*
G37*
G36*
X105763012Y-91265198D02*
G01*
X105531249Y-91978490D01*
X104770404Y-91731276D01*
X105002167Y-91017984D01*
X105763012Y-91265198D01*
G37*
G36*
X107189596Y-91728724D02*
G01*
X106957833Y-92442016D01*
X106196988Y-92194802D01*
X106428751Y-91481510D01*
X107189596Y-91728724D01*
G37*
G36*
X100015906Y-93429097D02*
G01*
X100203628Y-92243871D01*
X100648088Y-92314267D01*
X100460366Y-93499493D01*
X100015906Y-93429097D01*
G37*
G36*
X101621360Y-92721535D02*
G01*
X101843590Y-92756732D01*
X101757551Y-93299961D01*
X101535321Y-93264763D01*
X101472748Y-93659838D01*
X100929519Y-93573800D01*
X101117240Y-92388574D01*
X101660469Y-92474612D01*
X101621360Y-92721535D01*
G37*
G36*
X98880065Y-93249198D02*
G01*
X99067787Y-92063972D01*
X99759169Y-92173476D01*
X99571447Y-93358702D01*
X98880065Y-93249198D01*
G37*
G36*
X98386221Y-93170980D02*
G01*
X97842992Y-93084942D01*
X97905566Y-92689866D01*
X97683336Y-92654668D01*
X97769375Y-92111440D01*
X97991605Y-92146638D01*
X98030713Y-91899716D01*
X98573942Y-91985754D01*
X98386221Y-93170980D01*
G37*
D13*
X94930000Y-92390000D03*
D10*
G36*
X96180000Y-92040000D02*
G01*
X96405000Y-92040000D01*
X96405000Y-92590000D01*
X96180000Y-92590000D01*
X96180000Y-92990000D01*
X95630000Y-92990000D01*
X95630000Y-91790000D01*
X96180000Y-91790000D01*
X96180000Y-92040000D01*
G37*
D14*
X93905000Y-92390000D03*
D10*
G36*
X93055000Y-92990000D02*
G01*
X92505000Y-92990000D01*
X92505000Y-92590000D01*
X92280000Y-92590000D01*
X92280000Y-92040000D01*
X92505000Y-92040000D01*
X92505000Y-91790000D01*
X93055000Y-91790000D01*
X93055000Y-92990000D01*
G37*
G36*
X100092972Y-89924865D02*
G01*
X99975646Y-90665631D01*
X99185496Y-90540483D01*
X99302822Y-89799717D01*
X100092972Y-89924865D01*
G37*
G36*
X101574504Y-90159517D02*
G01*
X101457178Y-90900283D01*
X100667028Y-90775135D01*
X100784354Y-90034369D01*
X101574504Y-90159517D01*
G37*
D16*
X92740000Y-90830000D03*
X94240000Y-90830000D03*
M02*
