G04 #@! TF.GenerationSoftware,KiCad,Pcbnew,(5.1.5)-3*
G04 #@! TF.CreationDate,2020-06-24T07:37:59+02:00*
G04 #@! TF.ProjectId,Ring80,52696e67-3830-42e6-9b69-6361645f7063,V0.1*
G04 #@! TF.SameCoordinates,Original*
G04 #@! TF.FileFunction,Soldermask,Bot*
G04 #@! TF.FilePolarity,Negative*
%FSLAX46Y46*%
G04 Gerber Fmt 4.6, Leading zero omitted, Abs format (unit mm)*
G04 Created by KiCad (PCBNEW (5.1.5)-3) date 2020-06-24 07:37:59*
%MOMM*%
%LPD*%
G04 APERTURE LIST*
%ADD10C,0.100000*%
G04 APERTURE END LIST*
D10*
G36*
X97789000Y-166973000D02*
G01*
X95987000Y-166973000D01*
X95987000Y-165171000D01*
X97789000Y-165171000D01*
X97789000Y-166973000D01*
G37*
G36*
X94461512Y-165175927D02*
G01*
X94610812Y-165205624D01*
X94774784Y-165273544D01*
X94922354Y-165372147D01*
X95047853Y-165497646D01*
X95146456Y-165645216D01*
X95214376Y-165809188D01*
X95249000Y-165983259D01*
X95249000Y-166160741D01*
X95214376Y-166334812D01*
X95146456Y-166498784D01*
X95047853Y-166646354D01*
X94922354Y-166771853D01*
X94774784Y-166870456D01*
X94610812Y-166938376D01*
X94461512Y-166968073D01*
X94436742Y-166973000D01*
X94259258Y-166973000D01*
X94234488Y-166968073D01*
X94085188Y-166938376D01*
X93921216Y-166870456D01*
X93773646Y-166771853D01*
X93648147Y-166646354D01*
X93549544Y-166498784D01*
X93481624Y-166334812D01*
X93447000Y-166160741D01*
X93447000Y-165983259D01*
X93481624Y-165809188D01*
X93549544Y-165645216D01*
X93648147Y-165497646D01*
X93773646Y-165372147D01*
X93921216Y-165273544D01*
X94085188Y-165205624D01*
X94234488Y-165175927D01*
X94259258Y-165171000D01*
X94436742Y-165171000D01*
X94461512Y-165175927D01*
G37*
G36*
X91921512Y-165175927D02*
G01*
X92070812Y-165205624D01*
X92234784Y-165273544D01*
X92382354Y-165372147D01*
X92507853Y-165497646D01*
X92606456Y-165645216D01*
X92674376Y-165809188D01*
X92709000Y-165983259D01*
X92709000Y-166160741D01*
X92674376Y-166334812D01*
X92606456Y-166498784D01*
X92507853Y-166646354D01*
X92382354Y-166771853D01*
X92234784Y-166870456D01*
X92070812Y-166938376D01*
X91921512Y-166968073D01*
X91896742Y-166973000D01*
X91719258Y-166973000D01*
X91694488Y-166968073D01*
X91545188Y-166938376D01*
X91381216Y-166870456D01*
X91233646Y-166771853D01*
X91108147Y-166646354D01*
X91009544Y-166498784D01*
X90941624Y-166334812D01*
X90907000Y-166160741D01*
X90907000Y-165983259D01*
X90941624Y-165809188D01*
X91009544Y-165645216D01*
X91108147Y-165497646D01*
X91233646Y-165372147D01*
X91381216Y-165273544D01*
X91545188Y-165205624D01*
X91694488Y-165175927D01*
X91719258Y-165171000D01*
X91896742Y-165171000D01*
X91921512Y-165175927D01*
G37*
G36*
X97791000Y-89861000D02*
G01*
X95989000Y-89861000D01*
X95989000Y-88059000D01*
X97791000Y-88059000D01*
X97791000Y-89861000D01*
G37*
G36*
X94463512Y-88063927D02*
G01*
X94612812Y-88093624D01*
X94776784Y-88161544D01*
X94924354Y-88260147D01*
X95049853Y-88385646D01*
X95148456Y-88533216D01*
X95216376Y-88697188D01*
X95251000Y-88871259D01*
X95251000Y-89048741D01*
X95216376Y-89222812D01*
X95148456Y-89386784D01*
X95049853Y-89534354D01*
X94924354Y-89659853D01*
X94776784Y-89758456D01*
X94612812Y-89826376D01*
X94463512Y-89856073D01*
X94438742Y-89861000D01*
X94261258Y-89861000D01*
X94236488Y-89856073D01*
X94087188Y-89826376D01*
X93923216Y-89758456D01*
X93775646Y-89659853D01*
X93650147Y-89534354D01*
X93551544Y-89386784D01*
X93483624Y-89222812D01*
X93449000Y-89048741D01*
X93449000Y-88871259D01*
X93483624Y-88697188D01*
X93551544Y-88533216D01*
X93650147Y-88385646D01*
X93775646Y-88260147D01*
X93923216Y-88161544D01*
X94087188Y-88093624D01*
X94236488Y-88063927D01*
X94261258Y-88059000D01*
X94438742Y-88059000D01*
X94463512Y-88063927D01*
G37*
G36*
X91923512Y-88063927D02*
G01*
X92072812Y-88093624D01*
X92236784Y-88161544D01*
X92384354Y-88260147D01*
X92509853Y-88385646D01*
X92608456Y-88533216D01*
X92676376Y-88697188D01*
X92711000Y-88871259D01*
X92711000Y-89048741D01*
X92676376Y-89222812D01*
X92608456Y-89386784D01*
X92509853Y-89534354D01*
X92384354Y-89659853D01*
X92236784Y-89758456D01*
X92072812Y-89826376D01*
X91923512Y-89856073D01*
X91898742Y-89861000D01*
X91721258Y-89861000D01*
X91696488Y-89856073D01*
X91547188Y-89826376D01*
X91383216Y-89758456D01*
X91235646Y-89659853D01*
X91110147Y-89534354D01*
X91011544Y-89386784D01*
X90943624Y-89222812D01*
X90909000Y-89048741D01*
X90909000Y-88871259D01*
X90943624Y-88697188D01*
X91011544Y-88533216D01*
X91110147Y-88385646D01*
X91235646Y-88260147D01*
X91383216Y-88161544D01*
X91547188Y-88093624D01*
X91696488Y-88063927D01*
X91721258Y-88059000D01*
X91898742Y-88059000D01*
X91923512Y-88063927D01*
G37*
M02*
