M48
METRIC,TZ
T1C0.400
T2C1.000
%
G90
G05
T1
X57560Y-125060
X57854Y-132163
X58249Y-119605
X58723Y-137308
X59180Y-130330
X59240Y-124660
X59780Y-135670
X59859Y-113723
X60000Y-119030
X60484Y-142456
X61300Y-140860
X61990Y-113810
X62541Y-108551
X63715Y-148013
X63740Y-145940
X64230Y-108960
X65936Y-103836
X66601Y-152169
X67190Y-150660
X67420Y-104450
X69786Y-99716
X70931Y-156259
X71160Y-100440
X71270Y-154500
X73589Y-97119
X75660Y-157900
X75696Y-159672
X76010Y-97370
X78979Y-93999
X80570Y-160310
X81060Y-94830
X81060Y-161993
X84970Y-91862
X86020Y-161530
X86390Y-93312
X86440Y-163561
X89880Y-88790
X90260Y-91060
X91380Y-163050
X91590Y-92340
X91710Y-90800
X93092Y-164438
X96990Y-92330
X97050Y-162390
X99244Y-163816
X102340Y-91339
X102600Y-92790
X102610Y-162130
X103914Y-163499
X107553Y-92837
X107802Y-94768
X107990Y-160390
X109285Y-161467
X112112Y-95198
X112880Y-97440
X112970Y-157860
X114539Y-158389
X116862Y-98296
X117429Y-100415
X117490Y-154670
X119364Y-154894
X121190Y-104370
X121533Y-102659
X121550Y-150760
X123542Y-150396
X124580Y-108790
X124739Y-106811
X124830Y-146350
X126602Y-145899
X127210Y-113710
X127230Y-141330
X127818Y-111912
X128920Y-119030
X128964Y-140450
X129110Y-135830
X129940Y-124700
X129941Y-117339
X130040Y-130340
X130560Y-134346
X131189Y-123030
X131490Y-128830
T2
X91810Y-88960
X94350Y-88960
X96890Y-88960
X91808Y-166072
X94348Y-166072
X96888Y-166072
T0
M30
