<?xml version="1.0" encoding="UTF-8" standalone="no"?>
<!-- Created with Inkscape (http://www.inkscape.org/) -->

<svg
   xmlns:dc="http://purl.org/dc/elements/1.1/"
   xmlns:cc="http://creativecommons.org/ns#"
   xmlns:rdf="http://www.w3.org/1999/02/22-rdf-syntax-ns#"
   xmlns:svg="http://www.w3.org/2000/svg"
   xmlns="http://www.w3.org/2000/svg"
   xmlns:sodipodi="http://sodipodi.sourceforge.net/DTD/sodipodi-0.dtd"
   xmlns:inkscape="http://www.inkscape.org/namespaces/inkscape"
   width="210mm"
   height="297mm"
   viewBox="0 0 210 297"
   version="1.1"
   id="svg5084"
   inkscape:version="0.92.1 r15371"
   sodipodi:docname="K02_Inlay.svg">
  <defs
     id="defs5078" />
  <sodipodi:namedview
     id="base"
     pagecolor="#ffffff"
     bordercolor="#666666"
     borderopacity="1.0"
     inkscape:pageopacity="0.0"
     inkscape:pageshadow="2"
     inkscape:zoom="1.4"
     inkscape:cx="485.96022"
     inkscape:cy="663.09577"
     inkscape:document-units="mm"
     inkscape:current-layer="layer1"
     showgrid="false"
     inkscape:window-width="1920"
     inkscape:window-height="1027"
     inkscape:window-x="347"
     inkscape:window-y="1199"
     inkscape:window-maximized="1" />
  <metadata
     id="metadata5081">
    <rdf:RDF>
      <cc:Work
         rdf:about="">
        <dc:format>image/svg+xml</dc:format>
        <dc:type
           rdf:resource="http://purl.org/dc/dcmitype/StillImage" />
        <dc:title></dc:title>
      </cc:Work>
    </rdf:RDF>
  </metadata>
  <g
     inkscape:label="Layer 1"
     inkscape:groupmode="layer"
     id="layer1">
    <g
       id="g5652">
      <path
         style="opacity:0.77999998;fill:none;fill-opacity:1;fill-rule:nonzero;stroke:#ff0000;stroke-width:0.1;stroke-linecap:round;stroke-linejoin:round;stroke-miterlimit:4;stroke-dasharray:none;stroke-dashoffset:0;stroke-opacity:1;paint-order:markers fill stroke"
         d="m 141.4,143.90118 c 0,20.01572 -15.0977,36.50519 -34.52627,38.70155 l 0.0263,-2.85172 H 98 l 0.02555,2.85164 C 78.597329,180.40597 63.499993,163.91666 63.499992,143.90118 63.499991,123.89723 78.579946,107.41539 97.991994,105.20352 98,108.051 98,108.051 98,108.051 h 8.9 c 0,0 0,0 -0.004,-2.84882 19.41773,2.20654 34.50378,18.691 34.50378,38.699 z"
         id="path5629"
         inkscape:connector-curvature="0"
         sodipodi:nodetypes="sccccsccccs" />
      <path
         style="opacity:0.77999998;fill:none;fill-opacity:1;fill-rule:nonzero;stroke:#ff0000;stroke-width:0.1;stroke-linecap:round;stroke-linejoin:round;stroke-miterlimit:4;stroke-dasharray:none;stroke-dashoffset:0;stroke-opacity:1;paint-order:markers fill stroke"
         d="m 104.9,143.90118 a 2.45,2.45 0 0 1 -2.45,2.45 2.45,2.45 0 0 1 -2.450003,-2.45 2.45,2.45 0 0 1 2.450003,-2.45 2.45,2.45 0 0 1 2.45,2.45 z"
         id="path5631" />
    </g>
  </g>
</svg>
