G04 #@! TF.GenerationSoftware,KiCad,Pcbnew,(5.1.5)-3*
G04 #@! TF.CreationDate,2020-09-03T11:07:22+02:00*
G04 #@! TF.ProjectId,StepperClockMasterTinyK22,53746570-7065-4724-936c-6f636b4d6173,rev?*
G04 #@! TF.SameCoordinates,Original*
G04 #@! TF.FileFunction,Profile,NP*
%FSLAX46Y46*%
G04 Gerber Fmt 4.6, Leading zero omitted, Abs format (unit mm)*
G04 Created by KiCad (PCBNEW (5.1.5)-3) date 2020-09-03 11:07:22*
%MOMM*%
%LPD*%
G04 APERTURE LIST*
%ADD10C,0.100000*%
G04 APERTURE END LIST*
D10*
X101990000Y-113210000D02*
X104060000Y-113210000D01*
X101980000Y-115700000D02*
X104050000Y-115700000D01*
X101990000Y-113210000D02*
X101990000Y-111930000D01*
X101980000Y-117050000D02*
X101980000Y-115700000D01*
X104060000Y-113210000D02*
X104060000Y-110040000D01*
X104050000Y-119010000D02*
X104050000Y-115700000D01*
X94730000Y-111940000D02*
X94730000Y-117050000D01*
X94710000Y-145140000D02*
X94760000Y-119010000D01*
X104060000Y-110040000D02*
X94710000Y-110040000D01*
X94730000Y-111940000D02*
X101990000Y-111930000D01*
X94760000Y-119010000D02*
X104050000Y-119010000D01*
X94730000Y-117050000D02*
X101980000Y-117050000D01*
X152337643Y-73260457D02*
G75*
G02X155390000Y-76260000I52357J-2999543D01*
G01*
X155390000Y-145019249D02*
G75*
G02X152310019Y-148110000I-3079981J-10751D01*
G01*
X97618996Y-148129983D02*
G75*
G02X94709660Y-145140267I50663J2959717D01*
G01*
X94696191Y-76230000D02*
G75*
G02X97720000Y-73250000I2973914J6498D01*
G01*
X155390000Y-145020000D02*
X155390000Y-76260000D01*
X97618996Y-148129983D02*
X152310019Y-148110000D01*
X94696192Y-76230000D02*
X94710000Y-110040000D01*
X152337643Y-73260457D02*
X97720000Y-73250000D01*
M02*
