G04 #@! TF.GenerationSoftware,KiCad,Pcbnew,(5.1.5)-3*
G04 #@! TF.CreationDate,2020-09-03T11:07:21+02:00*
G04 #@! TF.ProjectId,StepperClockMasterTinyK22,53746570-7065-4724-936c-6f636b4d6173,rev?*
G04 #@! TF.SameCoordinates,Original*
G04 #@! TF.FileFunction,Copper,L2,Bot*
G04 #@! TF.FilePolarity,Positive*
%FSLAX46Y46*%
G04 Gerber Fmt 4.6, Leading zero omitted, Abs format (unit mm)*
G04 Created by KiCad (PCBNEW (5.1.5)-3) date 2020-09-03 11:07:21*
%MOMM*%
%LPD*%
G04 APERTURE LIST*
%ADD10R,1.700000X1.700000*%
%ADD11O,1.700000X1.700000*%
%ADD12O,3.600000X1.800000*%
%ADD13R,3.600000X1.800000*%
%ADD14O,1.800000X3.600000*%
%ADD15R,1.800000X3.600000*%
%ADD16O,1.600000X1.600000*%
%ADD17R,1.600000X1.600000*%
%ADD18C,2.290000*%
%ADD19C,0.800000*%
%ADD20C,0.250000*%
%ADD21C,2.500000*%
%ADD22C,4.000000*%
%ADD23C,0.254000*%
G04 APERTURE END LIST*
D10*
X137580000Y-101490000D03*
D11*
X137580000Y-98950000D03*
X137580000Y-96410000D03*
X137580000Y-93870000D03*
X137580000Y-91330000D03*
X137580000Y-88790000D03*
D10*
X137580000Y-136130000D03*
D11*
X137580000Y-133590000D03*
X137580000Y-131050000D03*
X137580000Y-128510000D03*
X137580000Y-125970000D03*
X137580000Y-123430000D03*
D12*
X102840000Y-136040000D03*
X102840000Y-132230000D03*
X102840000Y-128420000D03*
D13*
X102840000Y-124610000D03*
D14*
X120330000Y-140000000D03*
X116520000Y-140000000D03*
X112710000Y-140000000D03*
D15*
X108900000Y-140000000D03*
D16*
X133210000Y-139560000D03*
X150990000Y-88760000D03*
X133210000Y-137020000D03*
X150990000Y-91300000D03*
X133210000Y-134480000D03*
X150990000Y-93840000D03*
X133210000Y-131940000D03*
X150990000Y-96380000D03*
X133210000Y-129400000D03*
X150990000Y-98920000D03*
X133210000Y-126860000D03*
X150990000Y-101460000D03*
X133210000Y-124320000D03*
X150990000Y-104000000D03*
X133210000Y-121780000D03*
X150990000Y-106540000D03*
X133210000Y-119240000D03*
X150990000Y-109080000D03*
X133210000Y-116700000D03*
X150990000Y-111620000D03*
X133210000Y-114160000D03*
X150990000Y-114160000D03*
X133210000Y-111620000D03*
X150990000Y-116700000D03*
X133210000Y-109080000D03*
X150990000Y-119240000D03*
X133210000Y-106540000D03*
X150990000Y-121780000D03*
X133210000Y-104000000D03*
X150990000Y-124320000D03*
X133210000Y-101460000D03*
X150990000Y-126860000D03*
X133210000Y-98920000D03*
X150990000Y-129400000D03*
X133210000Y-96380000D03*
X150990000Y-131940000D03*
X133210000Y-93840000D03*
X150990000Y-134480000D03*
X133210000Y-91300000D03*
X150990000Y-137020000D03*
X133210000Y-88760000D03*
D17*
X150990000Y-139560000D03*
D10*
X127130000Y-129720000D03*
D11*
X127130000Y-127180000D03*
X127130000Y-124640000D03*
X127130000Y-122100000D03*
X127130000Y-119560000D03*
X127130000Y-117020000D03*
X127130000Y-114480000D03*
D10*
X127260000Y-109230000D03*
D11*
X127260000Y-106690000D03*
X127260000Y-104150000D03*
X127260000Y-101610000D03*
X127260000Y-99070000D03*
X127260000Y-96530000D03*
X127260000Y-93990000D03*
X127260000Y-91450000D03*
X127260000Y-88910000D03*
D10*
X108700000Y-123760000D03*
D11*
X108700000Y-121220000D03*
X108700000Y-118680000D03*
X108700000Y-116140000D03*
D10*
X141500000Y-83950000D03*
D11*
X144040000Y-83950000D03*
X146580000Y-83950000D03*
D10*
X132000000Y-83950000D03*
D11*
X134540000Y-83950000D03*
X137080000Y-83950000D03*
D10*
X122510000Y-83950000D03*
D11*
X125050000Y-83950000D03*
X127590000Y-83950000D03*
D10*
X113010000Y-83950000D03*
D11*
X115550000Y-83950000D03*
X118090000Y-83950000D03*
D10*
X103510000Y-83950000D03*
D11*
X106050000Y-83950000D03*
X108590000Y-83950000D03*
D18*
X123530000Y-101010000D03*
X123530000Y-98010000D03*
X96530000Y-99510000D03*
D19*
X123550000Y-116920000D03*
X123520000Y-112200000D03*
X147520000Y-118370000D03*
X97650000Y-122910000D03*
X97460000Y-138180000D03*
X106810000Y-145930000D03*
X131480000Y-146140000D03*
X145590000Y-146260000D03*
X153700000Y-131060000D03*
X153780000Y-112700000D03*
X147120000Y-127350000D03*
X130110000Y-123210000D03*
X118940000Y-132150000D03*
X109040000Y-112500000D03*
X122340000Y-108810000D03*
X109820000Y-99110000D03*
X119300000Y-100680000D03*
X107480000Y-90430000D03*
X119490000Y-89140000D03*
X97100000Y-84320000D03*
X96440000Y-93400000D03*
X96750000Y-108510000D03*
X107200000Y-76060000D03*
X116750000Y-75750000D03*
X126300000Y-75790000D03*
X135730000Y-75630000D03*
X145280000Y-75830000D03*
X150410000Y-80490000D03*
X154170000Y-88590000D03*
X108850000Y-132210000D03*
X120980000Y-130350000D03*
X123760000Y-133010000D03*
X114980000Y-143060000D03*
X114930000Y-144960000D03*
X117030000Y-143100000D03*
X117040000Y-144960000D03*
X119010000Y-143110000D03*
X119000000Y-144960000D03*
X121200000Y-143100000D03*
X121250000Y-144930000D03*
X97450000Y-128280000D03*
X108850000Y-130370000D03*
X141610000Y-128460000D03*
X140790000Y-134230000D03*
X147390000Y-135070000D03*
X108830000Y-127950000D03*
X119880000Y-127120000D03*
X108220000Y-105600000D03*
X124110000Y-88100000D03*
X130350000Y-90190000D03*
X147420000Y-110840000D03*
X102670000Y-93560000D03*
X101720000Y-105340000D03*
X117170000Y-94300000D03*
X107180000Y-78770000D03*
X116800000Y-78800000D03*
X126340000Y-79120000D03*
X135760000Y-79170000D03*
X145250000Y-79240000D03*
X101330000Y-78120000D03*
X116340000Y-106270000D03*
X140080000Y-97450000D03*
X110940000Y-143040000D03*
X151450000Y-142300000D03*
X97050000Y-115210000D03*
X148150000Y-93960000D03*
X139730000Y-92540000D03*
X97450000Y-131990000D03*
X130720000Y-133350000D03*
X128650000Y-135430000D03*
X107390010Y-135559990D03*
X118022038Y-135757962D03*
X109730010Y-135559990D03*
X112460010Y-135559990D03*
X114960010Y-135559990D03*
X119302038Y-137037962D03*
X138030000Y-115950000D03*
X139630000Y-118090000D03*
X137860000Y-113150000D03*
X140460000Y-126000000D03*
X142180000Y-136430000D03*
X144490000Y-136430000D03*
X122650000Y-119690000D03*
X118070000Y-119670000D03*
X131550000Y-117790000D03*
X148260000Y-99300000D03*
X148740000Y-104000000D03*
X134730000Y-115410000D03*
X145177347Y-106537347D03*
X146825307Y-106939999D03*
X142120969Y-108519641D03*
X143040000Y-112040000D03*
X141200000Y-108130000D03*
X141110000Y-113100000D03*
X143060858Y-107900858D03*
X143080000Y-110690000D03*
X129490000Y-116730000D03*
X131000000Y-138210000D03*
X130970000Y-140690000D03*
X112740000Y-145350000D03*
X114300000Y-146950000D03*
X130275000Y-137260000D03*
X130317350Y-142457350D03*
X135702653Y-112692653D03*
X135690000Y-114685000D03*
X136090000Y-118010000D03*
X137687347Y-118982653D03*
X139710000Y-121530000D03*
X131540000Y-112760000D03*
X129130000Y-102580000D03*
X129130000Y-98150000D03*
X138750000Y-120610000D03*
X138750000Y-119020000D03*
X136927653Y-116837653D03*
X136904142Y-114174142D03*
X136409761Y-111985545D03*
X131510000Y-108330000D03*
X130099525Y-102335000D03*
X130110000Y-97240000D03*
D20*
X123550000Y-116920000D02*
X123550000Y-112230000D01*
X123550000Y-112230000D02*
X123520000Y-112200000D01*
X130720000Y-133350000D02*
X128650000Y-135420000D01*
X128650000Y-135420000D02*
X128650000Y-135430000D01*
D21*
X113010000Y-83950000D02*
X113010000Y-87300000D01*
D22*
X113010000Y-135160000D02*
X113050000Y-135200000D01*
X113010000Y-87300000D02*
X113010000Y-128580000D01*
X113010000Y-128580000D02*
X113010000Y-135160000D01*
D20*
X137860000Y-115780000D02*
X138030000Y-115950000D01*
X137860000Y-113150000D02*
X137860000Y-115780000D01*
X140460000Y-118920000D02*
X140460000Y-126000000D01*
X139630000Y-118090000D02*
X140460000Y-118920000D01*
D22*
X103320010Y-135559990D02*
X102840000Y-136040000D01*
X120350000Y-138085924D02*
X117824066Y-135559990D01*
X117824066Y-135559990D02*
X103320010Y-135559990D01*
X120350000Y-139980000D02*
X120330000Y-140000000D01*
X120350000Y-138085924D02*
X120350000Y-139980000D01*
D20*
X142180000Y-136430000D02*
X144490000Y-136430000D01*
X122084315Y-119690000D02*
X122064315Y-119670000D01*
X122650000Y-119690000D02*
X122084315Y-119690000D01*
X122064315Y-119670000D02*
X118070000Y-119670000D01*
X130904316Y-117869999D02*
X127979999Y-117869999D01*
X130984315Y-117790000D02*
X130904316Y-117869999D01*
X127979999Y-117869999D02*
X127130000Y-117020000D01*
X131550000Y-117790000D02*
X130984315Y-117790000D01*
X148260000Y-99300000D02*
X148740000Y-99780000D01*
X148740000Y-99780000D02*
X148740000Y-104000000D01*
X145577346Y-106937346D02*
X146822654Y-106937346D01*
X145177347Y-106537347D02*
X145577346Y-106937346D01*
X146822654Y-106937346D02*
X146825307Y-106939999D01*
X128060000Y-115410000D02*
X127130000Y-114480000D01*
X134730000Y-115410000D02*
X128060000Y-115410000D01*
X145177347Y-96387347D02*
X145177347Y-106537347D01*
X137580000Y-88790000D02*
X145177347Y-96387347D01*
X142120969Y-108519641D02*
X142120969Y-111120969D01*
X142120969Y-111120969D02*
X143040000Y-112040000D01*
X141110000Y-108785685D02*
X141110000Y-113100000D01*
X141200000Y-108130000D02*
X141200000Y-108695685D01*
X141200000Y-108695685D02*
X141110000Y-108785685D01*
X143060858Y-107900858D02*
X143060858Y-110670858D01*
X143060858Y-110670858D02*
X143080000Y-110690000D01*
X131435010Y-116700000D02*
X129520000Y-116700000D01*
X129520000Y-116700000D02*
X129490000Y-116730000D01*
X131435010Y-116700000D02*
X133210000Y-116700000D01*
X131000000Y-138210000D02*
X131000000Y-140660000D01*
X131000000Y-140660000D02*
X130970000Y-140690000D01*
X112740000Y-145350000D02*
X112740000Y-145390000D01*
X112740000Y-145390000D02*
X114300000Y-146950000D01*
X130275000Y-137260000D02*
X129875001Y-137659999D01*
X129875001Y-142015001D02*
X130317350Y-142457350D01*
X129875001Y-137659999D02*
X129875001Y-142015001D01*
X135500000Y-112490000D02*
X135702653Y-112692653D01*
X135690000Y-114685000D02*
X136090000Y-115085000D01*
X136090000Y-115085000D02*
X136090000Y-118010000D01*
X138596998Y-121530000D02*
X139710000Y-121530000D01*
X137687347Y-118982653D02*
X137687347Y-120620349D01*
X137687347Y-120620349D02*
X138596998Y-121530000D01*
X135069621Y-112760000D02*
X131540000Y-112760000D01*
X135702653Y-112692653D02*
X135136968Y-112692653D01*
X135136968Y-112692653D02*
X135069621Y-112760000D01*
X129130000Y-102580000D02*
X129130000Y-98150000D01*
X138750000Y-120610000D02*
X138750000Y-119020000D01*
X136927653Y-116837653D02*
X136927653Y-114197653D01*
X136927653Y-114197653D02*
X136904142Y-114174142D01*
X131510000Y-109045002D02*
X131510000Y-108330000D01*
X132669999Y-110205001D02*
X131510000Y-109045002D01*
X136409761Y-111985545D02*
X134629217Y-110205001D01*
X134629217Y-110205001D02*
X132669999Y-110205001D01*
X130099525Y-102335000D02*
X130099525Y-97250475D01*
X130099525Y-97250475D02*
X130110000Y-97240000D01*
D23*
G36*
X97684995Y-73934872D02*
G01*
X97686222Y-73934993D01*
X152310054Y-73945451D01*
X152799373Y-73984821D01*
X153233492Y-74107665D01*
X153635483Y-74312489D01*
X153990039Y-74591498D01*
X154283647Y-74934056D01*
X154505125Y-75327116D01*
X154646041Y-75755716D01*
X154704616Y-76232767D01*
X154705001Y-76264283D01*
X154705000Y-144986944D01*
X154657791Y-145486361D01*
X154524438Y-145933687D01*
X154306737Y-146346592D01*
X154012982Y-146709349D01*
X153654359Y-147008143D01*
X153244540Y-147231584D01*
X152799113Y-147371172D01*
X152303598Y-147425003D01*
X115217910Y-147438553D01*
X115295226Y-147251898D01*
X115335000Y-147051939D01*
X115335000Y-146848061D01*
X115295226Y-146648102D01*
X115217205Y-146459744D01*
X115103937Y-146290226D01*
X114959774Y-146146063D01*
X114790256Y-146032795D01*
X114601898Y-145954774D01*
X114401939Y-145915000D01*
X114339802Y-145915000D01*
X113775000Y-145350199D01*
X113775000Y-145248061D01*
X113735226Y-145048102D01*
X113675742Y-144904495D01*
X150355000Y-144904495D01*
X150355000Y-145295505D01*
X150431282Y-145679003D01*
X150580915Y-146040250D01*
X150798149Y-146365364D01*
X151074636Y-146641851D01*
X151399750Y-146859085D01*
X151760997Y-147008718D01*
X152144495Y-147085000D01*
X152535505Y-147085000D01*
X152919003Y-147008718D01*
X153280250Y-146859085D01*
X153605364Y-146641851D01*
X153881851Y-146365364D01*
X154099085Y-146040250D01*
X154248718Y-145679003D01*
X154325000Y-145295505D01*
X154325000Y-144904495D01*
X154248718Y-144520997D01*
X154099085Y-144159750D01*
X153881851Y-143834636D01*
X153605364Y-143558149D01*
X153280250Y-143340915D01*
X152919003Y-143191282D01*
X152535505Y-143115000D01*
X152144495Y-143115000D01*
X151760997Y-143191282D01*
X151399750Y-143340915D01*
X151074636Y-143558149D01*
X150798149Y-143834636D01*
X150580915Y-144159750D01*
X150431282Y-144520997D01*
X150355000Y-144904495D01*
X113675742Y-144904495D01*
X113657205Y-144859744D01*
X113543937Y-144690226D01*
X113399774Y-144546063D01*
X113230256Y-144432795D01*
X113041898Y-144354774D01*
X112841939Y-144315000D01*
X112638061Y-144315000D01*
X112438102Y-144354774D01*
X112249744Y-144432795D01*
X112080226Y-144546063D01*
X111936063Y-144690226D01*
X111822795Y-144859744D01*
X111744774Y-145048102D01*
X111705000Y-145248061D01*
X111705000Y-145451939D01*
X111744774Y-145651898D01*
X111822795Y-145840256D01*
X111936063Y-146009774D01*
X112080226Y-146153937D01*
X112249744Y-146267205D01*
X112438102Y-146345226D01*
X112638061Y-146385000D01*
X112660199Y-146385000D01*
X113265000Y-146989802D01*
X113265000Y-147051939D01*
X113304774Y-147251898D01*
X113382367Y-147439224D01*
X97658259Y-147444969D01*
X97190305Y-147390985D01*
X96768098Y-147255586D01*
X96380223Y-147040755D01*
X96041469Y-146754682D01*
X95764728Y-146408253D01*
X95560549Y-146014678D01*
X95436702Y-145588930D01*
X95395049Y-145114678D01*
X95395451Y-144904495D01*
X95765000Y-144904495D01*
X95765000Y-145295505D01*
X95841282Y-145679003D01*
X95990915Y-146040250D01*
X96208149Y-146365364D01*
X96484636Y-146641851D01*
X96809750Y-146859085D01*
X97170997Y-147008718D01*
X97554495Y-147085000D01*
X97945505Y-147085000D01*
X98329003Y-147008718D01*
X98690250Y-146859085D01*
X99015364Y-146641851D01*
X99291851Y-146365364D01*
X99509085Y-146040250D01*
X99658718Y-145679003D01*
X99735000Y-145295505D01*
X99735000Y-144904495D01*
X99658718Y-144520997D01*
X99509085Y-144159750D01*
X99291851Y-143834636D01*
X99015364Y-143558149D01*
X98690250Y-143340915D01*
X98329003Y-143191282D01*
X97945505Y-143115000D01*
X97554495Y-143115000D01*
X97170997Y-143191282D01*
X96809750Y-143340915D01*
X96484636Y-143558149D01*
X96208149Y-143834636D01*
X95990915Y-144159750D01*
X95841282Y-144520997D01*
X95765000Y-144904495D01*
X95395451Y-144904495D01*
X95412413Y-136040000D01*
X100192252Y-136040000D01*
X100243127Y-136556549D01*
X100393799Y-137053249D01*
X100638478Y-137511010D01*
X100967759Y-137912241D01*
X101368990Y-138241522D01*
X101826751Y-138486201D01*
X102323451Y-138636873D01*
X102840000Y-138687748D01*
X103356549Y-138636873D01*
X103853249Y-138486201D01*
X104311010Y-138241522D01*
X104367710Y-138194990D01*
X107362421Y-138194990D01*
X107361928Y-138200000D01*
X107361928Y-141800000D01*
X107374188Y-141924482D01*
X107410498Y-142044180D01*
X107469463Y-142154494D01*
X107548815Y-142251185D01*
X107645506Y-142330537D01*
X107755820Y-142389502D01*
X107875518Y-142425812D01*
X108000000Y-142438072D01*
X109800000Y-142438072D01*
X109924482Y-142425812D01*
X110044180Y-142389502D01*
X110154494Y-142330537D01*
X110251185Y-142251185D01*
X110330537Y-142154494D01*
X110389502Y-142044180D01*
X110425812Y-141924482D01*
X110438072Y-141800000D01*
X110438072Y-138200000D01*
X110437579Y-138194990D01*
X111466980Y-138194990D01*
X111427519Y-138243074D01*
X111284983Y-138509740D01*
X111197210Y-138799088D01*
X111175000Y-139024593D01*
X111175000Y-140975408D01*
X111197211Y-141200913D01*
X111284984Y-141490261D01*
X111427520Y-141756927D01*
X111619340Y-141990661D01*
X111853074Y-142182481D01*
X112119740Y-142325017D01*
X112409088Y-142412790D01*
X112710000Y-142442427D01*
X113010913Y-142412790D01*
X113300261Y-142325017D01*
X113566927Y-142182481D01*
X113800661Y-141990661D01*
X113992481Y-141756927D01*
X114135017Y-141490261D01*
X114222790Y-141200913D01*
X114245000Y-140975408D01*
X114245000Y-140127000D01*
X114985000Y-140127000D01*
X114985000Y-141027000D01*
X115039271Y-141324023D01*
X115150446Y-141604751D01*
X115314252Y-141858396D01*
X115524394Y-142075210D01*
X115772796Y-142246862D01*
X116049913Y-142366755D01*
X116155260Y-142391036D01*
X116393000Y-142270378D01*
X116393000Y-140127000D01*
X114985000Y-140127000D01*
X114245000Y-140127000D01*
X114245000Y-139024592D01*
X114222790Y-138799087D01*
X114135017Y-138509739D01*
X113992481Y-138243073D01*
X113953020Y-138194990D01*
X115279775Y-138194990D01*
X115150446Y-138395249D01*
X115039271Y-138675977D01*
X114985000Y-138973000D01*
X114985000Y-139873000D01*
X116393000Y-139873000D01*
X116393000Y-139853000D01*
X116647000Y-139853000D01*
X116647000Y-139873000D01*
X116667000Y-139873000D01*
X116667000Y-140127000D01*
X116647000Y-140127000D01*
X116647000Y-142270378D01*
X116884740Y-142391036D01*
X116990087Y-142366755D01*
X117267204Y-142246862D01*
X117515606Y-142075210D01*
X117725748Y-141858396D01*
X117889554Y-141604751D01*
X118000729Y-141324023D01*
X118013258Y-141255450D01*
X118128478Y-141471010D01*
X118457759Y-141872241D01*
X118858990Y-142201522D01*
X119316751Y-142446201D01*
X119813451Y-142596873D01*
X120330000Y-142647748D01*
X120846549Y-142596873D01*
X121343249Y-142446201D01*
X121801010Y-142201522D01*
X122101697Y-141954755D01*
X122121694Y-141934758D01*
X122222241Y-141852241D01*
X122551523Y-141451011D01*
X122796201Y-140993250D01*
X122946873Y-140496550D01*
X122985000Y-140109441D01*
X122985000Y-140109435D01*
X122997748Y-139980001D01*
X122985000Y-139850567D01*
X122985000Y-138215357D01*
X122997748Y-138085923D01*
X122985000Y-137956489D01*
X122985000Y-137956482D01*
X122955799Y-137659999D01*
X129111325Y-137659999D01*
X129115001Y-137697322D01*
X129115002Y-141977669D01*
X129111325Y-142015001D01*
X129115002Y-142052334D01*
X129125999Y-142163987D01*
X129131609Y-142182481D01*
X129169455Y-142307247D01*
X129240027Y-142439277D01*
X129282350Y-142490847D01*
X129282350Y-142559289D01*
X129322124Y-142759248D01*
X129400145Y-142947606D01*
X129513413Y-143117124D01*
X129657576Y-143261287D01*
X129827094Y-143374555D01*
X130015452Y-143452576D01*
X130215411Y-143492350D01*
X130419289Y-143492350D01*
X130619248Y-143452576D01*
X130807606Y-143374555D01*
X130977124Y-143261287D01*
X131121287Y-143117124D01*
X131234555Y-142947606D01*
X131312576Y-142759248D01*
X131352350Y-142559289D01*
X131352350Y-142355411D01*
X131312576Y-142155452D01*
X131234555Y-141967094D01*
X131121287Y-141797576D01*
X131048711Y-141725000D01*
X131071939Y-141725000D01*
X131271898Y-141685226D01*
X131460256Y-141607205D01*
X131629774Y-141493937D01*
X131773937Y-141349774D01*
X131887205Y-141180256D01*
X131965226Y-140991898D01*
X132005000Y-140791939D01*
X132005000Y-140588061D01*
X131965226Y-140388102D01*
X131887205Y-140199744D01*
X131773937Y-140030226D01*
X131760000Y-140016289D01*
X131760000Y-138913711D01*
X131803937Y-138869774D01*
X131917205Y-138700256D01*
X131995226Y-138511898D01*
X132035000Y-138311939D01*
X132035000Y-138108061D01*
X131995226Y-137908102D01*
X131917205Y-137719744D01*
X131803937Y-137550226D01*
X131659774Y-137406063D01*
X131490256Y-137292795D01*
X131310000Y-137218130D01*
X131310000Y-137158061D01*
X131270226Y-136958102D01*
X131237322Y-136878665D01*
X131775000Y-136878665D01*
X131775000Y-137161335D01*
X131830147Y-137438574D01*
X131938320Y-137699727D01*
X132095363Y-137934759D01*
X132295241Y-138134637D01*
X132527759Y-138290000D01*
X132295241Y-138445363D01*
X132095363Y-138645241D01*
X131938320Y-138880273D01*
X131830147Y-139141426D01*
X131775000Y-139418665D01*
X131775000Y-139701335D01*
X131830147Y-139978574D01*
X131938320Y-140239727D01*
X132095363Y-140474759D01*
X132295241Y-140674637D01*
X132530273Y-140831680D01*
X132791426Y-140939853D01*
X133068665Y-140995000D01*
X133351335Y-140995000D01*
X133628574Y-140939853D01*
X133889727Y-140831680D01*
X134124759Y-140674637D01*
X134324637Y-140474759D01*
X134481680Y-140239727D01*
X134589853Y-139978574D01*
X134645000Y-139701335D01*
X134645000Y-139418665D01*
X134589853Y-139141426D01*
X134481680Y-138880273D01*
X134324637Y-138645241D01*
X134124759Y-138445363D01*
X133892241Y-138290000D01*
X134124759Y-138134637D01*
X134324637Y-137934759D01*
X134481680Y-137699727D01*
X134589853Y-137438574D01*
X134645000Y-137161335D01*
X134645000Y-136980000D01*
X136091928Y-136980000D01*
X136104188Y-137104482D01*
X136140498Y-137224180D01*
X136199463Y-137334494D01*
X136278815Y-137431185D01*
X136375506Y-137510537D01*
X136485820Y-137569502D01*
X136605518Y-137605812D01*
X136730000Y-137618072D01*
X137294250Y-137615000D01*
X137453000Y-137456250D01*
X137453000Y-136257000D01*
X137707000Y-136257000D01*
X137707000Y-137456250D01*
X137865750Y-137615000D01*
X138430000Y-137618072D01*
X138554482Y-137605812D01*
X138674180Y-137569502D01*
X138784494Y-137510537D01*
X138881185Y-137431185D01*
X138960537Y-137334494D01*
X139019502Y-137224180D01*
X139055812Y-137104482D01*
X139068072Y-136980000D01*
X139065000Y-136415750D01*
X138977311Y-136328061D01*
X141145000Y-136328061D01*
X141145000Y-136531939D01*
X141184774Y-136731898D01*
X141262795Y-136920256D01*
X141376063Y-137089774D01*
X141520226Y-137233937D01*
X141689744Y-137347205D01*
X141878102Y-137425226D01*
X142078061Y-137465000D01*
X142281939Y-137465000D01*
X142481898Y-137425226D01*
X142670256Y-137347205D01*
X142839774Y-137233937D01*
X142883711Y-137190000D01*
X143786289Y-137190000D01*
X143830226Y-137233937D01*
X143999744Y-137347205D01*
X144188102Y-137425226D01*
X144388061Y-137465000D01*
X144591939Y-137465000D01*
X144791898Y-137425226D01*
X144980256Y-137347205D01*
X145149774Y-137233937D01*
X145293937Y-137089774D01*
X145407205Y-136920256D01*
X145485226Y-136731898D01*
X145525000Y-136531939D01*
X145525000Y-136328061D01*
X145485226Y-136128102D01*
X145407205Y-135939744D01*
X145293937Y-135770226D01*
X145149774Y-135626063D01*
X144980256Y-135512795D01*
X144791898Y-135434774D01*
X144591939Y-135395000D01*
X144388061Y-135395000D01*
X144188102Y-135434774D01*
X143999744Y-135512795D01*
X143830226Y-135626063D01*
X143786289Y-135670000D01*
X142883711Y-135670000D01*
X142839774Y-135626063D01*
X142670256Y-135512795D01*
X142481898Y-135434774D01*
X142281939Y-135395000D01*
X142078061Y-135395000D01*
X141878102Y-135434774D01*
X141689744Y-135512795D01*
X141520226Y-135626063D01*
X141376063Y-135770226D01*
X141262795Y-135939744D01*
X141184774Y-136128102D01*
X141145000Y-136328061D01*
X138977311Y-136328061D01*
X138906250Y-136257000D01*
X137707000Y-136257000D01*
X137453000Y-136257000D01*
X136253750Y-136257000D01*
X136095000Y-136415750D01*
X136091928Y-136980000D01*
X134645000Y-136980000D01*
X134645000Y-136878665D01*
X134589853Y-136601426D01*
X134481680Y-136340273D01*
X134324637Y-136105241D01*
X134124759Y-135905363D01*
X133889727Y-135748320D01*
X133879135Y-135743933D01*
X134065131Y-135632385D01*
X134273519Y-135443414D01*
X134441037Y-135217420D01*
X134561246Y-134963087D01*
X134601904Y-134829039D01*
X134479915Y-134607000D01*
X133337000Y-134607000D01*
X133337000Y-134627000D01*
X133083000Y-134627000D01*
X133083000Y-134607000D01*
X131940085Y-134607000D01*
X131818096Y-134829039D01*
X131858754Y-134963087D01*
X131978963Y-135217420D01*
X132146481Y-135443414D01*
X132354869Y-135632385D01*
X132540865Y-135743933D01*
X132530273Y-135748320D01*
X132295241Y-135905363D01*
X132095363Y-136105241D01*
X131938320Y-136340273D01*
X131830147Y-136601426D01*
X131775000Y-136878665D01*
X131237322Y-136878665D01*
X131192205Y-136769744D01*
X131078937Y-136600226D01*
X130934774Y-136456063D01*
X130765256Y-136342795D01*
X130576898Y-136264774D01*
X130376939Y-136225000D01*
X130173061Y-136225000D01*
X129973102Y-136264774D01*
X129784744Y-136342795D01*
X129615226Y-136456063D01*
X129471063Y-136600226D01*
X129357795Y-136769744D01*
X129279774Y-136958102D01*
X129240000Y-137158061D01*
X129240000Y-137235774D01*
X129184364Y-137339860D01*
X129169455Y-137367753D01*
X129125998Y-137511014D01*
X129115001Y-137622667D01*
X129115001Y-137622677D01*
X129111325Y-137659999D01*
X122955799Y-137659999D01*
X122946873Y-137569374D01*
X122944615Y-137561928D01*
X122796201Y-137072674D01*
X122734961Y-136958102D01*
X122551523Y-136614913D01*
X122222241Y-136213683D01*
X122121700Y-136131171D01*
X121318590Y-135328061D01*
X127615000Y-135328061D01*
X127615000Y-135531939D01*
X127654774Y-135731898D01*
X127732795Y-135920256D01*
X127846063Y-136089774D01*
X127990226Y-136233937D01*
X128159744Y-136347205D01*
X128348102Y-136425226D01*
X128548061Y-136465000D01*
X128751939Y-136465000D01*
X128951898Y-136425226D01*
X129140256Y-136347205D01*
X129309774Y-136233937D01*
X129453937Y-136089774D01*
X129567205Y-135920256D01*
X129645226Y-135731898D01*
X129685000Y-135531939D01*
X129685000Y-135459801D01*
X130759802Y-134385000D01*
X130821939Y-134385000D01*
X131021898Y-134345226D01*
X131210256Y-134267205D01*
X131379774Y-134153937D01*
X131523937Y-134009774D01*
X131637205Y-133840256D01*
X131715226Y-133651898D01*
X131755000Y-133451939D01*
X131755000Y-133248061D01*
X131715226Y-133048102D01*
X131637205Y-132859744D01*
X131523937Y-132690226D01*
X131379774Y-132546063D01*
X131210256Y-132432795D01*
X131021898Y-132354774D01*
X130821939Y-132315000D01*
X130618061Y-132315000D01*
X130418102Y-132354774D01*
X130229744Y-132432795D01*
X130060226Y-132546063D01*
X129916063Y-132690226D01*
X129802795Y-132859744D01*
X129724774Y-133048102D01*
X129685000Y-133248061D01*
X129685000Y-133310198D01*
X128600199Y-134395000D01*
X128548061Y-134395000D01*
X128348102Y-134434774D01*
X128159744Y-134512795D01*
X127990226Y-134626063D01*
X127846063Y-134770226D01*
X127732795Y-134939744D01*
X127654774Y-135128102D01*
X127615000Y-135328061D01*
X121318590Y-135328061D01*
X119778824Y-133788296D01*
X119696307Y-133687749D01*
X119295077Y-133358467D01*
X118837316Y-133113789D01*
X118340616Y-132963117D01*
X117953508Y-132924990D01*
X117953500Y-132924990D01*
X117824066Y-132912242D01*
X117694632Y-132924990D01*
X115645000Y-132924990D01*
X115645000Y-128870000D01*
X125641928Y-128870000D01*
X125641928Y-130570000D01*
X125654188Y-130694482D01*
X125690498Y-130814180D01*
X125749463Y-130924494D01*
X125828815Y-131021185D01*
X125925506Y-131100537D01*
X126035820Y-131159502D01*
X126155518Y-131195812D01*
X126280000Y-131208072D01*
X127980000Y-131208072D01*
X128104482Y-131195812D01*
X128224180Y-131159502D01*
X128334494Y-131100537D01*
X128431185Y-131021185D01*
X128510537Y-130924494D01*
X128569502Y-130814180D01*
X128605812Y-130694482D01*
X128618072Y-130570000D01*
X128618072Y-128870000D01*
X128605812Y-128745518D01*
X128569502Y-128625820D01*
X128510537Y-128515506D01*
X128431185Y-128418815D01*
X128334494Y-128339463D01*
X128224180Y-128280498D01*
X128143534Y-128256034D01*
X128227588Y-128180269D01*
X128401641Y-127946920D01*
X128526825Y-127684099D01*
X128571476Y-127536890D01*
X128450155Y-127307000D01*
X127257000Y-127307000D01*
X127257000Y-127327000D01*
X127003000Y-127327000D01*
X127003000Y-127307000D01*
X125809845Y-127307000D01*
X125688524Y-127536890D01*
X125733175Y-127684099D01*
X125858359Y-127946920D01*
X126032412Y-128180269D01*
X126116466Y-128256034D01*
X126035820Y-128280498D01*
X125925506Y-128339463D01*
X125828815Y-128418815D01*
X125749463Y-128515506D01*
X125690498Y-128625820D01*
X125654188Y-128745518D01*
X125641928Y-128870000D01*
X115645000Y-128870000D01*
X115645000Y-119568061D01*
X117035000Y-119568061D01*
X117035000Y-119771939D01*
X117074774Y-119971898D01*
X117152795Y-120160256D01*
X117266063Y-120329774D01*
X117410226Y-120473937D01*
X117579744Y-120587205D01*
X117768102Y-120665226D01*
X117968061Y-120705000D01*
X118171939Y-120705000D01*
X118371898Y-120665226D01*
X118560256Y-120587205D01*
X118729774Y-120473937D01*
X118773711Y-120430000D01*
X121905650Y-120430000D01*
X121935276Y-120438987D01*
X121990226Y-120493937D01*
X122159744Y-120607205D01*
X122348102Y-120685226D01*
X122548061Y-120725000D01*
X122751939Y-120725000D01*
X122951898Y-120685226D01*
X123140256Y-120607205D01*
X123309774Y-120493937D01*
X123453937Y-120349774D01*
X123567205Y-120180256D01*
X123645226Y-119991898D01*
X123685000Y-119791939D01*
X123685000Y-119588061D01*
X123645226Y-119388102D01*
X123567205Y-119199744D01*
X123453937Y-119030226D01*
X123309774Y-118886063D01*
X123140256Y-118772795D01*
X122951898Y-118694774D01*
X122751939Y-118655000D01*
X122548061Y-118655000D01*
X122348102Y-118694774D01*
X122159744Y-118772795D01*
X121990226Y-118886063D01*
X121966289Y-118910000D01*
X118773711Y-118910000D01*
X118729774Y-118866063D01*
X118560256Y-118752795D01*
X118371898Y-118674774D01*
X118171939Y-118635000D01*
X117968061Y-118635000D01*
X117768102Y-118674774D01*
X117579744Y-118752795D01*
X117410226Y-118866063D01*
X117266063Y-119010226D01*
X117152795Y-119179744D01*
X117074774Y-119368102D01*
X117035000Y-119568061D01*
X115645000Y-119568061D01*
X115645000Y-112098061D01*
X122485000Y-112098061D01*
X122485000Y-112301939D01*
X122524774Y-112501898D01*
X122602795Y-112690256D01*
X122716063Y-112859774D01*
X122790001Y-112933712D01*
X122790000Y-116216289D01*
X122746063Y-116260226D01*
X122632795Y-116429744D01*
X122554774Y-116618102D01*
X122515000Y-116818061D01*
X122515000Y-117021939D01*
X122554774Y-117221898D01*
X122632795Y-117410256D01*
X122746063Y-117579774D01*
X122890226Y-117723937D01*
X123059744Y-117837205D01*
X123248102Y-117915226D01*
X123448061Y-117955000D01*
X123651939Y-117955000D01*
X123851898Y-117915226D01*
X124040256Y-117837205D01*
X124209774Y-117723937D01*
X124353937Y-117579774D01*
X124467205Y-117410256D01*
X124545226Y-117221898D01*
X124585000Y-117021939D01*
X124585000Y-116818061D01*
X124545226Y-116618102D01*
X124467205Y-116429744D01*
X124353937Y-116260226D01*
X124310000Y-116216289D01*
X124310000Y-114333740D01*
X125645000Y-114333740D01*
X125645000Y-114626260D01*
X125702068Y-114913158D01*
X125814010Y-115183411D01*
X125976525Y-115426632D01*
X126183368Y-115633475D01*
X126357760Y-115750000D01*
X126183368Y-115866525D01*
X125976525Y-116073368D01*
X125814010Y-116316589D01*
X125702068Y-116586842D01*
X125645000Y-116873740D01*
X125645000Y-117166260D01*
X125702068Y-117453158D01*
X125814010Y-117723411D01*
X125976525Y-117966632D01*
X126183368Y-118173475D01*
X126357760Y-118290000D01*
X126183368Y-118406525D01*
X125976525Y-118613368D01*
X125814010Y-118856589D01*
X125702068Y-119126842D01*
X125645000Y-119413740D01*
X125645000Y-119706260D01*
X125702068Y-119993158D01*
X125814010Y-120263411D01*
X125976525Y-120506632D01*
X126183368Y-120713475D01*
X126357760Y-120830000D01*
X126183368Y-120946525D01*
X125976525Y-121153368D01*
X125814010Y-121396589D01*
X125702068Y-121666842D01*
X125645000Y-121953740D01*
X125645000Y-122246260D01*
X125702068Y-122533158D01*
X125814010Y-122803411D01*
X125976525Y-123046632D01*
X126183368Y-123253475D01*
X126357760Y-123370000D01*
X126183368Y-123486525D01*
X125976525Y-123693368D01*
X125814010Y-123936589D01*
X125702068Y-124206842D01*
X125645000Y-124493740D01*
X125645000Y-124786260D01*
X125702068Y-125073158D01*
X125814010Y-125343411D01*
X125976525Y-125586632D01*
X126183368Y-125793475D01*
X126365534Y-125915195D01*
X126248645Y-125984822D01*
X126032412Y-126179731D01*
X125858359Y-126413080D01*
X125733175Y-126675901D01*
X125688524Y-126823110D01*
X125809845Y-127053000D01*
X127003000Y-127053000D01*
X127003000Y-127033000D01*
X127257000Y-127033000D01*
X127257000Y-127053000D01*
X128450155Y-127053000D01*
X128571476Y-126823110D01*
X128526825Y-126675901D01*
X128401641Y-126413080D01*
X128227588Y-126179731D01*
X128011355Y-125984822D01*
X127894466Y-125915195D01*
X128076632Y-125793475D01*
X128283475Y-125586632D01*
X128445990Y-125343411D01*
X128557932Y-125073158D01*
X128615000Y-124786260D01*
X128615000Y-124493740D01*
X128557932Y-124206842D01*
X128445990Y-123936589D01*
X128283475Y-123693368D01*
X128076632Y-123486525D01*
X127902240Y-123370000D01*
X128076632Y-123253475D01*
X128283475Y-123046632D01*
X128445990Y-122803411D01*
X128557932Y-122533158D01*
X128615000Y-122246260D01*
X128615000Y-121953740D01*
X128557932Y-121666842D01*
X128445990Y-121396589D01*
X128283475Y-121153368D01*
X128076632Y-120946525D01*
X127902240Y-120830000D01*
X128076632Y-120713475D01*
X128283475Y-120506632D01*
X128445990Y-120263411D01*
X128557932Y-119993158D01*
X128615000Y-119706260D01*
X128615000Y-119413740D01*
X128557932Y-119126842D01*
X128445990Y-118856589D01*
X128294587Y-118629999D01*
X130866994Y-118629999D01*
X130904316Y-118633675D01*
X130941638Y-118629999D01*
X130941649Y-118629999D01*
X130943869Y-118629780D01*
X131059744Y-118707205D01*
X131248102Y-118785226D01*
X131448061Y-118825000D01*
X131651939Y-118825000D01*
X131844535Y-118786691D01*
X131830147Y-118821426D01*
X131775000Y-119098665D01*
X131775000Y-119381335D01*
X131830147Y-119658574D01*
X131938320Y-119919727D01*
X132095363Y-120154759D01*
X132295241Y-120354637D01*
X132527759Y-120510000D01*
X132295241Y-120665363D01*
X132095363Y-120865241D01*
X131938320Y-121100273D01*
X131830147Y-121361426D01*
X131775000Y-121638665D01*
X131775000Y-121921335D01*
X131830147Y-122198574D01*
X131938320Y-122459727D01*
X132095363Y-122694759D01*
X132295241Y-122894637D01*
X132527759Y-123050000D01*
X132295241Y-123205363D01*
X132095363Y-123405241D01*
X131938320Y-123640273D01*
X131830147Y-123901426D01*
X131775000Y-124178665D01*
X131775000Y-124461335D01*
X131830147Y-124738574D01*
X131938320Y-124999727D01*
X132095363Y-125234759D01*
X132295241Y-125434637D01*
X132527759Y-125590000D01*
X132295241Y-125745363D01*
X132095363Y-125945241D01*
X131938320Y-126180273D01*
X131830147Y-126441426D01*
X131775000Y-126718665D01*
X131775000Y-127001335D01*
X131830147Y-127278574D01*
X131938320Y-127539727D01*
X132095363Y-127774759D01*
X132295241Y-127974637D01*
X132527759Y-128130000D01*
X132295241Y-128285363D01*
X132095363Y-128485241D01*
X131938320Y-128720273D01*
X131830147Y-128981426D01*
X131775000Y-129258665D01*
X131775000Y-129541335D01*
X131830147Y-129818574D01*
X131938320Y-130079727D01*
X132095363Y-130314759D01*
X132295241Y-130514637D01*
X132527759Y-130670000D01*
X132295241Y-130825363D01*
X132095363Y-131025241D01*
X131938320Y-131260273D01*
X131830147Y-131521426D01*
X131775000Y-131798665D01*
X131775000Y-132081335D01*
X131830147Y-132358574D01*
X131938320Y-132619727D01*
X132095363Y-132854759D01*
X132295241Y-133054637D01*
X132530273Y-133211680D01*
X132540865Y-133216067D01*
X132354869Y-133327615D01*
X132146481Y-133516586D01*
X131978963Y-133742580D01*
X131858754Y-133996913D01*
X131818096Y-134130961D01*
X131940085Y-134353000D01*
X133083000Y-134353000D01*
X133083000Y-134333000D01*
X133337000Y-134333000D01*
X133337000Y-134353000D01*
X134479915Y-134353000D01*
X134601904Y-134130961D01*
X134561246Y-133996913D01*
X134441037Y-133742580D01*
X134273519Y-133516586D01*
X134065131Y-133327615D01*
X133879135Y-133216067D01*
X133889727Y-133211680D01*
X134124759Y-133054637D01*
X134324637Y-132854759D01*
X134481680Y-132619727D01*
X134589853Y-132358574D01*
X134645000Y-132081335D01*
X134645000Y-131798665D01*
X134589853Y-131521426D01*
X134481680Y-131260273D01*
X134324637Y-131025241D01*
X134124759Y-130825363D01*
X133892241Y-130670000D01*
X134124759Y-130514637D01*
X134324637Y-130314759D01*
X134481680Y-130079727D01*
X134589853Y-129818574D01*
X134645000Y-129541335D01*
X134645000Y-129258665D01*
X134589853Y-128981426D01*
X134481680Y-128720273D01*
X134324637Y-128485241D01*
X134124759Y-128285363D01*
X133892241Y-128130000D01*
X134124759Y-127974637D01*
X134324637Y-127774759D01*
X134481680Y-127539727D01*
X134589853Y-127278574D01*
X134645000Y-127001335D01*
X134645000Y-126718665D01*
X134589853Y-126441426D01*
X134481680Y-126180273D01*
X134324637Y-125945241D01*
X134124759Y-125745363D01*
X133892241Y-125590000D01*
X134124759Y-125434637D01*
X134324637Y-125234759D01*
X134481680Y-124999727D01*
X134589853Y-124738574D01*
X134645000Y-124461335D01*
X134645000Y-124178665D01*
X134589853Y-123901426D01*
X134481680Y-123640273D01*
X134324637Y-123405241D01*
X134124759Y-123205363D01*
X133892241Y-123050000D01*
X134124759Y-122894637D01*
X134324637Y-122694759D01*
X134481680Y-122459727D01*
X134589853Y-122198574D01*
X134645000Y-121921335D01*
X134645000Y-121638665D01*
X134589853Y-121361426D01*
X134481680Y-121100273D01*
X134324637Y-120865241D01*
X134124759Y-120665363D01*
X133892241Y-120510000D01*
X134124759Y-120354637D01*
X134324637Y-120154759D01*
X134481680Y-119919727D01*
X134589853Y-119658574D01*
X134645000Y-119381335D01*
X134645000Y-119098665D01*
X134589853Y-118821426D01*
X134481680Y-118560273D01*
X134324637Y-118325241D01*
X134124759Y-118125363D01*
X133892241Y-117970000D01*
X134124759Y-117814637D01*
X134324637Y-117614759D01*
X134481680Y-117379727D01*
X134589853Y-117118574D01*
X134645000Y-116841335D01*
X134645000Y-116558665D01*
X134622157Y-116443826D01*
X134628061Y-116445000D01*
X134831939Y-116445000D01*
X135031898Y-116405226D01*
X135220256Y-116327205D01*
X135330000Y-116253876D01*
X135330001Y-117306288D01*
X135286063Y-117350226D01*
X135172795Y-117519744D01*
X135094774Y-117708102D01*
X135055000Y-117908061D01*
X135055000Y-118111939D01*
X135094774Y-118311898D01*
X135172795Y-118500256D01*
X135286063Y-118669774D01*
X135430226Y-118813937D01*
X135599744Y-118927205D01*
X135788102Y-119005226D01*
X135988061Y-119045000D01*
X136191939Y-119045000D01*
X136391898Y-119005226D01*
X136580256Y-118927205D01*
X136652732Y-118878778D01*
X136652347Y-118880714D01*
X136652347Y-119084592D01*
X136692121Y-119284551D01*
X136770142Y-119472909D01*
X136883410Y-119642427D01*
X136927347Y-119686364D01*
X136927348Y-120583017D01*
X136923671Y-120620349D01*
X136927348Y-120657682D01*
X136932009Y-120705000D01*
X136938345Y-120769334D01*
X136981801Y-120912595D01*
X137052373Y-121044625D01*
X137123548Y-121131351D01*
X137147347Y-121160350D01*
X137176345Y-121184148D01*
X137989573Y-121997377D01*
X137726260Y-121945000D01*
X137433740Y-121945000D01*
X137146842Y-122002068D01*
X136876589Y-122114010D01*
X136633368Y-122276525D01*
X136426525Y-122483368D01*
X136264010Y-122726589D01*
X136152068Y-122996842D01*
X136095000Y-123283740D01*
X136095000Y-123576260D01*
X136152068Y-123863158D01*
X136264010Y-124133411D01*
X136426525Y-124376632D01*
X136633368Y-124583475D01*
X136807760Y-124700000D01*
X136633368Y-124816525D01*
X136426525Y-125023368D01*
X136264010Y-125266589D01*
X136152068Y-125536842D01*
X136095000Y-125823740D01*
X136095000Y-126116260D01*
X136152068Y-126403158D01*
X136264010Y-126673411D01*
X136426525Y-126916632D01*
X136633368Y-127123475D01*
X136807760Y-127240000D01*
X136633368Y-127356525D01*
X136426525Y-127563368D01*
X136264010Y-127806589D01*
X136152068Y-128076842D01*
X136095000Y-128363740D01*
X136095000Y-128656260D01*
X136152068Y-128943158D01*
X136264010Y-129213411D01*
X136426525Y-129456632D01*
X136633368Y-129663475D01*
X136807760Y-129780000D01*
X136633368Y-129896525D01*
X136426525Y-130103368D01*
X136264010Y-130346589D01*
X136152068Y-130616842D01*
X136095000Y-130903740D01*
X136095000Y-131196260D01*
X136152068Y-131483158D01*
X136264010Y-131753411D01*
X136426525Y-131996632D01*
X136633368Y-132203475D01*
X136807760Y-132320000D01*
X136633368Y-132436525D01*
X136426525Y-132643368D01*
X136264010Y-132886589D01*
X136152068Y-133156842D01*
X136095000Y-133443740D01*
X136095000Y-133736260D01*
X136152068Y-134023158D01*
X136264010Y-134293411D01*
X136426525Y-134536632D01*
X136558380Y-134668487D01*
X136485820Y-134690498D01*
X136375506Y-134749463D01*
X136278815Y-134828815D01*
X136199463Y-134925506D01*
X136140498Y-135035820D01*
X136104188Y-135155518D01*
X136091928Y-135280000D01*
X136095000Y-135844250D01*
X136253750Y-136003000D01*
X137453000Y-136003000D01*
X137453000Y-135983000D01*
X137707000Y-135983000D01*
X137707000Y-136003000D01*
X138906250Y-136003000D01*
X139065000Y-135844250D01*
X139068072Y-135280000D01*
X139055812Y-135155518D01*
X139019502Y-135035820D01*
X138960537Y-134925506D01*
X138881185Y-134828815D01*
X138784494Y-134749463D01*
X138674180Y-134690498D01*
X138601620Y-134668487D01*
X138733475Y-134536632D01*
X138895990Y-134293411D01*
X139007932Y-134023158D01*
X139065000Y-133736260D01*
X139065000Y-133443740D01*
X139007932Y-133156842D01*
X138895990Y-132886589D01*
X138733475Y-132643368D01*
X138526632Y-132436525D01*
X138352240Y-132320000D01*
X138526632Y-132203475D01*
X138733475Y-131996632D01*
X138895990Y-131753411D01*
X139007932Y-131483158D01*
X139065000Y-131196260D01*
X139065000Y-130903740D01*
X139007932Y-130616842D01*
X138895990Y-130346589D01*
X138733475Y-130103368D01*
X138526632Y-129896525D01*
X138352240Y-129780000D01*
X138526632Y-129663475D01*
X138733475Y-129456632D01*
X138895990Y-129213411D01*
X139007932Y-128943158D01*
X139065000Y-128656260D01*
X139065000Y-128363740D01*
X139007932Y-128076842D01*
X138895990Y-127806589D01*
X138733475Y-127563368D01*
X138526632Y-127356525D01*
X138352240Y-127240000D01*
X138526632Y-127123475D01*
X138733475Y-126916632D01*
X138895990Y-126673411D01*
X139007932Y-126403158D01*
X139065000Y-126116260D01*
X139065000Y-125823740D01*
X139007932Y-125536842D01*
X138895990Y-125266589D01*
X138733475Y-125023368D01*
X138526632Y-124816525D01*
X138352240Y-124700000D01*
X138526632Y-124583475D01*
X138733475Y-124376632D01*
X138895990Y-124133411D01*
X139007932Y-123863158D01*
X139065000Y-123576260D01*
X139065000Y-123283740D01*
X139007932Y-122996842D01*
X138895990Y-122726589D01*
X138733475Y-122483368D01*
X138537970Y-122287863D01*
X138559665Y-122290000D01*
X138559673Y-122290000D01*
X138596998Y-122293676D01*
X138634323Y-122290000D01*
X139006289Y-122290000D01*
X139050226Y-122333937D01*
X139219744Y-122447205D01*
X139408102Y-122525226D01*
X139608061Y-122565000D01*
X139700001Y-122565000D01*
X139700001Y-125296288D01*
X139656063Y-125340226D01*
X139542795Y-125509744D01*
X139464774Y-125698102D01*
X139425000Y-125898061D01*
X139425000Y-126101939D01*
X139464774Y-126301898D01*
X139542795Y-126490256D01*
X139656063Y-126659774D01*
X139800226Y-126803937D01*
X139969744Y-126917205D01*
X140158102Y-126995226D01*
X140358061Y-127035000D01*
X140561939Y-127035000D01*
X140761898Y-126995226D01*
X140950256Y-126917205D01*
X141119774Y-126803937D01*
X141263937Y-126659774D01*
X141377205Y-126490256D01*
X141455226Y-126301898D01*
X141495000Y-126101939D01*
X141495000Y-125898061D01*
X141455226Y-125698102D01*
X141377205Y-125509744D01*
X141263937Y-125340226D01*
X141220000Y-125296289D01*
X141220000Y-118957322D01*
X141223676Y-118919999D01*
X141220000Y-118882676D01*
X141220000Y-118882667D01*
X141209003Y-118771014D01*
X141165546Y-118627753D01*
X141094974Y-118495724D01*
X141000001Y-118379999D01*
X140971004Y-118356202D01*
X140665000Y-118050198D01*
X140665000Y-117988061D01*
X140625226Y-117788102D01*
X140547205Y-117599744D01*
X140433937Y-117430226D01*
X140289774Y-117286063D01*
X140120256Y-117172795D01*
X139931898Y-117094774D01*
X139731939Y-117055000D01*
X139528061Y-117055000D01*
X139328102Y-117094774D01*
X139139744Y-117172795D01*
X138970226Y-117286063D01*
X138826063Y-117430226D01*
X138712795Y-117599744D01*
X138634774Y-117788102D01*
X138595000Y-117988061D01*
X138595000Y-117995554D01*
X138448102Y-118024774D01*
X138259744Y-118102795D01*
X138246620Y-118111564D01*
X138177603Y-118065448D01*
X137989245Y-117987427D01*
X137789286Y-117947653D01*
X137585408Y-117947653D01*
X137385449Y-117987427D01*
X137197091Y-118065448D01*
X137124615Y-118113875D01*
X137125000Y-118111939D01*
X137125000Y-117908061D01*
X137114594Y-117855745D01*
X137229551Y-117832879D01*
X137417909Y-117754858D01*
X137587427Y-117641590D01*
X137731590Y-117497427D01*
X137844858Y-117327909D01*
X137922879Y-117139551D01*
X137953621Y-116985000D01*
X138131939Y-116985000D01*
X138331898Y-116945226D01*
X138520256Y-116867205D01*
X138689774Y-116753937D01*
X138833937Y-116609774D01*
X138947205Y-116440256D01*
X139025226Y-116251898D01*
X139065000Y-116051939D01*
X139065000Y-115848061D01*
X139025226Y-115648102D01*
X138947205Y-115459744D01*
X138833937Y-115290226D01*
X138689774Y-115146063D01*
X138620000Y-115099442D01*
X138620000Y-113853711D01*
X138663937Y-113809774D01*
X138777205Y-113640256D01*
X138855226Y-113451898D01*
X138895000Y-113251939D01*
X138895000Y-113048061D01*
X138885055Y-112998061D01*
X140075000Y-112998061D01*
X140075000Y-113201939D01*
X140114774Y-113401898D01*
X140192795Y-113590256D01*
X140306063Y-113759774D01*
X140450226Y-113903937D01*
X140619744Y-114017205D01*
X140808102Y-114095226D01*
X141008061Y-114135000D01*
X141211939Y-114135000D01*
X141411898Y-114095226D01*
X141600256Y-114017205D01*
X141769774Y-113903937D01*
X141913937Y-113759774D01*
X142027205Y-113590256D01*
X142105226Y-113401898D01*
X142145000Y-113201939D01*
X142145000Y-112998061D01*
X142105226Y-112798102D01*
X142027205Y-112609744D01*
X141913937Y-112440226D01*
X141870000Y-112396289D01*
X141870000Y-111944801D01*
X142005000Y-112079801D01*
X142005000Y-112141939D01*
X142044774Y-112341898D01*
X142122795Y-112530256D01*
X142236063Y-112699774D01*
X142380226Y-112843937D01*
X142549744Y-112957205D01*
X142738102Y-113035226D01*
X142938061Y-113075000D01*
X143141939Y-113075000D01*
X143341898Y-113035226D01*
X143530256Y-112957205D01*
X143699774Y-112843937D01*
X143843937Y-112699774D01*
X143957205Y-112530256D01*
X144035226Y-112341898D01*
X144075000Y-112141939D01*
X144075000Y-111938061D01*
X144035226Y-111738102D01*
X143957205Y-111549744D01*
X143847761Y-111385950D01*
X143883937Y-111349774D01*
X143997205Y-111180256D01*
X144075226Y-110991898D01*
X144115000Y-110791939D01*
X144115000Y-110588061D01*
X144075226Y-110388102D01*
X143997205Y-110199744D01*
X143883937Y-110030226D01*
X143820858Y-109967147D01*
X143820858Y-108604569D01*
X143864795Y-108560632D01*
X143978063Y-108391114D01*
X144056084Y-108202756D01*
X144095858Y-108002797D01*
X144095858Y-107798919D01*
X144056084Y-107598960D01*
X143978063Y-107410602D01*
X143864795Y-107241084D01*
X143720632Y-107096921D01*
X143551114Y-106983653D01*
X143362756Y-106905632D01*
X143162797Y-106865858D01*
X142958919Y-106865858D01*
X142758960Y-106905632D01*
X142570602Y-106983653D01*
X142401084Y-107096921D01*
X142256921Y-107241084D01*
X142143653Y-107410602D01*
X142112985Y-107484641D01*
X142019030Y-107484641D01*
X142014209Y-107485600D01*
X142003937Y-107470226D01*
X141859774Y-107326063D01*
X141690256Y-107212795D01*
X141501898Y-107134774D01*
X141301939Y-107095000D01*
X141098061Y-107095000D01*
X140898102Y-107134774D01*
X140709744Y-107212795D01*
X140540226Y-107326063D01*
X140396063Y-107470226D01*
X140282795Y-107639744D01*
X140204774Y-107828102D01*
X140165000Y-108028061D01*
X140165000Y-108231939D01*
X140204774Y-108431898D01*
X140282795Y-108620256D01*
X140352362Y-108724371D01*
X140350000Y-108748353D01*
X140350000Y-108748363D01*
X140346324Y-108785685D01*
X140350000Y-108823008D01*
X140350001Y-112396288D01*
X140306063Y-112440226D01*
X140192795Y-112609744D01*
X140114774Y-112798102D01*
X140075000Y-112998061D01*
X138885055Y-112998061D01*
X138855226Y-112848102D01*
X138777205Y-112659744D01*
X138663937Y-112490226D01*
X138519774Y-112346063D01*
X138350256Y-112232795D01*
X138161898Y-112154774D01*
X137961939Y-112115000D01*
X137758061Y-112115000D01*
X137558102Y-112154774D01*
X137419998Y-112211979D01*
X137444761Y-112087484D01*
X137444761Y-111883606D01*
X137404987Y-111683647D01*
X137326966Y-111495289D01*
X137213698Y-111325771D01*
X137069535Y-111181608D01*
X136900017Y-111068340D01*
X136711659Y-110990319D01*
X136511700Y-110950545D01*
X136449563Y-110950545D01*
X135193020Y-109694003D01*
X135169218Y-109665000D01*
X135053493Y-109570027D01*
X134921464Y-109499455D01*
X134778203Y-109455998D01*
X134666550Y-109445001D01*
X134666539Y-109445001D01*
X134629217Y-109441325D01*
X134600682Y-109444136D01*
X134645000Y-109221335D01*
X134645000Y-108938665D01*
X134589853Y-108661426D01*
X134481680Y-108400273D01*
X134324637Y-108165241D01*
X134124759Y-107965363D01*
X133892241Y-107810000D01*
X134124759Y-107654637D01*
X134324637Y-107454759D01*
X134481680Y-107219727D01*
X134589853Y-106958574D01*
X134645000Y-106681335D01*
X134645000Y-106398665D01*
X134589853Y-106121426D01*
X134481680Y-105860273D01*
X134324637Y-105625241D01*
X134124759Y-105425363D01*
X133892241Y-105270000D01*
X134124759Y-105114637D01*
X134324637Y-104914759D01*
X134481680Y-104679727D01*
X134589853Y-104418574D01*
X134645000Y-104141335D01*
X134645000Y-103858665D01*
X134589853Y-103581426D01*
X134481680Y-103320273D01*
X134324637Y-103085241D01*
X134124759Y-102885363D01*
X133892241Y-102730000D01*
X134124759Y-102574637D01*
X134324637Y-102374759D01*
X134481680Y-102139727D01*
X134589853Y-101878574D01*
X134645000Y-101601335D01*
X134645000Y-101318665D01*
X134589853Y-101041426D01*
X134481680Y-100780273D01*
X134387953Y-100640000D01*
X136091928Y-100640000D01*
X136091928Y-102340000D01*
X136104188Y-102464482D01*
X136140498Y-102584180D01*
X136199463Y-102694494D01*
X136278815Y-102791185D01*
X136375506Y-102870537D01*
X136485820Y-102929502D01*
X136605518Y-102965812D01*
X136730000Y-102978072D01*
X138430000Y-102978072D01*
X138554482Y-102965812D01*
X138674180Y-102929502D01*
X138784494Y-102870537D01*
X138881185Y-102791185D01*
X138960537Y-102694494D01*
X139019502Y-102584180D01*
X139055812Y-102464482D01*
X139068072Y-102340000D01*
X139068072Y-100640000D01*
X139055812Y-100515518D01*
X139019502Y-100395820D01*
X138960537Y-100285506D01*
X138881185Y-100188815D01*
X138784494Y-100109463D01*
X138674180Y-100050498D01*
X138593534Y-100026034D01*
X138677588Y-99950269D01*
X138851641Y-99716920D01*
X138976825Y-99454099D01*
X139021476Y-99306890D01*
X138900155Y-99077000D01*
X137707000Y-99077000D01*
X137707000Y-99097000D01*
X137453000Y-99097000D01*
X137453000Y-99077000D01*
X136259845Y-99077000D01*
X136138524Y-99306890D01*
X136183175Y-99454099D01*
X136308359Y-99716920D01*
X136482412Y-99950269D01*
X136566466Y-100026034D01*
X136485820Y-100050498D01*
X136375506Y-100109463D01*
X136278815Y-100188815D01*
X136199463Y-100285506D01*
X136140498Y-100395820D01*
X136104188Y-100515518D01*
X136091928Y-100640000D01*
X134387953Y-100640000D01*
X134324637Y-100545241D01*
X134124759Y-100345363D01*
X133892241Y-100190000D01*
X134124759Y-100034637D01*
X134324637Y-99834759D01*
X134481680Y-99599727D01*
X134589853Y-99338574D01*
X134645000Y-99061335D01*
X134645000Y-98778665D01*
X134589853Y-98501426D01*
X134481680Y-98240273D01*
X134324637Y-98005241D01*
X134124759Y-97805363D01*
X133892241Y-97650000D01*
X134124759Y-97494637D01*
X134324637Y-97294759D01*
X134481680Y-97059727D01*
X134589853Y-96798574D01*
X134645000Y-96521335D01*
X134645000Y-96238665D01*
X134589853Y-95961426D01*
X134481680Y-95700273D01*
X134324637Y-95465241D01*
X134124759Y-95265363D01*
X133892241Y-95110000D01*
X134124759Y-94954637D01*
X134324637Y-94754759D01*
X134481680Y-94519727D01*
X134589853Y-94258574D01*
X134645000Y-93981335D01*
X134645000Y-93698665D01*
X134589853Y-93421426D01*
X134481680Y-93160273D01*
X134324637Y-92925241D01*
X134124759Y-92725363D01*
X133892241Y-92570000D01*
X134124759Y-92414637D01*
X134324637Y-92214759D01*
X134481680Y-91979727D01*
X134589853Y-91718574D01*
X134645000Y-91441335D01*
X134645000Y-91158665D01*
X134589853Y-90881426D01*
X134481680Y-90620273D01*
X134324637Y-90385241D01*
X134124759Y-90185363D01*
X133889727Y-90028320D01*
X133879135Y-90023933D01*
X134065131Y-89912385D01*
X134273519Y-89723414D01*
X134441037Y-89497420D01*
X134561246Y-89243087D01*
X134601904Y-89109039D01*
X134479915Y-88887000D01*
X133337000Y-88887000D01*
X133337000Y-88907000D01*
X133083000Y-88907000D01*
X133083000Y-88887000D01*
X131940085Y-88887000D01*
X131818096Y-89109039D01*
X131858754Y-89243087D01*
X131978963Y-89497420D01*
X132146481Y-89723414D01*
X132354869Y-89912385D01*
X132540865Y-90023933D01*
X132530273Y-90028320D01*
X132295241Y-90185363D01*
X132095363Y-90385241D01*
X131938320Y-90620273D01*
X131830147Y-90881426D01*
X131775000Y-91158665D01*
X131775000Y-91441335D01*
X131830147Y-91718574D01*
X131938320Y-91979727D01*
X132095363Y-92214759D01*
X132295241Y-92414637D01*
X132527759Y-92570000D01*
X132295241Y-92725363D01*
X132095363Y-92925241D01*
X131938320Y-93160273D01*
X131830147Y-93421426D01*
X131775000Y-93698665D01*
X131775000Y-93981335D01*
X131830147Y-94258574D01*
X131938320Y-94519727D01*
X132095363Y-94754759D01*
X132295241Y-94954637D01*
X132527759Y-95110000D01*
X132295241Y-95265363D01*
X132095363Y-95465241D01*
X131938320Y-95700273D01*
X131830147Y-95961426D01*
X131775000Y-96238665D01*
X131775000Y-96521335D01*
X131830147Y-96798574D01*
X131938320Y-97059727D01*
X132095363Y-97294759D01*
X132295241Y-97494637D01*
X132527759Y-97650000D01*
X132295241Y-97805363D01*
X132095363Y-98005241D01*
X131938320Y-98240273D01*
X131830147Y-98501426D01*
X131775000Y-98778665D01*
X131775000Y-99061335D01*
X131830147Y-99338574D01*
X131938320Y-99599727D01*
X132095363Y-99834759D01*
X132295241Y-100034637D01*
X132527759Y-100190000D01*
X132295241Y-100345363D01*
X132095363Y-100545241D01*
X131938320Y-100780273D01*
X131830147Y-101041426D01*
X131775000Y-101318665D01*
X131775000Y-101601335D01*
X131830147Y-101878574D01*
X131938320Y-102139727D01*
X132095363Y-102374759D01*
X132295241Y-102574637D01*
X132527759Y-102730000D01*
X132295241Y-102885363D01*
X132095363Y-103085241D01*
X131938320Y-103320273D01*
X131830147Y-103581426D01*
X131775000Y-103858665D01*
X131775000Y-104141335D01*
X131830147Y-104418574D01*
X131938320Y-104679727D01*
X132095363Y-104914759D01*
X132295241Y-105114637D01*
X132527759Y-105270000D01*
X132295241Y-105425363D01*
X132095363Y-105625241D01*
X131938320Y-105860273D01*
X131830147Y-106121426D01*
X131775000Y-106398665D01*
X131775000Y-106681335D01*
X131830147Y-106958574D01*
X131938320Y-107219727D01*
X132095363Y-107454759D01*
X132160411Y-107519807D01*
X132000256Y-107412795D01*
X131811898Y-107334774D01*
X131611939Y-107295000D01*
X131408061Y-107295000D01*
X131208102Y-107334774D01*
X131019744Y-107412795D01*
X130850226Y-107526063D01*
X130706063Y-107670226D01*
X130592795Y-107839744D01*
X130514774Y-108028102D01*
X130475000Y-108228061D01*
X130475000Y-108431939D01*
X130514774Y-108631898D01*
X130592795Y-108820256D01*
X130706063Y-108989774D01*
X130747666Y-109031377D01*
X130746324Y-109045002D01*
X130750000Y-109082324D01*
X130750000Y-109082334D01*
X130760997Y-109193987D01*
X130800307Y-109323578D01*
X130804454Y-109337248D01*
X130875026Y-109469278D01*
X130893043Y-109491231D01*
X130969999Y-109585003D01*
X130999003Y-109608806D01*
X132095400Y-110705204D01*
X132095363Y-110705241D01*
X131938320Y-110940273D01*
X131830147Y-111201426D01*
X131775000Y-111478665D01*
X131775000Y-111751467D01*
X131641939Y-111725000D01*
X131438061Y-111725000D01*
X131238102Y-111764774D01*
X131049744Y-111842795D01*
X130880226Y-111956063D01*
X130736063Y-112100226D01*
X130622795Y-112269744D01*
X130544774Y-112458102D01*
X130505000Y-112658061D01*
X130505000Y-112861939D01*
X130544774Y-113061898D01*
X130622795Y-113250256D01*
X130736063Y-113419774D01*
X130880226Y-113563937D01*
X131049744Y-113677205D01*
X131238102Y-113755226D01*
X131438061Y-113795000D01*
X131641939Y-113795000D01*
X131826805Y-113758228D01*
X131775000Y-114018665D01*
X131775000Y-114301335D01*
X131830147Y-114578574D01*
X131859733Y-114650000D01*
X128610278Y-114650000D01*
X128615000Y-114626260D01*
X128615000Y-114333740D01*
X128557932Y-114046842D01*
X128445990Y-113776589D01*
X128283475Y-113533368D01*
X128076632Y-113326525D01*
X127833411Y-113164010D01*
X127563158Y-113052068D01*
X127276260Y-112995000D01*
X126983740Y-112995000D01*
X126696842Y-113052068D01*
X126426589Y-113164010D01*
X126183368Y-113326525D01*
X125976525Y-113533368D01*
X125814010Y-113776589D01*
X125702068Y-114046842D01*
X125645000Y-114333740D01*
X124310000Y-114333740D01*
X124310000Y-112873711D01*
X124323937Y-112859774D01*
X124437205Y-112690256D01*
X124515226Y-112501898D01*
X124555000Y-112301939D01*
X124555000Y-112098061D01*
X124515226Y-111898102D01*
X124437205Y-111709744D01*
X124323937Y-111540226D01*
X124179774Y-111396063D01*
X124010256Y-111282795D01*
X123821898Y-111204774D01*
X123621939Y-111165000D01*
X123418061Y-111165000D01*
X123218102Y-111204774D01*
X123029744Y-111282795D01*
X122860226Y-111396063D01*
X122716063Y-111540226D01*
X122602795Y-111709744D01*
X122524774Y-111898102D01*
X122485000Y-112098061D01*
X115645000Y-112098061D01*
X115645000Y-108380000D01*
X125771928Y-108380000D01*
X125771928Y-110080000D01*
X125784188Y-110204482D01*
X125820498Y-110324180D01*
X125879463Y-110434494D01*
X125958815Y-110531185D01*
X126055506Y-110610537D01*
X126165820Y-110669502D01*
X126285518Y-110705812D01*
X126410000Y-110718072D01*
X128110000Y-110718072D01*
X128234482Y-110705812D01*
X128354180Y-110669502D01*
X128464494Y-110610537D01*
X128561185Y-110531185D01*
X128640537Y-110434494D01*
X128699502Y-110324180D01*
X128735812Y-110204482D01*
X128748072Y-110080000D01*
X128748072Y-108380000D01*
X128735812Y-108255518D01*
X128699502Y-108135820D01*
X128640537Y-108025506D01*
X128561185Y-107928815D01*
X128464494Y-107849463D01*
X128354180Y-107790498D01*
X128281620Y-107768487D01*
X128413475Y-107636632D01*
X128575990Y-107393411D01*
X128687932Y-107123158D01*
X128745000Y-106836260D01*
X128745000Y-106543740D01*
X128687932Y-106256842D01*
X128575990Y-105986589D01*
X128413475Y-105743368D01*
X128206632Y-105536525D01*
X128032240Y-105420000D01*
X128206632Y-105303475D01*
X128413475Y-105096632D01*
X128575990Y-104853411D01*
X128687932Y-104583158D01*
X128745000Y-104296260D01*
X128745000Y-104003740D01*
X128687932Y-103716842D01*
X128580582Y-103457674D01*
X128639744Y-103497205D01*
X128828102Y-103575226D01*
X129028061Y-103615000D01*
X129231939Y-103615000D01*
X129431898Y-103575226D01*
X129620256Y-103497205D01*
X129789774Y-103383937D01*
X129835877Y-103337834D01*
X129997586Y-103370000D01*
X130201464Y-103370000D01*
X130401423Y-103330226D01*
X130589781Y-103252205D01*
X130759299Y-103138937D01*
X130903462Y-102994774D01*
X131016730Y-102825256D01*
X131094751Y-102636898D01*
X131134525Y-102436939D01*
X131134525Y-102233061D01*
X131094751Y-102033102D01*
X131016730Y-101844744D01*
X130903462Y-101675226D01*
X130859525Y-101631289D01*
X130859525Y-97954186D01*
X130913937Y-97899774D01*
X131027205Y-97730256D01*
X131105226Y-97541898D01*
X131145000Y-97341939D01*
X131145000Y-97138061D01*
X131105226Y-96938102D01*
X131027205Y-96749744D01*
X130913937Y-96580226D01*
X130769774Y-96436063D01*
X130600256Y-96322795D01*
X130411898Y-96244774D01*
X130211939Y-96205000D01*
X130008061Y-96205000D01*
X129808102Y-96244774D01*
X129619744Y-96322795D01*
X129450226Y-96436063D01*
X129306063Y-96580226D01*
X129192795Y-96749744D01*
X129114774Y-96938102D01*
X129079587Y-97115000D01*
X129028061Y-97115000D01*
X128828102Y-97154774D01*
X128639744Y-97232795D01*
X128525312Y-97309256D01*
X128575990Y-97233411D01*
X128687932Y-96963158D01*
X128745000Y-96676260D01*
X128745000Y-96383740D01*
X128687932Y-96096842D01*
X128575990Y-95826589D01*
X128413475Y-95583368D01*
X128206632Y-95376525D01*
X128032240Y-95260000D01*
X128206632Y-95143475D01*
X128413475Y-94936632D01*
X128575990Y-94693411D01*
X128687932Y-94423158D01*
X128745000Y-94136260D01*
X128745000Y-93843740D01*
X128687932Y-93556842D01*
X128575990Y-93286589D01*
X128413475Y-93043368D01*
X128206632Y-92836525D01*
X128024466Y-92714805D01*
X128141355Y-92645178D01*
X128357588Y-92450269D01*
X128531641Y-92216920D01*
X128656825Y-91954099D01*
X128701476Y-91806890D01*
X128580155Y-91577000D01*
X127387000Y-91577000D01*
X127387000Y-91597000D01*
X127133000Y-91597000D01*
X127133000Y-91577000D01*
X125939845Y-91577000D01*
X125818524Y-91806890D01*
X125863175Y-91954099D01*
X125988359Y-92216920D01*
X126162412Y-92450269D01*
X126378645Y-92645178D01*
X126495534Y-92714805D01*
X126313368Y-92836525D01*
X126106525Y-93043368D01*
X125944010Y-93286589D01*
X125832068Y-93556842D01*
X125775000Y-93843740D01*
X125775000Y-94136260D01*
X125832068Y-94423158D01*
X125944010Y-94693411D01*
X126106525Y-94936632D01*
X126313368Y-95143475D01*
X126487760Y-95260000D01*
X126313368Y-95376525D01*
X126106525Y-95583368D01*
X125944010Y-95826589D01*
X125832068Y-96096842D01*
X125775000Y-96383740D01*
X125775000Y-96676260D01*
X125832068Y-96963158D01*
X125944010Y-97233411D01*
X126106525Y-97476632D01*
X126313368Y-97683475D01*
X126487760Y-97800000D01*
X126313368Y-97916525D01*
X126106525Y-98123368D01*
X125944010Y-98366589D01*
X125832068Y-98636842D01*
X125775000Y-98923740D01*
X125775000Y-99216260D01*
X125832068Y-99503158D01*
X125944010Y-99773411D01*
X126106525Y-100016632D01*
X126313368Y-100223475D01*
X126487760Y-100340000D01*
X126313368Y-100456525D01*
X126106525Y-100663368D01*
X125944010Y-100906589D01*
X125832068Y-101176842D01*
X125775000Y-101463740D01*
X125775000Y-101756260D01*
X125832068Y-102043158D01*
X125944010Y-102313411D01*
X126106525Y-102556632D01*
X126313368Y-102763475D01*
X126487760Y-102880000D01*
X126313368Y-102996525D01*
X126106525Y-103203368D01*
X125944010Y-103446589D01*
X125832068Y-103716842D01*
X125775000Y-104003740D01*
X125775000Y-104296260D01*
X125832068Y-104583158D01*
X125944010Y-104853411D01*
X126106525Y-105096632D01*
X126313368Y-105303475D01*
X126487760Y-105420000D01*
X126313368Y-105536525D01*
X126106525Y-105743368D01*
X125944010Y-105986589D01*
X125832068Y-106256842D01*
X125775000Y-106543740D01*
X125775000Y-106836260D01*
X125832068Y-107123158D01*
X125944010Y-107393411D01*
X126106525Y-107636632D01*
X126238380Y-107768487D01*
X126165820Y-107790498D01*
X126055506Y-107849463D01*
X125958815Y-107928815D01*
X125879463Y-108025506D01*
X125820498Y-108135820D01*
X125784188Y-108255518D01*
X125771928Y-108380000D01*
X115645000Y-108380000D01*
X115645000Y-97834685D01*
X121750000Y-97834685D01*
X121750000Y-98185315D01*
X121818404Y-98529207D01*
X121952584Y-98853146D01*
X122147383Y-99144684D01*
X122395316Y-99392617D01*
X122570992Y-99510000D01*
X122395316Y-99627383D01*
X122147383Y-99875316D01*
X121952584Y-100166854D01*
X121818404Y-100490793D01*
X121750000Y-100834685D01*
X121750000Y-101185315D01*
X121818404Y-101529207D01*
X121952584Y-101853146D01*
X122147383Y-102144684D01*
X122395316Y-102392617D01*
X122686854Y-102587416D01*
X123010793Y-102721596D01*
X123354685Y-102790000D01*
X123705315Y-102790000D01*
X124049207Y-102721596D01*
X124373146Y-102587416D01*
X124664684Y-102392617D01*
X124912617Y-102144684D01*
X125107416Y-101853146D01*
X125241596Y-101529207D01*
X125310000Y-101185315D01*
X125310000Y-100834685D01*
X125241596Y-100490793D01*
X125107416Y-100166854D01*
X124912617Y-99875316D01*
X124664684Y-99627383D01*
X124489008Y-99510000D01*
X124664684Y-99392617D01*
X124912617Y-99144684D01*
X125107416Y-98853146D01*
X125241596Y-98529207D01*
X125310000Y-98185315D01*
X125310000Y-97834685D01*
X125241596Y-97490793D01*
X125107416Y-97166854D01*
X124912617Y-96875316D01*
X124664684Y-96627383D01*
X124373146Y-96432584D01*
X124049207Y-96298404D01*
X123705315Y-96230000D01*
X123354685Y-96230000D01*
X123010793Y-96298404D01*
X122686854Y-96432584D01*
X122395316Y-96627383D01*
X122147383Y-96875316D01*
X121952584Y-97166854D01*
X121818404Y-97490793D01*
X121750000Y-97834685D01*
X115645000Y-97834685D01*
X115645000Y-88763740D01*
X125775000Y-88763740D01*
X125775000Y-89056260D01*
X125832068Y-89343158D01*
X125944010Y-89613411D01*
X126106525Y-89856632D01*
X126313368Y-90063475D01*
X126495534Y-90185195D01*
X126378645Y-90254822D01*
X126162412Y-90449731D01*
X125988359Y-90683080D01*
X125863175Y-90945901D01*
X125818524Y-91093110D01*
X125939845Y-91323000D01*
X127133000Y-91323000D01*
X127133000Y-91303000D01*
X127387000Y-91303000D01*
X127387000Y-91323000D01*
X128580155Y-91323000D01*
X128701476Y-91093110D01*
X128656825Y-90945901D01*
X128531641Y-90683080D01*
X128357588Y-90449731D01*
X128141355Y-90254822D01*
X128024466Y-90185195D01*
X128206632Y-90063475D01*
X128413475Y-89856632D01*
X128575990Y-89613411D01*
X128687932Y-89343158D01*
X128745000Y-89056260D01*
X128745000Y-88763740D01*
X128721131Y-88643740D01*
X136095000Y-88643740D01*
X136095000Y-88936260D01*
X136152068Y-89223158D01*
X136264010Y-89493411D01*
X136426525Y-89736632D01*
X136633368Y-89943475D01*
X136807760Y-90060000D01*
X136633368Y-90176525D01*
X136426525Y-90383368D01*
X136264010Y-90626589D01*
X136152068Y-90896842D01*
X136095000Y-91183740D01*
X136095000Y-91476260D01*
X136152068Y-91763158D01*
X136264010Y-92033411D01*
X136426525Y-92276632D01*
X136633368Y-92483475D01*
X136807760Y-92600000D01*
X136633368Y-92716525D01*
X136426525Y-92923368D01*
X136264010Y-93166589D01*
X136152068Y-93436842D01*
X136095000Y-93723740D01*
X136095000Y-94016260D01*
X136152068Y-94303158D01*
X136264010Y-94573411D01*
X136426525Y-94816632D01*
X136633368Y-95023475D01*
X136807760Y-95140000D01*
X136633368Y-95256525D01*
X136426525Y-95463368D01*
X136264010Y-95706589D01*
X136152068Y-95976842D01*
X136095000Y-96263740D01*
X136095000Y-96556260D01*
X136152068Y-96843158D01*
X136264010Y-97113411D01*
X136426525Y-97356632D01*
X136633368Y-97563475D01*
X136815534Y-97685195D01*
X136698645Y-97754822D01*
X136482412Y-97949731D01*
X136308359Y-98183080D01*
X136183175Y-98445901D01*
X136138524Y-98593110D01*
X136259845Y-98823000D01*
X137453000Y-98823000D01*
X137453000Y-98803000D01*
X137707000Y-98803000D01*
X137707000Y-98823000D01*
X138900155Y-98823000D01*
X139021476Y-98593110D01*
X138976825Y-98445901D01*
X138851641Y-98183080D01*
X138677588Y-97949731D01*
X138461355Y-97754822D01*
X138344466Y-97685195D01*
X138526632Y-97563475D01*
X138733475Y-97356632D01*
X138895990Y-97113411D01*
X139007932Y-96843158D01*
X139065000Y-96556260D01*
X139065000Y-96263740D01*
X139007932Y-95976842D01*
X138895990Y-95706589D01*
X138733475Y-95463368D01*
X138526632Y-95256525D01*
X138352240Y-95140000D01*
X138526632Y-95023475D01*
X138733475Y-94816632D01*
X138895990Y-94573411D01*
X139007932Y-94303158D01*
X139065000Y-94016260D01*
X139065000Y-93723740D01*
X139007932Y-93436842D01*
X138895990Y-93166589D01*
X138733475Y-92923368D01*
X138526632Y-92716525D01*
X138352240Y-92600000D01*
X138526632Y-92483475D01*
X138733475Y-92276632D01*
X138895990Y-92033411D01*
X139007932Y-91763158D01*
X139065000Y-91476260D01*
X139065000Y-91349801D01*
X144417347Y-96702149D01*
X144417348Y-105833635D01*
X144373410Y-105877573D01*
X144260142Y-106047091D01*
X144182121Y-106235449D01*
X144142347Y-106435408D01*
X144142347Y-106639286D01*
X144182121Y-106839245D01*
X144260142Y-107027603D01*
X144373410Y-107197121D01*
X144517573Y-107341284D01*
X144687091Y-107454552D01*
X144875449Y-107532573D01*
X145075408Y-107572347D01*
X145153121Y-107572347D01*
X145285099Y-107642892D01*
X145428360Y-107686349D01*
X145540013Y-107697346D01*
X145540023Y-107697346D01*
X145577345Y-107701022D01*
X145614668Y-107697346D01*
X146118943Y-107697346D01*
X146165533Y-107743936D01*
X146335051Y-107857204D01*
X146523409Y-107935225D01*
X146723368Y-107974999D01*
X146927246Y-107974999D01*
X147127205Y-107935225D01*
X147315563Y-107857204D01*
X147485081Y-107743936D01*
X147629244Y-107599773D01*
X147742512Y-107430255D01*
X147820533Y-107241897D01*
X147860307Y-107041938D01*
X147860307Y-106838060D01*
X147820533Y-106638101D01*
X147742512Y-106449743D01*
X147629244Y-106280225D01*
X147485081Y-106136062D01*
X147315563Y-106022794D01*
X147127205Y-105944773D01*
X146927246Y-105904999D01*
X146723368Y-105904999D01*
X146523409Y-105944773D01*
X146335051Y-106022794D01*
X146165533Y-106136062D01*
X146141401Y-106160194D01*
X146094552Y-106047091D01*
X145981284Y-105877573D01*
X145937347Y-105833636D01*
X145937347Y-99198061D01*
X147225000Y-99198061D01*
X147225000Y-99401939D01*
X147264774Y-99601898D01*
X147342795Y-99790256D01*
X147456063Y-99959774D01*
X147600226Y-100103937D01*
X147769744Y-100217205D01*
X147958102Y-100295226D01*
X147980000Y-100299582D01*
X147980001Y-103296288D01*
X147936063Y-103340226D01*
X147822795Y-103509744D01*
X147744774Y-103698102D01*
X147705000Y-103898061D01*
X147705000Y-104101939D01*
X147744774Y-104301898D01*
X147822795Y-104490256D01*
X147936063Y-104659774D01*
X148080226Y-104803937D01*
X148249744Y-104917205D01*
X148438102Y-104995226D01*
X148638061Y-105035000D01*
X148841939Y-105035000D01*
X149041898Y-104995226D01*
X149230256Y-104917205D01*
X149399774Y-104803937D01*
X149543937Y-104659774D01*
X149646484Y-104506300D01*
X149718320Y-104679727D01*
X149875363Y-104914759D01*
X150075241Y-105114637D01*
X150307759Y-105270000D01*
X150075241Y-105425363D01*
X149875363Y-105625241D01*
X149718320Y-105860273D01*
X149610147Y-106121426D01*
X149555000Y-106398665D01*
X149555000Y-106681335D01*
X149610147Y-106958574D01*
X149718320Y-107219727D01*
X149875363Y-107454759D01*
X150075241Y-107654637D01*
X150307759Y-107810000D01*
X150075241Y-107965363D01*
X149875363Y-108165241D01*
X149718320Y-108400273D01*
X149610147Y-108661426D01*
X149555000Y-108938665D01*
X149555000Y-109221335D01*
X149610147Y-109498574D01*
X149718320Y-109759727D01*
X149875363Y-109994759D01*
X150075241Y-110194637D01*
X150307759Y-110350000D01*
X150075241Y-110505363D01*
X149875363Y-110705241D01*
X149718320Y-110940273D01*
X149610147Y-111201426D01*
X149555000Y-111478665D01*
X149555000Y-111761335D01*
X149610147Y-112038574D01*
X149718320Y-112299727D01*
X149875363Y-112534759D01*
X150075241Y-112734637D01*
X150307759Y-112890000D01*
X150075241Y-113045363D01*
X149875363Y-113245241D01*
X149718320Y-113480273D01*
X149610147Y-113741426D01*
X149555000Y-114018665D01*
X149555000Y-114301335D01*
X149610147Y-114578574D01*
X149718320Y-114839727D01*
X149875363Y-115074759D01*
X150075241Y-115274637D01*
X150307759Y-115430000D01*
X150075241Y-115585363D01*
X149875363Y-115785241D01*
X149718320Y-116020273D01*
X149610147Y-116281426D01*
X149555000Y-116558665D01*
X149555000Y-116841335D01*
X149610147Y-117118574D01*
X149718320Y-117379727D01*
X149875363Y-117614759D01*
X150075241Y-117814637D01*
X150307759Y-117970000D01*
X150075241Y-118125363D01*
X149875363Y-118325241D01*
X149718320Y-118560273D01*
X149610147Y-118821426D01*
X149555000Y-119098665D01*
X149555000Y-119381335D01*
X149610147Y-119658574D01*
X149718320Y-119919727D01*
X149875363Y-120154759D01*
X150075241Y-120354637D01*
X150307759Y-120510000D01*
X150075241Y-120665363D01*
X149875363Y-120865241D01*
X149718320Y-121100273D01*
X149610147Y-121361426D01*
X149555000Y-121638665D01*
X149555000Y-121921335D01*
X149610147Y-122198574D01*
X149718320Y-122459727D01*
X149875363Y-122694759D01*
X150075241Y-122894637D01*
X150307759Y-123050000D01*
X150075241Y-123205363D01*
X149875363Y-123405241D01*
X149718320Y-123640273D01*
X149610147Y-123901426D01*
X149555000Y-124178665D01*
X149555000Y-124461335D01*
X149610147Y-124738574D01*
X149718320Y-124999727D01*
X149875363Y-125234759D01*
X150075241Y-125434637D01*
X150307759Y-125590000D01*
X150075241Y-125745363D01*
X149875363Y-125945241D01*
X149718320Y-126180273D01*
X149610147Y-126441426D01*
X149555000Y-126718665D01*
X149555000Y-127001335D01*
X149610147Y-127278574D01*
X149718320Y-127539727D01*
X149875363Y-127774759D01*
X150075241Y-127974637D01*
X150307759Y-128130000D01*
X150075241Y-128285363D01*
X149875363Y-128485241D01*
X149718320Y-128720273D01*
X149610147Y-128981426D01*
X149555000Y-129258665D01*
X149555000Y-129541335D01*
X149610147Y-129818574D01*
X149718320Y-130079727D01*
X149875363Y-130314759D01*
X150075241Y-130514637D01*
X150307759Y-130670000D01*
X150075241Y-130825363D01*
X149875363Y-131025241D01*
X149718320Y-131260273D01*
X149610147Y-131521426D01*
X149555000Y-131798665D01*
X149555000Y-132081335D01*
X149610147Y-132358574D01*
X149718320Y-132619727D01*
X149875363Y-132854759D01*
X150075241Y-133054637D01*
X150307759Y-133210000D01*
X150075241Y-133365363D01*
X149875363Y-133565241D01*
X149718320Y-133800273D01*
X149610147Y-134061426D01*
X149555000Y-134338665D01*
X149555000Y-134621335D01*
X149610147Y-134898574D01*
X149718320Y-135159727D01*
X149875363Y-135394759D01*
X150075241Y-135594637D01*
X150307759Y-135750000D01*
X150075241Y-135905363D01*
X149875363Y-136105241D01*
X149718320Y-136340273D01*
X149610147Y-136601426D01*
X149555000Y-136878665D01*
X149555000Y-137161335D01*
X149610147Y-137438574D01*
X149718320Y-137699727D01*
X149875363Y-137934759D01*
X150073961Y-138133357D01*
X150065518Y-138134188D01*
X149945820Y-138170498D01*
X149835506Y-138229463D01*
X149738815Y-138308815D01*
X149659463Y-138405506D01*
X149600498Y-138515820D01*
X149564188Y-138635518D01*
X149551928Y-138760000D01*
X149551928Y-140360000D01*
X149564188Y-140484482D01*
X149600498Y-140604180D01*
X149659463Y-140714494D01*
X149738815Y-140811185D01*
X149835506Y-140890537D01*
X149945820Y-140949502D01*
X150065518Y-140985812D01*
X150190000Y-140998072D01*
X151790000Y-140998072D01*
X151914482Y-140985812D01*
X152034180Y-140949502D01*
X152144494Y-140890537D01*
X152241185Y-140811185D01*
X152320537Y-140714494D01*
X152379502Y-140604180D01*
X152415812Y-140484482D01*
X152428072Y-140360000D01*
X152428072Y-138760000D01*
X152415812Y-138635518D01*
X152379502Y-138515820D01*
X152320537Y-138405506D01*
X152241185Y-138308815D01*
X152144494Y-138229463D01*
X152034180Y-138170498D01*
X151914482Y-138134188D01*
X151906039Y-138133357D01*
X152104637Y-137934759D01*
X152261680Y-137699727D01*
X152369853Y-137438574D01*
X152425000Y-137161335D01*
X152425000Y-136878665D01*
X152369853Y-136601426D01*
X152261680Y-136340273D01*
X152104637Y-136105241D01*
X151904759Y-135905363D01*
X151672241Y-135750000D01*
X151904759Y-135594637D01*
X152104637Y-135394759D01*
X152261680Y-135159727D01*
X152369853Y-134898574D01*
X152425000Y-134621335D01*
X152425000Y-134338665D01*
X152369853Y-134061426D01*
X152261680Y-133800273D01*
X152104637Y-133565241D01*
X151904759Y-133365363D01*
X151672241Y-133210000D01*
X151904759Y-133054637D01*
X152104637Y-132854759D01*
X152261680Y-132619727D01*
X152369853Y-132358574D01*
X152425000Y-132081335D01*
X152425000Y-131798665D01*
X152369853Y-131521426D01*
X152261680Y-131260273D01*
X152104637Y-131025241D01*
X151904759Y-130825363D01*
X151672241Y-130670000D01*
X151904759Y-130514637D01*
X152104637Y-130314759D01*
X152261680Y-130079727D01*
X152369853Y-129818574D01*
X152425000Y-129541335D01*
X152425000Y-129258665D01*
X152369853Y-128981426D01*
X152261680Y-128720273D01*
X152104637Y-128485241D01*
X151904759Y-128285363D01*
X151672241Y-128130000D01*
X151904759Y-127974637D01*
X152104637Y-127774759D01*
X152261680Y-127539727D01*
X152369853Y-127278574D01*
X152425000Y-127001335D01*
X152425000Y-126718665D01*
X152369853Y-126441426D01*
X152261680Y-126180273D01*
X152104637Y-125945241D01*
X151904759Y-125745363D01*
X151672241Y-125590000D01*
X151904759Y-125434637D01*
X152104637Y-125234759D01*
X152261680Y-124999727D01*
X152369853Y-124738574D01*
X152425000Y-124461335D01*
X152425000Y-124178665D01*
X152369853Y-123901426D01*
X152261680Y-123640273D01*
X152104637Y-123405241D01*
X151904759Y-123205363D01*
X151672241Y-123050000D01*
X151904759Y-122894637D01*
X152104637Y-122694759D01*
X152261680Y-122459727D01*
X152369853Y-122198574D01*
X152425000Y-121921335D01*
X152425000Y-121638665D01*
X152369853Y-121361426D01*
X152261680Y-121100273D01*
X152104637Y-120865241D01*
X151904759Y-120665363D01*
X151672241Y-120510000D01*
X151904759Y-120354637D01*
X152104637Y-120154759D01*
X152261680Y-119919727D01*
X152369853Y-119658574D01*
X152425000Y-119381335D01*
X152425000Y-119098665D01*
X152369853Y-118821426D01*
X152261680Y-118560273D01*
X152104637Y-118325241D01*
X151904759Y-118125363D01*
X151672241Y-117970000D01*
X151904759Y-117814637D01*
X152104637Y-117614759D01*
X152261680Y-117379727D01*
X152369853Y-117118574D01*
X152425000Y-116841335D01*
X152425000Y-116558665D01*
X152369853Y-116281426D01*
X152261680Y-116020273D01*
X152104637Y-115785241D01*
X151904759Y-115585363D01*
X151672241Y-115430000D01*
X151904759Y-115274637D01*
X152104637Y-115074759D01*
X152261680Y-114839727D01*
X152369853Y-114578574D01*
X152425000Y-114301335D01*
X152425000Y-114018665D01*
X152369853Y-113741426D01*
X152261680Y-113480273D01*
X152104637Y-113245241D01*
X151904759Y-113045363D01*
X151672241Y-112890000D01*
X151904759Y-112734637D01*
X152104637Y-112534759D01*
X152261680Y-112299727D01*
X152369853Y-112038574D01*
X152425000Y-111761335D01*
X152425000Y-111478665D01*
X152369853Y-111201426D01*
X152261680Y-110940273D01*
X152104637Y-110705241D01*
X151904759Y-110505363D01*
X151672241Y-110350000D01*
X151904759Y-110194637D01*
X152104637Y-109994759D01*
X152261680Y-109759727D01*
X152369853Y-109498574D01*
X152425000Y-109221335D01*
X152425000Y-108938665D01*
X152369853Y-108661426D01*
X152261680Y-108400273D01*
X152104637Y-108165241D01*
X151904759Y-107965363D01*
X151672241Y-107810000D01*
X151904759Y-107654637D01*
X152104637Y-107454759D01*
X152261680Y-107219727D01*
X152369853Y-106958574D01*
X152425000Y-106681335D01*
X152425000Y-106398665D01*
X152369853Y-106121426D01*
X152261680Y-105860273D01*
X152104637Y-105625241D01*
X151904759Y-105425363D01*
X151672241Y-105270000D01*
X151904759Y-105114637D01*
X152104637Y-104914759D01*
X152261680Y-104679727D01*
X152369853Y-104418574D01*
X152425000Y-104141335D01*
X152425000Y-103858665D01*
X152369853Y-103581426D01*
X152261680Y-103320273D01*
X152104637Y-103085241D01*
X151904759Y-102885363D01*
X151672241Y-102730000D01*
X151904759Y-102574637D01*
X152104637Y-102374759D01*
X152261680Y-102139727D01*
X152369853Y-101878574D01*
X152425000Y-101601335D01*
X152425000Y-101318665D01*
X152369853Y-101041426D01*
X152261680Y-100780273D01*
X152104637Y-100545241D01*
X151904759Y-100345363D01*
X151672241Y-100190000D01*
X151904759Y-100034637D01*
X152104637Y-99834759D01*
X152261680Y-99599727D01*
X152369853Y-99338574D01*
X152425000Y-99061335D01*
X152425000Y-98778665D01*
X152369853Y-98501426D01*
X152261680Y-98240273D01*
X152104637Y-98005241D01*
X151904759Y-97805363D01*
X151672241Y-97650000D01*
X151904759Y-97494637D01*
X152104637Y-97294759D01*
X152261680Y-97059727D01*
X152369853Y-96798574D01*
X152425000Y-96521335D01*
X152425000Y-96238665D01*
X152369853Y-95961426D01*
X152261680Y-95700273D01*
X152104637Y-95465241D01*
X151904759Y-95265363D01*
X151672241Y-95110000D01*
X151904759Y-94954637D01*
X152104637Y-94754759D01*
X152261680Y-94519727D01*
X152369853Y-94258574D01*
X152425000Y-93981335D01*
X152425000Y-93698665D01*
X152369853Y-93421426D01*
X152261680Y-93160273D01*
X152104637Y-92925241D01*
X151904759Y-92725363D01*
X151672241Y-92570000D01*
X151904759Y-92414637D01*
X152104637Y-92214759D01*
X152261680Y-91979727D01*
X152369853Y-91718574D01*
X152425000Y-91441335D01*
X152425000Y-91158665D01*
X152369853Y-90881426D01*
X152261680Y-90620273D01*
X152104637Y-90385241D01*
X151904759Y-90185363D01*
X151669727Y-90028320D01*
X151659135Y-90023933D01*
X151845131Y-89912385D01*
X152053519Y-89723414D01*
X152221037Y-89497420D01*
X152341246Y-89243087D01*
X152381904Y-89109039D01*
X152259915Y-88887000D01*
X151117000Y-88887000D01*
X151117000Y-88907000D01*
X150863000Y-88907000D01*
X150863000Y-88887000D01*
X149720085Y-88887000D01*
X149598096Y-89109039D01*
X149638754Y-89243087D01*
X149758963Y-89497420D01*
X149926481Y-89723414D01*
X150134869Y-89912385D01*
X150320865Y-90023933D01*
X150310273Y-90028320D01*
X150075241Y-90185363D01*
X149875363Y-90385241D01*
X149718320Y-90620273D01*
X149610147Y-90881426D01*
X149555000Y-91158665D01*
X149555000Y-91441335D01*
X149610147Y-91718574D01*
X149718320Y-91979727D01*
X149875363Y-92214759D01*
X150075241Y-92414637D01*
X150307759Y-92570000D01*
X150075241Y-92725363D01*
X149875363Y-92925241D01*
X149718320Y-93160273D01*
X149610147Y-93421426D01*
X149555000Y-93698665D01*
X149555000Y-93981335D01*
X149610147Y-94258574D01*
X149718320Y-94519727D01*
X149875363Y-94754759D01*
X150075241Y-94954637D01*
X150307759Y-95110000D01*
X150075241Y-95265363D01*
X149875363Y-95465241D01*
X149718320Y-95700273D01*
X149610147Y-95961426D01*
X149555000Y-96238665D01*
X149555000Y-96521335D01*
X149610147Y-96798574D01*
X149718320Y-97059727D01*
X149875363Y-97294759D01*
X150075241Y-97494637D01*
X150307759Y-97650000D01*
X150075241Y-97805363D01*
X149875363Y-98005241D01*
X149718320Y-98240273D01*
X149610147Y-98501426D01*
X149555000Y-98778665D01*
X149555000Y-99061335D01*
X149610147Y-99338574D01*
X149718320Y-99599727D01*
X149875363Y-99834759D01*
X150075241Y-100034637D01*
X150307759Y-100190000D01*
X150075241Y-100345363D01*
X149875363Y-100545241D01*
X149718320Y-100780273D01*
X149610147Y-101041426D01*
X149555000Y-101318665D01*
X149555000Y-101601335D01*
X149610147Y-101878574D01*
X149718320Y-102139727D01*
X149875363Y-102374759D01*
X150075241Y-102574637D01*
X150307759Y-102730000D01*
X150075241Y-102885363D01*
X149875363Y-103085241D01*
X149718320Y-103320273D01*
X149646484Y-103493700D01*
X149543937Y-103340226D01*
X149500000Y-103296289D01*
X149500000Y-99817333D01*
X149503677Y-99780000D01*
X149489003Y-99631014D01*
X149445546Y-99487753D01*
X149374974Y-99355724D01*
X149334897Y-99306890D01*
X149295000Y-99258275D01*
X149295000Y-99198061D01*
X149255226Y-98998102D01*
X149177205Y-98809744D01*
X149063937Y-98640226D01*
X148919774Y-98496063D01*
X148750256Y-98382795D01*
X148561898Y-98304774D01*
X148361939Y-98265000D01*
X148158061Y-98265000D01*
X147958102Y-98304774D01*
X147769744Y-98382795D01*
X147600226Y-98496063D01*
X147456063Y-98640226D01*
X147342795Y-98809744D01*
X147264774Y-98998102D01*
X147225000Y-99198061D01*
X145937347Y-99198061D01*
X145937347Y-96424669D01*
X145941023Y-96387346D01*
X145937347Y-96350023D01*
X145937347Y-96350014D01*
X145926350Y-96238361D01*
X145882893Y-96095100D01*
X145812321Y-95963071D01*
X145717348Y-95847346D01*
X145688351Y-95823549D01*
X139021209Y-89156408D01*
X139065000Y-88936260D01*
X139065000Y-88643740D01*
X139018698Y-88410961D01*
X149598096Y-88410961D01*
X149720085Y-88633000D01*
X150863000Y-88633000D01*
X150863000Y-87489376D01*
X151117000Y-87489376D01*
X151117000Y-88633000D01*
X152259915Y-88633000D01*
X152381904Y-88410961D01*
X152341246Y-88276913D01*
X152221037Y-88022580D01*
X152053519Y-87796586D01*
X151845131Y-87607615D01*
X151603881Y-87462930D01*
X151339040Y-87368091D01*
X151117000Y-87489376D01*
X150863000Y-87489376D01*
X150640960Y-87368091D01*
X150376119Y-87462930D01*
X150134869Y-87607615D01*
X149926481Y-87796586D01*
X149758963Y-88022580D01*
X149638754Y-88276913D01*
X149598096Y-88410961D01*
X139018698Y-88410961D01*
X139007932Y-88356842D01*
X138895990Y-88086589D01*
X138733475Y-87843368D01*
X138526632Y-87636525D01*
X138283411Y-87474010D01*
X138013158Y-87362068D01*
X137726260Y-87305000D01*
X137433740Y-87305000D01*
X137146842Y-87362068D01*
X136876589Y-87474010D01*
X136633368Y-87636525D01*
X136426525Y-87843368D01*
X136264010Y-88086589D01*
X136152068Y-88356842D01*
X136095000Y-88643740D01*
X128721131Y-88643740D01*
X128687932Y-88476842D01*
X128660644Y-88410961D01*
X131818096Y-88410961D01*
X131940085Y-88633000D01*
X133083000Y-88633000D01*
X133083000Y-87489376D01*
X133337000Y-87489376D01*
X133337000Y-88633000D01*
X134479915Y-88633000D01*
X134601904Y-88410961D01*
X134561246Y-88276913D01*
X134441037Y-88022580D01*
X134273519Y-87796586D01*
X134065131Y-87607615D01*
X133823881Y-87462930D01*
X133559040Y-87368091D01*
X133337000Y-87489376D01*
X133083000Y-87489376D01*
X132860960Y-87368091D01*
X132596119Y-87462930D01*
X132354869Y-87607615D01*
X132146481Y-87796586D01*
X131978963Y-88022580D01*
X131858754Y-88276913D01*
X131818096Y-88410961D01*
X128660644Y-88410961D01*
X128575990Y-88206589D01*
X128413475Y-87963368D01*
X128206632Y-87756525D01*
X127963411Y-87594010D01*
X127693158Y-87482068D01*
X127406260Y-87425000D01*
X127113740Y-87425000D01*
X126826842Y-87482068D01*
X126556589Y-87594010D01*
X126313368Y-87756525D01*
X126106525Y-87963368D01*
X125944010Y-88206589D01*
X125832068Y-88476842D01*
X125775000Y-88763740D01*
X115645000Y-88763740D01*
X115645000Y-87170558D01*
X115606873Y-86783450D01*
X115456201Y-86286750D01*
X115211523Y-85828989D01*
X114895000Y-85443306D01*
X114895000Y-85274950D01*
X115045901Y-85346825D01*
X115193110Y-85391476D01*
X115423000Y-85270155D01*
X115423000Y-84077000D01*
X115403000Y-84077000D01*
X115403000Y-83823000D01*
X115423000Y-83823000D01*
X115423000Y-82629845D01*
X115677000Y-82629845D01*
X115677000Y-83823000D01*
X115697000Y-83823000D01*
X115697000Y-84077000D01*
X115677000Y-84077000D01*
X115677000Y-85270155D01*
X115906890Y-85391476D01*
X116054099Y-85346825D01*
X116316920Y-85221641D01*
X116550269Y-85047588D01*
X116745178Y-84831355D01*
X116814805Y-84714466D01*
X116936525Y-84896632D01*
X117143368Y-85103475D01*
X117386589Y-85265990D01*
X117656842Y-85377932D01*
X117943740Y-85435000D01*
X118236260Y-85435000D01*
X118523158Y-85377932D01*
X118793411Y-85265990D01*
X119036632Y-85103475D01*
X119243475Y-84896632D01*
X119405990Y-84653411D01*
X119517932Y-84383158D01*
X119575000Y-84096260D01*
X119575000Y-83803740D01*
X119517932Y-83516842D01*
X119405990Y-83246589D01*
X119308043Y-83100000D01*
X121021928Y-83100000D01*
X121021928Y-84800000D01*
X121034188Y-84924482D01*
X121070498Y-85044180D01*
X121129463Y-85154494D01*
X121208815Y-85251185D01*
X121305506Y-85330537D01*
X121415820Y-85389502D01*
X121535518Y-85425812D01*
X121660000Y-85438072D01*
X123360000Y-85438072D01*
X123484482Y-85425812D01*
X123604180Y-85389502D01*
X123714494Y-85330537D01*
X123811185Y-85251185D01*
X123890537Y-85154494D01*
X123949502Y-85044180D01*
X123973966Y-84963534D01*
X124049731Y-85047588D01*
X124283080Y-85221641D01*
X124545901Y-85346825D01*
X124693110Y-85391476D01*
X124923000Y-85270155D01*
X124923000Y-84077000D01*
X124903000Y-84077000D01*
X124903000Y-83823000D01*
X124923000Y-83823000D01*
X124923000Y-82629845D01*
X125177000Y-82629845D01*
X125177000Y-83823000D01*
X125197000Y-83823000D01*
X125197000Y-84077000D01*
X125177000Y-84077000D01*
X125177000Y-85270155D01*
X125406890Y-85391476D01*
X125554099Y-85346825D01*
X125816920Y-85221641D01*
X126050269Y-85047588D01*
X126245178Y-84831355D01*
X126314805Y-84714466D01*
X126436525Y-84896632D01*
X126643368Y-85103475D01*
X126886589Y-85265990D01*
X127156842Y-85377932D01*
X127443740Y-85435000D01*
X127736260Y-85435000D01*
X128023158Y-85377932D01*
X128293411Y-85265990D01*
X128536632Y-85103475D01*
X128743475Y-84896632D01*
X128905990Y-84653411D01*
X129017932Y-84383158D01*
X129075000Y-84096260D01*
X129075000Y-83803740D01*
X129017932Y-83516842D01*
X128905990Y-83246589D01*
X128808043Y-83100000D01*
X130511928Y-83100000D01*
X130511928Y-84800000D01*
X130524188Y-84924482D01*
X130560498Y-85044180D01*
X130619463Y-85154494D01*
X130698815Y-85251185D01*
X130795506Y-85330537D01*
X130905820Y-85389502D01*
X131025518Y-85425812D01*
X131150000Y-85438072D01*
X132850000Y-85438072D01*
X132974482Y-85425812D01*
X133094180Y-85389502D01*
X133204494Y-85330537D01*
X133301185Y-85251185D01*
X133380537Y-85154494D01*
X133439502Y-85044180D01*
X133463966Y-84963534D01*
X133539731Y-85047588D01*
X133773080Y-85221641D01*
X134035901Y-85346825D01*
X134183110Y-85391476D01*
X134413000Y-85270155D01*
X134413000Y-84077000D01*
X134393000Y-84077000D01*
X134393000Y-83823000D01*
X134413000Y-83823000D01*
X134413000Y-82629845D01*
X134667000Y-82629845D01*
X134667000Y-83823000D01*
X134687000Y-83823000D01*
X134687000Y-84077000D01*
X134667000Y-84077000D01*
X134667000Y-85270155D01*
X134896890Y-85391476D01*
X135044099Y-85346825D01*
X135306920Y-85221641D01*
X135540269Y-85047588D01*
X135735178Y-84831355D01*
X135804805Y-84714466D01*
X135926525Y-84896632D01*
X136133368Y-85103475D01*
X136376589Y-85265990D01*
X136646842Y-85377932D01*
X136933740Y-85435000D01*
X137226260Y-85435000D01*
X137513158Y-85377932D01*
X137783411Y-85265990D01*
X138026632Y-85103475D01*
X138233475Y-84896632D01*
X138395990Y-84653411D01*
X138507932Y-84383158D01*
X138565000Y-84096260D01*
X138565000Y-83803740D01*
X138507932Y-83516842D01*
X138395990Y-83246589D01*
X138298043Y-83100000D01*
X140011928Y-83100000D01*
X140011928Y-84800000D01*
X140024188Y-84924482D01*
X140060498Y-85044180D01*
X140119463Y-85154494D01*
X140198815Y-85251185D01*
X140295506Y-85330537D01*
X140405820Y-85389502D01*
X140525518Y-85425812D01*
X140650000Y-85438072D01*
X142350000Y-85438072D01*
X142474482Y-85425812D01*
X142594180Y-85389502D01*
X142704494Y-85330537D01*
X142801185Y-85251185D01*
X142880537Y-85154494D01*
X142939502Y-85044180D01*
X142963966Y-84963534D01*
X143039731Y-85047588D01*
X143273080Y-85221641D01*
X143535901Y-85346825D01*
X143683110Y-85391476D01*
X143913000Y-85270155D01*
X143913000Y-84077000D01*
X143893000Y-84077000D01*
X143893000Y-83823000D01*
X143913000Y-83823000D01*
X143913000Y-82629845D01*
X144167000Y-82629845D01*
X144167000Y-83823000D01*
X144187000Y-83823000D01*
X144187000Y-84077000D01*
X144167000Y-84077000D01*
X144167000Y-85270155D01*
X144396890Y-85391476D01*
X144544099Y-85346825D01*
X144806920Y-85221641D01*
X145040269Y-85047588D01*
X145235178Y-84831355D01*
X145304805Y-84714466D01*
X145426525Y-84896632D01*
X145633368Y-85103475D01*
X145876589Y-85265990D01*
X146146842Y-85377932D01*
X146433740Y-85435000D01*
X146726260Y-85435000D01*
X147013158Y-85377932D01*
X147283411Y-85265990D01*
X147526632Y-85103475D01*
X147733475Y-84896632D01*
X147895990Y-84653411D01*
X148007932Y-84383158D01*
X148065000Y-84096260D01*
X148065000Y-83803740D01*
X148007932Y-83516842D01*
X147895990Y-83246589D01*
X147733475Y-83003368D01*
X147526632Y-82796525D01*
X147283411Y-82634010D01*
X147013158Y-82522068D01*
X146726260Y-82465000D01*
X146433740Y-82465000D01*
X146146842Y-82522068D01*
X145876589Y-82634010D01*
X145633368Y-82796525D01*
X145426525Y-83003368D01*
X145304805Y-83185534D01*
X145235178Y-83068645D01*
X145040269Y-82852412D01*
X144806920Y-82678359D01*
X144544099Y-82553175D01*
X144396890Y-82508524D01*
X144167000Y-82629845D01*
X143913000Y-82629845D01*
X143683110Y-82508524D01*
X143535901Y-82553175D01*
X143273080Y-82678359D01*
X143039731Y-82852412D01*
X142963966Y-82936466D01*
X142939502Y-82855820D01*
X142880537Y-82745506D01*
X142801185Y-82648815D01*
X142704494Y-82569463D01*
X142594180Y-82510498D01*
X142474482Y-82474188D01*
X142350000Y-82461928D01*
X140650000Y-82461928D01*
X140525518Y-82474188D01*
X140405820Y-82510498D01*
X140295506Y-82569463D01*
X140198815Y-82648815D01*
X140119463Y-82745506D01*
X140060498Y-82855820D01*
X140024188Y-82975518D01*
X140011928Y-83100000D01*
X138298043Y-83100000D01*
X138233475Y-83003368D01*
X138026632Y-82796525D01*
X137783411Y-82634010D01*
X137513158Y-82522068D01*
X137226260Y-82465000D01*
X136933740Y-82465000D01*
X136646842Y-82522068D01*
X136376589Y-82634010D01*
X136133368Y-82796525D01*
X135926525Y-83003368D01*
X135804805Y-83185534D01*
X135735178Y-83068645D01*
X135540269Y-82852412D01*
X135306920Y-82678359D01*
X135044099Y-82553175D01*
X134896890Y-82508524D01*
X134667000Y-82629845D01*
X134413000Y-82629845D01*
X134183110Y-82508524D01*
X134035901Y-82553175D01*
X133773080Y-82678359D01*
X133539731Y-82852412D01*
X133463966Y-82936466D01*
X133439502Y-82855820D01*
X133380537Y-82745506D01*
X133301185Y-82648815D01*
X133204494Y-82569463D01*
X133094180Y-82510498D01*
X132974482Y-82474188D01*
X132850000Y-82461928D01*
X131150000Y-82461928D01*
X131025518Y-82474188D01*
X130905820Y-82510498D01*
X130795506Y-82569463D01*
X130698815Y-82648815D01*
X130619463Y-82745506D01*
X130560498Y-82855820D01*
X130524188Y-82975518D01*
X130511928Y-83100000D01*
X128808043Y-83100000D01*
X128743475Y-83003368D01*
X128536632Y-82796525D01*
X128293411Y-82634010D01*
X128023158Y-82522068D01*
X127736260Y-82465000D01*
X127443740Y-82465000D01*
X127156842Y-82522068D01*
X126886589Y-82634010D01*
X126643368Y-82796525D01*
X126436525Y-83003368D01*
X126314805Y-83185534D01*
X126245178Y-83068645D01*
X126050269Y-82852412D01*
X125816920Y-82678359D01*
X125554099Y-82553175D01*
X125406890Y-82508524D01*
X125177000Y-82629845D01*
X124923000Y-82629845D01*
X124693110Y-82508524D01*
X124545901Y-82553175D01*
X124283080Y-82678359D01*
X124049731Y-82852412D01*
X123973966Y-82936466D01*
X123949502Y-82855820D01*
X123890537Y-82745506D01*
X123811185Y-82648815D01*
X123714494Y-82569463D01*
X123604180Y-82510498D01*
X123484482Y-82474188D01*
X123360000Y-82461928D01*
X121660000Y-82461928D01*
X121535518Y-82474188D01*
X121415820Y-82510498D01*
X121305506Y-82569463D01*
X121208815Y-82648815D01*
X121129463Y-82745506D01*
X121070498Y-82855820D01*
X121034188Y-82975518D01*
X121021928Y-83100000D01*
X119308043Y-83100000D01*
X119243475Y-83003368D01*
X119036632Y-82796525D01*
X118793411Y-82634010D01*
X118523158Y-82522068D01*
X118236260Y-82465000D01*
X117943740Y-82465000D01*
X117656842Y-82522068D01*
X117386589Y-82634010D01*
X117143368Y-82796525D01*
X116936525Y-83003368D01*
X116814805Y-83185534D01*
X116745178Y-83068645D01*
X116550269Y-82852412D01*
X116316920Y-82678359D01*
X116054099Y-82553175D01*
X115906890Y-82508524D01*
X115677000Y-82629845D01*
X115423000Y-82629845D01*
X115193110Y-82508524D01*
X115045901Y-82553175D01*
X114783080Y-82678359D01*
X114549731Y-82852412D01*
X114548694Y-82853562D01*
X114349345Y-82610655D01*
X114062317Y-82375097D01*
X113734847Y-82200061D01*
X113379523Y-82092275D01*
X113010000Y-82055880D01*
X112640476Y-82092275D01*
X112285152Y-82200061D01*
X111957683Y-82375097D01*
X111670655Y-82610655D01*
X111435097Y-82897683D01*
X111260061Y-83225153D01*
X111152275Y-83580477D01*
X111125000Y-83857404D01*
X111125000Y-85443305D01*
X110808477Y-85828990D01*
X110563799Y-86286751D01*
X110413127Y-86783451D01*
X110375000Y-87170559D01*
X110375001Y-128450549D01*
X110375000Y-128450559D01*
X110375001Y-132924990D01*
X105109452Y-132924990D01*
X105206755Y-132700087D01*
X105231036Y-132594740D01*
X105110378Y-132357000D01*
X102967000Y-132357000D01*
X102967000Y-132377000D01*
X102713000Y-132377000D01*
X102713000Y-132357000D01*
X100569622Y-132357000D01*
X100448964Y-132594740D01*
X100473245Y-132700087D01*
X100593138Y-132977204D01*
X100764790Y-133225606D01*
X100981604Y-133435748D01*
X101235249Y-133599554D01*
X101451083Y-133685029D01*
X101447769Y-133687749D01*
X101365248Y-133788300D01*
X100885245Y-134268303D01*
X100638478Y-134568990D01*
X100393799Y-135026751D01*
X100243127Y-135523451D01*
X100192252Y-136040000D01*
X95412413Y-136040000D01*
X95420401Y-131865260D01*
X100448964Y-131865260D01*
X100569622Y-132103000D01*
X102713000Y-132103000D01*
X102713000Y-130695000D01*
X102967000Y-130695000D01*
X102967000Y-132103000D01*
X105110378Y-132103000D01*
X105231036Y-131865260D01*
X105206755Y-131759913D01*
X105086862Y-131482796D01*
X104915210Y-131234394D01*
X104698396Y-131024252D01*
X104444751Y-130860446D01*
X104164023Y-130749271D01*
X103867000Y-130695000D01*
X102967000Y-130695000D01*
X102713000Y-130695000D01*
X101813000Y-130695000D01*
X101515977Y-130749271D01*
X101235249Y-130860446D01*
X100981604Y-131024252D01*
X100764790Y-131234394D01*
X100593138Y-131482796D01*
X100473245Y-131759913D01*
X100448964Y-131865260D01*
X95420401Y-131865260D01*
X95426994Y-128420000D01*
X100397573Y-128420000D01*
X100427210Y-128720913D01*
X100514983Y-129010261D01*
X100657519Y-129276927D01*
X100849339Y-129510661D01*
X101083073Y-129702481D01*
X101349739Y-129845017D01*
X101639087Y-129932790D01*
X101864592Y-129955000D01*
X103815408Y-129955000D01*
X104040913Y-129932790D01*
X104330261Y-129845017D01*
X104596927Y-129702481D01*
X104830661Y-129510661D01*
X105022481Y-129276927D01*
X105165017Y-129010261D01*
X105252790Y-128720913D01*
X105282427Y-128420000D01*
X105252790Y-128119087D01*
X105165017Y-127829739D01*
X105022481Y-127563073D01*
X104830661Y-127329339D01*
X104596927Y-127137519D01*
X104330261Y-126994983D01*
X104040913Y-126907210D01*
X103815408Y-126885000D01*
X101864592Y-126885000D01*
X101639087Y-126907210D01*
X101349739Y-126994983D01*
X101083073Y-127137519D01*
X100849339Y-127329339D01*
X100657519Y-127563073D01*
X100514983Y-127829739D01*
X100427210Y-128119087D01*
X100397573Y-128420000D01*
X95426994Y-128420000D01*
X95436006Y-123710000D01*
X100401928Y-123710000D01*
X100401928Y-125510000D01*
X100414188Y-125634482D01*
X100450498Y-125754180D01*
X100509463Y-125864494D01*
X100588815Y-125961185D01*
X100685506Y-126040537D01*
X100795820Y-126099502D01*
X100915518Y-126135812D01*
X101040000Y-126148072D01*
X104640000Y-126148072D01*
X104764482Y-126135812D01*
X104884180Y-126099502D01*
X104994494Y-126040537D01*
X105091185Y-125961185D01*
X105170537Y-125864494D01*
X105229502Y-125754180D01*
X105265812Y-125634482D01*
X105278072Y-125510000D01*
X105278072Y-123710000D01*
X105265812Y-123585518D01*
X105229502Y-123465820D01*
X105170537Y-123355506D01*
X105091185Y-123258815D01*
X104994494Y-123179463D01*
X104884180Y-123120498D01*
X104764482Y-123084188D01*
X104640000Y-123071928D01*
X101040000Y-123071928D01*
X100915518Y-123084188D01*
X100795820Y-123120498D01*
X100685506Y-123179463D01*
X100588815Y-123258815D01*
X100509463Y-123355506D01*
X100450498Y-123465820D01*
X100414188Y-123585518D01*
X100401928Y-123710000D01*
X95436006Y-123710000D01*
X95437537Y-122910000D01*
X107211928Y-122910000D01*
X107211928Y-124610000D01*
X107224188Y-124734482D01*
X107260498Y-124854180D01*
X107319463Y-124964494D01*
X107398815Y-125061185D01*
X107495506Y-125140537D01*
X107605820Y-125199502D01*
X107725518Y-125235812D01*
X107850000Y-125248072D01*
X109550000Y-125248072D01*
X109674482Y-125235812D01*
X109794180Y-125199502D01*
X109904494Y-125140537D01*
X110001185Y-125061185D01*
X110080537Y-124964494D01*
X110139502Y-124854180D01*
X110175812Y-124734482D01*
X110188072Y-124610000D01*
X110188072Y-122910000D01*
X110175812Y-122785518D01*
X110139502Y-122665820D01*
X110080537Y-122555506D01*
X110001185Y-122458815D01*
X109904494Y-122379463D01*
X109794180Y-122320498D01*
X109721620Y-122298487D01*
X109853475Y-122166632D01*
X110015990Y-121923411D01*
X110127932Y-121653158D01*
X110185000Y-121366260D01*
X110185000Y-121073740D01*
X110127932Y-120786842D01*
X110015990Y-120516589D01*
X109853475Y-120273368D01*
X109646632Y-120066525D01*
X109472240Y-119950000D01*
X109646632Y-119833475D01*
X109853475Y-119626632D01*
X110015990Y-119383411D01*
X110127932Y-119113158D01*
X110185000Y-118826260D01*
X110185000Y-118533740D01*
X110127932Y-118246842D01*
X110015990Y-117976589D01*
X109853475Y-117733368D01*
X109646632Y-117526525D01*
X109464466Y-117404805D01*
X109581355Y-117335178D01*
X109797588Y-117140269D01*
X109971641Y-116906920D01*
X110096825Y-116644099D01*
X110141476Y-116496890D01*
X110020155Y-116267000D01*
X108827000Y-116267000D01*
X108827000Y-116287000D01*
X108573000Y-116287000D01*
X108573000Y-116267000D01*
X107379845Y-116267000D01*
X107258524Y-116496890D01*
X107303175Y-116644099D01*
X107428359Y-116906920D01*
X107602412Y-117140269D01*
X107818645Y-117335178D01*
X107935534Y-117404805D01*
X107753368Y-117526525D01*
X107546525Y-117733368D01*
X107384010Y-117976589D01*
X107272068Y-118246842D01*
X107215000Y-118533740D01*
X107215000Y-118826260D01*
X107272068Y-119113158D01*
X107384010Y-119383411D01*
X107546525Y-119626632D01*
X107753368Y-119833475D01*
X107927760Y-119950000D01*
X107753368Y-120066525D01*
X107546525Y-120273368D01*
X107384010Y-120516589D01*
X107272068Y-120786842D01*
X107215000Y-121073740D01*
X107215000Y-121366260D01*
X107272068Y-121653158D01*
X107384010Y-121923411D01*
X107546525Y-122166632D01*
X107678380Y-122298487D01*
X107605820Y-122320498D01*
X107495506Y-122379463D01*
X107398815Y-122458815D01*
X107319463Y-122555506D01*
X107260498Y-122665820D01*
X107224188Y-122785518D01*
X107211928Y-122910000D01*
X95437537Y-122910000D01*
X95443690Y-119695000D01*
X104016353Y-119695000D01*
X104050000Y-119698314D01*
X104083647Y-119695000D01*
X104184283Y-119685088D01*
X104313406Y-119645919D01*
X104432407Y-119582312D01*
X104536711Y-119496711D01*
X104622312Y-119392407D01*
X104685919Y-119273406D01*
X104725088Y-119144283D01*
X104738314Y-119010000D01*
X104735000Y-118976353D01*
X104735000Y-115783110D01*
X107258524Y-115783110D01*
X107379845Y-116013000D01*
X108573000Y-116013000D01*
X108573000Y-114819186D01*
X108827000Y-114819186D01*
X108827000Y-116013000D01*
X110020155Y-116013000D01*
X110141476Y-115783110D01*
X110096825Y-115635901D01*
X109971641Y-115373080D01*
X109797588Y-115139731D01*
X109581355Y-114944822D01*
X109331252Y-114795843D01*
X109056891Y-114698519D01*
X108827000Y-114819186D01*
X108573000Y-114819186D01*
X108343109Y-114698519D01*
X108068748Y-114795843D01*
X107818645Y-114944822D01*
X107602412Y-115139731D01*
X107428359Y-115373080D01*
X107303175Y-115635901D01*
X107258524Y-115783110D01*
X104735000Y-115783110D01*
X104735000Y-115733647D01*
X104738314Y-115700000D01*
X104725088Y-115565717D01*
X104685919Y-115436594D01*
X104622312Y-115317593D01*
X104536711Y-115213289D01*
X104432407Y-115127688D01*
X104313406Y-115064081D01*
X104184283Y-115024912D01*
X104083647Y-115015000D01*
X104050000Y-115011686D01*
X104016353Y-115015000D01*
X102013647Y-115015000D01*
X101980000Y-115011686D01*
X101946353Y-115015000D01*
X101845717Y-115024912D01*
X101716594Y-115064081D01*
X101597593Y-115127688D01*
X101493289Y-115213289D01*
X101407688Y-115317593D01*
X101344081Y-115436594D01*
X101304912Y-115565717D01*
X101291686Y-115700000D01*
X101295001Y-115733657D01*
X101295001Y-116365000D01*
X95415000Y-116365000D01*
X95415000Y-112624056D01*
X101305000Y-112615944D01*
X101305000Y-113176353D01*
X101301686Y-113210000D01*
X101314912Y-113344283D01*
X101354081Y-113473406D01*
X101417688Y-113592407D01*
X101503289Y-113696711D01*
X101557774Y-113741426D01*
X101607593Y-113782312D01*
X101726594Y-113845919D01*
X101855717Y-113885088D01*
X101990000Y-113898314D01*
X102023647Y-113895000D01*
X104026353Y-113895000D01*
X104060000Y-113898314D01*
X104093647Y-113895000D01*
X104194283Y-113885088D01*
X104323406Y-113845919D01*
X104442407Y-113782312D01*
X104546711Y-113696711D01*
X104632312Y-113592407D01*
X104695919Y-113473406D01*
X104735088Y-113344283D01*
X104748314Y-113210000D01*
X104745000Y-113176353D01*
X104745000Y-110073647D01*
X104748314Y-110040000D01*
X104735088Y-109905717D01*
X104695919Y-109776594D01*
X104632312Y-109657593D01*
X104546711Y-109553289D01*
X104442407Y-109467688D01*
X104323406Y-109404081D01*
X104194283Y-109364912D01*
X104093647Y-109355000D01*
X104060000Y-109351686D01*
X104026353Y-109355000D01*
X95394720Y-109355000D01*
X95391238Y-100828369D01*
X95470820Y-100748787D01*
X95584078Y-101028015D01*
X95898403Y-101183387D01*
X96237000Y-101274452D01*
X96586858Y-101297709D01*
X96934530Y-101252267D01*
X97266657Y-101139870D01*
X97475922Y-101028015D01*
X97589181Y-100748786D01*
X96530000Y-99689605D01*
X96515858Y-99703748D01*
X96336253Y-99524143D01*
X96350395Y-99510000D01*
X96709605Y-99510000D01*
X97768786Y-100569181D01*
X98048015Y-100455922D01*
X98203387Y-100141597D01*
X98294452Y-99803000D01*
X98317709Y-99453142D01*
X98272267Y-99105470D01*
X98159870Y-98773343D01*
X98048015Y-98564078D01*
X97768786Y-98450819D01*
X96709605Y-99510000D01*
X96350395Y-99510000D01*
X96336253Y-99495858D01*
X96515858Y-99316253D01*
X96530000Y-99330395D01*
X97589181Y-98271214D01*
X97475922Y-97991985D01*
X97161597Y-97836613D01*
X96823000Y-97745548D01*
X96473142Y-97722291D01*
X96125470Y-97767733D01*
X95793343Y-97880130D01*
X95584078Y-97991985D01*
X95470820Y-98271213D01*
X95390160Y-98190553D01*
X95383998Y-83100000D01*
X102021928Y-83100000D01*
X102021928Y-84800000D01*
X102034188Y-84924482D01*
X102070498Y-85044180D01*
X102129463Y-85154494D01*
X102208815Y-85251185D01*
X102305506Y-85330537D01*
X102415820Y-85389502D01*
X102535518Y-85425812D01*
X102660000Y-85438072D01*
X104360000Y-85438072D01*
X104484482Y-85425812D01*
X104604180Y-85389502D01*
X104714494Y-85330537D01*
X104811185Y-85251185D01*
X104890537Y-85154494D01*
X104949502Y-85044180D01*
X104973966Y-84963534D01*
X105049731Y-85047588D01*
X105283080Y-85221641D01*
X105545901Y-85346825D01*
X105693110Y-85391476D01*
X105923000Y-85270155D01*
X105923000Y-84077000D01*
X105903000Y-84077000D01*
X105903000Y-83823000D01*
X105923000Y-83823000D01*
X105923000Y-82629845D01*
X106177000Y-82629845D01*
X106177000Y-83823000D01*
X106197000Y-83823000D01*
X106197000Y-84077000D01*
X106177000Y-84077000D01*
X106177000Y-85270155D01*
X106406890Y-85391476D01*
X106554099Y-85346825D01*
X106816920Y-85221641D01*
X107050269Y-85047588D01*
X107245178Y-84831355D01*
X107314805Y-84714466D01*
X107436525Y-84896632D01*
X107643368Y-85103475D01*
X107886589Y-85265990D01*
X108156842Y-85377932D01*
X108443740Y-85435000D01*
X108736260Y-85435000D01*
X109023158Y-85377932D01*
X109293411Y-85265990D01*
X109536632Y-85103475D01*
X109743475Y-84896632D01*
X109905990Y-84653411D01*
X110017932Y-84383158D01*
X110075000Y-84096260D01*
X110075000Y-83803740D01*
X110017932Y-83516842D01*
X109905990Y-83246589D01*
X109743475Y-83003368D01*
X109536632Y-82796525D01*
X109293411Y-82634010D01*
X109023158Y-82522068D01*
X108736260Y-82465000D01*
X108443740Y-82465000D01*
X108156842Y-82522068D01*
X107886589Y-82634010D01*
X107643368Y-82796525D01*
X107436525Y-83003368D01*
X107314805Y-83185534D01*
X107245178Y-83068645D01*
X107050269Y-82852412D01*
X106816920Y-82678359D01*
X106554099Y-82553175D01*
X106406890Y-82508524D01*
X106177000Y-82629845D01*
X105923000Y-82629845D01*
X105693110Y-82508524D01*
X105545901Y-82553175D01*
X105283080Y-82678359D01*
X105049731Y-82852412D01*
X104973966Y-82936466D01*
X104949502Y-82855820D01*
X104890537Y-82745506D01*
X104811185Y-82648815D01*
X104714494Y-82569463D01*
X104604180Y-82510498D01*
X104484482Y-82474188D01*
X104360000Y-82461928D01*
X102660000Y-82461928D01*
X102535518Y-82474188D01*
X102415820Y-82510498D01*
X102305506Y-82569463D01*
X102208815Y-82648815D01*
X102129463Y-82745506D01*
X102070498Y-82855820D01*
X102034188Y-82975518D01*
X102021928Y-83100000D01*
X95383998Y-83100000D01*
X95381205Y-76262613D01*
X95398277Y-76084495D01*
X95765000Y-76084495D01*
X95765000Y-76475505D01*
X95841282Y-76859003D01*
X95990915Y-77220250D01*
X96208149Y-77545364D01*
X96484636Y-77821851D01*
X96809750Y-78039085D01*
X97170997Y-78188718D01*
X97554495Y-78265000D01*
X97945505Y-78265000D01*
X98329003Y-78188718D01*
X98690250Y-78039085D01*
X99015364Y-77821851D01*
X99291851Y-77545364D01*
X99509085Y-77220250D01*
X99658718Y-76859003D01*
X99735000Y-76475505D01*
X99735000Y-76084495D01*
X150365000Y-76084495D01*
X150365000Y-76475505D01*
X150441282Y-76859003D01*
X150590915Y-77220250D01*
X150808149Y-77545364D01*
X151084636Y-77821851D01*
X151409750Y-78039085D01*
X151770997Y-78188718D01*
X152154495Y-78265000D01*
X152545505Y-78265000D01*
X152929003Y-78188718D01*
X153290250Y-78039085D01*
X153615364Y-77821851D01*
X153891851Y-77545364D01*
X154109085Y-77220250D01*
X154258718Y-76859003D01*
X154335000Y-76475505D01*
X154335000Y-76084495D01*
X154258718Y-75700997D01*
X154109085Y-75339750D01*
X153891851Y-75014636D01*
X153615364Y-74738149D01*
X153290250Y-74520915D01*
X152929003Y-74371282D01*
X152545505Y-74295000D01*
X152154495Y-74295000D01*
X151770997Y-74371282D01*
X151409750Y-74520915D01*
X151084636Y-74738149D01*
X150808149Y-75014636D01*
X150590915Y-75339750D01*
X150441282Y-75700997D01*
X150365000Y-76084495D01*
X99735000Y-76084495D01*
X99658718Y-75700997D01*
X99509085Y-75339750D01*
X99291851Y-75014636D01*
X99015364Y-74738149D01*
X98690250Y-74520915D01*
X98329003Y-74371282D01*
X97945505Y-74295000D01*
X97554495Y-74295000D01*
X97170997Y-74371282D01*
X96809750Y-74520915D01*
X96484636Y-74738149D01*
X96208149Y-75014636D01*
X95990915Y-75339750D01*
X95841282Y-75700997D01*
X95765000Y-76084495D01*
X95398277Y-76084495D01*
X95427035Y-75784454D01*
X95555032Y-75357133D01*
X95763591Y-74962815D01*
X96044771Y-74616512D01*
X96387856Y-74331422D01*
X96779782Y-74118400D01*
X97205627Y-73985559D01*
X97678194Y-73934846D01*
X97684995Y-73934872D01*
G37*
X97684995Y-73934872D02*
X97686222Y-73934993D01*
X152310054Y-73945451D01*
X152799373Y-73984821D01*
X153233492Y-74107665D01*
X153635483Y-74312489D01*
X153990039Y-74591498D01*
X154283647Y-74934056D01*
X154505125Y-75327116D01*
X154646041Y-75755716D01*
X154704616Y-76232767D01*
X154705001Y-76264283D01*
X154705000Y-144986944D01*
X154657791Y-145486361D01*
X154524438Y-145933687D01*
X154306737Y-146346592D01*
X154012982Y-146709349D01*
X153654359Y-147008143D01*
X153244540Y-147231584D01*
X152799113Y-147371172D01*
X152303598Y-147425003D01*
X115217910Y-147438553D01*
X115295226Y-147251898D01*
X115335000Y-147051939D01*
X115335000Y-146848061D01*
X115295226Y-146648102D01*
X115217205Y-146459744D01*
X115103937Y-146290226D01*
X114959774Y-146146063D01*
X114790256Y-146032795D01*
X114601898Y-145954774D01*
X114401939Y-145915000D01*
X114339802Y-145915000D01*
X113775000Y-145350199D01*
X113775000Y-145248061D01*
X113735226Y-145048102D01*
X113675742Y-144904495D01*
X150355000Y-144904495D01*
X150355000Y-145295505D01*
X150431282Y-145679003D01*
X150580915Y-146040250D01*
X150798149Y-146365364D01*
X151074636Y-146641851D01*
X151399750Y-146859085D01*
X151760997Y-147008718D01*
X152144495Y-147085000D01*
X152535505Y-147085000D01*
X152919003Y-147008718D01*
X153280250Y-146859085D01*
X153605364Y-146641851D01*
X153881851Y-146365364D01*
X154099085Y-146040250D01*
X154248718Y-145679003D01*
X154325000Y-145295505D01*
X154325000Y-144904495D01*
X154248718Y-144520997D01*
X154099085Y-144159750D01*
X153881851Y-143834636D01*
X153605364Y-143558149D01*
X153280250Y-143340915D01*
X152919003Y-143191282D01*
X152535505Y-143115000D01*
X152144495Y-143115000D01*
X151760997Y-143191282D01*
X151399750Y-143340915D01*
X151074636Y-143558149D01*
X150798149Y-143834636D01*
X150580915Y-144159750D01*
X150431282Y-144520997D01*
X150355000Y-144904495D01*
X113675742Y-144904495D01*
X113657205Y-144859744D01*
X113543937Y-144690226D01*
X113399774Y-144546063D01*
X113230256Y-144432795D01*
X113041898Y-144354774D01*
X112841939Y-144315000D01*
X112638061Y-144315000D01*
X112438102Y-144354774D01*
X112249744Y-144432795D01*
X112080226Y-144546063D01*
X111936063Y-144690226D01*
X111822795Y-144859744D01*
X111744774Y-145048102D01*
X111705000Y-145248061D01*
X111705000Y-145451939D01*
X111744774Y-145651898D01*
X111822795Y-145840256D01*
X111936063Y-146009774D01*
X112080226Y-146153937D01*
X112249744Y-146267205D01*
X112438102Y-146345226D01*
X112638061Y-146385000D01*
X112660199Y-146385000D01*
X113265000Y-146989802D01*
X113265000Y-147051939D01*
X113304774Y-147251898D01*
X113382367Y-147439224D01*
X97658259Y-147444969D01*
X97190305Y-147390985D01*
X96768098Y-147255586D01*
X96380223Y-147040755D01*
X96041469Y-146754682D01*
X95764728Y-146408253D01*
X95560549Y-146014678D01*
X95436702Y-145588930D01*
X95395049Y-145114678D01*
X95395451Y-144904495D01*
X95765000Y-144904495D01*
X95765000Y-145295505D01*
X95841282Y-145679003D01*
X95990915Y-146040250D01*
X96208149Y-146365364D01*
X96484636Y-146641851D01*
X96809750Y-146859085D01*
X97170997Y-147008718D01*
X97554495Y-147085000D01*
X97945505Y-147085000D01*
X98329003Y-147008718D01*
X98690250Y-146859085D01*
X99015364Y-146641851D01*
X99291851Y-146365364D01*
X99509085Y-146040250D01*
X99658718Y-145679003D01*
X99735000Y-145295505D01*
X99735000Y-144904495D01*
X99658718Y-144520997D01*
X99509085Y-144159750D01*
X99291851Y-143834636D01*
X99015364Y-143558149D01*
X98690250Y-143340915D01*
X98329003Y-143191282D01*
X97945505Y-143115000D01*
X97554495Y-143115000D01*
X97170997Y-143191282D01*
X96809750Y-143340915D01*
X96484636Y-143558149D01*
X96208149Y-143834636D01*
X95990915Y-144159750D01*
X95841282Y-144520997D01*
X95765000Y-144904495D01*
X95395451Y-144904495D01*
X95412413Y-136040000D01*
X100192252Y-136040000D01*
X100243127Y-136556549D01*
X100393799Y-137053249D01*
X100638478Y-137511010D01*
X100967759Y-137912241D01*
X101368990Y-138241522D01*
X101826751Y-138486201D01*
X102323451Y-138636873D01*
X102840000Y-138687748D01*
X103356549Y-138636873D01*
X103853249Y-138486201D01*
X104311010Y-138241522D01*
X104367710Y-138194990D01*
X107362421Y-138194990D01*
X107361928Y-138200000D01*
X107361928Y-141800000D01*
X107374188Y-141924482D01*
X107410498Y-142044180D01*
X107469463Y-142154494D01*
X107548815Y-142251185D01*
X107645506Y-142330537D01*
X107755820Y-142389502D01*
X107875518Y-142425812D01*
X108000000Y-142438072D01*
X109800000Y-142438072D01*
X109924482Y-142425812D01*
X110044180Y-142389502D01*
X110154494Y-142330537D01*
X110251185Y-142251185D01*
X110330537Y-142154494D01*
X110389502Y-142044180D01*
X110425812Y-141924482D01*
X110438072Y-141800000D01*
X110438072Y-138200000D01*
X110437579Y-138194990D01*
X111466980Y-138194990D01*
X111427519Y-138243074D01*
X111284983Y-138509740D01*
X111197210Y-138799088D01*
X111175000Y-139024593D01*
X111175000Y-140975408D01*
X111197211Y-141200913D01*
X111284984Y-141490261D01*
X111427520Y-141756927D01*
X111619340Y-141990661D01*
X111853074Y-142182481D01*
X112119740Y-142325017D01*
X112409088Y-142412790D01*
X112710000Y-142442427D01*
X113010913Y-142412790D01*
X113300261Y-142325017D01*
X113566927Y-142182481D01*
X113800661Y-141990661D01*
X113992481Y-141756927D01*
X114135017Y-141490261D01*
X114222790Y-141200913D01*
X114245000Y-140975408D01*
X114245000Y-140127000D01*
X114985000Y-140127000D01*
X114985000Y-141027000D01*
X115039271Y-141324023D01*
X115150446Y-141604751D01*
X115314252Y-141858396D01*
X115524394Y-142075210D01*
X115772796Y-142246862D01*
X116049913Y-142366755D01*
X116155260Y-142391036D01*
X116393000Y-142270378D01*
X116393000Y-140127000D01*
X114985000Y-140127000D01*
X114245000Y-140127000D01*
X114245000Y-139024592D01*
X114222790Y-138799087D01*
X114135017Y-138509739D01*
X113992481Y-138243073D01*
X113953020Y-138194990D01*
X115279775Y-138194990D01*
X115150446Y-138395249D01*
X115039271Y-138675977D01*
X114985000Y-138973000D01*
X114985000Y-139873000D01*
X116393000Y-139873000D01*
X116393000Y-139853000D01*
X116647000Y-139853000D01*
X116647000Y-139873000D01*
X116667000Y-139873000D01*
X116667000Y-140127000D01*
X116647000Y-140127000D01*
X116647000Y-142270378D01*
X116884740Y-142391036D01*
X116990087Y-142366755D01*
X117267204Y-142246862D01*
X117515606Y-142075210D01*
X117725748Y-141858396D01*
X117889554Y-141604751D01*
X118000729Y-141324023D01*
X118013258Y-141255450D01*
X118128478Y-141471010D01*
X118457759Y-141872241D01*
X118858990Y-142201522D01*
X119316751Y-142446201D01*
X119813451Y-142596873D01*
X120330000Y-142647748D01*
X120846549Y-142596873D01*
X121343249Y-142446201D01*
X121801010Y-142201522D01*
X122101697Y-141954755D01*
X122121694Y-141934758D01*
X122222241Y-141852241D01*
X122551523Y-141451011D01*
X122796201Y-140993250D01*
X122946873Y-140496550D01*
X122985000Y-140109441D01*
X122985000Y-140109435D01*
X122997748Y-139980001D01*
X122985000Y-139850567D01*
X122985000Y-138215357D01*
X122997748Y-138085923D01*
X122985000Y-137956489D01*
X122985000Y-137956482D01*
X122955799Y-137659999D01*
X129111325Y-137659999D01*
X129115001Y-137697322D01*
X129115002Y-141977669D01*
X129111325Y-142015001D01*
X129115002Y-142052334D01*
X129125999Y-142163987D01*
X129131609Y-142182481D01*
X129169455Y-142307247D01*
X129240027Y-142439277D01*
X129282350Y-142490847D01*
X129282350Y-142559289D01*
X129322124Y-142759248D01*
X129400145Y-142947606D01*
X129513413Y-143117124D01*
X129657576Y-143261287D01*
X129827094Y-143374555D01*
X130015452Y-143452576D01*
X130215411Y-143492350D01*
X130419289Y-143492350D01*
X130619248Y-143452576D01*
X130807606Y-143374555D01*
X130977124Y-143261287D01*
X131121287Y-143117124D01*
X131234555Y-142947606D01*
X131312576Y-142759248D01*
X131352350Y-142559289D01*
X131352350Y-142355411D01*
X131312576Y-142155452D01*
X131234555Y-141967094D01*
X131121287Y-141797576D01*
X131048711Y-141725000D01*
X131071939Y-141725000D01*
X131271898Y-141685226D01*
X131460256Y-141607205D01*
X131629774Y-141493937D01*
X131773937Y-141349774D01*
X131887205Y-141180256D01*
X131965226Y-140991898D01*
X132005000Y-140791939D01*
X132005000Y-140588061D01*
X131965226Y-140388102D01*
X131887205Y-140199744D01*
X131773937Y-140030226D01*
X131760000Y-140016289D01*
X131760000Y-138913711D01*
X131803937Y-138869774D01*
X131917205Y-138700256D01*
X131995226Y-138511898D01*
X132035000Y-138311939D01*
X132035000Y-138108061D01*
X131995226Y-137908102D01*
X131917205Y-137719744D01*
X131803937Y-137550226D01*
X131659774Y-137406063D01*
X131490256Y-137292795D01*
X131310000Y-137218130D01*
X131310000Y-137158061D01*
X131270226Y-136958102D01*
X131237322Y-136878665D01*
X131775000Y-136878665D01*
X131775000Y-137161335D01*
X131830147Y-137438574D01*
X131938320Y-137699727D01*
X132095363Y-137934759D01*
X132295241Y-138134637D01*
X132527759Y-138290000D01*
X132295241Y-138445363D01*
X132095363Y-138645241D01*
X131938320Y-138880273D01*
X131830147Y-139141426D01*
X131775000Y-139418665D01*
X131775000Y-139701335D01*
X131830147Y-139978574D01*
X131938320Y-140239727D01*
X132095363Y-140474759D01*
X132295241Y-140674637D01*
X132530273Y-140831680D01*
X132791426Y-140939853D01*
X133068665Y-140995000D01*
X133351335Y-140995000D01*
X133628574Y-140939853D01*
X133889727Y-140831680D01*
X134124759Y-140674637D01*
X134324637Y-140474759D01*
X134481680Y-140239727D01*
X134589853Y-139978574D01*
X134645000Y-139701335D01*
X134645000Y-139418665D01*
X134589853Y-139141426D01*
X134481680Y-138880273D01*
X134324637Y-138645241D01*
X134124759Y-138445363D01*
X133892241Y-138290000D01*
X134124759Y-138134637D01*
X134324637Y-137934759D01*
X134481680Y-137699727D01*
X134589853Y-137438574D01*
X134645000Y-137161335D01*
X134645000Y-136980000D01*
X136091928Y-136980000D01*
X136104188Y-137104482D01*
X136140498Y-137224180D01*
X136199463Y-137334494D01*
X136278815Y-137431185D01*
X136375506Y-137510537D01*
X136485820Y-137569502D01*
X136605518Y-137605812D01*
X136730000Y-137618072D01*
X137294250Y-137615000D01*
X137453000Y-137456250D01*
X137453000Y-136257000D01*
X137707000Y-136257000D01*
X137707000Y-137456250D01*
X137865750Y-137615000D01*
X138430000Y-137618072D01*
X138554482Y-137605812D01*
X138674180Y-137569502D01*
X138784494Y-137510537D01*
X138881185Y-137431185D01*
X138960537Y-137334494D01*
X139019502Y-137224180D01*
X139055812Y-137104482D01*
X139068072Y-136980000D01*
X139065000Y-136415750D01*
X138977311Y-136328061D01*
X141145000Y-136328061D01*
X141145000Y-136531939D01*
X141184774Y-136731898D01*
X141262795Y-136920256D01*
X141376063Y-137089774D01*
X141520226Y-137233937D01*
X141689744Y-137347205D01*
X141878102Y-137425226D01*
X142078061Y-137465000D01*
X142281939Y-137465000D01*
X142481898Y-137425226D01*
X142670256Y-137347205D01*
X142839774Y-137233937D01*
X142883711Y-137190000D01*
X143786289Y-137190000D01*
X143830226Y-137233937D01*
X143999744Y-137347205D01*
X144188102Y-137425226D01*
X144388061Y-137465000D01*
X144591939Y-137465000D01*
X144791898Y-137425226D01*
X144980256Y-137347205D01*
X145149774Y-137233937D01*
X145293937Y-137089774D01*
X145407205Y-136920256D01*
X145485226Y-136731898D01*
X145525000Y-136531939D01*
X145525000Y-136328061D01*
X145485226Y-136128102D01*
X145407205Y-135939744D01*
X145293937Y-135770226D01*
X145149774Y-135626063D01*
X144980256Y-135512795D01*
X144791898Y-135434774D01*
X144591939Y-135395000D01*
X144388061Y-135395000D01*
X144188102Y-135434774D01*
X143999744Y-135512795D01*
X143830226Y-135626063D01*
X143786289Y-135670000D01*
X142883711Y-135670000D01*
X142839774Y-135626063D01*
X142670256Y-135512795D01*
X142481898Y-135434774D01*
X142281939Y-135395000D01*
X142078061Y-135395000D01*
X141878102Y-135434774D01*
X141689744Y-135512795D01*
X141520226Y-135626063D01*
X141376063Y-135770226D01*
X141262795Y-135939744D01*
X141184774Y-136128102D01*
X141145000Y-136328061D01*
X138977311Y-136328061D01*
X138906250Y-136257000D01*
X137707000Y-136257000D01*
X137453000Y-136257000D01*
X136253750Y-136257000D01*
X136095000Y-136415750D01*
X136091928Y-136980000D01*
X134645000Y-136980000D01*
X134645000Y-136878665D01*
X134589853Y-136601426D01*
X134481680Y-136340273D01*
X134324637Y-136105241D01*
X134124759Y-135905363D01*
X133889727Y-135748320D01*
X133879135Y-135743933D01*
X134065131Y-135632385D01*
X134273519Y-135443414D01*
X134441037Y-135217420D01*
X134561246Y-134963087D01*
X134601904Y-134829039D01*
X134479915Y-134607000D01*
X133337000Y-134607000D01*
X133337000Y-134627000D01*
X133083000Y-134627000D01*
X133083000Y-134607000D01*
X131940085Y-134607000D01*
X131818096Y-134829039D01*
X131858754Y-134963087D01*
X131978963Y-135217420D01*
X132146481Y-135443414D01*
X132354869Y-135632385D01*
X132540865Y-135743933D01*
X132530273Y-135748320D01*
X132295241Y-135905363D01*
X132095363Y-136105241D01*
X131938320Y-136340273D01*
X131830147Y-136601426D01*
X131775000Y-136878665D01*
X131237322Y-136878665D01*
X131192205Y-136769744D01*
X131078937Y-136600226D01*
X130934774Y-136456063D01*
X130765256Y-136342795D01*
X130576898Y-136264774D01*
X130376939Y-136225000D01*
X130173061Y-136225000D01*
X129973102Y-136264774D01*
X129784744Y-136342795D01*
X129615226Y-136456063D01*
X129471063Y-136600226D01*
X129357795Y-136769744D01*
X129279774Y-136958102D01*
X129240000Y-137158061D01*
X129240000Y-137235774D01*
X129184364Y-137339860D01*
X129169455Y-137367753D01*
X129125998Y-137511014D01*
X129115001Y-137622667D01*
X129115001Y-137622677D01*
X129111325Y-137659999D01*
X122955799Y-137659999D01*
X122946873Y-137569374D01*
X122944615Y-137561928D01*
X122796201Y-137072674D01*
X122734961Y-136958102D01*
X122551523Y-136614913D01*
X122222241Y-136213683D01*
X122121700Y-136131171D01*
X121318590Y-135328061D01*
X127615000Y-135328061D01*
X127615000Y-135531939D01*
X127654774Y-135731898D01*
X127732795Y-135920256D01*
X127846063Y-136089774D01*
X127990226Y-136233937D01*
X128159744Y-136347205D01*
X128348102Y-136425226D01*
X128548061Y-136465000D01*
X128751939Y-136465000D01*
X128951898Y-136425226D01*
X129140256Y-136347205D01*
X129309774Y-136233937D01*
X129453937Y-136089774D01*
X129567205Y-135920256D01*
X129645226Y-135731898D01*
X129685000Y-135531939D01*
X129685000Y-135459801D01*
X130759802Y-134385000D01*
X130821939Y-134385000D01*
X131021898Y-134345226D01*
X131210256Y-134267205D01*
X131379774Y-134153937D01*
X131523937Y-134009774D01*
X131637205Y-133840256D01*
X131715226Y-133651898D01*
X131755000Y-133451939D01*
X131755000Y-133248061D01*
X131715226Y-133048102D01*
X131637205Y-132859744D01*
X131523937Y-132690226D01*
X131379774Y-132546063D01*
X131210256Y-132432795D01*
X131021898Y-132354774D01*
X130821939Y-132315000D01*
X130618061Y-132315000D01*
X130418102Y-132354774D01*
X130229744Y-132432795D01*
X130060226Y-132546063D01*
X129916063Y-132690226D01*
X129802795Y-132859744D01*
X129724774Y-133048102D01*
X129685000Y-133248061D01*
X129685000Y-133310198D01*
X128600199Y-134395000D01*
X128548061Y-134395000D01*
X128348102Y-134434774D01*
X128159744Y-134512795D01*
X127990226Y-134626063D01*
X127846063Y-134770226D01*
X127732795Y-134939744D01*
X127654774Y-135128102D01*
X127615000Y-135328061D01*
X121318590Y-135328061D01*
X119778824Y-133788296D01*
X119696307Y-133687749D01*
X119295077Y-133358467D01*
X118837316Y-133113789D01*
X118340616Y-132963117D01*
X117953508Y-132924990D01*
X117953500Y-132924990D01*
X117824066Y-132912242D01*
X117694632Y-132924990D01*
X115645000Y-132924990D01*
X115645000Y-128870000D01*
X125641928Y-128870000D01*
X125641928Y-130570000D01*
X125654188Y-130694482D01*
X125690498Y-130814180D01*
X125749463Y-130924494D01*
X125828815Y-131021185D01*
X125925506Y-131100537D01*
X126035820Y-131159502D01*
X126155518Y-131195812D01*
X126280000Y-131208072D01*
X127980000Y-131208072D01*
X128104482Y-131195812D01*
X128224180Y-131159502D01*
X128334494Y-131100537D01*
X128431185Y-131021185D01*
X128510537Y-130924494D01*
X128569502Y-130814180D01*
X128605812Y-130694482D01*
X128618072Y-130570000D01*
X128618072Y-128870000D01*
X128605812Y-128745518D01*
X128569502Y-128625820D01*
X128510537Y-128515506D01*
X128431185Y-128418815D01*
X128334494Y-128339463D01*
X128224180Y-128280498D01*
X128143534Y-128256034D01*
X128227588Y-128180269D01*
X128401641Y-127946920D01*
X128526825Y-127684099D01*
X128571476Y-127536890D01*
X128450155Y-127307000D01*
X127257000Y-127307000D01*
X127257000Y-127327000D01*
X127003000Y-127327000D01*
X127003000Y-127307000D01*
X125809845Y-127307000D01*
X125688524Y-127536890D01*
X125733175Y-127684099D01*
X125858359Y-127946920D01*
X126032412Y-128180269D01*
X126116466Y-128256034D01*
X126035820Y-128280498D01*
X125925506Y-128339463D01*
X125828815Y-128418815D01*
X125749463Y-128515506D01*
X125690498Y-128625820D01*
X125654188Y-128745518D01*
X125641928Y-128870000D01*
X115645000Y-128870000D01*
X115645000Y-119568061D01*
X117035000Y-119568061D01*
X117035000Y-119771939D01*
X117074774Y-119971898D01*
X117152795Y-120160256D01*
X117266063Y-120329774D01*
X117410226Y-120473937D01*
X117579744Y-120587205D01*
X117768102Y-120665226D01*
X117968061Y-120705000D01*
X118171939Y-120705000D01*
X118371898Y-120665226D01*
X118560256Y-120587205D01*
X118729774Y-120473937D01*
X118773711Y-120430000D01*
X121905650Y-120430000D01*
X121935276Y-120438987D01*
X121990226Y-120493937D01*
X122159744Y-120607205D01*
X122348102Y-120685226D01*
X122548061Y-120725000D01*
X122751939Y-120725000D01*
X122951898Y-120685226D01*
X123140256Y-120607205D01*
X123309774Y-120493937D01*
X123453937Y-120349774D01*
X123567205Y-120180256D01*
X123645226Y-119991898D01*
X123685000Y-119791939D01*
X123685000Y-119588061D01*
X123645226Y-119388102D01*
X123567205Y-119199744D01*
X123453937Y-119030226D01*
X123309774Y-118886063D01*
X123140256Y-118772795D01*
X122951898Y-118694774D01*
X122751939Y-118655000D01*
X122548061Y-118655000D01*
X122348102Y-118694774D01*
X122159744Y-118772795D01*
X121990226Y-118886063D01*
X121966289Y-118910000D01*
X118773711Y-118910000D01*
X118729774Y-118866063D01*
X118560256Y-118752795D01*
X118371898Y-118674774D01*
X118171939Y-118635000D01*
X117968061Y-118635000D01*
X117768102Y-118674774D01*
X117579744Y-118752795D01*
X117410226Y-118866063D01*
X117266063Y-119010226D01*
X117152795Y-119179744D01*
X117074774Y-119368102D01*
X117035000Y-119568061D01*
X115645000Y-119568061D01*
X115645000Y-112098061D01*
X122485000Y-112098061D01*
X122485000Y-112301939D01*
X122524774Y-112501898D01*
X122602795Y-112690256D01*
X122716063Y-112859774D01*
X122790001Y-112933712D01*
X122790000Y-116216289D01*
X122746063Y-116260226D01*
X122632795Y-116429744D01*
X122554774Y-116618102D01*
X122515000Y-116818061D01*
X122515000Y-117021939D01*
X122554774Y-117221898D01*
X122632795Y-117410256D01*
X122746063Y-117579774D01*
X122890226Y-117723937D01*
X123059744Y-117837205D01*
X123248102Y-117915226D01*
X123448061Y-117955000D01*
X123651939Y-117955000D01*
X123851898Y-117915226D01*
X124040256Y-117837205D01*
X124209774Y-117723937D01*
X124353937Y-117579774D01*
X124467205Y-117410256D01*
X124545226Y-117221898D01*
X124585000Y-117021939D01*
X124585000Y-116818061D01*
X124545226Y-116618102D01*
X124467205Y-116429744D01*
X124353937Y-116260226D01*
X124310000Y-116216289D01*
X124310000Y-114333740D01*
X125645000Y-114333740D01*
X125645000Y-114626260D01*
X125702068Y-114913158D01*
X125814010Y-115183411D01*
X125976525Y-115426632D01*
X126183368Y-115633475D01*
X126357760Y-115750000D01*
X126183368Y-115866525D01*
X125976525Y-116073368D01*
X125814010Y-116316589D01*
X125702068Y-116586842D01*
X125645000Y-116873740D01*
X125645000Y-117166260D01*
X125702068Y-117453158D01*
X125814010Y-117723411D01*
X125976525Y-117966632D01*
X126183368Y-118173475D01*
X126357760Y-118290000D01*
X126183368Y-118406525D01*
X125976525Y-118613368D01*
X125814010Y-118856589D01*
X125702068Y-119126842D01*
X125645000Y-119413740D01*
X125645000Y-119706260D01*
X125702068Y-119993158D01*
X125814010Y-120263411D01*
X125976525Y-120506632D01*
X126183368Y-120713475D01*
X126357760Y-120830000D01*
X126183368Y-120946525D01*
X125976525Y-121153368D01*
X125814010Y-121396589D01*
X125702068Y-121666842D01*
X125645000Y-121953740D01*
X125645000Y-122246260D01*
X125702068Y-122533158D01*
X125814010Y-122803411D01*
X125976525Y-123046632D01*
X126183368Y-123253475D01*
X126357760Y-123370000D01*
X126183368Y-123486525D01*
X125976525Y-123693368D01*
X125814010Y-123936589D01*
X125702068Y-124206842D01*
X125645000Y-124493740D01*
X125645000Y-124786260D01*
X125702068Y-125073158D01*
X125814010Y-125343411D01*
X125976525Y-125586632D01*
X126183368Y-125793475D01*
X126365534Y-125915195D01*
X126248645Y-125984822D01*
X126032412Y-126179731D01*
X125858359Y-126413080D01*
X125733175Y-126675901D01*
X125688524Y-126823110D01*
X125809845Y-127053000D01*
X127003000Y-127053000D01*
X127003000Y-127033000D01*
X127257000Y-127033000D01*
X127257000Y-127053000D01*
X128450155Y-127053000D01*
X128571476Y-126823110D01*
X128526825Y-126675901D01*
X128401641Y-126413080D01*
X128227588Y-126179731D01*
X128011355Y-125984822D01*
X127894466Y-125915195D01*
X128076632Y-125793475D01*
X128283475Y-125586632D01*
X128445990Y-125343411D01*
X128557932Y-125073158D01*
X128615000Y-124786260D01*
X128615000Y-124493740D01*
X128557932Y-124206842D01*
X128445990Y-123936589D01*
X128283475Y-123693368D01*
X128076632Y-123486525D01*
X127902240Y-123370000D01*
X128076632Y-123253475D01*
X128283475Y-123046632D01*
X128445990Y-122803411D01*
X128557932Y-122533158D01*
X128615000Y-122246260D01*
X128615000Y-121953740D01*
X128557932Y-121666842D01*
X128445990Y-121396589D01*
X128283475Y-121153368D01*
X128076632Y-120946525D01*
X127902240Y-120830000D01*
X128076632Y-120713475D01*
X128283475Y-120506632D01*
X128445990Y-120263411D01*
X128557932Y-119993158D01*
X128615000Y-119706260D01*
X128615000Y-119413740D01*
X128557932Y-119126842D01*
X128445990Y-118856589D01*
X128294587Y-118629999D01*
X130866994Y-118629999D01*
X130904316Y-118633675D01*
X130941638Y-118629999D01*
X130941649Y-118629999D01*
X130943869Y-118629780D01*
X131059744Y-118707205D01*
X131248102Y-118785226D01*
X131448061Y-118825000D01*
X131651939Y-118825000D01*
X131844535Y-118786691D01*
X131830147Y-118821426D01*
X131775000Y-119098665D01*
X131775000Y-119381335D01*
X131830147Y-119658574D01*
X131938320Y-119919727D01*
X132095363Y-120154759D01*
X132295241Y-120354637D01*
X132527759Y-120510000D01*
X132295241Y-120665363D01*
X132095363Y-120865241D01*
X131938320Y-121100273D01*
X131830147Y-121361426D01*
X131775000Y-121638665D01*
X131775000Y-121921335D01*
X131830147Y-122198574D01*
X131938320Y-122459727D01*
X132095363Y-122694759D01*
X132295241Y-122894637D01*
X132527759Y-123050000D01*
X132295241Y-123205363D01*
X132095363Y-123405241D01*
X131938320Y-123640273D01*
X131830147Y-123901426D01*
X131775000Y-124178665D01*
X131775000Y-124461335D01*
X131830147Y-124738574D01*
X131938320Y-124999727D01*
X132095363Y-125234759D01*
X132295241Y-125434637D01*
X132527759Y-125590000D01*
X132295241Y-125745363D01*
X132095363Y-125945241D01*
X131938320Y-126180273D01*
X131830147Y-126441426D01*
X131775000Y-126718665D01*
X131775000Y-127001335D01*
X131830147Y-127278574D01*
X131938320Y-127539727D01*
X132095363Y-127774759D01*
X132295241Y-127974637D01*
X132527759Y-128130000D01*
X132295241Y-128285363D01*
X132095363Y-128485241D01*
X131938320Y-128720273D01*
X131830147Y-128981426D01*
X131775000Y-129258665D01*
X131775000Y-129541335D01*
X131830147Y-129818574D01*
X131938320Y-130079727D01*
X132095363Y-130314759D01*
X132295241Y-130514637D01*
X132527759Y-130670000D01*
X132295241Y-130825363D01*
X132095363Y-131025241D01*
X131938320Y-131260273D01*
X131830147Y-131521426D01*
X131775000Y-131798665D01*
X131775000Y-132081335D01*
X131830147Y-132358574D01*
X131938320Y-132619727D01*
X132095363Y-132854759D01*
X132295241Y-133054637D01*
X132530273Y-133211680D01*
X132540865Y-133216067D01*
X132354869Y-133327615D01*
X132146481Y-133516586D01*
X131978963Y-133742580D01*
X131858754Y-133996913D01*
X131818096Y-134130961D01*
X131940085Y-134353000D01*
X133083000Y-134353000D01*
X133083000Y-134333000D01*
X133337000Y-134333000D01*
X133337000Y-134353000D01*
X134479915Y-134353000D01*
X134601904Y-134130961D01*
X134561246Y-133996913D01*
X134441037Y-133742580D01*
X134273519Y-133516586D01*
X134065131Y-133327615D01*
X133879135Y-133216067D01*
X133889727Y-133211680D01*
X134124759Y-133054637D01*
X134324637Y-132854759D01*
X134481680Y-132619727D01*
X134589853Y-132358574D01*
X134645000Y-132081335D01*
X134645000Y-131798665D01*
X134589853Y-131521426D01*
X134481680Y-131260273D01*
X134324637Y-131025241D01*
X134124759Y-130825363D01*
X133892241Y-130670000D01*
X134124759Y-130514637D01*
X134324637Y-130314759D01*
X134481680Y-130079727D01*
X134589853Y-129818574D01*
X134645000Y-129541335D01*
X134645000Y-129258665D01*
X134589853Y-128981426D01*
X134481680Y-128720273D01*
X134324637Y-128485241D01*
X134124759Y-128285363D01*
X133892241Y-128130000D01*
X134124759Y-127974637D01*
X134324637Y-127774759D01*
X134481680Y-127539727D01*
X134589853Y-127278574D01*
X134645000Y-127001335D01*
X134645000Y-126718665D01*
X134589853Y-126441426D01*
X134481680Y-126180273D01*
X134324637Y-125945241D01*
X134124759Y-125745363D01*
X133892241Y-125590000D01*
X134124759Y-125434637D01*
X134324637Y-125234759D01*
X134481680Y-124999727D01*
X134589853Y-124738574D01*
X134645000Y-124461335D01*
X134645000Y-124178665D01*
X134589853Y-123901426D01*
X134481680Y-123640273D01*
X134324637Y-123405241D01*
X134124759Y-123205363D01*
X133892241Y-123050000D01*
X134124759Y-122894637D01*
X134324637Y-122694759D01*
X134481680Y-122459727D01*
X134589853Y-122198574D01*
X134645000Y-121921335D01*
X134645000Y-121638665D01*
X134589853Y-121361426D01*
X134481680Y-121100273D01*
X134324637Y-120865241D01*
X134124759Y-120665363D01*
X133892241Y-120510000D01*
X134124759Y-120354637D01*
X134324637Y-120154759D01*
X134481680Y-119919727D01*
X134589853Y-119658574D01*
X134645000Y-119381335D01*
X134645000Y-119098665D01*
X134589853Y-118821426D01*
X134481680Y-118560273D01*
X134324637Y-118325241D01*
X134124759Y-118125363D01*
X133892241Y-117970000D01*
X134124759Y-117814637D01*
X134324637Y-117614759D01*
X134481680Y-117379727D01*
X134589853Y-117118574D01*
X134645000Y-116841335D01*
X134645000Y-116558665D01*
X134622157Y-116443826D01*
X134628061Y-116445000D01*
X134831939Y-116445000D01*
X135031898Y-116405226D01*
X135220256Y-116327205D01*
X135330000Y-116253876D01*
X135330001Y-117306288D01*
X135286063Y-117350226D01*
X135172795Y-117519744D01*
X135094774Y-117708102D01*
X135055000Y-117908061D01*
X135055000Y-118111939D01*
X135094774Y-118311898D01*
X135172795Y-118500256D01*
X135286063Y-118669774D01*
X135430226Y-118813937D01*
X135599744Y-118927205D01*
X135788102Y-119005226D01*
X135988061Y-119045000D01*
X136191939Y-119045000D01*
X136391898Y-119005226D01*
X136580256Y-118927205D01*
X136652732Y-118878778D01*
X136652347Y-118880714D01*
X136652347Y-119084592D01*
X136692121Y-119284551D01*
X136770142Y-119472909D01*
X136883410Y-119642427D01*
X136927347Y-119686364D01*
X136927348Y-120583017D01*
X136923671Y-120620349D01*
X136927348Y-120657682D01*
X136932009Y-120705000D01*
X136938345Y-120769334D01*
X136981801Y-120912595D01*
X137052373Y-121044625D01*
X137123548Y-121131351D01*
X137147347Y-121160350D01*
X137176345Y-121184148D01*
X137989573Y-121997377D01*
X137726260Y-121945000D01*
X137433740Y-121945000D01*
X137146842Y-122002068D01*
X136876589Y-122114010D01*
X136633368Y-122276525D01*
X136426525Y-122483368D01*
X136264010Y-122726589D01*
X136152068Y-122996842D01*
X136095000Y-123283740D01*
X136095000Y-123576260D01*
X136152068Y-123863158D01*
X136264010Y-124133411D01*
X136426525Y-124376632D01*
X136633368Y-124583475D01*
X136807760Y-124700000D01*
X136633368Y-124816525D01*
X136426525Y-125023368D01*
X136264010Y-125266589D01*
X136152068Y-125536842D01*
X136095000Y-125823740D01*
X136095000Y-126116260D01*
X136152068Y-126403158D01*
X136264010Y-126673411D01*
X136426525Y-126916632D01*
X136633368Y-127123475D01*
X136807760Y-127240000D01*
X136633368Y-127356525D01*
X136426525Y-127563368D01*
X136264010Y-127806589D01*
X136152068Y-128076842D01*
X136095000Y-128363740D01*
X136095000Y-128656260D01*
X136152068Y-128943158D01*
X136264010Y-129213411D01*
X136426525Y-129456632D01*
X136633368Y-129663475D01*
X136807760Y-129780000D01*
X136633368Y-129896525D01*
X136426525Y-130103368D01*
X136264010Y-130346589D01*
X136152068Y-130616842D01*
X136095000Y-130903740D01*
X136095000Y-131196260D01*
X136152068Y-131483158D01*
X136264010Y-131753411D01*
X136426525Y-131996632D01*
X136633368Y-132203475D01*
X136807760Y-132320000D01*
X136633368Y-132436525D01*
X136426525Y-132643368D01*
X136264010Y-132886589D01*
X136152068Y-133156842D01*
X136095000Y-133443740D01*
X136095000Y-133736260D01*
X136152068Y-134023158D01*
X136264010Y-134293411D01*
X136426525Y-134536632D01*
X136558380Y-134668487D01*
X136485820Y-134690498D01*
X136375506Y-134749463D01*
X136278815Y-134828815D01*
X136199463Y-134925506D01*
X136140498Y-135035820D01*
X136104188Y-135155518D01*
X136091928Y-135280000D01*
X136095000Y-135844250D01*
X136253750Y-136003000D01*
X137453000Y-136003000D01*
X137453000Y-135983000D01*
X137707000Y-135983000D01*
X137707000Y-136003000D01*
X138906250Y-136003000D01*
X139065000Y-135844250D01*
X139068072Y-135280000D01*
X139055812Y-135155518D01*
X139019502Y-135035820D01*
X138960537Y-134925506D01*
X138881185Y-134828815D01*
X138784494Y-134749463D01*
X138674180Y-134690498D01*
X138601620Y-134668487D01*
X138733475Y-134536632D01*
X138895990Y-134293411D01*
X139007932Y-134023158D01*
X139065000Y-133736260D01*
X139065000Y-133443740D01*
X139007932Y-133156842D01*
X138895990Y-132886589D01*
X138733475Y-132643368D01*
X138526632Y-132436525D01*
X138352240Y-132320000D01*
X138526632Y-132203475D01*
X138733475Y-131996632D01*
X138895990Y-131753411D01*
X139007932Y-131483158D01*
X139065000Y-131196260D01*
X139065000Y-130903740D01*
X139007932Y-130616842D01*
X138895990Y-130346589D01*
X138733475Y-130103368D01*
X138526632Y-129896525D01*
X138352240Y-129780000D01*
X138526632Y-129663475D01*
X138733475Y-129456632D01*
X138895990Y-129213411D01*
X139007932Y-128943158D01*
X139065000Y-128656260D01*
X139065000Y-128363740D01*
X139007932Y-128076842D01*
X138895990Y-127806589D01*
X138733475Y-127563368D01*
X138526632Y-127356525D01*
X138352240Y-127240000D01*
X138526632Y-127123475D01*
X138733475Y-126916632D01*
X138895990Y-126673411D01*
X139007932Y-126403158D01*
X139065000Y-126116260D01*
X139065000Y-125823740D01*
X139007932Y-125536842D01*
X138895990Y-125266589D01*
X138733475Y-125023368D01*
X138526632Y-124816525D01*
X138352240Y-124700000D01*
X138526632Y-124583475D01*
X138733475Y-124376632D01*
X138895990Y-124133411D01*
X139007932Y-123863158D01*
X139065000Y-123576260D01*
X139065000Y-123283740D01*
X139007932Y-122996842D01*
X138895990Y-122726589D01*
X138733475Y-122483368D01*
X138537970Y-122287863D01*
X138559665Y-122290000D01*
X138559673Y-122290000D01*
X138596998Y-122293676D01*
X138634323Y-122290000D01*
X139006289Y-122290000D01*
X139050226Y-122333937D01*
X139219744Y-122447205D01*
X139408102Y-122525226D01*
X139608061Y-122565000D01*
X139700001Y-122565000D01*
X139700001Y-125296288D01*
X139656063Y-125340226D01*
X139542795Y-125509744D01*
X139464774Y-125698102D01*
X139425000Y-125898061D01*
X139425000Y-126101939D01*
X139464774Y-126301898D01*
X139542795Y-126490256D01*
X139656063Y-126659774D01*
X139800226Y-126803937D01*
X139969744Y-126917205D01*
X140158102Y-126995226D01*
X140358061Y-127035000D01*
X140561939Y-127035000D01*
X140761898Y-126995226D01*
X140950256Y-126917205D01*
X141119774Y-126803937D01*
X141263937Y-126659774D01*
X141377205Y-126490256D01*
X141455226Y-126301898D01*
X141495000Y-126101939D01*
X141495000Y-125898061D01*
X141455226Y-125698102D01*
X141377205Y-125509744D01*
X141263937Y-125340226D01*
X141220000Y-125296289D01*
X141220000Y-118957322D01*
X141223676Y-118919999D01*
X141220000Y-118882676D01*
X141220000Y-118882667D01*
X141209003Y-118771014D01*
X141165546Y-118627753D01*
X141094974Y-118495724D01*
X141000001Y-118379999D01*
X140971004Y-118356202D01*
X140665000Y-118050198D01*
X140665000Y-117988061D01*
X140625226Y-117788102D01*
X140547205Y-117599744D01*
X140433937Y-117430226D01*
X140289774Y-117286063D01*
X140120256Y-117172795D01*
X139931898Y-117094774D01*
X139731939Y-117055000D01*
X139528061Y-117055000D01*
X139328102Y-117094774D01*
X139139744Y-117172795D01*
X138970226Y-117286063D01*
X138826063Y-117430226D01*
X138712795Y-117599744D01*
X138634774Y-117788102D01*
X138595000Y-117988061D01*
X138595000Y-117995554D01*
X138448102Y-118024774D01*
X138259744Y-118102795D01*
X138246620Y-118111564D01*
X138177603Y-118065448D01*
X137989245Y-117987427D01*
X137789286Y-117947653D01*
X137585408Y-117947653D01*
X137385449Y-117987427D01*
X137197091Y-118065448D01*
X137124615Y-118113875D01*
X137125000Y-118111939D01*
X137125000Y-117908061D01*
X137114594Y-117855745D01*
X137229551Y-117832879D01*
X137417909Y-117754858D01*
X137587427Y-117641590D01*
X137731590Y-117497427D01*
X137844858Y-117327909D01*
X137922879Y-117139551D01*
X137953621Y-116985000D01*
X138131939Y-116985000D01*
X138331898Y-116945226D01*
X138520256Y-116867205D01*
X138689774Y-116753937D01*
X138833937Y-116609774D01*
X138947205Y-116440256D01*
X139025226Y-116251898D01*
X139065000Y-116051939D01*
X139065000Y-115848061D01*
X139025226Y-115648102D01*
X138947205Y-115459744D01*
X138833937Y-115290226D01*
X138689774Y-115146063D01*
X138620000Y-115099442D01*
X138620000Y-113853711D01*
X138663937Y-113809774D01*
X138777205Y-113640256D01*
X138855226Y-113451898D01*
X138895000Y-113251939D01*
X138895000Y-113048061D01*
X138885055Y-112998061D01*
X140075000Y-112998061D01*
X140075000Y-113201939D01*
X140114774Y-113401898D01*
X140192795Y-113590256D01*
X140306063Y-113759774D01*
X140450226Y-113903937D01*
X140619744Y-114017205D01*
X140808102Y-114095226D01*
X141008061Y-114135000D01*
X141211939Y-114135000D01*
X141411898Y-114095226D01*
X141600256Y-114017205D01*
X141769774Y-113903937D01*
X141913937Y-113759774D01*
X142027205Y-113590256D01*
X142105226Y-113401898D01*
X142145000Y-113201939D01*
X142145000Y-112998061D01*
X142105226Y-112798102D01*
X142027205Y-112609744D01*
X141913937Y-112440226D01*
X141870000Y-112396289D01*
X141870000Y-111944801D01*
X142005000Y-112079801D01*
X142005000Y-112141939D01*
X142044774Y-112341898D01*
X142122795Y-112530256D01*
X142236063Y-112699774D01*
X142380226Y-112843937D01*
X142549744Y-112957205D01*
X142738102Y-113035226D01*
X142938061Y-113075000D01*
X143141939Y-113075000D01*
X143341898Y-113035226D01*
X143530256Y-112957205D01*
X143699774Y-112843937D01*
X143843937Y-112699774D01*
X143957205Y-112530256D01*
X144035226Y-112341898D01*
X144075000Y-112141939D01*
X144075000Y-111938061D01*
X144035226Y-111738102D01*
X143957205Y-111549744D01*
X143847761Y-111385950D01*
X143883937Y-111349774D01*
X143997205Y-111180256D01*
X144075226Y-110991898D01*
X144115000Y-110791939D01*
X144115000Y-110588061D01*
X144075226Y-110388102D01*
X143997205Y-110199744D01*
X143883937Y-110030226D01*
X143820858Y-109967147D01*
X143820858Y-108604569D01*
X143864795Y-108560632D01*
X143978063Y-108391114D01*
X144056084Y-108202756D01*
X144095858Y-108002797D01*
X144095858Y-107798919D01*
X144056084Y-107598960D01*
X143978063Y-107410602D01*
X143864795Y-107241084D01*
X143720632Y-107096921D01*
X143551114Y-106983653D01*
X143362756Y-106905632D01*
X143162797Y-106865858D01*
X142958919Y-106865858D01*
X142758960Y-106905632D01*
X142570602Y-106983653D01*
X142401084Y-107096921D01*
X142256921Y-107241084D01*
X142143653Y-107410602D01*
X142112985Y-107484641D01*
X142019030Y-107484641D01*
X142014209Y-107485600D01*
X142003937Y-107470226D01*
X141859774Y-107326063D01*
X141690256Y-107212795D01*
X141501898Y-107134774D01*
X141301939Y-107095000D01*
X141098061Y-107095000D01*
X140898102Y-107134774D01*
X140709744Y-107212795D01*
X140540226Y-107326063D01*
X140396063Y-107470226D01*
X140282795Y-107639744D01*
X140204774Y-107828102D01*
X140165000Y-108028061D01*
X140165000Y-108231939D01*
X140204774Y-108431898D01*
X140282795Y-108620256D01*
X140352362Y-108724371D01*
X140350000Y-108748353D01*
X140350000Y-108748363D01*
X140346324Y-108785685D01*
X140350000Y-108823008D01*
X140350001Y-112396288D01*
X140306063Y-112440226D01*
X140192795Y-112609744D01*
X140114774Y-112798102D01*
X140075000Y-112998061D01*
X138885055Y-112998061D01*
X138855226Y-112848102D01*
X138777205Y-112659744D01*
X138663937Y-112490226D01*
X138519774Y-112346063D01*
X138350256Y-112232795D01*
X138161898Y-112154774D01*
X137961939Y-112115000D01*
X137758061Y-112115000D01*
X137558102Y-112154774D01*
X137419998Y-112211979D01*
X137444761Y-112087484D01*
X137444761Y-111883606D01*
X137404987Y-111683647D01*
X137326966Y-111495289D01*
X137213698Y-111325771D01*
X137069535Y-111181608D01*
X136900017Y-111068340D01*
X136711659Y-110990319D01*
X136511700Y-110950545D01*
X136449563Y-110950545D01*
X135193020Y-109694003D01*
X135169218Y-109665000D01*
X135053493Y-109570027D01*
X134921464Y-109499455D01*
X134778203Y-109455998D01*
X134666550Y-109445001D01*
X134666539Y-109445001D01*
X134629217Y-109441325D01*
X134600682Y-109444136D01*
X134645000Y-109221335D01*
X134645000Y-108938665D01*
X134589853Y-108661426D01*
X134481680Y-108400273D01*
X134324637Y-108165241D01*
X134124759Y-107965363D01*
X133892241Y-107810000D01*
X134124759Y-107654637D01*
X134324637Y-107454759D01*
X134481680Y-107219727D01*
X134589853Y-106958574D01*
X134645000Y-106681335D01*
X134645000Y-106398665D01*
X134589853Y-106121426D01*
X134481680Y-105860273D01*
X134324637Y-105625241D01*
X134124759Y-105425363D01*
X133892241Y-105270000D01*
X134124759Y-105114637D01*
X134324637Y-104914759D01*
X134481680Y-104679727D01*
X134589853Y-104418574D01*
X134645000Y-104141335D01*
X134645000Y-103858665D01*
X134589853Y-103581426D01*
X134481680Y-103320273D01*
X134324637Y-103085241D01*
X134124759Y-102885363D01*
X133892241Y-102730000D01*
X134124759Y-102574637D01*
X134324637Y-102374759D01*
X134481680Y-102139727D01*
X134589853Y-101878574D01*
X134645000Y-101601335D01*
X134645000Y-101318665D01*
X134589853Y-101041426D01*
X134481680Y-100780273D01*
X134387953Y-100640000D01*
X136091928Y-100640000D01*
X136091928Y-102340000D01*
X136104188Y-102464482D01*
X136140498Y-102584180D01*
X136199463Y-102694494D01*
X136278815Y-102791185D01*
X136375506Y-102870537D01*
X136485820Y-102929502D01*
X136605518Y-102965812D01*
X136730000Y-102978072D01*
X138430000Y-102978072D01*
X138554482Y-102965812D01*
X138674180Y-102929502D01*
X138784494Y-102870537D01*
X138881185Y-102791185D01*
X138960537Y-102694494D01*
X139019502Y-102584180D01*
X139055812Y-102464482D01*
X139068072Y-102340000D01*
X139068072Y-100640000D01*
X139055812Y-100515518D01*
X139019502Y-100395820D01*
X138960537Y-100285506D01*
X138881185Y-100188815D01*
X138784494Y-100109463D01*
X138674180Y-100050498D01*
X138593534Y-100026034D01*
X138677588Y-99950269D01*
X138851641Y-99716920D01*
X138976825Y-99454099D01*
X139021476Y-99306890D01*
X138900155Y-99077000D01*
X137707000Y-99077000D01*
X137707000Y-99097000D01*
X137453000Y-99097000D01*
X137453000Y-99077000D01*
X136259845Y-99077000D01*
X136138524Y-99306890D01*
X136183175Y-99454099D01*
X136308359Y-99716920D01*
X136482412Y-99950269D01*
X136566466Y-100026034D01*
X136485820Y-100050498D01*
X136375506Y-100109463D01*
X136278815Y-100188815D01*
X136199463Y-100285506D01*
X136140498Y-100395820D01*
X136104188Y-100515518D01*
X136091928Y-100640000D01*
X134387953Y-100640000D01*
X134324637Y-100545241D01*
X134124759Y-100345363D01*
X133892241Y-100190000D01*
X134124759Y-100034637D01*
X134324637Y-99834759D01*
X134481680Y-99599727D01*
X134589853Y-99338574D01*
X134645000Y-99061335D01*
X134645000Y-98778665D01*
X134589853Y-98501426D01*
X134481680Y-98240273D01*
X134324637Y-98005241D01*
X134124759Y-97805363D01*
X133892241Y-97650000D01*
X134124759Y-97494637D01*
X134324637Y-97294759D01*
X134481680Y-97059727D01*
X134589853Y-96798574D01*
X134645000Y-96521335D01*
X134645000Y-96238665D01*
X134589853Y-95961426D01*
X134481680Y-95700273D01*
X134324637Y-95465241D01*
X134124759Y-95265363D01*
X133892241Y-95110000D01*
X134124759Y-94954637D01*
X134324637Y-94754759D01*
X134481680Y-94519727D01*
X134589853Y-94258574D01*
X134645000Y-93981335D01*
X134645000Y-93698665D01*
X134589853Y-93421426D01*
X134481680Y-93160273D01*
X134324637Y-92925241D01*
X134124759Y-92725363D01*
X133892241Y-92570000D01*
X134124759Y-92414637D01*
X134324637Y-92214759D01*
X134481680Y-91979727D01*
X134589853Y-91718574D01*
X134645000Y-91441335D01*
X134645000Y-91158665D01*
X134589853Y-90881426D01*
X134481680Y-90620273D01*
X134324637Y-90385241D01*
X134124759Y-90185363D01*
X133889727Y-90028320D01*
X133879135Y-90023933D01*
X134065131Y-89912385D01*
X134273519Y-89723414D01*
X134441037Y-89497420D01*
X134561246Y-89243087D01*
X134601904Y-89109039D01*
X134479915Y-88887000D01*
X133337000Y-88887000D01*
X133337000Y-88907000D01*
X133083000Y-88907000D01*
X133083000Y-88887000D01*
X131940085Y-88887000D01*
X131818096Y-89109039D01*
X131858754Y-89243087D01*
X131978963Y-89497420D01*
X132146481Y-89723414D01*
X132354869Y-89912385D01*
X132540865Y-90023933D01*
X132530273Y-90028320D01*
X132295241Y-90185363D01*
X132095363Y-90385241D01*
X131938320Y-90620273D01*
X131830147Y-90881426D01*
X131775000Y-91158665D01*
X131775000Y-91441335D01*
X131830147Y-91718574D01*
X131938320Y-91979727D01*
X132095363Y-92214759D01*
X132295241Y-92414637D01*
X132527759Y-92570000D01*
X132295241Y-92725363D01*
X132095363Y-92925241D01*
X131938320Y-93160273D01*
X131830147Y-93421426D01*
X131775000Y-93698665D01*
X131775000Y-93981335D01*
X131830147Y-94258574D01*
X131938320Y-94519727D01*
X132095363Y-94754759D01*
X132295241Y-94954637D01*
X132527759Y-95110000D01*
X132295241Y-95265363D01*
X132095363Y-95465241D01*
X131938320Y-95700273D01*
X131830147Y-95961426D01*
X131775000Y-96238665D01*
X131775000Y-96521335D01*
X131830147Y-96798574D01*
X131938320Y-97059727D01*
X132095363Y-97294759D01*
X132295241Y-97494637D01*
X132527759Y-97650000D01*
X132295241Y-97805363D01*
X132095363Y-98005241D01*
X131938320Y-98240273D01*
X131830147Y-98501426D01*
X131775000Y-98778665D01*
X131775000Y-99061335D01*
X131830147Y-99338574D01*
X131938320Y-99599727D01*
X132095363Y-99834759D01*
X132295241Y-100034637D01*
X132527759Y-100190000D01*
X132295241Y-100345363D01*
X132095363Y-100545241D01*
X131938320Y-100780273D01*
X131830147Y-101041426D01*
X131775000Y-101318665D01*
X131775000Y-101601335D01*
X131830147Y-101878574D01*
X131938320Y-102139727D01*
X132095363Y-102374759D01*
X132295241Y-102574637D01*
X132527759Y-102730000D01*
X132295241Y-102885363D01*
X132095363Y-103085241D01*
X131938320Y-103320273D01*
X131830147Y-103581426D01*
X131775000Y-103858665D01*
X131775000Y-104141335D01*
X131830147Y-104418574D01*
X131938320Y-104679727D01*
X132095363Y-104914759D01*
X132295241Y-105114637D01*
X132527759Y-105270000D01*
X132295241Y-105425363D01*
X132095363Y-105625241D01*
X131938320Y-105860273D01*
X131830147Y-106121426D01*
X131775000Y-106398665D01*
X131775000Y-106681335D01*
X131830147Y-106958574D01*
X131938320Y-107219727D01*
X132095363Y-107454759D01*
X132160411Y-107519807D01*
X132000256Y-107412795D01*
X131811898Y-107334774D01*
X131611939Y-107295000D01*
X131408061Y-107295000D01*
X131208102Y-107334774D01*
X131019744Y-107412795D01*
X130850226Y-107526063D01*
X130706063Y-107670226D01*
X130592795Y-107839744D01*
X130514774Y-108028102D01*
X130475000Y-108228061D01*
X130475000Y-108431939D01*
X130514774Y-108631898D01*
X130592795Y-108820256D01*
X130706063Y-108989774D01*
X130747666Y-109031377D01*
X130746324Y-109045002D01*
X130750000Y-109082324D01*
X130750000Y-109082334D01*
X130760997Y-109193987D01*
X130800307Y-109323578D01*
X130804454Y-109337248D01*
X130875026Y-109469278D01*
X130893043Y-109491231D01*
X130969999Y-109585003D01*
X130999003Y-109608806D01*
X132095400Y-110705204D01*
X132095363Y-110705241D01*
X131938320Y-110940273D01*
X131830147Y-111201426D01*
X131775000Y-111478665D01*
X131775000Y-111751467D01*
X131641939Y-111725000D01*
X131438061Y-111725000D01*
X131238102Y-111764774D01*
X131049744Y-111842795D01*
X130880226Y-111956063D01*
X130736063Y-112100226D01*
X130622795Y-112269744D01*
X130544774Y-112458102D01*
X130505000Y-112658061D01*
X130505000Y-112861939D01*
X130544774Y-113061898D01*
X130622795Y-113250256D01*
X130736063Y-113419774D01*
X130880226Y-113563937D01*
X131049744Y-113677205D01*
X131238102Y-113755226D01*
X131438061Y-113795000D01*
X131641939Y-113795000D01*
X131826805Y-113758228D01*
X131775000Y-114018665D01*
X131775000Y-114301335D01*
X131830147Y-114578574D01*
X131859733Y-114650000D01*
X128610278Y-114650000D01*
X128615000Y-114626260D01*
X128615000Y-114333740D01*
X128557932Y-114046842D01*
X128445990Y-113776589D01*
X128283475Y-113533368D01*
X128076632Y-113326525D01*
X127833411Y-113164010D01*
X127563158Y-113052068D01*
X127276260Y-112995000D01*
X126983740Y-112995000D01*
X126696842Y-113052068D01*
X126426589Y-113164010D01*
X126183368Y-113326525D01*
X125976525Y-113533368D01*
X125814010Y-113776589D01*
X125702068Y-114046842D01*
X125645000Y-114333740D01*
X124310000Y-114333740D01*
X124310000Y-112873711D01*
X124323937Y-112859774D01*
X124437205Y-112690256D01*
X124515226Y-112501898D01*
X124555000Y-112301939D01*
X124555000Y-112098061D01*
X124515226Y-111898102D01*
X124437205Y-111709744D01*
X124323937Y-111540226D01*
X124179774Y-111396063D01*
X124010256Y-111282795D01*
X123821898Y-111204774D01*
X123621939Y-111165000D01*
X123418061Y-111165000D01*
X123218102Y-111204774D01*
X123029744Y-111282795D01*
X122860226Y-111396063D01*
X122716063Y-111540226D01*
X122602795Y-111709744D01*
X122524774Y-111898102D01*
X122485000Y-112098061D01*
X115645000Y-112098061D01*
X115645000Y-108380000D01*
X125771928Y-108380000D01*
X125771928Y-110080000D01*
X125784188Y-110204482D01*
X125820498Y-110324180D01*
X125879463Y-110434494D01*
X125958815Y-110531185D01*
X126055506Y-110610537D01*
X126165820Y-110669502D01*
X126285518Y-110705812D01*
X126410000Y-110718072D01*
X128110000Y-110718072D01*
X128234482Y-110705812D01*
X128354180Y-110669502D01*
X128464494Y-110610537D01*
X128561185Y-110531185D01*
X128640537Y-110434494D01*
X128699502Y-110324180D01*
X128735812Y-110204482D01*
X128748072Y-110080000D01*
X128748072Y-108380000D01*
X128735812Y-108255518D01*
X128699502Y-108135820D01*
X128640537Y-108025506D01*
X128561185Y-107928815D01*
X128464494Y-107849463D01*
X128354180Y-107790498D01*
X128281620Y-107768487D01*
X128413475Y-107636632D01*
X128575990Y-107393411D01*
X128687932Y-107123158D01*
X128745000Y-106836260D01*
X128745000Y-106543740D01*
X128687932Y-106256842D01*
X128575990Y-105986589D01*
X128413475Y-105743368D01*
X128206632Y-105536525D01*
X128032240Y-105420000D01*
X128206632Y-105303475D01*
X128413475Y-105096632D01*
X128575990Y-104853411D01*
X128687932Y-104583158D01*
X128745000Y-104296260D01*
X128745000Y-104003740D01*
X128687932Y-103716842D01*
X128580582Y-103457674D01*
X128639744Y-103497205D01*
X128828102Y-103575226D01*
X129028061Y-103615000D01*
X129231939Y-103615000D01*
X129431898Y-103575226D01*
X129620256Y-103497205D01*
X129789774Y-103383937D01*
X129835877Y-103337834D01*
X129997586Y-103370000D01*
X130201464Y-103370000D01*
X130401423Y-103330226D01*
X130589781Y-103252205D01*
X130759299Y-103138937D01*
X130903462Y-102994774D01*
X131016730Y-102825256D01*
X131094751Y-102636898D01*
X131134525Y-102436939D01*
X131134525Y-102233061D01*
X131094751Y-102033102D01*
X131016730Y-101844744D01*
X130903462Y-101675226D01*
X130859525Y-101631289D01*
X130859525Y-97954186D01*
X130913937Y-97899774D01*
X131027205Y-97730256D01*
X131105226Y-97541898D01*
X131145000Y-97341939D01*
X131145000Y-97138061D01*
X131105226Y-96938102D01*
X131027205Y-96749744D01*
X130913937Y-96580226D01*
X130769774Y-96436063D01*
X130600256Y-96322795D01*
X130411898Y-96244774D01*
X130211939Y-96205000D01*
X130008061Y-96205000D01*
X129808102Y-96244774D01*
X129619744Y-96322795D01*
X129450226Y-96436063D01*
X129306063Y-96580226D01*
X129192795Y-96749744D01*
X129114774Y-96938102D01*
X129079587Y-97115000D01*
X129028061Y-97115000D01*
X128828102Y-97154774D01*
X128639744Y-97232795D01*
X128525312Y-97309256D01*
X128575990Y-97233411D01*
X128687932Y-96963158D01*
X128745000Y-96676260D01*
X128745000Y-96383740D01*
X128687932Y-96096842D01*
X128575990Y-95826589D01*
X128413475Y-95583368D01*
X128206632Y-95376525D01*
X128032240Y-95260000D01*
X128206632Y-95143475D01*
X128413475Y-94936632D01*
X128575990Y-94693411D01*
X128687932Y-94423158D01*
X128745000Y-94136260D01*
X128745000Y-93843740D01*
X128687932Y-93556842D01*
X128575990Y-93286589D01*
X128413475Y-93043368D01*
X128206632Y-92836525D01*
X128024466Y-92714805D01*
X128141355Y-92645178D01*
X128357588Y-92450269D01*
X128531641Y-92216920D01*
X128656825Y-91954099D01*
X128701476Y-91806890D01*
X128580155Y-91577000D01*
X127387000Y-91577000D01*
X127387000Y-91597000D01*
X127133000Y-91597000D01*
X127133000Y-91577000D01*
X125939845Y-91577000D01*
X125818524Y-91806890D01*
X125863175Y-91954099D01*
X125988359Y-92216920D01*
X126162412Y-92450269D01*
X126378645Y-92645178D01*
X126495534Y-92714805D01*
X126313368Y-92836525D01*
X126106525Y-93043368D01*
X125944010Y-93286589D01*
X125832068Y-93556842D01*
X125775000Y-93843740D01*
X125775000Y-94136260D01*
X125832068Y-94423158D01*
X125944010Y-94693411D01*
X126106525Y-94936632D01*
X126313368Y-95143475D01*
X126487760Y-95260000D01*
X126313368Y-95376525D01*
X126106525Y-95583368D01*
X125944010Y-95826589D01*
X125832068Y-96096842D01*
X125775000Y-96383740D01*
X125775000Y-96676260D01*
X125832068Y-96963158D01*
X125944010Y-97233411D01*
X126106525Y-97476632D01*
X126313368Y-97683475D01*
X126487760Y-97800000D01*
X126313368Y-97916525D01*
X126106525Y-98123368D01*
X125944010Y-98366589D01*
X125832068Y-98636842D01*
X125775000Y-98923740D01*
X125775000Y-99216260D01*
X125832068Y-99503158D01*
X125944010Y-99773411D01*
X126106525Y-100016632D01*
X126313368Y-100223475D01*
X126487760Y-100340000D01*
X126313368Y-100456525D01*
X126106525Y-100663368D01*
X125944010Y-100906589D01*
X125832068Y-101176842D01*
X125775000Y-101463740D01*
X125775000Y-101756260D01*
X125832068Y-102043158D01*
X125944010Y-102313411D01*
X126106525Y-102556632D01*
X126313368Y-102763475D01*
X126487760Y-102880000D01*
X126313368Y-102996525D01*
X126106525Y-103203368D01*
X125944010Y-103446589D01*
X125832068Y-103716842D01*
X125775000Y-104003740D01*
X125775000Y-104296260D01*
X125832068Y-104583158D01*
X125944010Y-104853411D01*
X126106525Y-105096632D01*
X126313368Y-105303475D01*
X126487760Y-105420000D01*
X126313368Y-105536525D01*
X126106525Y-105743368D01*
X125944010Y-105986589D01*
X125832068Y-106256842D01*
X125775000Y-106543740D01*
X125775000Y-106836260D01*
X125832068Y-107123158D01*
X125944010Y-107393411D01*
X126106525Y-107636632D01*
X126238380Y-107768487D01*
X126165820Y-107790498D01*
X126055506Y-107849463D01*
X125958815Y-107928815D01*
X125879463Y-108025506D01*
X125820498Y-108135820D01*
X125784188Y-108255518D01*
X125771928Y-108380000D01*
X115645000Y-108380000D01*
X115645000Y-97834685D01*
X121750000Y-97834685D01*
X121750000Y-98185315D01*
X121818404Y-98529207D01*
X121952584Y-98853146D01*
X122147383Y-99144684D01*
X122395316Y-99392617D01*
X122570992Y-99510000D01*
X122395316Y-99627383D01*
X122147383Y-99875316D01*
X121952584Y-100166854D01*
X121818404Y-100490793D01*
X121750000Y-100834685D01*
X121750000Y-101185315D01*
X121818404Y-101529207D01*
X121952584Y-101853146D01*
X122147383Y-102144684D01*
X122395316Y-102392617D01*
X122686854Y-102587416D01*
X123010793Y-102721596D01*
X123354685Y-102790000D01*
X123705315Y-102790000D01*
X124049207Y-102721596D01*
X124373146Y-102587416D01*
X124664684Y-102392617D01*
X124912617Y-102144684D01*
X125107416Y-101853146D01*
X125241596Y-101529207D01*
X125310000Y-101185315D01*
X125310000Y-100834685D01*
X125241596Y-100490793D01*
X125107416Y-100166854D01*
X124912617Y-99875316D01*
X124664684Y-99627383D01*
X124489008Y-99510000D01*
X124664684Y-99392617D01*
X124912617Y-99144684D01*
X125107416Y-98853146D01*
X125241596Y-98529207D01*
X125310000Y-98185315D01*
X125310000Y-97834685D01*
X125241596Y-97490793D01*
X125107416Y-97166854D01*
X124912617Y-96875316D01*
X124664684Y-96627383D01*
X124373146Y-96432584D01*
X124049207Y-96298404D01*
X123705315Y-96230000D01*
X123354685Y-96230000D01*
X123010793Y-96298404D01*
X122686854Y-96432584D01*
X122395316Y-96627383D01*
X122147383Y-96875316D01*
X121952584Y-97166854D01*
X121818404Y-97490793D01*
X121750000Y-97834685D01*
X115645000Y-97834685D01*
X115645000Y-88763740D01*
X125775000Y-88763740D01*
X125775000Y-89056260D01*
X125832068Y-89343158D01*
X125944010Y-89613411D01*
X126106525Y-89856632D01*
X126313368Y-90063475D01*
X126495534Y-90185195D01*
X126378645Y-90254822D01*
X126162412Y-90449731D01*
X125988359Y-90683080D01*
X125863175Y-90945901D01*
X125818524Y-91093110D01*
X125939845Y-91323000D01*
X127133000Y-91323000D01*
X127133000Y-91303000D01*
X127387000Y-91303000D01*
X127387000Y-91323000D01*
X128580155Y-91323000D01*
X128701476Y-91093110D01*
X128656825Y-90945901D01*
X128531641Y-90683080D01*
X128357588Y-90449731D01*
X128141355Y-90254822D01*
X128024466Y-90185195D01*
X128206632Y-90063475D01*
X128413475Y-89856632D01*
X128575990Y-89613411D01*
X128687932Y-89343158D01*
X128745000Y-89056260D01*
X128745000Y-88763740D01*
X128721131Y-88643740D01*
X136095000Y-88643740D01*
X136095000Y-88936260D01*
X136152068Y-89223158D01*
X136264010Y-89493411D01*
X136426525Y-89736632D01*
X136633368Y-89943475D01*
X136807760Y-90060000D01*
X136633368Y-90176525D01*
X136426525Y-90383368D01*
X136264010Y-90626589D01*
X136152068Y-90896842D01*
X136095000Y-91183740D01*
X136095000Y-91476260D01*
X136152068Y-91763158D01*
X136264010Y-92033411D01*
X136426525Y-92276632D01*
X136633368Y-92483475D01*
X136807760Y-92600000D01*
X136633368Y-92716525D01*
X136426525Y-92923368D01*
X136264010Y-93166589D01*
X136152068Y-93436842D01*
X136095000Y-93723740D01*
X136095000Y-94016260D01*
X136152068Y-94303158D01*
X136264010Y-94573411D01*
X136426525Y-94816632D01*
X136633368Y-95023475D01*
X136807760Y-95140000D01*
X136633368Y-95256525D01*
X136426525Y-95463368D01*
X136264010Y-95706589D01*
X136152068Y-95976842D01*
X136095000Y-96263740D01*
X136095000Y-96556260D01*
X136152068Y-96843158D01*
X136264010Y-97113411D01*
X136426525Y-97356632D01*
X136633368Y-97563475D01*
X136815534Y-97685195D01*
X136698645Y-97754822D01*
X136482412Y-97949731D01*
X136308359Y-98183080D01*
X136183175Y-98445901D01*
X136138524Y-98593110D01*
X136259845Y-98823000D01*
X137453000Y-98823000D01*
X137453000Y-98803000D01*
X137707000Y-98803000D01*
X137707000Y-98823000D01*
X138900155Y-98823000D01*
X139021476Y-98593110D01*
X138976825Y-98445901D01*
X138851641Y-98183080D01*
X138677588Y-97949731D01*
X138461355Y-97754822D01*
X138344466Y-97685195D01*
X138526632Y-97563475D01*
X138733475Y-97356632D01*
X138895990Y-97113411D01*
X139007932Y-96843158D01*
X139065000Y-96556260D01*
X139065000Y-96263740D01*
X139007932Y-95976842D01*
X138895990Y-95706589D01*
X138733475Y-95463368D01*
X138526632Y-95256525D01*
X138352240Y-95140000D01*
X138526632Y-95023475D01*
X138733475Y-94816632D01*
X138895990Y-94573411D01*
X139007932Y-94303158D01*
X139065000Y-94016260D01*
X139065000Y-93723740D01*
X139007932Y-93436842D01*
X138895990Y-93166589D01*
X138733475Y-92923368D01*
X138526632Y-92716525D01*
X138352240Y-92600000D01*
X138526632Y-92483475D01*
X138733475Y-92276632D01*
X138895990Y-92033411D01*
X139007932Y-91763158D01*
X139065000Y-91476260D01*
X139065000Y-91349801D01*
X144417347Y-96702149D01*
X144417348Y-105833635D01*
X144373410Y-105877573D01*
X144260142Y-106047091D01*
X144182121Y-106235449D01*
X144142347Y-106435408D01*
X144142347Y-106639286D01*
X144182121Y-106839245D01*
X144260142Y-107027603D01*
X144373410Y-107197121D01*
X144517573Y-107341284D01*
X144687091Y-107454552D01*
X144875449Y-107532573D01*
X145075408Y-107572347D01*
X145153121Y-107572347D01*
X145285099Y-107642892D01*
X145428360Y-107686349D01*
X145540013Y-107697346D01*
X145540023Y-107697346D01*
X145577345Y-107701022D01*
X145614668Y-107697346D01*
X146118943Y-107697346D01*
X146165533Y-107743936D01*
X146335051Y-107857204D01*
X146523409Y-107935225D01*
X146723368Y-107974999D01*
X146927246Y-107974999D01*
X147127205Y-107935225D01*
X147315563Y-107857204D01*
X147485081Y-107743936D01*
X147629244Y-107599773D01*
X147742512Y-107430255D01*
X147820533Y-107241897D01*
X147860307Y-107041938D01*
X147860307Y-106838060D01*
X147820533Y-106638101D01*
X147742512Y-106449743D01*
X147629244Y-106280225D01*
X147485081Y-106136062D01*
X147315563Y-106022794D01*
X147127205Y-105944773D01*
X146927246Y-105904999D01*
X146723368Y-105904999D01*
X146523409Y-105944773D01*
X146335051Y-106022794D01*
X146165533Y-106136062D01*
X146141401Y-106160194D01*
X146094552Y-106047091D01*
X145981284Y-105877573D01*
X145937347Y-105833636D01*
X145937347Y-99198061D01*
X147225000Y-99198061D01*
X147225000Y-99401939D01*
X147264774Y-99601898D01*
X147342795Y-99790256D01*
X147456063Y-99959774D01*
X147600226Y-100103937D01*
X147769744Y-100217205D01*
X147958102Y-100295226D01*
X147980000Y-100299582D01*
X147980001Y-103296288D01*
X147936063Y-103340226D01*
X147822795Y-103509744D01*
X147744774Y-103698102D01*
X147705000Y-103898061D01*
X147705000Y-104101939D01*
X147744774Y-104301898D01*
X147822795Y-104490256D01*
X147936063Y-104659774D01*
X148080226Y-104803937D01*
X148249744Y-104917205D01*
X148438102Y-104995226D01*
X148638061Y-105035000D01*
X148841939Y-105035000D01*
X149041898Y-104995226D01*
X149230256Y-104917205D01*
X149399774Y-104803937D01*
X149543937Y-104659774D01*
X149646484Y-104506300D01*
X149718320Y-104679727D01*
X149875363Y-104914759D01*
X150075241Y-105114637D01*
X150307759Y-105270000D01*
X150075241Y-105425363D01*
X149875363Y-105625241D01*
X149718320Y-105860273D01*
X149610147Y-106121426D01*
X149555000Y-106398665D01*
X149555000Y-106681335D01*
X149610147Y-106958574D01*
X149718320Y-107219727D01*
X149875363Y-107454759D01*
X150075241Y-107654637D01*
X150307759Y-107810000D01*
X150075241Y-107965363D01*
X149875363Y-108165241D01*
X149718320Y-108400273D01*
X149610147Y-108661426D01*
X149555000Y-108938665D01*
X149555000Y-109221335D01*
X149610147Y-109498574D01*
X149718320Y-109759727D01*
X149875363Y-109994759D01*
X150075241Y-110194637D01*
X150307759Y-110350000D01*
X150075241Y-110505363D01*
X149875363Y-110705241D01*
X149718320Y-110940273D01*
X149610147Y-111201426D01*
X149555000Y-111478665D01*
X149555000Y-111761335D01*
X149610147Y-112038574D01*
X149718320Y-112299727D01*
X149875363Y-112534759D01*
X150075241Y-112734637D01*
X150307759Y-112890000D01*
X150075241Y-113045363D01*
X149875363Y-113245241D01*
X149718320Y-113480273D01*
X149610147Y-113741426D01*
X149555000Y-114018665D01*
X149555000Y-114301335D01*
X149610147Y-114578574D01*
X149718320Y-114839727D01*
X149875363Y-115074759D01*
X150075241Y-115274637D01*
X150307759Y-115430000D01*
X150075241Y-115585363D01*
X149875363Y-115785241D01*
X149718320Y-116020273D01*
X149610147Y-116281426D01*
X149555000Y-116558665D01*
X149555000Y-116841335D01*
X149610147Y-117118574D01*
X149718320Y-117379727D01*
X149875363Y-117614759D01*
X150075241Y-117814637D01*
X150307759Y-117970000D01*
X150075241Y-118125363D01*
X149875363Y-118325241D01*
X149718320Y-118560273D01*
X149610147Y-118821426D01*
X149555000Y-119098665D01*
X149555000Y-119381335D01*
X149610147Y-119658574D01*
X149718320Y-119919727D01*
X149875363Y-120154759D01*
X150075241Y-120354637D01*
X150307759Y-120510000D01*
X150075241Y-120665363D01*
X149875363Y-120865241D01*
X149718320Y-121100273D01*
X149610147Y-121361426D01*
X149555000Y-121638665D01*
X149555000Y-121921335D01*
X149610147Y-122198574D01*
X149718320Y-122459727D01*
X149875363Y-122694759D01*
X150075241Y-122894637D01*
X150307759Y-123050000D01*
X150075241Y-123205363D01*
X149875363Y-123405241D01*
X149718320Y-123640273D01*
X149610147Y-123901426D01*
X149555000Y-124178665D01*
X149555000Y-124461335D01*
X149610147Y-124738574D01*
X149718320Y-124999727D01*
X149875363Y-125234759D01*
X150075241Y-125434637D01*
X150307759Y-125590000D01*
X150075241Y-125745363D01*
X149875363Y-125945241D01*
X149718320Y-126180273D01*
X149610147Y-126441426D01*
X149555000Y-126718665D01*
X149555000Y-127001335D01*
X149610147Y-127278574D01*
X149718320Y-127539727D01*
X149875363Y-127774759D01*
X150075241Y-127974637D01*
X150307759Y-128130000D01*
X150075241Y-128285363D01*
X149875363Y-128485241D01*
X149718320Y-128720273D01*
X149610147Y-128981426D01*
X149555000Y-129258665D01*
X149555000Y-129541335D01*
X149610147Y-129818574D01*
X149718320Y-130079727D01*
X149875363Y-130314759D01*
X150075241Y-130514637D01*
X150307759Y-130670000D01*
X150075241Y-130825363D01*
X149875363Y-131025241D01*
X149718320Y-131260273D01*
X149610147Y-131521426D01*
X149555000Y-131798665D01*
X149555000Y-132081335D01*
X149610147Y-132358574D01*
X149718320Y-132619727D01*
X149875363Y-132854759D01*
X150075241Y-133054637D01*
X150307759Y-133210000D01*
X150075241Y-133365363D01*
X149875363Y-133565241D01*
X149718320Y-133800273D01*
X149610147Y-134061426D01*
X149555000Y-134338665D01*
X149555000Y-134621335D01*
X149610147Y-134898574D01*
X149718320Y-135159727D01*
X149875363Y-135394759D01*
X150075241Y-135594637D01*
X150307759Y-135750000D01*
X150075241Y-135905363D01*
X149875363Y-136105241D01*
X149718320Y-136340273D01*
X149610147Y-136601426D01*
X149555000Y-136878665D01*
X149555000Y-137161335D01*
X149610147Y-137438574D01*
X149718320Y-137699727D01*
X149875363Y-137934759D01*
X150073961Y-138133357D01*
X150065518Y-138134188D01*
X149945820Y-138170498D01*
X149835506Y-138229463D01*
X149738815Y-138308815D01*
X149659463Y-138405506D01*
X149600498Y-138515820D01*
X149564188Y-138635518D01*
X149551928Y-138760000D01*
X149551928Y-140360000D01*
X149564188Y-140484482D01*
X149600498Y-140604180D01*
X149659463Y-140714494D01*
X149738815Y-140811185D01*
X149835506Y-140890537D01*
X149945820Y-140949502D01*
X150065518Y-140985812D01*
X150190000Y-140998072D01*
X151790000Y-140998072D01*
X151914482Y-140985812D01*
X152034180Y-140949502D01*
X152144494Y-140890537D01*
X152241185Y-140811185D01*
X152320537Y-140714494D01*
X152379502Y-140604180D01*
X152415812Y-140484482D01*
X152428072Y-140360000D01*
X152428072Y-138760000D01*
X152415812Y-138635518D01*
X152379502Y-138515820D01*
X152320537Y-138405506D01*
X152241185Y-138308815D01*
X152144494Y-138229463D01*
X152034180Y-138170498D01*
X151914482Y-138134188D01*
X151906039Y-138133357D01*
X152104637Y-137934759D01*
X152261680Y-137699727D01*
X152369853Y-137438574D01*
X152425000Y-137161335D01*
X152425000Y-136878665D01*
X152369853Y-136601426D01*
X152261680Y-136340273D01*
X152104637Y-136105241D01*
X151904759Y-135905363D01*
X151672241Y-135750000D01*
X151904759Y-135594637D01*
X152104637Y-135394759D01*
X152261680Y-135159727D01*
X152369853Y-134898574D01*
X152425000Y-134621335D01*
X152425000Y-134338665D01*
X152369853Y-134061426D01*
X152261680Y-133800273D01*
X152104637Y-133565241D01*
X151904759Y-133365363D01*
X151672241Y-133210000D01*
X151904759Y-133054637D01*
X152104637Y-132854759D01*
X152261680Y-132619727D01*
X152369853Y-132358574D01*
X152425000Y-132081335D01*
X152425000Y-131798665D01*
X152369853Y-131521426D01*
X152261680Y-131260273D01*
X152104637Y-131025241D01*
X151904759Y-130825363D01*
X151672241Y-130670000D01*
X151904759Y-130514637D01*
X152104637Y-130314759D01*
X152261680Y-130079727D01*
X152369853Y-129818574D01*
X152425000Y-129541335D01*
X152425000Y-129258665D01*
X152369853Y-128981426D01*
X152261680Y-128720273D01*
X152104637Y-128485241D01*
X151904759Y-128285363D01*
X151672241Y-128130000D01*
X151904759Y-127974637D01*
X152104637Y-127774759D01*
X152261680Y-127539727D01*
X152369853Y-127278574D01*
X152425000Y-127001335D01*
X152425000Y-126718665D01*
X152369853Y-126441426D01*
X152261680Y-126180273D01*
X152104637Y-125945241D01*
X151904759Y-125745363D01*
X151672241Y-125590000D01*
X151904759Y-125434637D01*
X152104637Y-125234759D01*
X152261680Y-124999727D01*
X152369853Y-124738574D01*
X152425000Y-124461335D01*
X152425000Y-124178665D01*
X152369853Y-123901426D01*
X152261680Y-123640273D01*
X152104637Y-123405241D01*
X151904759Y-123205363D01*
X151672241Y-123050000D01*
X151904759Y-122894637D01*
X152104637Y-122694759D01*
X152261680Y-122459727D01*
X152369853Y-122198574D01*
X152425000Y-121921335D01*
X152425000Y-121638665D01*
X152369853Y-121361426D01*
X152261680Y-121100273D01*
X152104637Y-120865241D01*
X151904759Y-120665363D01*
X151672241Y-120510000D01*
X151904759Y-120354637D01*
X152104637Y-120154759D01*
X152261680Y-119919727D01*
X152369853Y-119658574D01*
X152425000Y-119381335D01*
X152425000Y-119098665D01*
X152369853Y-118821426D01*
X152261680Y-118560273D01*
X152104637Y-118325241D01*
X151904759Y-118125363D01*
X151672241Y-117970000D01*
X151904759Y-117814637D01*
X152104637Y-117614759D01*
X152261680Y-117379727D01*
X152369853Y-117118574D01*
X152425000Y-116841335D01*
X152425000Y-116558665D01*
X152369853Y-116281426D01*
X152261680Y-116020273D01*
X152104637Y-115785241D01*
X151904759Y-115585363D01*
X151672241Y-115430000D01*
X151904759Y-115274637D01*
X152104637Y-115074759D01*
X152261680Y-114839727D01*
X152369853Y-114578574D01*
X152425000Y-114301335D01*
X152425000Y-114018665D01*
X152369853Y-113741426D01*
X152261680Y-113480273D01*
X152104637Y-113245241D01*
X151904759Y-113045363D01*
X151672241Y-112890000D01*
X151904759Y-112734637D01*
X152104637Y-112534759D01*
X152261680Y-112299727D01*
X152369853Y-112038574D01*
X152425000Y-111761335D01*
X152425000Y-111478665D01*
X152369853Y-111201426D01*
X152261680Y-110940273D01*
X152104637Y-110705241D01*
X151904759Y-110505363D01*
X151672241Y-110350000D01*
X151904759Y-110194637D01*
X152104637Y-109994759D01*
X152261680Y-109759727D01*
X152369853Y-109498574D01*
X152425000Y-109221335D01*
X152425000Y-108938665D01*
X152369853Y-108661426D01*
X152261680Y-108400273D01*
X152104637Y-108165241D01*
X151904759Y-107965363D01*
X151672241Y-107810000D01*
X151904759Y-107654637D01*
X152104637Y-107454759D01*
X152261680Y-107219727D01*
X152369853Y-106958574D01*
X152425000Y-106681335D01*
X152425000Y-106398665D01*
X152369853Y-106121426D01*
X152261680Y-105860273D01*
X152104637Y-105625241D01*
X151904759Y-105425363D01*
X151672241Y-105270000D01*
X151904759Y-105114637D01*
X152104637Y-104914759D01*
X152261680Y-104679727D01*
X152369853Y-104418574D01*
X152425000Y-104141335D01*
X152425000Y-103858665D01*
X152369853Y-103581426D01*
X152261680Y-103320273D01*
X152104637Y-103085241D01*
X151904759Y-102885363D01*
X151672241Y-102730000D01*
X151904759Y-102574637D01*
X152104637Y-102374759D01*
X152261680Y-102139727D01*
X152369853Y-101878574D01*
X152425000Y-101601335D01*
X152425000Y-101318665D01*
X152369853Y-101041426D01*
X152261680Y-100780273D01*
X152104637Y-100545241D01*
X151904759Y-100345363D01*
X151672241Y-100190000D01*
X151904759Y-100034637D01*
X152104637Y-99834759D01*
X152261680Y-99599727D01*
X152369853Y-99338574D01*
X152425000Y-99061335D01*
X152425000Y-98778665D01*
X152369853Y-98501426D01*
X152261680Y-98240273D01*
X152104637Y-98005241D01*
X151904759Y-97805363D01*
X151672241Y-97650000D01*
X151904759Y-97494637D01*
X152104637Y-97294759D01*
X152261680Y-97059727D01*
X152369853Y-96798574D01*
X152425000Y-96521335D01*
X152425000Y-96238665D01*
X152369853Y-95961426D01*
X152261680Y-95700273D01*
X152104637Y-95465241D01*
X151904759Y-95265363D01*
X151672241Y-95110000D01*
X151904759Y-94954637D01*
X152104637Y-94754759D01*
X152261680Y-94519727D01*
X152369853Y-94258574D01*
X152425000Y-93981335D01*
X152425000Y-93698665D01*
X152369853Y-93421426D01*
X152261680Y-93160273D01*
X152104637Y-92925241D01*
X151904759Y-92725363D01*
X151672241Y-92570000D01*
X151904759Y-92414637D01*
X152104637Y-92214759D01*
X152261680Y-91979727D01*
X152369853Y-91718574D01*
X152425000Y-91441335D01*
X152425000Y-91158665D01*
X152369853Y-90881426D01*
X152261680Y-90620273D01*
X152104637Y-90385241D01*
X151904759Y-90185363D01*
X151669727Y-90028320D01*
X151659135Y-90023933D01*
X151845131Y-89912385D01*
X152053519Y-89723414D01*
X152221037Y-89497420D01*
X152341246Y-89243087D01*
X152381904Y-89109039D01*
X152259915Y-88887000D01*
X151117000Y-88887000D01*
X151117000Y-88907000D01*
X150863000Y-88907000D01*
X150863000Y-88887000D01*
X149720085Y-88887000D01*
X149598096Y-89109039D01*
X149638754Y-89243087D01*
X149758963Y-89497420D01*
X149926481Y-89723414D01*
X150134869Y-89912385D01*
X150320865Y-90023933D01*
X150310273Y-90028320D01*
X150075241Y-90185363D01*
X149875363Y-90385241D01*
X149718320Y-90620273D01*
X149610147Y-90881426D01*
X149555000Y-91158665D01*
X149555000Y-91441335D01*
X149610147Y-91718574D01*
X149718320Y-91979727D01*
X149875363Y-92214759D01*
X150075241Y-92414637D01*
X150307759Y-92570000D01*
X150075241Y-92725363D01*
X149875363Y-92925241D01*
X149718320Y-93160273D01*
X149610147Y-93421426D01*
X149555000Y-93698665D01*
X149555000Y-93981335D01*
X149610147Y-94258574D01*
X149718320Y-94519727D01*
X149875363Y-94754759D01*
X150075241Y-94954637D01*
X150307759Y-95110000D01*
X150075241Y-95265363D01*
X149875363Y-95465241D01*
X149718320Y-95700273D01*
X149610147Y-95961426D01*
X149555000Y-96238665D01*
X149555000Y-96521335D01*
X149610147Y-96798574D01*
X149718320Y-97059727D01*
X149875363Y-97294759D01*
X150075241Y-97494637D01*
X150307759Y-97650000D01*
X150075241Y-97805363D01*
X149875363Y-98005241D01*
X149718320Y-98240273D01*
X149610147Y-98501426D01*
X149555000Y-98778665D01*
X149555000Y-99061335D01*
X149610147Y-99338574D01*
X149718320Y-99599727D01*
X149875363Y-99834759D01*
X150075241Y-100034637D01*
X150307759Y-100190000D01*
X150075241Y-100345363D01*
X149875363Y-100545241D01*
X149718320Y-100780273D01*
X149610147Y-101041426D01*
X149555000Y-101318665D01*
X149555000Y-101601335D01*
X149610147Y-101878574D01*
X149718320Y-102139727D01*
X149875363Y-102374759D01*
X150075241Y-102574637D01*
X150307759Y-102730000D01*
X150075241Y-102885363D01*
X149875363Y-103085241D01*
X149718320Y-103320273D01*
X149646484Y-103493700D01*
X149543937Y-103340226D01*
X149500000Y-103296289D01*
X149500000Y-99817333D01*
X149503677Y-99780000D01*
X149489003Y-99631014D01*
X149445546Y-99487753D01*
X149374974Y-99355724D01*
X149334897Y-99306890D01*
X149295000Y-99258275D01*
X149295000Y-99198061D01*
X149255226Y-98998102D01*
X149177205Y-98809744D01*
X149063937Y-98640226D01*
X148919774Y-98496063D01*
X148750256Y-98382795D01*
X148561898Y-98304774D01*
X148361939Y-98265000D01*
X148158061Y-98265000D01*
X147958102Y-98304774D01*
X147769744Y-98382795D01*
X147600226Y-98496063D01*
X147456063Y-98640226D01*
X147342795Y-98809744D01*
X147264774Y-98998102D01*
X147225000Y-99198061D01*
X145937347Y-99198061D01*
X145937347Y-96424669D01*
X145941023Y-96387346D01*
X145937347Y-96350023D01*
X145937347Y-96350014D01*
X145926350Y-96238361D01*
X145882893Y-96095100D01*
X145812321Y-95963071D01*
X145717348Y-95847346D01*
X145688351Y-95823549D01*
X139021209Y-89156408D01*
X139065000Y-88936260D01*
X139065000Y-88643740D01*
X139018698Y-88410961D01*
X149598096Y-88410961D01*
X149720085Y-88633000D01*
X150863000Y-88633000D01*
X150863000Y-87489376D01*
X151117000Y-87489376D01*
X151117000Y-88633000D01*
X152259915Y-88633000D01*
X152381904Y-88410961D01*
X152341246Y-88276913D01*
X152221037Y-88022580D01*
X152053519Y-87796586D01*
X151845131Y-87607615D01*
X151603881Y-87462930D01*
X151339040Y-87368091D01*
X151117000Y-87489376D01*
X150863000Y-87489376D01*
X150640960Y-87368091D01*
X150376119Y-87462930D01*
X150134869Y-87607615D01*
X149926481Y-87796586D01*
X149758963Y-88022580D01*
X149638754Y-88276913D01*
X149598096Y-88410961D01*
X139018698Y-88410961D01*
X139007932Y-88356842D01*
X138895990Y-88086589D01*
X138733475Y-87843368D01*
X138526632Y-87636525D01*
X138283411Y-87474010D01*
X138013158Y-87362068D01*
X137726260Y-87305000D01*
X137433740Y-87305000D01*
X137146842Y-87362068D01*
X136876589Y-87474010D01*
X136633368Y-87636525D01*
X136426525Y-87843368D01*
X136264010Y-88086589D01*
X136152068Y-88356842D01*
X136095000Y-88643740D01*
X128721131Y-88643740D01*
X128687932Y-88476842D01*
X128660644Y-88410961D01*
X131818096Y-88410961D01*
X131940085Y-88633000D01*
X133083000Y-88633000D01*
X133083000Y-87489376D01*
X133337000Y-87489376D01*
X133337000Y-88633000D01*
X134479915Y-88633000D01*
X134601904Y-88410961D01*
X134561246Y-88276913D01*
X134441037Y-88022580D01*
X134273519Y-87796586D01*
X134065131Y-87607615D01*
X133823881Y-87462930D01*
X133559040Y-87368091D01*
X133337000Y-87489376D01*
X133083000Y-87489376D01*
X132860960Y-87368091D01*
X132596119Y-87462930D01*
X132354869Y-87607615D01*
X132146481Y-87796586D01*
X131978963Y-88022580D01*
X131858754Y-88276913D01*
X131818096Y-88410961D01*
X128660644Y-88410961D01*
X128575990Y-88206589D01*
X128413475Y-87963368D01*
X128206632Y-87756525D01*
X127963411Y-87594010D01*
X127693158Y-87482068D01*
X127406260Y-87425000D01*
X127113740Y-87425000D01*
X126826842Y-87482068D01*
X126556589Y-87594010D01*
X126313368Y-87756525D01*
X126106525Y-87963368D01*
X125944010Y-88206589D01*
X125832068Y-88476842D01*
X125775000Y-88763740D01*
X115645000Y-88763740D01*
X115645000Y-87170558D01*
X115606873Y-86783450D01*
X115456201Y-86286750D01*
X115211523Y-85828989D01*
X114895000Y-85443306D01*
X114895000Y-85274950D01*
X115045901Y-85346825D01*
X115193110Y-85391476D01*
X115423000Y-85270155D01*
X115423000Y-84077000D01*
X115403000Y-84077000D01*
X115403000Y-83823000D01*
X115423000Y-83823000D01*
X115423000Y-82629845D01*
X115677000Y-82629845D01*
X115677000Y-83823000D01*
X115697000Y-83823000D01*
X115697000Y-84077000D01*
X115677000Y-84077000D01*
X115677000Y-85270155D01*
X115906890Y-85391476D01*
X116054099Y-85346825D01*
X116316920Y-85221641D01*
X116550269Y-85047588D01*
X116745178Y-84831355D01*
X116814805Y-84714466D01*
X116936525Y-84896632D01*
X117143368Y-85103475D01*
X117386589Y-85265990D01*
X117656842Y-85377932D01*
X117943740Y-85435000D01*
X118236260Y-85435000D01*
X118523158Y-85377932D01*
X118793411Y-85265990D01*
X119036632Y-85103475D01*
X119243475Y-84896632D01*
X119405990Y-84653411D01*
X119517932Y-84383158D01*
X119575000Y-84096260D01*
X119575000Y-83803740D01*
X119517932Y-83516842D01*
X119405990Y-83246589D01*
X119308043Y-83100000D01*
X121021928Y-83100000D01*
X121021928Y-84800000D01*
X121034188Y-84924482D01*
X121070498Y-85044180D01*
X121129463Y-85154494D01*
X121208815Y-85251185D01*
X121305506Y-85330537D01*
X121415820Y-85389502D01*
X121535518Y-85425812D01*
X121660000Y-85438072D01*
X123360000Y-85438072D01*
X123484482Y-85425812D01*
X123604180Y-85389502D01*
X123714494Y-85330537D01*
X123811185Y-85251185D01*
X123890537Y-85154494D01*
X123949502Y-85044180D01*
X123973966Y-84963534D01*
X124049731Y-85047588D01*
X124283080Y-85221641D01*
X124545901Y-85346825D01*
X124693110Y-85391476D01*
X124923000Y-85270155D01*
X124923000Y-84077000D01*
X124903000Y-84077000D01*
X124903000Y-83823000D01*
X124923000Y-83823000D01*
X124923000Y-82629845D01*
X125177000Y-82629845D01*
X125177000Y-83823000D01*
X125197000Y-83823000D01*
X125197000Y-84077000D01*
X125177000Y-84077000D01*
X125177000Y-85270155D01*
X125406890Y-85391476D01*
X125554099Y-85346825D01*
X125816920Y-85221641D01*
X126050269Y-85047588D01*
X126245178Y-84831355D01*
X126314805Y-84714466D01*
X126436525Y-84896632D01*
X126643368Y-85103475D01*
X126886589Y-85265990D01*
X127156842Y-85377932D01*
X127443740Y-85435000D01*
X127736260Y-85435000D01*
X128023158Y-85377932D01*
X128293411Y-85265990D01*
X128536632Y-85103475D01*
X128743475Y-84896632D01*
X128905990Y-84653411D01*
X129017932Y-84383158D01*
X129075000Y-84096260D01*
X129075000Y-83803740D01*
X129017932Y-83516842D01*
X128905990Y-83246589D01*
X128808043Y-83100000D01*
X130511928Y-83100000D01*
X130511928Y-84800000D01*
X130524188Y-84924482D01*
X130560498Y-85044180D01*
X130619463Y-85154494D01*
X130698815Y-85251185D01*
X130795506Y-85330537D01*
X130905820Y-85389502D01*
X131025518Y-85425812D01*
X131150000Y-85438072D01*
X132850000Y-85438072D01*
X132974482Y-85425812D01*
X133094180Y-85389502D01*
X133204494Y-85330537D01*
X133301185Y-85251185D01*
X133380537Y-85154494D01*
X133439502Y-85044180D01*
X133463966Y-84963534D01*
X133539731Y-85047588D01*
X133773080Y-85221641D01*
X134035901Y-85346825D01*
X134183110Y-85391476D01*
X134413000Y-85270155D01*
X134413000Y-84077000D01*
X134393000Y-84077000D01*
X134393000Y-83823000D01*
X134413000Y-83823000D01*
X134413000Y-82629845D01*
X134667000Y-82629845D01*
X134667000Y-83823000D01*
X134687000Y-83823000D01*
X134687000Y-84077000D01*
X134667000Y-84077000D01*
X134667000Y-85270155D01*
X134896890Y-85391476D01*
X135044099Y-85346825D01*
X135306920Y-85221641D01*
X135540269Y-85047588D01*
X135735178Y-84831355D01*
X135804805Y-84714466D01*
X135926525Y-84896632D01*
X136133368Y-85103475D01*
X136376589Y-85265990D01*
X136646842Y-85377932D01*
X136933740Y-85435000D01*
X137226260Y-85435000D01*
X137513158Y-85377932D01*
X137783411Y-85265990D01*
X138026632Y-85103475D01*
X138233475Y-84896632D01*
X138395990Y-84653411D01*
X138507932Y-84383158D01*
X138565000Y-84096260D01*
X138565000Y-83803740D01*
X138507932Y-83516842D01*
X138395990Y-83246589D01*
X138298043Y-83100000D01*
X140011928Y-83100000D01*
X140011928Y-84800000D01*
X140024188Y-84924482D01*
X140060498Y-85044180D01*
X140119463Y-85154494D01*
X140198815Y-85251185D01*
X140295506Y-85330537D01*
X140405820Y-85389502D01*
X140525518Y-85425812D01*
X140650000Y-85438072D01*
X142350000Y-85438072D01*
X142474482Y-85425812D01*
X142594180Y-85389502D01*
X142704494Y-85330537D01*
X142801185Y-85251185D01*
X142880537Y-85154494D01*
X142939502Y-85044180D01*
X142963966Y-84963534D01*
X143039731Y-85047588D01*
X143273080Y-85221641D01*
X143535901Y-85346825D01*
X143683110Y-85391476D01*
X143913000Y-85270155D01*
X143913000Y-84077000D01*
X143893000Y-84077000D01*
X143893000Y-83823000D01*
X143913000Y-83823000D01*
X143913000Y-82629845D01*
X144167000Y-82629845D01*
X144167000Y-83823000D01*
X144187000Y-83823000D01*
X144187000Y-84077000D01*
X144167000Y-84077000D01*
X144167000Y-85270155D01*
X144396890Y-85391476D01*
X144544099Y-85346825D01*
X144806920Y-85221641D01*
X145040269Y-85047588D01*
X145235178Y-84831355D01*
X145304805Y-84714466D01*
X145426525Y-84896632D01*
X145633368Y-85103475D01*
X145876589Y-85265990D01*
X146146842Y-85377932D01*
X146433740Y-85435000D01*
X146726260Y-85435000D01*
X147013158Y-85377932D01*
X147283411Y-85265990D01*
X147526632Y-85103475D01*
X147733475Y-84896632D01*
X147895990Y-84653411D01*
X148007932Y-84383158D01*
X148065000Y-84096260D01*
X148065000Y-83803740D01*
X148007932Y-83516842D01*
X147895990Y-83246589D01*
X147733475Y-83003368D01*
X147526632Y-82796525D01*
X147283411Y-82634010D01*
X147013158Y-82522068D01*
X146726260Y-82465000D01*
X146433740Y-82465000D01*
X146146842Y-82522068D01*
X145876589Y-82634010D01*
X145633368Y-82796525D01*
X145426525Y-83003368D01*
X145304805Y-83185534D01*
X145235178Y-83068645D01*
X145040269Y-82852412D01*
X144806920Y-82678359D01*
X144544099Y-82553175D01*
X144396890Y-82508524D01*
X144167000Y-82629845D01*
X143913000Y-82629845D01*
X143683110Y-82508524D01*
X143535901Y-82553175D01*
X143273080Y-82678359D01*
X143039731Y-82852412D01*
X142963966Y-82936466D01*
X142939502Y-82855820D01*
X142880537Y-82745506D01*
X142801185Y-82648815D01*
X142704494Y-82569463D01*
X142594180Y-82510498D01*
X142474482Y-82474188D01*
X142350000Y-82461928D01*
X140650000Y-82461928D01*
X140525518Y-82474188D01*
X140405820Y-82510498D01*
X140295506Y-82569463D01*
X140198815Y-82648815D01*
X140119463Y-82745506D01*
X140060498Y-82855820D01*
X140024188Y-82975518D01*
X140011928Y-83100000D01*
X138298043Y-83100000D01*
X138233475Y-83003368D01*
X138026632Y-82796525D01*
X137783411Y-82634010D01*
X137513158Y-82522068D01*
X137226260Y-82465000D01*
X136933740Y-82465000D01*
X136646842Y-82522068D01*
X136376589Y-82634010D01*
X136133368Y-82796525D01*
X135926525Y-83003368D01*
X135804805Y-83185534D01*
X135735178Y-83068645D01*
X135540269Y-82852412D01*
X135306920Y-82678359D01*
X135044099Y-82553175D01*
X134896890Y-82508524D01*
X134667000Y-82629845D01*
X134413000Y-82629845D01*
X134183110Y-82508524D01*
X134035901Y-82553175D01*
X133773080Y-82678359D01*
X133539731Y-82852412D01*
X133463966Y-82936466D01*
X133439502Y-82855820D01*
X133380537Y-82745506D01*
X133301185Y-82648815D01*
X133204494Y-82569463D01*
X133094180Y-82510498D01*
X132974482Y-82474188D01*
X132850000Y-82461928D01*
X131150000Y-82461928D01*
X131025518Y-82474188D01*
X130905820Y-82510498D01*
X130795506Y-82569463D01*
X130698815Y-82648815D01*
X130619463Y-82745506D01*
X130560498Y-82855820D01*
X130524188Y-82975518D01*
X130511928Y-83100000D01*
X128808043Y-83100000D01*
X128743475Y-83003368D01*
X128536632Y-82796525D01*
X128293411Y-82634010D01*
X128023158Y-82522068D01*
X127736260Y-82465000D01*
X127443740Y-82465000D01*
X127156842Y-82522068D01*
X126886589Y-82634010D01*
X126643368Y-82796525D01*
X126436525Y-83003368D01*
X126314805Y-83185534D01*
X126245178Y-83068645D01*
X126050269Y-82852412D01*
X125816920Y-82678359D01*
X125554099Y-82553175D01*
X125406890Y-82508524D01*
X125177000Y-82629845D01*
X124923000Y-82629845D01*
X124693110Y-82508524D01*
X124545901Y-82553175D01*
X124283080Y-82678359D01*
X124049731Y-82852412D01*
X123973966Y-82936466D01*
X123949502Y-82855820D01*
X123890537Y-82745506D01*
X123811185Y-82648815D01*
X123714494Y-82569463D01*
X123604180Y-82510498D01*
X123484482Y-82474188D01*
X123360000Y-82461928D01*
X121660000Y-82461928D01*
X121535518Y-82474188D01*
X121415820Y-82510498D01*
X121305506Y-82569463D01*
X121208815Y-82648815D01*
X121129463Y-82745506D01*
X121070498Y-82855820D01*
X121034188Y-82975518D01*
X121021928Y-83100000D01*
X119308043Y-83100000D01*
X119243475Y-83003368D01*
X119036632Y-82796525D01*
X118793411Y-82634010D01*
X118523158Y-82522068D01*
X118236260Y-82465000D01*
X117943740Y-82465000D01*
X117656842Y-82522068D01*
X117386589Y-82634010D01*
X117143368Y-82796525D01*
X116936525Y-83003368D01*
X116814805Y-83185534D01*
X116745178Y-83068645D01*
X116550269Y-82852412D01*
X116316920Y-82678359D01*
X116054099Y-82553175D01*
X115906890Y-82508524D01*
X115677000Y-82629845D01*
X115423000Y-82629845D01*
X115193110Y-82508524D01*
X115045901Y-82553175D01*
X114783080Y-82678359D01*
X114549731Y-82852412D01*
X114548694Y-82853562D01*
X114349345Y-82610655D01*
X114062317Y-82375097D01*
X113734847Y-82200061D01*
X113379523Y-82092275D01*
X113010000Y-82055880D01*
X112640476Y-82092275D01*
X112285152Y-82200061D01*
X111957683Y-82375097D01*
X111670655Y-82610655D01*
X111435097Y-82897683D01*
X111260061Y-83225153D01*
X111152275Y-83580477D01*
X111125000Y-83857404D01*
X111125000Y-85443305D01*
X110808477Y-85828990D01*
X110563799Y-86286751D01*
X110413127Y-86783451D01*
X110375000Y-87170559D01*
X110375001Y-128450549D01*
X110375000Y-128450559D01*
X110375001Y-132924990D01*
X105109452Y-132924990D01*
X105206755Y-132700087D01*
X105231036Y-132594740D01*
X105110378Y-132357000D01*
X102967000Y-132357000D01*
X102967000Y-132377000D01*
X102713000Y-132377000D01*
X102713000Y-132357000D01*
X100569622Y-132357000D01*
X100448964Y-132594740D01*
X100473245Y-132700087D01*
X100593138Y-132977204D01*
X100764790Y-133225606D01*
X100981604Y-133435748D01*
X101235249Y-133599554D01*
X101451083Y-133685029D01*
X101447769Y-133687749D01*
X101365248Y-133788300D01*
X100885245Y-134268303D01*
X100638478Y-134568990D01*
X100393799Y-135026751D01*
X100243127Y-135523451D01*
X100192252Y-136040000D01*
X95412413Y-136040000D01*
X95420401Y-131865260D01*
X100448964Y-131865260D01*
X100569622Y-132103000D01*
X102713000Y-132103000D01*
X102713000Y-130695000D01*
X102967000Y-130695000D01*
X102967000Y-132103000D01*
X105110378Y-132103000D01*
X105231036Y-131865260D01*
X105206755Y-131759913D01*
X105086862Y-131482796D01*
X104915210Y-131234394D01*
X104698396Y-131024252D01*
X104444751Y-130860446D01*
X104164023Y-130749271D01*
X103867000Y-130695000D01*
X102967000Y-130695000D01*
X102713000Y-130695000D01*
X101813000Y-130695000D01*
X101515977Y-130749271D01*
X101235249Y-130860446D01*
X100981604Y-131024252D01*
X100764790Y-131234394D01*
X100593138Y-131482796D01*
X100473245Y-131759913D01*
X100448964Y-131865260D01*
X95420401Y-131865260D01*
X95426994Y-128420000D01*
X100397573Y-128420000D01*
X100427210Y-128720913D01*
X100514983Y-129010261D01*
X100657519Y-129276927D01*
X100849339Y-129510661D01*
X101083073Y-129702481D01*
X101349739Y-129845017D01*
X101639087Y-129932790D01*
X101864592Y-129955000D01*
X103815408Y-129955000D01*
X104040913Y-129932790D01*
X104330261Y-129845017D01*
X104596927Y-129702481D01*
X104830661Y-129510661D01*
X105022481Y-129276927D01*
X105165017Y-129010261D01*
X105252790Y-128720913D01*
X105282427Y-128420000D01*
X105252790Y-128119087D01*
X105165017Y-127829739D01*
X105022481Y-127563073D01*
X104830661Y-127329339D01*
X104596927Y-127137519D01*
X104330261Y-126994983D01*
X104040913Y-126907210D01*
X103815408Y-126885000D01*
X101864592Y-126885000D01*
X101639087Y-126907210D01*
X101349739Y-126994983D01*
X101083073Y-127137519D01*
X100849339Y-127329339D01*
X100657519Y-127563073D01*
X100514983Y-127829739D01*
X100427210Y-128119087D01*
X100397573Y-128420000D01*
X95426994Y-128420000D01*
X95436006Y-123710000D01*
X100401928Y-123710000D01*
X100401928Y-125510000D01*
X100414188Y-125634482D01*
X100450498Y-125754180D01*
X100509463Y-125864494D01*
X100588815Y-125961185D01*
X100685506Y-126040537D01*
X100795820Y-126099502D01*
X100915518Y-126135812D01*
X101040000Y-126148072D01*
X104640000Y-126148072D01*
X104764482Y-126135812D01*
X104884180Y-126099502D01*
X104994494Y-126040537D01*
X105091185Y-125961185D01*
X105170537Y-125864494D01*
X105229502Y-125754180D01*
X105265812Y-125634482D01*
X105278072Y-125510000D01*
X105278072Y-123710000D01*
X105265812Y-123585518D01*
X105229502Y-123465820D01*
X105170537Y-123355506D01*
X105091185Y-123258815D01*
X104994494Y-123179463D01*
X104884180Y-123120498D01*
X104764482Y-123084188D01*
X104640000Y-123071928D01*
X101040000Y-123071928D01*
X100915518Y-123084188D01*
X100795820Y-123120498D01*
X100685506Y-123179463D01*
X100588815Y-123258815D01*
X100509463Y-123355506D01*
X100450498Y-123465820D01*
X100414188Y-123585518D01*
X100401928Y-123710000D01*
X95436006Y-123710000D01*
X95437537Y-122910000D01*
X107211928Y-122910000D01*
X107211928Y-124610000D01*
X107224188Y-124734482D01*
X107260498Y-124854180D01*
X107319463Y-124964494D01*
X107398815Y-125061185D01*
X107495506Y-125140537D01*
X107605820Y-125199502D01*
X107725518Y-125235812D01*
X107850000Y-125248072D01*
X109550000Y-125248072D01*
X109674482Y-125235812D01*
X109794180Y-125199502D01*
X109904494Y-125140537D01*
X110001185Y-125061185D01*
X110080537Y-124964494D01*
X110139502Y-124854180D01*
X110175812Y-124734482D01*
X110188072Y-124610000D01*
X110188072Y-122910000D01*
X110175812Y-122785518D01*
X110139502Y-122665820D01*
X110080537Y-122555506D01*
X110001185Y-122458815D01*
X109904494Y-122379463D01*
X109794180Y-122320498D01*
X109721620Y-122298487D01*
X109853475Y-122166632D01*
X110015990Y-121923411D01*
X110127932Y-121653158D01*
X110185000Y-121366260D01*
X110185000Y-121073740D01*
X110127932Y-120786842D01*
X110015990Y-120516589D01*
X109853475Y-120273368D01*
X109646632Y-120066525D01*
X109472240Y-119950000D01*
X109646632Y-119833475D01*
X109853475Y-119626632D01*
X110015990Y-119383411D01*
X110127932Y-119113158D01*
X110185000Y-118826260D01*
X110185000Y-118533740D01*
X110127932Y-118246842D01*
X110015990Y-117976589D01*
X109853475Y-117733368D01*
X109646632Y-117526525D01*
X109464466Y-117404805D01*
X109581355Y-117335178D01*
X109797588Y-117140269D01*
X109971641Y-116906920D01*
X110096825Y-116644099D01*
X110141476Y-116496890D01*
X110020155Y-116267000D01*
X108827000Y-116267000D01*
X108827000Y-116287000D01*
X108573000Y-116287000D01*
X108573000Y-116267000D01*
X107379845Y-116267000D01*
X107258524Y-116496890D01*
X107303175Y-116644099D01*
X107428359Y-116906920D01*
X107602412Y-117140269D01*
X107818645Y-117335178D01*
X107935534Y-117404805D01*
X107753368Y-117526525D01*
X107546525Y-117733368D01*
X107384010Y-117976589D01*
X107272068Y-118246842D01*
X107215000Y-118533740D01*
X107215000Y-118826260D01*
X107272068Y-119113158D01*
X107384010Y-119383411D01*
X107546525Y-119626632D01*
X107753368Y-119833475D01*
X107927760Y-119950000D01*
X107753368Y-120066525D01*
X107546525Y-120273368D01*
X107384010Y-120516589D01*
X107272068Y-120786842D01*
X107215000Y-121073740D01*
X107215000Y-121366260D01*
X107272068Y-121653158D01*
X107384010Y-121923411D01*
X107546525Y-122166632D01*
X107678380Y-122298487D01*
X107605820Y-122320498D01*
X107495506Y-122379463D01*
X107398815Y-122458815D01*
X107319463Y-122555506D01*
X107260498Y-122665820D01*
X107224188Y-122785518D01*
X107211928Y-122910000D01*
X95437537Y-122910000D01*
X95443690Y-119695000D01*
X104016353Y-119695000D01*
X104050000Y-119698314D01*
X104083647Y-119695000D01*
X104184283Y-119685088D01*
X104313406Y-119645919D01*
X104432407Y-119582312D01*
X104536711Y-119496711D01*
X104622312Y-119392407D01*
X104685919Y-119273406D01*
X104725088Y-119144283D01*
X104738314Y-119010000D01*
X104735000Y-118976353D01*
X104735000Y-115783110D01*
X107258524Y-115783110D01*
X107379845Y-116013000D01*
X108573000Y-116013000D01*
X108573000Y-114819186D01*
X108827000Y-114819186D01*
X108827000Y-116013000D01*
X110020155Y-116013000D01*
X110141476Y-115783110D01*
X110096825Y-115635901D01*
X109971641Y-115373080D01*
X109797588Y-115139731D01*
X109581355Y-114944822D01*
X109331252Y-114795843D01*
X109056891Y-114698519D01*
X108827000Y-114819186D01*
X108573000Y-114819186D01*
X108343109Y-114698519D01*
X108068748Y-114795843D01*
X107818645Y-114944822D01*
X107602412Y-115139731D01*
X107428359Y-115373080D01*
X107303175Y-115635901D01*
X107258524Y-115783110D01*
X104735000Y-115783110D01*
X104735000Y-115733647D01*
X104738314Y-115700000D01*
X104725088Y-115565717D01*
X104685919Y-115436594D01*
X104622312Y-115317593D01*
X104536711Y-115213289D01*
X104432407Y-115127688D01*
X104313406Y-115064081D01*
X104184283Y-115024912D01*
X104083647Y-115015000D01*
X104050000Y-115011686D01*
X104016353Y-115015000D01*
X102013647Y-115015000D01*
X101980000Y-115011686D01*
X101946353Y-115015000D01*
X101845717Y-115024912D01*
X101716594Y-115064081D01*
X101597593Y-115127688D01*
X101493289Y-115213289D01*
X101407688Y-115317593D01*
X101344081Y-115436594D01*
X101304912Y-115565717D01*
X101291686Y-115700000D01*
X101295001Y-115733657D01*
X101295001Y-116365000D01*
X95415000Y-116365000D01*
X95415000Y-112624056D01*
X101305000Y-112615944D01*
X101305000Y-113176353D01*
X101301686Y-113210000D01*
X101314912Y-113344283D01*
X101354081Y-113473406D01*
X101417688Y-113592407D01*
X101503289Y-113696711D01*
X101557774Y-113741426D01*
X101607593Y-113782312D01*
X101726594Y-113845919D01*
X101855717Y-113885088D01*
X101990000Y-113898314D01*
X102023647Y-113895000D01*
X104026353Y-113895000D01*
X104060000Y-113898314D01*
X104093647Y-113895000D01*
X104194283Y-113885088D01*
X104323406Y-113845919D01*
X104442407Y-113782312D01*
X104546711Y-113696711D01*
X104632312Y-113592407D01*
X104695919Y-113473406D01*
X104735088Y-113344283D01*
X104748314Y-113210000D01*
X104745000Y-113176353D01*
X104745000Y-110073647D01*
X104748314Y-110040000D01*
X104735088Y-109905717D01*
X104695919Y-109776594D01*
X104632312Y-109657593D01*
X104546711Y-109553289D01*
X104442407Y-109467688D01*
X104323406Y-109404081D01*
X104194283Y-109364912D01*
X104093647Y-109355000D01*
X104060000Y-109351686D01*
X104026353Y-109355000D01*
X95394720Y-109355000D01*
X95391238Y-100828369D01*
X95470820Y-100748787D01*
X95584078Y-101028015D01*
X95898403Y-101183387D01*
X96237000Y-101274452D01*
X96586858Y-101297709D01*
X96934530Y-101252267D01*
X97266657Y-101139870D01*
X97475922Y-101028015D01*
X97589181Y-100748786D01*
X96530000Y-99689605D01*
X96515858Y-99703748D01*
X96336253Y-99524143D01*
X96350395Y-99510000D01*
X96709605Y-99510000D01*
X97768786Y-100569181D01*
X98048015Y-100455922D01*
X98203387Y-100141597D01*
X98294452Y-99803000D01*
X98317709Y-99453142D01*
X98272267Y-99105470D01*
X98159870Y-98773343D01*
X98048015Y-98564078D01*
X97768786Y-98450819D01*
X96709605Y-99510000D01*
X96350395Y-99510000D01*
X96336253Y-99495858D01*
X96515858Y-99316253D01*
X96530000Y-99330395D01*
X97589181Y-98271214D01*
X97475922Y-97991985D01*
X97161597Y-97836613D01*
X96823000Y-97745548D01*
X96473142Y-97722291D01*
X96125470Y-97767733D01*
X95793343Y-97880130D01*
X95584078Y-97991985D01*
X95470820Y-98271213D01*
X95390160Y-98190553D01*
X95383998Y-83100000D01*
X102021928Y-83100000D01*
X102021928Y-84800000D01*
X102034188Y-84924482D01*
X102070498Y-85044180D01*
X102129463Y-85154494D01*
X102208815Y-85251185D01*
X102305506Y-85330537D01*
X102415820Y-85389502D01*
X102535518Y-85425812D01*
X102660000Y-85438072D01*
X104360000Y-85438072D01*
X104484482Y-85425812D01*
X104604180Y-85389502D01*
X104714494Y-85330537D01*
X104811185Y-85251185D01*
X104890537Y-85154494D01*
X104949502Y-85044180D01*
X104973966Y-84963534D01*
X105049731Y-85047588D01*
X105283080Y-85221641D01*
X105545901Y-85346825D01*
X105693110Y-85391476D01*
X105923000Y-85270155D01*
X105923000Y-84077000D01*
X105903000Y-84077000D01*
X105903000Y-83823000D01*
X105923000Y-83823000D01*
X105923000Y-82629845D01*
X106177000Y-82629845D01*
X106177000Y-83823000D01*
X106197000Y-83823000D01*
X106197000Y-84077000D01*
X106177000Y-84077000D01*
X106177000Y-85270155D01*
X106406890Y-85391476D01*
X106554099Y-85346825D01*
X106816920Y-85221641D01*
X107050269Y-85047588D01*
X107245178Y-84831355D01*
X107314805Y-84714466D01*
X107436525Y-84896632D01*
X107643368Y-85103475D01*
X107886589Y-85265990D01*
X108156842Y-85377932D01*
X108443740Y-85435000D01*
X108736260Y-85435000D01*
X109023158Y-85377932D01*
X109293411Y-85265990D01*
X109536632Y-85103475D01*
X109743475Y-84896632D01*
X109905990Y-84653411D01*
X110017932Y-84383158D01*
X110075000Y-84096260D01*
X110075000Y-83803740D01*
X110017932Y-83516842D01*
X109905990Y-83246589D01*
X109743475Y-83003368D01*
X109536632Y-82796525D01*
X109293411Y-82634010D01*
X109023158Y-82522068D01*
X108736260Y-82465000D01*
X108443740Y-82465000D01*
X108156842Y-82522068D01*
X107886589Y-82634010D01*
X107643368Y-82796525D01*
X107436525Y-83003368D01*
X107314805Y-83185534D01*
X107245178Y-83068645D01*
X107050269Y-82852412D01*
X106816920Y-82678359D01*
X106554099Y-82553175D01*
X106406890Y-82508524D01*
X106177000Y-82629845D01*
X105923000Y-82629845D01*
X105693110Y-82508524D01*
X105545901Y-82553175D01*
X105283080Y-82678359D01*
X105049731Y-82852412D01*
X104973966Y-82936466D01*
X104949502Y-82855820D01*
X104890537Y-82745506D01*
X104811185Y-82648815D01*
X104714494Y-82569463D01*
X104604180Y-82510498D01*
X104484482Y-82474188D01*
X104360000Y-82461928D01*
X102660000Y-82461928D01*
X102535518Y-82474188D01*
X102415820Y-82510498D01*
X102305506Y-82569463D01*
X102208815Y-82648815D01*
X102129463Y-82745506D01*
X102070498Y-82855820D01*
X102034188Y-82975518D01*
X102021928Y-83100000D01*
X95383998Y-83100000D01*
X95381205Y-76262613D01*
X95398277Y-76084495D01*
X95765000Y-76084495D01*
X95765000Y-76475505D01*
X95841282Y-76859003D01*
X95990915Y-77220250D01*
X96208149Y-77545364D01*
X96484636Y-77821851D01*
X96809750Y-78039085D01*
X97170997Y-78188718D01*
X97554495Y-78265000D01*
X97945505Y-78265000D01*
X98329003Y-78188718D01*
X98690250Y-78039085D01*
X99015364Y-77821851D01*
X99291851Y-77545364D01*
X99509085Y-77220250D01*
X99658718Y-76859003D01*
X99735000Y-76475505D01*
X99735000Y-76084495D01*
X150365000Y-76084495D01*
X150365000Y-76475505D01*
X150441282Y-76859003D01*
X150590915Y-77220250D01*
X150808149Y-77545364D01*
X151084636Y-77821851D01*
X151409750Y-78039085D01*
X151770997Y-78188718D01*
X152154495Y-78265000D01*
X152545505Y-78265000D01*
X152929003Y-78188718D01*
X153290250Y-78039085D01*
X153615364Y-77821851D01*
X153891851Y-77545364D01*
X154109085Y-77220250D01*
X154258718Y-76859003D01*
X154335000Y-76475505D01*
X154335000Y-76084495D01*
X154258718Y-75700997D01*
X154109085Y-75339750D01*
X153891851Y-75014636D01*
X153615364Y-74738149D01*
X153290250Y-74520915D01*
X152929003Y-74371282D01*
X152545505Y-74295000D01*
X152154495Y-74295000D01*
X151770997Y-74371282D01*
X151409750Y-74520915D01*
X151084636Y-74738149D01*
X150808149Y-75014636D01*
X150590915Y-75339750D01*
X150441282Y-75700997D01*
X150365000Y-76084495D01*
X99735000Y-76084495D01*
X99658718Y-75700997D01*
X99509085Y-75339750D01*
X99291851Y-75014636D01*
X99015364Y-74738149D01*
X98690250Y-74520915D01*
X98329003Y-74371282D01*
X97945505Y-74295000D01*
X97554495Y-74295000D01*
X97170997Y-74371282D01*
X96809750Y-74520915D01*
X96484636Y-74738149D01*
X96208149Y-75014636D01*
X95990915Y-75339750D01*
X95841282Y-75700997D01*
X95765000Y-76084495D01*
X95398277Y-76084495D01*
X95427035Y-75784454D01*
X95555032Y-75357133D01*
X95763591Y-74962815D01*
X96044771Y-74616512D01*
X96387856Y-74331422D01*
X96779782Y-74118400D01*
X97205627Y-73985559D01*
X97678194Y-73934846D01*
X97684995Y-73934872D01*
M02*
