G04 #@! TF.GenerationSoftware,KiCad,Pcbnew,(5.1.5)-3*
G04 #@! TF.CreationDate,2020-09-03T11:07:22+02:00*
G04 #@! TF.ProjectId,StepperClockMasterTinyK22,53746570-7065-4724-936c-6f636b4d6173,rev?*
G04 #@! TF.SameCoordinates,Original*
G04 #@! TF.FileFunction,Soldermask,Bot*
G04 #@! TF.FilePolarity,Negative*
%FSLAX46Y46*%
G04 Gerber Fmt 4.6, Leading zero omitted, Abs format (unit mm)*
G04 Created by KiCad (PCBNEW (5.1.5)-3) date 2020-09-03 11:07:22*
%MOMM*%
%LPD*%
G04 APERTURE LIST*
%ADD10R,1.700000X1.700000*%
%ADD11O,1.700000X1.700000*%
%ADD12O,3.600000X1.800000*%
%ADD13R,3.600000X1.800000*%
%ADD14O,1.800000X3.600000*%
%ADD15R,1.800000X3.600000*%
%ADD16O,1.600000X1.600000*%
%ADD17R,1.600000X1.600000*%
%ADD18C,2.700000*%
%ADD19C,2.290000*%
G04 APERTURE END LIST*
D10*
X137580000Y-101490000D03*
D11*
X137580000Y-98950000D03*
X137580000Y-96410000D03*
X137580000Y-93870000D03*
X137580000Y-91330000D03*
X137580000Y-88790000D03*
D10*
X137580000Y-136130000D03*
D11*
X137580000Y-133590000D03*
X137580000Y-131050000D03*
X137580000Y-128510000D03*
X137580000Y-125970000D03*
X137580000Y-123430000D03*
D12*
X102840000Y-136040000D03*
X102840000Y-132230000D03*
X102840000Y-128420000D03*
D13*
X102840000Y-124610000D03*
D14*
X120330000Y-140000000D03*
X116520000Y-140000000D03*
X112710000Y-140000000D03*
D15*
X108900000Y-140000000D03*
D16*
X133210000Y-139560000D03*
X150990000Y-88760000D03*
X133210000Y-137020000D03*
X150990000Y-91300000D03*
X133210000Y-134480000D03*
X150990000Y-93840000D03*
X133210000Y-131940000D03*
X150990000Y-96380000D03*
X133210000Y-129400000D03*
X150990000Y-98920000D03*
X133210000Y-126860000D03*
X150990000Y-101460000D03*
X133210000Y-124320000D03*
X150990000Y-104000000D03*
X133210000Y-121780000D03*
X150990000Y-106540000D03*
X133210000Y-119240000D03*
X150990000Y-109080000D03*
X133210000Y-116700000D03*
X150990000Y-111620000D03*
X133210000Y-114160000D03*
X150990000Y-114160000D03*
X133210000Y-111620000D03*
X150990000Y-116700000D03*
X133210000Y-109080000D03*
X150990000Y-119240000D03*
X133210000Y-106540000D03*
X150990000Y-121780000D03*
X133210000Y-104000000D03*
X150990000Y-124320000D03*
X133210000Y-101460000D03*
X150990000Y-126860000D03*
X133210000Y-98920000D03*
X150990000Y-129400000D03*
X133210000Y-96380000D03*
X150990000Y-131940000D03*
X133210000Y-93840000D03*
X150990000Y-134480000D03*
X133210000Y-91300000D03*
X150990000Y-137020000D03*
X133210000Y-88760000D03*
D17*
X150990000Y-139560000D03*
D10*
X127130000Y-129720000D03*
D11*
X127130000Y-127180000D03*
X127130000Y-124640000D03*
X127130000Y-122100000D03*
X127130000Y-119560000D03*
X127130000Y-117020000D03*
X127130000Y-114480000D03*
D10*
X127260000Y-109230000D03*
D11*
X127260000Y-106690000D03*
X127260000Y-104150000D03*
X127260000Y-101610000D03*
X127260000Y-99070000D03*
X127260000Y-96530000D03*
X127260000Y-93990000D03*
X127260000Y-91450000D03*
X127260000Y-88910000D03*
D10*
X108700000Y-123760000D03*
D11*
X108700000Y-121220000D03*
X108700000Y-118680000D03*
X108700000Y-116140000D03*
D10*
X141500000Y-83950000D03*
D11*
X144040000Y-83950000D03*
X146580000Y-83950000D03*
D10*
X132000000Y-83950000D03*
D11*
X134540000Y-83950000D03*
X137080000Y-83950000D03*
D10*
X122510000Y-83950000D03*
D11*
X125050000Y-83950000D03*
X127590000Y-83950000D03*
D10*
X113010000Y-83950000D03*
D11*
X115550000Y-83950000D03*
X118090000Y-83950000D03*
D10*
X103510000Y-83950000D03*
D11*
X106050000Y-83950000D03*
X108590000Y-83950000D03*
D18*
X152340000Y-145100000D03*
X97750000Y-145100000D03*
X97750000Y-76280000D03*
X152350000Y-76280000D03*
D19*
X123530000Y-101010000D03*
X123530000Y-98010000D03*
X96530000Y-99510000D03*
M02*
