M48
METRIC,TZ
T1C0.400
T2C0.800
T3C1.000
T4C1.200
T5C1.270
%
G90
G05
T1
X96440Y-93400
X96750Y-108510
X97050Y-115210
X97100Y-84320
X97450Y-128280
X97450Y-131990
X97460Y-138180
X97650Y-122910
X101330Y-78120
X101720Y-105340
X102670Y-93560
X106810Y-145930
X107180Y-78770
X107200Y-76060
X107390Y-135560
X107480Y-90430
X108220Y-105600
X108830Y-127950
X108850Y-130370
X108850Y-132210
X109040Y-112500
X109730Y-135560
X109820Y-99110
X110940Y-143040
X112460Y-135560
X112740Y-145350
X114300Y-146950
X114930Y-144960
X114960Y-135560
X114980Y-143060
X116340Y-106270
X116750Y-75750
X116800Y-78800
X117030Y-143100
X117040Y-144960
X117170Y-94300
X118022Y-135758
X118070Y-119670
X118940Y-132150
X119000Y-144960
X119010Y-143110
X119300Y-100680
X119302Y-137038
X119490Y-89140
X119880Y-127120
X120980Y-130350
X121200Y-143100
X121250Y-144930
X122340Y-108810
X122650Y-119690
X123520Y-112200
X123550Y-116920
X123760Y-133010
X124110Y-88100
X126300Y-75790
X126340Y-79120
X128650Y-135430
X129130Y-98150
X129130Y-102580
X129490Y-116730
X130100Y-102335
X130110Y-97240
X130110Y-123210
X130275Y-137260
X130317Y-142457
X130350Y-90190
X130720Y-133350
X130970Y-140690
X131000Y-138210
X131480Y-146140
X131510Y-108330
X131540Y-112760
X131550Y-117790
X134730Y-115410
X135690Y-114685
X135703Y-112693
X135730Y-75630
X135760Y-79170
X136090Y-118010
X136410Y-111986
X136904Y-114174
X136928Y-116838
X137687Y-118983
X137860Y-113150
X138030Y-115950
X138750Y-119020
X138750Y-120610
X139630Y-118090
X139710Y-121530
X139730Y-92540
X140080Y-97450
X140460Y-126000
X140790Y-134230
X141110Y-113100
X141200Y-108130
X141610Y-128460
X142121Y-108520
X142180Y-136430
X143040Y-112040
X143061Y-107901
X143080Y-110690
X144490Y-136430
X145177Y-106537
X145250Y-79240
X145280Y-75830
X145590Y-146260
X146825Y-106940
X147120Y-127350
X147390Y-135070
X147420Y-110840
X147520Y-118370
X148150Y-93960
X148260Y-99300
X148740Y-104000
X150410Y-80490
X151450Y-142300
X153700Y-131060
X153780Y-112700
X154170Y-88590
T2
X133210Y-88760
X133210Y-91300
X133210Y-93840
X133210Y-96380
X133210Y-98920
X133210Y-101460
X133210Y-104000
X133210Y-106540
X133210Y-109080
X133210Y-111620
X133210Y-114160
X133210Y-116700
X133210Y-119240
X133210Y-121780
X133210Y-124320
X133210Y-126860
X133210Y-129400
X133210Y-131940
X133210Y-134480
X133210Y-137020
X133210Y-139560
X150990Y-88760
X150990Y-91300
X150990Y-93840
X150990Y-96380
X150990Y-98920
X150990Y-101460
X150990Y-104000
X150990Y-106540
X150990Y-109080
X150990Y-111620
X150990Y-114160
X150990Y-116700
X150990Y-119240
X150990Y-121780
X150990Y-124320
X150990Y-126860
X150990Y-129400
X150990Y-131940
X150990Y-134480
X150990Y-137020
X150990Y-139560
T3
X103510Y-83950
X106050Y-83950
X108590Y-83950
X108700Y-116140
X108700Y-118680
X108700Y-121220
X108700Y-123760
X122510Y-83950
X125050Y-83950
X127590Y-83950
X137580Y-88790
X137580Y-91330
X137580Y-93870
X137580Y-96410
X137580Y-98950
X137580Y-101490
X137580Y-123430
X137580Y-125970
X137580Y-128510
X137580Y-131050
X137580Y-133590
X137580Y-136130
X127130Y-114480
X127130Y-117020
X127130Y-119560
X127130Y-122100
X127130Y-124640
X127130Y-127180
X127130Y-129720
X132000Y-83950
X134540Y-83950
X137080Y-83950
X113010Y-83950
X115550Y-83950
X118090Y-83950
X127260Y-88910
X127260Y-91450
X127260Y-93990
X127260Y-96530
X127260Y-99070
X127260Y-101610
X127260Y-104150
X127260Y-106690
X127260Y-109230
X141500Y-83950
X144040Y-83950
X146580Y-83950
T4
X108900Y-140000
X112710Y-140000
X116520Y-140000
X120330Y-140000
X102840Y-124610
X102840Y-128420
X102840Y-132230
X102840Y-136040
T5
X96530Y-99510
X123530Y-98010
X123530Y-101010
T0
M30
