G04 #@! TF.GenerationSoftware,KiCad,Pcbnew,(5.1.5)-3*
G04 #@! TF.CreationDate,2020-06-25T09:37:35+02:00*
G04 #@! TF.ProjectId,StepperClockMotor,53746570-7065-4724-936c-6f636b4d6f74,v1.1*
G04 #@! TF.SameCoordinates,Original*
G04 #@! TF.FileFunction,Copper,L1,Top*
G04 #@! TF.FilePolarity,Positive*
%FSLAX46Y46*%
G04 Gerber Fmt 4.6, Leading zero omitted, Abs format (unit mm)*
G04 Created by KiCad (PCBNEW (5.1.5)-3) date 2020-06-25 09:37:35*
%MOMM*%
%LPD*%
G04 APERTURE LIST*
%ADD10C,2.000000*%
%ADD11R,1.750000X1.750000*%
%ADD12C,1.750000*%
%ADD13R,1.700000X1.700000*%
%ADD14O,1.700000X1.700000*%
%ADD15C,0.800000*%
%ADD16C,1.500000*%
%ADD17C,0.250000*%
%ADD18C,0.254000*%
G04 APERTURE END LIST*
D10*
X129795800Y-154480740D03*
X129795800Y-131480740D03*
X121795800Y-154480740D03*
X121795800Y-131480740D03*
X98795800Y-154480740D03*
X98795800Y-131480740D03*
X90795800Y-154480740D03*
X90795800Y-131480740D03*
D11*
X104393800Y-114494740D03*
D12*
X104393800Y-116994740D03*
X104393800Y-119494740D03*
D11*
X115315800Y-114240740D03*
D12*
X115315800Y-116740740D03*
X115315800Y-119240740D03*
X115315800Y-121740740D03*
D11*
X115315800Y-163008740D03*
D12*
X115315800Y-165508740D03*
X115315800Y-168008740D03*
X115315800Y-170508740D03*
D11*
X104393800Y-163008740D03*
D12*
X104393800Y-165508740D03*
X104393800Y-168008740D03*
X104393800Y-170508740D03*
D13*
X103377800Y-181550740D03*
D14*
X100837800Y-181550740D03*
X98297800Y-181550740D03*
D13*
X103375800Y-104260740D03*
D14*
X100835800Y-104260740D03*
X98295800Y-104260740D03*
D15*
X96195800Y-135350740D03*
X76695800Y-112380740D03*
X95975800Y-140890740D03*
X65095800Y-155560740D03*
X76915800Y-170300740D03*
X127565800Y-116560740D03*
X69775800Y-119520740D03*
X94935800Y-104060740D03*
X64195800Y-129770740D03*
X84235800Y-175390740D03*
X84581800Y-108144740D03*
X123443800Y-112716740D03*
X130047800Y-119828740D03*
X136651800Y-129734740D03*
X139445800Y-142688740D03*
X137413800Y-154880740D03*
X129793800Y-167072740D03*
X124205800Y-172914740D03*
X114299800Y-178248740D03*
X107949800Y-180280740D03*
X92201800Y-180280740D03*
X80009800Y-173676740D03*
X72135800Y-166818740D03*
X64007800Y-151324740D03*
X63245800Y-135576740D03*
X77469800Y-131512740D03*
X87883800Y-117034740D03*
X96773800Y-110938740D03*
X105917800Y-125924740D03*
X110997800Y-133290740D03*
X110997800Y-148784740D03*
X122935800Y-124908740D03*
X92709800Y-167072740D03*
X92455800Y-148022740D03*
X84327800Y-144212740D03*
X71925800Y-148780740D03*
X72135800Y-133290740D03*
X110489800Y-141164740D03*
X102615800Y-152848740D03*
X82549800Y-162754740D03*
X79755800Y-143704740D03*
X81533800Y-124146740D03*
X109219800Y-161484740D03*
X109219800Y-166056740D03*
X108965800Y-170374740D03*
X103631800Y-176470740D03*
X94741800Y-171898740D03*
X76199800Y-159452740D03*
X98551800Y-127448740D03*
X113791800Y-127702740D03*
X108965800Y-122876740D03*
X94995800Y-115510740D03*
X62565800Y-142720740D03*
X133195800Y-151330740D03*
X137025800Y-138420740D03*
X105785800Y-130370740D03*
X107935800Y-104930740D03*
X112145800Y-106430740D03*
X115885800Y-107920740D03*
X120285800Y-110170740D03*
X80715800Y-109890740D03*
X89785800Y-105590740D03*
X72575800Y-115970740D03*
X62475800Y-147030740D03*
X78755800Y-165450740D03*
X83245800Y-155350740D03*
X107845800Y-135330740D03*
X113175800Y-138330740D03*
X109615800Y-163890740D03*
X109295800Y-168340740D03*
X109455800Y-172940740D03*
X101599800Y-167834740D03*
X97281800Y-164532740D03*
X121919800Y-161738740D03*
X121919800Y-168596740D03*
X116585800Y-144466740D03*
X131317800Y-144212740D03*
X126999800Y-144466740D03*
X118871800Y-140402740D03*
X118871800Y-118050740D03*
X118875800Y-120400740D03*
X132587800Y-140656740D03*
D16*
X97447801Y-180700741D02*
X98297800Y-181550740D01*
X88005801Y-171258741D02*
X97447801Y-180700741D01*
X88005801Y-131384737D02*
X88005801Y-171258741D01*
X99895798Y-119494740D02*
X88005801Y-131384737D01*
X104393800Y-119494740D02*
X99895798Y-119494740D01*
X103375800Y-106610740D02*
X105185800Y-108420740D01*
X103375800Y-104260740D02*
X103375800Y-106610740D01*
X105185800Y-108420740D02*
X107645800Y-108420740D01*
X107645800Y-108420740D02*
X109195800Y-109970740D01*
X109195800Y-109970740D02*
X109195800Y-117560740D01*
X107261800Y-119494740D02*
X104393800Y-119494740D01*
X109195800Y-117560740D02*
X107261800Y-119494740D01*
X98297800Y-181550740D02*
X100837800Y-181550740D01*
X100837800Y-181550740D02*
X103377800Y-181550740D01*
X104393800Y-168008740D02*
X101773800Y-168008740D01*
X101773800Y-168008740D02*
X101599800Y-167834740D01*
X90795800Y-158046740D02*
X90795800Y-154480740D01*
X97281800Y-164532740D02*
X90795800Y-158046740D01*
X103156364Y-170508740D02*
X104393800Y-170508740D01*
X101869624Y-170508740D02*
X103156364Y-170508740D01*
X99899791Y-168538907D02*
X101869624Y-170508740D01*
X99899791Y-164746555D02*
X99899791Y-168538907D01*
X98795800Y-163642564D02*
X99899791Y-164746555D01*
X98795800Y-154480740D02*
X98795800Y-163642564D01*
X99795799Y-132480739D02*
X98795800Y-131480740D01*
X104745801Y-160281739D02*
X104745801Y-137430741D01*
X104393800Y-160633740D02*
X104745801Y-160281739D01*
X104745801Y-137430741D02*
X99795799Y-132480739D01*
X104393800Y-163008740D02*
X104393800Y-160633740D01*
X90795800Y-132894953D02*
X90795800Y-131480740D01*
X90795800Y-139266742D02*
X90795800Y-132894953D01*
X100745801Y-149216743D02*
X90795800Y-139266742D01*
X100745801Y-163098177D02*
X100745801Y-149216743D01*
X103156364Y-165508740D02*
X100745801Y-163098177D01*
X104393800Y-165508740D02*
X103156364Y-165508740D01*
X118145789Y-162553751D02*
X117690800Y-163008740D01*
X118145789Y-152948574D02*
X118145789Y-162553751D01*
X121795800Y-149298564D02*
X118145789Y-152948574D01*
X117690800Y-163008740D02*
X115315800Y-163008740D01*
X121795800Y-131480740D02*
X121795800Y-149298564D01*
X129795800Y-132894953D02*
X125221800Y-137468953D01*
X129795800Y-131480740D02*
X129795800Y-132894953D01*
X125221800Y-137468953D02*
X125221800Y-148276740D01*
X119845799Y-153652741D02*
X119845799Y-163474739D01*
X125221800Y-148276740D02*
X119845799Y-153652741D01*
X117811798Y-165508740D02*
X115315800Y-165508740D01*
X119845799Y-163474739D02*
X117811798Y-165508740D01*
X116553236Y-168008740D02*
X115315800Y-168008740D01*
X119139798Y-168008740D02*
X116553236Y-168008740D01*
X129795800Y-157352738D02*
X119139798Y-168008740D01*
X129795800Y-154480740D02*
X129795800Y-157352738D01*
X121795800Y-154480740D02*
X121795800Y-161614740D01*
X121795800Y-161614740D02*
X121919800Y-161738740D01*
X120007800Y-170508740D02*
X115315800Y-170508740D01*
X121919800Y-168596740D02*
X120007800Y-170508740D01*
D17*
X115315800Y-121740740D02*
X115315800Y-143196740D01*
X115315800Y-143196740D02*
X116585800Y-144466740D01*
X131317800Y-144212740D02*
X127253800Y-144212740D01*
X127253800Y-144212740D02*
X126999800Y-144466740D01*
X118871800Y-140402740D02*
X118871800Y-121352740D01*
X116625800Y-118050740D02*
X115315800Y-116740740D01*
X118871800Y-118050740D02*
X116625800Y-118050740D01*
X118871800Y-120970425D02*
X118871800Y-121352740D01*
X118875800Y-120966425D02*
X118871800Y-120970425D01*
X118875800Y-120400740D02*
X118875800Y-120966425D01*
X116553236Y-119240740D02*
X115315800Y-119240740D01*
X121532798Y-119240740D02*
X116553236Y-119240740D01*
X132587800Y-130295742D02*
X121532798Y-119240740D01*
X132587800Y-140656740D02*
X132587800Y-130295742D01*
X103268800Y-114494740D02*
X104393800Y-114494740D01*
X98295800Y-109521740D02*
X103268800Y-114494740D01*
X98295800Y-104260740D02*
X98295800Y-109521740D01*
D18*
G36*
X96979810Y-103557329D02*
G01*
X96867868Y-103827582D01*
X96810800Y-104114480D01*
X96810800Y-104407000D01*
X96867868Y-104693898D01*
X96979810Y-104964151D01*
X97142325Y-105207372D01*
X97349168Y-105414215D01*
X97535800Y-105538919D01*
X97535801Y-109484408D01*
X97532124Y-109521740D01*
X97546798Y-109670725D01*
X97590254Y-109813986D01*
X97660826Y-109946016D01*
X97732001Y-110032742D01*
X97755800Y-110061741D01*
X97784798Y-110085539D01*
X102705001Y-115005743D01*
X102728799Y-115034741D01*
X102757797Y-115058539D01*
X102844523Y-115129714D01*
X102880728Y-115149066D01*
X102880728Y-115369740D01*
X102892988Y-115494222D01*
X102929298Y-115613920D01*
X102988263Y-115724234D01*
X103067615Y-115820925D01*
X103164306Y-115900277D01*
X103274620Y-115959242D01*
X103282102Y-115961512D01*
X103231533Y-116012081D01*
X103347558Y-116128106D01*
X103095932Y-116208765D01*
X102967533Y-116477069D01*
X102893945Y-116765266D01*
X102877996Y-117062283D01*
X102920299Y-117356703D01*
X103019228Y-117637214D01*
X103095932Y-117780715D01*
X103347560Y-117861375D01*
X104214195Y-116994740D01*
X104200053Y-116980598D01*
X104379658Y-116800993D01*
X104393800Y-116815135D01*
X104407943Y-116800993D01*
X104587548Y-116980598D01*
X104573405Y-116994740D01*
X105440040Y-117861375D01*
X105691668Y-117780715D01*
X105820067Y-117512411D01*
X105893655Y-117224214D01*
X105909604Y-116927197D01*
X105867301Y-116632777D01*
X105768372Y-116352266D01*
X105691668Y-116208765D01*
X105440042Y-116128106D01*
X105556067Y-116012081D01*
X105505498Y-115961512D01*
X105512980Y-115959242D01*
X105623294Y-115900277D01*
X105719985Y-115820925D01*
X105799337Y-115724234D01*
X105858302Y-115613920D01*
X105894612Y-115494222D01*
X105906872Y-115369740D01*
X105906872Y-113619740D01*
X105894612Y-113495258D01*
X105858302Y-113375560D01*
X105799337Y-113265246D01*
X105719985Y-113168555D01*
X105623294Y-113089203D01*
X105512980Y-113030238D01*
X105393282Y-112993928D01*
X105268800Y-112981668D01*
X103518800Y-112981668D01*
X103394318Y-112993928D01*
X103274620Y-113030238D01*
X103164306Y-113089203D01*
X103067615Y-113168555D01*
X103044988Y-113196126D01*
X99055800Y-109206939D01*
X99055800Y-105538918D01*
X99242432Y-105414215D01*
X99449275Y-105207372D01*
X99570995Y-105025206D01*
X99640622Y-105142095D01*
X99835531Y-105358328D01*
X100068880Y-105532381D01*
X100331701Y-105657565D01*
X100478910Y-105702216D01*
X100708800Y-105580895D01*
X100708800Y-104387740D01*
X100688800Y-104387740D01*
X100688800Y-104133740D01*
X100708800Y-104133740D01*
X100708800Y-104113740D01*
X100962800Y-104113740D01*
X100962800Y-104133740D01*
X100982800Y-104133740D01*
X100982800Y-104387740D01*
X100962800Y-104387740D01*
X100962800Y-105580895D01*
X101192690Y-105702216D01*
X101339899Y-105657565D01*
X101602720Y-105532381D01*
X101836069Y-105358328D01*
X101911834Y-105274274D01*
X101936298Y-105354920D01*
X101990801Y-105456885D01*
X101990801Y-106542701D01*
X101984100Y-106610740D01*
X102010840Y-106882247D01*
X102090036Y-107143320D01*
X102218644Y-107383928D01*
X102348348Y-107541973D01*
X102348351Y-107541976D01*
X102391720Y-107594821D01*
X102444564Y-107638189D01*
X104158350Y-109351976D01*
X104201719Y-109404821D01*
X104254564Y-109448190D01*
X104254566Y-109448192D01*
X104412612Y-109577897D01*
X104653219Y-109706504D01*
X104914293Y-109785700D01*
X105185800Y-109812441D01*
X105253837Y-109805740D01*
X107072115Y-109805740D01*
X107810800Y-110544426D01*
X107810801Y-116987053D01*
X106688115Y-118109740D01*
X105238394Y-118109740D01*
X105260435Y-118040980D01*
X104393800Y-117174345D01*
X103527165Y-118040980D01*
X103549206Y-118109740D01*
X99963826Y-118109740D01*
X99895797Y-118103040D01*
X99827768Y-118109740D01*
X99827761Y-118109740D01*
X99649897Y-118127258D01*
X99624290Y-118129780D01*
X99416835Y-118192711D01*
X99363217Y-118208976D01*
X99122610Y-118337583D01*
X99083948Y-118369312D01*
X98964564Y-118467288D01*
X98964562Y-118467290D01*
X98911717Y-118510659D01*
X98868348Y-118563504D01*
X87074566Y-130357287D01*
X87021720Y-130400657D01*
X86848644Y-130611550D01*
X86790667Y-130720018D01*
X86720037Y-130852157D01*
X86648180Y-131089039D01*
X86640841Y-131113231D01*
X86620801Y-131316701D01*
X86620801Y-131316708D01*
X86614101Y-131384737D01*
X86620801Y-131452766D01*
X86620801Y-132430980D01*
X86435521Y-132307180D01*
X86001479Y-132127394D01*
X85540702Y-132035740D01*
X85070898Y-132035740D01*
X84610121Y-132127394D01*
X84176079Y-132307180D01*
X83785451Y-132568190D01*
X83453250Y-132900391D01*
X83192240Y-133291019D01*
X83012454Y-133725061D01*
X82920800Y-134185838D01*
X82920800Y-134655642D01*
X83012454Y-135116419D01*
X83192240Y-135550461D01*
X83453250Y-135941089D01*
X83785451Y-136273290D01*
X84176079Y-136534300D01*
X84610121Y-136714086D01*
X85070898Y-136805740D01*
X85540702Y-136805740D01*
X86001479Y-136714086D01*
X86435521Y-136534300D01*
X86620801Y-136410499D01*
X86620802Y-171190702D01*
X86614101Y-171258741D01*
X86640841Y-171530248D01*
X86720037Y-171791321D01*
X86848645Y-172031929D01*
X86978349Y-172189974D01*
X86978352Y-172189977D01*
X87021721Y-172242822D01*
X87074566Y-172286191D01*
X96938878Y-182150503D01*
X96952964Y-182184510D01*
X96809463Y-182175482D01*
X94348203Y-181864553D01*
X91911323Y-181399693D01*
X89508441Y-180782738D01*
X87149040Y-180016122D01*
X84842430Y-179102870D01*
X82597715Y-178046588D01*
X80423754Y-176851443D01*
X78329127Y-175522152D01*
X76322100Y-174063961D01*
X74410594Y-172482626D01*
X72602153Y-170784387D01*
X70903914Y-168975946D01*
X69322579Y-167064440D01*
X67864388Y-165057413D01*
X67280683Y-164137641D01*
X67851596Y-164374121D01*
X68523345Y-164507740D01*
X69208255Y-164507740D01*
X69880004Y-164374121D01*
X70512777Y-164112018D01*
X71082258Y-163731502D01*
X71566562Y-163247198D01*
X71947078Y-162677717D01*
X72209181Y-162044944D01*
X72342800Y-161373195D01*
X72342800Y-160688285D01*
X72209181Y-160016536D01*
X71947078Y-159383763D01*
X71566562Y-158814282D01*
X71082258Y-158329978D01*
X70512777Y-157949462D01*
X69880004Y-157687359D01*
X69208255Y-157553740D01*
X68523345Y-157553740D01*
X67851596Y-157687359D01*
X67218823Y-157949462D01*
X66649342Y-158329978D01*
X66165038Y-158814282D01*
X65784522Y-159383763D01*
X65522419Y-160016536D01*
X65388800Y-160688285D01*
X65388800Y-160877679D01*
X65339952Y-160788825D01*
X64283670Y-158544110D01*
X63370418Y-156237500D01*
X62603802Y-153878099D01*
X61986847Y-151475217D01*
X61521987Y-149038337D01*
X61211058Y-146577077D01*
X61055286Y-144101151D01*
X61055286Y-141620329D01*
X61211058Y-139144403D01*
X61521987Y-136683143D01*
X61986847Y-134246263D01*
X62603802Y-131843381D01*
X63370418Y-129483980D01*
X64283670Y-127177370D01*
X65339952Y-124932655D01*
X65388800Y-124843801D01*
X65388800Y-125093195D01*
X65522419Y-125764944D01*
X65784522Y-126397717D01*
X66165038Y-126967198D01*
X66649342Y-127451502D01*
X67218823Y-127832018D01*
X67851596Y-128094121D01*
X68523345Y-128227740D01*
X69208255Y-128227740D01*
X69880004Y-128094121D01*
X70512777Y-127832018D01*
X71082258Y-127451502D01*
X71566562Y-126967198D01*
X71947078Y-126397717D01*
X72209181Y-125764944D01*
X72342800Y-125093195D01*
X72342800Y-124408285D01*
X72209181Y-123736536D01*
X71947078Y-123103763D01*
X71566562Y-122534282D01*
X71082258Y-122049978D01*
X70512777Y-121669462D01*
X69880004Y-121407359D01*
X69208255Y-121273740D01*
X68523345Y-121273740D01*
X67851596Y-121407359D01*
X67229027Y-121665235D01*
X67864388Y-120664067D01*
X69322579Y-118657040D01*
X70903914Y-116745534D01*
X72602153Y-114937093D01*
X74410594Y-113238854D01*
X76322100Y-111657519D01*
X78329127Y-110199328D01*
X80423754Y-108870037D01*
X82597715Y-107674892D01*
X84842430Y-106618610D01*
X87149040Y-105705358D01*
X89508441Y-104938742D01*
X91911323Y-104321787D01*
X94348203Y-103856927D01*
X96809463Y-103545998D01*
X96995189Y-103534313D01*
X96979810Y-103557329D01*
G37*
X96979810Y-103557329D02*
X96867868Y-103827582D01*
X96810800Y-104114480D01*
X96810800Y-104407000D01*
X96867868Y-104693898D01*
X96979810Y-104964151D01*
X97142325Y-105207372D01*
X97349168Y-105414215D01*
X97535800Y-105538919D01*
X97535801Y-109484408D01*
X97532124Y-109521740D01*
X97546798Y-109670725D01*
X97590254Y-109813986D01*
X97660826Y-109946016D01*
X97732001Y-110032742D01*
X97755800Y-110061741D01*
X97784798Y-110085539D01*
X102705001Y-115005743D01*
X102728799Y-115034741D01*
X102757797Y-115058539D01*
X102844523Y-115129714D01*
X102880728Y-115149066D01*
X102880728Y-115369740D01*
X102892988Y-115494222D01*
X102929298Y-115613920D01*
X102988263Y-115724234D01*
X103067615Y-115820925D01*
X103164306Y-115900277D01*
X103274620Y-115959242D01*
X103282102Y-115961512D01*
X103231533Y-116012081D01*
X103347558Y-116128106D01*
X103095932Y-116208765D01*
X102967533Y-116477069D01*
X102893945Y-116765266D01*
X102877996Y-117062283D01*
X102920299Y-117356703D01*
X103019228Y-117637214D01*
X103095932Y-117780715D01*
X103347560Y-117861375D01*
X104214195Y-116994740D01*
X104200053Y-116980598D01*
X104379658Y-116800993D01*
X104393800Y-116815135D01*
X104407943Y-116800993D01*
X104587548Y-116980598D01*
X104573405Y-116994740D01*
X105440040Y-117861375D01*
X105691668Y-117780715D01*
X105820067Y-117512411D01*
X105893655Y-117224214D01*
X105909604Y-116927197D01*
X105867301Y-116632777D01*
X105768372Y-116352266D01*
X105691668Y-116208765D01*
X105440042Y-116128106D01*
X105556067Y-116012081D01*
X105505498Y-115961512D01*
X105512980Y-115959242D01*
X105623294Y-115900277D01*
X105719985Y-115820925D01*
X105799337Y-115724234D01*
X105858302Y-115613920D01*
X105894612Y-115494222D01*
X105906872Y-115369740D01*
X105906872Y-113619740D01*
X105894612Y-113495258D01*
X105858302Y-113375560D01*
X105799337Y-113265246D01*
X105719985Y-113168555D01*
X105623294Y-113089203D01*
X105512980Y-113030238D01*
X105393282Y-112993928D01*
X105268800Y-112981668D01*
X103518800Y-112981668D01*
X103394318Y-112993928D01*
X103274620Y-113030238D01*
X103164306Y-113089203D01*
X103067615Y-113168555D01*
X103044988Y-113196126D01*
X99055800Y-109206939D01*
X99055800Y-105538918D01*
X99242432Y-105414215D01*
X99449275Y-105207372D01*
X99570995Y-105025206D01*
X99640622Y-105142095D01*
X99835531Y-105358328D01*
X100068880Y-105532381D01*
X100331701Y-105657565D01*
X100478910Y-105702216D01*
X100708800Y-105580895D01*
X100708800Y-104387740D01*
X100688800Y-104387740D01*
X100688800Y-104133740D01*
X100708800Y-104133740D01*
X100708800Y-104113740D01*
X100962800Y-104113740D01*
X100962800Y-104133740D01*
X100982800Y-104133740D01*
X100982800Y-104387740D01*
X100962800Y-104387740D01*
X100962800Y-105580895D01*
X101192690Y-105702216D01*
X101339899Y-105657565D01*
X101602720Y-105532381D01*
X101836069Y-105358328D01*
X101911834Y-105274274D01*
X101936298Y-105354920D01*
X101990801Y-105456885D01*
X101990801Y-106542701D01*
X101984100Y-106610740D01*
X102010840Y-106882247D01*
X102090036Y-107143320D01*
X102218644Y-107383928D01*
X102348348Y-107541973D01*
X102348351Y-107541976D01*
X102391720Y-107594821D01*
X102444564Y-107638189D01*
X104158350Y-109351976D01*
X104201719Y-109404821D01*
X104254564Y-109448190D01*
X104254566Y-109448192D01*
X104412612Y-109577897D01*
X104653219Y-109706504D01*
X104914293Y-109785700D01*
X105185800Y-109812441D01*
X105253837Y-109805740D01*
X107072115Y-109805740D01*
X107810800Y-110544426D01*
X107810801Y-116987053D01*
X106688115Y-118109740D01*
X105238394Y-118109740D01*
X105260435Y-118040980D01*
X104393800Y-117174345D01*
X103527165Y-118040980D01*
X103549206Y-118109740D01*
X99963826Y-118109740D01*
X99895797Y-118103040D01*
X99827768Y-118109740D01*
X99827761Y-118109740D01*
X99649897Y-118127258D01*
X99624290Y-118129780D01*
X99416835Y-118192711D01*
X99363217Y-118208976D01*
X99122610Y-118337583D01*
X99083948Y-118369312D01*
X98964564Y-118467288D01*
X98964562Y-118467290D01*
X98911717Y-118510659D01*
X98868348Y-118563504D01*
X87074566Y-130357287D01*
X87021720Y-130400657D01*
X86848644Y-130611550D01*
X86790667Y-130720018D01*
X86720037Y-130852157D01*
X86648180Y-131089039D01*
X86640841Y-131113231D01*
X86620801Y-131316701D01*
X86620801Y-131316708D01*
X86614101Y-131384737D01*
X86620801Y-131452766D01*
X86620801Y-132430980D01*
X86435521Y-132307180D01*
X86001479Y-132127394D01*
X85540702Y-132035740D01*
X85070898Y-132035740D01*
X84610121Y-132127394D01*
X84176079Y-132307180D01*
X83785451Y-132568190D01*
X83453250Y-132900391D01*
X83192240Y-133291019D01*
X83012454Y-133725061D01*
X82920800Y-134185838D01*
X82920800Y-134655642D01*
X83012454Y-135116419D01*
X83192240Y-135550461D01*
X83453250Y-135941089D01*
X83785451Y-136273290D01*
X84176079Y-136534300D01*
X84610121Y-136714086D01*
X85070898Y-136805740D01*
X85540702Y-136805740D01*
X86001479Y-136714086D01*
X86435521Y-136534300D01*
X86620801Y-136410499D01*
X86620802Y-171190702D01*
X86614101Y-171258741D01*
X86640841Y-171530248D01*
X86720037Y-171791321D01*
X86848645Y-172031929D01*
X86978349Y-172189974D01*
X86978352Y-172189977D01*
X87021721Y-172242822D01*
X87074566Y-172286191D01*
X96938878Y-182150503D01*
X96952964Y-182184510D01*
X96809463Y-182175482D01*
X94348203Y-181864553D01*
X91911323Y-181399693D01*
X89508441Y-180782738D01*
X87149040Y-180016122D01*
X84842430Y-179102870D01*
X82597715Y-178046588D01*
X80423754Y-176851443D01*
X78329127Y-175522152D01*
X76322100Y-174063961D01*
X74410594Y-172482626D01*
X72602153Y-170784387D01*
X70903914Y-168975946D01*
X69322579Y-167064440D01*
X67864388Y-165057413D01*
X67280683Y-164137641D01*
X67851596Y-164374121D01*
X68523345Y-164507740D01*
X69208255Y-164507740D01*
X69880004Y-164374121D01*
X70512777Y-164112018D01*
X71082258Y-163731502D01*
X71566562Y-163247198D01*
X71947078Y-162677717D01*
X72209181Y-162044944D01*
X72342800Y-161373195D01*
X72342800Y-160688285D01*
X72209181Y-160016536D01*
X71947078Y-159383763D01*
X71566562Y-158814282D01*
X71082258Y-158329978D01*
X70512777Y-157949462D01*
X69880004Y-157687359D01*
X69208255Y-157553740D01*
X68523345Y-157553740D01*
X67851596Y-157687359D01*
X67218823Y-157949462D01*
X66649342Y-158329978D01*
X66165038Y-158814282D01*
X65784522Y-159383763D01*
X65522419Y-160016536D01*
X65388800Y-160688285D01*
X65388800Y-160877679D01*
X65339952Y-160788825D01*
X64283670Y-158544110D01*
X63370418Y-156237500D01*
X62603802Y-153878099D01*
X61986847Y-151475217D01*
X61521987Y-149038337D01*
X61211058Y-146577077D01*
X61055286Y-144101151D01*
X61055286Y-141620329D01*
X61211058Y-139144403D01*
X61521987Y-136683143D01*
X61986847Y-134246263D01*
X62603802Y-131843381D01*
X63370418Y-129483980D01*
X64283670Y-127177370D01*
X65339952Y-124932655D01*
X65388800Y-124843801D01*
X65388800Y-125093195D01*
X65522419Y-125764944D01*
X65784522Y-126397717D01*
X66165038Y-126967198D01*
X66649342Y-127451502D01*
X67218823Y-127832018D01*
X67851596Y-128094121D01*
X68523345Y-128227740D01*
X69208255Y-128227740D01*
X69880004Y-128094121D01*
X70512777Y-127832018D01*
X71082258Y-127451502D01*
X71566562Y-126967198D01*
X71947078Y-126397717D01*
X72209181Y-125764944D01*
X72342800Y-125093195D01*
X72342800Y-124408285D01*
X72209181Y-123736536D01*
X71947078Y-123103763D01*
X71566562Y-122534282D01*
X71082258Y-122049978D01*
X70512777Y-121669462D01*
X69880004Y-121407359D01*
X69208255Y-121273740D01*
X68523345Y-121273740D01*
X67851596Y-121407359D01*
X67229027Y-121665235D01*
X67864388Y-120664067D01*
X69322579Y-118657040D01*
X70903914Y-116745534D01*
X72602153Y-114937093D01*
X74410594Y-113238854D01*
X76322100Y-111657519D01*
X78329127Y-110199328D01*
X80423754Y-108870037D01*
X82597715Y-107674892D01*
X84842430Y-106618610D01*
X87149040Y-105705358D01*
X89508441Y-104938742D01*
X91911323Y-104321787D01*
X94348203Y-103856927D01*
X96809463Y-103545998D01*
X96995189Y-103534313D01*
X96979810Y-103557329D01*
G36*
X106703397Y-103856927D02*
G01*
X109140277Y-104321787D01*
X111543159Y-104938742D01*
X113902560Y-105705358D01*
X116209170Y-106618610D01*
X118453885Y-107674892D01*
X120627846Y-108870037D01*
X122722473Y-110199328D01*
X124729500Y-111657519D01*
X126641006Y-113238854D01*
X128449447Y-114937093D01*
X130147686Y-116745534D01*
X131729021Y-118657040D01*
X133187212Y-120664067D01*
X133822573Y-121665235D01*
X133200004Y-121407359D01*
X132528255Y-121273740D01*
X131843345Y-121273740D01*
X131171596Y-121407359D01*
X130538823Y-121669462D01*
X129969342Y-122049978D01*
X129485038Y-122534282D01*
X129104522Y-123103763D01*
X128842419Y-123736536D01*
X128708800Y-124408285D01*
X128708800Y-125093195D01*
X128770564Y-125403704D01*
X122096602Y-118729743D01*
X122072799Y-118700739D01*
X121957074Y-118605766D01*
X121825045Y-118535194D01*
X121681784Y-118491737D01*
X121570131Y-118480740D01*
X121570120Y-118480740D01*
X121532798Y-118477064D01*
X121495476Y-118480740D01*
X119813964Y-118480740D01*
X119867026Y-118352638D01*
X119906800Y-118152679D01*
X119906800Y-117948801D01*
X119867026Y-117748842D01*
X119789005Y-117560484D01*
X119675737Y-117390966D01*
X119531574Y-117246803D01*
X119362056Y-117133535D01*
X119173698Y-117055514D01*
X118973739Y-117015740D01*
X118769861Y-117015740D01*
X118569902Y-117055514D01*
X118381544Y-117133535D01*
X118212026Y-117246803D01*
X118168089Y-117290740D01*
X116940602Y-117290740D01*
X116778270Y-117128408D01*
X116825800Y-116889462D01*
X116825800Y-116592018D01*
X116767771Y-116300289D01*
X116653944Y-116025487D01*
X116488693Y-115778171D01*
X116420236Y-115709714D01*
X116434980Y-115705242D01*
X116545294Y-115646277D01*
X116641985Y-115566925D01*
X116721337Y-115470234D01*
X116780302Y-115359920D01*
X116816612Y-115240222D01*
X116828872Y-115115740D01*
X116825800Y-114526490D01*
X116667050Y-114367740D01*
X115442800Y-114367740D01*
X115442800Y-114387740D01*
X115188800Y-114387740D01*
X115188800Y-114367740D01*
X113964550Y-114367740D01*
X113805800Y-114526490D01*
X113802728Y-115115740D01*
X113814988Y-115240222D01*
X113851298Y-115359920D01*
X113910263Y-115470234D01*
X113989615Y-115566925D01*
X114086306Y-115646277D01*
X114196620Y-115705242D01*
X114211364Y-115709714D01*
X114142907Y-115778171D01*
X113977656Y-116025487D01*
X113863829Y-116300289D01*
X113805800Y-116592018D01*
X113805800Y-116889462D01*
X113863829Y-117181191D01*
X113977656Y-117455993D01*
X114142907Y-117703309D01*
X114353231Y-117913633D01*
X114468630Y-117990740D01*
X114353231Y-118067847D01*
X114142907Y-118278171D01*
X113977656Y-118525487D01*
X113863829Y-118800289D01*
X113805800Y-119092018D01*
X113805800Y-119389462D01*
X113863829Y-119681191D01*
X113977656Y-119955993D01*
X114142907Y-120203309D01*
X114353231Y-120413633D01*
X114468630Y-120490740D01*
X114353231Y-120567847D01*
X114142907Y-120778171D01*
X113977656Y-121025487D01*
X113863829Y-121300289D01*
X113805800Y-121592018D01*
X113805800Y-121889462D01*
X113863829Y-122181191D01*
X113977656Y-122455993D01*
X114142907Y-122703309D01*
X114353231Y-122913633D01*
X114555800Y-123048985D01*
X114555801Y-143159407D01*
X114552124Y-143196740D01*
X114566798Y-143345725D01*
X114610254Y-143488986D01*
X114680826Y-143621016D01*
X114752001Y-143707742D01*
X114775800Y-143736741D01*
X114804798Y-143760539D01*
X115550800Y-144506542D01*
X115550800Y-144568679D01*
X115590574Y-144768638D01*
X115668595Y-144956996D01*
X115781863Y-145126514D01*
X115926026Y-145270677D01*
X116095544Y-145383945D01*
X116283902Y-145461966D01*
X116483861Y-145501740D01*
X116687739Y-145501740D01*
X116887698Y-145461966D01*
X117076056Y-145383945D01*
X117245574Y-145270677D01*
X117389737Y-145126514D01*
X117503005Y-144956996D01*
X117581026Y-144768638D01*
X117620800Y-144568679D01*
X117620800Y-144364801D01*
X117581026Y-144164842D01*
X117503005Y-143976484D01*
X117389737Y-143806966D01*
X117245574Y-143662803D01*
X117076056Y-143549535D01*
X116887698Y-143471514D01*
X116687739Y-143431740D01*
X116625602Y-143431740D01*
X116075800Y-142881939D01*
X116075800Y-123048985D01*
X116278369Y-122913633D01*
X116488693Y-122703309D01*
X116653944Y-122455993D01*
X116767771Y-122181191D01*
X116825800Y-121889462D01*
X116825800Y-121592018D01*
X116767771Y-121300289D01*
X116653944Y-121025487D01*
X116488693Y-120778171D01*
X116278369Y-120567847D01*
X116162970Y-120490740D01*
X116278369Y-120413633D01*
X116488693Y-120203309D01*
X116624045Y-120000740D01*
X117921209Y-120000740D01*
X117880574Y-120098842D01*
X117840800Y-120298801D01*
X117840800Y-120502679D01*
X117880574Y-120702638D01*
X117958595Y-120890996D01*
X118071863Y-121060514D01*
X118111800Y-121100451D01*
X118111800Y-121390073D01*
X118111801Y-121390083D01*
X118111800Y-139699029D01*
X118067863Y-139742966D01*
X117954595Y-139912484D01*
X117876574Y-140100842D01*
X117836800Y-140300801D01*
X117836800Y-140504679D01*
X117876574Y-140704638D01*
X117954595Y-140892996D01*
X118067863Y-141062514D01*
X118212026Y-141206677D01*
X118381544Y-141319945D01*
X118569902Y-141397966D01*
X118769861Y-141437740D01*
X118973739Y-141437740D01*
X119173698Y-141397966D01*
X119362056Y-141319945D01*
X119531574Y-141206677D01*
X119675737Y-141062514D01*
X119789005Y-140892996D01*
X119867026Y-140704638D01*
X119906800Y-140504679D01*
X119906800Y-140300801D01*
X119867026Y-140100842D01*
X119789005Y-139912484D01*
X119675737Y-139742966D01*
X119631800Y-139699029D01*
X119631800Y-129270461D01*
X123660800Y-129270461D01*
X123660800Y-129691019D01*
X123742847Y-130103496D01*
X123903788Y-130492042D01*
X124137437Y-130841723D01*
X124434817Y-131139103D01*
X124784498Y-131372752D01*
X125173044Y-131533693D01*
X125585521Y-131615740D01*
X126006079Y-131615740D01*
X126418556Y-131533693D01*
X126807102Y-131372752D01*
X127156783Y-131139103D01*
X127454163Y-130841723D01*
X127687812Y-130492042D01*
X127848753Y-130103496D01*
X127930800Y-129691019D01*
X127930800Y-129270461D01*
X127848753Y-128857984D01*
X127687812Y-128469438D01*
X127454163Y-128119757D01*
X127156783Y-127822377D01*
X126807102Y-127588728D01*
X126418556Y-127427787D01*
X126006079Y-127345740D01*
X125585521Y-127345740D01*
X125173044Y-127427787D01*
X124784498Y-127588728D01*
X124434817Y-127822377D01*
X124137437Y-128119757D01*
X123903788Y-128469438D01*
X123742847Y-128857984D01*
X123660800Y-129270461D01*
X119631800Y-129270461D01*
X119631800Y-121108451D01*
X119679737Y-121060514D01*
X119793005Y-120890996D01*
X119871026Y-120702638D01*
X119910800Y-120502679D01*
X119910800Y-120298801D01*
X119871026Y-120098842D01*
X119830391Y-120000740D01*
X121217997Y-120000740D01*
X131827801Y-130610545D01*
X131827800Y-139953029D01*
X131783863Y-139996966D01*
X131670595Y-140166484D01*
X131592574Y-140354842D01*
X131552800Y-140554801D01*
X131552800Y-140758679D01*
X131592574Y-140958638D01*
X131670595Y-141146996D01*
X131783863Y-141316514D01*
X131928026Y-141460677D01*
X132097544Y-141573945D01*
X132285902Y-141651966D01*
X132485861Y-141691740D01*
X132689739Y-141691740D01*
X132889698Y-141651966D01*
X133078056Y-141573945D01*
X133247574Y-141460677D01*
X133391737Y-141316514D01*
X133505005Y-141146996D01*
X133583026Y-140958638D01*
X133622800Y-140758679D01*
X133622800Y-140554801D01*
X133583026Y-140354842D01*
X133505005Y-140166484D01*
X133391737Y-139996966D01*
X133347800Y-139953029D01*
X133347800Y-135783272D01*
X133453250Y-135941089D01*
X133785451Y-136273290D01*
X134176079Y-136534300D01*
X134610121Y-136714086D01*
X135070898Y-136805740D01*
X135540702Y-136805740D01*
X136001479Y-136714086D01*
X136435521Y-136534300D01*
X136826149Y-136273290D01*
X137158350Y-135941089D01*
X137419360Y-135550461D01*
X137599146Y-135116419D01*
X137690800Y-134655642D01*
X137690800Y-134185838D01*
X137599146Y-133725061D01*
X137419360Y-133291019D01*
X137158350Y-132900391D01*
X136826149Y-132568190D01*
X136435521Y-132307180D01*
X136001479Y-132127394D01*
X135540702Y-132035740D01*
X135070898Y-132035740D01*
X134610121Y-132127394D01*
X134176079Y-132307180D01*
X133785451Y-132568190D01*
X133453250Y-132900391D01*
X133347800Y-133058208D01*
X133347800Y-130333067D01*
X133351476Y-130295742D01*
X133347800Y-130258417D01*
X133347800Y-130258409D01*
X133336803Y-130146756D01*
X133293346Y-130003495D01*
X133222774Y-129871466D01*
X133127801Y-129755741D01*
X133098803Y-129731943D01*
X131532836Y-128165976D01*
X131843345Y-128227740D01*
X132528255Y-128227740D01*
X133200004Y-128094121D01*
X133832777Y-127832018D01*
X134402258Y-127451502D01*
X134886562Y-126967198D01*
X135267078Y-126397717D01*
X135529181Y-125764944D01*
X135662800Y-125093195D01*
X135662800Y-124843801D01*
X135711648Y-124932655D01*
X136767930Y-127177370D01*
X137681182Y-129483980D01*
X138447798Y-131843381D01*
X139064753Y-134246263D01*
X139529613Y-136683143D01*
X139840542Y-139144403D01*
X139996314Y-141620329D01*
X139996314Y-144101151D01*
X139840542Y-146577077D01*
X139529613Y-149038337D01*
X139064753Y-151475217D01*
X138447798Y-153878099D01*
X137681182Y-156237500D01*
X136767930Y-158544110D01*
X135711648Y-160788825D01*
X135662800Y-160877679D01*
X135662800Y-160688285D01*
X135529181Y-160016536D01*
X135267078Y-159383763D01*
X134886562Y-158814282D01*
X134402258Y-158329978D01*
X133832777Y-157949462D01*
X133200004Y-157687359D01*
X132528255Y-157553740D01*
X131843345Y-157553740D01*
X131171596Y-157687359D01*
X131137306Y-157701562D01*
X131160760Y-157624245D01*
X131180800Y-157420775D01*
X131187501Y-157352738D01*
X131180800Y-157284701D01*
X131180800Y-155350863D01*
X131244718Y-155255203D01*
X131367968Y-154957652D01*
X131430800Y-154641773D01*
X131430800Y-154319707D01*
X131367968Y-154003828D01*
X131244718Y-153706277D01*
X131065787Y-153438488D01*
X130838052Y-153210753D01*
X130570263Y-153031822D01*
X130272712Y-152908572D01*
X129956833Y-152845740D01*
X129634767Y-152845740D01*
X129318888Y-152908572D01*
X129021337Y-153031822D01*
X128753548Y-153210753D01*
X128525813Y-153438488D01*
X128346882Y-153706277D01*
X128223632Y-154003828D01*
X128160800Y-154319707D01*
X128160800Y-154641773D01*
X128223632Y-154957652D01*
X128346882Y-155255203D01*
X128410800Y-155350863D01*
X128410801Y-156779051D01*
X127667679Y-157522173D01*
X127687812Y-157492042D01*
X127848753Y-157103496D01*
X127930800Y-156691019D01*
X127930800Y-156270461D01*
X127848753Y-155857984D01*
X127687812Y-155469438D01*
X127454163Y-155119757D01*
X127156783Y-154822377D01*
X126807102Y-154588728D01*
X126418556Y-154427787D01*
X126006079Y-154345740D01*
X125585521Y-154345740D01*
X125173044Y-154427787D01*
X124784498Y-154588728D01*
X124434817Y-154822377D01*
X124137437Y-155119757D01*
X123903788Y-155469438D01*
X123742847Y-155857984D01*
X123660800Y-156270461D01*
X123660800Y-156691019D01*
X123742847Y-157103496D01*
X123903788Y-157492042D01*
X124137437Y-157841723D01*
X124434817Y-158139103D01*
X124784498Y-158372752D01*
X125173044Y-158533693D01*
X125585521Y-158615740D01*
X126006079Y-158615740D01*
X126418556Y-158533693D01*
X126807102Y-158372752D01*
X126837233Y-158352619D01*
X123296247Y-161893605D01*
X123311500Y-161738739D01*
X123284759Y-161467233D01*
X123205563Y-161206159D01*
X123180800Y-161159831D01*
X123180800Y-155350863D01*
X123244718Y-155255203D01*
X123367968Y-154957652D01*
X123430800Y-154641773D01*
X123430800Y-154319707D01*
X123367968Y-154003828D01*
X123244718Y-153706277D01*
X123065787Y-153438488D01*
X122838052Y-153210753D01*
X122570263Y-153031822D01*
X122467832Y-152989393D01*
X126153036Y-149304190D01*
X126205881Y-149260821D01*
X126378957Y-149049928D01*
X126507564Y-148809321D01*
X126586760Y-148548247D01*
X126606800Y-148344777D01*
X126613501Y-148276740D01*
X126606800Y-148208703D01*
X126606800Y-145424230D01*
X126697902Y-145461966D01*
X126897861Y-145501740D01*
X127101739Y-145501740D01*
X127301698Y-145461966D01*
X127490056Y-145383945D01*
X127659574Y-145270677D01*
X127803737Y-145126514D01*
X127906485Y-144972740D01*
X130614089Y-144972740D01*
X130658026Y-145016677D01*
X130827544Y-145129945D01*
X131015902Y-145207966D01*
X131215861Y-145247740D01*
X131419739Y-145247740D01*
X131619698Y-145207966D01*
X131808056Y-145129945D01*
X131977574Y-145016677D01*
X132121737Y-144872514D01*
X132235005Y-144702996D01*
X132313026Y-144514638D01*
X132352800Y-144314679D01*
X132352800Y-144110801D01*
X132313026Y-143910842D01*
X132235005Y-143722484D01*
X132121737Y-143552966D01*
X131977574Y-143408803D01*
X131808056Y-143295535D01*
X131619698Y-143217514D01*
X131419739Y-143177740D01*
X131215861Y-143177740D01*
X131015902Y-143217514D01*
X130827544Y-143295535D01*
X130658026Y-143408803D01*
X130614089Y-143452740D01*
X127291122Y-143452740D01*
X127253799Y-143449064D01*
X127216476Y-143452740D01*
X127216467Y-143452740D01*
X127210345Y-143453343D01*
X127101739Y-143431740D01*
X126897861Y-143431740D01*
X126697902Y-143471514D01*
X126606800Y-143509250D01*
X126606800Y-138042638D01*
X130727036Y-133922403D01*
X130779881Y-133879034D01*
X130952957Y-133668141D01*
X131081564Y-133427534D01*
X131160760Y-133166460D01*
X131180800Y-132962990D01*
X131180800Y-132962982D01*
X131187500Y-132894953D01*
X131180800Y-132826924D01*
X131180800Y-132350863D01*
X131244718Y-132255203D01*
X131367968Y-131957652D01*
X131430800Y-131641773D01*
X131430800Y-131319707D01*
X131367968Y-131003828D01*
X131244718Y-130706277D01*
X131065787Y-130438488D01*
X130838052Y-130210753D01*
X130570263Y-130031822D01*
X130272712Y-129908572D01*
X129956833Y-129845740D01*
X129634767Y-129845740D01*
X129318888Y-129908572D01*
X129021337Y-130031822D01*
X128753548Y-130210753D01*
X128525813Y-130438488D01*
X128346882Y-130706277D01*
X128223632Y-131003828D01*
X128160800Y-131319707D01*
X128160800Y-131641773D01*
X128223632Y-131957652D01*
X128346882Y-132255203D01*
X128398946Y-132333122D01*
X124290565Y-136441503D01*
X124237719Y-136484873D01*
X124064643Y-136695766D01*
X123936036Y-136936373D01*
X123856840Y-137197447D01*
X123836800Y-137400917D01*
X123836800Y-137400924D01*
X123830100Y-137468953D01*
X123836800Y-137536982D01*
X123836801Y-147703053D01*
X123180800Y-148359054D01*
X123180800Y-132350863D01*
X123244718Y-132255203D01*
X123367968Y-131957652D01*
X123430800Y-131641773D01*
X123430800Y-131319707D01*
X123367968Y-131003828D01*
X123244718Y-130706277D01*
X123065787Y-130438488D01*
X122838052Y-130210753D01*
X122570263Y-130031822D01*
X122272712Y-129908572D01*
X121956833Y-129845740D01*
X121634767Y-129845740D01*
X121318888Y-129908572D01*
X121021337Y-130031822D01*
X120753548Y-130210753D01*
X120525813Y-130438488D01*
X120346882Y-130706277D01*
X120223632Y-131003828D01*
X120160800Y-131319707D01*
X120160800Y-131641773D01*
X120223632Y-131957652D01*
X120346882Y-132255203D01*
X120410800Y-132350863D01*
X120410801Y-148724877D01*
X117214554Y-151921124D01*
X117161708Y-151964494D01*
X117118339Y-152017339D01*
X117118337Y-152017341D01*
X116988633Y-152175386D01*
X116860025Y-152415994D01*
X116783380Y-152668660D01*
X116780829Y-152677068D01*
X116760789Y-152880538D01*
X116760789Y-152880545D01*
X116754089Y-152948574D01*
X116760789Y-153016603D01*
X116760790Y-161623740D01*
X116570318Y-161623740D01*
X116545294Y-161603203D01*
X116434980Y-161544238D01*
X116315282Y-161507928D01*
X116190800Y-161495668D01*
X114440800Y-161495668D01*
X114316318Y-161507928D01*
X114196620Y-161544238D01*
X114086306Y-161603203D01*
X113989615Y-161682555D01*
X113910263Y-161779246D01*
X113851298Y-161889560D01*
X113814988Y-162009258D01*
X113802728Y-162133740D01*
X113802728Y-163883740D01*
X113814988Y-164008222D01*
X113851298Y-164127920D01*
X113910263Y-164238234D01*
X113989615Y-164334925D01*
X114086306Y-164414277D01*
X114196620Y-164473242D01*
X114211364Y-164477714D01*
X114142907Y-164546171D01*
X113977656Y-164793487D01*
X113863829Y-165068289D01*
X113805800Y-165360018D01*
X113805800Y-165657462D01*
X113863829Y-165949191D01*
X113977656Y-166223993D01*
X114142907Y-166471309D01*
X114353231Y-166681633D01*
X114468630Y-166758740D01*
X114353231Y-166835847D01*
X114142907Y-167046171D01*
X113977656Y-167293487D01*
X113863829Y-167568289D01*
X113805800Y-167860018D01*
X113805800Y-168157462D01*
X113863829Y-168449191D01*
X113977656Y-168723993D01*
X114142907Y-168971309D01*
X114353231Y-169181633D01*
X114468630Y-169258740D01*
X114353231Y-169335847D01*
X114142907Y-169546171D01*
X113977656Y-169793487D01*
X113863829Y-170068289D01*
X113805800Y-170360018D01*
X113805800Y-170657462D01*
X113863829Y-170949191D01*
X113977656Y-171223993D01*
X114142907Y-171471309D01*
X114353231Y-171681633D01*
X114600547Y-171846884D01*
X114875349Y-171960711D01*
X115167078Y-172018740D01*
X115464522Y-172018740D01*
X115756251Y-171960711D01*
X115917933Y-171893740D01*
X119939771Y-171893740D01*
X120007800Y-171900440D01*
X120075829Y-171893740D01*
X120075837Y-171893740D01*
X120279307Y-171873700D01*
X120540381Y-171794504D01*
X120780988Y-171665897D01*
X120991881Y-171492821D01*
X121035254Y-171439971D01*
X122947252Y-169527974D01*
X123076956Y-169369929D01*
X123205563Y-169129322D01*
X123284759Y-168868248D01*
X123311500Y-168596741D01*
X123284759Y-168325234D01*
X123205563Y-168064160D01*
X123076956Y-167823553D01*
X122903880Y-167612660D01*
X122692987Y-167439584D01*
X122452380Y-167310977D01*
X122191306Y-167231781D01*
X121919799Y-167205040D01*
X121900259Y-167206965D01*
X128780773Y-160326451D01*
X128708800Y-160688285D01*
X128708800Y-161373195D01*
X128842419Y-162044944D01*
X129104522Y-162677717D01*
X129485038Y-163247198D01*
X129969342Y-163731502D01*
X130538823Y-164112018D01*
X131171596Y-164374121D01*
X131843345Y-164507740D01*
X132528255Y-164507740D01*
X133200004Y-164374121D01*
X133770917Y-164137641D01*
X133187212Y-165057413D01*
X131729021Y-167064440D01*
X130147686Y-168975946D01*
X128449447Y-170784387D01*
X126641006Y-172482626D01*
X124729500Y-174063961D01*
X122722473Y-175522152D01*
X120627846Y-176851443D01*
X118453885Y-178046588D01*
X116209170Y-179102870D01*
X113902560Y-180016122D01*
X111543159Y-180782738D01*
X109140277Y-181399693D01*
X106703397Y-181864553D01*
X104865872Y-182096686D01*
X104865872Y-180700740D01*
X104853612Y-180576258D01*
X104817302Y-180456560D01*
X104758337Y-180346246D01*
X104678985Y-180249555D01*
X104582294Y-180170203D01*
X104471980Y-180111238D01*
X104352282Y-180074928D01*
X104227800Y-180062668D01*
X102527800Y-180062668D01*
X102403318Y-180074928D01*
X102283620Y-180111238D01*
X102181656Y-180165740D01*
X101374605Y-180165740D01*
X101270958Y-180122808D01*
X100984060Y-180065740D01*
X100691540Y-180065740D01*
X100404642Y-180122808D01*
X100300995Y-180165740D01*
X98871485Y-180165740D01*
X89390801Y-170685056D01*
X89390801Y-155320932D01*
X89410801Y-155350864D01*
X89410800Y-157978711D01*
X89404100Y-158046740D01*
X89410800Y-158114769D01*
X89410800Y-158114776D01*
X89430840Y-158318246D01*
X89510036Y-158579320D01*
X89541670Y-158638502D01*
X89638644Y-158819928D01*
X89718128Y-158916779D01*
X89811719Y-159030820D01*
X89864565Y-159074190D01*
X96350566Y-165560192D01*
X96508611Y-165689896D01*
X96749219Y-165818503D01*
X97010292Y-165897699D01*
X97281799Y-165924440D01*
X97553306Y-165897699D01*
X97814380Y-165818503D01*
X98054987Y-165689896D01*
X98265881Y-165516821D01*
X98438956Y-165305927D01*
X98460386Y-165265835D01*
X98514791Y-165320241D01*
X98514792Y-168470868D01*
X98508091Y-168538907D01*
X98534831Y-168810414D01*
X98614027Y-169071487D01*
X98742635Y-169312095D01*
X98872339Y-169470140D01*
X98872342Y-169470143D01*
X98915711Y-169522988D01*
X98968555Y-169566356D01*
X100842174Y-171439976D01*
X100885543Y-171492821D01*
X100938388Y-171536190D01*
X100938390Y-171536192D01*
X101096436Y-171665897D01*
X101337043Y-171794504D01*
X101598117Y-171873700D01*
X101869624Y-171900441D01*
X101937661Y-171893740D01*
X103791667Y-171893740D01*
X103953349Y-171960711D01*
X104245078Y-172018740D01*
X104542522Y-172018740D01*
X104834251Y-171960711D01*
X105109053Y-171846884D01*
X105356369Y-171681633D01*
X105566693Y-171471309D01*
X105731944Y-171223993D01*
X105845771Y-170949191D01*
X105903800Y-170657462D01*
X105903800Y-170360018D01*
X105845771Y-170068289D01*
X105731944Y-169793487D01*
X105566693Y-169546171D01*
X105356369Y-169335847D01*
X105240970Y-169258740D01*
X105356369Y-169181633D01*
X105566693Y-168971309D01*
X105731944Y-168723993D01*
X105845771Y-168449191D01*
X105903800Y-168157462D01*
X105903800Y-167860018D01*
X105845771Y-167568289D01*
X105731944Y-167293487D01*
X105566693Y-167046171D01*
X105356369Y-166835847D01*
X105240970Y-166758740D01*
X105356369Y-166681633D01*
X105566693Y-166471309D01*
X105731944Y-166223993D01*
X105845771Y-165949191D01*
X105903800Y-165657462D01*
X105903800Y-165360018D01*
X105845771Y-165068289D01*
X105731944Y-164793487D01*
X105566693Y-164546171D01*
X105498236Y-164477714D01*
X105512980Y-164473242D01*
X105623294Y-164414277D01*
X105719985Y-164334925D01*
X105799337Y-164238234D01*
X105858302Y-164127920D01*
X105894612Y-164008222D01*
X105906872Y-163883740D01*
X105906872Y-162133740D01*
X105894612Y-162009258D01*
X105858302Y-161889560D01*
X105799337Y-161779246D01*
X105778800Y-161754222D01*
X105778800Y-161206213D01*
X105902958Y-161054927D01*
X106031565Y-160814320D01*
X106110761Y-160553246D01*
X106130801Y-160349776D01*
X106130801Y-160349768D01*
X106137501Y-160281739D01*
X106130801Y-160213710D01*
X106130801Y-155185838D01*
X107920800Y-155185838D01*
X107920800Y-155655642D01*
X108012454Y-156116419D01*
X108192240Y-156550461D01*
X108453250Y-156941089D01*
X108785451Y-157273290D01*
X109176079Y-157534300D01*
X109610121Y-157714086D01*
X110070898Y-157805740D01*
X110540702Y-157805740D01*
X111001479Y-157714086D01*
X111435521Y-157534300D01*
X111826149Y-157273290D01*
X112158350Y-156941089D01*
X112419360Y-156550461D01*
X112599146Y-156116419D01*
X112690800Y-155655642D01*
X112690800Y-155185838D01*
X112599146Y-154725061D01*
X112419360Y-154291019D01*
X112158350Y-153900391D01*
X111826149Y-153568190D01*
X111435521Y-153307180D01*
X111001479Y-153127394D01*
X110540702Y-153035740D01*
X110070898Y-153035740D01*
X109610121Y-153127394D01*
X109176079Y-153307180D01*
X108785451Y-153568190D01*
X108453250Y-153900391D01*
X108192240Y-154291019D01*
X108012454Y-154725061D01*
X107920800Y-155185838D01*
X106130801Y-155185838D01*
X106130801Y-137498770D01*
X106137501Y-137430741D01*
X106130801Y-137362712D01*
X106130801Y-137362704D01*
X106110761Y-137159234D01*
X106043157Y-136936372D01*
X106031565Y-136898160D01*
X105902958Y-136657553D01*
X105865442Y-136611840D01*
X105773253Y-136499507D01*
X105773251Y-136499505D01*
X105729882Y-136446660D01*
X105677037Y-136403291D01*
X100823255Y-131549510D01*
X100823251Y-131549505D01*
X100390413Y-131116667D01*
X100367968Y-131003828D01*
X100244718Y-130706277D01*
X100065787Y-130438488D01*
X99838052Y-130210753D01*
X99570263Y-130031822D01*
X99272712Y-129908572D01*
X98956833Y-129845740D01*
X98634767Y-129845740D01*
X98318888Y-129908572D01*
X98021337Y-130031822D01*
X97753548Y-130210753D01*
X97525813Y-130438488D01*
X97346882Y-130706277D01*
X97223632Y-131003828D01*
X97160800Y-131319707D01*
X97160800Y-131641773D01*
X97223632Y-131957652D01*
X97346882Y-132255203D01*
X97525813Y-132522992D01*
X97753548Y-132750727D01*
X98021337Y-132929658D01*
X98318888Y-133052908D01*
X98431727Y-133075353D01*
X98864565Y-133508191D01*
X98864570Y-133508195D01*
X103360802Y-138004428D01*
X103360802Y-140845076D01*
X103112977Y-140597251D01*
X102517618Y-140199445D01*
X101856090Y-139925431D01*
X101153816Y-139785740D01*
X100437784Y-139785740D01*
X99735510Y-139925431D01*
X99073982Y-140199445D01*
X98478623Y-140597251D01*
X97972311Y-141103563D01*
X97574505Y-141698922D01*
X97300491Y-142360450D01*
X97160800Y-143062724D01*
X97160800Y-143673056D01*
X92180800Y-138693057D01*
X92180800Y-132350863D01*
X92244718Y-132255203D01*
X92367968Y-131957652D01*
X92430800Y-131641773D01*
X92430800Y-131319707D01*
X92367968Y-131003828D01*
X92244718Y-130706277D01*
X92065787Y-130438488D01*
X91838052Y-130210753D01*
X91570263Y-130031822D01*
X91391463Y-129957760D01*
X92952121Y-128397102D01*
X92903788Y-128469438D01*
X92742847Y-128857984D01*
X92660800Y-129270461D01*
X92660800Y-129691019D01*
X92742847Y-130103496D01*
X92903788Y-130492042D01*
X93137437Y-130841723D01*
X93434817Y-131139103D01*
X93784498Y-131372752D01*
X94173044Y-131533693D01*
X94585521Y-131615740D01*
X95006079Y-131615740D01*
X95418556Y-131533693D01*
X95807102Y-131372752D01*
X96156783Y-131139103D01*
X96454163Y-130841723D01*
X96687812Y-130492042D01*
X96848753Y-130103496D01*
X96930800Y-129691019D01*
X96930800Y-129270461D01*
X96848753Y-128857984D01*
X96687812Y-128469438D01*
X96454163Y-128119757D01*
X96156783Y-127822377D01*
X95807102Y-127588728D01*
X95418556Y-127427787D01*
X95006079Y-127345740D01*
X94585521Y-127345740D01*
X94173044Y-127427787D01*
X93784498Y-127588728D01*
X93712162Y-127637061D01*
X100469484Y-120879740D01*
X103791667Y-120879740D01*
X103953349Y-120946711D01*
X104245078Y-121004740D01*
X104542522Y-121004740D01*
X104834251Y-120946711D01*
X104995933Y-120879740D01*
X107193771Y-120879740D01*
X107261800Y-120886440D01*
X107329829Y-120879740D01*
X107329837Y-120879740D01*
X107533307Y-120859700D01*
X107794381Y-120780504D01*
X108034988Y-120651897D01*
X108245881Y-120478821D01*
X108289254Y-120425971D01*
X110127036Y-118588190D01*
X110179881Y-118544821D01*
X110223446Y-118491738D01*
X110345523Y-118342986D01*
X110352957Y-118333928D01*
X110481564Y-118093321D01*
X110496899Y-118042769D01*
X110560760Y-117832248D01*
X110568024Y-117758493D01*
X110580800Y-117628777D01*
X110580800Y-117628770D01*
X110587500Y-117560741D01*
X110580800Y-117492712D01*
X110580800Y-113365740D01*
X113802728Y-113365740D01*
X113805800Y-113954990D01*
X113964550Y-114113740D01*
X115188800Y-114113740D01*
X115188800Y-112889490D01*
X115442800Y-112889490D01*
X115442800Y-114113740D01*
X116667050Y-114113740D01*
X116825800Y-113954990D01*
X116828872Y-113365740D01*
X116816612Y-113241258D01*
X116780302Y-113121560D01*
X116721337Y-113011246D01*
X116641985Y-112914555D01*
X116545294Y-112835203D01*
X116434980Y-112776238D01*
X116315282Y-112739928D01*
X116190800Y-112727668D01*
X115601550Y-112730740D01*
X115442800Y-112889490D01*
X115188800Y-112889490D01*
X115030050Y-112730740D01*
X114440800Y-112727668D01*
X114316318Y-112739928D01*
X114196620Y-112776238D01*
X114086306Y-112835203D01*
X113989615Y-112914555D01*
X113910263Y-113011246D01*
X113851298Y-113121560D01*
X113814988Y-113241258D01*
X113802728Y-113365740D01*
X110580800Y-113365740D01*
X110580800Y-110038768D01*
X110587500Y-109970739D01*
X110580800Y-109902710D01*
X110580800Y-109902703D01*
X110560760Y-109699233D01*
X110552113Y-109670726D01*
X110481564Y-109438159D01*
X110446605Y-109372755D01*
X110352957Y-109197552D01*
X110335972Y-109176856D01*
X110223252Y-109039506D01*
X110223245Y-109039499D01*
X110179880Y-108986659D01*
X110127041Y-108943295D01*
X108673254Y-107489509D01*
X108629881Y-107436659D01*
X108418988Y-107263583D01*
X108178381Y-107134976D01*
X107917307Y-107055780D01*
X107713837Y-107035740D01*
X107713829Y-107035740D01*
X107645800Y-107029040D01*
X107577771Y-107035740D01*
X105759486Y-107035740D01*
X104760800Y-106037055D01*
X104760800Y-105456884D01*
X104815302Y-105354920D01*
X104851612Y-105235222D01*
X104863872Y-105110740D01*
X104863872Y-103624541D01*
X106703397Y-103856927D01*
G37*
X106703397Y-103856927D02*
X109140277Y-104321787D01*
X111543159Y-104938742D01*
X113902560Y-105705358D01*
X116209170Y-106618610D01*
X118453885Y-107674892D01*
X120627846Y-108870037D01*
X122722473Y-110199328D01*
X124729500Y-111657519D01*
X126641006Y-113238854D01*
X128449447Y-114937093D01*
X130147686Y-116745534D01*
X131729021Y-118657040D01*
X133187212Y-120664067D01*
X133822573Y-121665235D01*
X133200004Y-121407359D01*
X132528255Y-121273740D01*
X131843345Y-121273740D01*
X131171596Y-121407359D01*
X130538823Y-121669462D01*
X129969342Y-122049978D01*
X129485038Y-122534282D01*
X129104522Y-123103763D01*
X128842419Y-123736536D01*
X128708800Y-124408285D01*
X128708800Y-125093195D01*
X128770564Y-125403704D01*
X122096602Y-118729743D01*
X122072799Y-118700739D01*
X121957074Y-118605766D01*
X121825045Y-118535194D01*
X121681784Y-118491737D01*
X121570131Y-118480740D01*
X121570120Y-118480740D01*
X121532798Y-118477064D01*
X121495476Y-118480740D01*
X119813964Y-118480740D01*
X119867026Y-118352638D01*
X119906800Y-118152679D01*
X119906800Y-117948801D01*
X119867026Y-117748842D01*
X119789005Y-117560484D01*
X119675737Y-117390966D01*
X119531574Y-117246803D01*
X119362056Y-117133535D01*
X119173698Y-117055514D01*
X118973739Y-117015740D01*
X118769861Y-117015740D01*
X118569902Y-117055514D01*
X118381544Y-117133535D01*
X118212026Y-117246803D01*
X118168089Y-117290740D01*
X116940602Y-117290740D01*
X116778270Y-117128408D01*
X116825800Y-116889462D01*
X116825800Y-116592018D01*
X116767771Y-116300289D01*
X116653944Y-116025487D01*
X116488693Y-115778171D01*
X116420236Y-115709714D01*
X116434980Y-115705242D01*
X116545294Y-115646277D01*
X116641985Y-115566925D01*
X116721337Y-115470234D01*
X116780302Y-115359920D01*
X116816612Y-115240222D01*
X116828872Y-115115740D01*
X116825800Y-114526490D01*
X116667050Y-114367740D01*
X115442800Y-114367740D01*
X115442800Y-114387740D01*
X115188800Y-114387740D01*
X115188800Y-114367740D01*
X113964550Y-114367740D01*
X113805800Y-114526490D01*
X113802728Y-115115740D01*
X113814988Y-115240222D01*
X113851298Y-115359920D01*
X113910263Y-115470234D01*
X113989615Y-115566925D01*
X114086306Y-115646277D01*
X114196620Y-115705242D01*
X114211364Y-115709714D01*
X114142907Y-115778171D01*
X113977656Y-116025487D01*
X113863829Y-116300289D01*
X113805800Y-116592018D01*
X113805800Y-116889462D01*
X113863829Y-117181191D01*
X113977656Y-117455993D01*
X114142907Y-117703309D01*
X114353231Y-117913633D01*
X114468630Y-117990740D01*
X114353231Y-118067847D01*
X114142907Y-118278171D01*
X113977656Y-118525487D01*
X113863829Y-118800289D01*
X113805800Y-119092018D01*
X113805800Y-119389462D01*
X113863829Y-119681191D01*
X113977656Y-119955993D01*
X114142907Y-120203309D01*
X114353231Y-120413633D01*
X114468630Y-120490740D01*
X114353231Y-120567847D01*
X114142907Y-120778171D01*
X113977656Y-121025487D01*
X113863829Y-121300289D01*
X113805800Y-121592018D01*
X113805800Y-121889462D01*
X113863829Y-122181191D01*
X113977656Y-122455993D01*
X114142907Y-122703309D01*
X114353231Y-122913633D01*
X114555800Y-123048985D01*
X114555801Y-143159407D01*
X114552124Y-143196740D01*
X114566798Y-143345725D01*
X114610254Y-143488986D01*
X114680826Y-143621016D01*
X114752001Y-143707742D01*
X114775800Y-143736741D01*
X114804798Y-143760539D01*
X115550800Y-144506542D01*
X115550800Y-144568679D01*
X115590574Y-144768638D01*
X115668595Y-144956996D01*
X115781863Y-145126514D01*
X115926026Y-145270677D01*
X116095544Y-145383945D01*
X116283902Y-145461966D01*
X116483861Y-145501740D01*
X116687739Y-145501740D01*
X116887698Y-145461966D01*
X117076056Y-145383945D01*
X117245574Y-145270677D01*
X117389737Y-145126514D01*
X117503005Y-144956996D01*
X117581026Y-144768638D01*
X117620800Y-144568679D01*
X117620800Y-144364801D01*
X117581026Y-144164842D01*
X117503005Y-143976484D01*
X117389737Y-143806966D01*
X117245574Y-143662803D01*
X117076056Y-143549535D01*
X116887698Y-143471514D01*
X116687739Y-143431740D01*
X116625602Y-143431740D01*
X116075800Y-142881939D01*
X116075800Y-123048985D01*
X116278369Y-122913633D01*
X116488693Y-122703309D01*
X116653944Y-122455993D01*
X116767771Y-122181191D01*
X116825800Y-121889462D01*
X116825800Y-121592018D01*
X116767771Y-121300289D01*
X116653944Y-121025487D01*
X116488693Y-120778171D01*
X116278369Y-120567847D01*
X116162970Y-120490740D01*
X116278369Y-120413633D01*
X116488693Y-120203309D01*
X116624045Y-120000740D01*
X117921209Y-120000740D01*
X117880574Y-120098842D01*
X117840800Y-120298801D01*
X117840800Y-120502679D01*
X117880574Y-120702638D01*
X117958595Y-120890996D01*
X118071863Y-121060514D01*
X118111800Y-121100451D01*
X118111800Y-121390073D01*
X118111801Y-121390083D01*
X118111800Y-139699029D01*
X118067863Y-139742966D01*
X117954595Y-139912484D01*
X117876574Y-140100842D01*
X117836800Y-140300801D01*
X117836800Y-140504679D01*
X117876574Y-140704638D01*
X117954595Y-140892996D01*
X118067863Y-141062514D01*
X118212026Y-141206677D01*
X118381544Y-141319945D01*
X118569902Y-141397966D01*
X118769861Y-141437740D01*
X118973739Y-141437740D01*
X119173698Y-141397966D01*
X119362056Y-141319945D01*
X119531574Y-141206677D01*
X119675737Y-141062514D01*
X119789005Y-140892996D01*
X119867026Y-140704638D01*
X119906800Y-140504679D01*
X119906800Y-140300801D01*
X119867026Y-140100842D01*
X119789005Y-139912484D01*
X119675737Y-139742966D01*
X119631800Y-139699029D01*
X119631800Y-129270461D01*
X123660800Y-129270461D01*
X123660800Y-129691019D01*
X123742847Y-130103496D01*
X123903788Y-130492042D01*
X124137437Y-130841723D01*
X124434817Y-131139103D01*
X124784498Y-131372752D01*
X125173044Y-131533693D01*
X125585521Y-131615740D01*
X126006079Y-131615740D01*
X126418556Y-131533693D01*
X126807102Y-131372752D01*
X127156783Y-131139103D01*
X127454163Y-130841723D01*
X127687812Y-130492042D01*
X127848753Y-130103496D01*
X127930800Y-129691019D01*
X127930800Y-129270461D01*
X127848753Y-128857984D01*
X127687812Y-128469438D01*
X127454163Y-128119757D01*
X127156783Y-127822377D01*
X126807102Y-127588728D01*
X126418556Y-127427787D01*
X126006079Y-127345740D01*
X125585521Y-127345740D01*
X125173044Y-127427787D01*
X124784498Y-127588728D01*
X124434817Y-127822377D01*
X124137437Y-128119757D01*
X123903788Y-128469438D01*
X123742847Y-128857984D01*
X123660800Y-129270461D01*
X119631800Y-129270461D01*
X119631800Y-121108451D01*
X119679737Y-121060514D01*
X119793005Y-120890996D01*
X119871026Y-120702638D01*
X119910800Y-120502679D01*
X119910800Y-120298801D01*
X119871026Y-120098842D01*
X119830391Y-120000740D01*
X121217997Y-120000740D01*
X131827801Y-130610545D01*
X131827800Y-139953029D01*
X131783863Y-139996966D01*
X131670595Y-140166484D01*
X131592574Y-140354842D01*
X131552800Y-140554801D01*
X131552800Y-140758679D01*
X131592574Y-140958638D01*
X131670595Y-141146996D01*
X131783863Y-141316514D01*
X131928026Y-141460677D01*
X132097544Y-141573945D01*
X132285902Y-141651966D01*
X132485861Y-141691740D01*
X132689739Y-141691740D01*
X132889698Y-141651966D01*
X133078056Y-141573945D01*
X133247574Y-141460677D01*
X133391737Y-141316514D01*
X133505005Y-141146996D01*
X133583026Y-140958638D01*
X133622800Y-140758679D01*
X133622800Y-140554801D01*
X133583026Y-140354842D01*
X133505005Y-140166484D01*
X133391737Y-139996966D01*
X133347800Y-139953029D01*
X133347800Y-135783272D01*
X133453250Y-135941089D01*
X133785451Y-136273290D01*
X134176079Y-136534300D01*
X134610121Y-136714086D01*
X135070898Y-136805740D01*
X135540702Y-136805740D01*
X136001479Y-136714086D01*
X136435521Y-136534300D01*
X136826149Y-136273290D01*
X137158350Y-135941089D01*
X137419360Y-135550461D01*
X137599146Y-135116419D01*
X137690800Y-134655642D01*
X137690800Y-134185838D01*
X137599146Y-133725061D01*
X137419360Y-133291019D01*
X137158350Y-132900391D01*
X136826149Y-132568190D01*
X136435521Y-132307180D01*
X136001479Y-132127394D01*
X135540702Y-132035740D01*
X135070898Y-132035740D01*
X134610121Y-132127394D01*
X134176079Y-132307180D01*
X133785451Y-132568190D01*
X133453250Y-132900391D01*
X133347800Y-133058208D01*
X133347800Y-130333067D01*
X133351476Y-130295742D01*
X133347800Y-130258417D01*
X133347800Y-130258409D01*
X133336803Y-130146756D01*
X133293346Y-130003495D01*
X133222774Y-129871466D01*
X133127801Y-129755741D01*
X133098803Y-129731943D01*
X131532836Y-128165976D01*
X131843345Y-128227740D01*
X132528255Y-128227740D01*
X133200004Y-128094121D01*
X133832777Y-127832018D01*
X134402258Y-127451502D01*
X134886562Y-126967198D01*
X135267078Y-126397717D01*
X135529181Y-125764944D01*
X135662800Y-125093195D01*
X135662800Y-124843801D01*
X135711648Y-124932655D01*
X136767930Y-127177370D01*
X137681182Y-129483980D01*
X138447798Y-131843381D01*
X139064753Y-134246263D01*
X139529613Y-136683143D01*
X139840542Y-139144403D01*
X139996314Y-141620329D01*
X139996314Y-144101151D01*
X139840542Y-146577077D01*
X139529613Y-149038337D01*
X139064753Y-151475217D01*
X138447798Y-153878099D01*
X137681182Y-156237500D01*
X136767930Y-158544110D01*
X135711648Y-160788825D01*
X135662800Y-160877679D01*
X135662800Y-160688285D01*
X135529181Y-160016536D01*
X135267078Y-159383763D01*
X134886562Y-158814282D01*
X134402258Y-158329978D01*
X133832777Y-157949462D01*
X133200004Y-157687359D01*
X132528255Y-157553740D01*
X131843345Y-157553740D01*
X131171596Y-157687359D01*
X131137306Y-157701562D01*
X131160760Y-157624245D01*
X131180800Y-157420775D01*
X131187501Y-157352738D01*
X131180800Y-157284701D01*
X131180800Y-155350863D01*
X131244718Y-155255203D01*
X131367968Y-154957652D01*
X131430800Y-154641773D01*
X131430800Y-154319707D01*
X131367968Y-154003828D01*
X131244718Y-153706277D01*
X131065787Y-153438488D01*
X130838052Y-153210753D01*
X130570263Y-153031822D01*
X130272712Y-152908572D01*
X129956833Y-152845740D01*
X129634767Y-152845740D01*
X129318888Y-152908572D01*
X129021337Y-153031822D01*
X128753548Y-153210753D01*
X128525813Y-153438488D01*
X128346882Y-153706277D01*
X128223632Y-154003828D01*
X128160800Y-154319707D01*
X128160800Y-154641773D01*
X128223632Y-154957652D01*
X128346882Y-155255203D01*
X128410800Y-155350863D01*
X128410801Y-156779051D01*
X127667679Y-157522173D01*
X127687812Y-157492042D01*
X127848753Y-157103496D01*
X127930800Y-156691019D01*
X127930800Y-156270461D01*
X127848753Y-155857984D01*
X127687812Y-155469438D01*
X127454163Y-155119757D01*
X127156783Y-154822377D01*
X126807102Y-154588728D01*
X126418556Y-154427787D01*
X126006079Y-154345740D01*
X125585521Y-154345740D01*
X125173044Y-154427787D01*
X124784498Y-154588728D01*
X124434817Y-154822377D01*
X124137437Y-155119757D01*
X123903788Y-155469438D01*
X123742847Y-155857984D01*
X123660800Y-156270461D01*
X123660800Y-156691019D01*
X123742847Y-157103496D01*
X123903788Y-157492042D01*
X124137437Y-157841723D01*
X124434817Y-158139103D01*
X124784498Y-158372752D01*
X125173044Y-158533693D01*
X125585521Y-158615740D01*
X126006079Y-158615740D01*
X126418556Y-158533693D01*
X126807102Y-158372752D01*
X126837233Y-158352619D01*
X123296247Y-161893605D01*
X123311500Y-161738739D01*
X123284759Y-161467233D01*
X123205563Y-161206159D01*
X123180800Y-161159831D01*
X123180800Y-155350863D01*
X123244718Y-155255203D01*
X123367968Y-154957652D01*
X123430800Y-154641773D01*
X123430800Y-154319707D01*
X123367968Y-154003828D01*
X123244718Y-153706277D01*
X123065787Y-153438488D01*
X122838052Y-153210753D01*
X122570263Y-153031822D01*
X122467832Y-152989393D01*
X126153036Y-149304190D01*
X126205881Y-149260821D01*
X126378957Y-149049928D01*
X126507564Y-148809321D01*
X126586760Y-148548247D01*
X126606800Y-148344777D01*
X126613501Y-148276740D01*
X126606800Y-148208703D01*
X126606800Y-145424230D01*
X126697902Y-145461966D01*
X126897861Y-145501740D01*
X127101739Y-145501740D01*
X127301698Y-145461966D01*
X127490056Y-145383945D01*
X127659574Y-145270677D01*
X127803737Y-145126514D01*
X127906485Y-144972740D01*
X130614089Y-144972740D01*
X130658026Y-145016677D01*
X130827544Y-145129945D01*
X131015902Y-145207966D01*
X131215861Y-145247740D01*
X131419739Y-145247740D01*
X131619698Y-145207966D01*
X131808056Y-145129945D01*
X131977574Y-145016677D01*
X132121737Y-144872514D01*
X132235005Y-144702996D01*
X132313026Y-144514638D01*
X132352800Y-144314679D01*
X132352800Y-144110801D01*
X132313026Y-143910842D01*
X132235005Y-143722484D01*
X132121737Y-143552966D01*
X131977574Y-143408803D01*
X131808056Y-143295535D01*
X131619698Y-143217514D01*
X131419739Y-143177740D01*
X131215861Y-143177740D01*
X131015902Y-143217514D01*
X130827544Y-143295535D01*
X130658026Y-143408803D01*
X130614089Y-143452740D01*
X127291122Y-143452740D01*
X127253799Y-143449064D01*
X127216476Y-143452740D01*
X127216467Y-143452740D01*
X127210345Y-143453343D01*
X127101739Y-143431740D01*
X126897861Y-143431740D01*
X126697902Y-143471514D01*
X126606800Y-143509250D01*
X126606800Y-138042638D01*
X130727036Y-133922403D01*
X130779881Y-133879034D01*
X130952957Y-133668141D01*
X131081564Y-133427534D01*
X131160760Y-133166460D01*
X131180800Y-132962990D01*
X131180800Y-132962982D01*
X131187500Y-132894953D01*
X131180800Y-132826924D01*
X131180800Y-132350863D01*
X131244718Y-132255203D01*
X131367968Y-131957652D01*
X131430800Y-131641773D01*
X131430800Y-131319707D01*
X131367968Y-131003828D01*
X131244718Y-130706277D01*
X131065787Y-130438488D01*
X130838052Y-130210753D01*
X130570263Y-130031822D01*
X130272712Y-129908572D01*
X129956833Y-129845740D01*
X129634767Y-129845740D01*
X129318888Y-129908572D01*
X129021337Y-130031822D01*
X128753548Y-130210753D01*
X128525813Y-130438488D01*
X128346882Y-130706277D01*
X128223632Y-131003828D01*
X128160800Y-131319707D01*
X128160800Y-131641773D01*
X128223632Y-131957652D01*
X128346882Y-132255203D01*
X128398946Y-132333122D01*
X124290565Y-136441503D01*
X124237719Y-136484873D01*
X124064643Y-136695766D01*
X123936036Y-136936373D01*
X123856840Y-137197447D01*
X123836800Y-137400917D01*
X123836800Y-137400924D01*
X123830100Y-137468953D01*
X123836800Y-137536982D01*
X123836801Y-147703053D01*
X123180800Y-148359054D01*
X123180800Y-132350863D01*
X123244718Y-132255203D01*
X123367968Y-131957652D01*
X123430800Y-131641773D01*
X123430800Y-131319707D01*
X123367968Y-131003828D01*
X123244718Y-130706277D01*
X123065787Y-130438488D01*
X122838052Y-130210753D01*
X122570263Y-130031822D01*
X122272712Y-129908572D01*
X121956833Y-129845740D01*
X121634767Y-129845740D01*
X121318888Y-129908572D01*
X121021337Y-130031822D01*
X120753548Y-130210753D01*
X120525813Y-130438488D01*
X120346882Y-130706277D01*
X120223632Y-131003828D01*
X120160800Y-131319707D01*
X120160800Y-131641773D01*
X120223632Y-131957652D01*
X120346882Y-132255203D01*
X120410800Y-132350863D01*
X120410801Y-148724877D01*
X117214554Y-151921124D01*
X117161708Y-151964494D01*
X117118339Y-152017339D01*
X117118337Y-152017341D01*
X116988633Y-152175386D01*
X116860025Y-152415994D01*
X116783380Y-152668660D01*
X116780829Y-152677068D01*
X116760789Y-152880538D01*
X116760789Y-152880545D01*
X116754089Y-152948574D01*
X116760789Y-153016603D01*
X116760790Y-161623740D01*
X116570318Y-161623740D01*
X116545294Y-161603203D01*
X116434980Y-161544238D01*
X116315282Y-161507928D01*
X116190800Y-161495668D01*
X114440800Y-161495668D01*
X114316318Y-161507928D01*
X114196620Y-161544238D01*
X114086306Y-161603203D01*
X113989615Y-161682555D01*
X113910263Y-161779246D01*
X113851298Y-161889560D01*
X113814988Y-162009258D01*
X113802728Y-162133740D01*
X113802728Y-163883740D01*
X113814988Y-164008222D01*
X113851298Y-164127920D01*
X113910263Y-164238234D01*
X113989615Y-164334925D01*
X114086306Y-164414277D01*
X114196620Y-164473242D01*
X114211364Y-164477714D01*
X114142907Y-164546171D01*
X113977656Y-164793487D01*
X113863829Y-165068289D01*
X113805800Y-165360018D01*
X113805800Y-165657462D01*
X113863829Y-165949191D01*
X113977656Y-166223993D01*
X114142907Y-166471309D01*
X114353231Y-166681633D01*
X114468630Y-166758740D01*
X114353231Y-166835847D01*
X114142907Y-167046171D01*
X113977656Y-167293487D01*
X113863829Y-167568289D01*
X113805800Y-167860018D01*
X113805800Y-168157462D01*
X113863829Y-168449191D01*
X113977656Y-168723993D01*
X114142907Y-168971309D01*
X114353231Y-169181633D01*
X114468630Y-169258740D01*
X114353231Y-169335847D01*
X114142907Y-169546171D01*
X113977656Y-169793487D01*
X113863829Y-170068289D01*
X113805800Y-170360018D01*
X113805800Y-170657462D01*
X113863829Y-170949191D01*
X113977656Y-171223993D01*
X114142907Y-171471309D01*
X114353231Y-171681633D01*
X114600547Y-171846884D01*
X114875349Y-171960711D01*
X115167078Y-172018740D01*
X115464522Y-172018740D01*
X115756251Y-171960711D01*
X115917933Y-171893740D01*
X119939771Y-171893740D01*
X120007800Y-171900440D01*
X120075829Y-171893740D01*
X120075837Y-171893740D01*
X120279307Y-171873700D01*
X120540381Y-171794504D01*
X120780988Y-171665897D01*
X120991881Y-171492821D01*
X121035254Y-171439971D01*
X122947252Y-169527974D01*
X123076956Y-169369929D01*
X123205563Y-169129322D01*
X123284759Y-168868248D01*
X123311500Y-168596741D01*
X123284759Y-168325234D01*
X123205563Y-168064160D01*
X123076956Y-167823553D01*
X122903880Y-167612660D01*
X122692987Y-167439584D01*
X122452380Y-167310977D01*
X122191306Y-167231781D01*
X121919799Y-167205040D01*
X121900259Y-167206965D01*
X128780773Y-160326451D01*
X128708800Y-160688285D01*
X128708800Y-161373195D01*
X128842419Y-162044944D01*
X129104522Y-162677717D01*
X129485038Y-163247198D01*
X129969342Y-163731502D01*
X130538823Y-164112018D01*
X131171596Y-164374121D01*
X131843345Y-164507740D01*
X132528255Y-164507740D01*
X133200004Y-164374121D01*
X133770917Y-164137641D01*
X133187212Y-165057413D01*
X131729021Y-167064440D01*
X130147686Y-168975946D01*
X128449447Y-170784387D01*
X126641006Y-172482626D01*
X124729500Y-174063961D01*
X122722473Y-175522152D01*
X120627846Y-176851443D01*
X118453885Y-178046588D01*
X116209170Y-179102870D01*
X113902560Y-180016122D01*
X111543159Y-180782738D01*
X109140277Y-181399693D01*
X106703397Y-181864553D01*
X104865872Y-182096686D01*
X104865872Y-180700740D01*
X104853612Y-180576258D01*
X104817302Y-180456560D01*
X104758337Y-180346246D01*
X104678985Y-180249555D01*
X104582294Y-180170203D01*
X104471980Y-180111238D01*
X104352282Y-180074928D01*
X104227800Y-180062668D01*
X102527800Y-180062668D01*
X102403318Y-180074928D01*
X102283620Y-180111238D01*
X102181656Y-180165740D01*
X101374605Y-180165740D01*
X101270958Y-180122808D01*
X100984060Y-180065740D01*
X100691540Y-180065740D01*
X100404642Y-180122808D01*
X100300995Y-180165740D01*
X98871485Y-180165740D01*
X89390801Y-170685056D01*
X89390801Y-155320932D01*
X89410801Y-155350864D01*
X89410800Y-157978711D01*
X89404100Y-158046740D01*
X89410800Y-158114769D01*
X89410800Y-158114776D01*
X89430840Y-158318246D01*
X89510036Y-158579320D01*
X89541670Y-158638502D01*
X89638644Y-158819928D01*
X89718128Y-158916779D01*
X89811719Y-159030820D01*
X89864565Y-159074190D01*
X96350566Y-165560192D01*
X96508611Y-165689896D01*
X96749219Y-165818503D01*
X97010292Y-165897699D01*
X97281799Y-165924440D01*
X97553306Y-165897699D01*
X97814380Y-165818503D01*
X98054987Y-165689896D01*
X98265881Y-165516821D01*
X98438956Y-165305927D01*
X98460386Y-165265835D01*
X98514791Y-165320241D01*
X98514792Y-168470868D01*
X98508091Y-168538907D01*
X98534831Y-168810414D01*
X98614027Y-169071487D01*
X98742635Y-169312095D01*
X98872339Y-169470140D01*
X98872342Y-169470143D01*
X98915711Y-169522988D01*
X98968555Y-169566356D01*
X100842174Y-171439976D01*
X100885543Y-171492821D01*
X100938388Y-171536190D01*
X100938390Y-171536192D01*
X101096436Y-171665897D01*
X101337043Y-171794504D01*
X101598117Y-171873700D01*
X101869624Y-171900441D01*
X101937661Y-171893740D01*
X103791667Y-171893740D01*
X103953349Y-171960711D01*
X104245078Y-172018740D01*
X104542522Y-172018740D01*
X104834251Y-171960711D01*
X105109053Y-171846884D01*
X105356369Y-171681633D01*
X105566693Y-171471309D01*
X105731944Y-171223993D01*
X105845771Y-170949191D01*
X105903800Y-170657462D01*
X105903800Y-170360018D01*
X105845771Y-170068289D01*
X105731944Y-169793487D01*
X105566693Y-169546171D01*
X105356369Y-169335847D01*
X105240970Y-169258740D01*
X105356369Y-169181633D01*
X105566693Y-168971309D01*
X105731944Y-168723993D01*
X105845771Y-168449191D01*
X105903800Y-168157462D01*
X105903800Y-167860018D01*
X105845771Y-167568289D01*
X105731944Y-167293487D01*
X105566693Y-167046171D01*
X105356369Y-166835847D01*
X105240970Y-166758740D01*
X105356369Y-166681633D01*
X105566693Y-166471309D01*
X105731944Y-166223993D01*
X105845771Y-165949191D01*
X105903800Y-165657462D01*
X105903800Y-165360018D01*
X105845771Y-165068289D01*
X105731944Y-164793487D01*
X105566693Y-164546171D01*
X105498236Y-164477714D01*
X105512980Y-164473242D01*
X105623294Y-164414277D01*
X105719985Y-164334925D01*
X105799337Y-164238234D01*
X105858302Y-164127920D01*
X105894612Y-164008222D01*
X105906872Y-163883740D01*
X105906872Y-162133740D01*
X105894612Y-162009258D01*
X105858302Y-161889560D01*
X105799337Y-161779246D01*
X105778800Y-161754222D01*
X105778800Y-161206213D01*
X105902958Y-161054927D01*
X106031565Y-160814320D01*
X106110761Y-160553246D01*
X106130801Y-160349776D01*
X106130801Y-160349768D01*
X106137501Y-160281739D01*
X106130801Y-160213710D01*
X106130801Y-155185838D01*
X107920800Y-155185838D01*
X107920800Y-155655642D01*
X108012454Y-156116419D01*
X108192240Y-156550461D01*
X108453250Y-156941089D01*
X108785451Y-157273290D01*
X109176079Y-157534300D01*
X109610121Y-157714086D01*
X110070898Y-157805740D01*
X110540702Y-157805740D01*
X111001479Y-157714086D01*
X111435521Y-157534300D01*
X111826149Y-157273290D01*
X112158350Y-156941089D01*
X112419360Y-156550461D01*
X112599146Y-156116419D01*
X112690800Y-155655642D01*
X112690800Y-155185838D01*
X112599146Y-154725061D01*
X112419360Y-154291019D01*
X112158350Y-153900391D01*
X111826149Y-153568190D01*
X111435521Y-153307180D01*
X111001479Y-153127394D01*
X110540702Y-153035740D01*
X110070898Y-153035740D01*
X109610121Y-153127394D01*
X109176079Y-153307180D01*
X108785451Y-153568190D01*
X108453250Y-153900391D01*
X108192240Y-154291019D01*
X108012454Y-154725061D01*
X107920800Y-155185838D01*
X106130801Y-155185838D01*
X106130801Y-137498770D01*
X106137501Y-137430741D01*
X106130801Y-137362712D01*
X106130801Y-137362704D01*
X106110761Y-137159234D01*
X106043157Y-136936372D01*
X106031565Y-136898160D01*
X105902958Y-136657553D01*
X105865442Y-136611840D01*
X105773253Y-136499507D01*
X105773251Y-136499505D01*
X105729882Y-136446660D01*
X105677037Y-136403291D01*
X100823255Y-131549510D01*
X100823251Y-131549505D01*
X100390413Y-131116667D01*
X100367968Y-131003828D01*
X100244718Y-130706277D01*
X100065787Y-130438488D01*
X99838052Y-130210753D01*
X99570263Y-130031822D01*
X99272712Y-129908572D01*
X98956833Y-129845740D01*
X98634767Y-129845740D01*
X98318888Y-129908572D01*
X98021337Y-130031822D01*
X97753548Y-130210753D01*
X97525813Y-130438488D01*
X97346882Y-130706277D01*
X97223632Y-131003828D01*
X97160800Y-131319707D01*
X97160800Y-131641773D01*
X97223632Y-131957652D01*
X97346882Y-132255203D01*
X97525813Y-132522992D01*
X97753548Y-132750727D01*
X98021337Y-132929658D01*
X98318888Y-133052908D01*
X98431727Y-133075353D01*
X98864565Y-133508191D01*
X98864570Y-133508195D01*
X103360802Y-138004428D01*
X103360802Y-140845076D01*
X103112977Y-140597251D01*
X102517618Y-140199445D01*
X101856090Y-139925431D01*
X101153816Y-139785740D01*
X100437784Y-139785740D01*
X99735510Y-139925431D01*
X99073982Y-140199445D01*
X98478623Y-140597251D01*
X97972311Y-141103563D01*
X97574505Y-141698922D01*
X97300491Y-142360450D01*
X97160800Y-143062724D01*
X97160800Y-143673056D01*
X92180800Y-138693057D01*
X92180800Y-132350863D01*
X92244718Y-132255203D01*
X92367968Y-131957652D01*
X92430800Y-131641773D01*
X92430800Y-131319707D01*
X92367968Y-131003828D01*
X92244718Y-130706277D01*
X92065787Y-130438488D01*
X91838052Y-130210753D01*
X91570263Y-130031822D01*
X91391463Y-129957760D01*
X92952121Y-128397102D01*
X92903788Y-128469438D01*
X92742847Y-128857984D01*
X92660800Y-129270461D01*
X92660800Y-129691019D01*
X92742847Y-130103496D01*
X92903788Y-130492042D01*
X93137437Y-130841723D01*
X93434817Y-131139103D01*
X93784498Y-131372752D01*
X94173044Y-131533693D01*
X94585521Y-131615740D01*
X95006079Y-131615740D01*
X95418556Y-131533693D01*
X95807102Y-131372752D01*
X96156783Y-131139103D01*
X96454163Y-130841723D01*
X96687812Y-130492042D01*
X96848753Y-130103496D01*
X96930800Y-129691019D01*
X96930800Y-129270461D01*
X96848753Y-128857984D01*
X96687812Y-128469438D01*
X96454163Y-128119757D01*
X96156783Y-127822377D01*
X95807102Y-127588728D01*
X95418556Y-127427787D01*
X95006079Y-127345740D01*
X94585521Y-127345740D01*
X94173044Y-127427787D01*
X93784498Y-127588728D01*
X93712162Y-127637061D01*
X100469484Y-120879740D01*
X103791667Y-120879740D01*
X103953349Y-120946711D01*
X104245078Y-121004740D01*
X104542522Y-121004740D01*
X104834251Y-120946711D01*
X104995933Y-120879740D01*
X107193771Y-120879740D01*
X107261800Y-120886440D01*
X107329829Y-120879740D01*
X107329837Y-120879740D01*
X107533307Y-120859700D01*
X107794381Y-120780504D01*
X108034988Y-120651897D01*
X108245881Y-120478821D01*
X108289254Y-120425971D01*
X110127036Y-118588190D01*
X110179881Y-118544821D01*
X110223446Y-118491738D01*
X110345523Y-118342986D01*
X110352957Y-118333928D01*
X110481564Y-118093321D01*
X110496899Y-118042769D01*
X110560760Y-117832248D01*
X110568024Y-117758493D01*
X110580800Y-117628777D01*
X110580800Y-117628770D01*
X110587500Y-117560741D01*
X110580800Y-117492712D01*
X110580800Y-113365740D01*
X113802728Y-113365740D01*
X113805800Y-113954990D01*
X113964550Y-114113740D01*
X115188800Y-114113740D01*
X115188800Y-112889490D01*
X115442800Y-112889490D01*
X115442800Y-114113740D01*
X116667050Y-114113740D01*
X116825800Y-113954990D01*
X116828872Y-113365740D01*
X116816612Y-113241258D01*
X116780302Y-113121560D01*
X116721337Y-113011246D01*
X116641985Y-112914555D01*
X116545294Y-112835203D01*
X116434980Y-112776238D01*
X116315282Y-112739928D01*
X116190800Y-112727668D01*
X115601550Y-112730740D01*
X115442800Y-112889490D01*
X115188800Y-112889490D01*
X115030050Y-112730740D01*
X114440800Y-112727668D01*
X114316318Y-112739928D01*
X114196620Y-112776238D01*
X114086306Y-112835203D01*
X113989615Y-112914555D01*
X113910263Y-113011246D01*
X113851298Y-113121560D01*
X113814988Y-113241258D01*
X113802728Y-113365740D01*
X110580800Y-113365740D01*
X110580800Y-110038768D01*
X110587500Y-109970739D01*
X110580800Y-109902710D01*
X110580800Y-109902703D01*
X110560760Y-109699233D01*
X110552113Y-109670726D01*
X110481564Y-109438159D01*
X110446605Y-109372755D01*
X110352957Y-109197552D01*
X110335972Y-109176856D01*
X110223252Y-109039506D01*
X110223245Y-109039499D01*
X110179880Y-108986659D01*
X110127041Y-108943295D01*
X108673254Y-107489509D01*
X108629881Y-107436659D01*
X108418988Y-107263583D01*
X108178381Y-107134976D01*
X107917307Y-107055780D01*
X107713837Y-107035740D01*
X107713829Y-107035740D01*
X107645800Y-107029040D01*
X107577771Y-107035740D01*
X105759486Y-107035740D01*
X104760800Y-106037055D01*
X104760800Y-105456884D01*
X104815302Y-105354920D01*
X104851612Y-105235222D01*
X104863872Y-105110740D01*
X104863872Y-103624541D01*
X106703397Y-103856927D01*
G36*
X103360801Y-159709266D02*
G01*
X103236644Y-159860552D01*
X103108036Y-160101160D01*
X103028840Y-160362233D01*
X103002100Y-160633740D01*
X103008801Y-160701779D01*
X103008801Y-161754221D01*
X102988263Y-161779246D01*
X102929298Y-161889560D01*
X102892988Y-162009258D01*
X102880728Y-162133740D01*
X102880728Y-163274419D01*
X102130801Y-162524492D01*
X102130801Y-149284769D01*
X102137501Y-149216742D01*
X102130801Y-149148715D01*
X102130801Y-149148706D01*
X102110761Y-148945236D01*
X102031565Y-148684162D01*
X101902958Y-148443555D01*
X101729882Y-148232662D01*
X101677037Y-148189293D01*
X100543484Y-147055740D01*
X101153816Y-147055740D01*
X101856090Y-146916049D01*
X102517618Y-146642035D01*
X103112977Y-146244229D01*
X103360802Y-145996404D01*
X103360801Y-159709266D01*
G37*
X103360801Y-159709266D02*
X103236644Y-159860552D01*
X103108036Y-160101160D01*
X103028840Y-160362233D01*
X103002100Y-160633740D01*
X103008801Y-160701779D01*
X103008801Y-161754221D01*
X102988263Y-161779246D01*
X102929298Y-161889560D01*
X102892988Y-162009258D01*
X102880728Y-162133740D01*
X102880728Y-163274419D01*
X102130801Y-162524492D01*
X102130801Y-149284769D01*
X102137501Y-149216742D01*
X102130801Y-149148715D01*
X102130801Y-149148706D01*
X102110761Y-148945236D01*
X102031565Y-148684162D01*
X101902958Y-148443555D01*
X101729882Y-148232662D01*
X101677037Y-148189293D01*
X100543484Y-147055740D01*
X101153816Y-147055740D01*
X101856090Y-146916049D01*
X102517618Y-146642035D01*
X103112977Y-146244229D01*
X103360802Y-145996404D01*
X103360801Y-159709266D01*
G36*
X89410800Y-132350863D02*
G01*
X89410800Y-132962989D01*
X89410801Y-132962999D01*
X89410800Y-139198713D01*
X89404100Y-139266742D01*
X89410800Y-139334771D01*
X89410800Y-139334778D01*
X89430840Y-139538248D01*
X89510036Y-139799322D01*
X89638643Y-140039929D01*
X89811719Y-140250822D01*
X89864565Y-140294192D01*
X99360802Y-149790430D01*
X99360802Y-152945060D01*
X99272712Y-152908572D01*
X98956833Y-152845740D01*
X98634767Y-152845740D01*
X98318888Y-152908572D01*
X98021337Y-153031822D01*
X97753548Y-153210753D01*
X97525813Y-153438488D01*
X97346882Y-153706277D01*
X97223632Y-154003828D01*
X97160800Y-154319707D01*
X97160800Y-154641773D01*
X97223632Y-154957652D01*
X97346882Y-155255203D01*
X97410800Y-155350863D01*
X97410801Y-162703055D01*
X92180800Y-157473055D01*
X92180800Y-156270461D01*
X92660800Y-156270461D01*
X92660800Y-156691019D01*
X92742847Y-157103496D01*
X92903788Y-157492042D01*
X93137437Y-157841723D01*
X93434817Y-158139103D01*
X93784498Y-158372752D01*
X94173044Y-158533693D01*
X94585521Y-158615740D01*
X95006079Y-158615740D01*
X95418556Y-158533693D01*
X95807102Y-158372752D01*
X96156783Y-158139103D01*
X96454163Y-157841723D01*
X96687812Y-157492042D01*
X96848753Y-157103496D01*
X96930800Y-156691019D01*
X96930800Y-156270461D01*
X96848753Y-155857984D01*
X96687812Y-155469438D01*
X96454163Y-155119757D01*
X96156783Y-154822377D01*
X95807102Y-154588728D01*
X95418556Y-154427787D01*
X95006079Y-154345740D01*
X94585521Y-154345740D01*
X94173044Y-154427787D01*
X93784498Y-154588728D01*
X93434817Y-154822377D01*
X93137437Y-155119757D01*
X92903788Y-155469438D01*
X92742847Y-155857984D01*
X92660800Y-156270461D01*
X92180800Y-156270461D01*
X92180800Y-155350863D01*
X92244718Y-155255203D01*
X92367968Y-154957652D01*
X92430800Y-154641773D01*
X92430800Y-154319707D01*
X92367968Y-154003828D01*
X92244718Y-153706277D01*
X92065787Y-153438488D01*
X91838052Y-153210753D01*
X91570263Y-153031822D01*
X91272712Y-152908572D01*
X90956833Y-152845740D01*
X90634767Y-152845740D01*
X90318888Y-152908572D01*
X90021337Y-153031822D01*
X89753548Y-153210753D01*
X89525813Y-153438488D01*
X89390801Y-153640548D01*
X89390801Y-132320932D01*
X89410800Y-132350863D01*
G37*
X89410800Y-132350863D02*
X89410800Y-132962989D01*
X89410801Y-132962999D01*
X89410800Y-139198713D01*
X89404100Y-139266742D01*
X89410800Y-139334771D01*
X89410800Y-139334778D01*
X89430840Y-139538248D01*
X89510036Y-139799322D01*
X89638643Y-140039929D01*
X89811719Y-140250822D01*
X89864565Y-140294192D01*
X99360802Y-149790430D01*
X99360802Y-152945060D01*
X99272712Y-152908572D01*
X98956833Y-152845740D01*
X98634767Y-152845740D01*
X98318888Y-152908572D01*
X98021337Y-153031822D01*
X97753548Y-153210753D01*
X97525813Y-153438488D01*
X97346882Y-153706277D01*
X97223632Y-154003828D01*
X97160800Y-154319707D01*
X97160800Y-154641773D01*
X97223632Y-154957652D01*
X97346882Y-155255203D01*
X97410800Y-155350863D01*
X97410801Y-162703055D01*
X92180800Y-157473055D01*
X92180800Y-156270461D01*
X92660800Y-156270461D01*
X92660800Y-156691019D01*
X92742847Y-157103496D01*
X92903788Y-157492042D01*
X93137437Y-157841723D01*
X93434817Y-158139103D01*
X93784498Y-158372752D01*
X94173044Y-158533693D01*
X94585521Y-158615740D01*
X95006079Y-158615740D01*
X95418556Y-158533693D01*
X95807102Y-158372752D01*
X96156783Y-158139103D01*
X96454163Y-157841723D01*
X96687812Y-157492042D01*
X96848753Y-157103496D01*
X96930800Y-156691019D01*
X96930800Y-156270461D01*
X96848753Y-155857984D01*
X96687812Y-155469438D01*
X96454163Y-155119757D01*
X96156783Y-154822377D01*
X95807102Y-154588728D01*
X95418556Y-154427787D01*
X95006079Y-154345740D01*
X94585521Y-154345740D01*
X94173044Y-154427787D01*
X93784498Y-154588728D01*
X93434817Y-154822377D01*
X93137437Y-155119757D01*
X92903788Y-155469438D01*
X92742847Y-155857984D01*
X92660800Y-156270461D01*
X92180800Y-156270461D01*
X92180800Y-155350863D01*
X92244718Y-155255203D01*
X92367968Y-154957652D01*
X92430800Y-154641773D01*
X92430800Y-154319707D01*
X92367968Y-154003828D01*
X92244718Y-153706277D01*
X92065787Y-153438488D01*
X91838052Y-153210753D01*
X91570263Y-153031822D01*
X91272712Y-152908572D01*
X90956833Y-152845740D01*
X90634767Y-152845740D01*
X90318888Y-152908572D01*
X90021337Y-153031822D01*
X89753548Y-153210753D01*
X89525813Y-153438488D01*
X89390801Y-153640548D01*
X89390801Y-132320932D01*
X89410800Y-132350863D01*
M02*
