M48
METRIC,TZ
T1C0.400
T2C0.850
T3C1.000
%
G90
G05
T1
X62476Y-147031
X62566Y-142721
X63246Y-135577
X64008Y-151325
X64196Y-129771
X65096Y-155561
X69776Y-119521
X71926Y-148781
X72136Y-133291
X72136Y-166819
X72576Y-115971
X76200Y-159453
X76696Y-112381
X76916Y-170301
X77470Y-131513
X78756Y-165451
X79756Y-143705
X80010Y-173677
X80716Y-109891
X81534Y-124147
X82550Y-162755
X83246Y-155351
X84236Y-175391
X84328Y-144213
X84582Y-108145
X87884Y-117035
X89786Y-105591
X92202Y-180281
X92456Y-148023
X92710Y-167073
X94742Y-171899
X94936Y-104061
X94996Y-115511
X95976Y-140891
X96196Y-135351
X96774Y-110939
X97282Y-164533
X98552Y-127449
X101600Y-167835
X102616Y-152849
X103632Y-176471
X105786Y-130371
X105918Y-125925
X107846Y-135331
X107936Y-104931
X107950Y-180281
X108966Y-122877
X108966Y-170375
X109220Y-161485
X109220Y-166057
X109296Y-168341
X109456Y-172941
X109616Y-163891
X110490Y-141165
X110998Y-133291
X110998Y-148785
X112146Y-106431
X113176Y-138331
X113792Y-127703
X114300Y-178249
X115886Y-107921
X116586Y-144467
X118872Y-118051
X118872Y-140403
X118876Y-120401
X120286Y-110171
X121920Y-161739
X121920Y-168597
X122936Y-124909
X123444Y-112717
X124206Y-172915
X127000Y-144467
X127566Y-116561
X129794Y-167073
X130048Y-119829
X131318Y-144213
X132588Y-140657
X133196Y-151331
X136652Y-129735
X137026Y-138421
X137414Y-154881
X139446Y-142689
T2
X90796Y-131481
X90796Y-154481
X98796Y-131481
X98796Y-154481
X121796Y-131481
X121796Y-154481
X129796Y-131481
X129796Y-154481
T3
X104394Y-114495
X104394Y-116995
X104394Y-119495
X104394Y-163009
X104394Y-165509
X104394Y-168009
X104394Y-170509
X98296Y-104261
X100836Y-104261
X103376Y-104261
X115316Y-163009
X115316Y-165509
X115316Y-168009
X115316Y-170509
X115316Y-114241
X115316Y-116741
X115316Y-119241
X115316Y-121741
X98298Y-181551
X100838Y-181551
X103378Y-181551
T0
M30
