G04 #@! TF.GenerationSoftware,KiCad,Pcbnew,(5.1.5)-3*
G04 #@! TF.CreationDate,2020-06-25T09:37:35+02:00*
G04 #@! TF.ProjectId,StepperClockMotor,53746570-7065-4724-936c-6f636b4d6f74,v1.1*
G04 #@! TF.SameCoordinates,Original*
G04 #@! TF.FileFunction,Soldermask,Top*
G04 #@! TF.FilePolarity,Negative*
%FSLAX46Y46*%
G04 Gerber Fmt 4.6, Leading zero omitted, Abs format (unit mm)*
G04 Created by KiCad (PCBNEW (5.1.5)-3) date 2020-06-25 09:37:35*
%MOMM*%
%LPD*%
G04 APERTURE LIST*
%ADD10C,0.100000*%
G04 APERTURE END LIST*
D10*
G36*
X104278800Y-182451740D02*
G01*
X102476800Y-182451740D01*
X102476800Y-180649740D01*
X104278800Y-180649740D01*
X104278800Y-182451740D01*
G37*
G36*
X100951312Y-180654667D02*
G01*
X101100612Y-180684364D01*
X101264584Y-180752284D01*
X101412154Y-180850887D01*
X101537653Y-180976386D01*
X101636256Y-181123956D01*
X101704176Y-181287928D01*
X101738800Y-181461999D01*
X101738800Y-181639481D01*
X101704176Y-181813552D01*
X101636256Y-181977524D01*
X101537653Y-182125094D01*
X101412154Y-182250593D01*
X101264584Y-182349196D01*
X101100612Y-182417116D01*
X100951312Y-182446813D01*
X100926542Y-182451740D01*
X100749058Y-182451740D01*
X100724288Y-182446813D01*
X100574988Y-182417116D01*
X100411016Y-182349196D01*
X100263446Y-182250593D01*
X100137947Y-182125094D01*
X100039344Y-181977524D01*
X99971424Y-181813552D01*
X99936800Y-181639481D01*
X99936800Y-181461999D01*
X99971424Y-181287928D01*
X100039344Y-181123956D01*
X100137947Y-180976386D01*
X100263446Y-180850887D01*
X100411016Y-180752284D01*
X100574988Y-180684364D01*
X100724288Y-180654667D01*
X100749058Y-180649740D01*
X100926542Y-180649740D01*
X100951312Y-180654667D01*
G37*
G36*
X98411312Y-180654667D02*
G01*
X98560612Y-180684364D01*
X98724584Y-180752284D01*
X98872154Y-180850887D01*
X98997653Y-180976386D01*
X99096256Y-181123956D01*
X99164176Y-181287928D01*
X99198800Y-181461999D01*
X99198800Y-181639481D01*
X99164176Y-181813552D01*
X99096256Y-181977524D01*
X98997653Y-182125094D01*
X98872154Y-182250593D01*
X98724584Y-182349196D01*
X98560612Y-182417116D01*
X98411312Y-182446813D01*
X98386542Y-182451740D01*
X98209058Y-182451740D01*
X98184288Y-182446813D01*
X98034988Y-182417116D01*
X97871016Y-182349196D01*
X97723446Y-182250593D01*
X97597947Y-182125094D01*
X97499344Y-181977524D01*
X97431424Y-181813552D01*
X97396800Y-181639481D01*
X97396800Y-181461999D01*
X97431424Y-181287928D01*
X97499344Y-181123956D01*
X97597947Y-180976386D01*
X97723446Y-180850887D01*
X97871016Y-180752284D01*
X98034988Y-180684364D01*
X98184288Y-180654667D01*
X98209058Y-180649740D01*
X98386542Y-180649740D01*
X98411312Y-180654667D01*
G37*
G36*
X115585904Y-169618325D02*
G01*
X115754426Y-169688129D01*
X115906091Y-169789468D01*
X116035072Y-169918449D01*
X116136411Y-170070114D01*
X116206215Y-170238636D01*
X116241800Y-170417537D01*
X116241800Y-170599943D01*
X116206215Y-170778844D01*
X116136411Y-170947366D01*
X116035072Y-171099031D01*
X115906091Y-171228012D01*
X115754426Y-171329351D01*
X115585904Y-171399155D01*
X115407003Y-171434740D01*
X115224597Y-171434740D01*
X115045696Y-171399155D01*
X114877174Y-171329351D01*
X114725509Y-171228012D01*
X114596528Y-171099031D01*
X114495189Y-170947366D01*
X114425385Y-170778844D01*
X114389800Y-170599943D01*
X114389800Y-170417537D01*
X114425385Y-170238636D01*
X114495189Y-170070114D01*
X114596528Y-169918449D01*
X114725509Y-169789468D01*
X114877174Y-169688129D01*
X115045696Y-169618325D01*
X115224597Y-169582740D01*
X115407003Y-169582740D01*
X115585904Y-169618325D01*
G37*
G36*
X104663904Y-169618325D02*
G01*
X104832426Y-169688129D01*
X104984091Y-169789468D01*
X105113072Y-169918449D01*
X105214411Y-170070114D01*
X105284215Y-170238636D01*
X105319800Y-170417537D01*
X105319800Y-170599943D01*
X105284215Y-170778844D01*
X105214411Y-170947366D01*
X105113072Y-171099031D01*
X104984091Y-171228012D01*
X104832426Y-171329351D01*
X104663904Y-171399155D01*
X104485003Y-171434740D01*
X104302597Y-171434740D01*
X104123696Y-171399155D01*
X103955174Y-171329351D01*
X103803509Y-171228012D01*
X103674528Y-171099031D01*
X103573189Y-170947366D01*
X103503385Y-170778844D01*
X103467800Y-170599943D01*
X103467800Y-170417537D01*
X103503385Y-170238636D01*
X103573189Y-170070114D01*
X103674528Y-169918449D01*
X103803509Y-169789468D01*
X103955174Y-169688129D01*
X104123696Y-169618325D01*
X104302597Y-169582740D01*
X104485003Y-169582740D01*
X104663904Y-169618325D01*
G37*
G36*
X104663904Y-167118325D02*
G01*
X104832426Y-167188129D01*
X104984091Y-167289468D01*
X105113072Y-167418449D01*
X105214411Y-167570114D01*
X105284215Y-167738636D01*
X105319800Y-167917537D01*
X105319800Y-168099943D01*
X105284215Y-168278844D01*
X105214411Y-168447366D01*
X105113072Y-168599031D01*
X104984091Y-168728012D01*
X104832426Y-168829351D01*
X104663904Y-168899155D01*
X104485003Y-168934740D01*
X104302597Y-168934740D01*
X104123696Y-168899155D01*
X103955174Y-168829351D01*
X103803509Y-168728012D01*
X103674528Y-168599031D01*
X103573189Y-168447366D01*
X103503385Y-168278844D01*
X103467800Y-168099943D01*
X103467800Y-167917537D01*
X103503385Y-167738636D01*
X103573189Y-167570114D01*
X103674528Y-167418449D01*
X103803509Y-167289468D01*
X103955174Y-167188129D01*
X104123696Y-167118325D01*
X104302597Y-167082740D01*
X104485003Y-167082740D01*
X104663904Y-167118325D01*
G37*
G36*
X115585904Y-167118325D02*
G01*
X115754426Y-167188129D01*
X115906091Y-167289468D01*
X116035072Y-167418449D01*
X116136411Y-167570114D01*
X116206215Y-167738636D01*
X116241800Y-167917537D01*
X116241800Y-168099943D01*
X116206215Y-168278844D01*
X116136411Y-168447366D01*
X116035072Y-168599031D01*
X115906091Y-168728012D01*
X115754426Y-168829351D01*
X115585904Y-168899155D01*
X115407003Y-168934740D01*
X115224597Y-168934740D01*
X115045696Y-168899155D01*
X114877174Y-168829351D01*
X114725509Y-168728012D01*
X114596528Y-168599031D01*
X114495189Y-168447366D01*
X114425385Y-168278844D01*
X114389800Y-168099943D01*
X114389800Y-167917537D01*
X114425385Y-167738636D01*
X114495189Y-167570114D01*
X114596528Y-167418449D01*
X114725509Y-167289468D01*
X114877174Y-167188129D01*
X115045696Y-167118325D01*
X115224597Y-167082740D01*
X115407003Y-167082740D01*
X115585904Y-167118325D01*
G37*
G36*
X115585904Y-164618325D02*
G01*
X115754426Y-164688129D01*
X115906091Y-164789468D01*
X116035072Y-164918449D01*
X116136411Y-165070114D01*
X116206215Y-165238636D01*
X116241800Y-165417537D01*
X116241800Y-165599943D01*
X116206215Y-165778844D01*
X116136411Y-165947366D01*
X116035072Y-166099031D01*
X115906091Y-166228012D01*
X115754426Y-166329351D01*
X115585904Y-166399155D01*
X115407003Y-166434740D01*
X115224597Y-166434740D01*
X115045696Y-166399155D01*
X114877174Y-166329351D01*
X114725509Y-166228012D01*
X114596528Y-166099031D01*
X114495189Y-165947366D01*
X114425385Y-165778844D01*
X114389800Y-165599943D01*
X114389800Y-165417537D01*
X114425385Y-165238636D01*
X114495189Y-165070114D01*
X114596528Y-164918449D01*
X114725509Y-164789468D01*
X114877174Y-164688129D01*
X115045696Y-164618325D01*
X115224597Y-164582740D01*
X115407003Y-164582740D01*
X115585904Y-164618325D01*
G37*
G36*
X104663904Y-164618325D02*
G01*
X104832426Y-164688129D01*
X104984091Y-164789468D01*
X105113072Y-164918449D01*
X105214411Y-165070114D01*
X105284215Y-165238636D01*
X105319800Y-165417537D01*
X105319800Y-165599943D01*
X105284215Y-165778844D01*
X105214411Y-165947366D01*
X105113072Y-166099031D01*
X104984091Y-166228012D01*
X104832426Y-166329351D01*
X104663904Y-166399155D01*
X104485003Y-166434740D01*
X104302597Y-166434740D01*
X104123696Y-166399155D01*
X103955174Y-166329351D01*
X103803509Y-166228012D01*
X103674528Y-166099031D01*
X103573189Y-165947366D01*
X103503385Y-165778844D01*
X103467800Y-165599943D01*
X103467800Y-165417537D01*
X103503385Y-165238636D01*
X103573189Y-165070114D01*
X103674528Y-164918449D01*
X103803509Y-164789468D01*
X103955174Y-164688129D01*
X104123696Y-164618325D01*
X104302597Y-164582740D01*
X104485003Y-164582740D01*
X104663904Y-164618325D01*
G37*
G36*
X116241800Y-163934740D02*
G01*
X114389800Y-163934740D01*
X114389800Y-162082740D01*
X116241800Y-162082740D01*
X116241800Y-163934740D01*
G37*
G36*
X105319800Y-163934740D02*
G01*
X103467800Y-163934740D01*
X103467800Y-162082740D01*
X105319800Y-162082740D01*
X105319800Y-163934740D01*
G37*
G36*
X69184233Y-159665633D02*
G01*
X69274457Y-159683579D01*
X69380067Y-159727325D01*
X69529421Y-159789189D01*
X69529422Y-159789190D01*
X69758886Y-159942512D01*
X69954028Y-160137654D01*
X70056475Y-160290977D01*
X70107351Y-160367119D01*
X70212961Y-160622084D01*
X70266800Y-160892752D01*
X70266800Y-161168728D01*
X70212961Y-161439396D01*
X70107351Y-161694361D01*
X70107350Y-161694362D01*
X69954028Y-161923826D01*
X69758886Y-162118968D01*
X69605563Y-162221415D01*
X69529421Y-162272291D01*
X69380067Y-162334155D01*
X69274457Y-162377901D01*
X69184233Y-162395847D01*
X69003788Y-162431740D01*
X68727812Y-162431740D01*
X68547367Y-162395847D01*
X68457143Y-162377901D01*
X68351533Y-162334155D01*
X68202179Y-162272291D01*
X68126037Y-162221415D01*
X67972714Y-162118968D01*
X67777572Y-161923826D01*
X67624250Y-161694362D01*
X67624249Y-161694361D01*
X67518639Y-161439396D01*
X67464800Y-161168728D01*
X67464800Y-160892752D01*
X67518639Y-160622084D01*
X67624249Y-160367119D01*
X67675125Y-160290977D01*
X67777572Y-160137654D01*
X67972714Y-159942512D01*
X68202178Y-159789190D01*
X68202179Y-159789189D01*
X68351533Y-159727325D01*
X68457143Y-159683579D01*
X68547367Y-159665633D01*
X68727812Y-159629740D01*
X69003788Y-159629740D01*
X69184233Y-159665633D01*
G37*
G36*
X132504233Y-159665633D02*
G01*
X132594457Y-159683579D01*
X132700067Y-159727325D01*
X132849421Y-159789189D01*
X132849422Y-159789190D01*
X133078886Y-159942512D01*
X133274028Y-160137654D01*
X133376475Y-160290977D01*
X133427351Y-160367119D01*
X133532961Y-160622084D01*
X133586800Y-160892752D01*
X133586800Y-161168728D01*
X133532961Y-161439396D01*
X133427351Y-161694361D01*
X133427350Y-161694362D01*
X133274028Y-161923826D01*
X133078886Y-162118968D01*
X132925563Y-162221415D01*
X132849421Y-162272291D01*
X132700067Y-162334155D01*
X132594457Y-162377901D01*
X132504233Y-162395847D01*
X132323788Y-162431740D01*
X132047812Y-162431740D01*
X131867367Y-162395847D01*
X131777143Y-162377901D01*
X131671533Y-162334155D01*
X131522179Y-162272291D01*
X131446037Y-162221415D01*
X131292714Y-162118968D01*
X131097572Y-161923826D01*
X130944250Y-161694362D01*
X130944249Y-161694361D01*
X130838639Y-161439396D01*
X130784800Y-161168728D01*
X130784800Y-160892752D01*
X130838639Y-160622084D01*
X130944249Y-160367119D01*
X130995125Y-160290977D01*
X131097572Y-160137654D01*
X131292714Y-159942512D01*
X131522178Y-159789190D01*
X131522179Y-159789189D01*
X131671533Y-159727325D01*
X131777143Y-159683579D01*
X131867367Y-159665633D01*
X132047812Y-159629740D01*
X132323788Y-159629740D01*
X132504233Y-159665633D01*
G37*
G36*
X95098385Y-154959542D02*
G01*
X95248210Y-154989344D01*
X95530474Y-155106261D01*
X95784505Y-155275999D01*
X96000541Y-155492035D01*
X96170279Y-155746066D01*
X96287196Y-156028330D01*
X96346800Y-156327980D01*
X96346800Y-156633500D01*
X96287196Y-156933150D01*
X96170279Y-157215414D01*
X96000541Y-157469445D01*
X95784505Y-157685481D01*
X95530474Y-157855219D01*
X95248210Y-157972136D01*
X95098385Y-158001938D01*
X94948561Y-158031740D01*
X94643039Y-158031740D01*
X94493215Y-158001938D01*
X94343390Y-157972136D01*
X94061126Y-157855219D01*
X93807095Y-157685481D01*
X93591059Y-157469445D01*
X93421321Y-157215414D01*
X93304404Y-156933150D01*
X93244800Y-156633500D01*
X93244800Y-156327980D01*
X93304404Y-156028330D01*
X93421321Y-155746066D01*
X93591059Y-155492035D01*
X93807095Y-155275999D01*
X94061126Y-155106261D01*
X94343390Y-154989344D01*
X94493215Y-154959542D01*
X94643039Y-154929740D01*
X94948561Y-154929740D01*
X95098385Y-154959542D01*
G37*
G36*
X126098385Y-154959542D02*
G01*
X126248210Y-154989344D01*
X126530474Y-155106261D01*
X126784505Y-155275999D01*
X127000541Y-155492035D01*
X127170279Y-155746066D01*
X127287196Y-156028330D01*
X127346800Y-156327980D01*
X127346800Y-156633500D01*
X127287196Y-156933150D01*
X127170279Y-157215414D01*
X127000541Y-157469445D01*
X126784505Y-157685481D01*
X126530474Y-157855219D01*
X126248210Y-157972136D01*
X126098385Y-158001938D01*
X125948561Y-158031740D01*
X125643039Y-158031740D01*
X125493215Y-158001938D01*
X125343390Y-157972136D01*
X125061126Y-157855219D01*
X124807095Y-157685481D01*
X124591059Y-157469445D01*
X124421321Y-157215414D01*
X124304404Y-156933150D01*
X124244800Y-156633500D01*
X124244800Y-156327980D01*
X124304404Y-156028330D01*
X124421321Y-155746066D01*
X124591059Y-155492035D01*
X124807095Y-155275999D01*
X125061126Y-155106261D01*
X125343390Y-154989344D01*
X125493215Y-154959542D01*
X125643039Y-154929740D01*
X125948561Y-154929740D01*
X126098385Y-154959542D01*
G37*
G36*
X110831131Y-153688951D02*
G01*
X111158892Y-153824714D01*
X111453870Y-154021812D01*
X111704728Y-154272670D01*
X111901826Y-154567648D01*
X112037589Y-154895409D01*
X112106800Y-155243356D01*
X112106800Y-155598124D01*
X112037589Y-155946071D01*
X111901826Y-156273832D01*
X111704728Y-156568810D01*
X111453870Y-156819668D01*
X111158892Y-157016766D01*
X110831131Y-157152529D01*
X110483184Y-157221740D01*
X110128416Y-157221740D01*
X109780469Y-157152529D01*
X109452708Y-157016766D01*
X109157730Y-156819668D01*
X108906872Y-156568810D01*
X108709774Y-156273832D01*
X108574011Y-155946071D01*
X108504800Y-155598124D01*
X108504800Y-155243356D01*
X108574011Y-154895409D01*
X108709774Y-154567648D01*
X108906872Y-154272670D01*
X109157730Y-154021812D01*
X109452708Y-153824714D01*
X109780469Y-153688951D01*
X110128416Y-153619740D01*
X110483184Y-153619740D01*
X110831131Y-153688951D01*
G37*
G36*
X91102364Y-153470129D02*
G01*
X91293633Y-153549355D01*
X91293635Y-153549356D01*
X91398972Y-153619740D01*
X91465773Y-153664375D01*
X91612165Y-153810767D01*
X91727185Y-153982907D01*
X91806411Y-154174176D01*
X91846800Y-154377224D01*
X91846800Y-154584256D01*
X91806411Y-154787304D01*
X91747412Y-154929740D01*
X91727184Y-154978575D01*
X91612165Y-155150713D01*
X91465773Y-155297105D01*
X91293635Y-155412124D01*
X91293634Y-155412125D01*
X91293633Y-155412125D01*
X91102364Y-155491351D01*
X90899316Y-155531740D01*
X90692284Y-155531740D01*
X90489236Y-155491351D01*
X90297967Y-155412125D01*
X90297966Y-155412125D01*
X90297965Y-155412124D01*
X90125827Y-155297105D01*
X89979435Y-155150713D01*
X89864416Y-154978575D01*
X89844188Y-154929740D01*
X89785189Y-154787304D01*
X89744800Y-154584256D01*
X89744800Y-154377224D01*
X89785189Y-154174176D01*
X89864415Y-153982907D01*
X89979435Y-153810767D01*
X90125827Y-153664375D01*
X90192628Y-153619740D01*
X90297965Y-153549356D01*
X90297967Y-153549355D01*
X90489236Y-153470129D01*
X90692284Y-153429740D01*
X90899316Y-153429740D01*
X91102364Y-153470129D01*
G37*
G36*
X99102364Y-153470129D02*
G01*
X99293633Y-153549355D01*
X99293635Y-153549356D01*
X99398972Y-153619740D01*
X99465773Y-153664375D01*
X99612165Y-153810767D01*
X99727185Y-153982907D01*
X99806411Y-154174176D01*
X99846800Y-154377224D01*
X99846800Y-154584256D01*
X99806411Y-154787304D01*
X99747412Y-154929740D01*
X99727184Y-154978575D01*
X99612165Y-155150713D01*
X99465773Y-155297105D01*
X99293635Y-155412124D01*
X99293634Y-155412125D01*
X99293633Y-155412125D01*
X99102364Y-155491351D01*
X98899316Y-155531740D01*
X98692284Y-155531740D01*
X98489236Y-155491351D01*
X98297967Y-155412125D01*
X98297966Y-155412125D01*
X98297965Y-155412124D01*
X98125827Y-155297105D01*
X97979435Y-155150713D01*
X97864416Y-154978575D01*
X97844188Y-154929740D01*
X97785189Y-154787304D01*
X97744800Y-154584256D01*
X97744800Y-154377224D01*
X97785189Y-154174176D01*
X97864415Y-153982907D01*
X97979435Y-153810767D01*
X98125827Y-153664375D01*
X98192628Y-153619740D01*
X98297965Y-153549356D01*
X98297967Y-153549355D01*
X98489236Y-153470129D01*
X98692284Y-153429740D01*
X98899316Y-153429740D01*
X99102364Y-153470129D01*
G37*
G36*
X122102364Y-153470129D02*
G01*
X122293633Y-153549355D01*
X122293635Y-153549356D01*
X122398972Y-153619740D01*
X122465773Y-153664375D01*
X122612165Y-153810767D01*
X122727185Y-153982907D01*
X122806411Y-154174176D01*
X122846800Y-154377224D01*
X122846800Y-154584256D01*
X122806411Y-154787304D01*
X122747412Y-154929740D01*
X122727184Y-154978575D01*
X122612165Y-155150713D01*
X122465773Y-155297105D01*
X122293635Y-155412124D01*
X122293634Y-155412125D01*
X122293633Y-155412125D01*
X122102364Y-155491351D01*
X121899316Y-155531740D01*
X121692284Y-155531740D01*
X121489236Y-155491351D01*
X121297967Y-155412125D01*
X121297966Y-155412125D01*
X121297965Y-155412124D01*
X121125827Y-155297105D01*
X120979435Y-155150713D01*
X120864416Y-154978575D01*
X120844188Y-154929740D01*
X120785189Y-154787304D01*
X120744800Y-154584256D01*
X120744800Y-154377224D01*
X120785189Y-154174176D01*
X120864415Y-153982907D01*
X120979435Y-153810767D01*
X121125827Y-153664375D01*
X121192628Y-153619740D01*
X121297965Y-153549356D01*
X121297967Y-153549355D01*
X121489236Y-153470129D01*
X121692284Y-153429740D01*
X121899316Y-153429740D01*
X122102364Y-153470129D01*
G37*
G36*
X130102364Y-153470129D02*
G01*
X130293633Y-153549355D01*
X130293635Y-153549356D01*
X130398972Y-153619740D01*
X130465773Y-153664375D01*
X130612165Y-153810767D01*
X130727185Y-153982907D01*
X130806411Y-154174176D01*
X130846800Y-154377224D01*
X130846800Y-154584256D01*
X130806411Y-154787304D01*
X130747412Y-154929740D01*
X130727184Y-154978575D01*
X130612165Y-155150713D01*
X130465773Y-155297105D01*
X130293635Y-155412124D01*
X130293634Y-155412125D01*
X130293633Y-155412125D01*
X130102364Y-155491351D01*
X129899316Y-155531740D01*
X129692284Y-155531740D01*
X129489236Y-155491351D01*
X129297967Y-155412125D01*
X129297966Y-155412125D01*
X129297965Y-155412124D01*
X129125827Y-155297105D01*
X128979435Y-155150713D01*
X128864416Y-154978575D01*
X128844188Y-154929740D01*
X128785189Y-154787304D01*
X128744800Y-154584256D01*
X128744800Y-154377224D01*
X128785189Y-154174176D01*
X128864415Y-153982907D01*
X128979435Y-153810767D01*
X129125827Y-153664375D01*
X129192628Y-153619740D01*
X129297965Y-153549356D01*
X129297967Y-153549355D01*
X129489236Y-153470129D01*
X129692284Y-153429740D01*
X129899316Y-153429740D01*
X130102364Y-153470129D01*
G37*
G36*
X101685743Y-140486988D02*
G01*
X102240989Y-140716978D01*
X102240990Y-140716979D01*
X102740699Y-141050874D01*
X103165666Y-141475841D01*
X103165667Y-141475843D01*
X103499562Y-141975551D01*
X103729552Y-142530797D01*
X103846800Y-143120241D01*
X103846800Y-143721239D01*
X103729552Y-144310683D01*
X103499562Y-144865929D01*
X103499561Y-144865930D01*
X103165666Y-145365639D01*
X102740699Y-145790606D01*
X102489147Y-145958688D01*
X102240989Y-146124502D01*
X101685743Y-146354492D01*
X101096299Y-146471740D01*
X100495301Y-146471740D01*
X99905857Y-146354492D01*
X99350611Y-146124502D01*
X99102453Y-145958688D01*
X98850901Y-145790606D01*
X98425934Y-145365639D01*
X98092039Y-144865930D01*
X98092038Y-144865929D01*
X97862048Y-144310683D01*
X97744800Y-143721239D01*
X97744800Y-143120241D01*
X97862048Y-142530797D01*
X98092038Y-141975551D01*
X98425933Y-141475843D01*
X98425934Y-141475841D01*
X98850901Y-141050874D01*
X99350610Y-140716979D01*
X99350611Y-140716978D01*
X99905857Y-140486988D01*
X100495301Y-140369740D01*
X101096299Y-140369740D01*
X101685743Y-140486988D01*
G37*
G36*
X135831131Y-132688951D02*
G01*
X136158892Y-132824714D01*
X136453870Y-133021812D01*
X136704728Y-133272670D01*
X136901826Y-133567648D01*
X137037589Y-133895409D01*
X137106800Y-134243356D01*
X137106800Y-134598124D01*
X137037589Y-134946071D01*
X136901826Y-135273832D01*
X136704728Y-135568810D01*
X136453870Y-135819668D01*
X136158892Y-136016766D01*
X135831131Y-136152529D01*
X135483184Y-136221740D01*
X135128416Y-136221740D01*
X134780469Y-136152529D01*
X134452708Y-136016766D01*
X134157730Y-135819668D01*
X133906872Y-135568810D01*
X133709774Y-135273832D01*
X133574011Y-134946071D01*
X133504800Y-134598124D01*
X133504800Y-134243356D01*
X133574011Y-133895409D01*
X133709774Y-133567648D01*
X133906872Y-133272670D01*
X134157730Y-133021812D01*
X134452708Y-132824714D01*
X134780469Y-132688951D01*
X135128416Y-132619740D01*
X135483184Y-132619740D01*
X135831131Y-132688951D01*
G37*
G36*
X85831131Y-132688951D02*
G01*
X86158892Y-132824714D01*
X86453870Y-133021812D01*
X86704728Y-133272670D01*
X86901826Y-133567648D01*
X87037589Y-133895409D01*
X87106800Y-134243356D01*
X87106800Y-134598124D01*
X87037589Y-134946071D01*
X86901826Y-135273832D01*
X86704728Y-135568810D01*
X86453870Y-135819668D01*
X86158892Y-136016766D01*
X85831131Y-136152529D01*
X85483184Y-136221740D01*
X85128416Y-136221740D01*
X84780469Y-136152529D01*
X84452708Y-136016766D01*
X84157730Y-135819668D01*
X83906872Y-135568810D01*
X83709774Y-135273832D01*
X83574011Y-134946071D01*
X83504800Y-134598124D01*
X83504800Y-134243356D01*
X83574011Y-133895409D01*
X83709774Y-133567648D01*
X83906872Y-133272670D01*
X84157730Y-133021812D01*
X84452708Y-132824714D01*
X84780469Y-132688951D01*
X85128416Y-132619740D01*
X85483184Y-132619740D01*
X85831131Y-132688951D01*
G37*
G36*
X122102364Y-130470129D02*
G01*
X122293633Y-130549355D01*
X122293635Y-130549356D01*
X122465773Y-130664375D01*
X122612165Y-130810767D01*
X122727185Y-130982907D01*
X122806411Y-131174176D01*
X122846800Y-131377224D01*
X122846800Y-131584256D01*
X122806411Y-131787304D01*
X122727185Y-131978573D01*
X122727184Y-131978575D01*
X122612165Y-132150713D01*
X122465773Y-132297105D01*
X122293635Y-132412124D01*
X122293634Y-132412125D01*
X122293633Y-132412125D01*
X122102364Y-132491351D01*
X121899316Y-132531740D01*
X121692284Y-132531740D01*
X121489236Y-132491351D01*
X121297967Y-132412125D01*
X121297966Y-132412125D01*
X121297965Y-132412124D01*
X121125827Y-132297105D01*
X120979435Y-132150713D01*
X120864416Y-131978575D01*
X120864415Y-131978573D01*
X120785189Y-131787304D01*
X120744800Y-131584256D01*
X120744800Y-131377224D01*
X120785189Y-131174176D01*
X120864415Y-130982907D01*
X120979435Y-130810767D01*
X121125827Y-130664375D01*
X121297965Y-130549356D01*
X121297967Y-130549355D01*
X121489236Y-130470129D01*
X121692284Y-130429740D01*
X121899316Y-130429740D01*
X122102364Y-130470129D01*
G37*
G36*
X91102364Y-130470129D02*
G01*
X91293633Y-130549355D01*
X91293635Y-130549356D01*
X91465773Y-130664375D01*
X91612165Y-130810767D01*
X91727185Y-130982907D01*
X91806411Y-131174176D01*
X91846800Y-131377224D01*
X91846800Y-131584256D01*
X91806411Y-131787304D01*
X91727185Y-131978573D01*
X91727184Y-131978575D01*
X91612165Y-132150713D01*
X91465773Y-132297105D01*
X91293635Y-132412124D01*
X91293634Y-132412125D01*
X91293633Y-132412125D01*
X91102364Y-132491351D01*
X90899316Y-132531740D01*
X90692284Y-132531740D01*
X90489236Y-132491351D01*
X90297967Y-132412125D01*
X90297966Y-132412125D01*
X90297965Y-132412124D01*
X90125827Y-132297105D01*
X89979435Y-132150713D01*
X89864416Y-131978575D01*
X89864415Y-131978573D01*
X89785189Y-131787304D01*
X89744800Y-131584256D01*
X89744800Y-131377224D01*
X89785189Y-131174176D01*
X89864415Y-130982907D01*
X89979435Y-130810767D01*
X90125827Y-130664375D01*
X90297965Y-130549356D01*
X90297967Y-130549355D01*
X90489236Y-130470129D01*
X90692284Y-130429740D01*
X90899316Y-130429740D01*
X91102364Y-130470129D01*
G37*
G36*
X99102364Y-130470129D02*
G01*
X99293633Y-130549355D01*
X99293635Y-130549356D01*
X99465773Y-130664375D01*
X99612165Y-130810767D01*
X99727185Y-130982907D01*
X99806411Y-131174176D01*
X99846800Y-131377224D01*
X99846800Y-131584256D01*
X99806411Y-131787304D01*
X99727185Y-131978573D01*
X99727184Y-131978575D01*
X99612165Y-132150713D01*
X99465773Y-132297105D01*
X99293635Y-132412124D01*
X99293634Y-132412125D01*
X99293633Y-132412125D01*
X99102364Y-132491351D01*
X98899316Y-132531740D01*
X98692284Y-132531740D01*
X98489236Y-132491351D01*
X98297967Y-132412125D01*
X98297966Y-132412125D01*
X98297965Y-132412124D01*
X98125827Y-132297105D01*
X97979435Y-132150713D01*
X97864416Y-131978575D01*
X97864415Y-131978573D01*
X97785189Y-131787304D01*
X97744800Y-131584256D01*
X97744800Y-131377224D01*
X97785189Y-131174176D01*
X97864415Y-130982907D01*
X97979435Y-130810767D01*
X98125827Y-130664375D01*
X98297965Y-130549356D01*
X98297967Y-130549355D01*
X98489236Y-130470129D01*
X98692284Y-130429740D01*
X98899316Y-130429740D01*
X99102364Y-130470129D01*
G37*
G36*
X130102364Y-130470129D02*
G01*
X130293633Y-130549355D01*
X130293635Y-130549356D01*
X130465773Y-130664375D01*
X130612165Y-130810767D01*
X130727185Y-130982907D01*
X130806411Y-131174176D01*
X130846800Y-131377224D01*
X130846800Y-131584256D01*
X130806411Y-131787304D01*
X130727185Y-131978573D01*
X130727184Y-131978575D01*
X130612165Y-132150713D01*
X130465773Y-132297105D01*
X130293635Y-132412124D01*
X130293634Y-132412125D01*
X130293633Y-132412125D01*
X130102364Y-132491351D01*
X129899316Y-132531740D01*
X129692284Y-132531740D01*
X129489236Y-132491351D01*
X129297967Y-132412125D01*
X129297966Y-132412125D01*
X129297965Y-132412124D01*
X129125827Y-132297105D01*
X128979435Y-132150713D01*
X128864416Y-131978575D01*
X128864415Y-131978573D01*
X128785189Y-131787304D01*
X128744800Y-131584256D01*
X128744800Y-131377224D01*
X128785189Y-131174176D01*
X128864415Y-130982907D01*
X128979435Y-130810767D01*
X129125827Y-130664375D01*
X129297965Y-130549356D01*
X129297967Y-130549355D01*
X129489236Y-130470129D01*
X129692284Y-130429740D01*
X129899316Y-130429740D01*
X130102364Y-130470129D01*
G37*
G36*
X95098385Y-127959542D02*
G01*
X95248210Y-127989344D01*
X95530474Y-128106261D01*
X95784505Y-128275999D01*
X96000541Y-128492035D01*
X96170279Y-128746066D01*
X96287196Y-129028330D01*
X96346800Y-129327980D01*
X96346800Y-129633500D01*
X96287196Y-129933150D01*
X96170279Y-130215414D01*
X96000541Y-130469445D01*
X95784505Y-130685481D01*
X95530474Y-130855219D01*
X95248210Y-130972136D01*
X95194070Y-130982905D01*
X94948561Y-131031740D01*
X94643039Y-131031740D01*
X94397530Y-130982905D01*
X94343390Y-130972136D01*
X94061126Y-130855219D01*
X93807095Y-130685481D01*
X93591059Y-130469445D01*
X93421321Y-130215414D01*
X93304404Y-129933150D01*
X93244800Y-129633500D01*
X93244800Y-129327980D01*
X93304404Y-129028330D01*
X93421321Y-128746066D01*
X93591059Y-128492035D01*
X93807095Y-128275999D01*
X94061126Y-128106261D01*
X94343390Y-127989344D01*
X94493215Y-127959542D01*
X94643039Y-127929740D01*
X94948561Y-127929740D01*
X95098385Y-127959542D01*
G37*
G36*
X126098385Y-127959542D02*
G01*
X126248210Y-127989344D01*
X126530474Y-128106261D01*
X126784505Y-128275999D01*
X127000541Y-128492035D01*
X127170279Y-128746066D01*
X127287196Y-129028330D01*
X127346800Y-129327980D01*
X127346800Y-129633500D01*
X127287196Y-129933150D01*
X127170279Y-130215414D01*
X127000541Y-130469445D01*
X126784505Y-130685481D01*
X126530474Y-130855219D01*
X126248210Y-130972136D01*
X126194070Y-130982905D01*
X125948561Y-131031740D01*
X125643039Y-131031740D01*
X125397530Y-130982905D01*
X125343390Y-130972136D01*
X125061126Y-130855219D01*
X124807095Y-130685481D01*
X124591059Y-130469445D01*
X124421321Y-130215414D01*
X124304404Y-129933150D01*
X124244800Y-129633500D01*
X124244800Y-129327980D01*
X124304404Y-129028330D01*
X124421321Y-128746066D01*
X124591059Y-128492035D01*
X124807095Y-128275999D01*
X125061126Y-128106261D01*
X125343390Y-127989344D01*
X125493215Y-127959542D01*
X125643039Y-127929740D01*
X125948561Y-127929740D01*
X126098385Y-127959542D01*
G37*
G36*
X132504233Y-123385633D02*
G01*
X132594457Y-123403579D01*
X132700067Y-123447325D01*
X132849421Y-123509189D01*
X132849422Y-123509190D01*
X133078886Y-123662512D01*
X133274028Y-123857654D01*
X133376475Y-124010977D01*
X133427351Y-124087119D01*
X133532961Y-124342084D01*
X133586800Y-124612752D01*
X133586800Y-124888728D01*
X133532961Y-125159396D01*
X133427351Y-125414361D01*
X133427350Y-125414362D01*
X133274028Y-125643826D01*
X133078886Y-125838968D01*
X132925563Y-125941415D01*
X132849421Y-125992291D01*
X132700067Y-126054155D01*
X132594457Y-126097901D01*
X132504233Y-126115847D01*
X132323788Y-126151740D01*
X132047812Y-126151740D01*
X131867367Y-126115847D01*
X131777143Y-126097901D01*
X131671533Y-126054155D01*
X131522179Y-125992291D01*
X131446037Y-125941415D01*
X131292714Y-125838968D01*
X131097572Y-125643826D01*
X130944250Y-125414362D01*
X130944249Y-125414361D01*
X130838639Y-125159396D01*
X130784800Y-124888728D01*
X130784800Y-124612752D01*
X130838639Y-124342084D01*
X130944249Y-124087119D01*
X130995125Y-124010977D01*
X131097572Y-123857654D01*
X131292714Y-123662512D01*
X131522178Y-123509190D01*
X131522179Y-123509189D01*
X131671533Y-123447325D01*
X131777143Y-123403579D01*
X131867367Y-123385633D01*
X132047812Y-123349740D01*
X132323788Y-123349740D01*
X132504233Y-123385633D01*
G37*
G36*
X69184233Y-123385633D02*
G01*
X69274457Y-123403579D01*
X69380067Y-123447325D01*
X69529421Y-123509189D01*
X69529422Y-123509190D01*
X69758886Y-123662512D01*
X69954028Y-123857654D01*
X70056475Y-124010977D01*
X70107351Y-124087119D01*
X70212961Y-124342084D01*
X70266800Y-124612752D01*
X70266800Y-124888728D01*
X70212961Y-125159396D01*
X70107351Y-125414361D01*
X70107350Y-125414362D01*
X69954028Y-125643826D01*
X69758886Y-125838968D01*
X69605563Y-125941415D01*
X69529421Y-125992291D01*
X69380067Y-126054155D01*
X69274457Y-126097901D01*
X69184233Y-126115847D01*
X69003788Y-126151740D01*
X68727812Y-126151740D01*
X68547367Y-126115847D01*
X68457143Y-126097901D01*
X68351533Y-126054155D01*
X68202179Y-125992291D01*
X68126037Y-125941415D01*
X67972714Y-125838968D01*
X67777572Y-125643826D01*
X67624250Y-125414362D01*
X67624249Y-125414361D01*
X67518639Y-125159396D01*
X67464800Y-124888728D01*
X67464800Y-124612752D01*
X67518639Y-124342084D01*
X67624249Y-124087119D01*
X67675125Y-124010977D01*
X67777572Y-123857654D01*
X67972714Y-123662512D01*
X68202178Y-123509190D01*
X68202179Y-123509189D01*
X68351533Y-123447325D01*
X68457143Y-123403579D01*
X68547367Y-123385633D01*
X68727812Y-123349740D01*
X69003788Y-123349740D01*
X69184233Y-123385633D01*
G37*
G36*
X115585904Y-120850325D02*
G01*
X115754426Y-120920129D01*
X115906091Y-121021468D01*
X116035072Y-121150449D01*
X116136411Y-121302114D01*
X116206215Y-121470636D01*
X116241800Y-121649537D01*
X116241800Y-121831943D01*
X116206215Y-122010844D01*
X116136411Y-122179366D01*
X116035072Y-122331031D01*
X115906091Y-122460012D01*
X115754426Y-122561351D01*
X115585904Y-122631155D01*
X115407003Y-122666740D01*
X115224597Y-122666740D01*
X115045696Y-122631155D01*
X114877174Y-122561351D01*
X114725509Y-122460012D01*
X114596528Y-122331031D01*
X114495189Y-122179366D01*
X114425385Y-122010844D01*
X114389800Y-121831943D01*
X114389800Y-121649537D01*
X114425385Y-121470636D01*
X114495189Y-121302114D01*
X114596528Y-121150449D01*
X114725509Y-121021468D01*
X114877174Y-120920129D01*
X115045696Y-120850325D01*
X115224597Y-120814740D01*
X115407003Y-120814740D01*
X115585904Y-120850325D01*
G37*
G36*
X104663904Y-118604325D02*
G01*
X104832426Y-118674129D01*
X104984091Y-118775468D01*
X105113072Y-118904449D01*
X105214411Y-119056114D01*
X105284215Y-119224636D01*
X105319800Y-119403537D01*
X105319800Y-119585943D01*
X105284215Y-119764844D01*
X105214411Y-119933366D01*
X105113072Y-120085031D01*
X104984091Y-120214012D01*
X104832426Y-120315351D01*
X104663904Y-120385155D01*
X104485003Y-120420740D01*
X104302597Y-120420740D01*
X104123696Y-120385155D01*
X103955174Y-120315351D01*
X103803509Y-120214012D01*
X103674528Y-120085031D01*
X103573189Y-119933366D01*
X103503385Y-119764844D01*
X103467800Y-119585943D01*
X103467800Y-119403537D01*
X103503385Y-119224636D01*
X103573189Y-119056114D01*
X103674528Y-118904449D01*
X103803509Y-118775468D01*
X103955174Y-118674129D01*
X104123696Y-118604325D01*
X104302597Y-118568740D01*
X104485003Y-118568740D01*
X104663904Y-118604325D01*
G37*
G36*
X115585904Y-118350325D02*
G01*
X115754426Y-118420129D01*
X115906091Y-118521468D01*
X116035072Y-118650449D01*
X116136411Y-118802114D01*
X116206215Y-118970636D01*
X116241800Y-119149537D01*
X116241800Y-119331943D01*
X116206215Y-119510844D01*
X116136411Y-119679366D01*
X116035072Y-119831031D01*
X115906091Y-119960012D01*
X115754426Y-120061351D01*
X115585904Y-120131155D01*
X115407003Y-120166740D01*
X115224597Y-120166740D01*
X115045696Y-120131155D01*
X114877174Y-120061351D01*
X114725509Y-119960012D01*
X114596528Y-119831031D01*
X114495189Y-119679366D01*
X114425385Y-119510844D01*
X114389800Y-119331943D01*
X114389800Y-119149537D01*
X114425385Y-118970636D01*
X114495189Y-118802114D01*
X114596528Y-118650449D01*
X114725509Y-118521468D01*
X114877174Y-118420129D01*
X115045696Y-118350325D01*
X115224597Y-118314740D01*
X115407003Y-118314740D01*
X115585904Y-118350325D01*
G37*
G36*
X104663904Y-116104325D02*
G01*
X104832426Y-116174129D01*
X104984091Y-116275468D01*
X105113072Y-116404449D01*
X105214411Y-116556114D01*
X105284215Y-116724636D01*
X105319800Y-116903537D01*
X105319800Y-117085943D01*
X105284215Y-117264844D01*
X105214411Y-117433366D01*
X105113072Y-117585031D01*
X104984091Y-117714012D01*
X104832426Y-117815351D01*
X104663904Y-117885155D01*
X104485003Y-117920740D01*
X104302597Y-117920740D01*
X104123696Y-117885155D01*
X103955174Y-117815351D01*
X103803509Y-117714012D01*
X103674528Y-117585031D01*
X103573189Y-117433366D01*
X103503385Y-117264844D01*
X103467800Y-117085943D01*
X103467800Y-116903537D01*
X103503385Y-116724636D01*
X103573189Y-116556114D01*
X103674528Y-116404449D01*
X103803509Y-116275468D01*
X103955174Y-116174129D01*
X104123696Y-116104325D01*
X104302597Y-116068740D01*
X104485003Y-116068740D01*
X104663904Y-116104325D01*
G37*
G36*
X115585904Y-115850325D02*
G01*
X115754426Y-115920129D01*
X115906091Y-116021468D01*
X116035072Y-116150449D01*
X116136411Y-116302114D01*
X116206215Y-116470636D01*
X116241800Y-116649537D01*
X116241800Y-116831943D01*
X116206215Y-117010844D01*
X116136411Y-117179366D01*
X116035072Y-117331031D01*
X115906091Y-117460012D01*
X115754426Y-117561351D01*
X115585904Y-117631155D01*
X115407003Y-117666740D01*
X115224597Y-117666740D01*
X115045696Y-117631155D01*
X114877174Y-117561351D01*
X114725509Y-117460012D01*
X114596528Y-117331031D01*
X114495189Y-117179366D01*
X114425385Y-117010844D01*
X114389800Y-116831943D01*
X114389800Y-116649537D01*
X114425385Y-116470636D01*
X114495189Y-116302114D01*
X114596528Y-116150449D01*
X114725509Y-116021468D01*
X114877174Y-115920129D01*
X115045696Y-115850325D01*
X115224597Y-115814740D01*
X115407003Y-115814740D01*
X115585904Y-115850325D01*
G37*
G36*
X105319800Y-115420740D02*
G01*
X103467800Y-115420740D01*
X103467800Y-113568740D01*
X105319800Y-113568740D01*
X105319800Y-115420740D01*
G37*
G36*
X116241800Y-115166740D02*
G01*
X114389800Y-115166740D01*
X114389800Y-113314740D01*
X116241800Y-113314740D01*
X116241800Y-115166740D01*
G37*
G36*
X104276800Y-105161740D02*
G01*
X102474800Y-105161740D01*
X102474800Y-103359740D01*
X104276800Y-103359740D01*
X104276800Y-105161740D01*
G37*
G36*
X100949312Y-103364667D02*
G01*
X101098612Y-103394364D01*
X101262584Y-103462284D01*
X101410154Y-103560887D01*
X101535653Y-103686386D01*
X101634256Y-103833956D01*
X101702176Y-103997928D01*
X101736800Y-104171999D01*
X101736800Y-104349481D01*
X101702176Y-104523552D01*
X101634256Y-104687524D01*
X101535653Y-104835094D01*
X101410154Y-104960593D01*
X101262584Y-105059196D01*
X101098612Y-105127116D01*
X100949312Y-105156813D01*
X100924542Y-105161740D01*
X100747058Y-105161740D01*
X100722288Y-105156813D01*
X100572988Y-105127116D01*
X100409016Y-105059196D01*
X100261446Y-104960593D01*
X100135947Y-104835094D01*
X100037344Y-104687524D01*
X99969424Y-104523552D01*
X99934800Y-104349481D01*
X99934800Y-104171999D01*
X99969424Y-103997928D01*
X100037344Y-103833956D01*
X100135947Y-103686386D01*
X100261446Y-103560887D01*
X100409016Y-103462284D01*
X100572988Y-103394364D01*
X100722288Y-103364667D01*
X100747058Y-103359740D01*
X100924542Y-103359740D01*
X100949312Y-103364667D01*
G37*
G36*
X98409312Y-103364667D02*
G01*
X98558612Y-103394364D01*
X98722584Y-103462284D01*
X98870154Y-103560887D01*
X98995653Y-103686386D01*
X99094256Y-103833956D01*
X99162176Y-103997928D01*
X99196800Y-104171999D01*
X99196800Y-104349481D01*
X99162176Y-104523552D01*
X99094256Y-104687524D01*
X98995653Y-104835094D01*
X98870154Y-104960593D01*
X98722584Y-105059196D01*
X98558612Y-105127116D01*
X98409312Y-105156813D01*
X98384542Y-105161740D01*
X98207058Y-105161740D01*
X98182288Y-105156813D01*
X98032988Y-105127116D01*
X97869016Y-105059196D01*
X97721446Y-104960593D01*
X97595947Y-104835094D01*
X97497344Y-104687524D01*
X97429424Y-104523552D01*
X97394800Y-104349481D01*
X97394800Y-104171999D01*
X97429424Y-103997928D01*
X97497344Y-103833956D01*
X97595947Y-103686386D01*
X97721446Y-103560887D01*
X97869016Y-103462284D01*
X98032988Y-103394364D01*
X98182288Y-103364667D01*
X98207058Y-103359740D01*
X98384542Y-103359740D01*
X98409312Y-103364667D01*
G37*
M02*
