G04 #@! TF.GenerationSoftware,KiCad,Pcbnew,(5.1.5)-3*
G04 #@! TF.CreationDate,2020-06-11T20:41:51+02:00*
G04 #@! TF.ProjectId,StepperClockK02,53746570-7065-4724-936c-6f636b4b3032,v1.0*
G04 #@! TF.SameCoordinates,Original*
G04 #@! TF.FileFunction,Soldermask,Bot*
G04 #@! TF.FilePolarity,Negative*
%FSLAX46Y46*%
G04 Gerber Fmt 4.6, Leading zero omitted, Abs format (unit mm)*
G04 Created by KiCad (PCBNEW (5.1.5)-3) date 2020-06-11 20:41:51*
%MOMM*%
%LPD*%
G04 APERTURE LIST*
%ADD10C,0.100000*%
G04 APERTURE END LIST*
D10*
G36*
X104278800Y-182451740D02*
G01*
X102476800Y-182451740D01*
X102476800Y-180649740D01*
X104278800Y-180649740D01*
X104278800Y-182451740D01*
G37*
G36*
X100951312Y-180654667D02*
G01*
X101100612Y-180684364D01*
X101264584Y-180752284D01*
X101412154Y-180850887D01*
X101537653Y-180976386D01*
X101636256Y-181123956D01*
X101704176Y-181287928D01*
X101738800Y-181461999D01*
X101738800Y-181639481D01*
X101704176Y-181813552D01*
X101636256Y-181977524D01*
X101537653Y-182125094D01*
X101412154Y-182250593D01*
X101264584Y-182349196D01*
X101100612Y-182417116D01*
X100951312Y-182446813D01*
X100926542Y-182451740D01*
X100749058Y-182451740D01*
X100724288Y-182446813D01*
X100574988Y-182417116D01*
X100411016Y-182349196D01*
X100263446Y-182250593D01*
X100137947Y-182125094D01*
X100039344Y-181977524D01*
X99971424Y-181813552D01*
X99936800Y-181639481D01*
X99936800Y-181461999D01*
X99971424Y-181287928D01*
X100039344Y-181123956D01*
X100137947Y-180976386D01*
X100263446Y-180850887D01*
X100411016Y-180752284D01*
X100574988Y-180684364D01*
X100724288Y-180654667D01*
X100749058Y-180649740D01*
X100926542Y-180649740D01*
X100951312Y-180654667D01*
G37*
G36*
X98411312Y-180654667D02*
G01*
X98560612Y-180684364D01*
X98724584Y-180752284D01*
X98872154Y-180850887D01*
X98997653Y-180976386D01*
X99096256Y-181123956D01*
X99164176Y-181287928D01*
X99198800Y-181461999D01*
X99198800Y-181639481D01*
X99164176Y-181813552D01*
X99096256Y-181977524D01*
X98997653Y-182125094D01*
X98872154Y-182250593D01*
X98724584Y-182349196D01*
X98560612Y-182417116D01*
X98411312Y-182446813D01*
X98386542Y-182451740D01*
X98209058Y-182451740D01*
X98184288Y-182446813D01*
X98034988Y-182417116D01*
X97871016Y-182349196D01*
X97723446Y-182250593D01*
X97597947Y-182125094D01*
X97499344Y-181977524D01*
X97431424Y-181813552D01*
X97396800Y-181639481D01*
X97396800Y-181461999D01*
X97431424Y-181287928D01*
X97499344Y-181123956D01*
X97597947Y-180976386D01*
X97723446Y-180850887D01*
X97871016Y-180752284D01*
X98034988Y-180684364D01*
X98184288Y-180654667D01*
X98209058Y-180649740D01*
X98386542Y-180649740D01*
X98411312Y-180654667D01*
G37*
G36*
X111615904Y-170880325D02*
G01*
X111784426Y-170950129D01*
X111936091Y-171051468D01*
X112065072Y-171180449D01*
X112166411Y-171332114D01*
X112236215Y-171500636D01*
X112271800Y-171679537D01*
X112271800Y-171861943D01*
X112236215Y-172040844D01*
X112166411Y-172209366D01*
X112065072Y-172361031D01*
X111936091Y-172490012D01*
X111784426Y-172591351D01*
X111615904Y-172661155D01*
X111437003Y-172696740D01*
X111254597Y-172696740D01*
X111075696Y-172661155D01*
X110907174Y-172591351D01*
X110755509Y-172490012D01*
X110626528Y-172361031D01*
X110525189Y-172209366D01*
X110455385Y-172040844D01*
X110419800Y-171861943D01*
X110419800Y-171679537D01*
X110455385Y-171500636D01*
X110525189Y-171332114D01*
X110626528Y-171180449D01*
X110755509Y-171051468D01*
X110907174Y-170950129D01*
X111075696Y-170880325D01*
X111254597Y-170844740D01*
X111437003Y-170844740D01*
X111615904Y-170880325D01*
G37*
G36*
X118845904Y-170880325D02*
G01*
X119014426Y-170950129D01*
X119166091Y-171051468D01*
X119295072Y-171180449D01*
X119396411Y-171332114D01*
X119466215Y-171500636D01*
X119501800Y-171679537D01*
X119501800Y-171861943D01*
X119466215Y-172040844D01*
X119396411Y-172209366D01*
X119295072Y-172361031D01*
X119166091Y-172490012D01*
X119014426Y-172591351D01*
X118845904Y-172661155D01*
X118667003Y-172696740D01*
X118484597Y-172696740D01*
X118305696Y-172661155D01*
X118137174Y-172591351D01*
X117985509Y-172490012D01*
X117856528Y-172361031D01*
X117755189Y-172209366D01*
X117685385Y-172040844D01*
X117649800Y-171861943D01*
X117649800Y-171679537D01*
X117685385Y-171500636D01*
X117755189Y-171332114D01*
X117856528Y-171180449D01*
X117985509Y-171051468D01*
X118137174Y-170950129D01*
X118305696Y-170880325D01*
X118484597Y-170844740D01*
X118667003Y-170844740D01*
X118845904Y-170880325D01*
G37*
G36*
X118845904Y-168380325D02*
G01*
X119014426Y-168450129D01*
X119166091Y-168551468D01*
X119295072Y-168680449D01*
X119396411Y-168832114D01*
X119466215Y-169000636D01*
X119501800Y-169179537D01*
X119501800Y-169361943D01*
X119466215Y-169540844D01*
X119396411Y-169709366D01*
X119295072Y-169861031D01*
X119166091Y-169990012D01*
X119014426Y-170091351D01*
X118845904Y-170161155D01*
X118667003Y-170196740D01*
X118484597Y-170196740D01*
X118305696Y-170161155D01*
X118137174Y-170091351D01*
X117985509Y-169990012D01*
X117856528Y-169861031D01*
X117755189Y-169709366D01*
X117685385Y-169540844D01*
X117649800Y-169361943D01*
X117649800Y-169179537D01*
X117685385Y-169000636D01*
X117755189Y-168832114D01*
X117856528Y-168680449D01*
X117985509Y-168551468D01*
X118137174Y-168450129D01*
X118305696Y-168380325D01*
X118484597Y-168344740D01*
X118667003Y-168344740D01*
X118845904Y-168380325D01*
G37*
G36*
X111615904Y-168380325D02*
G01*
X111784426Y-168450129D01*
X111936091Y-168551468D01*
X112065072Y-168680449D01*
X112166411Y-168832114D01*
X112236215Y-169000636D01*
X112271800Y-169179537D01*
X112271800Y-169361943D01*
X112236215Y-169540844D01*
X112166411Y-169709366D01*
X112065072Y-169861031D01*
X111936091Y-169990012D01*
X111784426Y-170091351D01*
X111615904Y-170161155D01*
X111437003Y-170196740D01*
X111254597Y-170196740D01*
X111075696Y-170161155D01*
X110907174Y-170091351D01*
X110755509Y-169990012D01*
X110626528Y-169861031D01*
X110525189Y-169709366D01*
X110455385Y-169540844D01*
X110419800Y-169361943D01*
X110419800Y-169179537D01*
X110455385Y-169000636D01*
X110525189Y-168832114D01*
X110626528Y-168680449D01*
X110755509Y-168551468D01*
X110907174Y-168450129D01*
X111075696Y-168380325D01*
X111254597Y-168344740D01*
X111437003Y-168344740D01*
X111615904Y-168380325D01*
G37*
G36*
X82035904Y-166880325D02*
G01*
X82204426Y-166950129D01*
X82356091Y-167051468D01*
X82485072Y-167180449D01*
X82586411Y-167332114D01*
X82656215Y-167500636D01*
X82691800Y-167679537D01*
X82691800Y-167861943D01*
X82656215Y-168040844D01*
X82586411Y-168209366D01*
X82485072Y-168361031D01*
X82356091Y-168490012D01*
X82204426Y-168591351D01*
X82035904Y-168661155D01*
X81857003Y-168696740D01*
X81674597Y-168696740D01*
X81495696Y-168661155D01*
X81327174Y-168591351D01*
X81175509Y-168490012D01*
X81046528Y-168361031D01*
X80945189Y-168209366D01*
X80875385Y-168040844D01*
X80839800Y-167861943D01*
X80839800Y-167679537D01*
X80875385Y-167500636D01*
X80945189Y-167332114D01*
X81046528Y-167180449D01*
X81175509Y-167051468D01*
X81327174Y-166950129D01*
X81495696Y-166880325D01*
X81674597Y-166844740D01*
X81857003Y-166844740D01*
X82035904Y-166880325D01*
G37*
G36*
X79535904Y-166880325D02*
G01*
X79704426Y-166950129D01*
X79856091Y-167051468D01*
X79985072Y-167180449D01*
X80086411Y-167332114D01*
X80156215Y-167500636D01*
X80191800Y-167679537D01*
X80191800Y-167861943D01*
X80156215Y-168040844D01*
X80086411Y-168209366D01*
X79985072Y-168361031D01*
X79856091Y-168490012D01*
X79704426Y-168591351D01*
X79535904Y-168661155D01*
X79357003Y-168696740D01*
X79174597Y-168696740D01*
X78995696Y-168661155D01*
X78827174Y-168591351D01*
X78675509Y-168490012D01*
X78546528Y-168361031D01*
X78445189Y-168209366D01*
X78375385Y-168040844D01*
X78339800Y-167861943D01*
X78339800Y-167679537D01*
X78375385Y-167500636D01*
X78445189Y-167332114D01*
X78546528Y-167180449D01*
X78675509Y-167051468D01*
X78827174Y-166950129D01*
X78995696Y-166880325D01*
X79174597Y-166844740D01*
X79357003Y-166844740D01*
X79535904Y-166880325D01*
G37*
G36*
X77035904Y-166880325D02*
G01*
X77204426Y-166950129D01*
X77356091Y-167051468D01*
X77485072Y-167180449D01*
X77586411Y-167332114D01*
X77656215Y-167500636D01*
X77691800Y-167679537D01*
X77691800Y-167861943D01*
X77656215Y-168040844D01*
X77586411Y-168209366D01*
X77485072Y-168361031D01*
X77356091Y-168490012D01*
X77204426Y-168591351D01*
X77035904Y-168661155D01*
X76857003Y-168696740D01*
X76674597Y-168696740D01*
X76495696Y-168661155D01*
X76327174Y-168591351D01*
X76175509Y-168490012D01*
X76046528Y-168361031D01*
X75945189Y-168209366D01*
X75875385Y-168040844D01*
X75839800Y-167861943D01*
X75839800Y-167679537D01*
X75875385Y-167500636D01*
X75945189Y-167332114D01*
X76046528Y-167180449D01*
X76175509Y-167051468D01*
X76327174Y-166950129D01*
X76495696Y-166880325D01*
X76674597Y-166844740D01*
X76857003Y-166844740D01*
X77035904Y-166880325D01*
G37*
G36*
X85191800Y-168696740D02*
G01*
X83339800Y-168696740D01*
X83339800Y-166844740D01*
X85191800Y-166844740D01*
X85191800Y-168696740D01*
G37*
G36*
X111615904Y-165880325D02*
G01*
X111784426Y-165950129D01*
X111936091Y-166051468D01*
X112065072Y-166180449D01*
X112166411Y-166332114D01*
X112236215Y-166500636D01*
X112271800Y-166679537D01*
X112271800Y-166861943D01*
X112236215Y-167040844D01*
X112166411Y-167209366D01*
X112065072Y-167361031D01*
X111936091Y-167490012D01*
X111784426Y-167591351D01*
X111615904Y-167661155D01*
X111437003Y-167696740D01*
X111254597Y-167696740D01*
X111075696Y-167661155D01*
X110907174Y-167591351D01*
X110755509Y-167490012D01*
X110626528Y-167361031D01*
X110525189Y-167209366D01*
X110455385Y-167040844D01*
X110419800Y-166861943D01*
X110419800Y-166679537D01*
X110455385Y-166500636D01*
X110525189Y-166332114D01*
X110626528Y-166180449D01*
X110755509Y-166051468D01*
X110907174Y-165950129D01*
X111075696Y-165880325D01*
X111254597Y-165844740D01*
X111437003Y-165844740D01*
X111615904Y-165880325D01*
G37*
G36*
X118845904Y-165880325D02*
G01*
X119014426Y-165950129D01*
X119166091Y-166051468D01*
X119295072Y-166180449D01*
X119396411Y-166332114D01*
X119466215Y-166500636D01*
X119501800Y-166679537D01*
X119501800Y-166861943D01*
X119466215Y-167040844D01*
X119396411Y-167209366D01*
X119295072Y-167361031D01*
X119166091Y-167490012D01*
X119014426Y-167591351D01*
X118845904Y-167661155D01*
X118667003Y-167696740D01*
X118484597Y-167696740D01*
X118305696Y-167661155D01*
X118137174Y-167591351D01*
X117985509Y-167490012D01*
X117856528Y-167361031D01*
X117755189Y-167209366D01*
X117685385Y-167040844D01*
X117649800Y-166861943D01*
X117649800Y-166679537D01*
X117685385Y-166500636D01*
X117755189Y-166332114D01*
X117856528Y-166180449D01*
X117985509Y-166051468D01*
X118137174Y-165950129D01*
X118305696Y-165880325D01*
X118484597Y-165844740D01*
X118667003Y-165844740D01*
X118845904Y-165880325D01*
G37*
G36*
X131413565Y-164825143D02*
G01*
X131536245Y-164849545D01*
X131767371Y-164945281D01*
X131975378Y-165084267D01*
X132152273Y-165261162D01*
X132291259Y-165469169D01*
X132386995Y-165700295D01*
X132435800Y-165945656D01*
X132435800Y-166195824D01*
X132386995Y-166441185D01*
X132291259Y-166672311D01*
X132221295Y-166777019D01*
X132176046Y-166844740D01*
X132152273Y-166880318D01*
X131975378Y-167057213D01*
X131767371Y-167196199D01*
X131536245Y-167291935D01*
X131413564Y-167316338D01*
X131290885Y-167340740D01*
X131040715Y-167340740D01*
X130918036Y-167316338D01*
X130795355Y-167291935D01*
X130564229Y-167196199D01*
X130356222Y-167057213D01*
X130179327Y-166880318D01*
X130155555Y-166844740D01*
X130110305Y-166777019D01*
X130040341Y-166672311D01*
X129944605Y-166441185D01*
X129895800Y-166195824D01*
X129895800Y-165945656D01*
X129944605Y-165700295D01*
X130040341Y-165469169D01*
X130179327Y-165261162D01*
X130356222Y-165084267D01*
X130564229Y-164945281D01*
X130795355Y-164849545D01*
X130918035Y-164825143D01*
X131040715Y-164800740D01*
X131290885Y-164800740D01*
X131413565Y-164825143D01*
G37*
G36*
X112271800Y-165196740D02*
G01*
X110419800Y-165196740D01*
X110419800Y-163344740D01*
X112271800Y-163344740D01*
X112271800Y-165196740D01*
G37*
G36*
X119501800Y-165196740D02*
G01*
X117649800Y-165196740D01*
X117649800Y-163344740D01*
X119501800Y-163344740D01*
X119501800Y-165196740D01*
G37*
G36*
X132504233Y-159665633D02*
G01*
X132594457Y-159683579D01*
X132700067Y-159727325D01*
X132849421Y-159789189D01*
X132925563Y-159840065D01*
X133078886Y-159942512D01*
X133274028Y-160137654D01*
X133288535Y-160159366D01*
X133427351Y-160367119D01*
X133457544Y-160440011D01*
X133532961Y-160622083D01*
X133550907Y-160712307D01*
X133586800Y-160892752D01*
X133586800Y-161168728D01*
X133532961Y-161439396D01*
X133427351Y-161694361D01*
X133427350Y-161694362D01*
X133274028Y-161923826D01*
X133078886Y-162118968D01*
X132925563Y-162221415D01*
X132849421Y-162272291D01*
X132700067Y-162334155D01*
X132594457Y-162377901D01*
X132504233Y-162395847D01*
X132323788Y-162431740D01*
X132047812Y-162431740D01*
X131867367Y-162395847D01*
X131777143Y-162377901D01*
X131671533Y-162334155D01*
X131522179Y-162272291D01*
X131446037Y-162221415D01*
X131292714Y-162118968D01*
X131097572Y-161923826D01*
X130944250Y-161694362D01*
X130944249Y-161694361D01*
X130838639Y-161439396D01*
X130784800Y-161168728D01*
X130784800Y-160892752D01*
X130820693Y-160712307D01*
X130838639Y-160622083D01*
X130914056Y-160440011D01*
X130944249Y-160367119D01*
X131083065Y-160159366D01*
X131097572Y-160137654D01*
X131292714Y-159942512D01*
X131446037Y-159840065D01*
X131522179Y-159789189D01*
X131671533Y-159727325D01*
X131777143Y-159683579D01*
X131867367Y-159665633D01*
X132047812Y-159629740D01*
X132323788Y-159629740D01*
X132504233Y-159665633D01*
G37*
G36*
X69184233Y-159665633D02*
G01*
X69274457Y-159683579D01*
X69380067Y-159727325D01*
X69529421Y-159789189D01*
X69605563Y-159840065D01*
X69758886Y-159942512D01*
X69954028Y-160137654D01*
X69968535Y-160159366D01*
X70107351Y-160367119D01*
X70137544Y-160440011D01*
X70212961Y-160622083D01*
X70230907Y-160712307D01*
X70266800Y-160892752D01*
X70266800Y-161168728D01*
X70212961Y-161439396D01*
X70107351Y-161694361D01*
X70107350Y-161694362D01*
X69954028Y-161923826D01*
X69758886Y-162118968D01*
X69605563Y-162221415D01*
X69529421Y-162272291D01*
X69380067Y-162334155D01*
X69274457Y-162377901D01*
X69184233Y-162395847D01*
X69003788Y-162431740D01*
X68727812Y-162431740D01*
X68547367Y-162395847D01*
X68457143Y-162377901D01*
X68351533Y-162334155D01*
X68202179Y-162272291D01*
X68126037Y-162221415D01*
X67972714Y-162118968D01*
X67777572Y-161923826D01*
X67624250Y-161694362D01*
X67624249Y-161694361D01*
X67518639Y-161439396D01*
X67464800Y-161168728D01*
X67464800Y-160892752D01*
X67500693Y-160712307D01*
X67518639Y-160622083D01*
X67594056Y-160440011D01*
X67624249Y-160367119D01*
X67763065Y-160159366D01*
X67777572Y-160137654D01*
X67972714Y-159942512D01*
X68126037Y-159840065D01*
X68202179Y-159789189D01*
X68351533Y-159727325D01*
X68457143Y-159683579D01*
X68547367Y-159665633D01*
X68727812Y-159629740D01*
X69003788Y-159629740D01*
X69184233Y-159665633D01*
G37*
G36*
X84535904Y-158830325D02*
G01*
X84704426Y-158900129D01*
X84856091Y-159001468D01*
X84985072Y-159130449D01*
X85086411Y-159282114D01*
X85156215Y-159450636D01*
X85191800Y-159629537D01*
X85191800Y-159811943D01*
X85156215Y-159990844D01*
X85086411Y-160159366D01*
X84985072Y-160311031D01*
X84856091Y-160440012D01*
X84704426Y-160541351D01*
X84535904Y-160611155D01*
X84357003Y-160646740D01*
X84174597Y-160646740D01*
X83995696Y-160611155D01*
X83827174Y-160541351D01*
X83675509Y-160440012D01*
X83546528Y-160311031D01*
X83445189Y-160159366D01*
X83375385Y-159990844D01*
X83339800Y-159811943D01*
X83339800Y-159629537D01*
X83375385Y-159450636D01*
X83445189Y-159282114D01*
X83546528Y-159130449D01*
X83675509Y-159001468D01*
X83827174Y-158900129D01*
X83995696Y-158830325D01*
X84174597Y-158794740D01*
X84357003Y-158794740D01*
X84535904Y-158830325D01*
G37*
G36*
X77691800Y-160646740D02*
G01*
X75839800Y-160646740D01*
X75839800Y-158794740D01*
X77691800Y-158794740D01*
X77691800Y-160646740D01*
G37*
G36*
X79535904Y-158830325D02*
G01*
X79704426Y-158900129D01*
X79856091Y-159001468D01*
X79985072Y-159130449D01*
X80086411Y-159282114D01*
X80156215Y-159450636D01*
X80191800Y-159629537D01*
X80191800Y-159811943D01*
X80156215Y-159990844D01*
X80086411Y-160159366D01*
X79985072Y-160311031D01*
X79856091Y-160440012D01*
X79704426Y-160541351D01*
X79535904Y-160611155D01*
X79357003Y-160646740D01*
X79174597Y-160646740D01*
X78995696Y-160611155D01*
X78827174Y-160541351D01*
X78675509Y-160440012D01*
X78546528Y-160311031D01*
X78445189Y-160159366D01*
X78375385Y-159990844D01*
X78339800Y-159811943D01*
X78339800Y-159629537D01*
X78375385Y-159450636D01*
X78445189Y-159282114D01*
X78546528Y-159130449D01*
X78675509Y-159001468D01*
X78827174Y-158900129D01*
X78995696Y-158830325D01*
X79174597Y-158794740D01*
X79357003Y-158794740D01*
X79535904Y-158830325D01*
G37*
G36*
X82035904Y-158830325D02*
G01*
X82204426Y-158900129D01*
X82356091Y-159001468D01*
X82485072Y-159130449D01*
X82586411Y-159282114D01*
X82656215Y-159450636D01*
X82691800Y-159629537D01*
X82691800Y-159811943D01*
X82656215Y-159990844D01*
X82586411Y-160159366D01*
X82485072Y-160311031D01*
X82356091Y-160440012D01*
X82204426Y-160541351D01*
X82035904Y-160611155D01*
X81857003Y-160646740D01*
X81674597Y-160646740D01*
X81495696Y-160611155D01*
X81327174Y-160541351D01*
X81175509Y-160440012D01*
X81046528Y-160311031D01*
X80945189Y-160159366D01*
X80875385Y-159990844D01*
X80839800Y-159811943D01*
X80839800Y-159629537D01*
X80875385Y-159450636D01*
X80945189Y-159282114D01*
X81046528Y-159130449D01*
X81175509Y-159001468D01*
X81327174Y-158900129D01*
X81495696Y-158830325D01*
X81674597Y-158794740D01*
X81857003Y-158794740D01*
X82035904Y-158830325D01*
G37*
G36*
X95098385Y-154959542D02*
G01*
X95248210Y-154989344D01*
X95530474Y-155106261D01*
X95784505Y-155275999D01*
X96000541Y-155492035D01*
X96170279Y-155746066D01*
X96287196Y-156028330D01*
X96346800Y-156327980D01*
X96346800Y-156633500D01*
X96287196Y-156933150D01*
X96170279Y-157215414D01*
X96000541Y-157469445D01*
X95784505Y-157685481D01*
X95530474Y-157855219D01*
X95248210Y-157972136D01*
X95098385Y-158001938D01*
X94948561Y-158031740D01*
X94643039Y-158031740D01*
X94493215Y-158001938D01*
X94343390Y-157972136D01*
X94061126Y-157855219D01*
X93807095Y-157685481D01*
X93591059Y-157469445D01*
X93421321Y-157215414D01*
X93304404Y-156933150D01*
X93244800Y-156633500D01*
X93244800Y-156327980D01*
X93304404Y-156028330D01*
X93421321Y-155746066D01*
X93591059Y-155492035D01*
X93807095Y-155275999D01*
X94061126Y-155106261D01*
X94343390Y-154989344D01*
X94493215Y-154959542D01*
X94643039Y-154929740D01*
X94948561Y-154929740D01*
X95098385Y-154959542D01*
G37*
G36*
X126098385Y-154959542D02*
G01*
X126248210Y-154989344D01*
X126530474Y-155106261D01*
X126784505Y-155275999D01*
X127000541Y-155492035D01*
X127170279Y-155746066D01*
X127287196Y-156028330D01*
X127346800Y-156327980D01*
X127346800Y-156633500D01*
X127287196Y-156933150D01*
X127170279Y-157215414D01*
X127000541Y-157469445D01*
X126784505Y-157685481D01*
X126530474Y-157855219D01*
X126248210Y-157972136D01*
X126098385Y-158001938D01*
X125948561Y-158031740D01*
X125643039Y-158031740D01*
X125493215Y-158001938D01*
X125343390Y-157972136D01*
X125061126Y-157855219D01*
X124807095Y-157685481D01*
X124591059Y-157469445D01*
X124421321Y-157215414D01*
X124304404Y-156933150D01*
X124244800Y-156633500D01*
X124244800Y-156327980D01*
X124304404Y-156028330D01*
X124421321Y-155746066D01*
X124591059Y-155492035D01*
X124807095Y-155275999D01*
X125061126Y-155106261D01*
X125343390Y-154989344D01*
X125493215Y-154959542D01*
X125643039Y-154929740D01*
X125948561Y-154929740D01*
X126098385Y-154959542D01*
G37*
G36*
X110831131Y-153688951D02*
G01*
X111158892Y-153824714D01*
X111453870Y-154021812D01*
X111704728Y-154272670D01*
X111901826Y-154567648D01*
X112037589Y-154895409D01*
X112106800Y-155243356D01*
X112106800Y-155598124D01*
X112037589Y-155946071D01*
X111901826Y-156273832D01*
X111704728Y-156568810D01*
X111453870Y-156819668D01*
X111158892Y-157016766D01*
X110831131Y-157152529D01*
X110483184Y-157221740D01*
X110128416Y-157221740D01*
X109780469Y-157152529D01*
X109452708Y-157016766D01*
X109157730Y-156819668D01*
X108906872Y-156568810D01*
X108709774Y-156273832D01*
X108574011Y-155946071D01*
X108504800Y-155598124D01*
X108504800Y-155243356D01*
X108574011Y-154895409D01*
X108709774Y-154567648D01*
X108906872Y-154272670D01*
X109157730Y-154021812D01*
X109452708Y-153824714D01*
X109780469Y-153688951D01*
X110128416Y-153619740D01*
X110483184Y-153619740D01*
X110831131Y-153688951D01*
G37*
G36*
X64343564Y-154545142D02*
G01*
X64466245Y-154569545D01*
X64697371Y-154665281D01*
X64905378Y-154804267D01*
X65082273Y-154981162D01*
X65221259Y-155189169D01*
X65316995Y-155420295D01*
X65365800Y-155665656D01*
X65365800Y-155915824D01*
X65316995Y-156161185D01*
X65221259Y-156392311D01*
X65082273Y-156600318D01*
X64905378Y-156777213D01*
X64697371Y-156916199D01*
X64466245Y-157011935D01*
X64343565Y-157036337D01*
X64220885Y-157060740D01*
X63970715Y-157060740D01*
X63848035Y-157036337D01*
X63725355Y-157011935D01*
X63494229Y-156916199D01*
X63286222Y-156777213D01*
X63109327Y-156600318D01*
X62970341Y-156392311D01*
X62874605Y-156161185D01*
X62825800Y-155915824D01*
X62825800Y-155665656D01*
X62874605Y-155420295D01*
X62970341Y-155189169D01*
X63109327Y-154981162D01*
X63286222Y-154804267D01*
X63494229Y-154665281D01*
X63725355Y-154569545D01*
X63848036Y-154545142D01*
X63970715Y-154520740D01*
X64220885Y-154520740D01*
X64343564Y-154545142D01*
G37*
G36*
X122102364Y-153470129D02*
G01*
X122293633Y-153549355D01*
X122293635Y-153549356D01*
X122398972Y-153619740D01*
X122465773Y-153664375D01*
X122612165Y-153810767D01*
X122727185Y-153982907D01*
X122806411Y-154174176D01*
X122846800Y-154377224D01*
X122846800Y-154584256D01*
X122806411Y-154787304D01*
X122747412Y-154929740D01*
X122727184Y-154978575D01*
X122612165Y-155150713D01*
X122465773Y-155297105D01*
X122293635Y-155412124D01*
X122293634Y-155412125D01*
X122293633Y-155412125D01*
X122102364Y-155491351D01*
X121899316Y-155531740D01*
X121692284Y-155531740D01*
X121489236Y-155491351D01*
X121297967Y-155412125D01*
X121297966Y-155412125D01*
X121297965Y-155412124D01*
X121125827Y-155297105D01*
X120979435Y-155150713D01*
X120864416Y-154978575D01*
X120844188Y-154929740D01*
X120785189Y-154787304D01*
X120744800Y-154584256D01*
X120744800Y-154377224D01*
X120785189Y-154174176D01*
X120864415Y-153982907D01*
X120979435Y-153810767D01*
X121125827Y-153664375D01*
X121192628Y-153619740D01*
X121297965Y-153549356D01*
X121297967Y-153549355D01*
X121489236Y-153470129D01*
X121692284Y-153429740D01*
X121899316Y-153429740D01*
X122102364Y-153470129D01*
G37*
G36*
X130102364Y-153470129D02*
G01*
X130293633Y-153549355D01*
X130293635Y-153549356D01*
X130398972Y-153619740D01*
X130465773Y-153664375D01*
X130612165Y-153810767D01*
X130727185Y-153982907D01*
X130806411Y-154174176D01*
X130846800Y-154377224D01*
X130846800Y-154584256D01*
X130806411Y-154787304D01*
X130747412Y-154929740D01*
X130727184Y-154978575D01*
X130612165Y-155150713D01*
X130465773Y-155297105D01*
X130293635Y-155412124D01*
X130293634Y-155412125D01*
X130293633Y-155412125D01*
X130102364Y-155491351D01*
X129899316Y-155531740D01*
X129692284Y-155531740D01*
X129489236Y-155491351D01*
X129297967Y-155412125D01*
X129297966Y-155412125D01*
X129297965Y-155412124D01*
X129125827Y-155297105D01*
X128979435Y-155150713D01*
X128864416Y-154978575D01*
X128844188Y-154929740D01*
X128785189Y-154787304D01*
X128744800Y-154584256D01*
X128744800Y-154377224D01*
X128785189Y-154174176D01*
X128864415Y-153982907D01*
X128979435Y-153810767D01*
X129125827Y-153664375D01*
X129192628Y-153619740D01*
X129297965Y-153549356D01*
X129297967Y-153549355D01*
X129489236Y-153470129D01*
X129692284Y-153429740D01*
X129899316Y-153429740D01*
X130102364Y-153470129D01*
G37*
G36*
X99102364Y-153470129D02*
G01*
X99293633Y-153549355D01*
X99293635Y-153549356D01*
X99398972Y-153619740D01*
X99465773Y-153664375D01*
X99612165Y-153810767D01*
X99727185Y-153982907D01*
X99806411Y-154174176D01*
X99846800Y-154377224D01*
X99846800Y-154584256D01*
X99806411Y-154787304D01*
X99747412Y-154929740D01*
X99727184Y-154978575D01*
X99612165Y-155150713D01*
X99465773Y-155297105D01*
X99293635Y-155412124D01*
X99293634Y-155412125D01*
X99293633Y-155412125D01*
X99102364Y-155491351D01*
X98899316Y-155531740D01*
X98692284Y-155531740D01*
X98489236Y-155491351D01*
X98297967Y-155412125D01*
X98297966Y-155412125D01*
X98297965Y-155412124D01*
X98125827Y-155297105D01*
X97979435Y-155150713D01*
X97864416Y-154978575D01*
X97844188Y-154929740D01*
X97785189Y-154787304D01*
X97744800Y-154584256D01*
X97744800Y-154377224D01*
X97785189Y-154174176D01*
X97864415Y-153982907D01*
X97979435Y-153810767D01*
X98125827Y-153664375D01*
X98192628Y-153619740D01*
X98297965Y-153549356D01*
X98297967Y-153549355D01*
X98489236Y-153470129D01*
X98692284Y-153429740D01*
X98899316Y-153429740D01*
X99102364Y-153470129D01*
G37*
G36*
X91102364Y-153470129D02*
G01*
X91293633Y-153549355D01*
X91293635Y-153549356D01*
X91398972Y-153619740D01*
X91465773Y-153664375D01*
X91612165Y-153810767D01*
X91727185Y-153982907D01*
X91806411Y-154174176D01*
X91846800Y-154377224D01*
X91846800Y-154584256D01*
X91806411Y-154787304D01*
X91747412Y-154929740D01*
X91727184Y-154978575D01*
X91612165Y-155150713D01*
X91465773Y-155297105D01*
X91293635Y-155412124D01*
X91293634Y-155412125D01*
X91293633Y-155412125D01*
X91102364Y-155491351D01*
X90899316Y-155531740D01*
X90692284Y-155531740D01*
X90489236Y-155491351D01*
X90297967Y-155412125D01*
X90297966Y-155412125D01*
X90297965Y-155412124D01*
X90125827Y-155297105D01*
X89979435Y-155150713D01*
X89864416Y-154978575D01*
X89844188Y-154929740D01*
X89785189Y-154787304D01*
X89744800Y-154584256D01*
X89744800Y-154377224D01*
X89785189Y-154174176D01*
X89864415Y-153982907D01*
X89979435Y-153810767D01*
X90125827Y-153664375D01*
X90192628Y-153619740D01*
X90297965Y-153549356D01*
X90297967Y-153549355D01*
X90489236Y-153470129D01*
X90692284Y-153429740D01*
X90899316Y-153429740D01*
X91102364Y-153470129D01*
G37*
G36*
X120756800Y-147286740D02*
G01*
X119854800Y-147286740D01*
X119854800Y-146434740D01*
X120756800Y-146434740D01*
X120756800Y-147286740D01*
G37*
G36*
X119256800Y-147286740D02*
G01*
X118354800Y-147286740D01*
X118354800Y-146434740D01*
X119256800Y-146434740D01*
X119256800Y-147286740D01*
G37*
G36*
X134796800Y-147286740D02*
G01*
X133894800Y-147286740D01*
X133894800Y-146434740D01*
X134796800Y-146434740D01*
X134796800Y-147286740D01*
G37*
G36*
X133296800Y-147286740D02*
G01*
X132394800Y-147286740D01*
X132394800Y-146434740D01*
X133296800Y-146434740D01*
X133296800Y-147286740D01*
G37*
G36*
X101685743Y-140486988D02*
G01*
X102240989Y-140716978D01*
X102240990Y-140716979D01*
X102740699Y-141050874D01*
X103165666Y-141475841D01*
X103165667Y-141475843D01*
X103499562Y-141975551D01*
X103729552Y-142530797D01*
X103846800Y-143120241D01*
X103846800Y-143721239D01*
X103729552Y-144310683D01*
X103499562Y-144865929D01*
X103499561Y-144865930D01*
X103165666Y-145365639D01*
X102740699Y-145790606D01*
X102489147Y-145958688D01*
X102240989Y-146124502D01*
X101685743Y-146354492D01*
X101096299Y-146471740D01*
X100495301Y-146471740D01*
X99905857Y-146354492D01*
X99350611Y-146124502D01*
X99102453Y-145958688D01*
X98850901Y-145790606D01*
X98425934Y-145365639D01*
X98092039Y-144865930D01*
X98092038Y-144865929D01*
X97862048Y-144310683D01*
X97744800Y-143721239D01*
X97744800Y-143120241D01*
X97862048Y-142530797D01*
X98092038Y-141975551D01*
X98425933Y-141475843D01*
X98425934Y-141475841D01*
X98850901Y-141050874D01*
X99350610Y-140716979D01*
X99350611Y-140716978D01*
X99905857Y-140486988D01*
X100495301Y-140369740D01*
X101096299Y-140369740D01*
X101685743Y-140486988D01*
G37*
G36*
X119316800Y-144851740D02*
G01*
X118314800Y-144851740D01*
X118314800Y-143949740D01*
X119316800Y-143949740D01*
X119316800Y-144851740D01*
G37*
G36*
X133136800Y-144811740D02*
G01*
X132134800Y-144811740D01*
X132134800Y-143909740D01*
X133136800Y-143909740D01*
X133136800Y-144811740D01*
G37*
G36*
X121316800Y-143901740D02*
G01*
X120314800Y-143901740D01*
X120314800Y-142999740D01*
X121316800Y-142999740D01*
X121316800Y-143901740D01*
G37*
G36*
X135136800Y-143861740D02*
G01*
X134134800Y-143861740D01*
X134134800Y-142959740D01*
X135136800Y-142959740D01*
X135136800Y-143861740D01*
G37*
G36*
X119316800Y-142951740D02*
G01*
X118314800Y-142951740D01*
X118314800Y-142049740D01*
X119316800Y-142049740D01*
X119316800Y-142951740D01*
G37*
G36*
X133136800Y-142911740D02*
G01*
X132134800Y-142911740D01*
X132134800Y-142009740D01*
X133136800Y-142009740D01*
X133136800Y-142911740D01*
G37*
G36*
X135831131Y-132688951D02*
G01*
X136158892Y-132824714D01*
X136453870Y-133021812D01*
X136704728Y-133272670D01*
X136901826Y-133567648D01*
X137037589Y-133895409D01*
X137106800Y-134243356D01*
X137106800Y-134598124D01*
X137037589Y-134946071D01*
X136901826Y-135273832D01*
X136704728Y-135568810D01*
X136453870Y-135819668D01*
X136158892Y-136016766D01*
X135831131Y-136152529D01*
X135483184Y-136221740D01*
X135128416Y-136221740D01*
X134780469Y-136152529D01*
X134452708Y-136016766D01*
X134157730Y-135819668D01*
X133906872Y-135568810D01*
X133709774Y-135273832D01*
X133574011Y-134946071D01*
X133504800Y-134598124D01*
X133504800Y-134243356D01*
X133574011Y-133895409D01*
X133709774Y-133567648D01*
X133906872Y-133272670D01*
X134157730Y-133021812D01*
X134452708Y-132824714D01*
X134780469Y-132688951D01*
X135128416Y-132619740D01*
X135483184Y-132619740D01*
X135831131Y-132688951D01*
G37*
G36*
X85831131Y-132688951D02*
G01*
X86158892Y-132824714D01*
X86453870Y-133021812D01*
X86704728Y-133272670D01*
X86901826Y-133567648D01*
X87037589Y-133895409D01*
X87106800Y-134243356D01*
X87106800Y-134598124D01*
X87037589Y-134946071D01*
X86901826Y-135273832D01*
X86704728Y-135568810D01*
X86453870Y-135819668D01*
X86158892Y-136016766D01*
X85831131Y-136152529D01*
X85483184Y-136221740D01*
X85128416Y-136221740D01*
X84780469Y-136152529D01*
X84452708Y-136016766D01*
X84157730Y-135819668D01*
X83906872Y-135568810D01*
X83709774Y-135273832D01*
X83574011Y-134946071D01*
X83504800Y-134598124D01*
X83504800Y-134243356D01*
X83574011Y-133895409D01*
X83709774Y-133567648D01*
X83906872Y-133272670D01*
X84157730Y-133021812D01*
X84452708Y-132824714D01*
X84780469Y-132688951D01*
X85128416Y-132619740D01*
X85483184Y-132619740D01*
X85831131Y-132688951D01*
G37*
G36*
X130102364Y-130470129D02*
G01*
X130293633Y-130549355D01*
X130293635Y-130549356D01*
X130465773Y-130664375D01*
X130612165Y-130810767D01*
X130727185Y-130982907D01*
X130806411Y-131174176D01*
X130846800Y-131377224D01*
X130846800Y-131584256D01*
X130806411Y-131787304D01*
X130727185Y-131978573D01*
X130727184Y-131978575D01*
X130612165Y-132150713D01*
X130465773Y-132297105D01*
X130293635Y-132412124D01*
X130293634Y-132412125D01*
X130293633Y-132412125D01*
X130102364Y-132491351D01*
X129899316Y-132531740D01*
X129692284Y-132531740D01*
X129489236Y-132491351D01*
X129297967Y-132412125D01*
X129297966Y-132412125D01*
X129297965Y-132412124D01*
X129125827Y-132297105D01*
X128979435Y-132150713D01*
X128864416Y-131978575D01*
X128864415Y-131978573D01*
X128785189Y-131787304D01*
X128744800Y-131584256D01*
X128744800Y-131377224D01*
X128785189Y-131174176D01*
X128864415Y-130982907D01*
X128979435Y-130810767D01*
X129125827Y-130664375D01*
X129297965Y-130549356D01*
X129297967Y-130549355D01*
X129489236Y-130470129D01*
X129692284Y-130429740D01*
X129899316Y-130429740D01*
X130102364Y-130470129D01*
G37*
G36*
X91102364Y-130470129D02*
G01*
X91293633Y-130549355D01*
X91293635Y-130549356D01*
X91465773Y-130664375D01*
X91612165Y-130810767D01*
X91727185Y-130982907D01*
X91806411Y-131174176D01*
X91846800Y-131377224D01*
X91846800Y-131584256D01*
X91806411Y-131787304D01*
X91727185Y-131978573D01*
X91727184Y-131978575D01*
X91612165Y-132150713D01*
X91465773Y-132297105D01*
X91293635Y-132412124D01*
X91293634Y-132412125D01*
X91293633Y-132412125D01*
X91102364Y-132491351D01*
X90899316Y-132531740D01*
X90692284Y-132531740D01*
X90489236Y-132491351D01*
X90297967Y-132412125D01*
X90297966Y-132412125D01*
X90297965Y-132412124D01*
X90125827Y-132297105D01*
X89979435Y-132150713D01*
X89864416Y-131978575D01*
X89864415Y-131978573D01*
X89785189Y-131787304D01*
X89744800Y-131584256D01*
X89744800Y-131377224D01*
X89785189Y-131174176D01*
X89864415Y-130982907D01*
X89979435Y-130810767D01*
X90125827Y-130664375D01*
X90297965Y-130549356D01*
X90297967Y-130549355D01*
X90489236Y-130470129D01*
X90692284Y-130429740D01*
X90899316Y-130429740D01*
X91102364Y-130470129D01*
G37*
G36*
X122102364Y-130470129D02*
G01*
X122293633Y-130549355D01*
X122293635Y-130549356D01*
X122465773Y-130664375D01*
X122612165Y-130810767D01*
X122727185Y-130982907D01*
X122806411Y-131174176D01*
X122846800Y-131377224D01*
X122846800Y-131584256D01*
X122806411Y-131787304D01*
X122727185Y-131978573D01*
X122727184Y-131978575D01*
X122612165Y-132150713D01*
X122465773Y-132297105D01*
X122293635Y-132412124D01*
X122293634Y-132412125D01*
X122293633Y-132412125D01*
X122102364Y-132491351D01*
X121899316Y-132531740D01*
X121692284Y-132531740D01*
X121489236Y-132491351D01*
X121297967Y-132412125D01*
X121297966Y-132412125D01*
X121297965Y-132412124D01*
X121125827Y-132297105D01*
X120979435Y-132150713D01*
X120864416Y-131978575D01*
X120864415Y-131978573D01*
X120785189Y-131787304D01*
X120744800Y-131584256D01*
X120744800Y-131377224D01*
X120785189Y-131174176D01*
X120864415Y-130982907D01*
X120979435Y-130810767D01*
X121125827Y-130664375D01*
X121297965Y-130549356D01*
X121297967Y-130549355D01*
X121489236Y-130470129D01*
X121692284Y-130429740D01*
X121899316Y-130429740D01*
X122102364Y-130470129D01*
G37*
G36*
X99102364Y-130470129D02*
G01*
X99293633Y-130549355D01*
X99293635Y-130549356D01*
X99465773Y-130664375D01*
X99612165Y-130810767D01*
X99727185Y-130982907D01*
X99806411Y-131174176D01*
X99846800Y-131377224D01*
X99846800Y-131584256D01*
X99806411Y-131787304D01*
X99727185Y-131978573D01*
X99727184Y-131978575D01*
X99612165Y-132150713D01*
X99465773Y-132297105D01*
X99293635Y-132412124D01*
X99293634Y-132412125D01*
X99293633Y-132412125D01*
X99102364Y-132491351D01*
X98899316Y-132531740D01*
X98692284Y-132531740D01*
X98489236Y-132491351D01*
X98297967Y-132412125D01*
X98297966Y-132412125D01*
X98297965Y-132412124D01*
X98125827Y-132297105D01*
X97979435Y-132150713D01*
X97864416Y-131978575D01*
X97864415Y-131978573D01*
X97785189Y-131787304D01*
X97744800Y-131584256D01*
X97744800Y-131377224D01*
X97785189Y-131174176D01*
X97864415Y-130982907D01*
X97979435Y-130810767D01*
X98125827Y-130664375D01*
X98297965Y-130549356D01*
X98297967Y-130549355D01*
X98489236Y-130470129D01*
X98692284Y-130429740D01*
X98899316Y-130429740D01*
X99102364Y-130470129D01*
G37*
G36*
X95098385Y-127959542D02*
G01*
X95248210Y-127989344D01*
X95530474Y-128106261D01*
X95784505Y-128275999D01*
X96000541Y-128492035D01*
X96170279Y-128746066D01*
X96287196Y-129028330D01*
X96346800Y-129327980D01*
X96346800Y-129633500D01*
X96287196Y-129933150D01*
X96170279Y-130215414D01*
X96000541Y-130469445D01*
X95784505Y-130685481D01*
X95530474Y-130855219D01*
X95248210Y-130972136D01*
X95194070Y-130982905D01*
X94948561Y-131031740D01*
X94643039Y-131031740D01*
X94397530Y-130982905D01*
X94343390Y-130972136D01*
X94061126Y-130855219D01*
X93807095Y-130685481D01*
X93591059Y-130469445D01*
X93421321Y-130215414D01*
X93304404Y-129933150D01*
X93244800Y-129633500D01*
X93244800Y-129327980D01*
X93304404Y-129028330D01*
X93421321Y-128746066D01*
X93591059Y-128492035D01*
X93807095Y-128275999D01*
X94061126Y-128106261D01*
X94343390Y-127989344D01*
X94493215Y-127959542D01*
X94643039Y-127929740D01*
X94948561Y-127929740D01*
X95098385Y-127959542D01*
G37*
G36*
X126098385Y-127959542D02*
G01*
X126248210Y-127989344D01*
X126530474Y-128106261D01*
X126784505Y-128275999D01*
X127000541Y-128492035D01*
X127170279Y-128746066D01*
X127287196Y-129028330D01*
X127346800Y-129327980D01*
X127346800Y-129633500D01*
X127287196Y-129933150D01*
X127170279Y-130215414D01*
X127000541Y-130469445D01*
X126784505Y-130685481D01*
X126530474Y-130855219D01*
X126248210Y-130972136D01*
X126194070Y-130982905D01*
X125948561Y-131031740D01*
X125643039Y-131031740D01*
X125397530Y-130982905D01*
X125343390Y-130972136D01*
X125061126Y-130855219D01*
X124807095Y-130685481D01*
X124591059Y-130469445D01*
X124421321Y-130215414D01*
X124304404Y-129933150D01*
X124244800Y-129633500D01*
X124244800Y-129327980D01*
X124304404Y-129028330D01*
X124421321Y-128746066D01*
X124591059Y-128492035D01*
X124807095Y-128275999D01*
X125061126Y-128106261D01*
X125343390Y-127989344D01*
X125493215Y-127959542D01*
X125643039Y-127929740D01*
X125948561Y-127929740D01*
X126098385Y-127959542D01*
G37*
G36*
X69184233Y-123385633D02*
G01*
X69274457Y-123403579D01*
X69380067Y-123447325D01*
X69529421Y-123509189D01*
X69529422Y-123509190D01*
X69758886Y-123662512D01*
X69954028Y-123857654D01*
X70056475Y-124010977D01*
X70107351Y-124087119D01*
X70212961Y-124342084D01*
X70266800Y-124612752D01*
X70266800Y-124888728D01*
X70212961Y-125159396D01*
X70107351Y-125414361D01*
X70107350Y-125414362D01*
X69954028Y-125643826D01*
X69758886Y-125838968D01*
X69605563Y-125941415D01*
X69529421Y-125992291D01*
X69380067Y-126054155D01*
X69274457Y-126097901D01*
X69184233Y-126115847D01*
X69003788Y-126151740D01*
X68727812Y-126151740D01*
X68547367Y-126115847D01*
X68457143Y-126097901D01*
X68351533Y-126054155D01*
X68202179Y-125992291D01*
X68126037Y-125941415D01*
X67972714Y-125838968D01*
X67777572Y-125643826D01*
X67624250Y-125414362D01*
X67624249Y-125414361D01*
X67518639Y-125159396D01*
X67464800Y-124888728D01*
X67464800Y-124612752D01*
X67518639Y-124342084D01*
X67624249Y-124087119D01*
X67675125Y-124010977D01*
X67777572Y-123857654D01*
X67972714Y-123662512D01*
X68202178Y-123509190D01*
X68202179Y-123509189D01*
X68351533Y-123447325D01*
X68457143Y-123403579D01*
X68547367Y-123385633D01*
X68727812Y-123349740D01*
X69003788Y-123349740D01*
X69184233Y-123385633D01*
G37*
G36*
X132504233Y-123385633D02*
G01*
X132594457Y-123403579D01*
X132700067Y-123447325D01*
X132849421Y-123509189D01*
X132849422Y-123509190D01*
X133078886Y-123662512D01*
X133274028Y-123857654D01*
X133376475Y-124010977D01*
X133427351Y-124087119D01*
X133532961Y-124342084D01*
X133586800Y-124612752D01*
X133586800Y-124888728D01*
X133532961Y-125159396D01*
X133427351Y-125414361D01*
X133427350Y-125414362D01*
X133274028Y-125643826D01*
X133078886Y-125838968D01*
X132925563Y-125941415D01*
X132849421Y-125992291D01*
X132700067Y-126054155D01*
X132594457Y-126097901D01*
X132504233Y-126115847D01*
X132323788Y-126151740D01*
X132047812Y-126151740D01*
X131867367Y-126115847D01*
X131777143Y-126097901D01*
X131671533Y-126054155D01*
X131522179Y-125992291D01*
X131446037Y-125941415D01*
X131292714Y-125838968D01*
X131097572Y-125643826D01*
X130944250Y-125414362D01*
X130944249Y-125414361D01*
X130838639Y-125159396D01*
X130784800Y-124888728D01*
X130784800Y-124612752D01*
X130838639Y-124342084D01*
X130944249Y-124087119D01*
X130995125Y-124010977D01*
X131097572Y-123857654D01*
X131292714Y-123662512D01*
X131522178Y-123509190D01*
X131522179Y-123509189D01*
X131671533Y-123447325D01*
X131777143Y-123403579D01*
X131867367Y-123385633D01*
X132047812Y-123349740D01*
X132323788Y-123349740D01*
X132504233Y-123385633D01*
G37*
G36*
X124111800Y-123856740D02*
G01*
X122259800Y-123856740D01*
X122259800Y-122004740D01*
X124111800Y-122004740D01*
X124111800Y-123856740D01*
G37*
G36*
X116561800Y-123816740D02*
G01*
X114709800Y-123816740D01*
X114709800Y-121964740D01*
X116561800Y-121964740D01*
X116561800Y-123816740D01*
G37*
G36*
X91701800Y-123056740D02*
G01*
X89849800Y-123056740D01*
X89849800Y-121204740D01*
X91701800Y-121204740D01*
X91701800Y-123056740D01*
G37*
G36*
X93545904Y-121240325D02*
G01*
X93714426Y-121310129D01*
X93866091Y-121411468D01*
X93995072Y-121540449D01*
X94096411Y-121692114D01*
X94166215Y-121860636D01*
X94201800Y-122039537D01*
X94201800Y-122221943D01*
X94166215Y-122400844D01*
X94096411Y-122569366D01*
X93995072Y-122721031D01*
X93866091Y-122850012D01*
X93714426Y-122951351D01*
X93545904Y-123021155D01*
X93367003Y-123056740D01*
X93184597Y-123056740D01*
X93005696Y-123021155D01*
X92837174Y-122951351D01*
X92685509Y-122850012D01*
X92556528Y-122721031D01*
X92455189Y-122569366D01*
X92385385Y-122400844D01*
X92349800Y-122221943D01*
X92349800Y-122039537D01*
X92385385Y-121860636D01*
X92455189Y-121692114D01*
X92556528Y-121540449D01*
X92685509Y-121411468D01*
X92837174Y-121310129D01*
X93005696Y-121240325D01*
X93184597Y-121204740D01*
X93367003Y-121204740D01*
X93545904Y-121240325D01*
G37*
G36*
X96045904Y-121240325D02*
G01*
X96214426Y-121310129D01*
X96366091Y-121411468D01*
X96495072Y-121540449D01*
X96596411Y-121692114D01*
X96666215Y-121860636D01*
X96701800Y-122039537D01*
X96701800Y-122221943D01*
X96666215Y-122400844D01*
X96596411Y-122569366D01*
X96495072Y-122721031D01*
X96366091Y-122850012D01*
X96214426Y-122951351D01*
X96045904Y-123021155D01*
X95867003Y-123056740D01*
X95684597Y-123056740D01*
X95505696Y-123021155D01*
X95337174Y-122951351D01*
X95185509Y-122850012D01*
X95056528Y-122721031D01*
X94955189Y-122569366D01*
X94885385Y-122400844D01*
X94849800Y-122221943D01*
X94849800Y-122039537D01*
X94885385Y-121860636D01*
X94955189Y-121692114D01*
X95056528Y-121540449D01*
X95185509Y-121411468D01*
X95337174Y-121310129D01*
X95505696Y-121240325D01*
X95684597Y-121204740D01*
X95867003Y-121204740D01*
X96045904Y-121240325D01*
G37*
G36*
X98545904Y-121240325D02*
G01*
X98714426Y-121310129D01*
X98866091Y-121411468D01*
X98995072Y-121540449D01*
X99096411Y-121692114D01*
X99166215Y-121860636D01*
X99201800Y-122039537D01*
X99201800Y-122221943D01*
X99166215Y-122400844D01*
X99096411Y-122569366D01*
X98995072Y-122721031D01*
X98866091Y-122850012D01*
X98714426Y-122951351D01*
X98545904Y-123021155D01*
X98367003Y-123056740D01*
X98184597Y-123056740D01*
X98005696Y-123021155D01*
X97837174Y-122951351D01*
X97685509Y-122850012D01*
X97556528Y-122721031D01*
X97455189Y-122569366D01*
X97385385Y-122400844D01*
X97349800Y-122221943D01*
X97349800Y-122039537D01*
X97385385Y-121860636D01*
X97455189Y-121692114D01*
X97556528Y-121540449D01*
X97685509Y-121411468D01*
X97837174Y-121310129D01*
X98005696Y-121240325D01*
X98184597Y-121204740D01*
X98367003Y-121204740D01*
X98545904Y-121240325D01*
G37*
G36*
X123455904Y-119540325D02*
G01*
X123624426Y-119610129D01*
X123776091Y-119711468D01*
X123905072Y-119840449D01*
X124006411Y-119992114D01*
X124076215Y-120160636D01*
X124111800Y-120339537D01*
X124111800Y-120521943D01*
X124076215Y-120700844D01*
X124006411Y-120869366D01*
X123905072Y-121021031D01*
X123776091Y-121150012D01*
X123624426Y-121251351D01*
X123455904Y-121321155D01*
X123277003Y-121356740D01*
X123094597Y-121356740D01*
X122915696Y-121321155D01*
X122747174Y-121251351D01*
X122595509Y-121150012D01*
X122466528Y-121021031D01*
X122365189Y-120869366D01*
X122295385Y-120700844D01*
X122259800Y-120521943D01*
X122259800Y-120339537D01*
X122295385Y-120160636D01*
X122365189Y-119992114D01*
X122466528Y-119840449D01*
X122595509Y-119711468D01*
X122747174Y-119610129D01*
X122915696Y-119540325D01*
X123094597Y-119504740D01*
X123277003Y-119504740D01*
X123455904Y-119540325D01*
G37*
G36*
X115905904Y-119500325D02*
G01*
X116074426Y-119570129D01*
X116226091Y-119671468D01*
X116355072Y-119800449D01*
X116456411Y-119952114D01*
X116526215Y-120120636D01*
X116561800Y-120299537D01*
X116561800Y-120481943D01*
X116526215Y-120660844D01*
X116456411Y-120829366D01*
X116355072Y-120981031D01*
X116226091Y-121110012D01*
X116074426Y-121211351D01*
X115905904Y-121281155D01*
X115727003Y-121316740D01*
X115544597Y-121316740D01*
X115365696Y-121281155D01*
X115197174Y-121211351D01*
X115045509Y-121110012D01*
X114916528Y-120981031D01*
X114815189Y-120829366D01*
X114745385Y-120660844D01*
X114709800Y-120481943D01*
X114709800Y-120299537D01*
X114745385Y-120120636D01*
X114815189Y-119952114D01*
X114916528Y-119800449D01*
X115045509Y-119671468D01*
X115197174Y-119570129D01*
X115365696Y-119500325D01*
X115544597Y-119464740D01*
X115727003Y-119464740D01*
X115905904Y-119500325D01*
G37*
G36*
X81172378Y-116090937D02*
G01*
X81225150Y-116101434D01*
X81324570Y-116142615D01*
X81414046Y-116202401D01*
X81490139Y-116278494D01*
X81549925Y-116367970D01*
X81591106Y-116467390D01*
X81612100Y-116572934D01*
X81612100Y-116680546D01*
X81591106Y-116786090D01*
X81549925Y-116885510D01*
X81490139Y-116974986D01*
X81414046Y-117051079D01*
X81324570Y-117110865D01*
X81225150Y-117152046D01*
X81172378Y-117162543D01*
X81119607Y-117173040D01*
X81011993Y-117173040D01*
X80959222Y-117162543D01*
X80906450Y-117152046D01*
X80807030Y-117110865D01*
X80717554Y-117051079D01*
X80641461Y-116974986D01*
X80581675Y-116885510D01*
X80540494Y-116786090D01*
X80519500Y-116680546D01*
X80519500Y-116572934D01*
X80540494Y-116467390D01*
X80581675Y-116367970D01*
X80641461Y-116278494D01*
X80717554Y-116202401D01*
X80807030Y-116142615D01*
X80906450Y-116101434D01*
X80959222Y-116090937D01*
X81011993Y-116080440D01*
X81119607Y-116080440D01*
X81172378Y-116090937D01*
G37*
G36*
X126753564Y-113705142D02*
G01*
X126876245Y-113729545D01*
X127107371Y-113825281D01*
X127315378Y-113964267D01*
X127492273Y-114141162D01*
X127631259Y-114349169D01*
X127710691Y-114540933D01*
X127726995Y-114580296D01*
X127775800Y-114825655D01*
X127775800Y-115075825D01*
X127772978Y-115090011D01*
X127726995Y-115321185D01*
X127631259Y-115552311D01*
X127628170Y-115556934D01*
X127492274Y-115760317D01*
X127315377Y-115937214D01*
X127212079Y-116006235D01*
X127107371Y-116076199D01*
X127107370Y-116076200D01*
X127107369Y-116076200D01*
X127062310Y-116094864D01*
X126876245Y-116171935D01*
X126753564Y-116196338D01*
X126630885Y-116220740D01*
X126380715Y-116220740D01*
X126258036Y-116196338D01*
X126135355Y-116171935D01*
X125949290Y-116094864D01*
X125904231Y-116076200D01*
X125904230Y-116076200D01*
X125904229Y-116076199D01*
X125799521Y-116006235D01*
X125696223Y-115937214D01*
X125519326Y-115760317D01*
X125383430Y-115556934D01*
X125380341Y-115552311D01*
X125284605Y-115321185D01*
X125238622Y-115090011D01*
X125235800Y-115075825D01*
X125235800Y-114825655D01*
X125284605Y-114580296D01*
X125300910Y-114540933D01*
X125380341Y-114349169D01*
X125519327Y-114141162D01*
X125696222Y-113964267D01*
X125904229Y-113825281D01*
X126135355Y-113729545D01*
X126258036Y-113705142D01*
X126380715Y-113680740D01*
X126630885Y-113680740D01*
X126753564Y-113705142D01*
G37*
G36*
X86252378Y-115074937D02*
G01*
X86305150Y-115085434D01*
X86404570Y-115126615D01*
X86494046Y-115186401D01*
X86570139Y-115262494D01*
X86629925Y-115351970D01*
X86671106Y-115451390D01*
X86671106Y-115451391D01*
X86691181Y-115552311D01*
X86692100Y-115556934D01*
X86692100Y-115664546D01*
X86671106Y-115770090D01*
X86629925Y-115869510D01*
X86570139Y-115958986D01*
X86494046Y-116035079D01*
X86404570Y-116094865D01*
X86305150Y-116136046D01*
X86272125Y-116142615D01*
X86199607Y-116157040D01*
X86091993Y-116157040D01*
X86019475Y-116142615D01*
X85986450Y-116136046D01*
X85887030Y-116094865D01*
X85797554Y-116035079D01*
X85721461Y-115958986D01*
X85661675Y-115869510D01*
X85620494Y-115770090D01*
X85599500Y-115664546D01*
X85599500Y-115556934D01*
X85600420Y-115552311D01*
X85620494Y-115451391D01*
X85620494Y-115451390D01*
X85661675Y-115351970D01*
X85721461Y-115262494D01*
X85797554Y-115186401D01*
X85887030Y-115126615D01*
X85986450Y-115085434D01*
X86039222Y-115074937D01*
X86091993Y-115064440D01*
X86199607Y-115064440D01*
X86252378Y-115074937D01*
G37*
G36*
X121751800Y-115296740D02*
G01*
X119899800Y-115296740D01*
X119899800Y-113444740D01*
X121751800Y-113444740D01*
X121751800Y-115296740D01*
G37*
G36*
X118595904Y-113480325D02*
G01*
X118764426Y-113550129D01*
X118916091Y-113651468D01*
X119045072Y-113780449D01*
X119146411Y-113932114D01*
X119216215Y-114100636D01*
X119251800Y-114279537D01*
X119251800Y-114461943D01*
X119216215Y-114640844D01*
X119146411Y-114809366D01*
X119045072Y-114961031D01*
X118916091Y-115090012D01*
X118764426Y-115191351D01*
X118595904Y-115261155D01*
X118417003Y-115296740D01*
X118234597Y-115296740D01*
X118055696Y-115261155D01*
X117887174Y-115191351D01*
X117735509Y-115090012D01*
X117606528Y-114961031D01*
X117505189Y-114809366D01*
X117435385Y-114640844D01*
X117399800Y-114461943D01*
X117399800Y-114279537D01*
X117435385Y-114100636D01*
X117505189Y-113932114D01*
X117606528Y-113780449D01*
X117735509Y-113651468D01*
X117887174Y-113550129D01*
X118055696Y-113480325D01*
X118234597Y-113444740D01*
X118417003Y-113444740D01*
X118595904Y-113480325D01*
G37*
G36*
X116095904Y-113480325D02*
G01*
X116264426Y-113550129D01*
X116416091Y-113651468D01*
X116545072Y-113780449D01*
X116646411Y-113932114D01*
X116716215Y-114100636D01*
X116751800Y-114279537D01*
X116751800Y-114461943D01*
X116716215Y-114640844D01*
X116646411Y-114809366D01*
X116545072Y-114961031D01*
X116416091Y-115090012D01*
X116264426Y-115191351D01*
X116095904Y-115261155D01*
X115917003Y-115296740D01*
X115734597Y-115296740D01*
X115555696Y-115261155D01*
X115387174Y-115191351D01*
X115235509Y-115090012D01*
X115106528Y-114961031D01*
X115005189Y-114809366D01*
X114935385Y-114640844D01*
X114899800Y-114461943D01*
X114899800Y-114279537D01*
X114935385Y-114100636D01*
X115005189Y-113932114D01*
X115106528Y-113780449D01*
X115235509Y-113651468D01*
X115387174Y-113550129D01*
X115555696Y-113480325D01*
X115734597Y-113444740D01*
X115917003Y-113444740D01*
X116095904Y-113480325D01*
G37*
G36*
X81172378Y-114058937D02*
G01*
X81225150Y-114069434D01*
X81324570Y-114110615D01*
X81414046Y-114170401D01*
X81490139Y-114246494D01*
X81549925Y-114335970D01*
X81591106Y-114435390D01*
X81612100Y-114540934D01*
X81612100Y-114648546D01*
X81591106Y-114754090D01*
X81549925Y-114853510D01*
X81490139Y-114942986D01*
X81414046Y-115019079D01*
X81324570Y-115078865D01*
X81225150Y-115120046D01*
X81192125Y-115126615D01*
X81119607Y-115141040D01*
X81011993Y-115141040D01*
X80939475Y-115126615D01*
X80906450Y-115120046D01*
X80807030Y-115078865D01*
X80717554Y-115019079D01*
X80641461Y-114942986D01*
X80581675Y-114853510D01*
X80540494Y-114754090D01*
X80519500Y-114648546D01*
X80519500Y-114540934D01*
X80540494Y-114435390D01*
X80581675Y-114335970D01*
X80641461Y-114246494D01*
X80717554Y-114170401D01*
X80807030Y-114110615D01*
X80906450Y-114069434D01*
X80959222Y-114058937D01*
X81011993Y-114048440D01*
X81119607Y-114048440D01*
X81172378Y-114058937D01*
G37*
G36*
X104276800Y-105161740D02*
G01*
X102474800Y-105161740D01*
X102474800Y-103359740D01*
X104276800Y-103359740D01*
X104276800Y-105161740D01*
G37*
G36*
X100949312Y-103364667D02*
G01*
X101098612Y-103394364D01*
X101262584Y-103462284D01*
X101410154Y-103560887D01*
X101535653Y-103686386D01*
X101634256Y-103833956D01*
X101702176Y-103997928D01*
X101736800Y-104171999D01*
X101736800Y-104349481D01*
X101702176Y-104523552D01*
X101634256Y-104687524D01*
X101535653Y-104835094D01*
X101410154Y-104960593D01*
X101262584Y-105059196D01*
X101098612Y-105127116D01*
X100949312Y-105156813D01*
X100924542Y-105161740D01*
X100747058Y-105161740D01*
X100722288Y-105156813D01*
X100572988Y-105127116D01*
X100409016Y-105059196D01*
X100261446Y-104960593D01*
X100135947Y-104835094D01*
X100037344Y-104687524D01*
X99969424Y-104523552D01*
X99934800Y-104349481D01*
X99934800Y-104171999D01*
X99969424Y-103997928D01*
X100037344Y-103833956D01*
X100135947Y-103686386D01*
X100261446Y-103560887D01*
X100409016Y-103462284D01*
X100572988Y-103394364D01*
X100722288Y-103364667D01*
X100747058Y-103359740D01*
X100924542Y-103359740D01*
X100949312Y-103364667D01*
G37*
G36*
X98409312Y-103364667D02*
G01*
X98558612Y-103394364D01*
X98722584Y-103462284D01*
X98870154Y-103560887D01*
X98995653Y-103686386D01*
X99094256Y-103833956D01*
X99162176Y-103997928D01*
X99196800Y-104171999D01*
X99196800Y-104349481D01*
X99162176Y-104523552D01*
X99094256Y-104687524D01*
X98995653Y-104835094D01*
X98870154Y-104960593D01*
X98722584Y-105059196D01*
X98558612Y-105127116D01*
X98409312Y-105156813D01*
X98384542Y-105161740D01*
X98207058Y-105161740D01*
X98182288Y-105156813D01*
X98032988Y-105127116D01*
X97869016Y-105059196D01*
X97721446Y-104960593D01*
X97595947Y-104835094D01*
X97497344Y-104687524D01*
X97429424Y-104523552D01*
X97394800Y-104349481D01*
X97394800Y-104171999D01*
X97429424Y-103997928D01*
X97497344Y-103833956D01*
X97595947Y-103686386D01*
X97721446Y-103560887D01*
X97869016Y-103462284D01*
X98032988Y-103394364D01*
X98182288Y-103364667D01*
X98207058Y-103359740D01*
X98384542Y-103359740D01*
X98409312Y-103364667D01*
G37*
M02*
