M48
METRIC,TZ
T1C0.400
T2C0.850
T3C1.000
T4C1.050
%
G90
G05
T1
X62186Y-135311
X62346Y-141581
X63806Y-134291
X63806Y-144791
X64531Y-135143
X64706Y-129161
X65006Y-143801
X65297Y-133262
X65756Y-144502
X66022Y-132495
X66126Y-157071
X66756Y-143861
X67196Y-136011
X68776Y-120331
X70206Y-145691
X70316Y-167071
X71337Y-128447
X71501Y-127419
X71607Y-120687
X73316Y-123301
X73531Y-127688
X73541Y-124666
X73800Y-136805
X74026Y-144501
X74136Y-134491
X74256Y-126471
X74763Y-137074
X75036Y-143761
X75070Y-145466
X75116Y-113741
X75736Y-136841
X75806Y-116951
X75860Y-134501
X75886Y-127941
X76036Y-143761
X76601Y-128786
X76756Y-119891
X76896Y-134491
X77046Y-143831
X77101Y-129731
X77646Y-173381
X77745Y-119746
X78496Y-134491
X78745Y-119746
X79016Y-110621
X79455Y-120457
X80051Y-129670
X80056Y-144741
X80533Y-127621
X80546Y-139261
X80626Y-153851
X80846Y-145466
X81126Y-135121
X81676Y-121296
X82045Y-128946
X82316Y-113841
X82646Y-176481
X83567Y-112234
X83586Y-113241
X83596Y-127621
X84311Y-119731
X84506Y-113632
X85136Y-124396
X85396Y-129670
X85416Y-127621
X85566Y-107171
X86002Y-123896
X86156Y-138731
X86396Y-129670
X86416Y-127621
X87144Y-116949
X87566Y-133031
X87806Y-147361
X87846Y-143351
X87931Y-148353
X88323Y-145105
X88696Y-139261
X88711Y-112251
X88716Y-135771
X88716Y-138171
X88716Y-179331
X90086Y-169091
X90216Y-112251
X90386Y-160991
X90446Y-105381
X90446Y-116521
X90536Y-110731
X91628Y-127663
X92576Y-177441
X92886Y-140271
X94476Y-120131
X94936Y-104061
X95206Y-180941
X95666Y-175731
X95686Y-166231
X97826Y-134681
X98356Y-147321
X99266Y-148046
X99898Y-121534
X99916Y-119121
X100630Y-120852
X100641Y-118351
X101406Y-125446
X101406Y-126896
X101986Y-130351
X102776Y-164331
X103186Y-167041
X103226Y-110941
X104316Y-155461
X105846Y-118071
X105906Y-174331
X107056Y-181001
X108006Y-142001
X108906Y-132241
X108906Y-176101
X108976Y-171931
X109076Y-166481
X109116Y-160051
X109136Y-164131
X109981Y-114631
X113196Y-159921
X113205Y-107411
X113366Y-179161
X113536Y-171721
X113596Y-169521
X113635Y-166300
X113726Y-164271
X114466Y-176621
X114616Y-147901
X115396Y-107431
X115746Y-129541
X115776Y-164271
X115956Y-135771
X115956Y-166251
X115986Y-138221
X116036Y-142471
X116076Y-159981
X116116Y-171721
X116296Y-169491
X116826Y-155761
X117016Y-143441
X119666Y-162431
X119736Y-175941
X120606Y-173231
X120836Y-160151
X120876Y-139441
X123206Y-135111
X123376Y-147061
X123666Y-143071
X124146Y-112411
X124146Y-152061
X125396Y-172011
X129386Y-168201
X129856Y-137091
X130376Y-141771
X130516Y-118481
X130526Y-147291
X135466Y-129451
X136056Y-155611
X137546Y-151771
X137606Y-136511
X138436Y-142661
X138736Y-146291
T2
X90796Y-131481
X90796Y-154481
X98796Y-131481
X98796Y-154481
X121796Y-131481
X121796Y-154481
X129796Y-131481
X129796Y-154481
T3
X90776Y-122131
X93276Y-122131
X95776Y-122131
X98276Y-122131
X98298Y-181551
X100838Y-181551
X103378Y-181551
X76766Y-167771
X79266Y-167771
X81766Y-167771
X84266Y-167771
X111346Y-164271
X111346Y-166771
X111346Y-169271
X111346Y-171771
X115826Y-114371
X118326Y-114371
X120826Y-114371
X98296Y-104261
X100836Y-104261
X103376Y-104261
X118576Y-164271
X118576Y-166771
X118576Y-169271
X118576Y-171771
X76766Y-159721
X79266Y-159721
X81766Y-159721
X84266Y-159721
T4
X115636Y-120391
X115636Y-122891
X123186Y-120431
X123186Y-122931
T0
M30
