G04 #@! TF.GenerationSoftware,KiCad,Pcbnew,(5.1.5)-3*
G04 #@! TF.CreationDate,2020-05-16T13:49:30+02:00*
G04 #@! TF.ProjectId,StepperClockMasterTinyK22,53746570-7065-4724-936c-6f636b4d6173,rev?*
G04 #@! TF.SameCoordinates,Original*
G04 #@! TF.FileFunction,Soldermask,Top*
G04 #@! TF.FilePolarity,Negative*
%FSLAX46Y46*%
G04 Gerber Fmt 4.6, Leading zero omitted, Abs format (unit mm)*
G04 Created by KiCad (PCBNEW (5.1.5)-3) date 2020-05-16 13:49:30*
%MOMM*%
%LPD*%
G04 APERTURE LIST*
%ADD10R,1.700000X1.700000*%
%ADD11O,1.700000X1.700000*%
%ADD12R,1.520000X2.180000*%
%ADD13C,0.100000*%
%ADD14R,0.900000X0.500000*%
%ADD15O,3.600000X1.800000*%
%ADD16R,3.600000X1.800000*%
%ADD17O,1.800000X3.600000*%
%ADD18R,1.800000X3.600000*%
%ADD19O,1.600000X1.600000*%
%ADD20R,1.600000X1.600000*%
%ADD21R,0.500000X0.900000*%
%ADD22R,0.550000X0.250000*%
%ADD23R,1.000000X1.700000*%
%ADD24R,0.600000X1.550000*%
%ADD25R,1.550000X0.600000*%
%ADD26R,0.450000X1.750000*%
%ADD27C,2.700000*%
%ADD28C,2.540000*%
%ADD29R,0.750000X0.800000*%
%ADD30R,0.800000X0.750000*%
%ADD31C,2.290000*%
G04 APERTURE END LIST*
D10*
X137580000Y-101490000D03*
D11*
X137580000Y-98950000D03*
X137580000Y-96410000D03*
X137580000Y-93870000D03*
X137580000Y-91330000D03*
X137580000Y-88790000D03*
D10*
X137580000Y-136130000D03*
D11*
X137580000Y-133590000D03*
X137580000Y-131050000D03*
X137580000Y-128510000D03*
X137580000Y-125970000D03*
X137580000Y-123430000D03*
D12*
X128464200Y-138050000D03*
X124781200Y-138075400D03*
D13*
G36*
X144550000Y-140400000D02*
G01*
X144050000Y-140400000D01*
X144050000Y-140399398D01*
X144025466Y-140399398D01*
X143976635Y-140394588D01*
X143928510Y-140385016D01*
X143881555Y-140370772D01*
X143836222Y-140351995D01*
X143792949Y-140328864D01*
X143752150Y-140301604D01*
X143714221Y-140270476D01*
X143679524Y-140235779D01*
X143648396Y-140197850D01*
X143621136Y-140157051D01*
X143598005Y-140113778D01*
X143579228Y-140068445D01*
X143564984Y-140021490D01*
X143555412Y-139973365D01*
X143550602Y-139924534D01*
X143550602Y-139900000D01*
X143550000Y-139900000D01*
X143550000Y-139400000D01*
X143550602Y-139400000D01*
X143550602Y-139375466D01*
X143555412Y-139326635D01*
X143564984Y-139278510D01*
X143579228Y-139231555D01*
X143598005Y-139186222D01*
X143621136Y-139142949D01*
X143648396Y-139102150D01*
X143679524Y-139064221D01*
X143714221Y-139029524D01*
X143752150Y-138998396D01*
X143792949Y-138971136D01*
X143836222Y-138948005D01*
X143881555Y-138929228D01*
X143928510Y-138914984D01*
X143976635Y-138905412D01*
X144025466Y-138900602D01*
X144050000Y-138900602D01*
X144050000Y-138900000D01*
X144550000Y-138900000D01*
X144550000Y-140400000D01*
G37*
G36*
X145350000Y-138900602D02*
G01*
X145374534Y-138900602D01*
X145423365Y-138905412D01*
X145471490Y-138914984D01*
X145518445Y-138929228D01*
X145563778Y-138948005D01*
X145607051Y-138971136D01*
X145647850Y-138998396D01*
X145685779Y-139029524D01*
X145720476Y-139064221D01*
X145751604Y-139102150D01*
X145778864Y-139142949D01*
X145801995Y-139186222D01*
X145820772Y-139231555D01*
X145835016Y-139278510D01*
X145844588Y-139326635D01*
X145849398Y-139375466D01*
X145849398Y-139400000D01*
X145850000Y-139400000D01*
X145850000Y-139900000D01*
X145849398Y-139900000D01*
X145849398Y-139924534D01*
X145844588Y-139973365D01*
X145835016Y-140021490D01*
X145820772Y-140068445D01*
X145801995Y-140113778D01*
X145778864Y-140157051D01*
X145751604Y-140197850D01*
X145720476Y-140235779D01*
X145685779Y-140270476D01*
X145647850Y-140301604D01*
X145607051Y-140328864D01*
X145563778Y-140351995D01*
X145518445Y-140370772D01*
X145471490Y-140385016D01*
X145423365Y-140394588D01*
X145374534Y-140399398D01*
X145350000Y-140399398D01*
X145350000Y-140400000D01*
X144850000Y-140400000D01*
X144850000Y-138900000D01*
X145350000Y-138900000D01*
X145350000Y-138900602D01*
G37*
G36*
X139570000Y-140300000D02*
G01*
X139070000Y-140300000D01*
X139070000Y-140299398D01*
X139045466Y-140299398D01*
X138996635Y-140294588D01*
X138948510Y-140285016D01*
X138901555Y-140270772D01*
X138856222Y-140251995D01*
X138812949Y-140228864D01*
X138772150Y-140201604D01*
X138734221Y-140170476D01*
X138699524Y-140135779D01*
X138668396Y-140097850D01*
X138641136Y-140057051D01*
X138618005Y-140013778D01*
X138599228Y-139968445D01*
X138584984Y-139921490D01*
X138575412Y-139873365D01*
X138570602Y-139824534D01*
X138570602Y-139800000D01*
X138570000Y-139800000D01*
X138570000Y-139300000D01*
X138570602Y-139300000D01*
X138570602Y-139275466D01*
X138575412Y-139226635D01*
X138584984Y-139178510D01*
X138599228Y-139131555D01*
X138618005Y-139086222D01*
X138641136Y-139042949D01*
X138668396Y-139002150D01*
X138699524Y-138964221D01*
X138734221Y-138929524D01*
X138772150Y-138898396D01*
X138812949Y-138871136D01*
X138856222Y-138848005D01*
X138901555Y-138829228D01*
X138948510Y-138814984D01*
X138996635Y-138805412D01*
X139045466Y-138800602D01*
X139070000Y-138800602D01*
X139070000Y-138800000D01*
X139570000Y-138800000D01*
X139570000Y-140300000D01*
G37*
G36*
X140370000Y-138800602D02*
G01*
X140394534Y-138800602D01*
X140443365Y-138805412D01*
X140491490Y-138814984D01*
X140538445Y-138829228D01*
X140583778Y-138848005D01*
X140627051Y-138871136D01*
X140667850Y-138898396D01*
X140705779Y-138929524D01*
X140740476Y-138964221D01*
X140771604Y-139002150D01*
X140798864Y-139042949D01*
X140821995Y-139086222D01*
X140840772Y-139131555D01*
X140855016Y-139178510D01*
X140864588Y-139226635D01*
X140869398Y-139275466D01*
X140869398Y-139300000D01*
X140870000Y-139300000D01*
X140870000Y-139800000D01*
X140869398Y-139800000D01*
X140869398Y-139824534D01*
X140864588Y-139873365D01*
X140855016Y-139921490D01*
X140840772Y-139968445D01*
X140821995Y-140013778D01*
X140798864Y-140057051D01*
X140771604Y-140097850D01*
X140740476Y-140135779D01*
X140705779Y-140170476D01*
X140667850Y-140201604D01*
X140627051Y-140228864D01*
X140583778Y-140251995D01*
X140538445Y-140270772D01*
X140491490Y-140285016D01*
X140443365Y-140294588D01*
X140394534Y-140299398D01*
X140370000Y-140299398D01*
X140370000Y-140300000D01*
X139870000Y-140300000D01*
X139870000Y-138800000D01*
X140370000Y-138800000D01*
X140370000Y-138800602D01*
G37*
G36*
X126760000Y-145480000D02*
G01*
X126260000Y-145480000D01*
X126260000Y-145479398D01*
X126235466Y-145479398D01*
X126186635Y-145474588D01*
X126138510Y-145465016D01*
X126091555Y-145450772D01*
X126046222Y-145431995D01*
X126002949Y-145408864D01*
X125962150Y-145381604D01*
X125924221Y-145350476D01*
X125889524Y-145315779D01*
X125858396Y-145277850D01*
X125831136Y-145237051D01*
X125808005Y-145193778D01*
X125789228Y-145148445D01*
X125774984Y-145101490D01*
X125765412Y-145053365D01*
X125760602Y-145004534D01*
X125760602Y-144980000D01*
X125760000Y-144980000D01*
X125760000Y-144480000D01*
X125760602Y-144480000D01*
X125760602Y-144455466D01*
X125765412Y-144406635D01*
X125774984Y-144358510D01*
X125789228Y-144311555D01*
X125808005Y-144266222D01*
X125831136Y-144222949D01*
X125858396Y-144182150D01*
X125889524Y-144144221D01*
X125924221Y-144109524D01*
X125962150Y-144078396D01*
X126002949Y-144051136D01*
X126046222Y-144028005D01*
X126091555Y-144009228D01*
X126138510Y-143994984D01*
X126186635Y-143985412D01*
X126235466Y-143980602D01*
X126260000Y-143980602D01*
X126260000Y-143980000D01*
X126760000Y-143980000D01*
X126760000Y-145480000D01*
G37*
G36*
X127560000Y-143980602D02*
G01*
X127584534Y-143980602D01*
X127633365Y-143985412D01*
X127681490Y-143994984D01*
X127728445Y-144009228D01*
X127773778Y-144028005D01*
X127817051Y-144051136D01*
X127857850Y-144078396D01*
X127895779Y-144109524D01*
X127930476Y-144144221D01*
X127961604Y-144182150D01*
X127988864Y-144222949D01*
X128011995Y-144266222D01*
X128030772Y-144311555D01*
X128045016Y-144358510D01*
X128054588Y-144406635D01*
X128059398Y-144455466D01*
X128059398Y-144480000D01*
X128060000Y-144480000D01*
X128060000Y-144980000D01*
X128059398Y-144980000D01*
X128059398Y-145004534D01*
X128054588Y-145053365D01*
X128045016Y-145101490D01*
X128030772Y-145148445D01*
X128011995Y-145193778D01*
X127988864Y-145237051D01*
X127961604Y-145277850D01*
X127930476Y-145315779D01*
X127895779Y-145350476D01*
X127857850Y-145381604D01*
X127817051Y-145408864D01*
X127773778Y-145431995D01*
X127728445Y-145450772D01*
X127681490Y-145465016D01*
X127633365Y-145474588D01*
X127584534Y-145479398D01*
X127560000Y-145479398D01*
X127560000Y-145480000D01*
X127060000Y-145480000D01*
X127060000Y-143980000D01*
X127560000Y-143980000D01*
X127560000Y-143980602D01*
G37*
D14*
X143630000Y-88460000D03*
X143630000Y-89960000D03*
D15*
X103240000Y-136050000D03*
X103240000Y-132240000D03*
X103240000Y-128430000D03*
D16*
X103240000Y-124620000D03*
D17*
X120350000Y-139560000D03*
X116540000Y-139560000D03*
X112730000Y-139560000D03*
D18*
X108920000Y-139560000D03*
D19*
X133210000Y-139560000D03*
X150990000Y-88760000D03*
X133210000Y-137020000D03*
X150990000Y-91300000D03*
X133210000Y-134480000D03*
X150990000Y-93840000D03*
X133210000Y-131940000D03*
X150990000Y-96380000D03*
X133210000Y-129400000D03*
X150990000Y-98920000D03*
X133210000Y-126860000D03*
X150990000Y-101460000D03*
X133210000Y-124320000D03*
X150990000Y-104000000D03*
X133210000Y-121780000D03*
X150990000Y-106540000D03*
X133210000Y-119240000D03*
X150990000Y-109080000D03*
X133210000Y-116700000D03*
X150990000Y-111620000D03*
X133210000Y-114160000D03*
X150990000Y-114160000D03*
X133210000Y-111620000D03*
X150990000Y-116700000D03*
X133210000Y-109080000D03*
X150990000Y-119240000D03*
X133210000Y-106540000D03*
X150990000Y-121780000D03*
X133210000Y-104000000D03*
X150990000Y-124320000D03*
X133210000Y-101460000D03*
X150990000Y-126860000D03*
X133210000Y-98920000D03*
X150990000Y-129400000D03*
X133210000Y-96380000D03*
X150990000Y-131940000D03*
X133210000Y-93840000D03*
X150990000Y-134480000D03*
X133210000Y-91300000D03*
X150990000Y-137020000D03*
X133210000Y-88760000D03*
D20*
X150990000Y-139560000D03*
D21*
X147270000Y-139650000D03*
X148770000Y-139650000D03*
X135720000Y-139590000D03*
X137220000Y-139590000D03*
D10*
X127130000Y-129720000D03*
D11*
X127130000Y-127180000D03*
X127130000Y-124640000D03*
X127130000Y-122100000D03*
X127130000Y-119560000D03*
X127130000Y-117020000D03*
X127130000Y-114480000D03*
D22*
X100665000Y-115200000D03*
X100665000Y-114700000D03*
X100665000Y-114200000D03*
X100665000Y-113700000D03*
X98315000Y-115200000D03*
X98315000Y-114700000D03*
X98315000Y-114200000D03*
X98315000Y-113700000D03*
D23*
X99490000Y-114450000D03*
D10*
X127260000Y-109230000D03*
D11*
X127260000Y-106690000D03*
X127260000Y-104150000D03*
X127260000Y-101610000D03*
X127260000Y-99070000D03*
X127260000Y-96530000D03*
X127260000Y-93990000D03*
X127260000Y-91450000D03*
X127260000Y-88910000D03*
D24*
X144855000Y-118400000D03*
X143585000Y-118400000D03*
X142315000Y-118400000D03*
X141045000Y-118400000D03*
X141045000Y-123800000D03*
X142315000Y-123800000D03*
X143585000Y-123800000D03*
X144855000Y-123800000D03*
D25*
X116130000Y-114385000D03*
X116130000Y-115655000D03*
X116130000Y-116925000D03*
X116130000Y-118195000D03*
X121530000Y-118195000D03*
X121530000Y-116925000D03*
X121530000Y-115655000D03*
X121530000Y-114385000D03*
D26*
X140785000Y-100460000D03*
X141435000Y-100460000D03*
X142085000Y-100460000D03*
X142735000Y-100460000D03*
X143385000Y-100460000D03*
X144035000Y-100460000D03*
X144685000Y-100460000D03*
X145335000Y-100460000D03*
X145985000Y-100460000D03*
X146635000Y-100460000D03*
X146635000Y-93260000D03*
X145985000Y-93260000D03*
X145335000Y-93260000D03*
X144685000Y-93260000D03*
X144035000Y-93260000D03*
X143385000Y-93260000D03*
X142735000Y-93260000D03*
X142085000Y-93260000D03*
X141435000Y-93260000D03*
X140785000Y-93260000D03*
D21*
X127700000Y-142170000D03*
X126200000Y-142170000D03*
D14*
X147230000Y-88460000D03*
X147230000Y-89960000D03*
D21*
X122640000Y-121090000D03*
X121140000Y-121090000D03*
X118050000Y-121140000D03*
X119550000Y-121140000D03*
D14*
X145440000Y-88450000D03*
X145440000Y-89950000D03*
X141850000Y-88460000D03*
X141850000Y-89960000D03*
X140050000Y-88450000D03*
X140050000Y-89950000D03*
D10*
X108700000Y-123760000D03*
D11*
X108700000Y-121220000D03*
X108700000Y-118680000D03*
X108700000Y-116140000D03*
D10*
X141500000Y-83950000D03*
D11*
X144040000Y-83950000D03*
X146580000Y-83950000D03*
D10*
X132000000Y-83950000D03*
D11*
X134540000Y-83950000D03*
X137080000Y-83950000D03*
D10*
X122510000Y-83950000D03*
D11*
X125050000Y-83950000D03*
X127590000Y-83950000D03*
D10*
X113010000Y-83950000D03*
D11*
X115550000Y-83950000D03*
X118090000Y-83950000D03*
D10*
X103510000Y-83950000D03*
D11*
X106050000Y-83950000D03*
X108590000Y-83950000D03*
D27*
X152340000Y-145100000D03*
X97750000Y-145100000D03*
X97750000Y-76280000D03*
X152350000Y-76280000D03*
D28*
X148010000Y-146370000D03*
X102090000Y-146140000D03*
X96470000Y-80890000D03*
X153360000Y-80980000D03*
D29*
X96330000Y-115220000D03*
X96330000Y-113720000D03*
D30*
X119600000Y-111890000D03*
X118100000Y-111890000D03*
D31*
X123530000Y-101010000D03*
X123530000Y-98010000D03*
X96530000Y-99510000D03*
M02*
