G04 #@! TF.GenerationSoftware,KiCad,Pcbnew,(5.1.5)-3*
G04 #@! TF.CreationDate,2020-01-29T13:04:29+01:00*
G04 #@! TF.ProjectId,StepperClockLedRing,53746570-7065-4724-936c-6f636b4c6564,V0.1*
G04 #@! TF.SameCoordinates,Original*
G04 #@! TF.FileFunction,Legend,Top*
G04 #@! TF.FilePolarity,Positive*
%FSLAX46Y46*%
G04 Gerber Fmt 4.6, Leading zero omitted, Abs format (unit mm)*
G04 Created by KiCad (PCBNEW (5.1.5)-3) date 2020-01-29 13:04:29*
%MOMM*%
%LPD*%
G04 APERTURE LIST*
%ADD10C,0.150000*%
%ADD11C,0.120000*%
%ADD12C,0.010000*%
G04 APERTURE END LIST*
D10*
X64767857Y-156403571D02*
X65101190Y-156403571D01*
X65244047Y-156927380D02*
X64767857Y-156927380D01*
X64767857Y-155927380D01*
X65244047Y-155927380D01*
X65672619Y-156927380D02*
X65672619Y-156260714D01*
X65672619Y-156451190D02*
X65720238Y-156355952D01*
X65767857Y-156308333D01*
X65863095Y-156260714D01*
X65958333Y-156260714D01*
X66291666Y-156927380D02*
X66291666Y-156260714D01*
X66291666Y-155927380D02*
X66244047Y-155975000D01*
X66291666Y-156022619D01*
X66339285Y-155975000D01*
X66291666Y-155927380D01*
X66291666Y-156022619D01*
X67196428Y-156879761D02*
X67101190Y-156927380D01*
X66910714Y-156927380D01*
X66815476Y-156879761D01*
X66767857Y-156832142D01*
X66720238Y-156736904D01*
X66720238Y-156451190D01*
X66767857Y-156355952D01*
X66815476Y-156308333D01*
X66910714Y-156260714D01*
X67101190Y-156260714D01*
X67196428Y-156308333D01*
X67625000Y-156927380D02*
X67625000Y-155927380D01*
X68053571Y-156927380D02*
X68053571Y-156403571D01*
X68005952Y-156308333D01*
X67910714Y-156260714D01*
X67767857Y-156260714D01*
X67672619Y-156308333D01*
X67625000Y-156355952D01*
X69244047Y-156879761D02*
X69386904Y-156927380D01*
X69625000Y-156927380D01*
X69720238Y-156879761D01*
X69767857Y-156832142D01*
X69815476Y-156736904D01*
X69815476Y-156641666D01*
X69767857Y-156546428D01*
X69720238Y-156498809D01*
X69625000Y-156451190D01*
X69434523Y-156403571D01*
X69339285Y-156355952D01*
X69291666Y-156308333D01*
X69244047Y-156213095D01*
X69244047Y-156117857D01*
X69291666Y-156022619D01*
X69339285Y-155975000D01*
X69434523Y-155927380D01*
X69672619Y-155927380D01*
X69815476Y-155975000D01*
X70101190Y-156260714D02*
X70482142Y-156260714D01*
X70244047Y-155927380D02*
X70244047Y-156784523D01*
X70291666Y-156879761D01*
X70386904Y-156927380D01*
X70482142Y-156927380D01*
X70720238Y-156260714D02*
X70958333Y-156927380D01*
X71196428Y-156260714D02*
X70958333Y-156927380D01*
X70863095Y-157165476D01*
X70815476Y-157213095D01*
X70720238Y-157260714D01*
X72005952Y-156260714D02*
X72005952Y-157070238D01*
X71958333Y-157165476D01*
X71910714Y-157213095D01*
X71815476Y-157260714D01*
X71672619Y-157260714D01*
X71577380Y-157213095D01*
X72005952Y-156879761D02*
X71910714Y-156927380D01*
X71720238Y-156927380D01*
X71625000Y-156879761D01*
X71577380Y-156832142D01*
X71529761Y-156736904D01*
X71529761Y-156451190D01*
X71577380Y-156355952D01*
X71625000Y-156308333D01*
X71720238Y-156260714D01*
X71910714Y-156260714D01*
X72005952Y-156308333D01*
X72863095Y-156879761D02*
X72767857Y-156927380D01*
X72577380Y-156927380D01*
X72482142Y-156879761D01*
X72434523Y-156784523D01*
X72434523Y-156403571D01*
X72482142Y-156308333D01*
X72577380Y-156260714D01*
X72767857Y-156260714D01*
X72863095Y-156308333D01*
X72910714Y-156403571D01*
X72910714Y-156498809D01*
X72434523Y-156594047D01*
X73339285Y-156927380D02*
X73339285Y-156260714D01*
X73339285Y-156451190D02*
X73386904Y-156355952D01*
X73434523Y-156308333D01*
X73529761Y-156260714D01*
X73625000Y-156260714D01*
X63934523Y-157672619D02*
X63982142Y-157625000D01*
X64077380Y-157577380D01*
X64315476Y-157577380D01*
X64410714Y-157625000D01*
X64458333Y-157672619D01*
X64505952Y-157767857D01*
X64505952Y-157863095D01*
X64458333Y-158005952D01*
X63886904Y-158577380D01*
X64505952Y-158577380D01*
X65363095Y-157577380D02*
X65172619Y-157577380D01*
X65077380Y-157625000D01*
X65029761Y-157672619D01*
X64934523Y-157815476D01*
X64886904Y-158005952D01*
X64886904Y-158386904D01*
X64934523Y-158482142D01*
X64982142Y-158529761D01*
X65077380Y-158577380D01*
X65267857Y-158577380D01*
X65363095Y-158529761D01*
X65410714Y-158482142D01*
X65458333Y-158386904D01*
X65458333Y-158148809D01*
X65410714Y-158053571D01*
X65363095Y-158005952D01*
X65267857Y-157958333D01*
X65077380Y-157958333D01*
X64982142Y-158005952D01*
X64934523Y-158053571D01*
X64886904Y-158148809D01*
X65886904Y-158196428D02*
X66648809Y-158196428D01*
X67410714Y-157577380D02*
X67410714Y-158291666D01*
X67363095Y-158434523D01*
X67267857Y-158529761D01*
X67125000Y-158577380D01*
X67029761Y-158577380D01*
X68315476Y-158577380D02*
X68315476Y-158053571D01*
X68267857Y-157958333D01*
X68172619Y-157910714D01*
X67982142Y-157910714D01*
X67886904Y-157958333D01*
X68315476Y-158529761D02*
X68220238Y-158577380D01*
X67982142Y-158577380D01*
X67886904Y-158529761D01*
X67839285Y-158434523D01*
X67839285Y-158339285D01*
X67886904Y-158244047D01*
X67982142Y-158196428D01*
X68220238Y-158196428D01*
X68315476Y-158148809D01*
X68791666Y-157910714D02*
X68791666Y-158577380D01*
X68791666Y-158005952D02*
X68839285Y-157958333D01*
X68934523Y-157910714D01*
X69077380Y-157910714D01*
X69172619Y-157958333D01*
X69220238Y-158053571D01*
X69220238Y-158577380D01*
X69696428Y-158196428D02*
X70458333Y-158196428D01*
X70886904Y-157672619D02*
X70934523Y-157625000D01*
X71029761Y-157577380D01*
X71267857Y-157577380D01*
X71363095Y-157625000D01*
X71410714Y-157672619D01*
X71458333Y-157767857D01*
X71458333Y-157863095D01*
X71410714Y-158005952D01*
X70839285Y-158577380D01*
X71458333Y-158577380D01*
X72077380Y-157577380D02*
X72172619Y-157577380D01*
X72267857Y-157625000D01*
X72315476Y-157672619D01*
X72363095Y-157767857D01*
X72410714Y-157958333D01*
X72410714Y-158196428D01*
X72363095Y-158386904D01*
X72315476Y-158482142D01*
X72267857Y-158529761D01*
X72172619Y-158577380D01*
X72077380Y-158577380D01*
X71982142Y-158529761D01*
X71934523Y-158482142D01*
X71886904Y-158386904D01*
X71839285Y-158196428D01*
X71839285Y-157958333D01*
X71886904Y-157767857D01*
X71934523Y-157672619D01*
X71982142Y-157625000D01*
X72077380Y-157577380D01*
X72791666Y-157672619D02*
X72839285Y-157625000D01*
X72934523Y-157577380D01*
X73172619Y-157577380D01*
X73267857Y-157625000D01*
X73315476Y-157672619D01*
X73363095Y-157767857D01*
X73363095Y-157863095D01*
X73315476Y-158005952D01*
X72744047Y-158577380D01*
X73363095Y-158577380D01*
X73982142Y-157577380D02*
X74077380Y-157577380D01*
X74172619Y-157625000D01*
X74220238Y-157672619D01*
X74267857Y-157767857D01*
X74315476Y-157958333D01*
X74315476Y-158196428D01*
X74267857Y-158386904D01*
X74220238Y-158482142D01*
X74172619Y-158529761D01*
X74077380Y-158577380D01*
X73982142Y-158577380D01*
X73886904Y-158529761D01*
X73839285Y-158482142D01*
X73791666Y-158386904D01*
X73744047Y-158196428D01*
X73744047Y-157958333D01*
X73791666Y-157767857D01*
X73839285Y-157672619D01*
X73886904Y-157625000D01*
X73982142Y-157577380D01*
X65672619Y-159941666D02*
X66148809Y-159941666D01*
X65577380Y-160227380D02*
X65910714Y-159227380D01*
X66244047Y-160227380D01*
X66577380Y-160227380D02*
X66577380Y-159227380D01*
X66815476Y-159227380D01*
X66958333Y-159275000D01*
X67053571Y-159370238D01*
X67101190Y-159465476D01*
X67148809Y-159655952D01*
X67148809Y-159798809D01*
X67101190Y-159989285D01*
X67053571Y-160084523D01*
X66958333Y-160179761D01*
X66815476Y-160227380D01*
X66577380Y-160227380D01*
X67577380Y-160227380D02*
X67577380Y-159227380D01*
X68005952Y-160179761D02*
X68148809Y-160227380D01*
X68386904Y-160227380D01*
X68482142Y-160179761D01*
X68529761Y-160132142D01*
X68577380Y-160036904D01*
X68577380Y-159941666D01*
X68529761Y-159846428D01*
X68482142Y-159798809D01*
X68386904Y-159751190D01*
X68196428Y-159703571D01*
X68101190Y-159655952D01*
X68053571Y-159608333D01*
X68005952Y-159513095D01*
X68005952Y-159417857D01*
X68053571Y-159322619D01*
X68101190Y-159275000D01*
X68196428Y-159227380D01*
X68434523Y-159227380D01*
X68577380Y-159275000D01*
X69625000Y-159227380D02*
X69958333Y-160227380D01*
X70291666Y-159227380D01*
X70815476Y-159227380D02*
X70910714Y-159227380D01*
X71005952Y-159275000D01*
X71053571Y-159322619D01*
X71101190Y-159417857D01*
X71148809Y-159608333D01*
X71148809Y-159846428D01*
X71101190Y-160036904D01*
X71053571Y-160132142D01*
X71005952Y-160179761D01*
X70910714Y-160227380D01*
X70815476Y-160227380D01*
X70720238Y-160179761D01*
X70672619Y-160132142D01*
X70625000Y-160036904D01*
X70577380Y-159846428D01*
X70577380Y-159608333D01*
X70625000Y-159417857D01*
X70672619Y-159322619D01*
X70720238Y-159275000D01*
X70815476Y-159227380D01*
X71577380Y-160132142D02*
X71625000Y-160179761D01*
X71577380Y-160227380D01*
X71529761Y-160179761D01*
X71577380Y-160132142D01*
X71577380Y-160227380D01*
X72577380Y-160227380D02*
X72005952Y-160227380D01*
X72291666Y-160227380D02*
X72291666Y-159227380D01*
X72196428Y-159370238D01*
X72101190Y-159465476D01*
X72005952Y-159513095D01*
X120976190Y-99052380D02*
X120976190Y-98052380D01*
X121214285Y-98052380D01*
X121357142Y-98100000D01*
X121452380Y-98195238D01*
X121500000Y-98290476D01*
X121547619Y-98480952D01*
X121547619Y-98623809D01*
X121500000Y-98814285D01*
X121452380Y-98909523D01*
X121357142Y-99004761D01*
X121214285Y-99052380D01*
X120976190Y-99052380D01*
X121976190Y-99052380D02*
X121976190Y-98052380D01*
X122452380Y-99052380D02*
X122452380Y-98052380D01*
X123023809Y-99052380D01*
X123023809Y-98052380D01*
X121538095Y-95325000D02*
X121442857Y-95277380D01*
X121300000Y-95277380D01*
X121157142Y-95325000D01*
X121061904Y-95420238D01*
X121014285Y-95515476D01*
X120966666Y-95705952D01*
X120966666Y-95848809D01*
X121014285Y-96039285D01*
X121061904Y-96134523D01*
X121157142Y-96229761D01*
X121300000Y-96277380D01*
X121395238Y-96277380D01*
X121538095Y-96229761D01*
X121585714Y-96182142D01*
X121585714Y-95848809D01*
X121395238Y-95848809D01*
X122014285Y-96277380D02*
X122014285Y-95277380D01*
X122585714Y-96277380D01*
X122585714Y-95277380D01*
X123061904Y-96277380D02*
X123061904Y-95277380D01*
X123300000Y-95277380D01*
X123442857Y-95325000D01*
X123538095Y-95420238D01*
X123585714Y-95515476D01*
X123633333Y-95705952D01*
X123633333Y-95848809D01*
X123585714Y-96039285D01*
X123538095Y-96134523D01*
X123442857Y-96229761D01*
X123300000Y-96277380D01*
X123061904Y-96277380D01*
X121634523Y-92977380D02*
X121158333Y-92977380D01*
X121110714Y-93453571D01*
X121158333Y-93405952D01*
X121253571Y-93358333D01*
X121491666Y-93358333D01*
X121586904Y-93405952D01*
X121634523Y-93453571D01*
X121682142Y-93548809D01*
X121682142Y-93786904D01*
X121634523Y-93882142D01*
X121586904Y-93929761D01*
X121491666Y-93977380D01*
X121253571Y-93977380D01*
X121158333Y-93929761D01*
X121110714Y-93882142D01*
X121967857Y-92977380D02*
X122301190Y-93977380D01*
X122634523Y-92977380D01*
X64759523Y-99102380D02*
X64759523Y-98102380D01*
X64997619Y-98102380D01*
X65140476Y-98150000D01*
X65235714Y-98245238D01*
X65283333Y-98340476D01*
X65330952Y-98530952D01*
X65330952Y-98673809D01*
X65283333Y-98864285D01*
X65235714Y-98959523D01*
X65140476Y-99054761D01*
X64997619Y-99102380D01*
X64759523Y-99102380D01*
X65950000Y-98102380D02*
X66140476Y-98102380D01*
X66235714Y-98150000D01*
X66330952Y-98245238D01*
X66378571Y-98435714D01*
X66378571Y-98769047D01*
X66330952Y-98959523D01*
X66235714Y-99054761D01*
X66140476Y-99102380D01*
X65950000Y-99102380D01*
X65854761Y-99054761D01*
X65759523Y-98959523D01*
X65711904Y-98769047D01*
X65711904Y-98435714D01*
X65759523Y-98245238D01*
X65854761Y-98150000D01*
X65950000Y-98102380D01*
X66807142Y-98102380D02*
X66807142Y-98911904D01*
X66854761Y-99007142D01*
X66902380Y-99054761D01*
X66997619Y-99102380D01*
X67188095Y-99102380D01*
X67283333Y-99054761D01*
X67330952Y-99007142D01*
X67378571Y-98911904D01*
X67378571Y-98102380D01*
X67711904Y-98102380D02*
X68283333Y-98102380D01*
X67997619Y-99102380D02*
X67997619Y-98102380D01*
X66188095Y-95550000D02*
X66092857Y-95502380D01*
X65950000Y-95502380D01*
X65807142Y-95550000D01*
X65711904Y-95645238D01*
X65664285Y-95740476D01*
X65616666Y-95930952D01*
X65616666Y-96073809D01*
X65664285Y-96264285D01*
X65711904Y-96359523D01*
X65807142Y-96454761D01*
X65950000Y-96502380D01*
X66045238Y-96502380D01*
X66188095Y-96454761D01*
X66235714Y-96407142D01*
X66235714Y-96073809D01*
X66045238Y-96073809D01*
X66664285Y-96502380D02*
X66664285Y-95502380D01*
X67235714Y-96502380D01*
X67235714Y-95502380D01*
X67711904Y-96502380D02*
X67711904Y-95502380D01*
X67950000Y-95502380D01*
X68092857Y-95550000D01*
X68188095Y-95645238D01*
X68235714Y-95740476D01*
X68283333Y-95930952D01*
X68283333Y-96073809D01*
X68235714Y-96264285D01*
X68188095Y-96359523D01*
X68092857Y-96454761D01*
X67950000Y-96502380D01*
X67711904Y-96502380D01*
X67259523Y-92952380D02*
X66783333Y-92952380D01*
X66735714Y-93428571D01*
X66783333Y-93380952D01*
X66878571Y-93333333D01*
X67116666Y-93333333D01*
X67211904Y-93380952D01*
X67259523Y-93428571D01*
X67307142Y-93523809D01*
X67307142Y-93761904D01*
X67259523Y-93857142D01*
X67211904Y-93904761D01*
X67116666Y-93952380D01*
X66878571Y-93952380D01*
X66783333Y-93904761D01*
X66735714Y-93857142D01*
X67592857Y-92952380D02*
X67926190Y-93952380D01*
X68259523Y-92952380D01*
D11*
X88025000Y-119725000D02*
X92525000Y-119725000D01*
X88025000Y-124325000D02*
X92525000Y-124325000D01*
X92525000Y-124325000D02*
X92525000Y-123325000D01*
X86975000Y-124125000D02*
X91475000Y-124125000D01*
X86975000Y-128725000D02*
X91475000Y-128725000D01*
X91475000Y-128725000D02*
X91475000Y-127725000D01*
X102075000Y-128775000D02*
X97575000Y-128775000D01*
X102075000Y-124175000D02*
X97575000Y-124175000D01*
X97575000Y-124175000D02*
X97575000Y-125175000D01*
X89325000Y-118350000D02*
X90025000Y-118350000D01*
X90025000Y-119550000D02*
X89325000Y-119550000D01*
X86975000Y-125575000D02*
X86975000Y-126275000D01*
X85775000Y-126275000D02*
X85775000Y-125575000D01*
X88000000Y-128600000D02*
X92500000Y-128600000D01*
X88000000Y-133200000D02*
X92500000Y-133200000D01*
X92500000Y-133200000D02*
X92500000Y-132200000D01*
X92200000Y-134325000D02*
X92200000Y-129825000D01*
X96800000Y-134325000D02*
X96800000Y-129825000D01*
X96800000Y-129825000D02*
X95800000Y-129825000D01*
X101275000Y-133475000D02*
X96775000Y-133475000D01*
X101275000Y-128875000D02*
X96775000Y-128875000D01*
X96775000Y-128875000D02*
X96775000Y-129875000D01*
X101125000Y-124325000D02*
X96625000Y-124325000D01*
X101125000Y-119725000D02*
X96625000Y-119725000D01*
X96625000Y-119725000D02*
X96625000Y-120725000D01*
X96900000Y-118700000D02*
X96900000Y-123200000D01*
X92300000Y-118700000D02*
X92300000Y-123200000D01*
X92300000Y-123200000D02*
X93300000Y-123200000D01*
X113060000Y-109680000D02*
X113060000Y-107020000D01*
X107920000Y-109680000D02*
X113060000Y-109680000D01*
X107920000Y-107020000D02*
X113060000Y-107020000D01*
X107920000Y-109680000D02*
X107920000Y-107020000D01*
X106650000Y-109680000D02*
X105320000Y-109680000D01*
X105320000Y-109680000D02*
X105320000Y-108350000D01*
X83760000Y-109655000D02*
X83760000Y-106995000D01*
X78620000Y-109655000D02*
X83760000Y-109655000D01*
X78620000Y-106995000D02*
X83760000Y-106995000D01*
X78620000Y-109655000D02*
X78620000Y-106995000D01*
X77350000Y-109655000D02*
X76020000Y-109655000D01*
X76020000Y-109655000D02*
X76020000Y-108325000D01*
X87975000Y-130025000D02*
X87975000Y-130725000D01*
X86775000Y-130725000D02*
X86775000Y-130025000D01*
X93650000Y-134400000D02*
X94350000Y-134400000D01*
X94350000Y-135600000D02*
X93650000Y-135600000D01*
X100025000Y-134725000D02*
X99325000Y-134725000D01*
X99325000Y-133525000D02*
X100025000Y-133525000D01*
X102100000Y-127300000D02*
X102100000Y-126600000D01*
X103300000Y-126600000D02*
X103300000Y-127300000D01*
X101350000Y-122825000D02*
X101350000Y-122125000D01*
X102550000Y-122125000D02*
X102550000Y-122825000D01*
X95425000Y-118650000D02*
X94725000Y-118650000D01*
X94725000Y-117450000D02*
X95425000Y-117450000D01*
D12*
G36*
X114734727Y-159395753D02*
G01*
X114734879Y-159574351D01*
X114735646Y-159712753D01*
X114737497Y-159816943D01*
X114740898Y-159892907D01*
X114746318Y-159946629D01*
X114754224Y-159984095D01*
X114765085Y-160011289D01*
X114779367Y-160034198D01*
X114785251Y-160042299D01*
X114811630Y-160075116D01*
X114838949Y-160095280D01*
X114878579Y-160105869D01*
X114941893Y-160109962D01*
X115037679Y-160110636D01*
X115135167Y-160109915D01*
X115197724Y-160105735D01*
X115236598Y-160095076D01*
X115263037Y-160074916D01*
X115287337Y-160043572D01*
X115302088Y-160020589D01*
X115313448Y-159994267D01*
X115321858Y-159958637D01*
X115327758Y-159907729D01*
X115331591Y-159835575D01*
X115333796Y-159736203D01*
X115334814Y-159603645D01*
X115335087Y-159431932D01*
X115335091Y-159397026D01*
X115335091Y-158817545D01*
X115635273Y-158817545D01*
X115635273Y-160104508D01*
X115507410Y-160235472D01*
X115438611Y-160301267D01*
X115374122Y-160354976D01*
X115326366Y-160386382D01*
X115321179Y-160388627D01*
X115274496Y-160397320D01*
X115194816Y-160403665D01*
X115095213Y-160407520D01*
X114988763Y-160408743D01*
X114888542Y-160407192D01*
X114807624Y-160402723D01*
X114759086Y-160395195D01*
X114757818Y-160394762D01*
X114726265Y-160373668D01*
X114672059Y-160328140D01*
X114605011Y-160266589D01*
X114578864Y-160241389D01*
X114434545Y-160100425D01*
X114434545Y-158817545D01*
X114734727Y-158817545D01*
X114734727Y-159395753D01*
G37*
X114734727Y-159395753D02*
X114734879Y-159574351D01*
X114735646Y-159712753D01*
X114737497Y-159816943D01*
X114740898Y-159892907D01*
X114746318Y-159946629D01*
X114754224Y-159984095D01*
X114765085Y-160011289D01*
X114779367Y-160034198D01*
X114785251Y-160042299D01*
X114811630Y-160075116D01*
X114838949Y-160095280D01*
X114878579Y-160105869D01*
X114941893Y-160109962D01*
X115037679Y-160110636D01*
X115135167Y-160109915D01*
X115197724Y-160105735D01*
X115236598Y-160095076D01*
X115263037Y-160074916D01*
X115287337Y-160043572D01*
X115302088Y-160020589D01*
X115313448Y-159994267D01*
X115321858Y-159958637D01*
X115327758Y-159907729D01*
X115331591Y-159835575D01*
X115333796Y-159736203D01*
X115334814Y-159603645D01*
X115335087Y-159431932D01*
X115335091Y-159397026D01*
X115335091Y-158817545D01*
X115635273Y-158817545D01*
X115635273Y-160104508D01*
X115507410Y-160235472D01*
X115438611Y-160301267D01*
X115374122Y-160354976D01*
X115326366Y-160386382D01*
X115321179Y-160388627D01*
X115274496Y-160397320D01*
X115194816Y-160403665D01*
X115095213Y-160407520D01*
X114988763Y-160408743D01*
X114888542Y-160407192D01*
X114807624Y-160402723D01*
X114759086Y-160395195D01*
X114757818Y-160394762D01*
X114726265Y-160373668D01*
X114672059Y-160328140D01*
X114605011Y-160266589D01*
X114578864Y-160241389D01*
X114434545Y-160100425D01*
X114434545Y-158817545D01*
X114734727Y-158817545D01*
X114734727Y-159395753D01*
G36*
X117228545Y-159100647D02*
G01*
X117227059Y-159231850D01*
X117222047Y-159324778D01*
X117212676Y-159387259D01*
X117198117Y-159427121D01*
X117193008Y-159435279D01*
X117162605Y-159461734D01*
X117098386Y-159506121D01*
X117007047Y-159564206D01*
X116895287Y-159631756D01*
X116769804Y-159704538D01*
X116742735Y-159719866D01*
X116603739Y-159798442D01*
X116499886Y-159858254D01*
X116426054Y-159903158D01*
X116377124Y-159937011D01*
X116347974Y-159963667D01*
X116333484Y-159986984D01*
X116328533Y-160010817D01*
X116328000Y-160032176D01*
X116328000Y-160110636D01*
X117228545Y-160110636D01*
X117228545Y-160410818D01*
X116632030Y-160410818D01*
X116470876Y-160410461D01*
X116325488Y-160409454D01*
X116202079Y-160407897D01*
X116106864Y-160405888D01*
X116046055Y-160403526D01*
X116025894Y-160401194D01*
X116022178Y-160375705D01*
X116019139Y-160313354D01*
X116017084Y-160223457D01*
X116016324Y-160115331D01*
X116016324Y-160113148D01*
X116016989Y-159994093D01*
X116019883Y-159912009D01*
X116026433Y-159857689D01*
X116038063Y-159821928D01*
X116056199Y-159795522D01*
X116067339Y-159783762D01*
X116103028Y-159756500D01*
X116171749Y-159711225D01*
X116266225Y-159652461D01*
X116379178Y-159584733D01*
X116503330Y-159512566D01*
X116506015Y-159511030D01*
X116639613Y-159434393D01*
X116738459Y-159376454D01*
X116807921Y-159333033D01*
X116853364Y-159299950D01*
X116880155Y-159273026D01*
X116893661Y-159248083D01*
X116899247Y-159220940D01*
X116900894Y-159203495D01*
X116908060Y-159117727D01*
X116048705Y-159117727D01*
X116055580Y-158973409D01*
X116062454Y-158829091D01*
X116645500Y-158822922D01*
X117228545Y-158816752D01*
X117228545Y-159100647D01*
G37*
X117228545Y-159100647D02*
X117227059Y-159231850D01*
X117222047Y-159324778D01*
X117212676Y-159387259D01*
X117198117Y-159427121D01*
X117193008Y-159435279D01*
X117162605Y-159461734D01*
X117098386Y-159506121D01*
X117007047Y-159564206D01*
X116895287Y-159631756D01*
X116769804Y-159704538D01*
X116742735Y-159719866D01*
X116603739Y-159798442D01*
X116499886Y-159858254D01*
X116426054Y-159903158D01*
X116377124Y-159937011D01*
X116347974Y-159963667D01*
X116333484Y-159986984D01*
X116328533Y-160010817D01*
X116328000Y-160032176D01*
X116328000Y-160110636D01*
X117228545Y-160110636D01*
X117228545Y-160410818D01*
X116632030Y-160410818D01*
X116470876Y-160410461D01*
X116325488Y-160409454D01*
X116202079Y-160407897D01*
X116106864Y-160405888D01*
X116046055Y-160403526D01*
X116025894Y-160401194D01*
X116022178Y-160375705D01*
X116019139Y-160313354D01*
X116017084Y-160223457D01*
X116016324Y-160115331D01*
X116016324Y-160113148D01*
X116016989Y-159994093D01*
X116019883Y-159912009D01*
X116026433Y-159857689D01*
X116038063Y-159821928D01*
X116056199Y-159795522D01*
X116067339Y-159783762D01*
X116103028Y-159756500D01*
X116171749Y-159711225D01*
X116266225Y-159652461D01*
X116379178Y-159584733D01*
X116503330Y-159512566D01*
X116506015Y-159511030D01*
X116639613Y-159434393D01*
X116738459Y-159376454D01*
X116807921Y-159333033D01*
X116853364Y-159299950D01*
X116880155Y-159273026D01*
X116893661Y-159248083D01*
X116899247Y-159220940D01*
X116900894Y-159203495D01*
X116908060Y-159117727D01*
X116048705Y-159117727D01*
X116055580Y-158973409D01*
X116062454Y-158829091D01*
X116645500Y-158822922D01*
X117228545Y-158816752D01*
X117228545Y-159100647D01*
G36*
X119762773Y-158822189D02*
G01*
X120334273Y-158829091D01*
X120455500Y-158954244D01*
X120514170Y-159017678D01*
X120557785Y-159070273D01*
X120578093Y-159101970D01*
X120578622Y-159104335D01*
X120579382Y-159137431D01*
X120579797Y-159204619D01*
X120579811Y-159293810D01*
X120579683Y-159335220D01*
X120578849Y-159541168D01*
X120468167Y-159653540D01*
X120402064Y-159713928D01*
X120338677Y-159760733D01*
X120295394Y-159782411D01*
X120233304Y-159798909D01*
X120360042Y-159954773D01*
X120423237Y-160030524D01*
X120468448Y-160076777D01*
X120505737Y-160100730D01*
X120545162Y-160109577D01*
X120577936Y-160110636D01*
X120669091Y-160110636D01*
X120669091Y-160412841D01*
X120503927Y-160406057D01*
X120338762Y-160399273D01*
X120103877Y-160099091D01*
X120016488Y-159988006D01*
X119951597Y-159908169D01*
X119903505Y-159854251D01*
X119866516Y-159820926D01*
X119834934Y-159802863D01*
X119803059Y-159794735D01*
X119775472Y-159791950D01*
X119681951Y-159784990D01*
X119679828Y-160069041D01*
X119678950Y-160180846D01*
X119678116Y-160276905D01*
X119677419Y-160347170D01*
X119676952Y-160381593D01*
X119676943Y-160381955D01*
X119657918Y-160399411D01*
X119599591Y-160408740D01*
X119526091Y-160410818D01*
X119376000Y-160410818D01*
X119376000Y-159388638D01*
X119684310Y-159388638D01*
X119687076Y-159456629D01*
X119692136Y-159493378D01*
X119693010Y-159495313D01*
X119721379Y-159504738D01*
X119784136Y-159509091D01*
X119869840Y-159508989D01*
X119967049Y-159505050D01*
X120064321Y-159497892D01*
X120150216Y-159488131D01*
X120213291Y-159476386D01*
X120239856Y-159465795D01*
X120262425Y-159423508D01*
X120275014Y-159353650D01*
X120277382Y-159273301D01*
X120269291Y-159199545D01*
X120250502Y-159149463D01*
X120244377Y-159142866D01*
X120201693Y-159129501D01*
X120114031Y-159122538D01*
X119982158Y-159122029D01*
X119949968Y-159122721D01*
X119687727Y-159129273D01*
X119684417Y-159302455D01*
X119684310Y-159388638D01*
X119376000Y-159388638D01*
X119376000Y-159117727D01*
X119191273Y-159117727D01*
X119191273Y-158815288D01*
X119762773Y-158822189D01*
G37*
X119762773Y-158822189D02*
X120334273Y-158829091D01*
X120455500Y-158954244D01*
X120514170Y-159017678D01*
X120557785Y-159070273D01*
X120578093Y-159101970D01*
X120578622Y-159104335D01*
X120579382Y-159137431D01*
X120579797Y-159204619D01*
X120579811Y-159293810D01*
X120579683Y-159335220D01*
X120578849Y-159541168D01*
X120468167Y-159653540D01*
X120402064Y-159713928D01*
X120338677Y-159760733D01*
X120295394Y-159782411D01*
X120233304Y-159798909D01*
X120360042Y-159954773D01*
X120423237Y-160030524D01*
X120468448Y-160076777D01*
X120505737Y-160100730D01*
X120545162Y-160109577D01*
X120577936Y-160110636D01*
X120669091Y-160110636D01*
X120669091Y-160412841D01*
X120503927Y-160406057D01*
X120338762Y-160399273D01*
X120103877Y-160099091D01*
X120016488Y-159988006D01*
X119951597Y-159908169D01*
X119903505Y-159854251D01*
X119866516Y-159820926D01*
X119834934Y-159802863D01*
X119803059Y-159794735D01*
X119775472Y-159791950D01*
X119681951Y-159784990D01*
X119679828Y-160069041D01*
X119678950Y-160180846D01*
X119678116Y-160276905D01*
X119677419Y-160347170D01*
X119676952Y-160381593D01*
X119676943Y-160381955D01*
X119657918Y-160399411D01*
X119599591Y-160408740D01*
X119526091Y-160410818D01*
X119376000Y-160410818D01*
X119376000Y-159388638D01*
X119684310Y-159388638D01*
X119687076Y-159456629D01*
X119692136Y-159493378D01*
X119693010Y-159495313D01*
X119721379Y-159504738D01*
X119784136Y-159509091D01*
X119869840Y-159508989D01*
X119967049Y-159505050D01*
X120064321Y-159497892D01*
X120150216Y-159488131D01*
X120213291Y-159476386D01*
X120239856Y-159465795D01*
X120262425Y-159423508D01*
X120275014Y-159353650D01*
X120277382Y-159273301D01*
X120269291Y-159199545D01*
X120250502Y-159149463D01*
X120244377Y-159142866D01*
X120201693Y-159129501D01*
X120114031Y-159122538D01*
X119982158Y-159122029D01*
X119949968Y-159122721D01*
X119687727Y-159129273D01*
X119684417Y-159302455D01*
X119684310Y-159388638D01*
X119376000Y-159388638D01*
X119376000Y-159117727D01*
X119191273Y-159117727D01*
X119191273Y-158815288D01*
X119762773Y-158822189D01*
G36*
X122129997Y-158822227D02*
G01*
X122273909Y-158829091D01*
X122273909Y-160399273D01*
X121860552Y-160399273D01*
X121763360Y-160179909D01*
X121718551Y-160077704D01*
X121662125Y-159947405D01*
X121600322Y-159803509D01*
X121539385Y-159660511D01*
X121519766Y-159614182D01*
X121373364Y-159267818D01*
X121367187Y-159839318D01*
X121361011Y-160410818D01*
X121061636Y-160410818D01*
X121061636Y-158817545D01*
X121479814Y-158817545D01*
X121532690Y-158938773D01*
X121558130Y-158997183D01*
X121598219Y-159089337D01*
X121649212Y-159206617D01*
X121707362Y-159340407D01*
X121768924Y-159482091D01*
X121779647Y-159506775D01*
X121973727Y-159953551D01*
X121979906Y-159384457D01*
X121986084Y-158815363D01*
X122129997Y-158822227D01*
G37*
X122129997Y-158822227D02*
X122273909Y-158829091D01*
X122273909Y-160399273D01*
X121860552Y-160399273D01*
X121763360Y-160179909D01*
X121718551Y-160077704D01*
X121662125Y-159947405D01*
X121600322Y-159803509D01*
X121539385Y-159660511D01*
X121519766Y-159614182D01*
X121373364Y-159267818D01*
X121367187Y-159839318D01*
X121361011Y-160410818D01*
X121061636Y-160410818D01*
X121061636Y-158817545D01*
X121479814Y-158817545D01*
X121532690Y-158938773D01*
X121558130Y-158997183D01*
X121598219Y-159089337D01*
X121649212Y-159206617D01*
X121707362Y-159340407D01*
X121768924Y-159482091D01*
X121779647Y-159506775D01*
X121973727Y-159953551D01*
X121979906Y-159384457D01*
X121986084Y-158815363D01*
X122129997Y-158822227D01*
G36*
X113372364Y-160110636D02*
G01*
X114111273Y-160110636D01*
X114111273Y-160387727D01*
X113072182Y-160387727D01*
X113072182Y-158817545D01*
X113372364Y-158817545D01*
X113372364Y-160110636D01*
G37*
X113372364Y-160110636D02*
X114111273Y-160110636D01*
X114111273Y-160387727D01*
X113072182Y-160387727D01*
X113072182Y-158817545D01*
X113372364Y-158817545D01*
X113372364Y-160110636D01*
G36*
X118844909Y-159094636D02*
G01*
X118082909Y-159094636D01*
X118082909Y-159464091D01*
X118637091Y-159464091D01*
X118637091Y-159741182D01*
X118082909Y-159741182D01*
X118082909Y-160087545D01*
X118844909Y-160087545D01*
X118844909Y-160387727D01*
X117782727Y-160387727D01*
X117782727Y-159094636D01*
X117598000Y-159094636D01*
X117598000Y-158817545D01*
X118844909Y-158817545D01*
X118844909Y-159094636D01*
G37*
X118844909Y-159094636D02*
X118082909Y-159094636D01*
X118082909Y-159464091D01*
X118637091Y-159464091D01*
X118637091Y-159741182D01*
X118082909Y-159741182D01*
X118082909Y-160087545D01*
X118844909Y-160087545D01*
X118844909Y-160387727D01*
X117782727Y-160387727D01*
X117782727Y-159094636D01*
X117598000Y-159094636D01*
X117598000Y-158817545D01*
X118844909Y-158817545D01*
X118844909Y-159094636D01*
G36*
X115428132Y-156466448D02*
G01*
X115799446Y-156473818D01*
X115948269Y-156627151D01*
X116097091Y-156780484D01*
X116097091Y-157737334D01*
X115948269Y-157890667D01*
X115799446Y-158044000D01*
X115053280Y-158058788D01*
X114734727Y-157740235D01*
X114734727Y-157258909D01*
X115034909Y-157258909D01*
X115035099Y-157396568D01*
X115036425Y-157495914D01*
X115040017Y-157564820D01*
X115047007Y-157611155D01*
X115058526Y-157642790D01*
X115075704Y-157667594D01*
X115096956Y-157690600D01*
X115126034Y-157718955D01*
X115154968Y-157737529D01*
X115193844Y-157748391D01*
X115252745Y-157753606D01*
X115341756Y-157755241D01*
X115412968Y-157755364D01*
X115526704Y-157754520D01*
X115604176Y-157750911D01*
X115655290Y-157742919D01*
X115689949Y-157728926D01*
X115718059Y-157707314D01*
X115720375Y-157705157D01*
X115739869Y-157685002D01*
X115753937Y-157661931D01*
X115763463Y-157628620D01*
X115769330Y-157577743D01*
X115772422Y-157501974D01*
X115773624Y-157393989D01*
X115773818Y-157262145D01*
X115773511Y-157098189D01*
X115769859Y-156974684D01*
X115758763Y-156885902D01*
X115736126Y-156826117D01*
X115697850Y-156789604D01*
X115639836Y-156770637D01*
X115557987Y-156763490D01*
X115448206Y-156762437D01*
X115416204Y-156762455D01*
X115303754Y-156762924D01*
X115227495Y-156765683D01*
X115177437Y-156772759D01*
X115143590Y-156786179D01*
X115115964Y-156807967D01*
X115096956Y-156827218D01*
X115073712Y-156852607D01*
X115057146Y-156877737D01*
X115046128Y-156910480D01*
X115039527Y-156958706D01*
X115036211Y-157030284D01*
X115035048Y-157133086D01*
X115034909Y-157258909D01*
X114734727Y-157258909D01*
X114734727Y-156770031D01*
X114895773Y-156614555D01*
X115056818Y-156459079D01*
X115428132Y-156466448D01*
G37*
X115428132Y-156466448D02*
X115799446Y-156473818D01*
X115948269Y-156627151D01*
X116097091Y-156780484D01*
X116097091Y-157737334D01*
X115948269Y-157890667D01*
X115799446Y-158044000D01*
X115053280Y-158058788D01*
X114734727Y-157740235D01*
X114734727Y-157258909D01*
X115034909Y-157258909D01*
X115035099Y-157396568D01*
X115036425Y-157495914D01*
X115040017Y-157564820D01*
X115047007Y-157611155D01*
X115058526Y-157642790D01*
X115075704Y-157667594D01*
X115096956Y-157690600D01*
X115126034Y-157718955D01*
X115154968Y-157737529D01*
X115193844Y-157748391D01*
X115252745Y-157753606D01*
X115341756Y-157755241D01*
X115412968Y-157755364D01*
X115526704Y-157754520D01*
X115604176Y-157750911D01*
X115655290Y-157742919D01*
X115689949Y-157728926D01*
X115718059Y-157707314D01*
X115720375Y-157705157D01*
X115739869Y-157685002D01*
X115753937Y-157661931D01*
X115763463Y-157628620D01*
X115769330Y-157577743D01*
X115772422Y-157501974D01*
X115773624Y-157393989D01*
X115773818Y-157262145D01*
X115773511Y-157098189D01*
X115769859Y-156974684D01*
X115758763Y-156885902D01*
X115736126Y-156826117D01*
X115697850Y-156789604D01*
X115639836Y-156770637D01*
X115557987Y-156763490D01*
X115448206Y-156762437D01*
X115416204Y-156762455D01*
X115303754Y-156762924D01*
X115227495Y-156765683D01*
X115177437Y-156772759D01*
X115143590Y-156786179D01*
X115115964Y-156807967D01*
X115096956Y-156827218D01*
X115073712Y-156852607D01*
X115057146Y-156877737D01*
X115046128Y-156910480D01*
X115039527Y-156958706D01*
X115036211Y-157030284D01*
X115035048Y-157133086D01*
X115034909Y-157258909D01*
X114734727Y-157258909D01*
X114734727Y-156770031D01*
X114895773Y-156614555D01*
X115056818Y-156459079D01*
X115428132Y-156466448D01*
G36*
X117235113Y-156463989D02*
G01*
X117333666Y-156471644D01*
X117408322Y-156488994D01*
X117470195Y-156519797D01*
X117530404Y-156567810D01*
X117591388Y-156627849D01*
X117688686Y-156727857D01*
X117598087Y-156825974D01*
X117545938Y-156879071D01*
X117504968Y-156914700D01*
X117488002Y-156924091D01*
X117461815Y-156908805D01*
X117417110Y-156869925D01*
X117390182Y-156843273D01*
X117351814Y-156805228D01*
X117318458Y-156781509D01*
X117278006Y-156768731D01*
X117218347Y-156763511D01*
X117127372Y-156762462D01*
X117101041Y-156762454D01*
X116998986Y-156763554D01*
X116931917Y-156768380D01*
X116888659Y-156779218D01*
X116858037Y-156798357D01*
X116840025Y-156815897D01*
X116821656Y-156837950D01*
X116808406Y-156863894D01*
X116799444Y-156901124D01*
X116793938Y-156957037D01*
X116791055Y-157039029D01*
X116789963Y-157154496D01*
X116789818Y-157262145D01*
X116790069Y-157405660D01*
X116791409Y-157510319D01*
X116794724Y-157583447D01*
X116800896Y-157632370D01*
X116810809Y-157664412D01*
X116825348Y-157686899D01*
X116843261Y-157705157D01*
X116875152Y-157729775D01*
X116914353Y-157744828D01*
X116972433Y-157752561D01*
X117060960Y-157755218D01*
X117102060Y-157755364D01*
X117307416Y-157755364D01*
X117395377Y-157669472D01*
X117483337Y-157583581D01*
X117587094Y-157687338D01*
X117690851Y-157791096D01*
X117562876Y-157917548D01*
X117434900Y-158044000D01*
X117129677Y-158049203D01*
X117011844Y-158049659D01*
X116907695Y-158047187D01*
X116827526Y-158042234D01*
X116781634Y-158035244D01*
X116778273Y-158034017D01*
X116740373Y-158008146D01*
X116682477Y-157958432D01*
X116616058Y-157894835D01*
X116605091Y-157883713D01*
X116478091Y-157753799D01*
X116478091Y-156764262D01*
X116593545Y-156646092D01*
X116668126Y-156572659D01*
X116731188Y-156521882D01*
X116794207Y-156489608D01*
X116868662Y-156471683D01*
X116966028Y-156463956D01*
X117097782Y-156462273D01*
X117101545Y-156462273D01*
X117235113Y-156463989D01*
G37*
X117235113Y-156463989D02*
X117333666Y-156471644D01*
X117408322Y-156488994D01*
X117470195Y-156519797D01*
X117530404Y-156567810D01*
X117591388Y-156627849D01*
X117688686Y-156727857D01*
X117598087Y-156825974D01*
X117545938Y-156879071D01*
X117504968Y-156914700D01*
X117488002Y-156924091D01*
X117461815Y-156908805D01*
X117417110Y-156869925D01*
X117390182Y-156843273D01*
X117351814Y-156805228D01*
X117318458Y-156781509D01*
X117278006Y-156768731D01*
X117218347Y-156763511D01*
X117127372Y-156762462D01*
X117101041Y-156762454D01*
X116998986Y-156763554D01*
X116931917Y-156768380D01*
X116888659Y-156779218D01*
X116858037Y-156798357D01*
X116840025Y-156815897D01*
X116821656Y-156837950D01*
X116808406Y-156863894D01*
X116799444Y-156901124D01*
X116793938Y-156957037D01*
X116791055Y-157039029D01*
X116789963Y-157154496D01*
X116789818Y-157262145D01*
X116790069Y-157405660D01*
X116791409Y-157510319D01*
X116794724Y-157583447D01*
X116800896Y-157632370D01*
X116810809Y-157664412D01*
X116825348Y-157686899D01*
X116843261Y-157705157D01*
X116875152Y-157729775D01*
X116914353Y-157744828D01*
X116972433Y-157752561D01*
X117060960Y-157755218D01*
X117102060Y-157755364D01*
X117307416Y-157755364D01*
X117395377Y-157669472D01*
X117483337Y-157583581D01*
X117587094Y-157687338D01*
X117690851Y-157791096D01*
X117562876Y-157917548D01*
X117434900Y-158044000D01*
X117129677Y-158049203D01*
X117011844Y-158049659D01*
X116907695Y-158047187D01*
X116827526Y-158042234D01*
X116781634Y-158035244D01*
X116778273Y-158034017D01*
X116740373Y-158008146D01*
X116682477Y-157958432D01*
X116616058Y-157894835D01*
X116605091Y-157883713D01*
X116478091Y-157753799D01*
X116478091Y-156764262D01*
X116593545Y-156646092D01*
X116668126Y-156572659D01*
X116731188Y-156521882D01*
X116794207Y-156489608D01*
X116868662Y-156471683D01*
X116966028Y-156463956D01*
X117097782Y-156462273D01*
X117101545Y-156462273D01*
X117235113Y-156463989D01*
G36*
X120807868Y-156593193D02*
G01*
X120949278Y-156724114D01*
X120739155Y-156934237D01*
X120651195Y-156848346D01*
X120563235Y-156762454D01*
X120320006Y-156762455D01*
X120209913Y-156763234D01*
X120135917Y-156766797D01*
X120087944Y-156774977D01*
X120055919Y-156789609D01*
X120029768Y-156812529D01*
X120026570Y-156815897D01*
X119986639Y-156884941D01*
X119976364Y-156965988D01*
X119980048Y-157025431D01*
X119989297Y-157059550D01*
X119993682Y-157062732D01*
X120041970Y-157066368D01*
X120123330Y-157076019D01*
X120228672Y-157090276D01*
X120348908Y-157107729D01*
X120474948Y-157126971D01*
X120597704Y-157146591D01*
X120708087Y-157165181D01*
X120797009Y-157181331D01*
X120855380Y-157193633D01*
X120872914Y-157199044D01*
X120927153Y-157237312D01*
X120962789Y-157289111D01*
X120983153Y-157363733D01*
X120991579Y-157470471D01*
X120992364Y-157532123D01*
X120992364Y-157737334D01*
X120843539Y-157890667D01*
X120694715Y-158044000D01*
X120302800Y-158051270D01*
X119910886Y-158058540D01*
X119776216Y-157937352D01*
X119711399Y-157877415D01*
X119661260Y-157828029D01*
X119634848Y-157798186D01*
X119633145Y-157795201D01*
X119643336Y-157768247D01*
X119677704Y-157723340D01*
X119725024Y-157672182D01*
X119774071Y-157626474D01*
X119813619Y-157597918D01*
X119826429Y-157593727D01*
X119856242Y-157609130D01*
X119903335Y-157648277D01*
X119930182Y-157674545D01*
X120008514Y-157755364D01*
X120288595Y-157755364D01*
X120407494Y-157754805D01*
X120489350Y-157752146D01*
X120543298Y-157745907D01*
X120578473Y-157734610D01*
X120604009Y-157716777D01*
X120618884Y-157701921D01*
X120658815Y-157632877D01*
X120669091Y-157551830D01*
X120667160Y-157492399D01*
X120662311Y-157458334D01*
X120660016Y-157455182D01*
X120635356Y-157452223D01*
X120572259Y-157443996D01*
X120478045Y-157431474D01*
X120360035Y-157415629D01*
X120227061Y-157397639D01*
X120057850Y-157373587D01*
X119928634Y-157351764D01*
X119833456Y-157329807D01*
X119766357Y-157305354D01*
X119721381Y-157276039D01*
X119692569Y-157239502D01*
X119673964Y-157193377D01*
X119669233Y-157176360D01*
X119659949Y-157112600D01*
X119655639Y-157022737D01*
X119657094Y-156930312D01*
X119662776Y-156842581D01*
X119673908Y-156783896D01*
X119697900Y-156737165D01*
X119742163Y-156685295D01*
X119780517Y-156645637D01*
X119848939Y-156577674D01*
X119907027Y-156528975D01*
X119964616Y-156496335D01*
X120031539Y-156476550D01*
X120117631Y-156466417D01*
X120232725Y-156462732D01*
X120343355Y-156462273D01*
X120666458Y-156462273D01*
X120807868Y-156593193D01*
G37*
X120807868Y-156593193D02*
X120949278Y-156724114D01*
X120739155Y-156934237D01*
X120651195Y-156848346D01*
X120563235Y-156762454D01*
X120320006Y-156762455D01*
X120209913Y-156763234D01*
X120135917Y-156766797D01*
X120087944Y-156774977D01*
X120055919Y-156789609D01*
X120029768Y-156812529D01*
X120026570Y-156815897D01*
X119986639Y-156884941D01*
X119976364Y-156965988D01*
X119980048Y-157025431D01*
X119989297Y-157059550D01*
X119993682Y-157062732D01*
X120041970Y-157066368D01*
X120123330Y-157076019D01*
X120228672Y-157090276D01*
X120348908Y-157107729D01*
X120474948Y-157126971D01*
X120597704Y-157146591D01*
X120708087Y-157165181D01*
X120797009Y-157181331D01*
X120855380Y-157193633D01*
X120872914Y-157199044D01*
X120927153Y-157237312D01*
X120962789Y-157289111D01*
X120983153Y-157363733D01*
X120991579Y-157470471D01*
X120992364Y-157532123D01*
X120992364Y-157737334D01*
X120843539Y-157890667D01*
X120694715Y-158044000D01*
X120302800Y-158051270D01*
X119910886Y-158058540D01*
X119776216Y-157937352D01*
X119711399Y-157877415D01*
X119661260Y-157828029D01*
X119634848Y-157798186D01*
X119633145Y-157795201D01*
X119643336Y-157768247D01*
X119677704Y-157723340D01*
X119725024Y-157672182D01*
X119774071Y-157626474D01*
X119813619Y-157597918D01*
X119826429Y-157593727D01*
X119856242Y-157609130D01*
X119903335Y-157648277D01*
X119930182Y-157674545D01*
X120008514Y-157755364D01*
X120288595Y-157755364D01*
X120407494Y-157754805D01*
X120489350Y-157752146D01*
X120543298Y-157745907D01*
X120578473Y-157734610D01*
X120604009Y-157716777D01*
X120618884Y-157701921D01*
X120658815Y-157632877D01*
X120669091Y-157551830D01*
X120667160Y-157492399D01*
X120662311Y-157458334D01*
X120660016Y-157455182D01*
X120635356Y-157452223D01*
X120572259Y-157443996D01*
X120478045Y-157431474D01*
X120360035Y-157415629D01*
X120227061Y-157397639D01*
X120057850Y-157373587D01*
X119928634Y-157351764D01*
X119833456Y-157329807D01*
X119766357Y-157305354D01*
X119721381Y-157276039D01*
X119692569Y-157239502D01*
X119673964Y-157193377D01*
X119669233Y-157176360D01*
X119659949Y-157112600D01*
X119655639Y-157022737D01*
X119657094Y-156930312D01*
X119662776Y-156842581D01*
X119673908Y-156783896D01*
X119697900Y-156737165D01*
X119742163Y-156685295D01*
X119780517Y-156645637D01*
X119848939Y-156577674D01*
X119907027Y-156528975D01*
X119964616Y-156496335D01*
X120031539Y-156476550D01*
X120117631Y-156466417D01*
X120232725Y-156462732D01*
X120343355Y-156462273D01*
X120666458Y-156462273D01*
X120807868Y-156593193D01*
G36*
X122084162Y-156463983D02*
G01*
X122182691Y-156471630D01*
X122257356Y-156488993D01*
X122319291Y-156519847D01*
X122379629Y-156567971D01*
X122441364Y-156628750D01*
X122539545Y-156729659D01*
X122435653Y-156831622D01*
X122331760Y-156933585D01*
X122244134Y-156848020D01*
X122156507Y-156762454D01*
X121947915Y-156762454D01*
X121846418Y-156763583D01*
X121779817Y-156768519D01*
X121736849Y-156779589D01*
X121706253Y-156799118D01*
X121689116Y-156815897D01*
X121670747Y-156837950D01*
X121657497Y-156863894D01*
X121648535Y-156901124D01*
X121643029Y-156957037D01*
X121640146Y-157039029D01*
X121639053Y-157154496D01*
X121638909Y-157262145D01*
X121639159Y-157405660D01*
X121640500Y-157510319D01*
X121643815Y-157583447D01*
X121649987Y-157632370D01*
X121659900Y-157664412D01*
X121674439Y-157686899D01*
X121692352Y-157705157D01*
X121724242Y-157729775D01*
X121763444Y-157744828D01*
X121821524Y-157752561D01*
X121910051Y-157755218D01*
X121951151Y-157755364D01*
X122156507Y-157755364D01*
X122244468Y-157669472D01*
X122332428Y-157583581D01*
X122436185Y-157687338D01*
X122539942Y-157791096D01*
X122411967Y-157917548D01*
X122283991Y-158044000D01*
X121978768Y-158050658D01*
X121850916Y-158052694D01*
X121760031Y-158051667D01*
X121696944Y-158046655D01*
X121652491Y-158036734D01*
X121617505Y-158020982D01*
X121604273Y-158012947D01*
X121550434Y-157971950D01*
X121482584Y-157911635D01*
X121431091Y-157861004D01*
X121327182Y-157753430D01*
X121327182Y-156764262D01*
X121442636Y-156646092D01*
X121517217Y-156572659D01*
X121580279Y-156521882D01*
X121643298Y-156489608D01*
X121717752Y-156471683D01*
X121815119Y-156463956D01*
X121946873Y-156462273D01*
X121950636Y-156462273D01*
X122084162Y-156463983D01*
G37*
X122084162Y-156463983D02*
X122182691Y-156471630D01*
X122257356Y-156488993D01*
X122319291Y-156519847D01*
X122379629Y-156567971D01*
X122441364Y-156628750D01*
X122539545Y-156729659D01*
X122435653Y-156831622D01*
X122331760Y-156933585D01*
X122244134Y-156848020D01*
X122156507Y-156762454D01*
X121947915Y-156762454D01*
X121846418Y-156763583D01*
X121779817Y-156768519D01*
X121736849Y-156779589D01*
X121706253Y-156799118D01*
X121689116Y-156815897D01*
X121670747Y-156837950D01*
X121657497Y-156863894D01*
X121648535Y-156901124D01*
X121643029Y-156957037D01*
X121640146Y-157039029D01*
X121639053Y-157154496D01*
X121638909Y-157262145D01*
X121639159Y-157405660D01*
X121640500Y-157510319D01*
X121643815Y-157583447D01*
X121649987Y-157632370D01*
X121659900Y-157664412D01*
X121674439Y-157686899D01*
X121692352Y-157705157D01*
X121724242Y-157729775D01*
X121763444Y-157744828D01*
X121821524Y-157752561D01*
X121910051Y-157755218D01*
X121951151Y-157755364D01*
X122156507Y-157755364D01*
X122244468Y-157669472D01*
X122332428Y-157583581D01*
X122436185Y-157687338D01*
X122539942Y-157791096D01*
X122411967Y-157917548D01*
X122283991Y-158044000D01*
X121978768Y-158050658D01*
X121850916Y-158052694D01*
X121760031Y-158051667D01*
X121696944Y-158046655D01*
X121652491Y-158036734D01*
X121617505Y-158020982D01*
X121604273Y-158012947D01*
X121550434Y-157971950D01*
X121482584Y-157911635D01*
X121431091Y-157861004D01*
X121327182Y-157753430D01*
X121327182Y-156764262D01*
X121442636Y-156646092D01*
X121517217Y-156572659D01*
X121580279Y-156521882D01*
X121643298Y-156489608D01*
X121717752Y-156471683D01*
X121815119Y-156463956D01*
X121946873Y-156462273D01*
X121950636Y-156462273D01*
X122084162Y-156463983D01*
G36*
X124895457Y-157045318D02*
G01*
X124896187Y-157628364D01*
X124952077Y-157691864D01*
X124982707Y-157723099D01*
X125015011Y-157741968D01*
X125061137Y-157751566D01*
X125133230Y-157754987D01*
X125201322Y-157755364D01*
X125298973Y-157754004D01*
X125362403Y-157748181D01*
X125403536Y-157735278D01*
X125434294Y-157712678D01*
X125444884Y-157701921D01*
X125460186Y-157684097D01*
X125472015Y-157663380D01*
X125480817Y-157634021D01*
X125487040Y-157590268D01*
X125491130Y-157526373D01*
X125493533Y-157436584D01*
X125494695Y-157315151D01*
X125495064Y-157156325D01*
X125495091Y-157055375D01*
X125495091Y-156462273D01*
X125795273Y-156462273D01*
X125795273Y-157759961D01*
X125658070Y-157901981D01*
X125520867Y-158044000D01*
X125219548Y-158051604D01*
X124918229Y-158059207D01*
X124773728Y-157924604D01*
X124705758Y-157860480D01*
X124650513Y-157806863D01*
X124617065Y-157772611D01*
X124612239Y-157766909D01*
X124607793Y-157738594D01*
X124603755Y-157670252D01*
X124600288Y-157568036D01*
X124597552Y-157438099D01*
X124595707Y-157286596D01*
X124594914Y-157119680D01*
X124594899Y-157103045D01*
X124594545Y-156462273D01*
X124894727Y-156462273D01*
X124895457Y-157045318D01*
G37*
X124895457Y-157045318D02*
X124896187Y-157628364D01*
X124952077Y-157691864D01*
X124982707Y-157723099D01*
X125015011Y-157741968D01*
X125061137Y-157751566D01*
X125133230Y-157754987D01*
X125201322Y-157755364D01*
X125298973Y-157754004D01*
X125362403Y-157748181D01*
X125403536Y-157735278D01*
X125434294Y-157712678D01*
X125444884Y-157701921D01*
X125460186Y-157684097D01*
X125472015Y-157663380D01*
X125480817Y-157634021D01*
X125487040Y-157590268D01*
X125491130Y-157526373D01*
X125493533Y-157436584D01*
X125494695Y-157315151D01*
X125495064Y-157156325D01*
X125495091Y-157055375D01*
X125495091Y-156462273D01*
X125795273Y-156462273D01*
X125795273Y-157759961D01*
X125658070Y-157901981D01*
X125520867Y-158044000D01*
X125219548Y-158051604D01*
X124918229Y-158059207D01*
X124773728Y-157924604D01*
X124705758Y-157860480D01*
X124650513Y-157806863D01*
X124617065Y-157772611D01*
X124612239Y-157766909D01*
X124607793Y-157738594D01*
X124603755Y-157670252D01*
X124600288Y-157568036D01*
X124597552Y-157438099D01*
X124595707Y-157286596D01*
X124594914Y-157119680D01*
X124594899Y-157103045D01*
X124594545Y-156462273D01*
X124894727Y-156462273D01*
X124895457Y-157045318D01*
G36*
X113372364Y-157108818D02*
G01*
X113972727Y-157108818D01*
X113972727Y-156462273D01*
X114272909Y-156462273D01*
X114272909Y-158032455D01*
X113972727Y-158032455D01*
X113972727Y-157385909D01*
X113372364Y-157385909D01*
X113372364Y-158032455D01*
X113072182Y-158032455D01*
X113072182Y-156462273D01*
X113372364Y-156462273D01*
X113372364Y-157108818D01*
G37*
X113372364Y-157108818D02*
X113972727Y-157108818D01*
X113972727Y-156462273D01*
X114272909Y-156462273D01*
X114272909Y-158032455D01*
X113972727Y-158032455D01*
X113972727Y-157385909D01*
X113372364Y-157385909D01*
X113372364Y-158032455D01*
X113072182Y-158032455D01*
X113072182Y-156462273D01*
X113372364Y-156462273D01*
X113372364Y-157108818D01*
G36*
X118313818Y-157108818D02*
G01*
X118914182Y-157108818D01*
X118914182Y-156462273D01*
X119237454Y-156462273D01*
X119237454Y-158032455D01*
X118914182Y-158032455D01*
X118914182Y-157385909D01*
X118313818Y-157385909D01*
X118313818Y-158032455D01*
X118036727Y-158032455D01*
X118036727Y-156462273D01*
X118313818Y-156462273D01*
X118313818Y-157108818D01*
G37*
X118313818Y-157108818D02*
X118914182Y-157108818D01*
X118914182Y-156462273D01*
X119237454Y-156462273D01*
X119237454Y-158032455D01*
X118914182Y-158032455D01*
X118914182Y-157385909D01*
X118313818Y-157385909D01*
X118313818Y-158032455D01*
X118036727Y-158032455D01*
X118036727Y-156462273D01*
X118313818Y-156462273D01*
X118313818Y-157108818D01*
G36*
X123186000Y-157108818D02*
G01*
X123786364Y-157108818D01*
X123786364Y-156462273D01*
X124086545Y-156462273D01*
X124086545Y-158032455D01*
X123786364Y-158032455D01*
X123786364Y-157385909D01*
X123186000Y-157385909D01*
X123186000Y-158032455D01*
X122885818Y-158032455D01*
X122885818Y-156462273D01*
X123186000Y-156462273D01*
X123186000Y-157108818D01*
G37*
X123186000Y-157108818D02*
X123786364Y-157108818D01*
X123786364Y-156462273D01*
X124086545Y-156462273D01*
X124086545Y-158032455D01*
X123786364Y-158032455D01*
X123786364Y-157385909D01*
X123186000Y-157385909D01*
X123186000Y-158032455D01*
X122885818Y-158032455D01*
X122885818Y-156462273D01*
X123186000Y-156462273D01*
X123186000Y-157108818D01*
G36*
X126580364Y-157755364D02*
G01*
X127365454Y-157755364D01*
X127365454Y-158032455D01*
X126303273Y-158032455D01*
X126303273Y-156462273D01*
X126580364Y-156462273D01*
X126580364Y-157755364D01*
G37*
X126580364Y-157755364D02*
X127365454Y-157755364D01*
X127365454Y-158032455D01*
X126303273Y-158032455D01*
X126303273Y-156462273D01*
X126580364Y-156462273D01*
X126580364Y-157755364D01*
G36*
X128774000Y-156739364D02*
G01*
X128012000Y-156739364D01*
X128012000Y-157108818D01*
X128589273Y-157108818D01*
X128589273Y-157385909D01*
X128012000Y-157385909D01*
X128012000Y-157755364D01*
X128774000Y-157755364D01*
X128774000Y-158032455D01*
X127711818Y-158032455D01*
X127711818Y-156739364D01*
X127527091Y-156739364D01*
X127527091Y-156462273D01*
X128774000Y-156462273D01*
X128774000Y-156739364D01*
G37*
X128774000Y-156739364D02*
X128012000Y-156739364D01*
X128012000Y-157108818D01*
X128589273Y-157108818D01*
X128589273Y-157385909D01*
X128012000Y-157385909D01*
X128012000Y-157755364D01*
X128774000Y-157755364D01*
X128774000Y-158032455D01*
X127711818Y-158032455D01*
X127711818Y-156739364D01*
X127527091Y-156739364D01*
X127527091Y-156462273D01*
X128774000Y-156462273D01*
X128774000Y-156739364D01*
D11*
X71605000Y-92115000D02*
X68945000Y-92115000D01*
X71605000Y-97255000D02*
X71605000Y-92115000D01*
X68945000Y-97255000D02*
X68945000Y-92115000D01*
X71605000Y-97255000D02*
X68945000Y-97255000D01*
X71605000Y-98525000D02*
X71605000Y-99855000D01*
X71605000Y-99855000D02*
X70275000Y-99855000D01*
X117570000Y-99810000D02*
X120230000Y-99810000D01*
X117570000Y-94670000D02*
X117570000Y-99810000D01*
X120230000Y-94670000D02*
X120230000Y-99810000D01*
X117570000Y-94670000D02*
X120230000Y-94670000D01*
X117570000Y-93400000D02*
X117570000Y-92070000D01*
X117570000Y-92070000D02*
X118900000Y-92070000D01*
X87210063Y-94889593D02*
X91654661Y-94185638D01*
X87522932Y-96864970D02*
X91967530Y-96161014D01*
X91967530Y-96161014D02*
X91811095Y-95173326D01*
X82374666Y-96392985D02*
X86654420Y-95002408D01*
X82992700Y-98295098D02*
X87272454Y-96904521D01*
X87272454Y-96904521D02*
X86963437Y-95953465D01*
X77870295Y-98676474D02*
X81879824Y-96633517D01*
X78778276Y-100458487D02*
X82787805Y-98415530D01*
X82787805Y-98415530D02*
X82333815Y-97524523D01*
X73672058Y-101631234D02*
X77312634Y-98986200D01*
X74847628Y-103249268D02*
X78488205Y-100604234D01*
X78488205Y-100604234D02*
X77900419Y-99795217D01*
X70053680Y-105223528D02*
X73235660Y-102041548D01*
X71467893Y-106637742D02*
X74649874Y-103455761D01*
X74649874Y-103455761D02*
X73942767Y-102748654D01*
X67012536Y-109319929D02*
X69657569Y-105679352D01*
X68630570Y-110495499D02*
X71275603Y-106854923D01*
X71275603Y-106854923D02*
X70466586Y-106267138D01*
X64669714Y-113812522D02*
X66712671Y-109802993D01*
X66451727Y-114720503D02*
X68494684Y-110710974D01*
X68494684Y-110710974D02*
X67603678Y-110256983D01*
X63045113Y-118669103D02*
X64435690Y-114389349D01*
X64947226Y-119287137D02*
X66337803Y-115007383D01*
X66337803Y-115007383D02*
X65386746Y-114698366D01*
X62207568Y-123733354D02*
X62911523Y-119288757D01*
X64182945Y-124046223D02*
X64886900Y-119601626D01*
X64886900Y-119601626D02*
X63899212Y-119445191D01*
X62175000Y-128800000D02*
X62175000Y-124300000D01*
X64175000Y-128800000D02*
X64175000Y-124300000D01*
X64175000Y-124300000D02*
X63175000Y-124300000D01*
X62939593Y-133889937D02*
X62235638Y-129445339D01*
X64914970Y-133577068D02*
X64211014Y-129132470D01*
X64211014Y-129132470D02*
X63223326Y-129288905D01*
X64467985Y-138750334D02*
X63077408Y-134470580D01*
X66370098Y-138132300D02*
X64979521Y-133852546D01*
X64979521Y-133852546D02*
X64028465Y-134161563D01*
X66751474Y-143279705D02*
X64708517Y-139270176D01*
X68533487Y-142371724D02*
X66490530Y-138362195D01*
X66490530Y-138362195D02*
X65599523Y-138816185D01*
X69731234Y-147402942D02*
X67086200Y-143762366D01*
X71349268Y-146227372D02*
X68704234Y-142586795D01*
X68704234Y-142586795D02*
X67895217Y-143174581D01*
X73273528Y-151046320D02*
X70091548Y-147864340D01*
X74687742Y-149632107D02*
X71505761Y-146450126D01*
X71505761Y-146450126D02*
X70798654Y-147157233D01*
X77369929Y-154062464D02*
X73729352Y-151417431D01*
X78545499Y-152444430D02*
X74904923Y-149799397D01*
X74904923Y-149799397D02*
X74317138Y-150608414D01*
X81912522Y-156405286D02*
X77902993Y-154362329D01*
X82820503Y-154623273D02*
X78810974Y-152580316D01*
X78810974Y-152580316D02*
X78356983Y-153471322D01*
X86719103Y-158004887D02*
X82439349Y-156614310D01*
X87337137Y-156102774D02*
X83057383Y-154712197D01*
X83057383Y-154712197D02*
X82748366Y-155663254D01*
X91783354Y-158842432D02*
X87338757Y-158138477D01*
X92096223Y-156867055D02*
X87651626Y-156163100D01*
X87651626Y-156163100D02*
X87495191Y-157150788D01*
X96825000Y-158875000D02*
X92325000Y-158875000D01*
X96825000Y-156875000D02*
X92325000Y-156875000D01*
X92325000Y-156875000D02*
X92325000Y-157875000D01*
X101889937Y-158110407D02*
X97445339Y-158814362D01*
X101577068Y-156135030D02*
X97132470Y-156838986D01*
X97132470Y-156838986D02*
X97288905Y-157826674D01*
X106800334Y-156557015D02*
X102520580Y-157947592D01*
X106182300Y-154654902D02*
X101902546Y-156045479D01*
X101902546Y-156045479D02*
X102211563Y-156996535D01*
X111379705Y-154273526D02*
X107370176Y-156316483D01*
X110471724Y-152491513D02*
X106462195Y-154534470D01*
X106462195Y-154534470D02*
X106916185Y-155425477D01*
X115577942Y-151268766D02*
X111937366Y-153913800D01*
X114402372Y-149650732D02*
X110761795Y-152295766D01*
X110761795Y-152295766D02*
X111349581Y-153104783D01*
X119196320Y-147651472D02*
X116014340Y-150833452D01*
X117782107Y-146237258D02*
X114600126Y-149419239D01*
X114600126Y-149419239D02*
X115307233Y-150126346D01*
X122162464Y-143580071D02*
X119517431Y-147220648D01*
X120544430Y-142404501D02*
X117899397Y-146045077D01*
X117899397Y-146045077D02*
X118708414Y-146632862D01*
X124505286Y-139062478D02*
X122462329Y-143072007D01*
X122723273Y-138154497D02*
X120680316Y-142164026D01*
X120680316Y-142164026D02*
X121571322Y-142618017D01*
X126079887Y-134280897D02*
X124689310Y-138560651D01*
X124177774Y-133662863D02*
X122787197Y-137942617D01*
X122787197Y-137942617D02*
X123738254Y-138251634D01*
X126917432Y-129241646D02*
X126213477Y-133686243D01*
X124942055Y-128928777D02*
X124238100Y-133373374D01*
X124238100Y-133373374D02*
X125225788Y-133529809D01*
X126925000Y-124200000D02*
X126925000Y-128700000D01*
X124925000Y-124200000D02*
X124925000Y-128700000D01*
X124925000Y-128700000D02*
X125925000Y-128700000D01*
X126185407Y-119235063D02*
X126889362Y-123679661D01*
X124210030Y-119547932D02*
X124913986Y-123992530D01*
X124913986Y-123992530D02*
X125901674Y-123836095D01*
X124657015Y-114374666D02*
X126047592Y-118654420D01*
X122754902Y-114992700D02*
X124145479Y-119272454D01*
X124145479Y-119272454D02*
X125096535Y-118963437D01*
X122398526Y-109845295D02*
X124441483Y-113854824D01*
X120616513Y-110753276D02*
X122659470Y-114762805D01*
X122659470Y-114762805D02*
X123550477Y-114308815D01*
X119393766Y-105647058D02*
X122038800Y-109287634D01*
X117775732Y-106822628D02*
X120420766Y-110463205D01*
X120420766Y-110463205D02*
X121229783Y-109875419D01*
X115826472Y-102003680D02*
X119008452Y-105185660D01*
X114412258Y-103417893D02*
X117594239Y-106599874D01*
X117594239Y-106599874D02*
X118301346Y-105892767D01*
X111680071Y-98912536D02*
X115320648Y-101557569D01*
X110504501Y-100530570D02*
X114145077Y-103175603D01*
X114145077Y-103175603D02*
X114732862Y-102366586D01*
X107212478Y-96594714D02*
X111222007Y-98637671D01*
X106304497Y-98376727D02*
X110314026Y-100419684D01*
X110314026Y-100419684D02*
X110768017Y-99528678D01*
X102405897Y-94995113D02*
X106685651Y-96385690D01*
X101787863Y-96897226D02*
X106067617Y-98287803D01*
X106067617Y-98287803D02*
X106376634Y-97336746D01*
X88510448Y-93337139D02*
X89201830Y-93227635D01*
X89389552Y-94412861D02*
X88698170Y-94522365D01*
X84256720Y-94137522D02*
X84922460Y-93921210D01*
X85293280Y-95062478D02*
X84627540Y-95278790D01*
X79265753Y-96199293D02*
X79889458Y-95881499D01*
X80434247Y-96950707D02*
X79810542Y-97268501D01*
X74739173Y-98870315D02*
X75305485Y-98458865D01*
X76010827Y-99429685D02*
X75444515Y-99841135D01*
X70428249Y-102423223D02*
X70923223Y-101928249D01*
X71771751Y-102776777D02*
X71276777Y-103271751D01*
X66908865Y-106530485D02*
X67320315Y-105964173D01*
X68291135Y-106669515D02*
X67879685Y-107235827D01*
X64231499Y-111014458D02*
X64549293Y-110390753D01*
X65618501Y-110935542D02*
X65300707Y-111559247D01*
X62196210Y-115822460D02*
X62412522Y-115156720D01*
X63553790Y-115527540D02*
X63337478Y-116193280D01*
X61052635Y-121126830D02*
X61162139Y-120435448D01*
X62347365Y-120623170D02*
X62237861Y-121314552D01*
X60875000Y-126500000D02*
X60875000Y-125800000D01*
X62075000Y-125800000D02*
X62075000Y-126500000D01*
X60962139Y-131764552D02*
X60852635Y-131073170D01*
X62037861Y-130885448D02*
X62147365Y-131576830D01*
X62212522Y-137118280D02*
X61996210Y-136452540D01*
X63137478Y-136081720D02*
X63353790Y-136747460D01*
X64174293Y-141984247D02*
X63856499Y-141360542D01*
X64925707Y-140815753D02*
X65243501Y-141439458D01*
X66945315Y-146585827D02*
X66533865Y-146019515D01*
X67504685Y-145314173D02*
X67916135Y-145880485D01*
X70348223Y-150671751D02*
X69853249Y-150176777D01*
X70701777Y-149328249D02*
X71196751Y-149823223D01*
X74505485Y-154141135D02*
X73939173Y-153729685D01*
X74644515Y-152758865D02*
X75210827Y-153170315D01*
X78964458Y-156868501D02*
X78340753Y-156550707D01*
X78885542Y-155481499D02*
X79509247Y-155799293D01*
X83997460Y-159003790D02*
X83331720Y-158787478D01*
X83702540Y-157646210D02*
X84368280Y-157862522D01*
X89176830Y-160147365D02*
X88485448Y-160037861D01*
X88673170Y-158852635D02*
X89364552Y-158962139D01*
X94425000Y-160300000D02*
X93725000Y-160300000D01*
X93725000Y-159100000D02*
X94425000Y-159100000D01*
X99989552Y-159887861D02*
X99298170Y-159997365D01*
X99110448Y-158812139D02*
X99801830Y-158702635D01*
X105168280Y-158937478D02*
X104502540Y-159153790D01*
X104131720Y-158012522D02*
X104797460Y-157796210D01*
X110109247Y-156775707D02*
X109485542Y-157093501D01*
X108940753Y-156024293D02*
X109564458Y-155706499D01*
X114685827Y-154154685D02*
X114119515Y-154566135D01*
X113414173Y-153595315D02*
X113980485Y-153183865D01*
X118671751Y-150651777D02*
X118176777Y-151146751D01*
X117328249Y-150298223D02*
X117823223Y-149803249D01*
X122166135Y-146719515D02*
X121754685Y-147285827D01*
X120783865Y-146580485D02*
X121195315Y-146014173D01*
X124918501Y-142310542D02*
X124600707Y-142934247D01*
X123531499Y-142389458D02*
X123849293Y-141765753D01*
X127053790Y-137352540D02*
X126837478Y-138018280D01*
X125696210Y-137647460D02*
X125912522Y-136981720D01*
X127897365Y-131848170D02*
X127787861Y-132539552D01*
X126602635Y-132351830D02*
X126712139Y-131660448D01*
X128325000Y-126675000D02*
X128325000Y-127375000D01*
X127125000Y-127375000D02*
X127125000Y-126675000D01*
X128187861Y-121060448D02*
X128297365Y-121751830D01*
X127112139Y-121939552D02*
X127002635Y-121248170D01*
X126937478Y-116006720D02*
X127153790Y-116672460D01*
X126012522Y-117043280D02*
X125796210Y-116377540D01*
X125025707Y-111215753D02*
X125343501Y-111839458D01*
X124274293Y-112384247D02*
X123956499Y-111760542D01*
X122179685Y-106589173D02*
X122591135Y-107155485D01*
X121620315Y-107860827D02*
X121208865Y-107294515D01*
X118676777Y-102453249D02*
X119171751Y-102948223D01*
X118323223Y-103796751D02*
X117828249Y-103301777D01*
X114544515Y-98908865D02*
X115110827Y-99320315D01*
X114405485Y-100291135D02*
X113839173Y-99879685D01*
X109935542Y-96281499D02*
X110559247Y-96599293D01*
X110014458Y-97668501D02*
X109390753Y-97350707D01*
X105027540Y-94371210D02*
X105693280Y-94587522D01*
X105322460Y-95728790D02*
X104656720Y-95512478D01*
X97366646Y-94157568D02*
X101811243Y-94861523D01*
X97053777Y-96132945D02*
X101498374Y-96836900D01*
X101498374Y-96836900D02*
X101654809Y-95849212D01*
X92250000Y-94125000D02*
X96750000Y-94125000D01*
X92250000Y-96125000D02*
X96750000Y-96125000D01*
X96750000Y-96125000D02*
X96750000Y-95125000D01*
X99798170Y-93052635D02*
X100489552Y-93162139D01*
X100301830Y-94347365D02*
X99610448Y-94237861D01*
X94975000Y-92750000D02*
X95675000Y-92750000D01*
X95675000Y-93950000D02*
X94975000Y-93950000D01*
D10*
X72266666Y-92402380D02*
X72266666Y-93116666D01*
X72219047Y-93259523D01*
X72123809Y-93354761D01*
X71980952Y-93402380D01*
X71885714Y-93402380D01*
X72695238Y-92497619D02*
X72742857Y-92450000D01*
X72838095Y-92402380D01*
X73076190Y-92402380D01*
X73171428Y-92450000D01*
X73219047Y-92497619D01*
X73266666Y-92592857D01*
X73266666Y-92688095D01*
X73219047Y-92830952D01*
X72647619Y-93402380D01*
X73266666Y-93402380D01*
X116116666Y-92802380D02*
X116116666Y-93516666D01*
X116069047Y-93659523D01*
X115973809Y-93754761D01*
X115830952Y-93802380D01*
X115735714Y-93802380D01*
X117116666Y-93802380D02*
X116545238Y-93802380D01*
X116830952Y-93802380D02*
X116830952Y-92802380D01*
X116735714Y-92945238D01*
X116640476Y-93040476D01*
X116545238Y-93088095D01*
X87670169Y-93346361D02*
X87199842Y-93420854D01*
X87043407Y-92433165D01*
X87917457Y-92776856D02*
X88246686Y-92724711D01*
X88469727Y-93219724D02*
X87999399Y-93294216D01*
X87842964Y-92306528D01*
X88313292Y-92232035D01*
X88893022Y-93152680D02*
X88736587Y-92164992D01*
X88971751Y-92127746D01*
X89120299Y-92152431D01*
X89229263Y-92231598D01*
X89291194Y-92318214D01*
X89368024Y-92498896D01*
X89390372Y-92639994D01*
X89373136Y-92835575D01*
X89341002Y-92937089D01*
X89261835Y-93046053D01*
X89128186Y-93115434D01*
X88893022Y-93152680D01*
X90199715Y-92270744D02*
X90304005Y-92929203D01*
X89904957Y-91931728D02*
X89781532Y-92674466D01*
X90392958Y-92577625D01*
X90853062Y-91829775D02*
X90947128Y-91814877D01*
X91048643Y-91847011D01*
X91103125Y-91886595D01*
X91165056Y-91973211D01*
X91241886Y-92153893D01*
X91279132Y-92389057D01*
X91261896Y-92584637D01*
X91229762Y-92686152D01*
X91190179Y-92740634D01*
X91103562Y-92802565D01*
X91009497Y-92817464D01*
X90907982Y-92785329D01*
X90853500Y-92745746D01*
X90791568Y-92659130D01*
X90714739Y-92478448D01*
X90677492Y-92243284D01*
X90694728Y-92047703D01*
X90726862Y-91946189D01*
X90766446Y-91891707D01*
X90853062Y-91829775D01*
X82772631Y-94548195D02*
X82319747Y-94695346D01*
X82010730Y-93744289D01*
X82927784Y-93947017D02*
X83244803Y-93844011D01*
X83542534Y-94298038D02*
X83089650Y-94445189D01*
X82780633Y-93494133D01*
X83233517Y-93346982D01*
X83950130Y-94165603D02*
X83641113Y-93214546D01*
X83867555Y-93140971D01*
X84018135Y-93142114D01*
X84138142Y-93203260D01*
X84212861Y-93279122D01*
X84317010Y-93445561D01*
X84361155Y-93581426D01*
X84374727Y-93777294D01*
X84358869Y-93882586D01*
X84297722Y-94002593D01*
X84176572Y-94092027D01*
X83950130Y-94165603D01*
X84501593Y-92934959D02*
X85090342Y-92743663D01*
X84891044Y-93208976D01*
X85026909Y-93164831D01*
X85132201Y-93180689D01*
X85192204Y-93211262D01*
X85266923Y-93287124D01*
X85340498Y-93513566D01*
X85324640Y-93618858D01*
X85294067Y-93678861D01*
X85218205Y-93753580D01*
X84946475Y-93841870D01*
X84841183Y-93826012D01*
X84781179Y-93795439D01*
X85852243Y-93547569D02*
X86033397Y-93488708D01*
X86109258Y-93413990D01*
X86139832Y-93353986D01*
X86186263Y-93188691D01*
X86172691Y-92992822D01*
X86054970Y-92630515D01*
X85980252Y-92554653D01*
X85920248Y-92524080D01*
X85814956Y-92508221D01*
X85633803Y-92567082D01*
X85557941Y-92641800D01*
X85527368Y-92701804D01*
X85511509Y-92807096D01*
X85585085Y-93033538D01*
X85659804Y-93109400D01*
X85719807Y-93139973D01*
X85825099Y-93155831D01*
X86006253Y-93096971D01*
X86082114Y-93022252D01*
X86112688Y-92962249D01*
X86128546Y-92856957D01*
X78259009Y-96652297D02*
X77834720Y-96868483D01*
X77380729Y-95977476D01*
X78318206Y-96034249D02*
X78615208Y-95882919D01*
X78980300Y-96284781D02*
X78556011Y-96500967D01*
X78102020Y-95609960D01*
X78526309Y-95393774D01*
X79362160Y-96090213D02*
X78908169Y-95199207D01*
X79120313Y-95091114D01*
X79269219Y-95068687D01*
X79397314Y-95110308D01*
X79482980Y-95173547D01*
X79611883Y-95321644D01*
X79676739Y-95448930D01*
X79720784Y-95640264D01*
X79721593Y-95746741D01*
X79679972Y-95874836D01*
X79574304Y-95982120D01*
X79362160Y-96090213D01*
X79714318Y-94788454D02*
X80265893Y-94507412D01*
X80141840Y-94998173D01*
X80269126Y-94933317D01*
X80375603Y-94932509D01*
X80439650Y-94953319D01*
X80525316Y-95016558D01*
X80633409Y-95228703D01*
X80634218Y-95335179D01*
X80613407Y-95399227D01*
X80550168Y-95484893D01*
X80295595Y-95614604D01*
X80189119Y-95615413D01*
X80125071Y-95594602D01*
X80969607Y-94629849D02*
X80863131Y-94630657D01*
X80799083Y-94609847D01*
X80713417Y-94546607D01*
X80691799Y-94504179D01*
X80690990Y-94397702D01*
X80711801Y-94333655D01*
X80775040Y-94247989D01*
X80944755Y-94161514D01*
X81051232Y-94160706D01*
X81115279Y-94181516D01*
X81200945Y-94244755D01*
X81222564Y-94287184D01*
X81223372Y-94393661D01*
X81202562Y-94457708D01*
X81139323Y-94543374D01*
X80969607Y-94629849D01*
X80906368Y-94715515D01*
X80885558Y-94779562D01*
X80886366Y-94886038D01*
X80972840Y-95055754D01*
X81058507Y-95118993D01*
X81122554Y-95139803D01*
X81229030Y-95138995D01*
X81398746Y-95052521D01*
X81461985Y-94966855D01*
X81482795Y-94902807D01*
X81481987Y-94796331D01*
X81395513Y-94626615D01*
X81309847Y-94563376D01*
X81245799Y-94542566D01*
X81139323Y-94543374D01*
X73825328Y-99478641D02*
X73440081Y-99758539D01*
X72852296Y-98949522D01*
X73787112Y-98858942D02*
X74056785Y-98663013D01*
X74480246Y-99002815D02*
X74095000Y-99282712D01*
X73507215Y-98473695D01*
X73892461Y-98193798D01*
X74826968Y-98750907D02*
X74239182Y-97941890D01*
X74431806Y-97801941D01*
X74575369Y-97756496D01*
X74708398Y-97777566D01*
X74802902Y-97826625D01*
X74953386Y-97952734D01*
X75037355Y-98068308D01*
X75110790Y-98250396D01*
X75128245Y-98355435D01*
X75107175Y-98488464D01*
X75019591Y-98610958D01*
X74826968Y-98750907D01*
X74971150Y-97410084D02*
X75471970Y-97046217D01*
X75426216Y-97550342D01*
X75541790Y-97466373D01*
X75646829Y-97448918D01*
X75713343Y-97459453D01*
X75807848Y-97508512D01*
X75947796Y-97701135D01*
X75965251Y-97806174D01*
X75954717Y-97872689D01*
X75905657Y-97967193D01*
X75674509Y-98135132D01*
X75569470Y-98152587D01*
X75502956Y-98142052D01*
X75741643Y-96850289D02*
X76280987Y-96458432D01*
X76522051Y-97519357D01*
X69616877Y-103147884D02*
X69280160Y-103484601D01*
X68573053Y-102777495D01*
X69482190Y-102541792D02*
X69717893Y-102306090D01*
X70189297Y-102575464D02*
X69852580Y-102912182D01*
X69145473Y-102205075D01*
X69482190Y-101868357D01*
X70492343Y-102272418D02*
X69785236Y-101565311D01*
X69953595Y-101396953D01*
X70088282Y-101329609D01*
X70222969Y-101329609D01*
X70323984Y-101363281D01*
X70492343Y-101464296D01*
X70593358Y-101565311D01*
X70694374Y-101733670D01*
X70728045Y-101834686D01*
X70728045Y-101969373D01*
X70660702Y-102104060D01*
X70492343Y-102272418D01*
X70425000Y-100925548D02*
X70862732Y-100487815D01*
X70896404Y-100992892D01*
X70997419Y-100891876D01*
X71098435Y-100858205D01*
X71165778Y-100858205D01*
X71266793Y-100891876D01*
X71435152Y-101060235D01*
X71468824Y-101161250D01*
X71468824Y-101228594D01*
X71435152Y-101329609D01*
X71233122Y-101531640D01*
X71132106Y-101565311D01*
X71064763Y-101565311D01*
X71468824Y-99881724D02*
X71334137Y-100016411D01*
X71300465Y-100117426D01*
X71300465Y-100184770D01*
X71334137Y-100353128D01*
X71435152Y-100521487D01*
X71704526Y-100790861D01*
X71805541Y-100824533D01*
X71872885Y-100824533D01*
X71973900Y-100790861D01*
X72108587Y-100656174D01*
X72142259Y-100555159D01*
X72142259Y-100487815D01*
X72108587Y-100386800D01*
X71940228Y-100218441D01*
X71839213Y-100184770D01*
X71771870Y-100184770D01*
X71670854Y-100218441D01*
X71536167Y-100353128D01*
X71502496Y-100454144D01*
X71502496Y-100521487D01*
X71536167Y-100622502D01*
X66228326Y-107381476D02*
X65948428Y-107766722D01*
X65139411Y-107178937D01*
X66000484Y-106803916D02*
X66196412Y-106534244D01*
X66704152Y-106726558D02*
X66424254Y-107111804D01*
X65615237Y-106524018D01*
X65895135Y-106138772D01*
X66956060Y-106379836D02*
X66147043Y-105792051D01*
X66286992Y-105599428D01*
X66409486Y-105511844D01*
X66542515Y-105490774D01*
X66647554Y-105508229D01*
X66829642Y-105581663D01*
X66945216Y-105665633D01*
X67071324Y-105816116D01*
X67120384Y-105910620D01*
X67141454Y-106043649D01*
X67096009Y-106187213D01*
X66956060Y-106379836D01*
X66678849Y-105060083D02*
X67042716Y-104559263D01*
X67154984Y-105052853D01*
X67238954Y-104937280D01*
X67333458Y-104888220D01*
X67399972Y-104877685D01*
X67505011Y-104895140D01*
X67697634Y-105035089D01*
X67746694Y-105129593D01*
X67757229Y-105196108D01*
X67739774Y-105301147D01*
X67571835Y-105532294D01*
X67477331Y-105581354D01*
X67410817Y-105591889D01*
X67574522Y-103827295D02*
X67294624Y-104212541D01*
X67651880Y-104530964D01*
X67641345Y-104464449D01*
X67658800Y-104359410D01*
X67798749Y-104166787D01*
X67893253Y-104117728D01*
X67959768Y-104107193D01*
X68064807Y-104124648D01*
X68257430Y-104264597D01*
X68306489Y-104359101D01*
X68317024Y-104425615D01*
X68299569Y-104530654D01*
X68159620Y-104723277D01*
X68065116Y-104772337D01*
X67998602Y-104782872D01*
X63703851Y-111926744D02*
X63487665Y-112351033D01*
X62596658Y-111897042D01*
X63388463Y-111391937D02*
X63539794Y-111094935D01*
X64071367Y-111205453D02*
X63855181Y-111629742D01*
X62964175Y-111175751D01*
X63180361Y-110751462D01*
X64265934Y-110823593D02*
X63374928Y-110369602D01*
X63483021Y-110157458D01*
X63590306Y-110051790D01*
X63718400Y-110010169D01*
X63824877Y-110010978D01*
X64016211Y-110055023D01*
X64143498Y-110119879D01*
X64291595Y-110248782D01*
X64354834Y-110334448D01*
X64396454Y-110462543D01*
X64374027Y-110611448D01*
X64265934Y-110823593D01*
X63785681Y-109563454D02*
X64066723Y-109011878D01*
X64254824Y-109481829D01*
X64319680Y-109354542D01*
X64405346Y-109291303D01*
X64469393Y-109270493D01*
X64575870Y-109271301D01*
X64788014Y-109379394D01*
X64851253Y-109465060D01*
X64872063Y-109529108D01*
X64871255Y-109635584D01*
X64741544Y-109890157D01*
X64655877Y-109953397D01*
X64591830Y-109974207D01*
X64752860Y-108399488D02*
X65346864Y-108702149D01*
X64305336Y-108438684D02*
X64833676Y-108975107D01*
X65114718Y-108423532D01*
X61812284Y-116806954D02*
X61665133Y-117259839D01*
X60714076Y-116950822D01*
X61417117Y-116328070D02*
X61520123Y-116011051D01*
X62062440Y-116037052D02*
X61915289Y-116489936D01*
X60964233Y-116180919D01*
X61111384Y-115728035D01*
X62194876Y-115629456D02*
X61243820Y-115320439D01*
X61317395Y-115093997D01*
X61406829Y-114972847D01*
X61526836Y-114911700D01*
X61632128Y-114895842D01*
X61827996Y-114909414D01*
X61963862Y-114953559D01*
X62130300Y-115057708D01*
X62206162Y-115132427D01*
X62267308Y-115252434D01*
X62268452Y-115403014D01*
X62194876Y-115629456D01*
X61523406Y-114459959D02*
X61714703Y-113871210D01*
X61974004Y-114305950D01*
X62018150Y-114170084D01*
X62092868Y-114094223D01*
X62152872Y-114063649D01*
X62258164Y-114047791D01*
X62484606Y-114121367D01*
X62560467Y-114196085D01*
X62591041Y-114256089D01*
X62606899Y-114361381D01*
X62518608Y-114633111D01*
X62443890Y-114708973D01*
X62383886Y-114739546D01*
X61817708Y-113554191D02*
X62009005Y-112965442D01*
X62268306Y-113400181D01*
X62312451Y-113264316D01*
X62387170Y-113188455D01*
X62447174Y-113157881D01*
X62552465Y-113142023D01*
X62778907Y-113215598D01*
X62854769Y-113290317D01*
X62885342Y-113350321D01*
X62901201Y-113455612D01*
X62812910Y-113727343D01*
X62738192Y-113803205D01*
X62678188Y-113833778D01*
X60822261Y-122221366D02*
X60747768Y-122691693D01*
X59760080Y-122535259D01*
X60357045Y-121810194D02*
X60409190Y-121480965D01*
X60948898Y-121421808D02*
X60874405Y-121892136D01*
X59886717Y-121735702D01*
X59961210Y-121265374D01*
X61015941Y-120998513D02*
X60028253Y-120842079D01*
X60065499Y-120606915D01*
X60134880Y-120473266D01*
X60243844Y-120394099D01*
X60345359Y-120361965D01*
X60540939Y-120344729D01*
X60682038Y-120367077D01*
X60862719Y-120443906D01*
X60949336Y-120505838D01*
X61028503Y-120614802D01*
X61053188Y-120763349D01*
X61015941Y-120998513D01*
X60169789Y-119948456D02*
X60266629Y-119337030D01*
X60590747Y-119725853D01*
X60613095Y-119584755D01*
X60675026Y-119498139D01*
X60729508Y-119458555D01*
X60831023Y-119426421D01*
X61066187Y-119463667D01*
X61152803Y-119525599D01*
X61192386Y-119580081D01*
X61224521Y-119681596D01*
X61179825Y-119963792D01*
X61117894Y-120050408D01*
X61063412Y-120089992D01*
X60420289Y-118975666D02*
X60380706Y-118921184D01*
X60348571Y-118819669D01*
X60385818Y-118584505D01*
X60447749Y-118497889D01*
X60502231Y-118458306D01*
X60603746Y-118426171D01*
X60697811Y-118441070D01*
X60831460Y-118510451D01*
X61306463Y-119164235D01*
X61403303Y-118552809D01*
X60852380Y-127545238D02*
X60852380Y-128021428D01*
X59852380Y-128021428D01*
X60328571Y-127211904D02*
X60328571Y-126878571D01*
X60852380Y-126735714D02*
X60852380Y-127211904D01*
X59852380Y-127211904D01*
X59852380Y-126735714D01*
X60852380Y-126307142D02*
X59852380Y-126307142D01*
X59852380Y-126069047D01*
X59900000Y-125926190D01*
X59995238Y-125830952D01*
X60090476Y-125783333D01*
X60280952Y-125735714D01*
X60423809Y-125735714D01*
X60614285Y-125783333D01*
X60709523Y-125830952D01*
X60804761Y-125926190D01*
X60852380Y-126069047D01*
X60852380Y-126307142D01*
X59852380Y-125402380D02*
X59852380Y-124783333D01*
X60233333Y-125116666D01*
X60233333Y-124973809D01*
X60280952Y-124878571D01*
X60328571Y-124830952D01*
X60423809Y-124783333D01*
X60661904Y-124783333D01*
X60757142Y-124830952D01*
X60804761Y-124878571D01*
X60852380Y-124973809D01*
X60852380Y-125259523D01*
X60804761Y-125354761D01*
X60757142Y-125402380D01*
X60852380Y-123830952D02*
X60852380Y-124402380D01*
X60852380Y-124116666D02*
X59852380Y-124116666D01*
X59995238Y-124211904D01*
X60090476Y-124307142D01*
X60138095Y-124402380D01*
X59703638Y-130320169D02*
X59629145Y-129849842D01*
X60616834Y-129693407D01*
X60273143Y-130567457D02*
X60325288Y-130896686D01*
X59830275Y-131119727D02*
X59755783Y-130649399D01*
X60743471Y-130492964D01*
X60817964Y-130963292D01*
X59897319Y-131543022D02*
X60885007Y-131386587D01*
X60922253Y-131621751D01*
X60897568Y-131770299D01*
X60818401Y-131879263D01*
X60731785Y-131941194D01*
X60551103Y-132018024D01*
X60410005Y-132040372D01*
X60214424Y-132023136D01*
X60112910Y-131991002D01*
X60003946Y-131911835D01*
X59934565Y-131778186D01*
X59897319Y-131543022D01*
X61026543Y-132280210D02*
X61123383Y-132891636D01*
X60694976Y-132622001D01*
X60717324Y-132763099D01*
X60685190Y-132864614D01*
X60645606Y-132919096D01*
X60558990Y-132981027D01*
X60323826Y-133018273D01*
X60222311Y-132986139D01*
X60167829Y-132946556D01*
X60105898Y-132859939D01*
X60061202Y-132577743D01*
X60093337Y-132476228D01*
X60132920Y-132421746D01*
X61220224Y-133503062D02*
X61235122Y-133597128D01*
X61202988Y-133698643D01*
X61163404Y-133753125D01*
X61076788Y-133815056D01*
X60896106Y-133891886D01*
X60660942Y-133929132D01*
X60465362Y-133911896D01*
X60363847Y-133879762D01*
X60309365Y-133840179D01*
X60247434Y-133753562D01*
X60232535Y-133659497D01*
X60264670Y-133557982D01*
X60304253Y-133503500D01*
X60390869Y-133441568D01*
X60571551Y-133364739D01*
X60806715Y-133327492D01*
X61002296Y-133344728D01*
X61103810Y-133376862D01*
X61158292Y-133416446D01*
X61220224Y-133503062D01*
X60676804Y-135797631D02*
X60529653Y-135344747D01*
X61480710Y-135035730D01*
X61277982Y-135952784D02*
X61380988Y-136269803D01*
X60926961Y-136567534D02*
X60779810Y-136114650D01*
X61730866Y-135805633D01*
X61878017Y-136258517D01*
X61059396Y-136975130D02*
X62010453Y-136666113D01*
X62084028Y-136892555D01*
X62082885Y-137043135D01*
X62021739Y-137163142D01*
X61945877Y-137237861D01*
X61779438Y-137342010D01*
X61643573Y-137386155D01*
X61447705Y-137399727D01*
X61342413Y-137383869D01*
X61222406Y-137322722D01*
X61132972Y-137201572D01*
X61059396Y-136975130D01*
X62214178Y-137601311D02*
X62274182Y-137631884D01*
X62348900Y-137707746D01*
X62422476Y-137934188D01*
X62406617Y-138039480D01*
X62376044Y-138099484D01*
X62300182Y-138174202D01*
X62209606Y-138203632D01*
X62059025Y-138202489D01*
X61338983Y-137835610D01*
X61530279Y-138424359D01*
X61677430Y-138877243D02*
X61736291Y-139058397D01*
X61811009Y-139134258D01*
X61871013Y-139164832D01*
X62036308Y-139211263D01*
X62232177Y-139197691D01*
X62594484Y-139079970D01*
X62670346Y-139005252D01*
X62700919Y-138945248D01*
X62716778Y-138839956D01*
X62657917Y-138658803D01*
X62583199Y-138582941D01*
X62523195Y-138552368D01*
X62417903Y-138536509D01*
X62191461Y-138610085D01*
X62115599Y-138684804D01*
X62085026Y-138744807D01*
X62069168Y-138850099D01*
X62128028Y-139031253D01*
X62202747Y-139107114D01*
X62262750Y-139137688D01*
X62368042Y-139153546D01*
X62447702Y-140909009D02*
X62231516Y-140484720D01*
X63122523Y-140030729D01*
X63065750Y-140968206D02*
X63217080Y-141265208D01*
X62815218Y-141630300D02*
X62599032Y-141206011D01*
X63490039Y-140752020D01*
X63706225Y-141176309D01*
X63009786Y-142012160D02*
X63900792Y-141558169D01*
X64008885Y-141770313D01*
X64031312Y-141919219D01*
X63989691Y-142047314D01*
X63926452Y-142132980D01*
X63778355Y-142261883D01*
X63651069Y-142326739D01*
X63459735Y-142370784D01*
X63353258Y-142371593D01*
X63225163Y-142329972D01*
X63117879Y-142224304D01*
X63009786Y-142012160D01*
X64248306Y-142449984D02*
X64312354Y-142470794D01*
X64398020Y-142534033D01*
X64506113Y-142746178D01*
X64506921Y-142852654D01*
X64486111Y-142916702D01*
X64422872Y-143002368D01*
X64338014Y-143045605D01*
X64189109Y-143068032D01*
X63420539Y-142818308D01*
X63701581Y-143369884D01*
X64470150Y-143619607D02*
X64469342Y-143513131D01*
X64490152Y-143449083D01*
X64553392Y-143363417D01*
X64595820Y-143341799D01*
X64702297Y-143340990D01*
X64766344Y-143361801D01*
X64852010Y-143425040D01*
X64938485Y-143594755D01*
X64939293Y-143701232D01*
X64918483Y-143765279D01*
X64855244Y-143850945D01*
X64812815Y-143872564D01*
X64706338Y-143873372D01*
X64642291Y-143852562D01*
X64556625Y-143789323D01*
X64470150Y-143619607D01*
X64384484Y-143556368D01*
X64320437Y-143535558D01*
X64213961Y-143536366D01*
X64044245Y-143622840D01*
X63981006Y-143708507D01*
X63960196Y-143772554D01*
X63961004Y-143879030D01*
X64047478Y-144048746D01*
X64133144Y-144111985D01*
X64197192Y-144132795D01*
X64303668Y-144131987D01*
X64473384Y-144045513D01*
X64536623Y-143959847D01*
X64557433Y-143895799D01*
X64556625Y-143789323D01*
X65021358Y-145750328D02*
X64741460Y-145365081D01*
X65550477Y-144777296D01*
X65641057Y-145712112D02*
X65836986Y-145981785D01*
X65497184Y-146405246D02*
X65217287Y-146020000D01*
X66026304Y-145432215D01*
X66306201Y-145817461D01*
X65749092Y-146751968D02*
X66558109Y-146164182D01*
X66698058Y-146356806D01*
X66743503Y-146500369D01*
X66722433Y-146633398D01*
X66673374Y-146727902D01*
X66547265Y-146878386D01*
X66431691Y-146962355D01*
X66249603Y-147035790D01*
X66144564Y-147053245D01*
X66011535Y-147032175D01*
X65889041Y-146944591D01*
X65749092Y-146751968D01*
X67040856Y-146990654D02*
X67107370Y-147001189D01*
X67201874Y-147050249D01*
X67341823Y-147242872D01*
X67359278Y-147347911D01*
X67348743Y-147414425D01*
X67299684Y-147508929D01*
X67222634Y-147564909D01*
X67079071Y-147610354D01*
X66280898Y-147483935D01*
X66644765Y-147984756D01*
X67649710Y-147666643D02*
X68041567Y-148205987D01*
X66980642Y-148447051D01*
X68352114Y-150166877D02*
X68015397Y-149830160D01*
X68722503Y-149123053D01*
X68958206Y-150032190D02*
X69193908Y-150267893D01*
X68924534Y-150739297D02*
X68587816Y-150402580D01*
X69294923Y-149695473D01*
X69631641Y-150032190D01*
X69227580Y-151042343D02*
X69934687Y-150335236D01*
X70103045Y-150503595D01*
X70170389Y-150638282D01*
X70170389Y-150772969D01*
X70136717Y-150873984D01*
X70035702Y-151042343D01*
X69934687Y-151143358D01*
X69766328Y-151244374D01*
X69665312Y-151278045D01*
X69530625Y-151278045D01*
X69395938Y-151210702D01*
X69227580Y-151042343D01*
X70540778Y-151076015D02*
X70608122Y-151076015D01*
X70709137Y-151109687D01*
X70877496Y-151278045D01*
X70911167Y-151379061D01*
X70911167Y-151446404D01*
X70877496Y-151547419D01*
X70810152Y-151614763D01*
X70675465Y-151682106D01*
X69867343Y-151682106D01*
X70305076Y-152119839D01*
X71618274Y-152018824D02*
X71483587Y-151884137D01*
X71382572Y-151850465D01*
X71315228Y-151850465D01*
X71146870Y-151884137D01*
X70978511Y-151985152D01*
X70709137Y-152254526D01*
X70675465Y-152355541D01*
X70675465Y-152422885D01*
X70709137Y-152523900D01*
X70843824Y-152658587D01*
X70944839Y-152692259D01*
X71012183Y-152692259D01*
X71113198Y-152658587D01*
X71281557Y-152490228D01*
X71315228Y-152389213D01*
X71315228Y-152321870D01*
X71281557Y-152220854D01*
X71146870Y-152086167D01*
X71045854Y-152052496D01*
X70978511Y-152052496D01*
X70877496Y-152086167D01*
X72468522Y-153978326D02*
X72083276Y-153698428D01*
X72671061Y-152889411D01*
X73046082Y-153750484D02*
X73315754Y-153946412D01*
X73123440Y-154454152D02*
X72738194Y-154174254D01*
X73325980Y-153365237D01*
X73711226Y-153645135D01*
X73470162Y-154706060D02*
X74057947Y-153897043D01*
X74250570Y-154036992D01*
X74338154Y-154159486D01*
X74359224Y-154292515D01*
X74341769Y-154397554D01*
X74268335Y-154579642D01*
X74184365Y-154695216D01*
X74033882Y-154821324D01*
X73939378Y-154870384D01*
X73806349Y-154891454D01*
X73662785Y-154846009D01*
X73470162Y-154706060D01*
X74772460Y-154533888D02*
X74838974Y-154523353D01*
X74944013Y-154540808D01*
X75136637Y-154680757D01*
X75185696Y-154775261D01*
X75196231Y-154841775D01*
X75178776Y-154946814D01*
X75122796Y-155023864D01*
X75000302Y-155111448D01*
X74202130Y-155237866D01*
X74702950Y-155601733D01*
X76022703Y-155324522D02*
X75637457Y-155044624D01*
X75319034Y-155401880D01*
X75385549Y-155391345D01*
X75490588Y-155408800D01*
X75683211Y-155548749D01*
X75732270Y-155643253D01*
X75742805Y-155709768D01*
X75725350Y-155814807D01*
X75585401Y-156007430D01*
X75490897Y-156056489D01*
X75424383Y-156067024D01*
X75319344Y-156049569D01*
X75126721Y-155909620D01*
X75077661Y-155815116D01*
X75067126Y-155748602D01*
X76873255Y-157003851D02*
X76448966Y-156787665D01*
X76902957Y-155896658D01*
X77408062Y-156688463D02*
X77705064Y-156839794D01*
X77594546Y-157371367D02*
X77170257Y-157155181D01*
X77624248Y-156264175D01*
X78048537Y-156480361D01*
X77976406Y-157565934D02*
X78430397Y-156674928D01*
X78642541Y-156783021D01*
X78748209Y-156890306D01*
X78789830Y-157018400D01*
X78789021Y-157124877D01*
X78744976Y-157316211D01*
X78680120Y-157443498D01*
X78551217Y-157591595D01*
X78465551Y-157654834D01*
X78337456Y-157696454D01*
X78188551Y-157674027D01*
X77976406Y-157565934D01*
X79235737Y-157192158D02*
X79299785Y-157171347D01*
X79406261Y-157172156D01*
X79618405Y-157280249D01*
X79681645Y-157365915D01*
X79702455Y-157429962D01*
X79701647Y-157536438D01*
X79658409Y-157621296D01*
X79551125Y-157726964D01*
X78782555Y-157976688D01*
X79334130Y-158257729D01*
X80400511Y-158052860D02*
X80097850Y-158646864D01*
X80361315Y-157605336D02*
X79824892Y-158133676D01*
X80376467Y-158414718D01*
X81893044Y-159462284D02*
X81440159Y-159315133D01*
X81749176Y-158364076D01*
X82371928Y-159067117D02*
X82688947Y-159170123D01*
X82662946Y-159712440D02*
X82210062Y-159565289D01*
X82519079Y-158614233D01*
X82971963Y-158761384D01*
X83070542Y-159844876D02*
X83379559Y-158893820D01*
X83606001Y-158967395D01*
X83727151Y-159056829D01*
X83788298Y-159176836D01*
X83804156Y-159282128D01*
X83790584Y-159477996D01*
X83746439Y-159613862D01*
X83642290Y-159780300D01*
X83567571Y-159856162D01*
X83447564Y-159917308D01*
X83296984Y-159918452D01*
X83070542Y-159844876D01*
X84255897Y-159278698D02*
X84315900Y-159248125D01*
X84421192Y-159232267D01*
X84647634Y-159305842D01*
X84723496Y-159380561D01*
X84754069Y-159440564D01*
X84769928Y-159545856D01*
X84740497Y-159636433D01*
X84651064Y-159757583D01*
X83931022Y-160124463D01*
X84519771Y-160315759D01*
X85145807Y-159467708D02*
X85734556Y-159659005D01*
X85299817Y-159918306D01*
X85435682Y-159962451D01*
X85511543Y-160037170D01*
X85542117Y-160097174D01*
X85557975Y-160202465D01*
X85484400Y-160428907D01*
X85409681Y-160504769D01*
X85349677Y-160535342D01*
X85244386Y-160551201D01*
X84972655Y-160462910D01*
X84896793Y-160388192D01*
X84866220Y-160328188D01*
X87103633Y-160847261D02*
X86633306Y-160772768D01*
X86789740Y-159785080D01*
X87514805Y-160382045D02*
X87844034Y-160434190D01*
X87903191Y-160973898D02*
X87432863Y-160899405D01*
X87589297Y-159911717D01*
X88059625Y-159986210D01*
X88326486Y-161040941D02*
X88482920Y-160053253D01*
X88718084Y-160090499D01*
X88851733Y-160159880D01*
X88930900Y-160268844D01*
X88963034Y-160370359D01*
X88980270Y-160565939D01*
X88957922Y-160707038D01*
X88881093Y-160887719D01*
X88819161Y-160974336D01*
X88710197Y-161053503D01*
X88561650Y-161078188D01*
X88326486Y-161040941D01*
X89408677Y-160296304D02*
X89463159Y-160256720D01*
X89564674Y-160224586D01*
X89799838Y-160261832D01*
X89886454Y-160323764D01*
X89926038Y-160378246D01*
X89958172Y-160479761D01*
X89943273Y-160573826D01*
X89873893Y-160707475D01*
X89220108Y-161182477D01*
X89831535Y-161279318D01*
X90349333Y-160445289D02*
X90403815Y-160405706D01*
X90505330Y-160373571D01*
X90740494Y-160410818D01*
X90827110Y-160472749D01*
X90866693Y-160527231D01*
X90898828Y-160628746D01*
X90883929Y-160722811D01*
X90814548Y-160856460D01*
X90160764Y-161331463D01*
X90772190Y-161428303D01*
X92654761Y-161352380D02*
X92178571Y-161352380D01*
X92178571Y-160352380D01*
X92988095Y-160828571D02*
X93321428Y-160828571D01*
X93464285Y-161352380D02*
X92988095Y-161352380D01*
X92988095Y-160352380D01*
X93464285Y-160352380D01*
X93892857Y-161352380D02*
X93892857Y-160352380D01*
X94130952Y-160352380D01*
X94273809Y-160400000D01*
X94369047Y-160495238D01*
X94416666Y-160590476D01*
X94464285Y-160780952D01*
X94464285Y-160923809D01*
X94416666Y-161114285D01*
X94369047Y-161209523D01*
X94273809Y-161304761D01*
X94130952Y-161352380D01*
X93892857Y-161352380D01*
X94845238Y-160447619D02*
X94892857Y-160400000D01*
X94988095Y-160352380D01*
X95226190Y-160352380D01*
X95321428Y-160400000D01*
X95369047Y-160447619D01*
X95416666Y-160542857D01*
X95416666Y-160638095D01*
X95369047Y-160780952D01*
X94797619Y-161352380D01*
X95416666Y-161352380D01*
X96369047Y-161352380D02*
X95797619Y-161352380D01*
X96083333Y-161352380D02*
X96083333Y-160352380D01*
X95988095Y-160495238D01*
X95892857Y-160590476D01*
X95797619Y-160638095D01*
X98420169Y-161221361D02*
X97949842Y-161295854D01*
X97793407Y-160308165D01*
X98667457Y-160651856D02*
X98996686Y-160599711D01*
X99219727Y-161094724D02*
X98749399Y-161169216D01*
X98592964Y-160181528D01*
X99063292Y-160107035D01*
X99643022Y-161027680D02*
X99486587Y-160039992D01*
X99721751Y-160002746D01*
X99870299Y-160027431D01*
X99979263Y-160106598D01*
X100041194Y-160193214D01*
X100118024Y-160373896D01*
X100140372Y-160514994D01*
X100123136Y-160710575D01*
X100091002Y-160812089D01*
X100011835Y-160921053D01*
X99878186Y-160990434D01*
X99643022Y-161027680D01*
X100442141Y-159985072D02*
X100481725Y-159930590D01*
X100568341Y-159868659D01*
X100803505Y-159831413D01*
X100905020Y-159863547D01*
X100959502Y-159903130D01*
X101021433Y-159989747D01*
X101036332Y-160083812D01*
X101011647Y-160232360D01*
X100536644Y-160886144D01*
X101148071Y-160789304D01*
X101603062Y-159704775D02*
X101697128Y-159689877D01*
X101798643Y-159722011D01*
X101853125Y-159761595D01*
X101915056Y-159848211D01*
X101991886Y-160028893D01*
X102029132Y-160264057D01*
X102011896Y-160459637D01*
X101979762Y-160561152D01*
X101940179Y-160615634D01*
X101853562Y-160677565D01*
X101759497Y-160692464D01*
X101657982Y-160660329D01*
X101603500Y-160620746D01*
X101541568Y-160534130D01*
X101464739Y-160353448D01*
X101427492Y-160118284D01*
X101444728Y-159922703D01*
X101476862Y-159821189D01*
X101516446Y-159766707D01*
X101603062Y-159704775D01*
X103697631Y-160523195D02*
X103244747Y-160670346D01*
X102935730Y-159719289D01*
X103852784Y-159922017D02*
X104169803Y-159819011D01*
X104467534Y-160273038D02*
X104014650Y-160420189D01*
X103705633Y-159469133D01*
X104158517Y-159321982D01*
X104875130Y-160140603D02*
X104566113Y-159189546D01*
X104792555Y-159115971D01*
X104943135Y-159117114D01*
X105063142Y-159178260D01*
X105137861Y-159254122D01*
X105242010Y-159420561D01*
X105286155Y-159556426D01*
X105299727Y-159752294D01*
X105283869Y-159857586D01*
X105222722Y-159977593D01*
X105101572Y-160067027D01*
X104875130Y-160140603D01*
X106324359Y-159669720D02*
X105780898Y-159846301D01*
X106052628Y-159758010D02*
X105743611Y-158806954D01*
X105697180Y-158972249D01*
X105636033Y-159092256D01*
X105560172Y-159166975D01*
X106777243Y-159522569D02*
X106958397Y-159463708D01*
X107034258Y-159388990D01*
X107064832Y-159328986D01*
X107111263Y-159163691D01*
X107097691Y-158967822D01*
X106979970Y-158605515D01*
X106905252Y-158529653D01*
X106845248Y-158499080D01*
X106739956Y-158483221D01*
X106558803Y-158542082D01*
X106482941Y-158616800D01*
X106452368Y-158676804D01*
X106436509Y-158782096D01*
X106510085Y-159008538D01*
X106584804Y-159084400D01*
X106644807Y-159114973D01*
X106750099Y-159130831D01*
X106931253Y-159071971D01*
X107007114Y-158997252D01*
X107037688Y-158937249D01*
X107053546Y-158831957D01*
X109009009Y-158652297D02*
X108584720Y-158868483D01*
X108130729Y-157977476D01*
X109068206Y-158034249D02*
X109365208Y-157882919D01*
X109730300Y-158284781D02*
X109306011Y-158500967D01*
X108852020Y-157609960D01*
X109276309Y-157393774D01*
X110112160Y-158090213D02*
X109658169Y-157199207D01*
X109870313Y-157091114D01*
X110019219Y-157068687D01*
X110147314Y-157110308D01*
X110232980Y-157173547D01*
X110361883Y-157321644D01*
X110426739Y-157448930D01*
X110470784Y-157640264D01*
X110471593Y-157746741D01*
X110429972Y-157874836D01*
X110324304Y-157982120D01*
X110112160Y-158090213D01*
X111469884Y-157398418D02*
X110960737Y-157657841D01*
X111215310Y-157528130D02*
X110761320Y-156637123D01*
X110741318Y-156807647D01*
X110699697Y-156935742D01*
X110636458Y-157021408D01*
X111719607Y-156629849D02*
X111613131Y-156630657D01*
X111549083Y-156609847D01*
X111463417Y-156546607D01*
X111441799Y-156504179D01*
X111440990Y-156397702D01*
X111461801Y-156333655D01*
X111525040Y-156247989D01*
X111694755Y-156161514D01*
X111801232Y-156160706D01*
X111865279Y-156181516D01*
X111950945Y-156244755D01*
X111972564Y-156287184D01*
X111973372Y-156393661D01*
X111952562Y-156457708D01*
X111889323Y-156543374D01*
X111719607Y-156629849D01*
X111656368Y-156715515D01*
X111635558Y-156779562D01*
X111636366Y-156886038D01*
X111722840Y-157055754D01*
X111808507Y-157118993D01*
X111872554Y-157139803D01*
X111979030Y-157138995D01*
X112148746Y-157052521D01*
X112211985Y-156966855D01*
X112232795Y-156902807D01*
X112231987Y-156796331D01*
X112145513Y-156626615D01*
X112059847Y-156563376D01*
X111995799Y-156542566D01*
X111889323Y-156543374D01*
X113850328Y-156053641D02*
X113465081Y-156333539D01*
X112877296Y-155524522D01*
X113812112Y-155433942D02*
X114081785Y-155238013D01*
X114505246Y-155577815D02*
X114120000Y-155857712D01*
X113532215Y-155048695D01*
X113917461Y-154768798D01*
X114851968Y-155325907D02*
X114264182Y-154516890D01*
X114456806Y-154376941D01*
X114600369Y-154331496D01*
X114733398Y-154352566D01*
X114827902Y-154401625D01*
X114978386Y-154527734D01*
X115062355Y-154643308D01*
X115135790Y-154825396D01*
X115153245Y-154930435D01*
X115132175Y-155063464D01*
X115044591Y-155185958D01*
X114851968Y-155325907D01*
X116084756Y-154430234D02*
X115622460Y-154766111D01*
X115853608Y-154598173D02*
X115265823Y-153789156D01*
X115272743Y-153960709D01*
X115251673Y-154093738D01*
X115202613Y-154188242D01*
X115766643Y-153425289D02*
X116305987Y-153033432D01*
X116547051Y-154094357D01*
X118166877Y-152672885D02*
X117830160Y-153009602D01*
X117123053Y-152302496D01*
X118032190Y-152066793D02*
X118267893Y-151831091D01*
X118739297Y-152100465D02*
X118402580Y-152437183D01*
X117695473Y-151730076D01*
X118032190Y-151393358D01*
X119042343Y-151797419D02*
X118335236Y-151090312D01*
X118503595Y-150921954D01*
X118638282Y-150854610D01*
X118772969Y-150854610D01*
X118873984Y-150888282D01*
X119042343Y-150989297D01*
X119143358Y-151090312D01*
X119244374Y-151258671D01*
X119278045Y-151359687D01*
X119278045Y-151494374D01*
X119210702Y-151629061D01*
X119042343Y-151797419D01*
X120119839Y-150719923D02*
X119715778Y-151123984D01*
X119917809Y-150921954D02*
X119210702Y-150214847D01*
X119244374Y-150383206D01*
X119244374Y-150517893D01*
X119210702Y-150618908D01*
X120018824Y-149406725D02*
X119884137Y-149541412D01*
X119850465Y-149642427D01*
X119850465Y-149709771D01*
X119884137Y-149878129D01*
X119985152Y-150046488D01*
X120254526Y-150315862D01*
X120355541Y-150349534D01*
X120422885Y-150349534D01*
X120523900Y-150315862D01*
X120658587Y-150181175D01*
X120692259Y-150080160D01*
X120692259Y-150012816D01*
X120658587Y-149911801D01*
X120490228Y-149743442D01*
X120389213Y-149709771D01*
X120321870Y-149709771D01*
X120220854Y-149743442D01*
X120086167Y-149878129D01*
X120052496Y-149979145D01*
X120052496Y-150046488D01*
X120086167Y-150147503D01*
X121978325Y-148781477D02*
X121698427Y-149166723D01*
X120889410Y-148578938D01*
X121750483Y-148203917D02*
X121946411Y-147934245D01*
X122454151Y-148126559D02*
X122174253Y-148511805D01*
X121365236Y-147924019D01*
X121645134Y-147538773D01*
X122706059Y-147779837D02*
X121897042Y-147192052D01*
X122036991Y-146999429D01*
X122159485Y-146911845D01*
X122292514Y-146890775D01*
X122397553Y-146908230D01*
X122579641Y-146981664D01*
X122695215Y-147065634D01*
X122821323Y-147216117D01*
X122870383Y-147310621D01*
X122891453Y-147443650D01*
X122846008Y-147587214D01*
X122706059Y-147779837D01*
X123601732Y-146547049D02*
X123265855Y-147009345D01*
X123433793Y-146778197D02*
X122624776Y-146190412D01*
X122684371Y-146351430D01*
X122705440Y-146484459D01*
X122687985Y-146589498D01*
X123324521Y-145227296D02*
X123044623Y-145612542D01*
X123401879Y-145930965D01*
X123391344Y-145864450D01*
X123408799Y-145759411D01*
X123548748Y-145566788D01*
X123643252Y-145517729D01*
X123709767Y-145507194D01*
X123814806Y-145524649D01*
X124007429Y-145664598D01*
X124056488Y-145759102D01*
X124067023Y-145825616D01*
X124049568Y-145930655D01*
X123909619Y-146123278D01*
X123815115Y-146172338D01*
X123748601Y-146182873D01*
X125103851Y-144326744D02*
X124887665Y-144751033D01*
X123996658Y-144297042D01*
X124788463Y-143791937D02*
X124939794Y-143494935D01*
X125471367Y-143605453D02*
X125255181Y-144029742D01*
X124364175Y-143575751D01*
X124580361Y-143151462D01*
X125665934Y-143223593D02*
X124774928Y-142769602D01*
X124883021Y-142557458D01*
X124990306Y-142451790D01*
X125118400Y-142410169D01*
X125224877Y-142410978D01*
X125416211Y-142455023D01*
X125543498Y-142519879D01*
X125691595Y-142648782D01*
X125754834Y-142734448D01*
X125796454Y-142862543D01*
X125774027Y-143011448D01*
X125665934Y-143223593D01*
X126357729Y-141865869D02*
X126098306Y-142375015D01*
X126228018Y-142120442D02*
X125337011Y-141666451D01*
X125421061Y-141816165D01*
X125462681Y-141944260D01*
X125461873Y-142050736D01*
X126152860Y-140799488D02*
X126746864Y-141102149D01*
X125705336Y-140838684D02*
X126233676Y-141375107D01*
X126514718Y-140823532D01*
X127537284Y-139306954D02*
X127390133Y-139759839D01*
X126439076Y-139450822D01*
X127142117Y-138828070D02*
X127245123Y-138511051D01*
X127787440Y-138537052D02*
X127640289Y-138989936D01*
X126689233Y-138680919D01*
X126836384Y-138228035D01*
X127919876Y-138129456D02*
X126968820Y-137820439D01*
X127042395Y-137593997D01*
X127131829Y-137472847D01*
X127251836Y-137411700D01*
X127357128Y-137395842D01*
X127552996Y-137409414D01*
X127688862Y-137453559D01*
X127855300Y-137557708D01*
X127931162Y-137632427D01*
X127992308Y-137752434D01*
X127993452Y-137903014D01*
X127919876Y-138129456D01*
X128390759Y-136680227D02*
X128214178Y-137223688D01*
X128302469Y-136951957D02*
X127351412Y-136642940D01*
X127457847Y-136777663D01*
X127518994Y-136897670D01*
X127534852Y-137002961D01*
X127542708Y-136054191D02*
X127734005Y-135465442D01*
X127993306Y-135900181D01*
X128037451Y-135764316D01*
X128112170Y-135688455D01*
X128172174Y-135657881D01*
X128277465Y-135642023D01*
X128503907Y-135715598D01*
X128579769Y-135790317D01*
X128610342Y-135850321D01*
X128626201Y-135955612D01*
X128537910Y-136227343D01*
X128463192Y-136303205D01*
X128403188Y-136333778D01*
X128722261Y-133721366D02*
X128647768Y-134191693D01*
X127660080Y-134035259D01*
X128257045Y-133310194D02*
X128309190Y-132980965D01*
X128848898Y-132921808D02*
X128774405Y-133392136D01*
X127786717Y-133235702D01*
X127861210Y-132765374D01*
X128915941Y-132498513D02*
X127928253Y-132342079D01*
X127965499Y-132106915D01*
X128034880Y-131973266D01*
X128143844Y-131894099D01*
X128245359Y-131861965D01*
X128440939Y-131844729D01*
X128582038Y-131867077D01*
X128762719Y-131943906D01*
X128849336Y-132005838D01*
X128928503Y-132114802D01*
X128953188Y-132263349D01*
X128915941Y-132498513D01*
X129154318Y-130993464D02*
X129064927Y-131557858D01*
X129109622Y-131275661D02*
X128121934Y-131119227D01*
X128248134Y-131235640D01*
X128327301Y-131344604D01*
X128359435Y-131446119D01*
X128320289Y-130475666D02*
X128280706Y-130421184D01*
X128248571Y-130319669D01*
X128285818Y-130084505D01*
X128347749Y-129997889D01*
X128402231Y-129958306D01*
X128503746Y-129926171D01*
X128597811Y-129941070D01*
X128731460Y-130010451D01*
X129206463Y-130664235D01*
X129303303Y-130052809D01*
X129352380Y-128345238D02*
X129352380Y-128821428D01*
X128352380Y-128821428D01*
X128828571Y-128011904D02*
X128828571Y-127678571D01*
X129352380Y-127535714D02*
X129352380Y-128011904D01*
X128352380Y-128011904D01*
X128352380Y-127535714D01*
X129352380Y-127107142D02*
X128352380Y-127107142D01*
X128352380Y-126869047D01*
X128400000Y-126726190D01*
X128495238Y-126630952D01*
X128590476Y-126583333D01*
X128780952Y-126535714D01*
X128923809Y-126535714D01*
X129114285Y-126583333D01*
X129209523Y-126630952D01*
X129304761Y-126726190D01*
X129352380Y-126869047D01*
X129352380Y-127107142D01*
X129352380Y-125583333D02*
X129352380Y-126154761D01*
X129352380Y-125869047D02*
X128352380Y-125869047D01*
X128495238Y-125964285D01*
X128590476Y-126059523D01*
X128638095Y-126154761D01*
X129352380Y-124630952D02*
X129352380Y-125202380D01*
X129352380Y-124916666D02*
X128352380Y-124916666D01*
X128495238Y-125011904D01*
X128590476Y-125107142D01*
X128638095Y-125202380D01*
X128053638Y-119920168D02*
X127979145Y-119449841D01*
X128966834Y-119293406D01*
X128623143Y-120167456D02*
X128675288Y-120496685D01*
X128180275Y-120719726D02*
X128105783Y-120249398D01*
X129093471Y-120092963D01*
X129167964Y-120563291D01*
X128247319Y-121143021D02*
X129235007Y-120986586D01*
X129272253Y-121221750D01*
X129247568Y-121370298D01*
X129168401Y-121479262D01*
X129081785Y-121541193D01*
X128901103Y-121618023D01*
X128760005Y-121640371D01*
X128564424Y-121623135D01*
X128462910Y-121591001D01*
X128353946Y-121511834D01*
X128284565Y-121378185D01*
X128247319Y-121143021D01*
X128485695Y-122648070D02*
X128396304Y-122083676D01*
X128440999Y-122365873D02*
X129428688Y-122209438D01*
X129272691Y-122137721D01*
X129163727Y-122058554D01*
X129101796Y-121971937D01*
X129570224Y-123103061D02*
X129585122Y-123197127D01*
X129552988Y-123298642D01*
X129513404Y-123353124D01*
X129426788Y-123415055D01*
X129246106Y-123491885D01*
X129010942Y-123529131D01*
X128815362Y-123511895D01*
X128713847Y-123479761D01*
X128659365Y-123440178D01*
X128597434Y-123353561D01*
X128582535Y-123259496D01*
X128614670Y-123157981D01*
X128654253Y-123103499D01*
X128740869Y-123041567D01*
X128921551Y-122964738D01*
X129156715Y-122927491D01*
X129352296Y-122944727D01*
X129453810Y-122976861D01*
X129508292Y-123016445D01*
X129570224Y-123103061D01*
X126698955Y-114950515D02*
X126551804Y-114497631D01*
X127502860Y-114188614D01*
X127300133Y-115105668D02*
X127403139Y-115422687D01*
X126949112Y-115720418D02*
X126801961Y-115267534D01*
X127753017Y-114958517D01*
X127900168Y-115411401D01*
X127081547Y-116128014D02*
X128032604Y-115818997D01*
X128106179Y-116045439D01*
X128105036Y-116196019D01*
X128043890Y-116316026D01*
X127968028Y-116390745D01*
X127801589Y-116494894D01*
X127665724Y-116539039D01*
X127469855Y-116552611D01*
X127364564Y-116536753D01*
X127244557Y-116475606D01*
X127155123Y-116354456D01*
X127081547Y-116128014D01*
X127405279Y-117124359D02*
X127464140Y-117305512D01*
X127538858Y-117381374D01*
X127598862Y-117411947D01*
X127764157Y-117458379D01*
X127960026Y-117444807D01*
X128322333Y-117327086D01*
X128398195Y-117252368D01*
X128428768Y-117192364D01*
X128444627Y-117087072D01*
X128385766Y-116905919D01*
X128311048Y-116830057D01*
X128251044Y-116799484D01*
X128145752Y-116783625D01*
X127919310Y-116857201D01*
X127843448Y-116931919D01*
X127812875Y-116991923D01*
X127797017Y-117097215D01*
X127855877Y-117278369D01*
X127930596Y-117354230D01*
X127990599Y-117384804D01*
X128095891Y-117400662D01*
X124663888Y-110233297D02*
X124447702Y-109809009D01*
X125338709Y-109355018D01*
X125281936Y-110292495D02*
X125433266Y-110589497D01*
X125031404Y-110954588D02*
X124815218Y-110530300D01*
X125706225Y-110076309D01*
X125922411Y-110500598D01*
X125225972Y-111336448D02*
X126116978Y-110882458D01*
X126225071Y-111094602D01*
X126247498Y-111243508D01*
X126205877Y-111371602D01*
X126142638Y-111457269D01*
X125994541Y-111586172D01*
X125867255Y-111651028D01*
X125675921Y-111695073D01*
X125569444Y-111695881D01*
X125441349Y-111654261D01*
X125334065Y-111548593D01*
X125225972Y-111336448D01*
X126253964Y-112095318D02*
X126253156Y-111988842D01*
X126273966Y-111924795D01*
X126337206Y-111839128D01*
X126379635Y-111817510D01*
X126486111Y-111816702D01*
X126550158Y-111837512D01*
X126635824Y-111900751D01*
X126722299Y-112070467D01*
X126723107Y-112176943D01*
X126702297Y-112240990D01*
X126639058Y-112326656D01*
X126596629Y-112348275D01*
X126490152Y-112349083D01*
X126426105Y-112328273D01*
X126340439Y-112265034D01*
X126253964Y-112095318D01*
X126168298Y-112032079D01*
X126104251Y-112011269D01*
X125997775Y-112012077D01*
X125828059Y-112098552D01*
X125764820Y-112184218D01*
X125744010Y-112248265D01*
X125744818Y-112354742D01*
X125831292Y-112524457D01*
X125916958Y-112587696D01*
X125981006Y-112608507D01*
X126087482Y-112607698D01*
X126257198Y-112521224D01*
X126320437Y-112435558D01*
X126341247Y-112371510D01*
X126340439Y-112265034D01*
X121676256Y-105760574D02*
X121396358Y-105375328D01*
X122205375Y-104787542D01*
X122295955Y-105722359D02*
X122491884Y-105992031D01*
X122152082Y-106415492D02*
X121872184Y-106030246D01*
X122681201Y-105442461D01*
X122961099Y-105827707D01*
X122403990Y-106762214D02*
X123213007Y-106174429D01*
X123352956Y-106367052D01*
X123398401Y-106510615D01*
X123377331Y-106643644D01*
X123328271Y-106738148D01*
X123202163Y-106888632D01*
X123086589Y-106972601D01*
X122904501Y-107046036D01*
X122799462Y-107063491D01*
X122666433Y-107042421D01*
X122543939Y-106954837D01*
X122403990Y-106762214D01*
X123744813Y-106906396D02*
X124136670Y-107445741D01*
X123075745Y-107686805D01*
X118313832Y-101953595D02*
X117977114Y-101616877D01*
X118684221Y-100909771D01*
X118919923Y-101818908D02*
X119155625Y-102054610D01*
X118886251Y-102526015D02*
X118549534Y-102189297D01*
X119256641Y-101482190D01*
X119593358Y-101818908D01*
X119189297Y-102829061D02*
X119896404Y-102121954D01*
X120064763Y-102290312D01*
X120132106Y-102425000D01*
X120132106Y-102559687D01*
X120098435Y-102660702D01*
X119997419Y-102829061D01*
X119896404Y-102930076D01*
X119728045Y-103031091D01*
X119627030Y-103064763D01*
X119492343Y-103064763D01*
X119357656Y-102997419D01*
X119189297Y-102829061D01*
X120906557Y-103132106D02*
X120771870Y-102997419D01*
X120670854Y-102963748D01*
X120603511Y-102963748D01*
X120435152Y-102997419D01*
X120266793Y-103098435D01*
X119997419Y-103367809D01*
X119963748Y-103468824D01*
X119963748Y-103536167D01*
X119997419Y-103637183D01*
X120132106Y-103771870D01*
X120233122Y-103805541D01*
X120300465Y-103805541D01*
X120401480Y-103771870D01*
X120569839Y-103603511D01*
X120603511Y-103502496D01*
X120603511Y-103435152D01*
X120569839Y-103334137D01*
X120435152Y-103199450D01*
X120334137Y-103165778D01*
X120266793Y-103165778D01*
X120165778Y-103199450D01*
X114053768Y-98458224D02*
X113668522Y-98178326D01*
X114256307Y-97369309D01*
X114631328Y-98230381D02*
X114901000Y-98426310D01*
X114708687Y-98934050D02*
X114323440Y-98654152D01*
X114911226Y-97845135D01*
X115296472Y-98125033D01*
X115055408Y-99185958D02*
X115643193Y-98376941D01*
X115835817Y-98516890D01*
X115923401Y-98639384D01*
X115944470Y-98772412D01*
X115927015Y-98877451D01*
X115853581Y-99059540D01*
X115769612Y-99175114D01*
X115619128Y-99301222D01*
X115524624Y-99350282D01*
X115391595Y-99371351D01*
X115248031Y-99325907D01*
X115055408Y-99185958D01*
X116837457Y-99244624D02*
X116452210Y-98964726D01*
X116133788Y-99321982D01*
X116200302Y-99311448D01*
X116305341Y-99328903D01*
X116497965Y-99468851D01*
X116547024Y-99563356D01*
X116557559Y-99629870D01*
X116540104Y-99734909D01*
X116400155Y-99927532D01*
X116305651Y-99976592D01*
X116239137Y-99987126D01*
X116134098Y-99969671D01*
X115941474Y-99829723D01*
X115892415Y-99735218D01*
X115881880Y-99668704D01*
X109022544Y-95770038D02*
X108598255Y-95553852D01*
X109052246Y-94662845D01*
X109557351Y-95454650D02*
X109854353Y-95605981D01*
X109743835Y-96137554D02*
X109319546Y-95921368D01*
X109773537Y-95030362D01*
X110197826Y-95246547D01*
X110125695Y-96332121D02*
X110579686Y-95441115D01*
X110791830Y-95549208D01*
X110897498Y-95656492D01*
X110939119Y-95784587D01*
X110938310Y-95891064D01*
X110894265Y-96082398D01*
X110829409Y-96209685D01*
X110700506Y-96357782D01*
X110614840Y-96421021D01*
X110486745Y-96462641D01*
X110337839Y-96440214D01*
X110125695Y-96332121D01*
X111701222Y-96386675D02*
X111398562Y-96980679D01*
X111662026Y-95939151D02*
X111125603Y-96467491D01*
X111677178Y-96748533D01*
X104170929Y-94034435D02*
X103718045Y-93887284D01*
X104027062Y-92936227D01*
X104649813Y-93639268D02*
X104966832Y-93742273D01*
X104940831Y-94284591D02*
X104487947Y-94137440D01*
X104796964Y-93186384D01*
X105249848Y-93333535D01*
X105348427Y-94417027D02*
X105657444Y-93465971D01*
X105883886Y-93539546D01*
X106005036Y-93628980D01*
X106066183Y-93748987D01*
X106082041Y-93854279D01*
X106068469Y-94050147D01*
X106024324Y-94186013D01*
X105920175Y-94352451D01*
X105845456Y-94428313D01*
X105725449Y-94489459D01*
X105574869Y-94490603D01*
X105348427Y-94417027D01*
X106517924Y-93745557D02*
X107106673Y-93936854D01*
X106671933Y-94196155D01*
X106807799Y-94240300D01*
X106883660Y-94315019D01*
X106914234Y-94375023D01*
X106930092Y-94480314D01*
X106856516Y-94706757D01*
X106781798Y-94782618D01*
X106721794Y-94813192D01*
X106616502Y-94829050D01*
X106344772Y-94740759D01*
X106268910Y-94666041D01*
X106238337Y-94606037D01*
X98873961Y-92821753D02*
X98403633Y-92747261D01*
X98560068Y-91759572D01*
X99285133Y-92356538D02*
X99614362Y-92408682D01*
X99673518Y-92948391D02*
X99203191Y-92873898D01*
X99359625Y-91886210D01*
X99829953Y-91960702D01*
X100096813Y-93015434D02*
X100253248Y-92027746D01*
X100488412Y-92064992D01*
X100622061Y-92134373D01*
X100701228Y-92243337D01*
X100733362Y-92344851D01*
X100750598Y-92540432D01*
X100728250Y-92681530D01*
X100651420Y-92862212D01*
X100589489Y-92948828D01*
X100480525Y-93027995D01*
X100331977Y-93052680D01*
X100096813Y-93015434D01*
X101179005Y-92270796D02*
X101233487Y-92231213D01*
X101335002Y-92199079D01*
X101570166Y-92236325D01*
X101656782Y-92298256D01*
X101696366Y-92352738D01*
X101728500Y-92454253D01*
X101713601Y-92548319D01*
X101644221Y-92681968D01*
X100990436Y-93156970D01*
X101601862Y-93253810D01*
X93480952Y-92502380D02*
X93004761Y-92502380D01*
X93004761Y-91502380D01*
X93814285Y-91978571D02*
X94147619Y-91978571D01*
X94290476Y-92502380D02*
X93814285Y-92502380D01*
X93814285Y-91502380D01*
X94290476Y-91502380D01*
X94719047Y-92502380D02*
X94719047Y-91502380D01*
X94957142Y-91502380D01*
X95100000Y-91550000D01*
X95195238Y-91645238D01*
X95242857Y-91740476D01*
X95290476Y-91930952D01*
X95290476Y-92073809D01*
X95242857Y-92264285D01*
X95195238Y-92359523D01*
X95100000Y-92454761D01*
X94957142Y-92502380D01*
X94719047Y-92502380D01*
X96242857Y-92502380D02*
X95671428Y-92502380D01*
X95957142Y-92502380D02*
X95957142Y-91502380D01*
X95861904Y-91645238D01*
X95766666Y-91740476D01*
X95671428Y-91788095D01*
M02*
