G04 #@! TF.GenerationSoftware,KiCad,Pcbnew,(5.1.5)-3*
G04 #@! TF.CreationDate,2020-01-29T13:04:29+01:00*
G04 #@! TF.ProjectId,StepperClockLedRing,53746570-7065-4724-936c-6f636b4c6564,V0.1*
G04 #@! TF.SameCoordinates,Original*
G04 #@! TF.FileFunction,Profile,NP*
%FSLAX46Y46*%
G04 Gerber Fmt 4.6, Leading zero omitted, Abs format (unit mm)*
G04 Created by KiCad (PCBNEW (5.1.5)-3) date 2020-01-29 13:04:29*
%MOMM*%
%LPD*%
G04 APERTURE LIST*
%ADD10C,0.050000*%
G04 APERTURE END LIST*
D10*
X69469704Y-113972355D02*
G75*
G02X93800000Y-98475000I25080296J-12527645D01*
G01*
X68111165Y-113305583D02*
G75*
G02X93800000Y-96975000I26438835J-13219417D01*
G01*
X93800000Y-96975000D02*
X93800000Y-98475000D01*
X95300519Y-98480858D02*
G75*
G02X119650000Y-114025000I-750519J-28019142D01*
G01*
X95300955Y-96937326D02*
X95300519Y-98480858D01*
X95300955Y-96937326D02*
G75*
G02X121050000Y-113375000I-750955J-29562674D01*
G01*
X119650000Y-114025000D02*
X121050000Y-113375000D01*
X120032247Y-114871693D02*
G75*
G02X95299999Y-154499999I-25482247J-11628307D01*
G01*
X120032247Y-114871693D02*
X121438263Y-114218942D01*
X121438263Y-114218942D02*
G75*
G02X95324999Y-156049999I-26888263J-12281058D01*
G01*
X95299999Y-154499999D02*
X95324999Y-156049999D01*
X93825197Y-154517478D02*
G75*
G02X68850000Y-115375000I749803J28017478D01*
G01*
X93825197Y-154517477D02*
X93799721Y-156036010D01*
X93799721Y-156036010D02*
G75*
G02X67425000Y-114700000I750279J29561010D01*
G01*
X67425000Y-114700000D02*
X68850000Y-115375000D01*
X68111165Y-113305582D02*
X69469704Y-113972355D01*
X97800000Y-126500000D02*
G75*
G03X97800000Y-126500000I-3250000J0D01*
G01*
X61550000Y-161500000D02*
G75*
G02X59550000Y-159500000I0J2000000D01*
G01*
X59550000Y-94500000D02*
G75*
G02X62550000Y-91500000I3000000J0D01*
G01*
X127550000Y-91500000D02*
G75*
G02X129550000Y-93500000I0J-2000000D01*
G01*
X129550000Y-159500000D02*
G75*
G02X127550000Y-161500000I-2000000J0D01*
G01*
X129550000Y-159500000D02*
X129550000Y-93500000D01*
X61550000Y-161500000D02*
X127550000Y-161500000D01*
X59550000Y-94500000D02*
X59550000Y-159500000D01*
X62550000Y-91500000D02*
X127550000Y-91500000D01*
M02*
