G04 #@! TF.GenerationSoftware,KiCad,Pcbnew,(5.1.5)-3*
G04 #@! TF.CreationDate,2020-09-03T14:04:58+02:00*
G04 #@! TF.ProjectId,StepperClockMotor,53746570-7065-4724-936c-6f636b4d6f74,v1.1*
G04 #@! TF.SameCoordinates,Original*
G04 #@! TF.FileFunction,Soldermask,Top*
G04 #@! TF.FilePolarity,Negative*
%FSLAX46Y46*%
G04 Gerber Fmt 4.6, Leading zero omitted, Abs format (unit mm)*
G04 Created by KiCad (PCBNEW (5.1.5)-3) date 2020-09-03 14:04:58*
%MOMM*%
%LPD*%
G04 APERTURE LIST*
%ADD10C,0.100000*%
G04 APERTURE END LIST*
D10*
G36*
X104278800Y-182451740D02*
G01*
X102476800Y-182451740D01*
X102476800Y-180649740D01*
X104278800Y-180649740D01*
X104278800Y-182451740D01*
G37*
G36*
X100951312Y-180654667D02*
G01*
X101100612Y-180684364D01*
X101264584Y-180752284D01*
X101412154Y-180850887D01*
X101537653Y-180976386D01*
X101636256Y-181123956D01*
X101704176Y-181287928D01*
X101738800Y-181461999D01*
X101738800Y-181639481D01*
X101704176Y-181813552D01*
X101636256Y-181977524D01*
X101537653Y-182125094D01*
X101412154Y-182250593D01*
X101264584Y-182349196D01*
X101100612Y-182417116D01*
X100951312Y-182446813D01*
X100926542Y-182451740D01*
X100749058Y-182451740D01*
X100724288Y-182446813D01*
X100574988Y-182417116D01*
X100411016Y-182349196D01*
X100263446Y-182250593D01*
X100137947Y-182125094D01*
X100039344Y-181977524D01*
X99971424Y-181813552D01*
X99936800Y-181639481D01*
X99936800Y-181461999D01*
X99971424Y-181287928D01*
X100039344Y-181123956D01*
X100137947Y-180976386D01*
X100263446Y-180850887D01*
X100411016Y-180752284D01*
X100574988Y-180684364D01*
X100724288Y-180654667D01*
X100749058Y-180649740D01*
X100926542Y-180649740D01*
X100951312Y-180654667D01*
G37*
G36*
X98411312Y-180654667D02*
G01*
X98560612Y-180684364D01*
X98724584Y-180752284D01*
X98872154Y-180850887D01*
X98997653Y-180976386D01*
X99096256Y-181123956D01*
X99164176Y-181287928D01*
X99198800Y-181461999D01*
X99198800Y-181639481D01*
X99164176Y-181813552D01*
X99096256Y-181977524D01*
X98997653Y-182125094D01*
X98872154Y-182250593D01*
X98724584Y-182349196D01*
X98560612Y-182417116D01*
X98411312Y-182446813D01*
X98386542Y-182451740D01*
X98209058Y-182451740D01*
X98184288Y-182446813D01*
X98034988Y-182417116D01*
X97871016Y-182349196D01*
X97723446Y-182250593D01*
X97597947Y-182125094D01*
X97499344Y-181977524D01*
X97431424Y-181813552D01*
X97396800Y-181639481D01*
X97396800Y-181461999D01*
X97431424Y-181287928D01*
X97499344Y-181123956D01*
X97597947Y-180976386D01*
X97723446Y-180850887D01*
X97871016Y-180752284D01*
X98034988Y-180684364D01*
X98184288Y-180654667D01*
X98209058Y-180649740D01*
X98386542Y-180649740D01*
X98411312Y-180654667D01*
G37*
G36*
X112905904Y-171930325D02*
G01*
X113074426Y-172000129D01*
X113226091Y-172101468D01*
X113355072Y-172230449D01*
X113456411Y-172382114D01*
X113526215Y-172550636D01*
X113561800Y-172729537D01*
X113561800Y-172911943D01*
X113526215Y-173090844D01*
X113456411Y-173259366D01*
X113355072Y-173411031D01*
X113226091Y-173540012D01*
X113074426Y-173641351D01*
X112905904Y-173711155D01*
X112727003Y-173746740D01*
X112544597Y-173746740D01*
X112365696Y-173711155D01*
X112197174Y-173641351D01*
X112045509Y-173540012D01*
X111916528Y-173411031D01*
X111815189Y-173259366D01*
X111745385Y-173090844D01*
X111709800Y-172911943D01*
X111709800Y-172729537D01*
X111745385Y-172550636D01*
X111815189Y-172382114D01*
X111916528Y-172230449D01*
X112045509Y-172101468D01*
X112197174Y-172000129D01*
X112365696Y-171930325D01*
X112544597Y-171894740D01*
X112727003Y-171894740D01*
X112905904Y-171930325D01*
G37*
G36*
X121061800Y-173746740D02*
G01*
X119209800Y-173746740D01*
X119209800Y-171894740D01*
X121061800Y-171894740D01*
X121061800Y-173746740D01*
G37*
G36*
X117905904Y-171930325D02*
G01*
X118074426Y-172000129D01*
X118226091Y-172101468D01*
X118355072Y-172230449D01*
X118456411Y-172382114D01*
X118526215Y-172550636D01*
X118561800Y-172729537D01*
X118561800Y-172911943D01*
X118526215Y-173090844D01*
X118456411Y-173259366D01*
X118355072Y-173411031D01*
X118226091Y-173540012D01*
X118074426Y-173641351D01*
X117905904Y-173711155D01*
X117727003Y-173746740D01*
X117544597Y-173746740D01*
X117365696Y-173711155D01*
X117197174Y-173641351D01*
X117045509Y-173540012D01*
X116916528Y-173411031D01*
X116815189Y-173259366D01*
X116745385Y-173090844D01*
X116709800Y-172911943D01*
X116709800Y-172729537D01*
X116745385Y-172550636D01*
X116815189Y-172382114D01*
X116916528Y-172230449D01*
X117045509Y-172101468D01*
X117197174Y-172000129D01*
X117365696Y-171930325D01*
X117544597Y-171894740D01*
X117727003Y-171894740D01*
X117905904Y-171930325D01*
G37*
G36*
X115405904Y-171930325D02*
G01*
X115574426Y-172000129D01*
X115726091Y-172101468D01*
X115855072Y-172230449D01*
X115956411Y-172382114D01*
X116026215Y-172550636D01*
X116061800Y-172729537D01*
X116061800Y-172911943D01*
X116026215Y-173090844D01*
X115956411Y-173259366D01*
X115855072Y-173411031D01*
X115726091Y-173540012D01*
X115574426Y-173641351D01*
X115405904Y-173711155D01*
X115227003Y-173746740D01*
X115044597Y-173746740D01*
X114865696Y-173711155D01*
X114697174Y-173641351D01*
X114545509Y-173540012D01*
X114416528Y-173411031D01*
X114315189Y-173259366D01*
X114245385Y-173090844D01*
X114209800Y-172911943D01*
X114209800Y-172729537D01*
X114245385Y-172550636D01*
X114315189Y-172382114D01*
X114416528Y-172230449D01*
X114545509Y-172101468D01*
X114697174Y-172000129D01*
X114865696Y-171930325D01*
X115044597Y-171894740D01*
X115227003Y-171894740D01*
X115405904Y-171930325D01*
G37*
G36*
X113661800Y-164046740D02*
G01*
X111809800Y-164046740D01*
X111809800Y-162194740D01*
X113661800Y-162194740D01*
X113661800Y-164046740D01*
G37*
G36*
X115505904Y-162230325D02*
G01*
X115674426Y-162300129D01*
X115826091Y-162401468D01*
X115955072Y-162530449D01*
X116056411Y-162682114D01*
X116126215Y-162850636D01*
X116161800Y-163029537D01*
X116161800Y-163211943D01*
X116126215Y-163390844D01*
X116056411Y-163559366D01*
X115955072Y-163711031D01*
X115826091Y-163840012D01*
X115674426Y-163941351D01*
X115505904Y-164011155D01*
X115327003Y-164046740D01*
X115144597Y-164046740D01*
X114965696Y-164011155D01*
X114797174Y-163941351D01*
X114645509Y-163840012D01*
X114516528Y-163711031D01*
X114415189Y-163559366D01*
X114345385Y-163390844D01*
X114309800Y-163211943D01*
X114309800Y-163029537D01*
X114345385Y-162850636D01*
X114415189Y-162682114D01*
X114516528Y-162530449D01*
X114645509Y-162401468D01*
X114797174Y-162300129D01*
X114965696Y-162230325D01*
X115144597Y-162194740D01*
X115327003Y-162194740D01*
X115505904Y-162230325D01*
G37*
G36*
X118005904Y-162230325D02*
G01*
X118174426Y-162300129D01*
X118326091Y-162401468D01*
X118455072Y-162530449D01*
X118556411Y-162682114D01*
X118626215Y-162850636D01*
X118661800Y-163029537D01*
X118661800Y-163211943D01*
X118626215Y-163390844D01*
X118556411Y-163559366D01*
X118455072Y-163711031D01*
X118326091Y-163840012D01*
X118174426Y-163941351D01*
X118005904Y-164011155D01*
X117827003Y-164046740D01*
X117644597Y-164046740D01*
X117465696Y-164011155D01*
X117297174Y-163941351D01*
X117145509Y-163840012D01*
X117016528Y-163711031D01*
X116915189Y-163559366D01*
X116845385Y-163390844D01*
X116809800Y-163211943D01*
X116809800Y-163029537D01*
X116845385Y-162850636D01*
X116915189Y-162682114D01*
X117016528Y-162530449D01*
X117145509Y-162401468D01*
X117297174Y-162300129D01*
X117465696Y-162230325D01*
X117644597Y-162194740D01*
X117827003Y-162194740D01*
X118005904Y-162230325D01*
G37*
G36*
X120505904Y-162230325D02*
G01*
X120674426Y-162300129D01*
X120826091Y-162401468D01*
X120955072Y-162530449D01*
X121056411Y-162682114D01*
X121126215Y-162850636D01*
X121161800Y-163029537D01*
X121161800Y-163211943D01*
X121126215Y-163390844D01*
X121056411Y-163559366D01*
X120955072Y-163711031D01*
X120826091Y-163840012D01*
X120674426Y-163941351D01*
X120505904Y-164011155D01*
X120327003Y-164046740D01*
X120144597Y-164046740D01*
X119965696Y-164011155D01*
X119797174Y-163941351D01*
X119645509Y-163840012D01*
X119516528Y-163711031D01*
X119415189Y-163559366D01*
X119345385Y-163390844D01*
X119309800Y-163211943D01*
X119309800Y-163029537D01*
X119345385Y-162850636D01*
X119415189Y-162682114D01*
X119516528Y-162530449D01*
X119645509Y-162401468D01*
X119797174Y-162300129D01*
X119965696Y-162230325D01*
X120144597Y-162194740D01*
X120327003Y-162194740D01*
X120505904Y-162230325D01*
G37*
G36*
X69184233Y-159665633D02*
G01*
X69274457Y-159683579D01*
X69380067Y-159727325D01*
X69529421Y-159789189D01*
X69529422Y-159789190D01*
X69758886Y-159942512D01*
X69954028Y-160137654D01*
X70056475Y-160290977D01*
X70107351Y-160367119D01*
X70212961Y-160622084D01*
X70266800Y-160892752D01*
X70266800Y-161168728D01*
X70212961Y-161439396D01*
X70107351Y-161694361D01*
X70107350Y-161694362D01*
X69954028Y-161923826D01*
X69758886Y-162118968D01*
X69645484Y-162194740D01*
X69529421Y-162272291D01*
X69380067Y-162334155D01*
X69274457Y-162377901D01*
X69184233Y-162395847D01*
X69003788Y-162431740D01*
X68727812Y-162431740D01*
X68547367Y-162395847D01*
X68457143Y-162377901D01*
X68351533Y-162334155D01*
X68202179Y-162272291D01*
X68086116Y-162194740D01*
X67972714Y-162118968D01*
X67777572Y-161923826D01*
X67624250Y-161694362D01*
X67624249Y-161694361D01*
X67518639Y-161439396D01*
X67464800Y-161168728D01*
X67464800Y-160892752D01*
X67518639Y-160622084D01*
X67624249Y-160367119D01*
X67675125Y-160290977D01*
X67777572Y-160137654D01*
X67972714Y-159942512D01*
X68202178Y-159789190D01*
X68202179Y-159789189D01*
X68351533Y-159727325D01*
X68457143Y-159683579D01*
X68547367Y-159665633D01*
X68727812Y-159629740D01*
X69003788Y-159629740D01*
X69184233Y-159665633D01*
G37*
G36*
X132504233Y-159665633D02*
G01*
X132594457Y-159683579D01*
X132700067Y-159727325D01*
X132849421Y-159789189D01*
X132849422Y-159789190D01*
X133078886Y-159942512D01*
X133274028Y-160137654D01*
X133376475Y-160290977D01*
X133427351Y-160367119D01*
X133532961Y-160622084D01*
X133586800Y-160892752D01*
X133586800Y-161168728D01*
X133532961Y-161439396D01*
X133427351Y-161694361D01*
X133427350Y-161694362D01*
X133274028Y-161923826D01*
X133078886Y-162118968D01*
X132965484Y-162194740D01*
X132849421Y-162272291D01*
X132700067Y-162334155D01*
X132594457Y-162377901D01*
X132504233Y-162395847D01*
X132323788Y-162431740D01*
X132047812Y-162431740D01*
X131867367Y-162395847D01*
X131777143Y-162377901D01*
X131671533Y-162334155D01*
X131522179Y-162272291D01*
X131406116Y-162194740D01*
X131292714Y-162118968D01*
X131097572Y-161923826D01*
X130944250Y-161694362D01*
X130944249Y-161694361D01*
X130838639Y-161439396D01*
X130784800Y-161168728D01*
X130784800Y-160892752D01*
X130838639Y-160622084D01*
X130944249Y-160367119D01*
X130995125Y-160290977D01*
X131097572Y-160137654D01*
X131292714Y-159942512D01*
X131522178Y-159789190D01*
X131522179Y-159789189D01*
X131671533Y-159727325D01*
X131777143Y-159683579D01*
X131867367Y-159665633D01*
X132047812Y-159629740D01*
X132323788Y-159629740D01*
X132504233Y-159665633D01*
G37*
G36*
X94838385Y-154459542D02*
G01*
X94988210Y-154489344D01*
X95270474Y-154606261D01*
X95524505Y-154775999D01*
X95740541Y-154992035D01*
X95910279Y-155246066D01*
X96027196Y-155528330D01*
X96086800Y-155827980D01*
X96086800Y-156133500D01*
X96027196Y-156433150D01*
X95910279Y-156715414D01*
X95740541Y-156969445D01*
X95524505Y-157185481D01*
X95270474Y-157355219D01*
X94988210Y-157472136D01*
X94838385Y-157501938D01*
X94688561Y-157531740D01*
X94383039Y-157531740D01*
X94233215Y-157501938D01*
X94083390Y-157472136D01*
X93801126Y-157355219D01*
X93547095Y-157185481D01*
X93331059Y-156969445D01*
X93161321Y-156715414D01*
X93044404Y-156433150D01*
X92984800Y-156133500D01*
X92984800Y-155827980D01*
X93044404Y-155528330D01*
X93161321Y-155246066D01*
X93331059Y-154992035D01*
X93547095Y-154775999D01*
X93801126Y-154606261D01*
X94083390Y-154489344D01*
X94233215Y-154459542D01*
X94383039Y-154429740D01*
X94688561Y-154429740D01*
X94838385Y-154459542D01*
G37*
G36*
X125838385Y-154459542D02*
G01*
X125988210Y-154489344D01*
X126270474Y-154606261D01*
X126524505Y-154775999D01*
X126740541Y-154992035D01*
X126910279Y-155246066D01*
X127027196Y-155528330D01*
X127086800Y-155827980D01*
X127086800Y-156133500D01*
X127027196Y-156433150D01*
X126910279Y-156715414D01*
X126740541Y-156969445D01*
X126524505Y-157185481D01*
X126270474Y-157355219D01*
X125988210Y-157472136D01*
X125838385Y-157501938D01*
X125688561Y-157531740D01*
X125383039Y-157531740D01*
X125233215Y-157501938D01*
X125083390Y-157472136D01*
X124801126Y-157355219D01*
X124547095Y-157185481D01*
X124331059Y-156969445D01*
X124161321Y-156715414D01*
X124044404Y-156433150D01*
X123984800Y-156133500D01*
X123984800Y-155827980D01*
X124044404Y-155528330D01*
X124161321Y-155246066D01*
X124331059Y-154992035D01*
X124547095Y-154775999D01*
X124801126Y-154606261D01*
X125083390Y-154489344D01*
X125233215Y-154459542D01*
X125383039Y-154429740D01*
X125688561Y-154429740D01*
X125838385Y-154459542D01*
G37*
G36*
X110571131Y-153188951D02*
G01*
X110898892Y-153324714D01*
X111193870Y-153521812D01*
X111444728Y-153772670D01*
X111641826Y-154067648D01*
X111777589Y-154395409D01*
X111846800Y-154743356D01*
X111846800Y-155098124D01*
X111777589Y-155446071D01*
X111641826Y-155773832D01*
X111444728Y-156068810D01*
X111193870Y-156319668D01*
X110898892Y-156516766D01*
X110571131Y-156652529D01*
X110223184Y-156721740D01*
X109868416Y-156721740D01*
X109520469Y-156652529D01*
X109192708Y-156516766D01*
X108897730Y-156319668D01*
X108646872Y-156068810D01*
X108449774Y-155773832D01*
X108314011Y-155446071D01*
X108244800Y-155098124D01*
X108244800Y-154743356D01*
X108314011Y-154395409D01*
X108449774Y-154067648D01*
X108646872Y-153772670D01*
X108897730Y-153521812D01*
X109192708Y-153324714D01*
X109520469Y-153188951D01*
X109868416Y-153119740D01*
X110223184Y-153119740D01*
X110571131Y-153188951D01*
G37*
G36*
X90842364Y-152970129D02*
G01*
X91033633Y-153049355D01*
X91033635Y-153049356D01*
X91138972Y-153119740D01*
X91205773Y-153164375D01*
X91352165Y-153310767D01*
X91467185Y-153482907D01*
X91546411Y-153674176D01*
X91586800Y-153877224D01*
X91586800Y-154084256D01*
X91546411Y-154287304D01*
X91487412Y-154429740D01*
X91467184Y-154478575D01*
X91352165Y-154650713D01*
X91205773Y-154797105D01*
X91033635Y-154912124D01*
X91033634Y-154912125D01*
X91033633Y-154912125D01*
X90842364Y-154991351D01*
X90639316Y-155031740D01*
X90432284Y-155031740D01*
X90229236Y-154991351D01*
X90037967Y-154912125D01*
X90037966Y-154912125D01*
X90037965Y-154912124D01*
X89865827Y-154797105D01*
X89719435Y-154650713D01*
X89604416Y-154478575D01*
X89584188Y-154429740D01*
X89525189Y-154287304D01*
X89484800Y-154084256D01*
X89484800Y-153877224D01*
X89525189Y-153674176D01*
X89604415Y-153482907D01*
X89719435Y-153310767D01*
X89865827Y-153164375D01*
X89932628Y-153119740D01*
X90037965Y-153049356D01*
X90037967Y-153049355D01*
X90229236Y-152970129D01*
X90432284Y-152929740D01*
X90639316Y-152929740D01*
X90842364Y-152970129D01*
G37*
G36*
X98842364Y-152970129D02*
G01*
X99033633Y-153049355D01*
X99033635Y-153049356D01*
X99138972Y-153119740D01*
X99205773Y-153164375D01*
X99352165Y-153310767D01*
X99467185Y-153482907D01*
X99546411Y-153674176D01*
X99586800Y-153877224D01*
X99586800Y-154084256D01*
X99546411Y-154287304D01*
X99487412Y-154429740D01*
X99467184Y-154478575D01*
X99352165Y-154650713D01*
X99205773Y-154797105D01*
X99033635Y-154912124D01*
X99033634Y-154912125D01*
X99033633Y-154912125D01*
X98842364Y-154991351D01*
X98639316Y-155031740D01*
X98432284Y-155031740D01*
X98229236Y-154991351D01*
X98037967Y-154912125D01*
X98037966Y-154912125D01*
X98037965Y-154912124D01*
X97865827Y-154797105D01*
X97719435Y-154650713D01*
X97604416Y-154478575D01*
X97584188Y-154429740D01*
X97525189Y-154287304D01*
X97484800Y-154084256D01*
X97484800Y-153877224D01*
X97525189Y-153674176D01*
X97604415Y-153482907D01*
X97719435Y-153310767D01*
X97865827Y-153164375D01*
X97932628Y-153119740D01*
X98037965Y-153049356D01*
X98037967Y-153049355D01*
X98229236Y-152970129D01*
X98432284Y-152929740D01*
X98639316Y-152929740D01*
X98842364Y-152970129D01*
G37*
G36*
X121842364Y-152970129D02*
G01*
X122033633Y-153049355D01*
X122033635Y-153049356D01*
X122138972Y-153119740D01*
X122205773Y-153164375D01*
X122352165Y-153310767D01*
X122467185Y-153482907D01*
X122546411Y-153674176D01*
X122586800Y-153877224D01*
X122586800Y-154084256D01*
X122546411Y-154287304D01*
X122487412Y-154429740D01*
X122467184Y-154478575D01*
X122352165Y-154650713D01*
X122205773Y-154797105D01*
X122033635Y-154912124D01*
X122033634Y-154912125D01*
X122033633Y-154912125D01*
X121842364Y-154991351D01*
X121639316Y-155031740D01*
X121432284Y-155031740D01*
X121229236Y-154991351D01*
X121037967Y-154912125D01*
X121037966Y-154912125D01*
X121037965Y-154912124D01*
X120865827Y-154797105D01*
X120719435Y-154650713D01*
X120604416Y-154478575D01*
X120584188Y-154429740D01*
X120525189Y-154287304D01*
X120484800Y-154084256D01*
X120484800Y-153877224D01*
X120525189Y-153674176D01*
X120604415Y-153482907D01*
X120719435Y-153310767D01*
X120865827Y-153164375D01*
X120932628Y-153119740D01*
X121037965Y-153049356D01*
X121037967Y-153049355D01*
X121229236Y-152970129D01*
X121432284Y-152929740D01*
X121639316Y-152929740D01*
X121842364Y-152970129D01*
G37*
G36*
X129842364Y-152970129D02*
G01*
X130033633Y-153049355D01*
X130033635Y-153049356D01*
X130138972Y-153119740D01*
X130205773Y-153164375D01*
X130352165Y-153310767D01*
X130467185Y-153482907D01*
X130546411Y-153674176D01*
X130586800Y-153877224D01*
X130586800Y-154084256D01*
X130546411Y-154287304D01*
X130487412Y-154429740D01*
X130467184Y-154478575D01*
X130352165Y-154650713D01*
X130205773Y-154797105D01*
X130033635Y-154912124D01*
X130033634Y-154912125D01*
X130033633Y-154912125D01*
X129842364Y-154991351D01*
X129639316Y-155031740D01*
X129432284Y-155031740D01*
X129229236Y-154991351D01*
X129037967Y-154912125D01*
X129037966Y-154912125D01*
X129037965Y-154912124D01*
X128865827Y-154797105D01*
X128719435Y-154650713D01*
X128604416Y-154478575D01*
X128584188Y-154429740D01*
X128525189Y-154287304D01*
X128484800Y-154084256D01*
X128484800Y-153877224D01*
X128525189Y-153674176D01*
X128604415Y-153482907D01*
X128719435Y-153310767D01*
X128865827Y-153164375D01*
X128932628Y-153119740D01*
X129037965Y-153049356D01*
X129037967Y-153049355D01*
X129229236Y-152970129D01*
X129432284Y-152929740D01*
X129639316Y-152929740D01*
X129842364Y-152970129D01*
G37*
G36*
X101425743Y-139986988D02*
G01*
X101980989Y-140216978D01*
X101980990Y-140216979D01*
X102480699Y-140550874D01*
X102905666Y-140975841D01*
X102905667Y-140975843D01*
X103239562Y-141475551D01*
X103469552Y-142030797D01*
X103586800Y-142620241D01*
X103586800Y-143221239D01*
X103469552Y-143810683D01*
X103239562Y-144365929D01*
X103239561Y-144365930D01*
X102905666Y-144865639D01*
X102480699Y-145290606D01*
X102229147Y-145458688D01*
X101980989Y-145624502D01*
X101425743Y-145854492D01*
X100836299Y-145971740D01*
X100235301Y-145971740D01*
X99645857Y-145854492D01*
X99090611Y-145624502D01*
X98842453Y-145458688D01*
X98590901Y-145290606D01*
X98165934Y-144865639D01*
X97832039Y-144365930D01*
X97832038Y-144365929D01*
X97602048Y-143810683D01*
X97484800Y-143221239D01*
X97484800Y-142620241D01*
X97602048Y-142030797D01*
X97832038Y-141475551D01*
X98165933Y-140975843D01*
X98165934Y-140975841D01*
X98590901Y-140550874D01*
X99090610Y-140216979D01*
X99090611Y-140216978D01*
X99645857Y-139986988D01*
X100235301Y-139869740D01*
X100836299Y-139869740D01*
X101425743Y-139986988D01*
G37*
G36*
X135571131Y-132188951D02*
G01*
X135898892Y-132324714D01*
X136193870Y-132521812D01*
X136444728Y-132772670D01*
X136641826Y-133067648D01*
X136777589Y-133395409D01*
X136846800Y-133743356D01*
X136846800Y-134098124D01*
X136777589Y-134446071D01*
X136641826Y-134773832D01*
X136444728Y-135068810D01*
X136193870Y-135319668D01*
X135898892Y-135516766D01*
X135571131Y-135652529D01*
X135223184Y-135721740D01*
X134868416Y-135721740D01*
X134520469Y-135652529D01*
X134192708Y-135516766D01*
X133897730Y-135319668D01*
X133646872Y-135068810D01*
X133449774Y-134773832D01*
X133314011Y-134446071D01*
X133244800Y-134098124D01*
X133244800Y-133743356D01*
X133314011Y-133395409D01*
X133449774Y-133067648D01*
X133646872Y-132772670D01*
X133897730Y-132521812D01*
X134192708Y-132324714D01*
X134520469Y-132188951D01*
X134868416Y-132119740D01*
X135223184Y-132119740D01*
X135571131Y-132188951D01*
G37*
G36*
X85571131Y-132188951D02*
G01*
X85898892Y-132324714D01*
X86193870Y-132521812D01*
X86444728Y-132772670D01*
X86641826Y-133067648D01*
X86777589Y-133395409D01*
X86846800Y-133743356D01*
X86846800Y-134098124D01*
X86777589Y-134446071D01*
X86641826Y-134773832D01*
X86444728Y-135068810D01*
X86193870Y-135319668D01*
X85898892Y-135516766D01*
X85571131Y-135652529D01*
X85223184Y-135721740D01*
X84868416Y-135721740D01*
X84520469Y-135652529D01*
X84192708Y-135516766D01*
X83897730Y-135319668D01*
X83646872Y-135068810D01*
X83449774Y-134773832D01*
X83314011Y-134446071D01*
X83244800Y-134098124D01*
X83244800Y-133743356D01*
X83314011Y-133395409D01*
X83449774Y-133067648D01*
X83646872Y-132772670D01*
X83897730Y-132521812D01*
X84192708Y-132324714D01*
X84520469Y-132188951D01*
X84868416Y-132119740D01*
X85223184Y-132119740D01*
X85571131Y-132188951D01*
G37*
G36*
X121842364Y-129970129D02*
G01*
X122033633Y-130049355D01*
X122033635Y-130049356D01*
X122205773Y-130164375D01*
X122352165Y-130310767D01*
X122467185Y-130482907D01*
X122546411Y-130674176D01*
X122586800Y-130877224D01*
X122586800Y-131084256D01*
X122546411Y-131287304D01*
X122467185Y-131478573D01*
X122467184Y-131478575D01*
X122352165Y-131650713D01*
X122205773Y-131797105D01*
X122033635Y-131912124D01*
X122033634Y-131912125D01*
X122033633Y-131912125D01*
X121842364Y-131991351D01*
X121639316Y-132031740D01*
X121432284Y-132031740D01*
X121229236Y-131991351D01*
X121037967Y-131912125D01*
X121037966Y-131912125D01*
X121037965Y-131912124D01*
X120865827Y-131797105D01*
X120719435Y-131650713D01*
X120604416Y-131478575D01*
X120604415Y-131478573D01*
X120525189Y-131287304D01*
X120484800Y-131084256D01*
X120484800Y-130877224D01*
X120525189Y-130674176D01*
X120604415Y-130482907D01*
X120719435Y-130310767D01*
X120865827Y-130164375D01*
X121037965Y-130049356D01*
X121037967Y-130049355D01*
X121229236Y-129970129D01*
X121432284Y-129929740D01*
X121639316Y-129929740D01*
X121842364Y-129970129D01*
G37*
G36*
X90842364Y-129970129D02*
G01*
X91033633Y-130049355D01*
X91033635Y-130049356D01*
X91205773Y-130164375D01*
X91352165Y-130310767D01*
X91467185Y-130482907D01*
X91546411Y-130674176D01*
X91586800Y-130877224D01*
X91586800Y-131084256D01*
X91546411Y-131287304D01*
X91467185Y-131478573D01*
X91467184Y-131478575D01*
X91352165Y-131650713D01*
X91205773Y-131797105D01*
X91033635Y-131912124D01*
X91033634Y-131912125D01*
X91033633Y-131912125D01*
X90842364Y-131991351D01*
X90639316Y-132031740D01*
X90432284Y-132031740D01*
X90229236Y-131991351D01*
X90037967Y-131912125D01*
X90037966Y-131912125D01*
X90037965Y-131912124D01*
X89865827Y-131797105D01*
X89719435Y-131650713D01*
X89604416Y-131478575D01*
X89604415Y-131478573D01*
X89525189Y-131287304D01*
X89484800Y-131084256D01*
X89484800Y-130877224D01*
X89525189Y-130674176D01*
X89604415Y-130482907D01*
X89719435Y-130310767D01*
X89865827Y-130164375D01*
X90037965Y-130049356D01*
X90037967Y-130049355D01*
X90229236Y-129970129D01*
X90432284Y-129929740D01*
X90639316Y-129929740D01*
X90842364Y-129970129D01*
G37*
G36*
X98842364Y-129970129D02*
G01*
X99033633Y-130049355D01*
X99033635Y-130049356D01*
X99205773Y-130164375D01*
X99352165Y-130310767D01*
X99467185Y-130482907D01*
X99546411Y-130674176D01*
X99586800Y-130877224D01*
X99586800Y-131084256D01*
X99546411Y-131287304D01*
X99467185Y-131478573D01*
X99467184Y-131478575D01*
X99352165Y-131650713D01*
X99205773Y-131797105D01*
X99033635Y-131912124D01*
X99033634Y-131912125D01*
X99033633Y-131912125D01*
X98842364Y-131991351D01*
X98639316Y-132031740D01*
X98432284Y-132031740D01*
X98229236Y-131991351D01*
X98037967Y-131912125D01*
X98037966Y-131912125D01*
X98037965Y-131912124D01*
X97865827Y-131797105D01*
X97719435Y-131650713D01*
X97604416Y-131478575D01*
X97604415Y-131478573D01*
X97525189Y-131287304D01*
X97484800Y-131084256D01*
X97484800Y-130877224D01*
X97525189Y-130674176D01*
X97604415Y-130482907D01*
X97719435Y-130310767D01*
X97865827Y-130164375D01*
X98037965Y-130049356D01*
X98037967Y-130049355D01*
X98229236Y-129970129D01*
X98432284Y-129929740D01*
X98639316Y-129929740D01*
X98842364Y-129970129D01*
G37*
G36*
X129842364Y-129970129D02*
G01*
X130033633Y-130049355D01*
X130033635Y-130049356D01*
X130205773Y-130164375D01*
X130352165Y-130310767D01*
X130467185Y-130482907D01*
X130546411Y-130674176D01*
X130586800Y-130877224D01*
X130586800Y-131084256D01*
X130546411Y-131287304D01*
X130467185Y-131478573D01*
X130467184Y-131478575D01*
X130352165Y-131650713D01*
X130205773Y-131797105D01*
X130033635Y-131912124D01*
X130033634Y-131912125D01*
X130033633Y-131912125D01*
X129842364Y-131991351D01*
X129639316Y-132031740D01*
X129432284Y-132031740D01*
X129229236Y-131991351D01*
X129037967Y-131912125D01*
X129037966Y-131912125D01*
X129037965Y-131912124D01*
X128865827Y-131797105D01*
X128719435Y-131650713D01*
X128604416Y-131478575D01*
X128604415Y-131478573D01*
X128525189Y-131287304D01*
X128484800Y-131084256D01*
X128484800Y-130877224D01*
X128525189Y-130674176D01*
X128604415Y-130482907D01*
X128719435Y-130310767D01*
X128865827Y-130164375D01*
X129037965Y-130049356D01*
X129037967Y-130049355D01*
X129229236Y-129970129D01*
X129432284Y-129929740D01*
X129639316Y-129929740D01*
X129842364Y-129970129D01*
G37*
G36*
X94838385Y-127459542D02*
G01*
X94988210Y-127489344D01*
X95270474Y-127606261D01*
X95524505Y-127775999D01*
X95740541Y-127992035D01*
X95910279Y-128246066D01*
X96027196Y-128528330D01*
X96086800Y-128827980D01*
X96086800Y-129133500D01*
X96027196Y-129433150D01*
X95910279Y-129715414D01*
X95740541Y-129969445D01*
X95524505Y-130185481D01*
X95270474Y-130355219D01*
X94988210Y-130472136D01*
X94934070Y-130482905D01*
X94688561Y-130531740D01*
X94383039Y-130531740D01*
X94137530Y-130482905D01*
X94083390Y-130472136D01*
X93801126Y-130355219D01*
X93547095Y-130185481D01*
X93331059Y-129969445D01*
X93161321Y-129715414D01*
X93044404Y-129433150D01*
X92984800Y-129133500D01*
X92984800Y-128827980D01*
X93044404Y-128528330D01*
X93161321Y-128246066D01*
X93331059Y-127992035D01*
X93547095Y-127775999D01*
X93801126Y-127606261D01*
X94083390Y-127489344D01*
X94233215Y-127459542D01*
X94383039Y-127429740D01*
X94688561Y-127429740D01*
X94838385Y-127459542D01*
G37*
G36*
X125838385Y-127459542D02*
G01*
X125988210Y-127489344D01*
X126270474Y-127606261D01*
X126524505Y-127775999D01*
X126740541Y-127992035D01*
X126910279Y-128246066D01*
X127027196Y-128528330D01*
X127086800Y-128827980D01*
X127086800Y-129133500D01*
X127027196Y-129433150D01*
X126910279Y-129715414D01*
X126740541Y-129969445D01*
X126524505Y-130185481D01*
X126270474Y-130355219D01*
X125988210Y-130472136D01*
X125934070Y-130482905D01*
X125688561Y-130531740D01*
X125383039Y-130531740D01*
X125137530Y-130482905D01*
X125083390Y-130472136D01*
X124801126Y-130355219D01*
X124547095Y-130185481D01*
X124331059Y-129969445D01*
X124161321Y-129715414D01*
X124044404Y-129433150D01*
X123984800Y-129133500D01*
X123984800Y-128827980D01*
X124044404Y-128528330D01*
X124161321Y-128246066D01*
X124331059Y-127992035D01*
X124547095Y-127775999D01*
X124801126Y-127606261D01*
X125083390Y-127489344D01*
X125233215Y-127459542D01*
X125383039Y-127429740D01*
X125688561Y-127429740D01*
X125838385Y-127459542D01*
G37*
G36*
X132504233Y-123385633D02*
G01*
X132594457Y-123403579D01*
X132700067Y-123447325D01*
X132849421Y-123509189D01*
X132849422Y-123509190D01*
X133078886Y-123662512D01*
X133274028Y-123857654D01*
X133329952Y-123941351D01*
X133427351Y-124087119D01*
X133532961Y-124342084D01*
X133586800Y-124612752D01*
X133586800Y-124888728D01*
X133532961Y-125159396D01*
X133427351Y-125414361D01*
X133427350Y-125414362D01*
X133274028Y-125643826D01*
X133078886Y-125838968D01*
X132925563Y-125941415D01*
X132849421Y-125992291D01*
X132700067Y-126054155D01*
X132594457Y-126097901D01*
X132504233Y-126115847D01*
X132323788Y-126151740D01*
X132047812Y-126151740D01*
X131867367Y-126115847D01*
X131777143Y-126097901D01*
X131671533Y-126054155D01*
X131522179Y-125992291D01*
X131446037Y-125941415D01*
X131292714Y-125838968D01*
X131097572Y-125643826D01*
X130944250Y-125414362D01*
X130944249Y-125414361D01*
X130838639Y-125159396D01*
X130784800Y-124888728D01*
X130784800Y-124612752D01*
X130838639Y-124342084D01*
X130944249Y-124087119D01*
X131041648Y-123941351D01*
X131097572Y-123857654D01*
X131292714Y-123662512D01*
X131522178Y-123509190D01*
X131522179Y-123509189D01*
X131671533Y-123447325D01*
X131777143Y-123403579D01*
X131867367Y-123385633D01*
X132047812Y-123349740D01*
X132323788Y-123349740D01*
X132504233Y-123385633D01*
G37*
G36*
X69184233Y-123385633D02*
G01*
X69274457Y-123403579D01*
X69380067Y-123447325D01*
X69529421Y-123509189D01*
X69529422Y-123509190D01*
X69758886Y-123662512D01*
X69954028Y-123857654D01*
X70009952Y-123941351D01*
X70107351Y-124087119D01*
X70212961Y-124342084D01*
X70266800Y-124612752D01*
X70266800Y-124888728D01*
X70212961Y-125159396D01*
X70107351Y-125414361D01*
X70107350Y-125414362D01*
X69954028Y-125643826D01*
X69758886Y-125838968D01*
X69605563Y-125941415D01*
X69529421Y-125992291D01*
X69380067Y-126054155D01*
X69274457Y-126097901D01*
X69184233Y-126115847D01*
X69003788Y-126151740D01*
X68727812Y-126151740D01*
X68547367Y-126115847D01*
X68457143Y-126097901D01*
X68351533Y-126054155D01*
X68202179Y-125992291D01*
X68126037Y-125941415D01*
X67972714Y-125838968D01*
X67777572Y-125643826D01*
X67624250Y-125414362D01*
X67624249Y-125414361D01*
X67518639Y-125159396D01*
X67464800Y-124888728D01*
X67464800Y-124612752D01*
X67518639Y-124342084D01*
X67624249Y-124087119D01*
X67721648Y-123941351D01*
X67777572Y-123857654D01*
X67972714Y-123662512D01*
X68202178Y-123509190D01*
X68202179Y-123509189D01*
X68351533Y-123447325D01*
X68457143Y-123403579D01*
X68547367Y-123385633D01*
X68727812Y-123349740D01*
X69003788Y-123349740D01*
X69184233Y-123385633D01*
G37*
G36*
X115585904Y-122230325D02*
G01*
X115754426Y-122300129D01*
X115906091Y-122401468D01*
X116035072Y-122530449D01*
X116136411Y-122682114D01*
X116206215Y-122850636D01*
X116241800Y-123029537D01*
X116241800Y-123211943D01*
X116206215Y-123390844D01*
X116136411Y-123559366D01*
X116035072Y-123711031D01*
X115906091Y-123840012D01*
X115754426Y-123941351D01*
X115585904Y-124011155D01*
X115407003Y-124046740D01*
X115224597Y-124046740D01*
X115045696Y-124011155D01*
X114877174Y-123941351D01*
X114725509Y-123840012D01*
X114596528Y-123711031D01*
X114495189Y-123559366D01*
X114425385Y-123390844D01*
X114389800Y-123211943D01*
X114389800Y-123029537D01*
X114425385Y-122850636D01*
X114495189Y-122682114D01*
X114596528Y-122530449D01*
X114725509Y-122401468D01*
X114877174Y-122300129D01*
X115045696Y-122230325D01*
X115224597Y-122194740D01*
X115407003Y-122194740D01*
X115585904Y-122230325D01*
G37*
G36*
X123361800Y-123746740D02*
G01*
X121509800Y-123746740D01*
X121509800Y-121894740D01*
X123361800Y-121894740D01*
X123361800Y-123746740D01*
G37*
G36*
X115585904Y-119730325D02*
G01*
X115754426Y-119800129D01*
X115906091Y-119901468D01*
X116035072Y-120030449D01*
X116136411Y-120182114D01*
X116206215Y-120350636D01*
X116241800Y-120529537D01*
X116241800Y-120711943D01*
X116206215Y-120890844D01*
X116136411Y-121059366D01*
X116035072Y-121211031D01*
X115906091Y-121340012D01*
X115754426Y-121441351D01*
X115585904Y-121511155D01*
X115407003Y-121546740D01*
X115224597Y-121546740D01*
X115045696Y-121511155D01*
X114877174Y-121441351D01*
X114725509Y-121340012D01*
X114596528Y-121211031D01*
X114495189Y-121059366D01*
X114425385Y-120890844D01*
X114389800Y-120711943D01*
X114389800Y-120529537D01*
X114425385Y-120350636D01*
X114495189Y-120182114D01*
X114596528Y-120030449D01*
X114725509Y-119901468D01*
X114877174Y-119800129D01*
X115045696Y-119730325D01*
X115224597Y-119694740D01*
X115407003Y-119694740D01*
X115585904Y-119730325D01*
G37*
G36*
X122705904Y-119430325D02*
G01*
X122874426Y-119500129D01*
X123026091Y-119601468D01*
X123155072Y-119730449D01*
X123256411Y-119882114D01*
X123326215Y-120050636D01*
X123361800Y-120229537D01*
X123361800Y-120411943D01*
X123326215Y-120590844D01*
X123256411Y-120759366D01*
X123155072Y-120911031D01*
X123026091Y-121040012D01*
X122874426Y-121141351D01*
X122705904Y-121211155D01*
X122527003Y-121246740D01*
X122344597Y-121246740D01*
X122165696Y-121211155D01*
X121997174Y-121141351D01*
X121845509Y-121040012D01*
X121716528Y-120911031D01*
X121615189Y-120759366D01*
X121545385Y-120590844D01*
X121509800Y-120411943D01*
X121509800Y-120229537D01*
X121545385Y-120050636D01*
X121615189Y-119882114D01*
X121716528Y-119730449D01*
X121845509Y-119601468D01*
X121997174Y-119500129D01*
X122165696Y-119430325D01*
X122344597Y-119394740D01*
X122527003Y-119394740D01*
X122705904Y-119430325D01*
G37*
G36*
X115585904Y-117230325D02*
G01*
X115754426Y-117300129D01*
X115906091Y-117401468D01*
X116035072Y-117530449D01*
X116136411Y-117682114D01*
X116206215Y-117850636D01*
X116241800Y-118029537D01*
X116241800Y-118211943D01*
X116206215Y-118390844D01*
X116136411Y-118559366D01*
X116035072Y-118711031D01*
X115906091Y-118840012D01*
X115754426Y-118941351D01*
X115585904Y-119011155D01*
X115407003Y-119046740D01*
X115224597Y-119046740D01*
X115045696Y-119011155D01*
X114877174Y-118941351D01*
X114725509Y-118840012D01*
X114596528Y-118711031D01*
X114495189Y-118559366D01*
X114425385Y-118390844D01*
X114389800Y-118211943D01*
X114389800Y-118029537D01*
X114425385Y-117850636D01*
X114495189Y-117682114D01*
X114596528Y-117530449D01*
X114725509Y-117401468D01*
X114877174Y-117300129D01*
X115045696Y-117230325D01*
X115224597Y-117194740D01*
X115407003Y-117194740D01*
X115585904Y-117230325D01*
G37*
G36*
X122705904Y-116930325D02*
G01*
X122874426Y-117000129D01*
X123026091Y-117101468D01*
X123155072Y-117230449D01*
X123256411Y-117382114D01*
X123326215Y-117550636D01*
X123361800Y-117729537D01*
X123361800Y-117911943D01*
X123326215Y-118090844D01*
X123256411Y-118259366D01*
X123155072Y-118411031D01*
X123026091Y-118540012D01*
X122874426Y-118641351D01*
X122705904Y-118711155D01*
X122527003Y-118746740D01*
X122344597Y-118746740D01*
X122165696Y-118711155D01*
X121997174Y-118641351D01*
X121845509Y-118540012D01*
X121716528Y-118411031D01*
X121615189Y-118259366D01*
X121545385Y-118090844D01*
X121509800Y-117911943D01*
X121509800Y-117729537D01*
X121545385Y-117550636D01*
X121615189Y-117382114D01*
X121716528Y-117230449D01*
X121845509Y-117101468D01*
X121997174Y-117000129D01*
X122165696Y-116930325D01*
X122344597Y-116894740D01*
X122527003Y-116894740D01*
X122705904Y-116930325D01*
G37*
G36*
X116241800Y-116546740D02*
G01*
X114389800Y-116546740D01*
X114389800Y-114694740D01*
X116241800Y-114694740D01*
X116241800Y-116546740D01*
G37*
G36*
X104276800Y-105161740D02*
G01*
X102474800Y-105161740D01*
X102474800Y-103359740D01*
X104276800Y-103359740D01*
X104276800Y-105161740D01*
G37*
G36*
X100949312Y-103364667D02*
G01*
X101098612Y-103394364D01*
X101262584Y-103462284D01*
X101410154Y-103560887D01*
X101535653Y-103686386D01*
X101634256Y-103833956D01*
X101702176Y-103997928D01*
X101736800Y-104171999D01*
X101736800Y-104349481D01*
X101702176Y-104523552D01*
X101634256Y-104687524D01*
X101535653Y-104835094D01*
X101410154Y-104960593D01*
X101262584Y-105059196D01*
X101098612Y-105127116D01*
X100949312Y-105156813D01*
X100924542Y-105161740D01*
X100747058Y-105161740D01*
X100722288Y-105156813D01*
X100572988Y-105127116D01*
X100409016Y-105059196D01*
X100261446Y-104960593D01*
X100135947Y-104835094D01*
X100037344Y-104687524D01*
X99969424Y-104523552D01*
X99934800Y-104349481D01*
X99934800Y-104171999D01*
X99969424Y-103997928D01*
X100037344Y-103833956D01*
X100135947Y-103686386D01*
X100261446Y-103560887D01*
X100409016Y-103462284D01*
X100572988Y-103394364D01*
X100722288Y-103364667D01*
X100747058Y-103359740D01*
X100924542Y-103359740D01*
X100949312Y-103364667D01*
G37*
G36*
X98409312Y-103364667D02*
G01*
X98558612Y-103394364D01*
X98722584Y-103462284D01*
X98870154Y-103560887D01*
X98995653Y-103686386D01*
X99094256Y-103833956D01*
X99162176Y-103997928D01*
X99196800Y-104171999D01*
X99196800Y-104349481D01*
X99162176Y-104523552D01*
X99094256Y-104687524D01*
X98995653Y-104835094D01*
X98870154Y-104960593D01*
X98722584Y-105059196D01*
X98558612Y-105127116D01*
X98409312Y-105156813D01*
X98384542Y-105161740D01*
X98207058Y-105161740D01*
X98182288Y-105156813D01*
X98032988Y-105127116D01*
X97869016Y-105059196D01*
X97721446Y-104960593D01*
X97595947Y-104835094D01*
X97497344Y-104687524D01*
X97429424Y-104523552D01*
X97394800Y-104349481D01*
X97394800Y-104171999D01*
X97429424Y-103997928D01*
X97497344Y-103833956D01*
X97595947Y-103686386D01*
X97721446Y-103560887D01*
X97869016Y-103462284D01*
X98032988Y-103394364D01*
X98182288Y-103364667D01*
X98207058Y-103359740D01*
X98384542Y-103359740D01*
X98409312Y-103364667D01*
G37*
M02*
