G04 #@! TF.GenerationSoftware,KiCad,Pcbnew,(5.1.5)-3*
G04 #@! TF.CreationDate,2020-09-03T14:04:58+02:00*
G04 #@! TF.ProjectId,StepperClockMotor,53746570-7065-4724-936c-6f636b4d6f74,v1.1*
G04 #@! TF.SameCoordinates,Original*
G04 #@! TF.FileFunction,Legend,Bot*
G04 #@! TF.FilePolarity,Positive*
%FSLAX46Y46*%
G04 Gerber Fmt 4.6, Leading zero omitted, Abs format (unit mm)*
G04 Created by KiCad (PCBNEW (5.1.5)-3) date 2020-09-03 14:04:58*
%MOMM*%
%LPD*%
G04 APERTURE LIST*
%ADD10C,0.200000*%
%ADD11C,0.120000*%
%ADD12C,0.010000*%
%ADD13C,0.150000*%
G04 APERTURE END LIST*
D10*
X103508180Y-179172644D02*
X103889133Y-179172644D01*
X103927228Y-179553597D01*
X103889133Y-179515501D01*
X103812942Y-179477406D01*
X103622466Y-179477406D01*
X103546276Y-179515501D01*
X103508180Y-179553597D01*
X103470085Y-179629787D01*
X103470085Y-179820263D01*
X103508180Y-179896454D01*
X103546276Y-179934549D01*
X103622466Y-179972644D01*
X103812942Y-179972644D01*
X103889133Y-179934549D01*
X103927228Y-179896454D01*
X103241514Y-179172644D02*
X102974847Y-179972644D01*
X102708180Y-179172644D01*
X100938180Y-179122644D02*
X101319133Y-179122644D01*
X101357228Y-179503597D01*
X101319133Y-179465501D01*
X101242942Y-179427406D01*
X101052466Y-179427406D01*
X100976276Y-179465501D01*
X100938180Y-179503597D01*
X100900085Y-179579787D01*
X100900085Y-179770263D01*
X100938180Y-179846454D01*
X100976276Y-179884549D01*
X101052466Y-179922644D01*
X101242942Y-179922644D01*
X101319133Y-179884549D01*
X101357228Y-179846454D01*
X100671514Y-179122644D02*
X100404847Y-179922644D01*
X100138180Y-179122644D01*
X125088180Y-117282644D02*
X125469133Y-117282644D01*
X125507228Y-117663597D01*
X125469133Y-117625501D01*
X125392942Y-117587406D01*
X125202466Y-117587406D01*
X125126276Y-117625501D01*
X125088180Y-117663597D01*
X125050085Y-117739787D01*
X125050085Y-117930263D01*
X125088180Y-118006454D01*
X125126276Y-118044549D01*
X125202466Y-118082644D01*
X125392942Y-118082644D01*
X125469133Y-118044549D01*
X125507228Y-118006454D01*
X124821514Y-117282644D02*
X124554847Y-118082644D01*
X124288180Y-117282644D01*
X125645323Y-119920740D02*
X125721514Y-119882644D01*
X125835800Y-119882644D01*
X125950085Y-119920740D01*
X126026276Y-119996930D01*
X126064371Y-120073120D01*
X126102466Y-120225501D01*
X126102466Y-120339787D01*
X126064371Y-120492168D01*
X126026276Y-120568359D01*
X125950085Y-120644549D01*
X125835800Y-120682644D01*
X125759609Y-120682644D01*
X125645323Y-120644549D01*
X125607228Y-120606454D01*
X125607228Y-120339787D01*
X125759609Y-120339787D01*
X125264371Y-120682644D02*
X125264371Y-119882644D01*
X124807228Y-120682644D01*
X124807228Y-119882644D01*
X124426276Y-120682644D02*
X124426276Y-119882644D01*
X124235800Y-119882644D01*
X124121514Y-119920740D01*
X124045323Y-119996930D01*
X124007228Y-120073120D01*
X123969133Y-120225501D01*
X123969133Y-120339787D01*
X124007228Y-120492168D01*
X124045323Y-120568359D01*
X124121514Y-120644549D01*
X124235800Y-120682644D01*
X124426276Y-120682644D01*
X125754847Y-123382644D02*
X125754847Y-122582644D01*
X125564371Y-122582644D01*
X125450085Y-122620740D01*
X125373895Y-122696930D01*
X125335800Y-122773120D01*
X125297704Y-122925501D01*
X125297704Y-123039787D01*
X125335800Y-123192168D01*
X125373895Y-123268359D01*
X125450085Y-123344549D01*
X125564371Y-123382644D01*
X125754847Y-123382644D01*
X124954847Y-123382644D02*
X124954847Y-122582644D01*
X124573895Y-123382644D02*
X124573895Y-122582644D01*
X124116752Y-123382644D01*
X124116752Y-122582644D01*
X113526276Y-122782644D02*
X113031038Y-122782644D01*
X113297704Y-123087406D01*
X113183419Y-123087406D01*
X113107228Y-123125501D01*
X113069133Y-123163597D01*
X113031038Y-123239787D01*
X113031038Y-123430263D01*
X113069133Y-123506454D01*
X113107228Y-123544549D01*
X113183419Y-123582644D01*
X113411990Y-123582644D01*
X113488180Y-123544549D01*
X113526276Y-123506454D01*
X112802466Y-122782644D02*
X112535800Y-123582644D01*
X112269133Y-122782644D01*
X112078657Y-122782644D02*
X111583419Y-122782644D01*
X111850085Y-123087406D01*
X111735800Y-123087406D01*
X111659609Y-123125501D01*
X111621514Y-123163597D01*
X111583419Y-123239787D01*
X111583419Y-123430263D01*
X111621514Y-123506454D01*
X111659609Y-123544549D01*
X111735800Y-123582644D01*
X111964371Y-123582644D01*
X112040561Y-123544549D01*
X112078657Y-123506454D01*
X113707228Y-120982644D02*
X113707228Y-120182644D01*
X113440561Y-120754073D01*
X113173895Y-120182644D01*
X113173895Y-120982644D01*
X112450085Y-120982644D02*
X112450085Y-120563597D01*
X112488180Y-120487406D01*
X112564371Y-120449311D01*
X112716752Y-120449311D01*
X112792942Y-120487406D01*
X112450085Y-120944549D02*
X112526276Y-120982644D01*
X112716752Y-120982644D01*
X112792942Y-120944549D01*
X112831038Y-120868359D01*
X112831038Y-120792168D01*
X112792942Y-120715978D01*
X112716752Y-120677882D01*
X112526276Y-120677882D01*
X112450085Y-120639787D01*
X111726276Y-120449311D02*
X111726276Y-121096930D01*
X111764371Y-121173120D01*
X111802466Y-121211216D01*
X111878657Y-121249311D01*
X111992942Y-121249311D01*
X112069133Y-121211216D01*
X111726276Y-120944549D02*
X111802466Y-120982644D01*
X111954847Y-120982644D01*
X112031038Y-120944549D01*
X112069133Y-120906454D01*
X112107228Y-120830263D01*
X112107228Y-120601692D01*
X112069133Y-120525501D01*
X112031038Y-120487406D01*
X111954847Y-120449311D01*
X111802466Y-120449311D01*
X111726276Y-120487406D01*
X111383419Y-120258835D02*
X111345323Y-120220740D01*
X111269133Y-120182644D01*
X111078657Y-120182644D01*
X111002466Y-120220740D01*
X110964371Y-120258835D01*
X110926276Y-120335025D01*
X110926276Y-120411216D01*
X110964371Y-120525501D01*
X111421514Y-120982644D01*
X110926276Y-120982644D01*
X113926276Y-118582644D02*
X113926276Y-117782644D01*
X113659609Y-118354073D01*
X113392942Y-117782644D01*
X113392942Y-118582644D01*
X113050085Y-118354073D02*
X112669133Y-118354073D01*
X113126276Y-118582644D02*
X112859609Y-117782644D01*
X112592942Y-118582644D01*
X111907228Y-117820740D02*
X111983419Y-117782644D01*
X112097704Y-117782644D01*
X112211990Y-117820740D01*
X112288180Y-117896930D01*
X112326276Y-117973120D01*
X112364371Y-118125501D01*
X112364371Y-118239787D01*
X112326276Y-118392168D01*
X112288180Y-118468359D01*
X112211990Y-118544549D01*
X112097704Y-118582644D01*
X112021514Y-118582644D01*
X111907228Y-118544549D01*
X111869133Y-118506454D01*
X111869133Y-118239787D01*
X112021514Y-118239787D01*
X111602466Y-117782644D02*
X111107228Y-117782644D01*
X111373895Y-118087406D01*
X111259609Y-118087406D01*
X111183419Y-118125501D01*
X111145323Y-118163597D01*
X111107228Y-118239787D01*
X111107228Y-118430263D01*
X111145323Y-118506454D01*
X111183419Y-118544549D01*
X111259609Y-118582644D01*
X111488180Y-118582644D01*
X111564371Y-118544549D01*
X111602466Y-118506454D01*
X103548180Y-106072644D02*
X103929133Y-106072644D01*
X103967228Y-106453597D01*
X103929133Y-106415501D01*
X103852942Y-106377406D01*
X103662466Y-106377406D01*
X103586276Y-106415501D01*
X103548180Y-106453597D01*
X103510085Y-106529787D01*
X103510085Y-106720263D01*
X103548180Y-106796454D01*
X103586276Y-106834549D01*
X103662466Y-106872644D01*
X103852942Y-106872644D01*
X103929133Y-106834549D01*
X103967228Y-106796454D01*
X103281514Y-106072644D02*
X103014847Y-106872644D01*
X102748180Y-106072644D01*
X113345323Y-115220740D02*
X113421514Y-115182644D01*
X113535800Y-115182644D01*
X113650085Y-115220740D01*
X113726276Y-115296930D01*
X113764371Y-115373120D01*
X113802466Y-115525501D01*
X113802466Y-115639787D01*
X113764371Y-115792168D01*
X113726276Y-115868359D01*
X113650085Y-115944549D01*
X113535800Y-115982644D01*
X113459609Y-115982644D01*
X113345323Y-115944549D01*
X113307228Y-115906454D01*
X113307228Y-115639787D01*
X113459609Y-115639787D01*
X112964371Y-115982644D02*
X112964371Y-115182644D01*
X112507228Y-115982644D01*
X112507228Y-115182644D01*
X112126276Y-115982644D02*
X112126276Y-115182644D01*
X111935800Y-115182644D01*
X111821514Y-115220740D01*
X111745323Y-115296930D01*
X111707228Y-115373120D01*
X111669133Y-115525501D01*
X111669133Y-115639787D01*
X111707228Y-115792168D01*
X111745323Y-115868359D01*
X111821514Y-115944549D01*
X111935800Y-115982644D01*
X112126276Y-115982644D01*
X98974847Y-106832644D02*
X98974847Y-106032644D01*
X98784371Y-106032644D01*
X98670085Y-106070740D01*
X98593895Y-106146930D01*
X98555800Y-106223120D01*
X98517704Y-106375501D01*
X98517704Y-106489787D01*
X98555800Y-106642168D01*
X98593895Y-106718359D01*
X98670085Y-106794549D01*
X98784371Y-106832644D01*
X98974847Y-106832644D01*
X98174847Y-106832644D02*
X98174847Y-106032644D01*
X97793895Y-106832644D02*
X97793895Y-106032644D01*
X97336752Y-106832644D01*
X97336752Y-106032644D01*
X101485323Y-106130740D02*
X101561514Y-106092644D01*
X101675800Y-106092644D01*
X101790085Y-106130740D01*
X101866276Y-106206930D01*
X101904371Y-106283120D01*
X101942466Y-106435501D01*
X101942466Y-106549787D01*
X101904371Y-106702168D01*
X101866276Y-106778359D01*
X101790085Y-106854549D01*
X101675800Y-106892644D01*
X101599609Y-106892644D01*
X101485323Y-106854549D01*
X101447228Y-106816454D01*
X101447228Y-106549787D01*
X101599609Y-106549787D01*
X101104371Y-106892644D02*
X101104371Y-106092644D01*
X100647228Y-106892644D01*
X100647228Y-106092644D01*
X100266276Y-106892644D02*
X100266276Y-106092644D01*
X100075800Y-106092644D01*
X99961514Y-106130740D01*
X99885323Y-106206930D01*
X99847228Y-106283120D01*
X99809133Y-106435501D01*
X99809133Y-106549787D01*
X99847228Y-106702168D01*
X99885323Y-106778359D01*
X99961514Y-106854549D01*
X100075800Y-106892644D01*
X100266276Y-106892644D01*
X98498180Y-179122644D02*
X98879133Y-179122644D01*
X98917228Y-179503597D01*
X98879133Y-179465501D01*
X98802942Y-179427406D01*
X98612466Y-179427406D01*
X98536276Y-179465501D01*
X98498180Y-179503597D01*
X98460085Y-179579787D01*
X98460085Y-179770263D01*
X98498180Y-179846454D01*
X98536276Y-179884549D01*
X98612466Y-179922644D01*
X98802942Y-179922644D01*
X98879133Y-179884549D01*
X98917228Y-179846454D01*
X98231514Y-179122644D02*
X97964847Y-179922644D01*
X97698180Y-179122644D01*
D11*
X96967800Y-182880740D02*
X96967800Y-180220740D01*
X102107800Y-182880740D02*
X96967800Y-182880740D01*
X102107800Y-180220740D02*
X96967800Y-180220740D01*
X102107800Y-182880740D02*
X102107800Y-180220740D01*
X103377800Y-182880740D02*
X104707800Y-182880740D01*
X104707800Y-182880740D02*
X104707800Y-181550740D01*
X96965800Y-105590740D02*
X96965800Y-102930740D01*
X102105800Y-105590740D02*
X96965800Y-105590740D01*
X102105800Y-102930740D02*
X96965800Y-102930740D01*
X102105800Y-105590740D02*
X102105800Y-102930740D01*
X103375800Y-105590740D02*
X104705800Y-105590740D01*
X104705800Y-105590740D02*
X104705800Y-104260740D01*
X120575800Y-141870740D02*
X120575800Y-142800740D01*
X120575800Y-145030740D02*
X120575800Y-144100740D01*
X120575800Y-145030740D02*
X118415800Y-145030740D01*
X120575800Y-141870740D02*
X119115800Y-141870740D01*
X130395800Y-141830740D02*
X130395800Y-142760740D01*
X130395800Y-144990740D02*
X130395800Y-144060740D01*
X130395800Y-144990740D02*
X128235800Y-144990740D01*
X130395800Y-141830740D02*
X128935800Y-141830740D01*
D12*
G36*
X93365205Y-150050720D02*
G01*
X93264877Y-150054243D01*
X93206091Y-150062554D01*
X93177867Y-150077648D01*
X93169230Y-150101522D01*
X93168800Y-150113490D01*
X93178149Y-150153172D01*
X93216966Y-150171937D01*
X93301412Y-150176965D01*
X93311675Y-150176990D01*
X93454550Y-150176990D01*
X93454550Y-150557990D01*
X93455319Y-150719314D01*
X93458684Y-150827568D01*
X93466240Y-150893173D01*
X93479578Y-150926550D01*
X93500289Y-150938120D01*
X93512759Y-150938990D01*
X93573129Y-150928624D01*
X93592134Y-150917823D01*
X93600574Y-150879361D01*
X93607417Y-150791038D01*
X93611903Y-150666489D01*
X93613300Y-150536823D01*
X93613300Y-150176990D01*
X93740300Y-150176990D01*
X93823389Y-150171664D01*
X93860110Y-150150142D01*
X93867300Y-150113490D01*
X93863281Y-150085699D01*
X93843906Y-150067458D01*
X93798198Y-150056770D01*
X93715179Y-150051638D01*
X93583873Y-150050068D01*
X93518050Y-150049990D01*
X93365205Y-150050720D01*
G37*
X93365205Y-150050720D02*
X93264877Y-150054243D01*
X93206091Y-150062554D01*
X93177867Y-150077648D01*
X93169230Y-150101522D01*
X93168800Y-150113490D01*
X93178149Y-150153172D01*
X93216966Y-150171937D01*
X93301412Y-150176965D01*
X93311675Y-150176990D01*
X93454550Y-150176990D01*
X93454550Y-150557990D01*
X93455319Y-150719314D01*
X93458684Y-150827568D01*
X93466240Y-150893173D01*
X93479578Y-150926550D01*
X93500289Y-150938120D01*
X93512759Y-150938990D01*
X93573129Y-150928624D01*
X93592134Y-150917823D01*
X93600574Y-150879361D01*
X93607417Y-150791038D01*
X93611903Y-150666489D01*
X93613300Y-150536823D01*
X93613300Y-150176990D01*
X93740300Y-150176990D01*
X93823389Y-150171664D01*
X93860110Y-150150142D01*
X93867300Y-150113490D01*
X93863281Y-150085699D01*
X93843906Y-150067458D01*
X93798198Y-150056770D01*
X93715179Y-150051638D01*
X93583873Y-150050068D01*
X93518050Y-150049990D01*
X93365205Y-150050720D01*
G36*
X92716657Y-150311411D02*
G01*
X92628239Y-150363058D01*
X92577882Y-150450210D01*
X92559775Y-150543924D01*
X92549675Y-150637365D01*
X92994175Y-150669115D01*
X92919052Y-150744238D01*
X92851663Y-150795169D01*
X92774263Y-150807860D01*
X92722742Y-150803107D01*
X92635131Y-150799169D01*
X92591164Y-150820699D01*
X92582478Y-150836570D01*
X92586425Y-150892645D01*
X92604163Y-150912152D01*
X92677941Y-150933533D01*
X92784494Y-150937664D01*
X92895939Y-150926081D01*
X92984392Y-150900322D01*
X93002056Y-150890216D01*
X93056704Y-150828091D01*
X93102265Y-150737374D01*
X93108467Y-150718692D01*
X93121241Y-150584679D01*
X93098822Y-150511463D01*
X92946550Y-150511463D01*
X92946550Y-150511482D01*
X92919646Y-150540863D01*
X92856268Y-150556992D01*
X92782420Y-150557965D01*
X92724109Y-150541878D01*
X92710007Y-150528799D01*
X92716587Y-150489799D01*
X92751615Y-150438617D01*
X92794129Y-150402957D01*
X92808031Y-150399240D01*
X92865732Y-150419502D01*
X92921523Y-150464703D01*
X92946550Y-150511463D01*
X93098822Y-150511463D01*
X93084415Y-150464416D01*
X93008594Y-150368926D01*
X92904383Y-150309235D01*
X92782387Y-150296366D01*
X92716657Y-150311411D01*
G37*
X92716657Y-150311411D02*
X92628239Y-150363058D01*
X92577882Y-150450210D01*
X92559775Y-150543924D01*
X92549675Y-150637365D01*
X92994175Y-150669115D01*
X92919052Y-150744238D01*
X92851663Y-150795169D01*
X92774263Y-150807860D01*
X92722742Y-150803107D01*
X92635131Y-150799169D01*
X92591164Y-150820699D01*
X92582478Y-150836570D01*
X92586425Y-150892645D01*
X92604163Y-150912152D01*
X92677941Y-150933533D01*
X92784494Y-150937664D01*
X92895939Y-150926081D01*
X92984392Y-150900322D01*
X93002056Y-150890216D01*
X93056704Y-150828091D01*
X93102265Y-150737374D01*
X93108467Y-150718692D01*
X93121241Y-150584679D01*
X93098822Y-150511463D01*
X92946550Y-150511463D01*
X92946550Y-150511482D01*
X92919646Y-150540863D01*
X92856268Y-150556992D01*
X92782420Y-150557965D01*
X92724109Y-150541878D01*
X92710007Y-150528799D01*
X92716587Y-150489799D01*
X92751615Y-150438617D01*
X92794129Y-150402957D01*
X92808031Y-150399240D01*
X92865732Y-150419502D01*
X92921523Y-150464703D01*
X92946550Y-150511463D01*
X93098822Y-150511463D01*
X93084415Y-150464416D01*
X93008594Y-150368926D01*
X92904383Y-150309235D01*
X92782387Y-150296366D01*
X92716657Y-150311411D01*
G36*
X92033179Y-150302694D02*
G01*
X91967759Y-150321095D01*
X91956696Y-150328644D01*
X91936217Y-150376564D01*
X91965714Y-150412213D01*
X92031664Y-150423348D01*
X92057488Y-150419889D01*
X92161513Y-150422268D01*
X92229947Y-150476597D01*
X92260830Y-150580962D01*
X92262482Y-150620006D01*
X92248655Y-150728571D01*
X92200821Y-150787893D01*
X92109452Y-150806678D01*
X92060086Y-150804906D01*
X91978926Y-150812749D01*
X91934927Y-150843188D01*
X91938113Y-150884939D01*
X91966368Y-150910425D01*
X92029309Y-150929082D01*
X92123391Y-150937054D01*
X92219568Y-150933968D01*
X92288796Y-150919450D01*
X92297516Y-150914691D01*
X92387116Y-150817098D01*
X92431464Y-150691679D01*
X92428718Y-150556953D01*
X92377039Y-150431436D01*
X92349129Y-150395411D01*
X92274474Y-150327087D01*
X92194850Y-150299139D01*
X92124858Y-150295330D01*
X92033179Y-150302694D01*
G37*
X92033179Y-150302694D02*
X91967759Y-150321095D01*
X91956696Y-150328644D01*
X91936217Y-150376564D01*
X91965714Y-150412213D01*
X92031664Y-150423348D01*
X92057488Y-150419889D01*
X92161513Y-150422268D01*
X92229947Y-150476597D01*
X92260830Y-150580962D01*
X92262482Y-150620006D01*
X92248655Y-150728571D01*
X92200821Y-150787893D01*
X92109452Y-150806678D01*
X92060086Y-150804906D01*
X91978926Y-150812749D01*
X91934927Y-150843188D01*
X91938113Y-150884939D01*
X91966368Y-150910425D01*
X92029309Y-150929082D01*
X92123391Y-150937054D01*
X92219568Y-150933968D01*
X92288796Y-150919450D01*
X92297516Y-150914691D01*
X92387116Y-150817098D01*
X92431464Y-150691679D01*
X92428718Y-150556953D01*
X92377039Y-150431436D01*
X92349129Y-150395411D01*
X92274474Y-150327087D01*
X92194850Y-150299139D01*
X92124858Y-150295330D01*
X92033179Y-150302694D01*
G36*
X91653168Y-150046950D02*
G01*
X91645616Y-150109503D01*
X91644800Y-150178178D01*
X91641751Y-150274237D01*
X91629697Y-150319462D01*
X91604278Y-150326346D01*
X91594226Y-150323126D01*
X91483198Y-150287651D01*
X91406251Y-150285999D01*
X91342648Y-150319940D01*
X91313023Y-150347130D01*
X91272125Y-150394064D01*
X91247858Y-150445371D01*
X91235974Y-150518697D01*
X91232226Y-150631691D01*
X91232050Y-150683546D01*
X91232885Y-150809954D01*
X91238064Y-150885782D01*
X91251602Y-150923950D01*
X91277515Y-150937378D01*
X91311425Y-150938990D01*
X91351733Y-150936039D01*
X91375394Y-150918290D01*
X91386839Y-150872393D01*
X91390498Y-150785001D01*
X91390800Y-150699868D01*
X91396290Y-150557393D01*
X91416077Y-150470908D01*
X91455142Y-150433593D01*
X91518465Y-150438625D01*
X91567450Y-150457885D01*
X91608192Y-150481775D01*
X91631427Y-150517651D01*
X91642002Y-150581683D01*
X91644760Y-150690039D01*
X91644800Y-150716059D01*
X91646461Y-150832987D01*
X91654064Y-150900041D01*
X91671541Y-150930812D01*
X91702827Y-150938894D01*
X91709297Y-150938990D01*
X91769189Y-150921099D01*
X91789667Y-150897623D01*
X91794984Y-150851621D01*
X91798126Y-150755590D01*
X91798888Y-150622972D01*
X91797063Y-150467209D01*
X91796608Y-150445185D01*
X91792492Y-150277164D01*
X91787420Y-150162198D01*
X91779404Y-150089853D01*
X91766451Y-150049693D01*
X91746570Y-150031284D01*
X91717770Y-150024188D01*
X91716238Y-150023969D01*
X91674419Y-150023381D01*
X91653168Y-150046950D01*
G37*
X91653168Y-150046950D02*
X91645616Y-150109503D01*
X91644800Y-150178178D01*
X91641751Y-150274237D01*
X91629697Y-150319462D01*
X91604278Y-150326346D01*
X91594226Y-150323126D01*
X91483198Y-150287651D01*
X91406251Y-150285999D01*
X91342648Y-150319940D01*
X91313023Y-150347130D01*
X91272125Y-150394064D01*
X91247858Y-150445371D01*
X91235974Y-150518697D01*
X91232226Y-150631691D01*
X91232050Y-150683546D01*
X91232885Y-150809954D01*
X91238064Y-150885782D01*
X91251602Y-150923950D01*
X91277515Y-150937378D01*
X91311425Y-150938990D01*
X91351733Y-150936039D01*
X91375394Y-150918290D01*
X91386839Y-150872393D01*
X91390498Y-150785001D01*
X91390800Y-150699868D01*
X91396290Y-150557393D01*
X91416077Y-150470908D01*
X91455142Y-150433593D01*
X91518465Y-150438625D01*
X91567450Y-150457885D01*
X91608192Y-150481775D01*
X91631427Y-150517651D01*
X91642002Y-150581683D01*
X91644760Y-150690039D01*
X91644800Y-150716059D01*
X91646461Y-150832987D01*
X91654064Y-150900041D01*
X91671541Y-150930812D01*
X91702827Y-150938894D01*
X91709297Y-150938990D01*
X91769189Y-150921099D01*
X91789667Y-150897623D01*
X91794984Y-150851621D01*
X91798126Y-150755590D01*
X91798888Y-150622972D01*
X91797063Y-150467209D01*
X91796608Y-150445185D01*
X91792492Y-150277164D01*
X91787420Y-150162198D01*
X91779404Y-150089853D01*
X91766451Y-150049693D01*
X91746570Y-150031284D01*
X91717770Y-150024188D01*
X91716238Y-150023969D01*
X91674419Y-150023381D01*
X91653168Y-150046950D01*
G36*
X90580212Y-150317650D02*
G01*
X90574946Y-150321026D01*
X90539920Y-150349062D01*
X90518272Y-150386751D01*
X90506827Y-150448543D01*
X90502410Y-150548888D01*
X90501800Y-150653971D01*
X90502867Y-150789528D01*
X90507862Y-150873697D01*
X90519484Y-150918579D01*
X90540427Y-150936275D01*
X90565300Y-150938990D01*
X90598906Y-150932893D01*
X90618037Y-150905481D01*
X90626673Y-150843066D01*
X90628793Y-150731965D01*
X90628800Y-150720627D01*
X90636582Y-150574406D01*
X90662733Y-150483400D01*
X90711463Y-150440925D01*
X90786980Y-150440294D01*
X90803013Y-150443924D01*
X90843735Y-150457900D01*
X90867558Y-150484106D01*
X90878994Y-150537111D01*
X90882559Y-150631488D01*
X90882800Y-150701469D01*
X90883796Y-150822402D01*
X90889765Y-150893229D01*
X90905185Y-150927343D01*
X90934529Y-150938136D01*
X90962175Y-150938990D01*
X91041550Y-150938990D01*
X91041550Y-150296052D01*
X90949223Y-150314518D01*
X90851274Y-150318639D01*
X90752494Y-150303041D01*
X90657481Y-150289655D01*
X90580212Y-150317650D01*
G37*
X90580212Y-150317650D02*
X90574946Y-150321026D01*
X90539920Y-150349062D01*
X90518272Y-150386751D01*
X90506827Y-150448543D01*
X90502410Y-150548888D01*
X90501800Y-150653971D01*
X90502867Y-150789528D01*
X90507862Y-150873697D01*
X90519484Y-150918579D01*
X90540427Y-150936275D01*
X90565300Y-150938990D01*
X90598906Y-150932893D01*
X90618037Y-150905481D01*
X90626673Y-150843066D01*
X90628793Y-150731965D01*
X90628800Y-150720627D01*
X90636582Y-150574406D01*
X90662733Y-150483400D01*
X90711463Y-150440925D01*
X90786980Y-150440294D01*
X90803013Y-150443924D01*
X90843735Y-150457900D01*
X90867558Y-150484106D01*
X90878994Y-150537111D01*
X90882559Y-150631488D01*
X90882800Y-150701469D01*
X90883796Y-150822402D01*
X90889765Y-150893229D01*
X90905185Y-150927343D01*
X90934529Y-150938136D01*
X90962175Y-150938990D01*
X91041550Y-150938990D01*
X91041550Y-150296052D01*
X90949223Y-150314518D01*
X90851274Y-150318639D01*
X90752494Y-150303041D01*
X90657481Y-150289655D01*
X90580212Y-150317650D01*
G36*
X90120800Y-150938990D02*
G01*
X90279550Y-150938990D01*
X90279550Y-150303990D01*
X90120800Y-150303990D01*
X90120800Y-150938990D01*
G37*
X90120800Y-150938990D02*
X90279550Y-150938990D01*
X90279550Y-150303990D01*
X90120800Y-150303990D01*
X90120800Y-150938990D01*
G36*
X89812021Y-150020865D02*
G01*
X89788437Y-150037246D01*
X89776254Y-150080144D01*
X89771555Y-150162316D01*
X89770486Y-150280177D01*
X89769421Y-150542115D01*
X89672156Y-150423052D01*
X89602781Y-150352575D01*
X89537976Y-150309864D01*
X89514471Y-150303990D01*
X89467220Y-150312510D01*
X89460271Y-150344169D01*
X89494707Y-150408118D01*
X89533219Y-150462459D01*
X89572787Y-150517516D01*
X89591021Y-150559737D01*
X89584740Y-150604658D01*
X89550762Y-150667815D01*
X89485904Y-150764741D01*
X89465057Y-150795242D01*
X89426071Y-150875983D01*
X89439368Y-150924799D01*
X89493738Y-150938933D01*
X89555003Y-150916496D01*
X89622391Y-150844342D01*
X89660425Y-150788120D01*
X89755675Y-150637365D01*
X89765353Y-150788177D01*
X89774612Y-150879727D01*
X89793280Y-150924258D01*
X89830898Y-150938251D01*
X89852665Y-150938990D01*
X89930300Y-150938990D01*
X89930300Y-150018240D01*
X89850925Y-150018240D01*
X89812021Y-150020865D01*
G37*
X89812021Y-150020865D02*
X89788437Y-150037246D01*
X89776254Y-150080144D01*
X89771555Y-150162316D01*
X89770486Y-150280177D01*
X89769421Y-150542115D01*
X89672156Y-150423052D01*
X89602781Y-150352575D01*
X89537976Y-150309864D01*
X89514471Y-150303990D01*
X89467220Y-150312510D01*
X89460271Y-150344169D01*
X89494707Y-150408118D01*
X89533219Y-150462459D01*
X89572787Y-150517516D01*
X89591021Y-150559737D01*
X89584740Y-150604658D01*
X89550762Y-150667815D01*
X89485904Y-150764741D01*
X89465057Y-150795242D01*
X89426071Y-150875983D01*
X89439368Y-150924799D01*
X89493738Y-150938933D01*
X89555003Y-150916496D01*
X89622391Y-150844342D01*
X89660425Y-150788120D01*
X89755675Y-150637365D01*
X89765353Y-150788177D01*
X89774612Y-150879727D01*
X89793280Y-150924258D01*
X89830898Y-150938251D01*
X89852665Y-150938990D01*
X89930300Y-150938990D01*
X89930300Y-150018240D01*
X89850925Y-150018240D01*
X89812021Y-150020865D01*
G36*
X88569842Y-150077079D02*
G01*
X88565050Y-150081740D01*
X88509437Y-150173983D01*
X88515672Y-150272714D01*
X88570786Y-150357719D01*
X88640021Y-150431417D01*
X88550052Y-150525324D01*
X88479210Y-150588577D01*
X88433533Y-150595786D01*
X88403619Y-150544175D01*
X88388122Y-150477501D01*
X88361264Y-150396784D01*
X88316783Y-150367999D01*
X88307517Y-150367490D01*
X88258773Y-150391662D01*
X88250617Y-150463080D01*
X88283122Y-150580099D01*
X88296891Y-150614572D01*
X88326045Y-150692035D01*
X88325185Y-150737527D01*
X88289928Y-150777175D01*
X88266411Y-150796295D01*
X88212436Y-150854485D01*
X88213593Y-150903544D01*
X88215194Y-150906258D01*
X88241743Y-150932625D01*
X88284339Y-150929497D01*
X88358136Y-150898016D01*
X88438727Y-150864896D01*
X88496500Y-150862757D01*
X88563471Y-150890549D01*
X88564811Y-150891241D01*
X88689320Y-150931285D01*
X88817012Y-150933080D01*
X88923382Y-150897132D01*
X88942437Y-150883427D01*
X88997313Y-150811539D01*
X89028382Y-150729258D01*
X89031696Y-150653600D01*
X89027551Y-150644099D01*
X88873383Y-150644099D01*
X88870805Y-150711560D01*
X88832658Y-150762097D01*
X88757178Y-150803623D01*
X88670780Y-150807232D01*
X88603100Y-150771902D01*
X88601543Y-150770079D01*
X88589771Y-150729011D01*
X88618591Y-150669675D01*
X88657739Y-150619266D01*
X88715257Y-150553538D01*
X88751607Y-150530839D01*
X88786075Y-150545255D01*
X88815634Y-150570848D01*
X88873383Y-150644099D01*
X89027551Y-150644099D01*
X89001470Y-150584320D01*
X88952095Y-150522099D01*
X88894909Y-150451624D01*
X88876035Y-150403777D01*
X88889217Y-150355955D01*
X88900292Y-150334956D01*
X88938736Y-150244507D01*
X88932448Y-150190922D01*
X88775074Y-150190922D01*
X88772709Y-150254838D01*
X88752836Y-150291386D01*
X88716532Y-150323836D01*
X88685053Y-150304621D01*
X88669481Y-150284328D01*
X88640440Y-150225229D01*
X88638691Y-150194148D01*
X88677596Y-150156949D01*
X88734640Y-150155632D01*
X88775074Y-150190922D01*
X88932448Y-150190922D01*
X88930567Y-150174903D01*
X88872317Y-150100396D01*
X88868119Y-150096171D01*
X88768621Y-150032065D01*
X88664606Y-150025482D01*
X88569842Y-150077079D01*
G37*
X88569842Y-150077079D02*
X88565050Y-150081740D01*
X88509437Y-150173983D01*
X88515672Y-150272714D01*
X88570786Y-150357719D01*
X88640021Y-150431417D01*
X88550052Y-150525324D01*
X88479210Y-150588577D01*
X88433533Y-150595786D01*
X88403619Y-150544175D01*
X88388122Y-150477501D01*
X88361264Y-150396784D01*
X88316783Y-150367999D01*
X88307517Y-150367490D01*
X88258773Y-150391662D01*
X88250617Y-150463080D01*
X88283122Y-150580099D01*
X88296891Y-150614572D01*
X88326045Y-150692035D01*
X88325185Y-150737527D01*
X88289928Y-150777175D01*
X88266411Y-150796295D01*
X88212436Y-150854485D01*
X88213593Y-150903544D01*
X88215194Y-150906258D01*
X88241743Y-150932625D01*
X88284339Y-150929497D01*
X88358136Y-150898016D01*
X88438727Y-150864896D01*
X88496500Y-150862757D01*
X88563471Y-150890549D01*
X88564811Y-150891241D01*
X88689320Y-150931285D01*
X88817012Y-150933080D01*
X88923382Y-150897132D01*
X88942437Y-150883427D01*
X88997313Y-150811539D01*
X89028382Y-150729258D01*
X89031696Y-150653600D01*
X89027551Y-150644099D01*
X88873383Y-150644099D01*
X88870805Y-150711560D01*
X88832658Y-150762097D01*
X88757178Y-150803623D01*
X88670780Y-150807232D01*
X88603100Y-150771902D01*
X88601543Y-150770079D01*
X88589771Y-150729011D01*
X88618591Y-150669675D01*
X88657739Y-150619266D01*
X88715257Y-150553538D01*
X88751607Y-150530839D01*
X88786075Y-150545255D01*
X88815634Y-150570848D01*
X88873383Y-150644099D01*
X89027551Y-150644099D01*
X89001470Y-150584320D01*
X88952095Y-150522099D01*
X88894909Y-150451624D01*
X88876035Y-150403777D01*
X88889217Y-150355955D01*
X88900292Y-150334956D01*
X88938736Y-150244507D01*
X88932448Y-150190922D01*
X88775074Y-150190922D01*
X88772709Y-150254838D01*
X88752836Y-150291386D01*
X88716532Y-150323836D01*
X88685053Y-150304621D01*
X88669481Y-150284328D01*
X88640440Y-150225229D01*
X88638691Y-150194148D01*
X88677596Y-150156949D01*
X88734640Y-150155632D01*
X88775074Y-150190922D01*
X88932448Y-150190922D01*
X88930567Y-150174903D01*
X88872317Y-150100396D01*
X88868119Y-150096171D01*
X88768621Y-150032065D01*
X88664606Y-150025482D01*
X88569842Y-150077079D01*
G36*
X87430150Y-150056245D02*
G01*
X87395558Y-150066686D01*
X87363521Y-150095014D01*
X87328647Y-150150616D01*
X87285546Y-150242883D01*
X87228825Y-150381202D01*
X87196730Y-150462740D01*
X87139306Y-150612589D01*
X87091446Y-150743062D01*
X87057517Y-150841840D01*
X87041880Y-150896605D01*
X87041328Y-150901411D01*
X87068363Y-150931329D01*
X87127353Y-150933161D01*
X87195474Y-150908958D01*
X87235277Y-150844621D01*
X87243070Y-150819927D01*
X87264042Y-150759863D01*
X87295035Y-150729245D01*
X87354946Y-150718175D01*
X87440056Y-150716740D01*
X87538314Y-150719077D01*
X87592678Y-150733198D01*
X87622745Y-150769764D01*
X87644300Y-150827865D01*
X87680780Y-150906111D01*
X87730061Y-150936629D01*
X87757888Y-150938990D01*
X87816432Y-150933075D01*
X87834800Y-150922247D01*
X87824106Y-150888156D01*
X87794699Y-150805748D01*
X87750595Y-150686003D01*
X87710706Y-150579627D01*
X87549050Y-150579627D01*
X87521057Y-150586265D01*
X87452074Y-150589634D01*
X87435786Y-150589740D01*
X87361872Y-150585636D01*
X87336577Y-150565590D01*
X87345071Y-150518302D01*
X87371254Y-150438712D01*
X87404256Y-150342311D01*
X87406554Y-150335740D01*
X87445487Y-150224615D01*
X87497269Y-150397065D01*
X87525409Y-150492415D01*
X87544215Y-150559270D01*
X87549050Y-150579627D01*
X87710706Y-150579627D01*
X87695807Y-150539897D01*
X87671623Y-150476065D01*
X87607103Y-150308122D01*
X87559353Y-150191035D01*
X87523326Y-150116025D01*
X87493971Y-150074316D01*
X87466242Y-150057130D01*
X87435088Y-150055688D01*
X87430150Y-150056245D01*
G37*
X87430150Y-150056245D02*
X87395558Y-150066686D01*
X87363521Y-150095014D01*
X87328647Y-150150616D01*
X87285546Y-150242883D01*
X87228825Y-150381202D01*
X87196730Y-150462740D01*
X87139306Y-150612589D01*
X87091446Y-150743062D01*
X87057517Y-150841840D01*
X87041880Y-150896605D01*
X87041328Y-150901411D01*
X87068363Y-150931329D01*
X87127353Y-150933161D01*
X87195474Y-150908958D01*
X87235277Y-150844621D01*
X87243070Y-150819927D01*
X87264042Y-150759863D01*
X87295035Y-150729245D01*
X87354946Y-150718175D01*
X87440056Y-150716740D01*
X87538314Y-150719077D01*
X87592678Y-150733198D01*
X87622745Y-150769764D01*
X87644300Y-150827865D01*
X87680780Y-150906111D01*
X87730061Y-150936629D01*
X87757888Y-150938990D01*
X87816432Y-150933075D01*
X87834800Y-150922247D01*
X87824106Y-150888156D01*
X87794699Y-150805748D01*
X87750595Y-150686003D01*
X87710706Y-150579627D01*
X87549050Y-150579627D01*
X87521057Y-150586265D01*
X87452074Y-150589634D01*
X87435786Y-150589740D01*
X87361872Y-150585636D01*
X87336577Y-150565590D01*
X87345071Y-150518302D01*
X87371254Y-150438712D01*
X87404256Y-150342311D01*
X87406554Y-150335740D01*
X87445487Y-150224615D01*
X87497269Y-150397065D01*
X87525409Y-150492415D01*
X87544215Y-150559270D01*
X87549050Y-150579627D01*
X87710706Y-150579627D01*
X87695807Y-150539897D01*
X87671623Y-150476065D01*
X87607103Y-150308122D01*
X87559353Y-150191035D01*
X87523326Y-150116025D01*
X87493971Y-150074316D01*
X87466242Y-150057130D01*
X87435088Y-150055688D01*
X87430150Y-150056245D01*
G36*
X86586620Y-150316060D02*
G01*
X86571847Y-150355254D01*
X86578423Y-150406594D01*
X86628784Y-150434843D01*
X86658405Y-150441773D01*
X86755300Y-150461152D01*
X86755300Y-150700071D01*
X86756282Y-150821437D01*
X86762183Y-150892659D01*
X86777442Y-150927091D01*
X86806493Y-150938086D01*
X86834675Y-150938990D01*
X86870707Y-150937055D01*
X86893754Y-150923520D01*
X86906717Y-150886786D01*
X86912498Y-150815257D01*
X86913999Y-150697334D01*
X86914050Y-150621718D01*
X86914050Y-150304447D01*
X86794988Y-150308046D01*
X86703540Y-150307428D01*
X86635190Y-150301201D01*
X86629054Y-150299880D01*
X86586620Y-150316060D01*
G37*
X86586620Y-150316060D02*
X86571847Y-150355254D01*
X86578423Y-150406594D01*
X86628784Y-150434843D01*
X86658405Y-150441773D01*
X86755300Y-150461152D01*
X86755300Y-150700071D01*
X86756282Y-150821437D01*
X86762183Y-150892659D01*
X86777442Y-150927091D01*
X86806493Y-150938086D01*
X86834675Y-150938990D01*
X86870707Y-150937055D01*
X86893754Y-150923520D01*
X86906717Y-150886786D01*
X86912498Y-150815257D01*
X86913999Y-150697334D01*
X86914050Y-150621718D01*
X86914050Y-150304447D01*
X86794988Y-150308046D01*
X86703540Y-150307428D01*
X86635190Y-150301201D01*
X86629054Y-150299880D01*
X86586620Y-150316060D01*
G36*
X86059625Y-150307762D02*
G01*
X85991577Y-150346609D01*
X85980517Y-150386884D01*
X86021296Y-150416957D01*
X86108759Y-150425193D01*
X86111557Y-150425014D01*
X86214832Y-150443567D01*
X86284277Y-150506362D01*
X86313277Y-150600272D01*
X86295218Y-150712169D01*
X86276724Y-150752837D01*
X86239312Y-150794744D01*
X86175019Y-150809027D01*
X86112417Y-150807106D01*
X86021131Y-150812375D01*
X85968265Y-150838311D01*
X85962828Y-150876822D01*
X85997368Y-150910425D01*
X86079919Y-150935162D01*
X86190706Y-150936806D01*
X86299713Y-150917541D01*
X86372783Y-150883103D01*
X86428280Y-150803510D01*
X86459566Y-150688700D01*
X86462610Y-150563663D01*
X86439807Y-150467583D01*
X86367078Y-150368110D01*
X86257813Y-150307031D01*
X86131282Y-150292447D01*
X86059625Y-150307762D01*
G37*
X86059625Y-150307762D02*
X85991577Y-150346609D01*
X85980517Y-150386884D01*
X86021296Y-150416957D01*
X86108759Y-150425193D01*
X86111557Y-150425014D01*
X86214832Y-150443567D01*
X86284277Y-150506362D01*
X86313277Y-150600272D01*
X86295218Y-150712169D01*
X86276724Y-150752837D01*
X86239312Y-150794744D01*
X86175019Y-150809027D01*
X86112417Y-150807106D01*
X86021131Y-150812375D01*
X85968265Y-150838311D01*
X85962828Y-150876822D01*
X85997368Y-150910425D01*
X86079919Y-150935162D01*
X86190706Y-150936806D01*
X86299713Y-150917541D01*
X86372783Y-150883103D01*
X86428280Y-150803510D01*
X86459566Y-150688700D01*
X86462610Y-150563663D01*
X86439807Y-150467583D01*
X86367078Y-150368110D01*
X86257813Y-150307031D01*
X86131282Y-150292447D01*
X86059625Y-150307762D01*
G36*
X85708437Y-150023243D02*
G01*
X85684891Y-150048977D01*
X85676663Y-150111524D01*
X85675800Y-150180386D01*
X85672685Y-150275598D01*
X85660382Y-150320010D01*
X85634455Y-150326144D01*
X85625226Y-150323126D01*
X85512060Y-150288554D01*
X85430920Y-150289721D01*
X85360939Y-150327233D01*
X85356293Y-150330932D01*
X85317998Y-150367403D01*
X85294919Y-150411178D01*
X85283266Y-150478289D01*
X85279252Y-150584767D01*
X85278925Y-150658323D01*
X85280018Y-150788019D01*
X85285572Y-150867378D01*
X85299008Y-150909554D01*
X85323742Y-150927702D01*
X85350363Y-150933260D01*
X85388069Y-150934635D01*
X85409512Y-150916450D01*
X85419320Y-150865428D01*
X85422119Y-150768292D01*
X85422287Y-150726885D01*
X85426603Y-150583517D01*
X85442222Y-150493937D01*
X85474315Y-150448728D01*
X85528054Y-150438474D01*
X85576584Y-150445993D01*
X85675800Y-150467785D01*
X85675800Y-150703387D01*
X85676815Y-150823723D01*
X85682880Y-150894006D01*
X85698525Y-150927684D01*
X85728279Y-150938202D01*
X85755175Y-150938990D01*
X85834550Y-150938990D01*
X85834550Y-150018240D01*
X85755175Y-150018240D01*
X85708437Y-150023243D01*
G37*
X85708437Y-150023243D02*
X85684891Y-150048977D01*
X85676663Y-150111524D01*
X85675800Y-150180386D01*
X85672685Y-150275598D01*
X85660382Y-150320010D01*
X85634455Y-150326144D01*
X85625226Y-150323126D01*
X85512060Y-150288554D01*
X85430920Y-150289721D01*
X85360939Y-150327233D01*
X85356293Y-150330932D01*
X85317998Y-150367403D01*
X85294919Y-150411178D01*
X85283266Y-150478289D01*
X85279252Y-150584767D01*
X85278925Y-150658323D01*
X85280018Y-150788019D01*
X85285572Y-150867378D01*
X85299008Y-150909554D01*
X85323742Y-150927702D01*
X85350363Y-150933260D01*
X85388069Y-150934635D01*
X85409512Y-150916450D01*
X85419320Y-150865428D01*
X85422119Y-150768292D01*
X85422287Y-150726885D01*
X85426603Y-150583517D01*
X85442222Y-150493937D01*
X85474315Y-150448728D01*
X85528054Y-150438474D01*
X85576584Y-150445993D01*
X85675800Y-150467785D01*
X85675800Y-150703387D01*
X85676815Y-150823723D01*
X85682880Y-150894006D01*
X85698525Y-150927684D01*
X85728279Y-150938202D01*
X85755175Y-150938990D01*
X85834550Y-150938990D01*
X85834550Y-150018240D01*
X85755175Y-150018240D01*
X85708437Y-150023243D01*
G36*
X84913800Y-150938990D02*
G01*
X85072550Y-150938990D01*
X85072550Y-150303990D01*
X84913800Y-150303990D01*
X84913800Y-150938990D01*
G37*
X84913800Y-150938990D02*
X85072550Y-150938990D01*
X85072550Y-150303990D01*
X84913800Y-150303990D01*
X84913800Y-150938990D01*
G36*
X84547376Y-150126158D02*
G01*
X84533757Y-150172339D01*
X84532800Y-150205343D01*
X84525603Y-150274389D01*
X84491090Y-150300503D01*
X84437550Y-150303990D01*
X84361931Y-150318189D01*
X84342300Y-150351615D01*
X84370699Y-150389424D01*
X84437550Y-150399240D01*
X84494275Y-150402807D01*
X84522342Y-150424519D01*
X84531825Y-150480886D01*
X84532800Y-150555393D01*
X84527293Y-150686576D01*
X84507602Y-150765792D01*
X84468973Y-150803869D01*
X84420152Y-150811990D01*
X84353270Y-150825648D01*
X84324232Y-150847289D01*
X84323514Y-150889300D01*
X84367806Y-150919462D01*
X84439335Y-150935450D01*
X84520329Y-150934937D01*
X84593016Y-150915599D01*
X84631283Y-150887470D01*
X84654763Y-150830684D01*
X84674681Y-150732119D01*
X84686378Y-150617595D01*
X84696253Y-150509129D01*
X84710513Y-150430968D01*
X84726155Y-150399311D01*
X84726883Y-150399240D01*
X84751889Y-150373471D01*
X84755050Y-150351615D01*
X84737906Y-150309363D01*
X84723300Y-150303990D01*
X84699433Y-150276818D01*
X84691550Y-150224615D01*
X84681565Y-150164933D01*
X84662397Y-150145240D01*
X84609189Y-150134767D01*
X84583022Y-150125968D01*
X84547376Y-150126158D01*
G37*
X84547376Y-150126158D02*
X84533757Y-150172339D01*
X84532800Y-150205343D01*
X84525603Y-150274389D01*
X84491090Y-150300503D01*
X84437550Y-150303990D01*
X84361931Y-150318189D01*
X84342300Y-150351615D01*
X84370699Y-150389424D01*
X84437550Y-150399240D01*
X84494275Y-150402807D01*
X84522342Y-150424519D01*
X84531825Y-150480886D01*
X84532800Y-150555393D01*
X84527293Y-150686576D01*
X84507602Y-150765792D01*
X84468973Y-150803869D01*
X84420152Y-150811990D01*
X84353270Y-150825648D01*
X84324232Y-150847289D01*
X84323514Y-150889300D01*
X84367806Y-150919462D01*
X84439335Y-150935450D01*
X84520329Y-150934937D01*
X84593016Y-150915599D01*
X84631283Y-150887470D01*
X84654763Y-150830684D01*
X84674681Y-150732119D01*
X84686378Y-150617595D01*
X84696253Y-150509129D01*
X84710513Y-150430968D01*
X84726155Y-150399311D01*
X84726883Y-150399240D01*
X84751889Y-150373471D01*
X84755050Y-150351615D01*
X84737906Y-150309363D01*
X84723300Y-150303990D01*
X84699433Y-150276818D01*
X84691550Y-150224615D01*
X84681565Y-150164933D01*
X84662397Y-150145240D01*
X84609189Y-150134767D01*
X84583022Y-150125968D01*
X84547376Y-150126158D01*
G36*
X83778496Y-150328311D02*
G01*
X83696986Y-150411411D01*
X83654505Y-150536075D01*
X83635492Y-150653240D01*
X83846021Y-150653240D01*
X83970046Y-150657474D01*
X84036306Y-150672716D01*
X84050128Y-150702773D01*
X84016835Y-150751450D01*
X84003176Y-150765578D01*
X83942551Y-150800954D01*
X83849921Y-150806870D01*
X83812676Y-150803496D01*
X83726045Y-150797690D01*
X83685658Y-150809377D01*
X83675553Y-150843300D01*
X83675550Y-150844243D01*
X83695191Y-150897069D01*
X83759349Y-150927477D01*
X83875880Y-150938742D01*
X83902840Y-150938990D01*
X84010135Y-150924215D01*
X84097367Y-150869970D01*
X84122493Y-150846182D01*
X84193450Y-150750673D01*
X84215278Y-150645474D01*
X84215300Y-150641301D01*
X84194960Y-150507141D01*
X84047143Y-150507141D01*
X84042770Y-150541479D01*
X83980030Y-150556452D01*
X83929550Y-150557990D01*
X83840417Y-150549776D01*
X83804321Y-150523041D01*
X83802550Y-150511482D01*
X83827802Y-150461478D01*
X83868692Y-150429576D01*
X83931416Y-150412030D01*
X83989818Y-150444039D01*
X83995692Y-150449255D01*
X84047143Y-150507141D01*
X84194960Y-150507141D01*
X84192006Y-150487664D01*
X84124445Y-150376810D01*
X84016101Y-150312466D01*
X83893671Y-150297152D01*
X83778496Y-150328311D01*
G37*
X83778496Y-150328311D02*
X83696986Y-150411411D01*
X83654505Y-150536075D01*
X83635492Y-150653240D01*
X83846021Y-150653240D01*
X83970046Y-150657474D01*
X84036306Y-150672716D01*
X84050128Y-150702773D01*
X84016835Y-150751450D01*
X84003176Y-150765578D01*
X83942551Y-150800954D01*
X83849921Y-150806870D01*
X83812676Y-150803496D01*
X83726045Y-150797690D01*
X83685658Y-150809377D01*
X83675553Y-150843300D01*
X83675550Y-150844243D01*
X83695191Y-150897069D01*
X83759349Y-150927477D01*
X83875880Y-150938742D01*
X83902840Y-150938990D01*
X84010135Y-150924215D01*
X84097367Y-150869970D01*
X84122493Y-150846182D01*
X84193450Y-150750673D01*
X84215278Y-150645474D01*
X84215300Y-150641301D01*
X84194960Y-150507141D01*
X84047143Y-150507141D01*
X84042770Y-150541479D01*
X83980030Y-150556452D01*
X83929550Y-150557990D01*
X83840417Y-150549776D01*
X83804321Y-150523041D01*
X83802550Y-150511482D01*
X83827802Y-150461478D01*
X83868692Y-150429576D01*
X83931416Y-150412030D01*
X83989818Y-150444039D01*
X83995692Y-150449255D01*
X84047143Y-150507141D01*
X84194960Y-150507141D01*
X84192006Y-150487664D01*
X84124445Y-150376810D01*
X84016101Y-150312466D01*
X83893671Y-150297152D01*
X83778496Y-150328311D01*
G36*
X83366749Y-150020836D02*
G01*
X83343228Y-150037143D01*
X83331232Y-150079932D01*
X83326883Y-150161977D01*
X83326300Y-150279610D01*
X83326300Y-150540980D01*
X83245781Y-150422485D01*
X83170725Y-150335916D01*
X83097393Y-150304423D01*
X83087031Y-150303990D01*
X83030161Y-150310118D01*
X83015321Y-150334800D01*
X83043343Y-150387480D01*
X83100836Y-150460545D01*
X83191164Y-150569476D01*
X83084107Y-150736832D01*
X83028257Y-150826713D01*
X82989524Y-150893964D01*
X82977050Y-150921589D01*
X83004310Y-150934641D01*
X83057125Y-150938990D01*
X83118143Y-150922961D01*
X83177895Y-150867303D01*
X83229773Y-150793016D01*
X83322347Y-150647042D01*
X83332261Y-150785078D01*
X83344138Y-150874277D01*
X83369355Y-150917909D01*
X83413613Y-150933260D01*
X83441373Y-150935531D01*
X83460810Y-150926874D01*
X83473407Y-150897896D01*
X83480648Y-150839204D01*
X83484016Y-150741403D01*
X83484994Y-150595101D01*
X83485050Y-150480823D01*
X83485050Y-150018240D01*
X83405675Y-150018240D01*
X83366749Y-150020836D01*
G37*
X83366749Y-150020836D02*
X83343228Y-150037143D01*
X83331232Y-150079932D01*
X83326883Y-150161977D01*
X83326300Y-150279610D01*
X83326300Y-150540980D01*
X83245781Y-150422485D01*
X83170725Y-150335916D01*
X83097393Y-150304423D01*
X83087031Y-150303990D01*
X83030161Y-150310118D01*
X83015321Y-150334800D01*
X83043343Y-150387480D01*
X83100836Y-150460545D01*
X83191164Y-150569476D01*
X83084107Y-150736832D01*
X83028257Y-150826713D01*
X82989524Y-150893964D01*
X82977050Y-150921589D01*
X83004310Y-150934641D01*
X83057125Y-150938990D01*
X83118143Y-150922961D01*
X83177895Y-150867303D01*
X83229773Y-150793016D01*
X83322347Y-150647042D01*
X83332261Y-150785078D01*
X83344138Y-150874277D01*
X83369355Y-150917909D01*
X83413613Y-150933260D01*
X83441373Y-150935531D01*
X83460810Y-150926874D01*
X83473407Y-150897896D01*
X83480648Y-150839204D01*
X83484016Y-150741403D01*
X83484994Y-150595101D01*
X83485050Y-150480823D01*
X83485050Y-150018240D01*
X83405675Y-150018240D01*
X83366749Y-150020836D01*
G36*
X82668231Y-150141090D02*
G01*
X82659553Y-150207588D01*
X82659550Y-150208740D01*
X82651008Y-150276812D01*
X82614693Y-150301715D01*
X82580175Y-150303990D01*
X82516336Y-150320550D01*
X82500800Y-150351615D01*
X82528482Y-150389868D01*
X82581691Y-150399240D01*
X82625622Y-150402424D01*
X82648902Y-150421721D01*
X82656792Y-150471749D01*
X82654554Y-150567123D01*
X82653128Y-150597677D01*
X82646311Y-150706198D01*
X82634118Y-150766669D01*
X82609256Y-150794514D01*
X82564436Y-150805155D01*
X82554476Y-150806343D01*
X82488333Y-150826683D01*
X82475365Y-150869843D01*
X82511429Y-150911356D01*
X82584383Y-150932509D01*
X82670422Y-150931591D01*
X82745735Y-150906891D01*
X82766726Y-150890778D01*
X82797677Y-150836842D01*
X82814034Y-150744575D01*
X82818300Y-150619222D01*
X82821150Y-150499174D01*
X82831390Y-150430735D01*
X82851552Y-150402201D01*
X82865925Y-150399240D01*
X82908019Y-150373825D01*
X82913550Y-150351615D01*
X82888136Y-150309521D01*
X82865925Y-150303990D01*
X82827509Y-150276579D01*
X82818300Y-150228011D01*
X82791354Y-150153604D01*
X82718867Y-150115962D01*
X82688704Y-150113490D01*
X82668231Y-150141090D01*
G37*
X82668231Y-150141090D02*
X82659553Y-150207588D01*
X82659550Y-150208740D01*
X82651008Y-150276812D01*
X82614693Y-150301715D01*
X82580175Y-150303990D01*
X82516336Y-150320550D01*
X82500800Y-150351615D01*
X82528482Y-150389868D01*
X82581691Y-150399240D01*
X82625622Y-150402424D01*
X82648902Y-150421721D01*
X82656792Y-150471749D01*
X82654554Y-150567123D01*
X82653128Y-150597677D01*
X82646311Y-150706198D01*
X82634118Y-150766669D01*
X82609256Y-150794514D01*
X82564436Y-150805155D01*
X82554476Y-150806343D01*
X82488333Y-150826683D01*
X82475365Y-150869843D01*
X82511429Y-150911356D01*
X82584383Y-150932509D01*
X82670422Y-150931591D01*
X82745735Y-150906891D01*
X82766726Y-150890778D01*
X82797677Y-150836842D01*
X82814034Y-150744575D01*
X82818300Y-150619222D01*
X82821150Y-150499174D01*
X82831390Y-150430735D01*
X82851552Y-150402201D01*
X82865925Y-150399240D01*
X82908019Y-150373825D01*
X82913550Y-150351615D01*
X82888136Y-150309521D01*
X82865925Y-150303990D01*
X82827509Y-150276579D01*
X82818300Y-150228011D01*
X82791354Y-150153604D01*
X82718867Y-150115962D01*
X82688704Y-150113490D01*
X82668231Y-150141090D01*
G36*
X81770550Y-150621490D02*
G01*
X81771637Y-150766687D01*
X81776256Y-150859717D01*
X81786443Y-150911891D01*
X81804234Y-150934524D01*
X81827700Y-150938990D01*
X81895833Y-150920991D01*
X81919367Y-150904473D01*
X81957692Y-150887127D01*
X81975216Y-150904473D01*
X82017968Y-150926442D01*
X82097856Y-150938310D01*
X82123294Y-150938990D01*
X82208531Y-150932912D01*
X82256794Y-150903293D01*
X82294281Y-150833052D01*
X82297497Y-150825411D01*
X82328539Y-150699840D01*
X82336429Y-150538759D01*
X82335564Y-150515848D01*
X82328642Y-150408310D01*
X82316556Y-150349583D01*
X82292661Y-150324994D01*
X82250312Y-150319873D01*
X82246800Y-150319865D01*
X82205157Y-150323548D01*
X82180538Y-150343804D01*
X82167418Y-150394444D01*
X82160271Y-150489279D01*
X82157871Y-150542115D01*
X82149764Y-150656248D01*
X82137556Y-150744673D01*
X82123839Y-150788832D01*
X82123354Y-150789357D01*
X82078687Y-150797407D01*
X82013846Y-150782205D01*
X81969563Y-150761348D01*
X81944252Y-150730375D01*
X81932629Y-150673346D01*
X81929416Y-150574323D01*
X81929300Y-150527025D01*
X81928143Y-150410660D01*
X81921394Y-150343978D01*
X81904136Y-150313167D01*
X81871455Y-150304413D01*
X81849925Y-150303990D01*
X81770550Y-150303990D01*
X81770550Y-150621490D01*
G37*
X81770550Y-150621490D02*
X81771637Y-150766687D01*
X81776256Y-150859717D01*
X81786443Y-150911891D01*
X81804234Y-150934524D01*
X81827700Y-150938990D01*
X81895833Y-150920991D01*
X81919367Y-150904473D01*
X81957692Y-150887127D01*
X81975216Y-150904473D01*
X82017968Y-150926442D01*
X82097856Y-150938310D01*
X82123294Y-150938990D01*
X82208531Y-150932912D01*
X82256794Y-150903293D01*
X82294281Y-150833052D01*
X82297497Y-150825411D01*
X82328539Y-150699840D01*
X82336429Y-150538759D01*
X82335564Y-150515848D01*
X82328642Y-150408310D01*
X82316556Y-150349583D01*
X82292661Y-150324994D01*
X82250312Y-150319873D01*
X82246800Y-150319865D01*
X82205157Y-150323548D01*
X82180538Y-150343804D01*
X82167418Y-150394444D01*
X82160271Y-150489279D01*
X82157871Y-150542115D01*
X82149764Y-150656248D01*
X82137556Y-150744673D01*
X82123839Y-150788832D01*
X82123354Y-150789357D01*
X82078687Y-150797407D01*
X82013846Y-150782205D01*
X81969563Y-150761348D01*
X81944252Y-150730375D01*
X81932629Y-150673346D01*
X81929416Y-150574323D01*
X81929300Y-150527025D01*
X81928143Y-150410660D01*
X81921394Y-150343978D01*
X81904136Y-150313167D01*
X81871455Y-150304413D01*
X81849925Y-150303990D01*
X81770550Y-150303990D01*
X81770550Y-150621490D01*
G36*
X81252569Y-150315957D02*
G01*
X81237847Y-150355254D01*
X81244423Y-150406594D01*
X81294784Y-150434843D01*
X81324405Y-150441773D01*
X81421300Y-150461152D01*
X81421300Y-150700071D01*
X81422282Y-150821437D01*
X81428183Y-150892659D01*
X81443442Y-150927091D01*
X81472493Y-150938086D01*
X81500675Y-150938990D01*
X81536774Y-150937041D01*
X81559834Y-150923445D01*
X81572778Y-150886579D01*
X81578527Y-150814817D01*
X81580002Y-150696535D01*
X81580050Y-150623172D01*
X81580050Y-150307354D01*
X81460988Y-150310308D01*
X81369530Y-150309051D01*
X81301179Y-150302104D01*
X81295054Y-150300688D01*
X81252569Y-150315957D01*
G37*
X81252569Y-150315957D02*
X81237847Y-150355254D01*
X81244423Y-150406594D01*
X81294784Y-150434843D01*
X81324405Y-150441773D01*
X81421300Y-150461152D01*
X81421300Y-150700071D01*
X81422282Y-150821437D01*
X81428183Y-150892659D01*
X81443442Y-150927091D01*
X81472493Y-150938086D01*
X81500675Y-150938990D01*
X81536774Y-150937041D01*
X81559834Y-150923445D01*
X81572778Y-150886579D01*
X81578527Y-150814817D01*
X81580002Y-150696535D01*
X81580050Y-150623172D01*
X81580050Y-150307354D01*
X81460988Y-150310308D01*
X81369530Y-150309051D01*
X81301179Y-150302104D01*
X81295054Y-150300688D01*
X81252569Y-150315957D01*
G36*
X90125319Y-150118513D02*
G01*
X90120800Y-150148636D01*
X90141336Y-150196301D01*
X90200175Y-150208740D01*
X90262952Y-150193351D01*
X90279550Y-150147885D01*
X90261537Y-150090691D01*
X90239863Y-150073187D01*
X90167668Y-150072298D01*
X90125319Y-150118513D01*
G37*
X90125319Y-150118513D02*
X90120800Y-150148636D01*
X90141336Y-150196301D01*
X90200175Y-150208740D01*
X90262952Y-150193351D01*
X90279550Y-150147885D01*
X90261537Y-150090691D01*
X90239863Y-150073187D01*
X90167668Y-150072298D01*
X90125319Y-150118513D01*
G36*
X84918319Y-150118513D02*
G01*
X84913800Y-150148636D01*
X84934336Y-150196301D01*
X84993175Y-150208740D01*
X85055952Y-150193351D01*
X85072550Y-150147885D01*
X85054537Y-150090691D01*
X85032863Y-150073187D01*
X84960668Y-150072298D01*
X84918319Y-150118513D01*
G37*
X84918319Y-150118513D02*
X84913800Y-150148636D01*
X84934336Y-150196301D01*
X84993175Y-150208740D01*
X85055952Y-150193351D01*
X85072550Y-150147885D01*
X85054537Y-150090691D01*
X85032863Y-150073187D01*
X84960668Y-150072298D01*
X84918319Y-150118513D01*
G36*
X91613050Y-146315083D02*
G01*
X91612812Y-146562762D01*
X91611700Y-146755011D01*
X91609115Y-146899899D01*
X91604462Y-147005495D01*
X91597142Y-147079869D01*
X91586559Y-147131090D01*
X91572115Y-147167227D01*
X91553212Y-147196349D01*
X91547246Y-147204083D01*
X91511379Y-147244440D01*
X91471146Y-147269191D01*
X91410968Y-147282126D01*
X91315262Y-147287038D01*
X91203531Y-147287740D01*
X91066216Y-147286063D01*
X90976508Y-147278796D01*
X90918551Y-147262580D01*
X90876491Y-147234056D01*
X90856585Y-147214256D01*
X90835545Y-147189747D01*
X90819280Y-147161262D01*
X90807177Y-147120893D01*
X90798620Y-147060733D01*
X90792997Y-146972877D01*
X90789693Y-146849417D01*
X90788094Y-146682447D01*
X90787587Y-146464061D01*
X90787550Y-146325256D01*
X90787550Y-145509740D01*
X90374800Y-145509740D01*
X90374800Y-147262949D01*
X90579432Y-147473782D01*
X90784063Y-147684615D01*
X91158869Y-147691857D01*
X91312439Y-147692477D01*
X91447217Y-147688706D01*
X91547896Y-147681246D01*
X91597175Y-147671756D01*
X91648115Y-147636623D01*
X91726869Y-147567668D01*
X91818595Y-147478112D01*
X91843238Y-147452558D01*
X92025800Y-147260704D01*
X92025800Y-145509740D01*
X91613050Y-145509740D01*
X91613050Y-146315083D01*
G37*
X91613050Y-146315083D02*
X91612812Y-146562762D01*
X91611700Y-146755011D01*
X91609115Y-146899899D01*
X91604462Y-147005495D01*
X91597142Y-147079869D01*
X91586559Y-147131090D01*
X91572115Y-147167227D01*
X91553212Y-147196349D01*
X91547246Y-147204083D01*
X91511379Y-147244440D01*
X91471146Y-147269191D01*
X91410968Y-147282126D01*
X91315262Y-147287038D01*
X91203531Y-147287740D01*
X91066216Y-147286063D01*
X90976508Y-147278796D01*
X90918551Y-147262580D01*
X90876491Y-147234056D01*
X90856585Y-147214256D01*
X90835545Y-147189747D01*
X90819280Y-147161262D01*
X90807177Y-147120893D01*
X90798620Y-147060733D01*
X90792997Y-146972877D01*
X90789693Y-146849417D01*
X90788094Y-146682447D01*
X90787587Y-146464061D01*
X90787550Y-146325256D01*
X90787550Y-145509740D01*
X90374800Y-145509740D01*
X90374800Y-147262949D01*
X90579432Y-147473782D01*
X90784063Y-147684615D01*
X91158869Y-147691857D01*
X91312439Y-147692477D01*
X91447217Y-147688706D01*
X91547896Y-147681246D01*
X91597175Y-147671756D01*
X91648115Y-147636623D01*
X91726869Y-147567668D01*
X91818595Y-147478112D01*
X91843238Y-147452558D01*
X92025800Y-147260704D01*
X92025800Y-145509740D01*
X91613050Y-145509740D01*
X91613050Y-146315083D01*
G36*
X88191007Y-145915014D02*
G01*
X88187934Y-146079228D01*
X88188744Y-146192508D01*
X88195163Y-146267384D01*
X88208915Y-146316385D01*
X88231725Y-146352042D01*
X88254507Y-146376271D01*
X88304101Y-146413994D01*
X88399290Y-146476458D01*
X88530175Y-146557538D01*
X88686853Y-146651114D01*
X88859425Y-146751063D01*
X88874613Y-146759715D01*
X89061249Y-146866200D01*
X89199795Y-146946877D01*
X89297416Y-147007237D01*
X89361272Y-147052771D01*
X89398528Y-147088968D01*
X89416346Y-147121320D01*
X89421888Y-147155316D01*
X89422300Y-147179522D01*
X89422300Y-147287740D01*
X88181020Y-147287740D01*
X88190473Y-147486177D01*
X88199925Y-147684615D01*
X89017488Y-147693088D01*
X89835050Y-147701562D01*
X89835050Y-147293810D01*
X89834355Y-147124980D01*
X89831063Y-147007696D01*
X89823364Y-146930008D01*
X89809450Y-146879965D01*
X89787511Y-146845620D01*
X89763613Y-146821995D01*
X89713134Y-146785693D01*
X89617757Y-146725020D01*
X89488098Y-146646432D01*
X89334773Y-146556386D01*
X89200050Y-146479217D01*
X89036868Y-146385858D01*
X88890086Y-146300119D01*
X88769889Y-146228087D01*
X88686460Y-146175850D01*
X88652363Y-146151825D01*
X88610612Y-146084596D01*
X88596800Y-146013519D01*
X88596800Y-145923891D01*
X89192113Y-145915253D01*
X89787425Y-145906615D01*
X89787425Y-145525615D01*
X88199925Y-145525615D01*
X88191007Y-145915014D01*
G37*
X88191007Y-145915014D02*
X88187934Y-146079228D01*
X88188744Y-146192508D01*
X88195163Y-146267384D01*
X88208915Y-146316385D01*
X88231725Y-146352042D01*
X88254507Y-146376271D01*
X88304101Y-146413994D01*
X88399290Y-146476458D01*
X88530175Y-146557538D01*
X88686853Y-146651114D01*
X88859425Y-146751063D01*
X88874613Y-146759715D01*
X89061249Y-146866200D01*
X89199795Y-146946877D01*
X89297416Y-147007237D01*
X89361272Y-147052771D01*
X89398528Y-147088968D01*
X89416346Y-147121320D01*
X89421888Y-147155316D01*
X89422300Y-147179522D01*
X89422300Y-147287740D01*
X88181020Y-147287740D01*
X88190473Y-147486177D01*
X88199925Y-147684615D01*
X89017488Y-147693088D01*
X89835050Y-147701562D01*
X89835050Y-147293810D01*
X89834355Y-147124980D01*
X89831063Y-147007696D01*
X89823364Y-146930008D01*
X89809450Y-146879965D01*
X89787511Y-146845620D01*
X89763613Y-146821995D01*
X89713134Y-146785693D01*
X89617757Y-146725020D01*
X89488098Y-146646432D01*
X89334773Y-146556386D01*
X89200050Y-146479217D01*
X89036868Y-146385858D01*
X88890086Y-146300119D01*
X88769889Y-146228087D01*
X88686460Y-146175850D01*
X88652363Y-146151825D01*
X88610612Y-146084596D01*
X88596800Y-146013519D01*
X88596800Y-145923891D01*
X89192113Y-145915253D01*
X89787425Y-145906615D01*
X89787425Y-145525615D01*
X88199925Y-145525615D01*
X88191007Y-145915014D01*
G36*
X84708465Y-145516099D02*
G01*
X83931629Y-145525615D01*
X83755965Y-145699155D01*
X83580300Y-145872695D01*
X83580300Y-146516528D01*
X83753025Y-146679884D01*
X83847500Y-146760987D01*
X83932058Y-146819105D01*
X83990362Y-146843123D01*
X83993092Y-146843240D01*
X84021097Y-146848864D01*
X84023664Y-146871827D01*
X83996609Y-146921265D01*
X83935750Y-147006312D01*
X83891805Y-147064430D01*
X83808867Y-147170962D01*
X83749773Y-147236390D01*
X83700768Y-147270784D01*
X83648100Y-147284212D01*
X83588238Y-147286680D01*
X83453300Y-147287740D01*
X83453300Y-147700490D01*
X83887634Y-147700490D01*
X84225958Y-147271865D01*
X84349073Y-147116460D01*
X84440533Y-147004044D01*
X84507894Y-146927658D01*
X84558713Y-146880343D01*
X84600546Y-146855141D01*
X84640950Y-146845094D01*
X84687481Y-146843242D01*
X84691417Y-146843240D01*
X84818550Y-146843240D01*
X84818550Y-147700490D01*
X85003759Y-147700490D01*
X85107137Y-147697116D01*
X85183113Y-147688388D01*
X85210134Y-147679323D01*
X85215693Y-147643208D01*
X85220705Y-147551990D01*
X85224972Y-147414068D01*
X85228293Y-147237836D01*
X85230468Y-147031692D01*
X85231298Y-146804033D01*
X85231300Y-146790323D01*
X85231300Y-145922490D01*
X84818550Y-145922490D01*
X84818550Y-146171198D01*
X84816018Y-146291327D01*
X84809309Y-146385629D01*
X84799751Y-146437149D01*
X84797384Y-146441073D01*
X84752228Y-146454273D01*
X84660289Y-146461612D01*
X84537965Y-146463593D01*
X84401653Y-146460721D01*
X84267751Y-146453501D01*
X84152657Y-146442437D01*
X84072768Y-146428033D01*
X84048613Y-146418042D01*
X84016970Y-146362222D01*
X83997487Y-146266943D01*
X83991045Y-146155238D01*
X83998522Y-146050138D01*
X84020797Y-145974674D01*
X84031151Y-145960589D01*
X84085820Y-145940922D01*
X84203204Y-145928301D01*
X84382905Y-145922765D01*
X84443901Y-145922490D01*
X84818550Y-145922490D01*
X85231300Y-145922490D01*
X85485300Y-145922490D01*
X85485300Y-145506584D01*
X84708465Y-145516099D01*
G37*
X84708465Y-145516099D02*
X83931629Y-145525615D01*
X83755965Y-145699155D01*
X83580300Y-145872695D01*
X83580300Y-146516528D01*
X83753025Y-146679884D01*
X83847500Y-146760987D01*
X83932058Y-146819105D01*
X83990362Y-146843123D01*
X83993092Y-146843240D01*
X84021097Y-146848864D01*
X84023664Y-146871827D01*
X83996609Y-146921265D01*
X83935750Y-147006312D01*
X83891805Y-147064430D01*
X83808867Y-147170962D01*
X83749773Y-147236390D01*
X83700768Y-147270784D01*
X83648100Y-147284212D01*
X83588238Y-147286680D01*
X83453300Y-147287740D01*
X83453300Y-147700490D01*
X83887634Y-147700490D01*
X84225958Y-147271865D01*
X84349073Y-147116460D01*
X84440533Y-147004044D01*
X84507894Y-146927658D01*
X84558713Y-146880343D01*
X84600546Y-146855141D01*
X84640950Y-146845094D01*
X84687481Y-146843242D01*
X84691417Y-146843240D01*
X84818550Y-146843240D01*
X84818550Y-147700490D01*
X85003759Y-147700490D01*
X85107137Y-147697116D01*
X85183113Y-147688388D01*
X85210134Y-147679323D01*
X85215693Y-147643208D01*
X85220705Y-147551990D01*
X85224972Y-147414068D01*
X85228293Y-147237836D01*
X85230468Y-147031692D01*
X85231298Y-146804033D01*
X85231300Y-146790323D01*
X85231300Y-145922490D01*
X84818550Y-145922490D01*
X84818550Y-146171198D01*
X84816018Y-146291327D01*
X84809309Y-146385629D01*
X84799751Y-146437149D01*
X84797384Y-146441073D01*
X84752228Y-146454273D01*
X84660289Y-146461612D01*
X84537965Y-146463593D01*
X84401653Y-146460721D01*
X84267751Y-146453501D01*
X84152657Y-146442437D01*
X84072768Y-146428033D01*
X84048613Y-146418042D01*
X84016970Y-146362222D01*
X83997487Y-146266943D01*
X83991045Y-146155238D01*
X83998522Y-146050138D01*
X84020797Y-145974674D01*
X84031151Y-145960589D01*
X84085820Y-145940922D01*
X84203204Y-145928301D01*
X84382905Y-145922765D01*
X84443901Y-145922490D01*
X84818550Y-145922490D01*
X85231300Y-145922490D01*
X85485300Y-145922490D01*
X85485300Y-145506584D01*
X84708465Y-145516099D01*
G36*
X81262550Y-147700490D02*
G01*
X81800378Y-147700490D01*
X81905901Y-147470302D01*
X81952759Y-147365388D01*
X82017678Y-147216287D01*
X82094434Y-147037487D01*
X82176803Y-146843473D01*
X82248175Y-146673605D01*
X82484925Y-146107096D01*
X82501891Y-147700490D01*
X82692842Y-147700490D01*
X82818249Y-147693626D01*
X82887464Y-147673586D01*
X82899116Y-147660560D01*
X82902551Y-147620196D01*
X82905217Y-147524115D01*
X82907062Y-147380100D01*
X82908039Y-147195930D01*
X82908095Y-146979385D01*
X82907184Y-146738247D01*
X82906057Y-146573123D01*
X82897675Y-145525615D01*
X82332956Y-145525615D01*
X82006603Y-146282495D01*
X81918033Y-146487007D01*
X81837188Y-146671977D01*
X81767590Y-146829479D01*
X81712763Y-146951590D01*
X81676230Y-147030386D01*
X81661900Y-147057724D01*
X81656864Y-147032589D01*
X81652357Y-146952249D01*
X81648576Y-146824996D01*
X81645721Y-146659123D01*
X81643991Y-146462923D01*
X81643550Y-146292906D01*
X81643550Y-145509740D01*
X81262550Y-145509740D01*
X81262550Y-147700490D01*
G37*
X81262550Y-147700490D02*
X81800378Y-147700490D01*
X81905901Y-147470302D01*
X81952759Y-147365388D01*
X82017678Y-147216287D01*
X82094434Y-147037487D01*
X82176803Y-146843473D01*
X82248175Y-146673605D01*
X82484925Y-146107096D01*
X82501891Y-147700490D01*
X82692842Y-147700490D01*
X82818249Y-147693626D01*
X82887464Y-147673586D01*
X82899116Y-147660560D01*
X82902551Y-147620196D01*
X82905217Y-147524115D01*
X82907062Y-147380100D01*
X82908039Y-147195930D01*
X82908095Y-146979385D01*
X82907184Y-146738247D01*
X82906057Y-146573123D01*
X82897675Y-145525615D01*
X82332956Y-145525615D01*
X82006603Y-146282495D01*
X81918033Y-146487007D01*
X81837188Y-146671977D01*
X81767590Y-146829479D01*
X81712763Y-146951590D01*
X81676230Y-147030386D01*
X81661900Y-147057724D01*
X81656864Y-147032589D01*
X81652357Y-146952249D01*
X81648576Y-146824996D01*
X81645721Y-146659123D01*
X81643991Y-146462923D01*
X81643550Y-146292906D01*
X81643550Y-145509740D01*
X81262550Y-145509740D01*
X81262550Y-147700490D01*
G36*
X93486300Y-147287740D02*
G01*
X92470300Y-147287740D01*
X92470300Y-147668740D01*
X93899050Y-147668740D01*
X93899050Y-145509740D01*
X93486300Y-145509740D01*
X93486300Y-147287740D01*
G37*
X93486300Y-147287740D02*
X92470300Y-147287740D01*
X92470300Y-147668740D01*
X93899050Y-147668740D01*
X93899050Y-145509740D01*
X93486300Y-145509740D01*
X93486300Y-147287740D01*
G36*
X85961550Y-145890740D02*
G01*
X87009300Y-145890740D01*
X87009300Y-146398740D01*
X86247300Y-146398740D01*
X86247300Y-146779740D01*
X87009300Y-146779740D01*
X87009300Y-147255990D01*
X85961550Y-147255990D01*
X85961550Y-147668740D01*
X87422050Y-147668740D01*
X87422050Y-145890740D01*
X87676050Y-145890740D01*
X87676050Y-145509740D01*
X85961550Y-145509740D01*
X85961550Y-145890740D01*
G37*
X85961550Y-145890740D02*
X87009300Y-145890740D01*
X87009300Y-146398740D01*
X86247300Y-146398740D01*
X86247300Y-146779740D01*
X87009300Y-146779740D01*
X87009300Y-147255990D01*
X85961550Y-147255990D01*
X85961550Y-147668740D01*
X87422050Y-147668740D01*
X87422050Y-145890740D01*
X87676050Y-145890740D01*
X87676050Y-145509740D01*
X85961550Y-145509740D01*
X85961550Y-145890740D01*
G36*
X90331936Y-142280500D02*
G01*
X90217966Y-142293690D01*
X90182711Y-142303648D01*
X90117819Y-142344346D01*
X90028407Y-142417915D01*
X89932052Y-142509685D01*
X89916341Y-142525941D01*
X89739800Y-142711025D01*
X89739800Y-144024449D01*
X89944430Y-144235282D01*
X90149059Y-144446115D01*
X90634992Y-144453167D01*
X90808836Y-144453910D01*
X90963862Y-144451260D01*
X91087238Y-144445685D01*
X91166129Y-144437654D01*
X91184425Y-144433066D01*
X91235361Y-144398025D01*
X91314108Y-144329143D01*
X91405827Y-144239628D01*
X91430488Y-144214058D01*
X91613050Y-144022204D01*
X91613050Y-143366615D01*
X91200300Y-143366615D01*
X91200039Y-143555895D01*
X91198216Y-143692497D01*
X91193276Y-143787242D01*
X91183666Y-143850953D01*
X91167828Y-143894450D01*
X91144207Y-143928556D01*
X91114985Y-143960190D01*
X91075004Y-143999177D01*
X91035219Y-144024717D01*
X90981765Y-144039652D01*
X90900776Y-144046823D01*
X90778386Y-144049071D01*
X90680469Y-144049240D01*
X90524083Y-144048080D01*
X90417558Y-144043117D01*
X90347277Y-144032128D01*
X90299620Y-144012887D01*
X90260970Y-143983171D01*
X90257784Y-143980205D01*
X90230980Y-143952492D01*
X90211637Y-143920770D01*
X90198539Y-143874967D01*
X90190472Y-143805011D01*
X90186220Y-143700829D01*
X90184568Y-143552350D01*
X90184300Y-143371064D01*
X90184722Y-143145625D01*
X90189744Y-142975805D01*
X90205001Y-142853729D01*
X90236127Y-142771526D01*
X90288757Y-142721321D01*
X90368526Y-142695241D01*
X90481068Y-142685414D01*
X90632018Y-142683965D01*
X90676020Y-142683990D01*
X90830639Y-142684635D01*
X90935495Y-142688429D01*
X91004325Y-142698159D01*
X91050865Y-142716610D01*
X91088850Y-142746570D01*
X91114985Y-142773039D01*
X91146946Y-142807949D01*
X91169724Y-142842503D01*
X91184874Y-142887525D01*
X91193951Y-142953835D01*
X91198511Y-143052255D01*
X91200109Y-143193608D01*
X91200300Y-143366615D01*
X91613050Y-143366615D01*
X91613050Y-142708780D01*
X91408423Y-142497947D01*
X91203796Y-142287115D01*
X90738167Y-142276777D01*
X90505989Y-142274831D01*
X90331936Y-142280500D01*
G37*
X90331936Y-142280500D02*
X90217966Y-142293690D01*
X90182711Y-142303648D01*
X90117819Y-142344346D01*
X90028407Y-142417915D01*
X89932052Y-142509685D01*
X89916341Y-142525941D01*
X89739800Y-142711025D01*
X89739800Y-144024449D01*
X89944430Y-144235282D01*
X90149059Y-144446115D01*
X90634992Y-144453167D01*
X90808836Y-144453910D01*
X90963862Y-144451260D01*
X91087238Y-144445685D01*
X91166129Y-144437654D01*
X91184425Y-144433066D01*
X91235361Y-144398025D01*
X91314108Y-144329143D01*
X91405827Y-144239628D01*
X91430488Y-144214058D01*
X91613050Y-144022204D01*
X91613050Y-143366615D01*
X91200300Y-143366615D01*
X91200039Y-143555895D01*
X91198216Y-143692497D01*
X91193276Y-143787242D01*
X91183666Y-143850953D01*
X91167828Y-143894450D01*
X91144207Y-143928556D01*
X91114985Y-143960190D01*
X91075004Y-143999177D01*
X91035219Y-144024717D01*
X90981765Y-144039652D01*
X90900776Y-144046823D01*
X90778386Y-144049071D01*
X90680469Y-144049240D01*
X90524083Y-144048080D01*
X90417558Y-144043117D01*
X90347277Y-144032128D01*
X90299620Y-144012887D01*
X90260970Y-143983171D01*
X90257784Y-143980205D01*
X90230980Y-143952492D01*
X90211637Y-143920770D01*
X90198539Y-143874967D01*
X90190472Y-143805011D01*
X90186220Y-143700829D01*
X90184568Y-143552350D01*
X90184300Y-143371064D01*
X90184722Y-143145625D01*
X90189744Y-142975805D01*
X90205001Y-142853729D01*
X90236127Y-142771526D01*
X90288757Y-142721321D01*
X90368526Y-142695241D01*
X90481068Y-142685414D01*
X90632018Y-142683965D01*
X90676020Y-142683990D01*
X90830639Y-142684635D01*
X90935495Y-142688429D01*
X91004325Y-142698159D01*
X91050865Y-142716610D01*
X91088850Y-142746570D01*
X91114985Y-142773039D01*
X91146946Y-142807949D01*
X91169724Y-142842503D01*
X91184874Y-142887525D01*
X91193951Y-142953835D01*
X91198511Y-143052255D01*
X91200109Y-143193608D01*
X91200300Y-143366615D01*
X91613050Y-143366615D01*
X91613050Y-142708780D01*
X91408423Y-142497947D01*
X91203796Y-142287115D01*
X90738167Y-142276777D01*
X90505989Y-142274831D01*
X90331936Y-142280500D01*
G36*
X88188066Y-142271926D02*
G01*
X88075674Y-142275717D01*
X87998172Y-142285209D01*
X87941257Y-142302999D01*
X87890626Y-142331684D01*
X87847502Y-142362401D01*
X87750183Y-142440489D01*
X87658546Y-142524028D01*
X87636566Y-142546489D01*
X87549456Y-142639416D01*
X87692043Y-142779355D01*
X87834630Y-142919293D01*
X87955116Y-142801641D01*
X88075603Y-142683990D01*
X88362417Y-142683990D01*
X88501975Y-142685541D01*
X88593552Y-142692329D01*
X88652632Y-142707549D01*
X88694702Y-142734401D01*
X88718266Y-142757473D01*
X88743524Y-142787796D01*
X88761742Y-142823468D01*
X88774064Y-142874660D01*
X88781636Y-142951540D01*
X88785600Y-143064279D01*
X88787102Y-143223046D01*
X88787300Y-143371064D01*
X88786956Y-143568397D01*
X88785113Y-143712303D01*
X88780555Y-143812854D01*
X88772068Y-143880123D01*
X88758437Y-143924181D01*
X88738447Y-143955100D01*
X88713817Y-143980205D01*
X88669967Y-144014055D01*
X88616065Y-144034753D01*
X88536205Y-144045386D01*
X88414480Y-144049039D01*
X88357968Y-144049240D01*
X88075603Y-144049240D01*
X87955116Y-143931588D01*
X87834630Y-143813936D01*
X87691778Y-143954135D01*
X87548925Y-144094333D01*
X87683925Y-144233083D01*
X87777172Y-144324315D01*
X87858889Y-144387513D01*
X87944172Y-144427729D01*
X88048116Y-144450015D01*
X88185817Y-144459423D01*
X88365036Y-144461024D01*
X88522496Y-144457735D01*
X88658349Y-144449508D01*
X88757921Y-144437540D01*
X88803175Y-144425264D01*
X88857169Y-144386264D01*
X88938590Y-144316921D01*
X89030154Y-144231983D01*
X89033363Y-144228877D01*
X89200050Y-144067284D01*
X89200050Y-142665945D01*
X89033363Y-142503980D01*
X88940816Y-142418358D01*
X88856585Y-142347809D01*
X88798484Y-142307229D01*
X88797325Y-142306627D01*
X88736815Y-142291944D01*
X88627030Y-142280423D01*
X88482165Y-142273188D01*
X88349652Y-142271240D01*
X88188066Y-142271926D01*
G37*
X88188066Y-142271926D02*
X88075674Y-142275717D01*
X87998172Y-142285209D01*
X87941257Y-142302999D01*
X87890626Y-142331684D01*
X87847502Y-142362401D01*
X87750183Y-142440489D01*
X87658546Y-142524028D01*
X87636566Y-142546489D01*
X87549456Y-142639416D01*
X87692043Y-142779355D01*
X87834630Y-142919293D01*
X87955116Y-142801641D01*
X88075603Y-142683990D01*
X88362417Y-142683990D01*
X88501975Y-142685541D01*
X88593552Y-142692329D01*
X88652632Y-142707549D01*
X88694702Y-142734401D01*
X88718266Y-142757473D01*
X88743524Y-142787796D01*
X88761742Y-142823468D01*
X88774064Y-142874660D01*
X88781636Y-142951540D01*
X88785600Y-143064279D01*
X88787102Y-143223046D01*
X88787300Y-143371064D01*
X88786956Y-143568397D01*
X88785113Y-143712303D01*
X88780555Y-143812854D01*
X88772068Y-143880123D01*
X88758437Y-143924181D01*
X88738447Y-143955100D01*
X88713817Y-143980205D01*
X88669967Y-144014055D01*
X88616065Y-144034753D01*
X88536205Y-144045386D01*
X88414480Y-144049039D01*
X88357968Y-144049240D01*
X88075603Y-144049240D01*
X87955116Y-143931588D01*
X87834630Y-143813936D01*
X87691778Y-143954135D01*
X87548925Y-144094333D01*
X87683925Y-144233083D01*
X87777172Y-144324315D01*
X87858889Y-144387513D01*
X87944172Y-144427729D01*
X88048116Y-144450015D01*
X88185817Y-144459423D01*
X88365036Y-144461024D01*
X88522496Y-144457735D01*
X88658349Y-144449508D01*
X88757921Y-144437540D01*
X88803175Y-144425264D01*
X88857169Y-144386264D01*
X88938590Y-144316921D01*
X89030154Y-144231983D01*
X89033363Y-144228877D01*
X89200050Y-144067284D01*
X89200050Y-142665945D01*
X89033363Y-142503980D01*
X88940816Y-142418358D01*
X88856585Y-142347809D01*
X88798484Y-142307229D01*
X88797325Y-142306627D01*
X88736815Y-142291944D01*
X88627030Y-142280423D01*
X88482165Y-142273188D01*
X88349652Y-142271240D01*
X88188066Y-142271926D01*
G36*
X83743030Y-142272891D02*
G01*
X83599058Y-142280709D01*
X83491177Y-142298990D01*
X83405697Y-142332027D01*
X83328927Y-142384117D01*
X83247176Y-142459555D01*
X83207175Y-142500146D01*
X83072175Y-142638896D01*
X83215028Y-142779094D01*
X83357880Y-142919293D01*
X83478366Y-142801641D01*
X83598853Y-142683990D01*
X83933292Y-142683990D01*
X84084671Y-142685062D01*
X84186415Y-142689960D01*
X84252378Y-142701207D01*
X84296412Y-142721327D01*
X84332369Y-142752841D01*
X84336766Y-142757473D01*
X84392941Y-142856659D01*
X84405800Y-142960315D01*
X84406986Y-143005058D01*
X84405463Y-143039251D01*
X84393607Y-143065440D01*
X84363798Y-143086168D01*
X84308413Y-143103981D01*
X84219829Y-143121424D01*
X84090426Y-143141040D01*
X83912580Y-143165374D01*
X83709531Y-143192770D01*
X83536231Y-143217756D01*
X83382153Y-143242637D01*
X83259728Y-143265202D01*
X83181392Y-143283241D01*
X83162173Y-143290118D01*
X83085967Y-143360580D01*
X83036419Y-143478660D01*
X83012033Y-143648954D01*
X83008800Y-143761623D01*
X83008800Y-144016910D01*
X83212037Y-144231512D01*
X83415273Y-144446115D01*
X83934349Y-144453121D01*
X84113847Y-144453841D01*
X84274537Y-144451304D01*
X84404127Y-144445950D01*
X84490328Y-144438219D01*
X84516925Y-144432282D01*
X84570530Y-144396076D01*
X84649965Y-144327954D01*
X84737831Y-144242866D01*
X84895237Y-144081296D01*
X84771075Y-143954143D01*
X84696854Y-143884095D01*
X84636761Y-143837913D01*
X84611960Y-143826990D01*
X84570968Y-143848169D01*
X84506215Y-143901996D01*
X84469300Y-143938115D01*
X84361594Y-144049240D01*
X83976482Y-144049240D01*
X83812996Y-144048472D01*
X83700443Y-144044815D01*
X83626265Y-144036236D01*
X83577900Y-144020703D01*
X83542788Y-143996183D01*
X83522335Y-143975756D01*
X83466913Y-143879111D01*
X83453300Y-143770819D01*
X83452409Y-143721977D01*
X83455284Y-143685612D01*
X83470248Y-143658687D01*
X83505622Y-143638162D01*
X83569731Y-143620998D01*
X83670896Y-143604158D01*
X83817440Y-143584602D01*
X84017686Y-143559292D01*
X84040675Y-143556367D01*
X84274464Y-143524835D01*
X84452902Y-143496224D01*
X84583947Y-143468528D01*
X84675558Y-143439740D01*
X84735693Y-143407855D01*
X84771428Y-143372138D01*
X84796047Y-143313159D01*
X84811145Y-143214750D01*
X84817909Y-143067165D01*
X84818550Y-142985294D01*
X84818550Y-142665727D01*
X84667738Y-142520761D01*
X84566180Y-142424605D01*
X84484944Y-142356999D01*
X84409297Y-142312914D01*
X84324508Y-142287322D01*
X84215844Y-142275193D01*
X84068575Y-142271500D01*
X83936784Y-142271240D01*
X83743030Y-142272891D01*
G37*
X83743030Y-142272891D02*
X83599058Y-142280709D01*
X83491177Y-142298990D01*
X83405697Y-142332027D01*
X83328927Y-142384117D01*
X83247176Y-142459555D01*
X83207175Y-142500146D01*
X83072175Y-142638896D01*
X83215028Y-142779094D01*
X83357880Y-142919293D01*
X83478366Y-142801641D01*
X83598853Y-142683990D01*
X83933292Y-142683990D01*
X84084671Y-142685062D01*
X84186415Y-142689960D01*
X84252378Y-142701207D01*
X84296412Y-142721327D01*
X84332369Y-142752841D01*
X84336766Y-142757473D01*
X84392941Y-142856659D01*
X84405800Y-142960315D01*
X84406986Y-143005058D01*
X84405463Y-143039251D01*
X84393607Y-143065440D01*
X84363798Y-143086168D01*
X84308413Y-143103981D01*
X84219829Y-143121424D01*
X84090426Y-143141040D01*
X83912580Y-143165374D01*
X83709531Y-143192770D01*
X83536231Y-143217756D01*
X83382153Y-143242637D01*
X83259728Y-143265202D01*
X83181392Y-143283241D01*
X83162173Y-143290118D01*
X83085967Y-143360580D01*
X83036419Y-143478660D01*
X83012033Y-143648954D01*
X83008800Y-143761623D01*
X83008800Y-144016910D01*
X83212037Y-144231512D01*
X83415273Y-144446115D01*
X83934349Y-144453121D01*
X84113847Y-144453841D01*
X84274537Y-144451304D01*
X84404127Y-144445950D01*
X84490328Y-144438219D01*
X84516925Y-144432282D01*
X84570530Y-144396076D01*
X84649965Y-144327954D01*
X84737831Y-144242866D01*
X84895237Y-144081296D01*
X84771075Y-143954143D01*
X84696854Y-143884095D01*
X84636761Y-143837913D01*
X84611960Y-143826990D01*
X84570968Y-143848169D01*
X84506215Y-143901996D01*
X84469300Y-143938115D01*
X84361594Y-144049240D01*
X83976482Y-144049240D01*
X83812996Y-144048472D01*
X83700443Y-144044815D01*
X83626265Y-144036236D01*
X83577900Y-144020703D01*
X83542788Y-143996183D01*
X83522335Y-143975756D01*
X83466913Y-143879111D01*
X83453300Y-143770819D01*
X83452409Y-143721977D01*
X83455284Y-143685612D01*
X83470248Y-143658687D01*
X83505622Y-143638162D01*
X83569731Y-143620998D01*
X83670896Y-143604158D01*
X83817440Y-143584602D01*
X84017686Y-143559292D01*
X84040675Y-143556367D01*
X84274464Y-143524835D01*
X84452902Y-143496224D01*
X84583947Y-143468528D01*
X84675558Y-143439740D01*
X84735693Y-143407855D01*
X84771428Y-143372138D01*
X84796047Y-143313159D01*
X84811145Y-143214750D01*
X84817909Y-143067165D01*
X84818550Y-142985294D01*
X84818550Y-142665727D01*
X84667738Y-142520761D01*
X84566180Y-142424605D01*
X84484944Y-142356999D01*
X84409297Y-142312914D01*
X84324508Y-142287322D01*
X84215844Y-142275193D01*
X84068575Y-142271500D01*
X83936784Y-142271240D01*
X83743030Y-142272891D01*
G36*
X81520566Y-142271926D02*
G01*
X81408174Y-142275717D01*
X81330672Y-142285209D01*
X81273757Y-142302999D01*
X81223126Y-142331684D01*
X81180002Y-142362401D01*
X81082683Y-142440489D01*
X80991046Y-142524028D01*
X80969066Y-142546489D01*
X80881956Y-142639416D01*
X81024543Y-142779355D01*
X81167130Y-142919293D01*
X81287616Y-142801641D01*
X81408103Y-142683990D01*
X81694917Y-142683990D01*
X81834475Y-142685541D01*
X81926052Y-142692329D01*
X81985132Y-142707549D01*
X82027202Y-142734401D01*
X82050766Y-142757473D01*
X82076024Y-142787796D01*
X82094242Y-142823468D01*
X82106564Y-142874660D01*
X82114136Y-142951540D01*
X82118100Y-143064279D01*
X82119602Y-143223046D01*
X82119800Y-143371064D01*
X82119456Y-143568397D01*
X82117613Y-143712303D01*
X82113055Y-143812854D01*
X82104568Y-143880123D01*
X82090937Y-143924181D01*
X82070947Y-143955100D01*
X82046317Y-143980205D01*
X82002467Y-144014055D01*
X81948565Y-144034753D01*
X81868705Y-144045386D01*
X81746980Y-144049039D01*
X81690468Y-144049240D01*
X81408103Y-144049240D01*
X81287616Y-143931588D01*
X81167130Y-143813936D01*
X81024278Y-143954135D01*
X80881425Y-144094333D01*
X81016425Y-144233083D01*
X81109672Y-144324315D01*
X81191389Y-144387513D01*
X81276672Y-144427729D01*
X81380616Y-144450015D01*
X81518317Y-144459423D01*
X81697536Y-144461024D01*
X81854996Y-144457735D01*
X81990849Y-144449508D01*
X82090421Y-144437540D01*
X82135675Y-144425264D01*
X82189669Y-144386264D01*
X82271090Y-144316921D01*
X82362654Y-144231983D01*
X82365863Y-144228877D01*
X82532550Y-144067284D01*
X82532550Y-142665945D01*
X82365863Y-142503980D01*
X82273316Y-142418358D01*
X82189085Y-142347809D01*
X82130984Y-142307229D01*
X82129825Y-142306627D01*
X82069315Y-142291944D01*
X81959530Y-142280423D01*
X81814665Y-142273188D01*
X81682152Y-142271240D01*
X81520566Y-142271926D01*
G37*
X81520566Y-142271926D02*
X81408174Y-142275717D01*
X81330672Y-142285209D01*
X81273757Y-142302999D01*
X81223126Y-142331684D01*
X81180002Y-142362401D01*
X81082683Y-142440489D01*
X80991046Y-142524028D01*
X80969066Y-142546489D01*
X80881956Y-142639416D01*
X81024543Y-142779355D01*
X81167130Y-142919293D01*
X81287616Y-142801641D01*
X81408103Y-142683990D01*
X81694917Y-142683990D01*
X81834475Y-142685541D01*
X81926052Y-142692329D01*
X81985132Y-142707549D01*
X82027202Y-142734401D01*
X82050766Y-142757473D01*
X82076024Y-142787796D01*
X82094242Y-142823468D01*
X82106564Y-142874660D01*
X82114136Y-142951540D01*
X82118100Y-143064279D01*
X82119602Y-143223046D01*
X82119800Y-143371064D01*
X82119456Y-143568397D01*
X82117613Y-143712303D01*
X82113055Y-143812854D01*
X82104568Y-143880123D01*
X82090937Y-143924181D01*
X82070947Y-143955100D01*
X82046317Y-143980205D01*
X82002467Y-144014055D01*
X81948565Y-144034753D01*
X81868705Y-144045386D01*
X81746980Y-144049039D01*
X81690468Y-144049240D01*
X81408103Y-144049240D01*
X81287616Y-143931588D01*
X81167130Y-143813936D01*
X81024278Y-143954135D01*
X80881425Y-144094333D01*
X81016425Y-144233083D01*
X81109672Y-144324315D01*
X81191389Y-144387513D01*
X81276672Y-144427729D01*
X81380616Y-144450015D01*
X81518317Y-144459423D01*
X81697536Y-144461024D01*
X81854996Y-144457735D01*
X81990849Y-144449508D01*
X82090421Y-144437540D01*
X82135675Y-144425264D01*
X82189669Y-144386264D01*
X82271090Y-144316921D01*
X82362654Y-144231983D01*
X82365863Y-144228877D01*
X82532550Y-144067284D01*
X82532550Y-142665945D01*
X82365863Y-142503980D01*
X82273316Y-142418358D01*
X82189085Y-142347809D01*
X82130984Y-142307229D01*
X82129825Y-142306627D01*
X82069315Y-142291944D01*
X81959530Y-142280423D01*
X81814665Y-142273188D01*
X81682152Y-142271240D01*
X81520566Y-142271926D01*
G36*
X77642047Y-143072927D02*
G01*
X77641044Y-143874615D01*
X77564195Y-143961927D01*
X77522079Y-144004875D01*
X77477660Y-144030821D01*
X77414237Y-144044017D01*
X77315109Y-144048721D01*
X77221483Y-144049240D01*
X77087212Y-144047370D01*
X76999996Y-144039363D01*
X76943439Y-144021621D01*
X76901146Y-143990547D01*
X76886585Y-143975756D01*
X76865545Y-143951247D01*
X76849280Y-143922762D01*
X76837177Y-143882393D01*
X76828620Y-143822233D01*
X76822997Y-143734377D01*
X76819693Y-143610917D01*
X76818094Y-143443947D01*
X76817587Y-143225561D01*
X76817550Y-143086756D01*
X76817550Y-142271240D01*
X76404800Y-142271240D01*
X76404800Y-144051960D01*
X76554614Y-144212122D01*
X76655355Y-144314708D01*
X76742221Y-144384651D01*
X76831502Y-144428000D01*
X76939490Y-144450804D01*
X77082476Y-144459112D01*
X77220786Y-144459483D01*
X77365995Y-144456935D01*
X77490304Y-144452006D01*
X77578272Y-144445470D01*
X77611300Y-144439913D01*
X77654685Y-144410908D01*
X77729219Y-144348307D01*
X77821410Y-144263675D01*
X77857363Y-144229024D01*
X78055800Y-144035199D01*
X78055800Y-142271240D01*
X77643050Y-142271240D01*
X77642047Y-143072927D01*
G37*
X77642047Y-143072927D02*
X77641044Y-143874615D01*
X77564195Y-143961927D01*
X77522079Y-144004875D01*
X77477660Y-144030821D01*
X77414237Y-144044017D01*
X77315109Y-144048721D01*
X77221483Y-144049240D01*
X77087212Y-144047370D01*
X76999996Y-144039363D01*
X76943439Y-144021621D01*
X76901146Y-143990547D01*
X76886585Y-143975756D01*
X76865545Y-143951247D01*
X76849280Y-143922762D01*
X76837177Y-143882393D01*
X76828620Y-143822233D01*
X76822997Y-143734377D01*
X76819693Y-143610917D01*
X76818094Y-143443947D01*
X76817587Y-143225561D01*
X76817550Y-143086756D01*
X76817550Y-142271240D01*
X76404800Y-142271240D01*
X76404800Y-144051960D01*
X76554614Y-144212122D01*
X76655355Y-144314708D01*
X76742221Y-144384651D01*
X76831502Y-144428000D01*
X76939490Y-144450804D01*
X77082476Y-144459112D01*
X77220786Y-144459483D01*
X77365995Y-144456935D01*
X77490304Y-144452006D01*
X77578272Y-144445470D01*
X77611300Y-144439913D01*
X77654685Y-144410908D01*
X77729219Y-144348307D01*
X77821410Y-144263675D01*
X77857363Y-144229024D01*
X78055800Y-144035199D01*
X78055800Y-142271240D01*
X77643050Y-142271240D01*
X77642047Y-143072927D01*
G36*
X93486300Y-143160240D02*
G01*
X92660800Y-143160240D01*
X92660800Y-142271240D01*
X92248050Y-142271240D01*
X92248050Y-144430240D01*
X92660800Y-144430240D01*
X92660800Y-143541240D01*
X93486300Y-143541240D01*
X93486300Y-144430240D01*
X93899050Y-144430240D01*
X93899050Y-142271240D01*
X93486300Y-142271240D01*
X93486300Y-143160240D01*
G37*
X93486300Y-143160240D02*
X92660800Y-143160240D01*
X92660800Y-142271240D01*
X92248050Y-142271240D01*
X92248050Y-144430240D01*
X92660800Y-144430240D01*
X92660800Y-143541240D01*
X93486300Y-143541240D01*
X93486300Y-144430240D01*
X93899050Y-144430240D01*
X93899050Y-142271240D01*
X93486300Y-142271240D01*
X93486300Y-143160240D01*
G36*
X86691800Y-143160240D02*
G01*
X85866300Y-143160240D01*
X85866300Y-142271240D01*
X85421800Y-142271240D01*
X85421800Y-144430240D01*
X85866300Y-144430240D01*
X85866300Y-143541240D01*
X86691800Y-143541240D01*
X86691800Y-144430240D01*
X87072800Y-144430240D01*
X87072800Y-142271240D01*
X86691800Y-142271240D01*
X86691800Y-143160240D01*
G37*
X86691800Y-143160240D02*
X85866300Y-143160240D01*
X85866300Y-142271240D01*
X85421800Y-142271240D01*
X85421800Y-144430240D01*
X85866300Y-144430240D01*
X85866300Y-143541240D01*
X86691800Y-143541240D01*
X86691800Y-144430240D01*
X87072800Y-144430240D01*
X87072800Y-142271240D01*
X86691800Y-142271240D01*
X86691800Y-143160240D01*
G36*
X79992550Y-143160240D02*
G01*
X79167050Y-143160240D01*
X79167050Y-142271240D01*
X78754300Y-142271240D01*
X78754300Y-144430240D01*
X79167050Y-144430240D01*
X79167050Y-143541240D01*
X79992550Y-143541240D01*
X79992550Y-144430240D01*
X80405300Y-144430240D01*
X80405300Y-142271240D01*
X79992550Y-142271240D01*
X79992550Y-143160240D01*
G37*
X79992550Y-143160240D02*
X79167050Y-143160240D01*
X79167050Y-142271240D01*
X78754300Y-142271240D01*
X78754300Y-144430240D01*
X79167050Y-144430240D01*
X79167050Y-143541240D01*
X79992550Y-143541240D01*
X79992550Y-144430240D01*
X80405300Y-144430240D01*
X80405300Y-142271240D01*
X79992550Y-142271240D01*
X79992550Y-143160240D01*
G36*
X75325300Y-144049240D02*
G01*
X74245800Y-144049240D01*
X74245800Y-144430240D01*
X75706300Y-144430240D01*
X75706300Y-142271240D01*
X75325300Y-142271240D01*
X75325300Y-144049240D01*
G37*
X75325300Y-144049240D02*
X74245800Y-144049240D01*
X74245800Y-144430240D01*
X75706300Y-144430240D01*
X75706300Y-142271240D01*
X75325300Y-142271240D01*
X75325300Y-144049240D01*
G36*
X72309050Y-142652240D02*
G01*
X73356800Y-142652240D01*
X73356800Y-143160240D01*
X72563050Y-143160240D01*
X72563050Y-143541240D01*
X73356800Y-143541240D01*
X73356800Y-144049240D01*
X72309050Y-144049240D01*
X72309050Y-144430240D01*
X73769550Y-144430240D01*
X73769550Y-142652240D01*
X74023550Y-142652240D01*
X74023550Y-142271240D01*
X72309050Y-142271240D01*
X72309050Y-142652240D01*
G37*
X72309050Y-142652240D02*
X73356800Y-142652240D01*
X73356800Y-143160240D01*
X72563050Y-143160240D01*
X72563050Y-143541240D01*
X73356800Y-143541240D01*
X73356800Y-144049240D01*
X72309050Y-144049240D01*
X72309050Y-144430240D01*
X73769550Y-144430240D01*
X73769550Y-142652240D01*
X74023550Y-142652240D01*
X74023550Y-142271240D01*
X72309050Y-142271240D01*
X72309050Y-142652240D01*
G36*
X92629748Y-139846237D02*
G01*
X92541447Y-139900693D01*
X92479081Y-139992264D01*
X92449307Y-140108388D01*
X92458780Y-140236507D01*
X92486481Y-140314774D01*
X92555145Y-140410992D01*
X92651035Y-140456164D01*
X92784627Y-140455180D01*
X92786701Y-140454878D01*
X92843982Y-140450339D01*
X92872719Y-140469192D01*
X92885008Y-140526866D01*
X92889482Y-140585986D01*
X92902996Y-140683440D01*
X92930722Y-140731279D01*
X92954488Y-140741344D01*
X92976510Y-140740632D01*
X92991831Y-140722458D01*
X93001648Y-140677448D01*
X93007158Y-140596229D01*
X93009559Y-140469426D01*
X93010050Y-140306346D01*
X93010050Y-140247926D01*
X92880059Y-140247926D01*
X92865281Y-140321015D01*
X92825986Y-140356311D01*
X92755484Y-140366176D01*
X92746268Y-140366240D01*
X92662407Y-140353889D01*
X92613637Y-140307400D01*
X92602397Y-140285371D01*
X92567702Y-140149559D01*
X92594220Y-140029562D01*
X92625727Y-139981459D01*
X92678859Y-139930939D01*
X92736292Y-139926771D01*
X92776540Y-139938857D01*
X92832316Y-139965658D01*
X92861249Y-140008659D01*
X92874362Y-140088248D01*
X92877012Y-140124683D01*
X92880059Y-140247926D01*
X93010050Y-140247926D01*
X93010050Y-139860796D01*
X92922738Y-139861462D01*
X92824685Y-139855019D01*
X92737329Y-139841453D01*
X92629748Y-139846237D01*
G37*
X92629748Y-139846237D02*
X92541447Y-139900693D01*
X92479081Y-139992264D01*
X92449307Y-140108388D01*
X92458780Y-140236507D01*
X92486481Y-140314774D01*
X92555145Y-140410992D01*
X92651035Y-140456164D01*
X92784627Y-140455180D01*
X92786701Y-140454878D01*
X92843982Y-140450339D01*
X92872719Y-140469192D01*
X92885008Y-140526866D01*
X92889482Y-140585986D01*
X92902996Y-140683440D01*
X92930722Y-140731279D01*
X92954488Y-140741344D01*
X92976510Y-140740632D01*
X92991831Y-140722458D01*
X93001648Y-140677448D01*
X93007158Y-140596229D01*
X93009559Y-140469426D01*
X93010050Y-140306346D01*
X93010050Y-140247926D01*
X92880059Y-140247926D01*
X92865281Y-140321015D01*
X92825986Y-140356311D01*
X92755484Y-140366176D01*
X92746268Y-140366240D01*
X92662407Y-140353889D01*
X92613637Y-140307400D01*
X92602397Y-140285371D01*
X92567702Y-140149559D01*
X92594220Y-140029562D01*
X92625727Y-139981459D01*
X92678859Y-139930939D01*
X92736292Y-139926771D01*
X92776540Y-139938857D01*
X92832316Y-139965658D01*
X92861249Y-140008659D01*
X92874362Y-140088248D01*
X92877012Y-140124683D01*
X92880059Y-140247926D01*
X93010050Y-140247926D01*
X93010050Y-139860796D01*
X92922738Y-139861462D01*
X92824685Y-139855019D01*
X92737329Y-139841453D01*
X92629748Y-139846237D01*
G36*
X91914190Y-139843247D02*
G01*
X91825658Y-139896011D01*
X91760414Y-139985456D01*
X91726548Y-140098373D01*
X91732148Y-140221552D01*
X91750096Y-140277766D01*
X91812076Y-140388669D01*
X91889837Y-140445618D01*
X91998002Y-140458149D01*
X92023759Y-140456243D01*
X92149912Y-140444212D01*
X92159294Y-140587503D01*
X92172978Y-140684494D01*
X92201218Y-140731829D01*
X92224238Y-140741344D01*
X92246223Y-140740635D01*
X92261531Y-140722501D01*
X92271353Y-140677585D01*
X92276877Y-140596530D01*
X92279296Y-140469981D01*
X92279800Y-140304563D01*
X92279800Y-140153892D01*
X92152800Y-140153892D01*
X92149134Y-140252902D01*
X92139724Y-140324001D01*
X92131634Y-140345073D01*
X92076924Y-140364500D01*
X91997346Y-140362695D01*
X91926820Y-140342439D01*
X91905786Y-140326552D01*
X91873114Y-140254070D01*
X91862105Y-140136793D01*
X91863394Y-140073669D01*
X91893051Y-139986514D01*
X91961954Y-139938803D01*
X92053190Y-139940342D01*
X92077442Y-139949542D01*
X92122049Y-139978215D01*
X92144653Y-140024196D01*
X92152327Y-140106665D01*
X92152800Y-140153892D01*
X92279800Y-140153892D01*
X92279800Y-139857231D01*
X92192488Y-139859435D01*
X92091072Y-139853095D01*
X92017922Y-139840374D01*
X91914190Y-139843247D01*
G37*
X91914190Y-139843247D02*
X91825658Y-139896011D01*
X91760414Y-139985456D01*
X91726548Y-140098373D01*
X91732148Y-140221552D01*
X91750096Y-140277766D01*
X91812076Y-140388669D01*
X91889837Y-140445618D01*
X91998002Y-140458149D01*
X92023759Y-140456243D01*
X92149912Y-140444212D01*
X92159294Y-140587503D01*
X92172978Y-140684494D01*
X92201218Y-140731829D01*
X92224238Y-140741344D01*
X92246223Y-140740635D01*
X92261531Y-140722501D01*
X92271353Y-140677585D01*
X92276877Y-140596530D01*
X92279296Y-140469981D01*
X92279800Y-140304563D01*
X92279800Y-140153892D01*
X92152800Y-140153892D01*
X92149134Y-140252902D01*
X92139724Y-140324001D01*
X92131634Y-140345073D01*
X92076924Y-140364500D01*
X91997346Y-140362695D01*
X91926820Y-140342439D01*
X91905786Y-140326552D01*
X91873114Y-140254070D01*
X91862105Y-140136793D01*
X91863394Y-140073669D01*
X91893051Y-139986514D01*
X91961954Y-139938803D01*
X92053190Y-139940342D01*
X92077442Y-139949542D01*
X92122049Y-139978215D01*
X92144653Y-140024196D01*
X92152327Y-140106665D01*
X92152800Y-140153892D01*
X92279800Y-140153892D01*
X92279800Y-139857231D01*
X92192488Y-139859435D01*
X92091072Y-139853095D01*
X92017922Y-139840374D01*
X91914190Y-139843247D01*
G36*
X93467992Y-139580214D02*
G01*
X93450951Y-139614639D01*
X93416990Y-139695308D01*
X93371249Y-139808921D01*
X93318866Y-139942177D01*
X93264982Y-140081776D01*
X93214734Y-140214416D01*
X93173263Y-140326798D01*
X93145708Y-140405620D01*
X93137050Y-140436720D01*
X93163805Y-140456596D01*
X93203105Y-140461490D01*
X93258065Y-140439705D01*
X93305045Y-140367643D01*
X93319046Y-140334490D01*
X93353105Y-140257561D01*
X93390623Y-140220356D01*
X93454327Y-140208466D01*
X93519419Y-140207490D01*
X93611906Y-140210765D01*
X93663768Y-140230201D01*
X93697856Y-140280216D01*
X93720721Y-140334490D01*
X93767374Y-140423258D01*
X93818959Y-140459337D01*
X93838690Y-140461490D01*
X93887283Y-140447016D01*
X93889712Y-140421802D01*
X93872710Y-140378585D01*
X93837658Y-140288551D01*
X93789380Y-140164116D01*
X93769298Y-140112240D01*
X93639212Y-140112240D01*
X93396889Y-140112240D01*
X93447655Y-139953490D01*
X93479523Y-139864467D01*
X93506669Y-139806864D01*
X93518050Y-139794740D01*
X93537851Y-139822235D01*
X93567540Y-139892804D01*
X93588446Y-139953490D01*
X93639212Y-140112240D01*
X93769298Y-140112240D01*
X93732699Y-140017702D01*
X93722005Y-139990047D01*
X93646204Y-139803071D01*
X93584845Y-139673263D01*
X93535430Y-139596589D01*
X93495460Y-139569020D01*
X93467992Y-139580214D01*
G37*
X93467992Y-139580214D02*
X93450951Y-139614639D01*
X93416990Y-139695308D01*
X93371249Y-139808921D01*
X93318866Y-139942177D01*
X93264982Y-140081776D01*
X93214734Y-140214416D01*
X93173263Y-140326798D01*
X93145708Y-140405620D01*
X93137050Y-140436720D01*
X93163805Y-140456596D01*
X93203105Y-140461490D01*
X93258065Y-140439705D01*
X93305045Y-140367643D01*
X93319046Y-140334490D01*
X93353105Y-140257561D01*
X93390623Y-140220356D01*
X93454327Y-140208466D01*
X93519419Y-140207490D01*
X93611906Y-140210765D01*
X93663768Y-140230201D01*
X93697856Y-140280216D01*
X93720721Y-140334490D01*
X93767374Y-140423258D01*
X93818959Y-140459337D01*
X93838690Y-140461490D01*
X93887283Y-140447016D01*
X93889712Y-140421802D01*
X93872710Y-140378585D01*
X93837658Y-140288551D01*
X93789380Y-140164116D01*
X93769298Y-140112240D01*
X93639212Y-140112240D01*
X93396889Y-140112240D01*
X93447655Y-139953490D01*
X93479523Y-139864467D01*
X93506669Y-139806864D01*
X93518050Y-139794740D01*
X93537851Y-139822235D01*
X93567540Y-139892804D01*
X93588446Y-139953490D01*
X93639212Y-140112240D01*
X93769298Y-140112240D01*
X93732699Y-140017702D01*
X93722005Y-139990047D01*
X93646204Y-139803071D01*
X93584845Y-139673263D01*
X93535430Y-139596589D01*
X93495460Y-139569020D01*
X93467992Y-139580214D01*
G36*
X91466751Y-139566030D02*
G01*
X91452714Y-139600226D01*
X91442827Y-139668124D01*
X91435976Y-139778647D01*
X91431049Y-139940716D01*
X91429616Y-140009052D01*
X91426546Y-140186599D01*
X91426230Y-140310356D01*
X91429875Y-140390015D01*
X91438692Y-140435266D01*
X91453888Y-140455803D01*
X91476673Y-140461316D01*
X91486050Y-140461490D01*
X91511601Y-140458805D01*
X91529165Y-140444291D01*
X91539950Y-140408255D01*
X91545167Y-140341007D01*
X91546022Y-140232854D01*
X91543726Y-140074106D01*
X91542485Y-140009052D01*
X91537958Y-139827451D01*
X91531885Y-139700426D01*
X91523153Y-139619055D01*
X91510650Y-139574416D01*
X91493263Y-139557587D01*
X91486050Y-139556615D01*
X91466751Y-139566030D01*
G37*
X91466751Y-139566030D02*
X91452714Y-139600226D01*
X91442827Y-139668124D01*
X91435976Y-139778647D01*
X91431049Y-139940716D01*
X91429616Y-140009052D01*
X91426546Y-140186599D01*
X91426230Y-140310356D01*
X91429875Y-140390015D01*
X91438692Y-140435266D01*
X91453888Y-140455803D01*
X91476673Y-140461316D01*
X91486050Y-140461490D01*
X91511601Y-140458805D01*
X91529165Y-140444291D01*
X91539950Y-140408255D01*
X91545167Y-140341007D01*
X91546022Y-140232854D01*
X91543726Y-140074106D01*
X91542485Y-140009052D01*
X91537958Y-139827451D01*
X91531885Y-139700426D01*
X91523153Y-139619055D01*
X91510650Y-139574416D01*
X91493263Y-139557587D01*
X91486050Y-139556615D01*
X91466751Y-139566030D01*
G36*
X91139037Y-139862794D02*
G01*
X91120410Y-139884311D01*
X91110190Y-139934568D01*
X91105897Y-140025346D01*
X91105050Y-140159865D01*
X91106009Y-140300053D01*
X91110539Y-140388530D01*
X91121120Y-140437075D01*
X91140231Y-140457466D01*
X91168550Y-140461490D01*
X91198064Y-140456935D01*
X91216691Y-140435418D01*
X91226911Y-140385161D01*
X91231204Y-140294383D01*
X91232050Y-140159865D01*
X91231092Y-140019676D01*
X91226562Y-139931199D01*
X91215981Y-139882654D01*
X91196870Y-139862263D01*
X91168550Y-139858240D01*
X91139037Y-139862794D01*
G37*
X91139037Y-139862794D02*
X91120410Y-139884311D01*
X91110190Y-139934568D01*
X91105897Y-140025346D01*
X91105050Y-140159865D01*
X91106009Y-140300053D01*
X91110539Y-140388530D01*
X91121120Y-140437075D01*
X91140231Y-140457466D01*
X91168550Y-140461490D01*
X91198064Y-140456935D01*
X91216691Y-140435418D01*
X91226911Y-140385161D01*
X91231204Y-140294383D01*
X91232050Y-140159865D01*
X91231092Y-140019676D01*
X91226562Y-139931199D01*
X91215981Y-139882654D01*
X91196870Y-139862263D01*
X91168550Y-139858240D01*
X91139037Y-139862794D01*
G36*
X90540216Y-139846834D02*
G01*
X90469929Y-139893272D01*
X90410444Y-139978372D01*
X90377306Y-140077473D01*
X90374800Y-140109272D01*
X90381462Y-140143158D01*
X90410457Y-140163603D01*
X90475303Y-140175066D01*
X90589515Y-140182005D01*
X90596121Y-140182286D01*
X90817441Y-140191615D01*
X90777912Y-140270990D01*
X90744164Y-140319362D01*
X90691703Y-140345541D01*
X90600591Y-140358081D01*
X90570398Y-140360033D01*
X90463131Y-140374076D01*
X90415918Y-140396462D01*
X90426910Y-140421389D01*
X90494256Y-140443058D01*
X90600665Y-140454933D01*
X90708638Y-140456250D01*
X90777192Y-140441448D01*
X90829638Y-140404251D01*
X90844219Y-140389386D01*
X90891409Y-140318720D01*
X90911967Y-140224408D01*
X90914550Y-140152703D01*
X90909334Y-140049170D01*
X90907799Y-140044646D01*
X90784794Y-140044646D01*
X90734911Y-140071878D01*
X90642347Y-140080490D01*
X90552337Y-140076232D01*
X90511976Y-140059983D01*
X90507410Y-140028330D01*
X90547825Y-139956410D01*
X90621579Y-139930096D01*
X90706109Y-139952383D01*
X90775959Y-140003277D01*
X90784794Y-140044646D01*
X90907799Y-140044646D01*
X90886571Y-139982108D01*
X90835590Y-139924859D01*
X90816864Y-139908687D01*
X90725713Y-139846258D01*
X90639324Y-139829216D01*
X90540216Y-139846834D01*
G37*
X90540216Y-139846834D02*
X90469929Y-139893272D01*
X90410444Y-139978372D01*
X90377306Y-140077473D01*
X90374800Y-140109272D01*
X90381462Y-140143158D01*
X90410457Y-140163603D01*
X90475303Y-140175066D01*
X90589515Y-140182005D01*
X90596121Y-140182286D01*
X90817441Y-140191615D01*
X90777912Y-140270990D01*
X90744164Y-140319362D01*
X90691703Y-140345541D01*
X90600591Y-140358081D01*
X90570398Y-140360033D01*
X90463131Y-140374076D01*
X90415918Y-140396462D01*
X90426910Y-140421389D01*
X90494256Y-140443058D01*
X90600665Y-140454933D01*
X90708638Y-140456250D01*
X90777192Y-140441448D01*
X90829638Y-140404251D01*
X90844219Y-140389386D01*
X90891409Y-140318720D01*
X90911967Y-140224408D01*
X90914550Y-140152703D01*
X90909334Y-140049170D01*
X90907799Y-140044646D01*
X90784794Y-140044646D01*
X90734911Y-140071878D01*
X90642347Y-140080490D01*
X90552337Y-140076232D01*
X90511976Y-140059983D01*
X90507410Y-140028330D01*
X90547825Y-139956410D01*
X90621579Y-139930096D01*
X90706109Y-139952383D01*
X90775959Y-140003277D01*
X90784794Y-140044646D01*
X90907799Y-140044646D01*
X90886571Y-139982108D01*
X90835590Y-139924859D01*
X90816864Y-139908687D01*
X90725713Y-139846258D01*
X90639324Y-139829216D01*
X90540216Y-139846834D01*
G36*
X89736795Y-139561395D02*
G01*
X89723572Y-139585285D01*
X89715051Y-139641408D01*
X89710278Y-139738498D01*
X89708297Y-139885287D01*
X89708050Y-139996428D01*
X89708050Y-140450124D01*
X89906488Y-140455195D01*
X90016343Y-140454361D01*
X90101967Y-140447082D01*
X90139860Y-140437066D01*
X90201419Y-140362206D01*
X90239146Y-140244375D01*
X90246528Y-140158435D01*
X90120800Y-140158435D01*
X90112109Y-140250560D01*
X90090471Y-140317599D01*
X90082701Y-140328140D01*
X90013936Y-140359984D01*
X89924457Y-140362412D01*
X89849824Y-140335422D01*
X89841400Y-140328140D01*
X89811874Y-140262299D01*
X89804278Y-140164973D01*
X89817464Y-140063834D01*
X89850284Y-139986557D01*
X89855846Y-139979802D01*
X89932695Y-139928361D01*
X90008283Y-139932336D01*
X90071711Y-139984378D01*
X90112080Y-140077139D01*
X90120800Y-140158435D01*
X90246528Y-140158435D01*
X90247800Y-140143634D01*
X90223491Y-140016160D01*
X90158963Y-139915491D01*
X90066817Y-139850978D01*
X89959655Y-139831972D01*
X89864713Y-139859357D01*
X89828282Y-139873491D01*
X89810078Y-139856555D01*
X89803865Y-139796002D01*
X89803300Y-139735753D01*
X89795330Y-139626158D01*
X89769911Y-139569929D01*
X89755675Y-139561008D01*
X89736795Y-139561395D01*
G37*
X89736795Y-139561395D02*
X89723572Y-139585285D01*
X89715051Y-139641408D01*
X89710278Y-139738498D01*
X89708297Y-139885287D01*
X89708050Y-139996428D01*
X89708050Y-140450124D01*
X89906488Y-140455195D01*
X90016343Y-140454361D01*
X90101967Y-140447082D01*
X90139860Y-140437066D01*
X90201419Y-140362206D01*
X90239146Y-140244375D01*
X90246528Y-140158435D01*
X90120800Y-140158435D01*
X90112109Y-140250560D01*
X90090471Y-140317599D01*
X90082701Y-140328140D01*
X90013936Y-140359984D01*
X89924457Y-140362412D01*
X89849824Y-140335422D01*
X89841400Y-140328140D01*
X89811874Y-140262299D01*
X89804278Y-140164973D01*
X89817464Y-140063834D01*
X89850284Y-139986557D01*
X89855846Y-139979802D01*
X89932695Y-139928361D01*
X90008283Y-139932336D01*
X90071711Y-139984378D01*
X90112080Y-140077139D01*
X90120800Y-140158435D01*
X90246528Y-140158435D01*
X90247800Y-140143634D01*
X90223491Y-140016160D01*
X90158963Y-139915491D01*
X90066817Y-139850978D01*
X89959655Y-139831972D01*
X89864713Y-139859357D01*
X89828282Y-139873491D01*
X89810078Y-139856555D01*
X89803865Y-139796002D01*
X89803300Y-139735753D01*
X89795330Y-139626158D01*
X89769911Y-139569929D01*
X89755675Y-139561008D01*
X89736795Y-139561395D01*
G36*
X88744046Y-139591086D02*
G01*
X88742272Y-139591761D01*
X88698437Y-139633426D01*
X88692050Y-139659416D01*
X88706014Y-139690104D01*
X88757677Y-139695510D01*
X88807639Y-139689041D01*
X88934470Y-139685107D01*
X89012699Y-139715707D01*
X89039467Y-139771331D01*
X89011915Y-139842469D01*
X88927183Y-139919611D01*
X88884762Y-139945561D01*
X88745362Y-140043501D01*
X88663585Y-140148193D01*
X88641999Y-140255957D01*
X88647094Y-140286191D01*
X88694104Y-140378033D01*
X88783806Y-140434806D01*
X88922365Y-140459710D01*
X88984865Y-140461490D01*
X89089018Y-140458907D01*
X89144429Y-140447857D01*
X89165760Y-140423383D01*
X89168300Y-140399485D01*
X89161320Y-140362802D01*
X89129700Y-140348161D01*
X89057428Y-140350872D01*
X89017488Y-140355296D01*
X88916722Y-140361544D01*
X88854060Y-140346796D01*
X88810347Y-140310767D01*
X88772967Y-140247479D01*
X88784712Y-140186990D01*
X88849655Y-140122190D01*
X88957298Y-140054110D01*
X89055069Y-139989592D01*
X89133187Y-139921447D01*
X89164490Y-139881235D01*
X89185224Y-139787822D01*
X89154108Y-139701786D01*
X89082786Y-139631109D01*
X88982904Y-139583778D01*
X88866109Y-139567775D01*
X88744046Y-139591086D01*
G37*
X88744046Y-139591086D02*
X88742272Y-139591761D01*
X88698437Y-139633426D01*
X88692050Y-139659416D01*
X88706014Y-139690104D01*
X88757677Y-139695510D01*
X88807639Y-139689041D01*
X88934470Y-139685107D01*
X89012699Y-139715707D01*
X89039467Y-139771331D01*
X89011915Y-139842469D01*
X88927183Y-139919611D01*
X88884762Y-139945561D01*
X88745362Y-140043501D01*
X88663585Y-140148193D01*
X88641999Y-140255957D01*
X88647094Y-140286191D01*
X88694104Y-140378033D01*
X88783806Y-140434806D01*
X88922365Y-140459710D01*
X88984865Y-140461490D01*
X89089018Y-140458907D01*
X89144429Y-140447857D01*
X89165760Y-140423383D01*
X89168300Y-140399485D01*
X89161320Y-140362802D01*
X89129700Y-140348161D01*
X89057428Y-140350872D01*
X89017488Y-140355296D01*
X88916722Y-140361544D01*
X88854060Y-140346796D01*
X88810347Y-140310767D01*
X88772967Y-140247479D01*
X88784712Y-140186990D01*
X88849655Y-140122190D01*
X88957298Y-140054110D01*
X89055069Y-139989592D01*
X89133187Y-139921447D01*
X89164490Y-139881235D01*
X89185224Y-139787822D01*
X89154108Y-139701786D01*
X89082786Y-139631109D01*
X88982904Y-139583778D01*
X88866109Y-139567775D01*
X88744046Y-139591086D01*
G36*
X88128434Y-139838903D02*
G01*
X88051777Y-139869861D01*
X88025300Y-139912090D01*
X88041128Y-139942270D01*
X88097680Y-139942135D01*
X88121841Y-139937331D01*
X88239237Y-139936721D01*
X88324231Y-139988361D01*
X88369299Y-140086074D01*
X88374550Y-140144721D01*
X88353409Y-140272257D01*
X88292783Y-140353631D01*
X88196870Y-140384721D01*
X88135214Y-140379792D01*
X88059987Y-140371398D01*
X88029116Y-140387670D01*
X88025300Y-140410331D01*
X88038552Y-140441093D01*
X88087216Y-140456791D01*
X88184654Y-140461470D01*
X88194391Y-140461490D01*
X88306697Y-140455151D01*
X88379875Y-140431291D01*
X88432516Y-140388006D01*
X88491731Y-140282430D01*
X88506504Y-140154356D01*
X88477938Y-140025531D01*
X88408743Y-139919297D01*
X88332015Y-139859937D01*
X88257437Y-139828467D01*
X88242055Y-139826923D01*
X88128434Y-139838903D01*
G37*
X88128434Y-139838903D02*
X88051777Y-139869861D01*
X88025300Y-139912090D01*
X88041128Y-139942270D01*
X88097680Y-139942135D01*
X88121841Y-139937331D01*
X88239237Y-139936721D01*
X88324231Y-139988361D01*
X88369299Y-140086074D01*
X88374550Y-140144721D01*
X88353409Y-140272257D01*
X88292783Y-140353631D01*
X88196870Y-140384721D01*
X88135214Y-140379792D01*
X88059987Y-140371398D01*
X88029116Y-140387670D01*
X88025300Y-140410331D01*
X88038552Y-140441093D01*
X88087216Y-140456791D01*
X88184654Y-140461470D01*
X88194391Y-140461490D01*
X88306697Y-140455151D01*
X88379875Y-140431291D01*
X88432516Y-140388006D01*
X88491731Y-140282430D01*
X88506504Y-140154356D01*
X88477938Y-140025531D01*
X88408743Y-139919297D01*
X88332015Y-139859937D01*
X88257437Y-139828467D01*
X88242055Y-139826923D01*
X88128434Y-139838903D01*
G36*
X87773537Y-139862794D02*
G01*
X87754910Y-139884311D01*
X87744690Y-139934568D01*
X87740397Y-140025346D01*
X87739550Y-140159865D01*
X87740509Y-140300053D01*
X87745039Y-140388530D01*
X87755620Y-140437075D01*
X87774731Y-140457466D01*
X87803050Y-140461490D01*
X87832564Y-140456935D01*
X87851191Y-140435418D01*
X87861411Y-140385161D01*
X87865704Y-140294383D01*
X87866550Y-140159865D01*
X87865592Y-140019676D01*
X87861062Y-139931199D01*
X87850481Y-139882654D01*
X87831370Y-139862263D01*
X87803050Y-139858240D01*
X87773537Y-139862794D01*
G37*
X87773537Y-139862794D02*
X87754910Y-139884311D01*
X87744690Y-139934568D01*
X87740397Y-140025346D01*
X87739550Y-140159865D01*
X87740509Y-140300053D01*
X87745039Y-140388530D01*
X87755620Y-140437075D01*
X87774731Y-140457466D01*
X87803050Y-140461490D01*
X87832564Y-140456935D01*
X87851191Y-140435418D01*
X87861411Y-140385161D01*
X87865704Y-140294383D01*
X87866550Y-140159865D01*
X87865592Y-140019676D01*
X87861062Y-139931199D01*
X87850481Y-139882654D01*
X87831370Y-139862263D01*
X87803050Y-139858240D01*
X87773537Y-139862794D01*
G36*
X87159626Y-139851927D02*
G01*
X87087232Y-139904421D01*
X87022991Y-140004791D01*
X87009300Y-140079046D01*
X87009300Y-140175740D01*
X87215675Y-140175740D01*
X87335259Y-140179447D01*
X87400046Y-140194774D01*
X87418517Y-140228032D01*
X87399153Y-140285531D01*
X87389183Y-140304827D01*
X87352609Y-140344005D01*
X87285929Y-140362467D01*
X87198683Y-140366240D01*
X87099244Y-140371406D01*
X87050882Y-140389274D01*
X87041050Y-140413865D01*
X87055819Y-140441664D01*
X87108104Y-140456507D01*
X87209872Y-140461421D01*
X87229246Y-140461490D01*
X87340025Y-140457952D01*
X87408771Y-140442663D01*
X87456778Y-140408610D01*
X87483246Y-140377833D01*
X87538323Y-140258175D01*
X87549050Y-140153140D01*
X87531042Y-140053660D01*
X87422050Y-140053660D01*
X87393663Y-140069663D01*
X87321844Y-140079260D01*
X87279175Y-140080490D01*
X87178377Y-140072017D01*
X87137430Y-140046332D01*
X87136300Y-140039214D01*
X87163162Y-139973712D01*
X87224920Y-139928397D01*
X87259213Y-139921740D01*
X87316330Y-139941782D01*
X87378097Y-139987628D01*
X87418073Y-140037859D01*
X87422050Y-140053660D01*
X87531042Y-140053660D01*
X87525221Y-140021505D01*
X87461984Y-139918899D01*
X87371720Y-139851990D01*
X87266808Y-139827443D01*
X87159626Y-139851927D01*
G37*
X87159626Y-139851927D02*
X87087232Y-139904421D01*
X87022991Y-140004791D01*
X87009300Y-140079046D01*
X87009300Y-140175740D01*
X87215675Y-140175740D01*
X87335259Y-140179447D01*
X87400046Y-140194774D01*
X87418517Y-140228032D01*
X87399153Y-140285531D01*
X87389183Y-140304827D01*
X87352609Y-140344005D01*
X87285929Y-140362467D01*
X87198683Y-140366240D01*
X87099244Y-140371406D01*
X87050882Y-140389274D01*
X87041050Y-140413865D01*
X87055819Y-140441664D01*
X87108104Y-140456507D01*
X87209872Y-140461421D01*
X87229246Y-140461490D01*
X87340025Y-140457952D01*
X87408771Y-140442663D01*
X87456778Y-140408610D01*
X87483246Y-140377833D01*
X87538323Y-140258175D01*
X87549050Y-140153140D01*
X87531042Y-140053660D01*
X87422050Y-140053660D01*
X87393663Y-140069663D01*
X87321844Y-140079260D01*
X87279175Y-140080490D01*
X87178377Y-140072017D01*
X87137430Y-140046332D01*
X87136300Y-140039214D01*
X87163162Y-139973712D01*
X87224920Y-139928397D01*
X87259213Y-139921740D01*
X87316330Y-139941782D01*
X87378097Y-139987628D01*
X87418073Y-140037859D01*
X87422050Y-140053660D01*
X87531042Y-140053660D01*
X87525221Y-140021505D01*
X87461984Y-139918899D01*
X87371720Y-139851990D01*
X87266808Y-139827443D01*
X87159626Y-139851927D01*
G36*
X86399352Y-139863949D02*
G01*
X86355466Y-139929409D01*
X86329651Y-140042285D01*
X86317017Y-140191328D01*
X86311037Y-140322131D01*
X86311577Y-140402055D01*
X86321101Y-140443591D01*
X86342075Y-140459229D01*
X86370319Y-140461490D01*
X86405836Y-140456328D01*
X86426101Y-140431669D01*
X86435336Y-140373755D01*
X86437761Y-140268827D01*
X86437800Y-140241507D01*
X86443592Y-140101430D01*
X86462343Y-140012734D01*
X86487693Y-139971632D01*
X86527723Y-139934072D01*
X86560598Y-139925534D01*
X86615261Y-139942472D01*
X86642109Y-139952704D01*
X86683643Y-139972467D01*
X86707966Y-140002593D01*
X86719661Y-140058272D01*
X86723310Y-140154691D01*
X86723550Y-140222579D01*
X86725041Y-140344570D01*
X86731840Y-140416227D01*
X86747440Y-140450688D01*
X86775334Y-140461094D01*
X86787050Y-140461490D01*
X86816544Y-140456941D01*
X86835167Y-140435451D01*
X86845393Y-140385248D01*
X86849696Y-140294563D01*
X86850550Y-140159360D01*
X86850550Y-139857231D01*
X86763238Y-139858108D01*
X86668470Y-139853766D01*
X86564800Y-139842221D01*
X86467175Y-139837641D01*
X86399352Y-139863949D01*
G37*
X86399352Y-139863949D02*
X86355466Y-139929409D01*
X86329651Y-140042285D01*
X86317017Y-140191328D01*
X86311037Y-140322131D01*
X86311577Y-140402055D01*
X86321101Y-140443591D01*
X86342075Y-140459229D01*
X86370319Y-140461490D01*
X86405836Y-140456328D01*
X86426101Y-140431669D01*
X86435336Y-140373755D01*
X86437761Y-140268827D01*
X86437800Y-140241507D01*
X86443592Y-140101430D01*
X86462343Y-140012734D01*
X86487693Y-139971632D01*
X86527723Y-139934072D01*
X86560598Y-139925534D01*
X86615261Y-139942472D01*
X86642109Y-139952704D01*
X86683643Y-139972467D01*
X86707966Y-140002593D01*
X86719661Y-140058272D01*
X86723310Y-140154691D01*
X86723550Y-140222579D01*
X86725041Y-140344570D01*
X86731840Y-140416227D01*
X86747440Y-140450688D01*
X86775334Y-140461094D01*
X86787050Y-140461490D01*
X86816544Y-140456941D01*
X86835167Y-140435451D01*
X86845393Y-140385248D01*
X86849696Y-140294563D01*
X86850550Y-140159360D01*
X86850550Y-139857231D01*
X86763238Y-139858108D01*
X86668470Y-139853766D01*
X86564800Y-139842221D01*
X86467175Y-139837641D01*
X86399352Y-139863949D01*
G36*
X85778934Y-139838903D02*
G01*
X85702277Y-139869861D01*
X85675800Y-139912090D01*
X85691628Y-139942270D01*
X85748180Y-139942135D01*
X85772341Y-139937331D01*
X85889672Y-139935640D01*
X85973107Y-139986292D01*
X86018201Y-140085374D01*
X86025050Y-140159865D01*
X86004055Y-140283845D01*
X85942554Y-140359702D01*
X85842775Y-140385479D01*
X85776248Y-140378392D01*
X85705383Y-140370895D01*
X85678083Y-140390879D01*
X85675800Y-140409896D01*
X85688552Y-140440622D01*
X85735776Y-140456458D01*
X85830925Y-140461431D01*
X85848121Y-140461490D01*
X85954905Y-140456951D01*
X86021509Y-140437951D01*
X86070931Y-140396408D01*
X86086246Y-140377833D01*
X86145062Y-140255719D01*
X86153041Y-140118962D01*
X86111446Y-139989060D01*
X86059243Y-139919297D01*
X85982515Y-139859937D01*
X85907937Y-139828467D01*
X85892555Y-139826923D01*
X85778934Y-139838903D01*
G37*
X85778934Y-139838903D02*
X85702277Y-139869861D01*
X85675800Y-139912090D01*
X85691628Y-139942270D01*
X85748180Y-139942135D01*
X85772341Y-139937331D01*
X85889672Y-139935640D01*
X85973107Y-139986292D01*
X86018201Y-140085374D01*
X86025050Y-140159865D01*
X86004055Y-140283845D01*
X85942554Y-140359702D01*
X85842775Y-140385479D01*
X85776248Y-140378392D01*
X85705383Y-140370895D01*
X85678083Y-140390879D01*
X85675800Y-140409896D01*
X85688552Y-140440622D01*
X85735776Y-140456458D01*
X85830925Y-140461431D01*
X85848121Y-140461490D01*
X85954905Y-140456951D01*
X86021509Y-140437951D01*
X86070931Y-140396408D01*
X86086246Y-140377833D01*
X86145062Y-140255719D01*
X86153041Y-140118962D01*
X86111446Y-139989060D01*
X86059243Y-139919297D01*
X85982515Y-139859937D01*
X85907937Y-139828467D01*
X85892555Y-139826923D01*
X85778934Y-139838903D01*
G36*
X85184499Y-139852590D02*
G01*
X85105348Y-139917379D01*
X85040711Y-140000589D01*
X85009639Y-140081951D01*
X85009050Y-140092531D01*
X85012611Y-140134776D01*
X85032522Y-140159676D01*
X85082632Y-140172845D01*
X85176785Y-140179898D01*
X85230371Y-140182286D01*
X85451691Y-140191615D01*
X85412190Y-140270990D01*
X85372419Y-140323754D01*
X85306924Y-140352898D01*
X85221841Y-140366240D01*
X85118855Y-140384446D01*
X85077370Y-140407552D01*
X85096149Y-140430643D01*
X85173958Y-140448802D01*
X85244171Y-140455058D01*
X85352709Y-140456267D01*
X85421359Y-140441093D01*
X85472851Y-140403703D01*
X85482266Y-140393932D01*
X85550897Y-140281131D01*
X85570005Y-140156684D01*
X85549076Y-140053944D01*
X85433476Y-140053944D01*
X85421981Y-140073086D01*
X85367651Y-140079754D01*
X85295070Y-140080490D01*
X85191955Y-140074469D01*
X85142964Y-140054873D01*
X85136050Y-140036752D01*
X85160583Y-139970436D01*
X85221315Y-139936431D01*
X85298950Y-139936192D01*
X85374189Y-139971172D01*
X85414132Y-140015811D01*
X85433476Y-140053944D01*
X85549076Y-140053944D01*
X85545175Y-140034795D01*
X85481992Y-139929668D01*
X85386042Y-139855506D01*
X85262912Y-139826513D01*
X85259114Y-139826490D01*
X85184499Y-139852590D01*
G37*
X85184499Y-139852590D02*
X85105348Y-139917379D01*
X85040711Y-140000589D01*
X85009639Y-140081951D01*
X85009050Y-140092531D01*
X85012611Y-140134776D01*
X85032522Y-140159676D01*
X85082632Y-140172845D01*
X85176785Y-140179898D01*
X85230371Y-140182286D01*
X85451691Y-140191615D01*
X85412190Y-140270990D01*
X85372419Y-140323754D01*
X85306924Y-140352898D01*
X85221841Y-140366240D01*
X85118855Y-140384446D01*
X85077370Y-140407552D01*
X85096149Y-140430643D01*
X85173958Y-140448802D01*
X85244171Y-140455058D01*
X85352709Y-140456267D01*
X85421359Y-140441093D01*
X85472851Y-140403703D01*
X85482266Y-140393932D01*
X85550897Y-140281131D01*
X85570005Y-140156684D01*
X85549076Y-140053944D01*
X85433476Y-140053944D01*
X85421981Y-140073086D01*
X85367651Y-140079754D01*
X85295070Y-140080490D01*
X85191955Y-140074469D01*
X85142964Y-140054873D01*
X85136050Y-140036752D01*
X85160583Y-139970436D01*
X85221315Y-139936431D01*
X85298950Y-139936192D01*
X85374189Y-139971172D01*
X85414132Y-140015811D01*
X85433476Y-140053944D01*
X85549076Y-140053944D01*
X85545175Y-140034795D01*
X85481992Y-139929668D01*
X85386042Y-139855506D01*
X85262912Y-139826513D01*
X85259114Y-139826490D01*
X85184499Y-139852590D01*
G36*
X84531007Y-139855792D02*
G01*
X84501140Y-139904051D01*
X84501050Y-139907335D01*
X84525340Y-139935663D01*
X84602468Y-139944486D01*
X84635988Y-139943626D01*
X84732178Y-139950199D01*
X84770248Y-139978522D01*
X84750200Y-140024764D01*
X84672032Y-140085093D01*
X84635997Y-140106056D01*
X84527409Y-140188296D01*
X84477238Y-140275009D01*
X84482903Y-140355652D01*
X84541826Y-140419677D01*
X84651428Y-140456538D01*
X84722930Y-140461490D01*
X84814907Y-140457753D01*
X84877586Y-140448289D01*
X84890446Y-140442510D01*
X84898223Y-140400008D01*
X84893444Y-140381885D01*
X84862906Y-140356385D01*
X84794275Y-140364292D01*
X84779041Y-140368465D01*
X84680457Y-140379310D01*
X84638460Y-140361703D01*
X84598696Y-140303269D01*
X84621929Y-140247182D01*
X84707667Y-140194439D01*
X84724227Y-140187539D01*
X84834545Y-140123970D01*
X84895129Y-140047682D01*
X84903547Y-139969002D01*
X84857371Y-139898260D01*
X84800571Y-139863058D01*
X84698128Y-139832722D01*
X84602471Y-139831157D01*
X84531007Y-139855792D01*
G37*
X84531007Y-139855792D02*
X84501140Y-139904051D01*
X84501050Y-139907335D01*
X84525340Y-139935663D01*
X84602468Y-139944486D01*
X84635988Y-139943626D01*
X84732178Y-139950199D01*
X84770248Y-139978522D01*
X84750200Y-140024764D01*
X84672032Y-140085093D01*
X84635997Y-140106056D01*
X84527409Y-140188296D01*
X84477238Y-140275009D01*
X84482903Y-140355652D01*
X84541826Y-140419677D01*
X84651428Y-140456538D01*
X84722930Y-140461490D01*
X84814907Y-140457753D01*
X84877586Y-140448289D01*
X84890446Y-140442510D01*
X84898223Y-140400008D01*
X84893444Y-140381885D01*
X84862906Y-140356385D01*
X84794275Y-140364292D01*
X84779041Y-140368465D01*
X84680457Y-140379310D01*
X84638460Y-140361703D01*
X84598696Y-140303269D01*
X84621929Y-140247182D01*
X84707667Y-140194439D01*
X84724227Y-140187539D01*
X84834545Y-140123970D01*
X84895129Y-140047682D01*
X84903547Y-139969002D01*
X84857371Y-139898260D01*
X84800571Y-139863058D01*
X84698128Y-139832722D01*
X84602471Y-139831157D01*
X84531007Y-139855792D01*
G36*
X83726022Y-139840514D02*
G01*
X83631806Y-139854848D01*
X83558888Y-139859799D01*
X83523841Y-139864474D01*
X83502096Y-139887736D01*
X83489368Y-139942600D01*
X83481371Y-140042078D01*
X83478174Y-140104856D01*
X83469308Y-140230253D01*
X83456630Y-140335679D01*
X83442665Y-140400890D01*
X83440627Y-140405927D01*
X83433499Y-140450185D01*
X83475304Y-140461490D01*
X83544383Y-140444507D01*
X83570367Y-140426973D01*
X83608692Y-140409627D01*
X83626216Y-140426973D01*
X83677559Y-140457086D01*
X83761845Y-140462697D01*
X83854526Y-140446269D01*
X83931054Y-140410263D01*
X83948442Y-140394656D01*
X83989408Y-140323344D01*
X84007239Y-140216797D01*
X84007378Y-140211598D01*
X83893732Y-140211598D01*
X83864933Y-140304827D01*
X83807238Y-140355157D01*
X83727118Y-140360967D01*
X83647523Y-140322155D01*
X83630744Y-140305854D01*
X83585943Y-140214885D01*
X83584996Y-140108562D01*
X83624094Y-140011359D01*
X83685413Y-139954487D01*
X83750495Y-139924772D01*
X83792317Y-139933932D01*
X83836226Y-139980819D01*
X83886959Y-140087298D01*
X83893732Y-140211598D01*
X84007378Y-140211598D01*
X84008925Y-140153782D01*
X84004513Y-140046513D01*
X83985317Y-139977954D01*
X83942401Y-139923585D01*
X83916522Y-139900259D01*
X83835698Y-139845901D01*
X83757760Y-139835613D01*
X83726022Y-139840514D01*
G37*
X83726022Y-139840514D02*
X83631806Y-139854848D01*
X83558888Y-139859799D01*
X83523841Y-139864474D01*
X83502096Y-139887736D01*
X83489368Y-139942600D01*
X83481371Y-140042078D01*
X83478174Y-140104856D01*
X83469308Y-140230253D01*
X83456630Y-140335679D01*
X83442665Y-140400890D01*
X83440627Y-140405927D01*
X83433499Y-140450185D01*
X83475304Y-140461490D01*
X83544383Y-140444507D01*
X83570367Y-140426973D01*
X83608692Y-140409627D01*
X83626216Y-140426973D01*
X83677559Y-140457086D01*
X83761845Y-140462697D01*
X83854526Y-140446269D01*
X83931054Y-140410263D01*
X83948442Y-140394656D01*
X83989408Y-140323344D01*
X84007239Y-140216797D01*
X84007378Y-140211598D01*
X83893732Y-140211598D01*
X83864933Y-140304827D01*
X83807238Y-140355157D01*
X83727118Y-140360967D01*
X83647523Y-140322155D01*
X83630744Y-140305854D01*
X83585943Y-140214885D01*
X83584996Y-140108562D01*
X83624094Y-140011359D01*
X83685413Y-139954487D01*
X83750495Y-139924772D01*
X83792317Y-139933932D01*
X83836226Y-139980819D01*
X83886959Y-140087298D01*
X83893732Y-140211598D01*
X84007378Y-140211598D01*
X84008925Y-140153782D01*
X84004513Y-140046513D01*
X83985317Y-139977954D01*
X83942401Y-139923585D01*
X83916522Y-139900259D01*
X83835698Y-139845901D01*
X83757760Y-139835613D01*
X83726022Y-139840514D01*
G36*
X82808744Y-139876196D02*
G01*
X82762737Y-139959453D01*
X82736298Y-140094606D01*
X82727715Y-140210725D01*
X82723112Y-140335840D01*
X82725258Y-140410517D01*
X82737016Y-140447695D01*
X82761248Y-140460318D01*
X82783189Y-140461490D01*
X82817369Y-140456583D01*
X82837386Y-140433015D01*
X82846985Y-140377509D01*
X82849910Y-140276789D01*
X82850050Y-140224482D01*
X82852405Y-140098938D01*
X82861744Y-140021799D01*
X82881479Y-139978068D01*
X82911472Y-139954602D01*
X83005483Y-139939633D01*
X83054347Y-139952699D01*
X83095887Y-139972463D01*
X83120214Y-140002586D01*
X83131910Y-140058258D01*
X83135560Y-140154667D01*
X83135800Y-140222579D01*
X83137291Y-140344570D01*
X83144090Y-140416227D01*
X83159690Y-140450688D01*
X83187584Y-140461094D01*
X83199300Y-140461490D01*
X83228794Y-140456941D01*
X83247417Y-140435451D01*
X83257643Y-140385248D01*
X83261946Y-140294563D01*
X83262800Y-140159360D01*
X83262800Y-139857231D01*
X83175488Y-139858108D01*
X83081129Y-139853196D01*
X82976641Y-139840154D01*
X82976407Y-139840115D01*
X82878556Y-139838520D01*
X82808744Y-139876196D01*
G37*
X82808744Y-139876196D02*
X82762737Y-139959453D01*
X82736298Y-140094606D01*
X82727715Y-140210725D01*
X82723112Y-140335840D01*
X82725258Y-140410517D01*
X82737016Y-140447695D01*
X82761248Y-140460318D01*
X82783189Y-140461490D01*
X82817369Y-140456583D01*
X82837386Y-140433015D01*
X82846985Y-140377509D01*
X82849910Y-140276789D01*
X82850050Y-140224482D01*
X82852405Y-140098938D01*
X82861744Y-140021799D01*
X82881479Y-139978068D01*
X82911472Y-139954602D01*
X83005483Y-139939633D01*
X83054347Y-139952699D01*
X83095887Y-139972463D01*
X83120214Y-140002586D01*
X83131910Y-140058258D01*
X83135560Y-140154667D01*
X83135800Y-140222579D01*
X83137291Y-140344570D01*
X83144090Y-140416227D01*
X83159690Y-140450688D01*
X83187584Y-140461094D01*
X83199300Y-140461490D01*
X83228794Y-140456941D01*
X83247417Y-140435451D01*
X83257643Y-140385248D01*
X83261946Y-140294563D01*
X83262800Y-140159360D01*
X83262800Y-139857231D01*
X83175488Y-139858108D01*
X83081129Y-139853196D01*
X82976641Y-139840154D01*
X82976407Y-139840115D01*
X82878556Y-139838520D01*
X82808744Y-139876196D01*
G36*
X82048008Y-139557841D02*
G01*
X82036563Y-139603029D01*
X82029266Y-139691211D01*
X82025482Y-139829539D01*
X82024550Y-139994376D01*
X82024550Y-140453304D01*
X82222988Y-140457032D01*
X82332860Y-140455452D01*
X82418489Y-140447587D01*
X82456360Y-140437313D01*
X82518173Y-140361715D01*
X82555854Y-140243211D01*
X82563044Y-140158435D01*
X82437300Y-140158435D01*
X82428609Y-140250560D01*
X82406971Y-140317599D01*
X82399200Y-140328140D01*
X82330436Y-140359984D01*
X82240957Y-140362412D01*
X82166324Y-140335422D01*
X82157900Y-140328140D01*
X82128374Y-140262299D01*
X82120778Y-140164973D01*
X82133964Y-140063834D01*
X82166784Y-139986557D01*
X82172346Y-139979802D01*
X82249195Y-139928361D01*
X82324783Y-139932336D01*
X82388211Y-139984378D01*
X82428580Y-140077139D01*
X82437300Y-140158435D01*
X82563044Y-140158435D01*
X82564300Y-140143634D01*
X82540782Y-140022562D01*
X82478901Y-139923090D01*
X82391672Y-139854981D01*
X82292108Y-139827997D01*
X82193222Y-139851900D01*
X82183300Y-139857827D01*
X82154188Y-139865661D01*
X82135871Y-139835411D01*
X82123000Y-139755871D01*
X82119800Y-139724869D01*
X82103693Y-139629622D01*
X82079822Y-139564545D01*
X82064238Y-139548496D01*
X82048008Y-139557841D01*
G37*
X82048008Y-139557841D02*
X82036563Y-139603029D01*
X82029266Y-139691211D01*
X82025482Y-139829539D01*
X82024550Y-139994376D01*
X82024550Y-140453304D01*
X82222988Y-140457032D01*
X82332860Y-140455452D01*
X82418489Y-140447587D01*
X82456360Y-140437313D01*
X82518173Y-140361715D01*
X82555854Y-140243211D01*
X82563044Y-140158435D01*
X82437300Y-140158435D01*
X82428609Y-140250560D01*
X82406971Y-140317599D01*
X82399200Y-140328140D01*
X82330436Y-140359984D01*
X82240957Y-140362412D01*
X82166324Y-140335422D01*
X82157900Y-140328140D01*
X82128374Y-140262299D01*
X82120778Y-140164973D01*
X82133964Y-140063834D01*
X82166784Y-139986557D01*
X82172346Y-139979802D01*
X82249195Y-139928361D01*
X82324783Y-139932336D01*
X82388211Y-139984378D01*
X82428580Y-140077139D01*
X82437300Y-140158435D01*
X82563044Y-140158435D01*
X82564300Y-140143634D01*
X82540782Y-140022562D01*
X82478901Y-139923090D01*
X82391672Y-139854981D01*
X82292108Y-139827997D01*
X82193222Y-139851900D01*
X82183300Y-139857827D01*
X82154188Y-139865661D01*
X82135871Y-139835411D01*
X82123000Y-139755871D01*
X82119800Y-139724869D01*
X82103693Y-139629622D01*
X82079822Y-139564545D01*
X82064238Y-139548496D01*
X82048008Y-139557841D01*
G36*
X81145568Y-139585245D02*
G01*
X81132387Y-139594703D01*
X81113979Y-139629996D01*
X81078080Y-139711273D01*
X81030041Y-139825272D01*
X80975212Y-139958727D01*
X80918945Y-140098376D01*
X80866590Y-140230952D01*
X80823499Y-140343194D01*
X80795023Y-140421835D01*
X80786300Y-140452595D01*
X80813412Y-140459450D01*
X80860650Y-140461490D01*
X80914119Y-140448075D01*
X80950825Y-140397478D01*
X80973049Y-140334490D01*
X80998635Y-140259102D01*
X81029845Y-140221658D01*
X81087151Y-140208879D01*
X81168832Y-140207490D01*
X81263779Y-140210289D01*
X81317197Y-140227603D01*
X81351048Y-140272806D01*
X81377380Y-140334490D01*
X81429409Y-140428807D01*
X81485891Y-140461442D01*
X81488248Y-140461490D01*
X81538009Y-140453010D01*
X81548300Y-140442302D01*
X81536684Y-140398970D01*
X81505447Y-140312067D01*
X81460010Y-140194703D01*
X81422710Y-140102020D01*
X81294300Y-140102020D01*
X81266101Y-140108429D01*
X81195681Y-140111984D01*
X81167558Y-140112240D01*
X81040815Y-140112240D01*
X81092957Y-139977302D01*
X81137241Y-139871483D01*
X81169856Y-139824575D01*
X81197940Y-139834838D01*
X81228632Y-139900532D01*
X81242836Y-139940760D01*
X81272311Y-140029121D01*
X81290932Y-140088508D01*
X81294300Y-140102020D01*
X81422710Y-140102020D01*
X81405794Y-140059988D01*
X81348219Y-139921035D01*
X81292705Y-139790952D01*
X81244672Y-139682850D01*
X81209542Y-139609841D01*
X81193954Y-139585215D01*
X81145568Y-139585245D01*
G37*
X81145568Y-139585245D02*
X81132387Y-139594703D01*
X81113979Y-139629996D01*
X81078080Y-139711273D01*
X81030041Y-139825272D01*
X80975212Y-139958727D01*
X80918945Y-140098376D01*
X80866590Y-140230952D01*
X80823499Y-140343194D01*
X80795023Y-140421835D01*
X80786300Y-140452595D01*
X80813412Y-140459450D01*
X80860650Y-140461490D01*
X80914119Y-140448075D01*
X80950825Y-140397478D01*
X80973049Y-140334490D01*
X80998635Y-140259102D01*
X81029845Y-140221658D01*
X81087151Y-140208879D01*
X81168832Y-140207490D01*
X81263779Y-140210289D01*
X81317197Y-140227603D01*
X81351048Y-140272806D01*
X81377380Y-140334490D01*
X81429409Y-140428807D01*
X81485891Y-140461442D01*
X81488248Y-140461490D01*
X81538009Y-140453010D01*
X81548300Y-140442302D01*
X81536684Y-140398970D01*
X81505447Y-140312067D01*
X81460010Y-140194703D01*
X81422710Y-140102020D01*
X81294300Y-140102020D01*
X81266101Y-140108429D01*
X81195681Y-140111984D01*
X81167558Y-140112240D01*
X81040815Y-140112240D01*
X81092957Y-139977302D01*
X81137241Y-139871483D01*
X81169856Y-139824575D01*
X81197940Y-139834838D01*
X81228632Y-139900532D01*
X81242836Y-139940760D01*
X81272311Y-140029121D01*
X81290932Y-140088508D01*
X81294300Y-140102020D01*
X81422710Y-140102020D01*
X81405794Y-140059988D01*
X81348219Y-139921035D01*
X81292705Y-139790952D01*
X81244672Y-139682850D01*
X81209542Y-139609841D01*
X81193954Y-139585215D01*
X81145568Y-139585245D01*
G36*
X80367123Y-139857604D02*
G01*
X80367644Y-139888756D01*
X80426605Y-139932146D01*
X80433402Y-139935728D01*
X80483835Y-139964581D01*
X80513327Y-139997134D01*
X80527493Y-140049769D01*
X80531950Y-140138865D01*
X80532300Y-140224180D01*
X80533810Y-140345680D01*
X80540690Y-140416886D01*
X80556468Y-140450979D01*
X80584669Y-140461138D01*
X80595800Y-140461490D01*
X80625482Y-140456879D01*
X80644141Y-140435144D01*
X80654309Y-140384425D01*
X80658517Y-140292865D01*
X80659300Y-140164045D01*
X80659300Y-139866600D01*
X80524363Y-139848377D01*
X80420782Y-139842782D01*
X80367123Y-139857604D01*
G37*
X80367123Y-139857604D02*
X80367644Y-139888756D01*
X80426605Y-139932146D01*
X80433402Y-139935728D01*
X80483835Y-139964581D01*
X80513327Y-139997134D01*
X80527493Y-140049769D01*
X80531950Y-140138865D01*
X80532300Y-140224180D01*
X80533810Y-140345680D01*
X80540690Y-140416886D01*
X80556468Y-140450979D01*
X80584669Y-140461138D01*
X80595800Y-140461490D01*
X80625482Y-140456879D01*
X80644141Y-140435144D01*
X80654309Y-140384425D01*
X80658517Y-140292865D01*
X80659300Y-140164045D01*
X80659300Y-139866600D01*
X80524363Y-139848377D01*
X80420782Y-139842782D01*
X80367123Y-139857604D01*
G36*
X80097616Y-139696138D02*
G01*
X80087800Y-139762990D01*
X80079258Y-139831062D01*
X80042943Y-139855965D01*
X80008425Y-139858240D01*
X79948757Y-139869108D01*
X79929050Y-139889990D01*
X79956222Y-139913857D01*
X80008425Y-139921740D01*
X80051243Y-139925404D01*
X80075010Y-139946002D01*
X80085319Y-139997945D01*
X80087763Y-140095642D01*
X80087800Y-140126241D01*
X80082086Y-140255680D01*
X80060747Y-140333806D01*
X80017489Y-140372117D01*
X79947730Y-140382115D01*
X79890853Y-140400144D01*
X79873646Y-140421802D01*
X79887449Y-140448499D01*
X79955865Y-140460453D01*
X80000488Y-140461490D01*
X80090425Y-140457069D01*
X80151203Y-140445947D01*
X80161884Y-140440323D01*
X80171892Y-140400563D01*
X80179347Y-140314268D01*
X80182918Y-140198395D01*
X80183050Y-140170448D01*
X80185372Y-140041682D01*
X80193786Y-139964950D01*
X80210465Y-139928906D01*
X80230675Y-139921740D01*
X80272953Y-139906400D01*
X80278300Y-139893386D01*
X80253033Y-139858678D01*
X80230675Y-139846758D01*
X80194431Y-139804472D01*
X80183050Y-139748111D01*
X80166664Y-139683526D01*
X80135425Y-139667740D01*
X80097616Y-139696138D01*
G37*
X80097616Y-139696138D02*
X80087800Y-139762990D01*
X80079258Y-139831062D01*
X80042943Y-139855965D01*
X80008425Y-139858240D01*
X79948757Y-139869108D01*
X79929050Y-139889990D01*
X79956222Y-139913857D01*
X80008425Y-139921740D01*
X80051243Y-139925404D01*
X80075010Y-139946002D01*
X80085319Y-139997945D01*
X80087763Y-140095642D01*
X80087800Y-140126241D01*
X80082086Y-140255680D01*
X80060747Y-140333806D01*
X80017489Y-140372117D01*
X79947730Y-140382115D01*
X79890853Y-140400144D01*
X79873646Y-140421802D01*
X79887449Y-140448499D01*
X79955865Y-140460453D01*
X80000488Y-140461490D01*
X80090425Y-140457069D01*
X80151203Y-140445947D01*
X80161884Y-140440323D01*
X80171892Y-140400563D01*
X80179347Y-140314268D01*
X80182918Y-140198395D01*
X80183050Y-140170448D01*
X80185372Y-140041682D01*
X80193786Y-139964950D01*
X80210465Y-139928906D01*
X80230675Y-139921740D01*
X80272953Y-139906400D01*
X80278300Y-139893386D01*
X80253033Y-139858678D01*
X80230675Y-139846758D01*
X80194431Y-139804472D01*
X80183050Y-139748111D01*
X80166664Y-139683526D01*
X80135425Y-139667740D01*
X80097616Y-139696138D01*
G36*
X79418576Y-139856762D02*
G01*
X79389353Y-139905780D01*
X79389300Y-139908312D01*
X79413773Y-139938220D01*
X79491265Y-139945401D01*
X79508363Y-139944603D01*
X79595998Y-139953768D01*
X79629971Y-139988366D01*
X79609672Y-140038931D01*
X79534490Y-140095998D01*
X79518678Y-140104413D01*
X79413012Y-140173306D01*
X79365024Y-140247520D01*
X79369061Y-140336998D01*
X79375272Y-140356627D01*
X79399005Y-140407923D01*
X79436389Y-140436038D01*
X79505763Y-140449554D01*
X79585564Y-140455053D01*
X79690534Y-140454809D01*
X79763655Y-140443505D01*
X79785387Y-140431016D01*
X79781530Y-140395551D01*
X79734200Y-140373282D01*
X79663161Y-140371624D01*
X79639764Y-140376364D01*
X79546105Y-140383571D01*
X79493864Y-140354876D01*
X79484894Y-140304043D01*
X79521049Y-140244838D01*
X79604182Y-140191026D01*
X79614248Y-140186831D01*
X79718298Y-140124498D01*
X79775588Y-140046918D01*
X79783382Y-139966346D01*
X79738944Y-139895042D01*
X79686741Y-139862110D01*
X79584787Y-139832206D01*
X79489559Y-139831330D01*
X79418576Y-139856762D01*
G37*
X79418576Y-139856762D02*
X79389353Y-139905780D01*
X79389300Y-139908312D01*
X79413773Y-139938220D01*
X79491265Y-139945401D01*
X79508363Y-139944603D01*
X79595998Y-139953768D01*
X79629971Y-139988366D01*
X79609672Y-140038931D01*
X79534490Y-140095998D01*
X79518678Y-140104413D01*
X79413012Y-140173306D01*
X79365024Y-140247520D01*
X79369061Y-140336998D01*
X79375272Y-140356627D01*
X79399005Y-140407923D01*
X79436389Y-140436038D01*
X79505763Y-140449554D01*
X79585564Y-140455053D01*
X79690534Y-140454809D01*
X79763655Y-140443505D01*
X79785387Y-140431016D01*
X79781530Y-140395551D01*
X79734200Y-140373282D01*
X79663161Y-140371624D01*
X79639764Y-140376364D01*
X79546105Y-140383571D01*
X79493864Y-140354876D01*
X79484894Y-140304043D01*
X79521049Y-140244838D01*
X79604182Y-140191026D01*
X79614248Y-140186831D01*
X79718298Y-140124498D01*
X79775588Y-140046918D01*
X79783382Y-139966346D01*
X79738944Y-139895042D01*
X79686741Y-139862110D01*
X79584787Y-139832206D01*
X79489559Y-139831330D01*
X79418576Y-139856762D01*
G36*
X91113711Y-139662425D02*
G01*
X91105050Y-139699490D01*
X91127645Y-139750567D01*
X91175766Y-139761724D01*
X91216175Y-139731240D01*
X91220313Y-139677985D01*
X91179025Y-139640762D01*
X91150802Y-139635990D01*
X91113711Y-139662425D01*
G37*
X91113711Y-139662425D02*
X91105050Y-139699490D01*
X91127645Y-139750567D01*
X91175766Y-139761724D01*
X91216175Y-139731240D01*
X91220313Y-139677985D01*
X91179025Y-139640762D01*
X91150802Y-139635990D01*
X91113711Y-139662425D01*
G36*
X87748211Y-139662425D02*
G01*
X87739550Y-139699490D01*
X87762145Y-139750567D01*
X87810266Y-139761724D01*
X87850675Y-139731240D01*
X87854813Y-139677985D01*
X87813525Y-139640762D01*
X87785302Y-139635990D01*
X87748211Y-139662425D01*
G37*
X87748211Y-139662425D02*
X87739550Y-139699490D01*
X87762145Y-139750567D01*
X87810266Y-139761724D01*
X87850675Y-139731240D01*
X87854813Y-139677985D01*
X87813525Y-139640762D01*
X87785302Y-139635990D01*
X87748211Y-139662425D01*
G36*
X83383201Y-138243160D02*
G01*
X83368344Y-138261148D01*
X83369089Y-138301165D01*
X83387238Y-138371423D01*
X83424590Y-138480136D01*
X83482949Y-138635516D01*
X83519867Y-138731457D01*
X83581436Y-138880084D01*
X83638588Y-138998229D01*
X83685514Y-139074601D01*
X83707634Y-139096418D01*
X83788481Y-139123664D01*
X83866092Y-139125896D01*
X83918832Y-139104681D01*
X83929550Y-139080365D01*
X83901995Y-139042034D01*
X83850991Y-139032740D01*
X83772985Y-139005525D01*
X83727829Y-138945427D01*
X83708469Y-138898805D01*
X83704057Y-138850449D01*
X83717187Y-138785099D01*
X83750449Y-138687497D01*
X83788493Y-138588240D01*
X83845171Y-138439896D01*
X83878766Y-138340520D01*
X83890617Y-138280461D01*
X83882062Y-138250070D01*
X83854441Y-138239698D01*
X83836946Y-138238990D01*
X83799550Y-138253208D01*
X83763851Y-138302874D01*
X83723545Y-138398505D01*
X83698909Y-138469177D01*
X83621727Y-138699365D01*
X83547139Y-138469177D01*
X83503490Y-138345857D01*
X83467235Y-138273905D01*
X83432116Y-138242673D01*
X83411859Y-138238989D01*
X83383201Y-138243160D01*
G37*
X83383201Y-138243160D02*
X83368344Y-138261148D01*
X83369089Y-138301165D01*
X83387238Y-138371423D01*
X83424590Y-138480136D01*
X83482949Y-138635516D01*
X83519867Y-138731457D01*
X83581436Y-138880084D01*
X83638588Y-138998229D01*
X83685514Y-139074601D01*
X83707634Y-139096418D01*
X83788481Y-139123664D01*
X83866092Y-139125896D01*
X83918832Y-139104681D01*
X83929550Y-139080365D01*
X83901995Y-139042034D01*
X83850991Y-139032740D01*
X83772985Y-139005525D01*
X83727829Y-138945427D01*
X83708469Y-138898805D01*
X83704057Y-138850449D01*
X83717187Y-138785099D01*
X83750449Y-138687497D01*
X83788493Y-138588240D01*
X83845171Y-138439896D01*
X83878766Y-138340520D01*
X83890617Y-138280461D01*
X83882062Y-138250070D01*
X83854441Y-138239698D01*
X83836946Y-138238990D01*
X83799550Y-138253208D01*
X83763851Y-138302874D01*
X83723545Y-138398505D01*
X83698909Y-138469177D01*
X83621727Y-138699365D01*
X83547139Y-138469177D01*
X83503490Y-138345857D01*
X83467235Y-138273905D01*
X83432116Y-138242673D01*
X83411859Y-138238989D01*
X83383201Y-138243160D01*
G36*
X93104523Y-138244638D02*
G01*
X93085468Y-138270376D01*
X93076352Y-138329389D01*
X93073642Y-138434867D01*
X93073550Y-138475997D01*
X93066234Y-138624264D01*
X93041727Y-138716427D01*
X92996189Y-138758464D01*
X92925783Y-138756351D01*
X92898925Y-138747890D01*
X92864839Y-138726242D01*
X92842925Y-138681795D01*
X92828792Y-138600300D01*
X92819550Y-138490240D01*
X92808364Y-138365139D01*
X92793257Y-138290803D01*
X92770521Y-138254497D01*
X92748113Y-138244898D01*
X92722287Y-138246055D01*
X92705924Y-138268807D01*
X92696920Y-138324240D01*
X92693175Y-138423445D01*
X92692550Y-138537931D01*
X92693255Y-138678248D01*
X92697226Y-138766804D01*
X92707247Y-138815336D01*
X92726102Y-138835580D01*
X92756575Y-138839274D01*
X92763988Y-138839070D01*
X92844440Y-138843451D01*
X92943084Y-138857420D01*
X92950052Y-138858735D01*
X93037192Y-138866530D01*
X93097578Y-138841095D01*
X93132614Y-138807937D01*
X93168212Y-138759840D01*
X93188927Y-138698928D01*
X93198464Y-138607704D01*
X93200550Y-138487003D01*
X93199163Y-138362244D01*
X93192796Y-138288048D01*
X93178144Y-138251500D01*
X93151898Y-138239684D01*
X93137050Y-138238990D01*
X93104523Y-138244638D01*
G37*
X93104523Y-138244638D02*
X93085468Y-138270376D01*
X93076352Y-138329389D01*
X93073642Y-138434867D01*
X93073550Y-138475997D01*
X93066234Y-138624264D01*
X93041727Y-138716427D01*
X92996189Y-138758464D01*
X92925783Y-138756351D01*
X92898925Y-138747890D01*
X92864839Y-138726242D01*
X92842925Y-138681795D01*
X92828792Y-138600300D01*
X92819550Y-138490240D01*
X92808364Y-138365139D01*
X92793257Y-138290803D01*
X92770521Y-138254497D01*
X92748113Y-138244898D01*
X92722287Y-138246055D01*
X92705924Y-138268807D01*
X92696920Y-138324240D01*
X92693175Y-138423445D01*
X92692550Y-138537931D01*
X92693255Y-138678248D01*
X92697226Y-138766804D01*
X92707247Y-138815336D01*
X92726102Y-138835580D01*
X92756575Y-138839274D01*
X92763988Y-138839070D01*
X92844440Y-138843451D01*
X92943084Y-138857420D01*
X92950052Y-138858735D01*
X93037192Y-138866530D01*
X93097578Y-138841095D01*
X93132614Y-138807937D01*
X93168212Y-138759840D01*
X93188927Y-138698928D01*
X93198464Y-138607704D01*
X93200550Y-138487003D01*
X93199163Y-138362244D01*
X93192796Y-138288048D01*
X93178144Y-138251500D01*
X93151898Y-138239684D01*
X93137050Y-138238990D01*
X93104523Y-138244638D01*
G36*
X92086799Y-138241068D02*
G01*
X92033944Y-138280832D01*
X92025800Y-138306129D01*
X92053024Y-138324805D01*
X92122341Y-138318081D01*
X92239672Y-138316390D01*
X92323107Y-138367042D01*
X92368201Y-138466124D01*
X92375050Y-138540615D01*
X92353165Y-138664898D01*
X92290471Y-138742926D01*
X92191413Y-138770783D01*
X92122341Y-138763148D01*
X92052383Y-138755397D01*
X92026845Y-138776995D01*
X92025800Y-138788389D01*
X92054920Y-138832326D01*
X92132734Y-138862634D01*
X92237677Y-138873556D01*
X92306010Y-138854033D01*
X92387479Y-138805215D01*
X92404364Y-138791792D01*
X92466287Y-138729734D01*
X92494861Y-138663459D01*
X92502039Y-138564359D01*
X92502050Y-138557949D01*
X92478889Y-138406094D01*
X92411562Y-138295479D01*
X92303304Y-138230716D01*
X92265893Y-138221389D01*
X92171070Y-138218799D01*
X92086799Y-138241068D01*
G37*
X92086799Y-138241068D02*
X92033944Y-138280832D01*
X92025800Y-138306129D01*
X92053024Y-138324805D01*
X92122341Y-138318081D01*
X92239672Y-138316390D01*
X92323107Y-138367042D01*
X92368201Y-138466124D01*
X92375050Y-138540615D01*
X92353165Y-138664898D01*
X92290471Y-138742926D01*
X92191413Y-138770783D01*
X92122341Y-138763148D01*
X92052383Y-138755397D01*
X92026845Y-138776995D01*
X92025800Y-138788389D01*
X92054920Y-138832326D01*
X92132734Y-138862634D01*
X92237677Y-138873556D01*
X92306010Y-138854033D01*
X92387479Y-138805215D01*
X92404364Y-138791792D01*
X92466287Y-138729734D01*
X92494861Y-138663459D01*
X92502039Y-138564359D01*
X92502050Y-138557949D01*
X92478889Y-138406094D01*
X92411562Y-138295479D01*
X92303304Y-138230716D01*
X92265893Y-138221389D01*
X92171070Y-138218799D01*
X92086799Y-138241068D01*
G36*
X91485358Y-138246379D02*
G01*
X91483299Y-138247937D01*
X91409455Y-138334236D01*
X91364774Y-138442866D01*
X91359050Y-138490902D01*
X91364978Y-138526339D01*
X91392166Y-138546093D01*
X91454726Y-138554649D01*
X91565425Y-138556490D01*
X91677573Y-138558670D01*
X91740114Y-138567874D01*
X91766869Y-138588094D01*
X91771800Y-138616102D01*
X91743445Y-138693882D01*
X91662904Y-138743836D01*
X91540945Y-138761660D01*
X91452350Y-138772296D01*
X91404722Y-138796695D01*
X91405256Y-138826585D01*
X91460940Y-138853638D01*
X91626199Y-138869944D01*
X91773700Y-138827287D01*
X91777558Y-138825222D01*
X91850249Y-138766710D01*
X91890562Y-138680157D01*
X91904367Y-138551071D01*
X91904384Y-138511961D01*
X91894086Y-138434410D01*
X91771800Y-138434410D01*
X91743413Y-138450413D01*
X91671594Y-138460010D01*
X91628925Y-138461240D01*
X91528127Y-138452767D01*
X91487180Y-138427082D01*
X91486050Y-138419964D01*
X91512912Y-138354462D01*
X91574670Y-138309147D01*
X91608963Y-138302490D01*
X91666080Y-138322532D01*
X91727847Y-138368378D01*
X91767823Y-138418609D01*
X91771800Y-138434410D01*
X91894086Y-138434410D01*
X91890709Y-138408987D01*
X91842432Y-138331008D01*
X91804957Y-138294552D01*
X91695214Y-138226890D01*
X91583262Y-138210047D01*
X91485358Y-138246379D01*
G37*
X91485358Y-138246379D02*
X91483299Y-138247937D01*
X91409455Y-138334236D01*
X91364774Y-138442866D01*
X91359050Y-138490902D01*
X91364978Y-138526339D01*
X91392166Y-138546093D01*
X91454726Y-138554649D01*
X91565425Y-138556490D01*
X91677573Y-138558670D01*
X91740114Y-138567874D01*
X91766869Y-138588094D01*
X91771800Y-138616102D01*
X91743445Y-138693882D01*
X91662904Y-138743836D01*
X91540945Y-138761660D01*
X91452350Y-138772296D01*
X91404722Y-138796695D01*
X91405256Y-138826585D01*
X91460940Y-138853638D01*
X91626199Y-138869944D01*
X91773700Y-138827287D01*
X91777558Y-138825222D01*
X91850249Y-138766710D01*
X91890562Y-138680157D01*
X91904367Y-138551071D01*
X91904384Y-138511961D01*
X91894086Y-138434410D01*
X91771800Y-138434410D01*
X91743413Y-138450413D01*
X91671594Y-138460010D01*
X91628925Y-138461240D01*
X91528127Y-138452767D01*
X91487180Y-138427082D01*
X91486050Y-138419964D01*
X91512912Y-138354462D01*
X91574670Y-138309147D01*
X91608963Y-138302490D01*
X91666080Y-138322532D01*
X91727847Y-138368378D01*
X91767823Y-138418609D01*
X91771800Y-138434410D01*
X91894086Y-138434410D01*
X91890709Y-138408987D01*
X91842432Y-138331008D01*
X91804957Y-138294552D01*
X91695214Y-138226890D01*
X91583262Y-138210047D01*
X91485358Y-138246379D01*
G36*
X89655881Y-138235200D02*
G01*
X89579185Y-138305533D01*
X89528295Y-138397914D01*
X89517550Y-138459796D01*
X89517550Y-138556490D01*
X89723925Y-138556490D01*
X89847888Y-138561604D01*
X89914744Y-138580396D01*
X89930315Y-138618034D01*
X89900423Y-138679690D01*
X89885888Y-138700341D01*
X89838086Y-138740276D01*
X89760675Y-138755196D01*
X89695388Y-138754721D01*
X89598456Y-138756765D01*
X89554358Y-138775414D01*
X89549300Y-138791598D01*
X89577220Y-138834667D01*
X89648450Y-138861661D01*
X89744196Y-138869750D01*
X89845666Y-138856101D01*
X89887216Y-138842507D01*
X89982127Y-138771847D01*
X90040854Y-138658138D01*
X90056595Y-138541487D01*
X90033507Y-138429224D01*
X89921361Y-138429224D01*
X89876533Y-138453330D01*
X89774196Y-138461240D01*
X89682764Y-138456487D01*
X89624268Y-138444317D01*
X89612800Y-138434410D01*
X89634058Y-138395454D01*
X89678470Y-138348151D01*
X89731984Y-138309249D01*
X89780872Y-138312140D01*
X89826737Y-138335293D01*
X89904863Y-138389637D01*
X89921361Y-138429224D01*
X90033507Y-138429224D01*
X90028599Y-138405365D01*
X89954151Y-138296095D01*
X89845152Y-138226260D01*
X89740445Y-138207240D01*
X89655881Y-138235200D01*
G37*
X89655881Y-138235200D02*
X89579185Y-138305533D01*
X89528295Y-138397914D01*
X89517550Y-138459796D01*
X89517550Y-138556490D01*
X89723925Y-138556490D01*
X89847888Y-138561604D01*
X89914744Y-138580396D01*
X89930315Y-138618034D01*
X89900423Y-138679690D01*
X89885888Y-138700341D01*
X89838086Y-138740276D01*
X89760675Y-138755196D01*
X89695388Y-138754721D01*
X89598456Y-138756765D01*
X89554358Y-138775414D01*
X89549300Y-138791598D01*
X89577220Y-138834667D01*
X89648450Y-138861661D01*
X89744196Y-138869750D01*
X89845666Y-138856101D01*
X89887216Y-138842507D01*
X89982127Y-138771847D01*
X90040854Y-138658138D01*
X90056595Y-138541487D01*
X90033507Y-138429224D01*
X89921361Y-138429224D01*
X89876533Y-138453330D01*
X89774196Y-138461240D01*
X89682764Y-138456487D01*
X89624268Y-138444317D01*
X89612800Y-138434410D01*
X89634058Y-138395454D01*
X89678470Y-138348151D01*
X89731984Y-138309249D01*
X89780872Y-138312140D01*
X89826737Y-138335293D01*
X89904863Y-138389637D01*
X89921361Y-138429224D01*
X90033507Y-138429224D01*
X90028599Y-138405365D01*
X89954151Y-138296095D01*
X89845152Y-138226260D01*
X89740445Y-138207240D01*
X89655881Y-138235200D01*
G36*
X88350738Y-137959177D02*
G01*
X88320159Y-137976282D01*
X88301128Y-138022095D01*
X88289911Y-138109868D01*
X88285219Y-138191693D01*
X88284408Y-138422516D01*
X88306950Y-138598681D01*
X88355330Y-138725503D01*
X88432029Y-138808295D01*
X88539530Y-138852370D01*
X88597848Y-138860923D01*
X88701857Y-138862131D01*
X88789730Y-138850061D01*
X88809262Y-138843632D01*
X88884750Y-138797535D01*
X88937357Y-138727750D01*
X88970535Y-138624153D01*
X88987737Y-138476620D01*
X88992385Y-138306602D01*
X88991818Y-138155394D01*
X88987547Y-138056343D01*
X88977802Y-137998135D01*
X88960815Y-137969459D01*
X88938113Y-137959596D01*
X88910088Y-137960944D01*
X88893289Y-137986695D01*
X88884871Y-138048847D01*
X88881986Y-138159398D01*
X88881793Y-138196974D01*
X88874071Y-138396575D01*
X88853209Y-138555638D01*
X88820672Y-138666512D01*
X88781659Y-138719398D01*
X88720638Y-138738840D01*
X88644425Y-138746017D01*
X88561477Y-138737533D01*
X88507192Y-138719398D01*
X88465203Y-138659648D01*
X88433540Y-138544667D01*
X88413667Y-138382106D01*
X88407058Y-138196974D01*
X88405125Y-138072052D01*
X88398372Y-137998583D01*
X88383954Y-137964551D01*
X88359024Y-137957939D01*
X88350738Y-137959177D01*
G37*
X88350738Y-137959177D02*
X88320159Y-137976282D01*
X88301128Y-138022095D01*
X88289911Y-138109868D01*
X88285219Y-138191693D01*
X88284408Y-138422516D01*
X88306950Y-138598681D01*
X88355330Y-138725503D01*
X88432029Y-138808295D01*
X88539530Y-138852370D01*
X88597848Y-138860923D01*
X88701857Y-138862131D01*
X88789730Y-138850061D01*
X88809262Y-138843632D01*
X88884750Y-138797535D01*
X88937357Y-138727750D01*
X88970535Y-138624153D01*
X88987737Y-138476620D01*
X88992385Y-138306602D01*
X88991818Y-138155394D01*
X88987547Y-138056343D01*
X88977802Y-137998135D01*
X88960815Y-137969459D01*
X88938113Y-137959596D01*
X88910088Y-137960944D01*
X88893289Y-137986695D01*
X88884871Y-138048847D01*
X88881986Y-138159398D01*
X88881793Y-138196974D01*
X88874071Y-138396575D01*
X88853209Y-138555638D01*
X88820672Y-138666512D01*
X88781659Y-138719398D01*
X88720638Y-138738840D01*
X88644425Y-138746017D01*
X88561477Y-138737533D01*
X88507192Y-138719398D01*
X88465203Y-138659648D01*
X88433540Y-138544667D01*
X88413667Y-138382106D01*
X88407058Y-138196974D01*
X88405125Y-138072052D01*
X88398372Y-137998583D01*
X88383954Y-137964551D01*
X88359024Y-137957939D01*
X88350738Y-137959177D01*
G36*
X86003669Y-138235086D02*
G01*
X85928436Y-138304963D01*
X85877713Y-138396375D01*
X85866300Y-138459796D01*
X85866300Y-138556490D01*
X86072675Y-138556490D01*
X86196638Y-138561604D01*
X86263494Y-138580396D01*
X86279065Y-138618034D01*
X86249173Y-138679690D01*
X86234638Y-138700341D01*
X86186836Y-138740276D01*
X86109425Y-138755196D01*
X86044138Y-138754721D01*
X85947206Y-138756765D01*
X85903108Y-138775414D01*
X85898050Y-138791598D01*
X85925717Y-138836161D01*
X85996199Y-138863029D01*
X86090723Y-138869962D01*
X86190512Y-138854719D01*
X86246675Y-138833208D01*
X86343021Y-138754424D01*
X86394124Y-138648934D01*
X86403560Y-138530639D01*
X86380402Y-138435918D01*
X86262460Y-138435918D01*
X86245940Y-138454152D01*
X86186401Y-138460571D01*
X86120300Y-138461240D01*
X86026830Y-138459250D01*
X85984341Y-138449266D01*
X85980344Y-138425262D01*
X85992354Y-138399508D01*
X86032853Y-138340746D01*
X86057255Y-138318083D01*
X86121477Y-138310682D01*
X86194890Y-138342483D01*
X86248451Y-138399890D01*
X86262460Y-138435918D01*
X86380402Y-138435918D01*
X86374906Y-138413439D01*
X86311738Y-138311234D01*
X86217633Y-138237927D01*
X86096168Y-138207415D01*
X86085613Y-138207239D01*
X86003669Y-138235086D01*
G37*
X86003669Y-138235086D02*
X85928436Y-138304963D01*
X85877713Y-138396375D01*
X85866300Y-138459796D01*
X85866300Y-138556490D01*
X86072675Y-138556490D01*
X86196638Y-138561604D01*
X86263494Y-138580396D01*
X86279065Y-138618034D01*
X86249173Y-138679690D01*
X86234638Y-138700341D01*
X86186836Y-138740276D01*
X86109425Y-138755196D01*
X86044138Y-138754721D01*
X85947206Y-138756765D01*
X85903108Y-138775414D01*
X85898050Y-138791598D01*
X85925717Y-138836161D01*
X85996199Y-138863029D01*
X86090723Y-138869962D01*
X86190512Y-138854719D01*
X86246675Y-138833208D01*
X86343021Y-138754424D01*
X86394124Y-138648934D01*
X86403560Y-138530639D01*
X86380402Y-138435918D01*
X86262460Y-138435918D01*
X86245940Y-138454152D01*
X86186401Y-138460571D01*
X86120300Y-138461240D01*
X86026830Y-138459250D01*
X85984341Y-138449266D01*
X85980344Y-138425262D01*
X85992354Y-138399508D01*
X86032853Y-138340746D01*
X86057255Y-138318083D01*
X86121477Y-138310682D01*
X86194890Y-138342483D01*
X86248451Y-138399890D01*
X86262460Y-138435918D01*
X86380402Y-138435918D01*
X86374906Y-138413439D01*
X86311738Y-138311234D01*
X86217633Y-138237927D01*
X86096168Y-138207415D01*
X86085613Y-138207239D01*
X86003669Y-138235086D01*
G36*
X84990862Y-138223843D02*
G01*
X84982953Y-138226491D01*
X84919838Y-138260682D01*
X84916038Y-138292130D01*
X84967542Y-138313439D01*
X85032808Y-138318365D01*
X85127340Y-138332705D01*
X85165925Y-138369096D01*
X85147465Y-138417588D01*
X85070862Y-138468235D01*
X85050319Y-138477010D01*
X84931202Y-138544125D01*
X84873918Y-138625464D01*
X84878388Y-138721145D01*
X84880917Y-138728134D01*
X84945752Y-138820981D01*
X85045429Y-138865661D01*
X85169807Y-138858822D01*
X85223363Y-138841250D01*
X85287305Y-138803235D01*
X85293432Y-138771309D01*
X85247365Y-138754432D01*
X85171508Y-138758589D01*
X85072220Y-138763691D01*
X85014611Y-138737392D01*
X85010024Y-138732288D01*
X84987170Y-138680679D01*
X85014400Y-138632034D01*
X85096963Y-138578822D01*
X85127671Y-138563535D01*
X85235723Y-138497471D01*
X85285009Y-138427633D01*
X85280137Y-138346215D01*
X85270350Y-138321706D01*
X85204749Y-138247553D01*
X85104855Y-138212702D01*
X84990862Y-138223843D01*
G37*
X84990862Y-138223843D02*
X84982953Y-138226491D01*
X84919838Y-138260682D01*
X84916038Y-138292130D01*
X84967542Y-138313439D01*
X85032808Y-138318365D01*
X85127340Y-138332705D01*
X85165925Y-138369096D01*
X85147465Y-138417588D01*
X85070862Y-138468235D01*
X85050319Y-138477010D01*
X84931202Y-138544125D01*
X84873918Y-138625464D01*
X84878388Y-138721145D01*
X84880917Y-138728134D01*
X84945752Y-138820981D01*
X85045429Y-138865661D01*
X85169807Y-138858822D01*
X85223363Y-138841250D01*
X85287305Y-138803235D01*
X85293432Y-138771309D01*
X85247365Y-138754432D01*
X85171508Y-138758589D01*
X85072220Y-138763691D01*
X85014611Y-138737392D01*
X85010024Y-138732288D01*
X84987170Y-138680679D01*
X85014400Y-138632034D01*
X85096963Y-138578822D01*
X85127671Y-138563535D01*
X85235723Y-138497471D01*
X85285009Y-138427633D01*
X85280137Y-138346215D01*
X85270350Y-138321706D01*
X85204749Y-138247553D01*
X85104855Y-138212702D01*
X84990862Y-138223843D01*
G36*
X84230894Y-138061318D02*
G01*
X84216120Y-138112213D01*
X84215300Y-138141411D01*
X84207233Y-138210551D01*
X84172621Y-138236334D01*
X84135925Y-138238990D01*
X84076257Y-138249858D01*
X84056550Y-138270740D01*
X84083722Y-138294607D01*
X84135925Y-138302490D01*
X84177642Y-138305828D01*
X84201386Y-138325138D01*
X84212213Y-138374362D01*
X84215181Y-138467440D01*
X84215300Y-138521343D01*
X84208863Y-138657509D01*
X84186692Y-138738139D01*
X84144501Y-138770154D01*
X84078002Y-138760476D01*
X84069205Y-138757235D01*
X84031438Y-138756582D01*
X84029789Y-138797919D01*
X84066532Y-138850200D01*
X84136270Y-138868786D01*
X84217403Y-138852410D01*
X84276877Y-138812413D01*
X84313182Y-138764003D01*
X84333325Y-138698161D01*
X84341449Y-138596662D01*
X84342300Y-138524740D01*
X84345101Y-138403987D01*
X84355172Y-138334877D01*
X84375016Y-138305730D01*
X84389925Y-138302490D01*
X84432177Y-138285345D01*
X84437550Y-138270740D01*
X84411988Y-138242223D01*
X84392034Y-138238990D01*
X84354768Y-138211043D01*
X84336472Y-138151948D01*
X84309367Y-138079563D01*
X84270863Y-138054370D01*
X84230894Y-138061318D01*
G37*
X84230894Y-138061318D02*
X84216120Y-138112213D01*
X84215300Y-138141411D01*
X84207233Y-138210551D01*
X84172621Y-138236334D01*
X84135925Y-138238990D01*
X84076257Y-138249858D01*
X84056550Y-138270740D01*
X84083722Y-138294607D01*
X84135925Y-138302490D01*
X84177642Y-138305828D01*
X84201386Y-138325138D01*
X84212213Y-138374362D01*
X84215181Y-138467440D01*
X84215300Y-138521343D01*
X84208863Y-138657509D01*
X84186692Y-138738139D01*
X84144501Y-138770154D01*
X84078002Y-138760476D01*
X84069205Y-138757235D01*
X84031438Y-138756582D01*
X84029789Y-138797919D01*
X84066532Y-138850200D01*
X84136270Y-138868786D01*
X84217403Y-138852410D01*
X84276877Y-138812413D01*
X84313182Y-138764003D01*
X84333325Y-138698161D01*
X84341449Y-138596662D01*
X84342300Y-138524740D01*
X84345101Y-138403987D01*
X84355172Y-138334877D01*
X84375016Y-138305730D01*
X84389925Y-138302490D01*
X84432177Y-138285345D01*
X84437550Y-138270740D01*
X84411988Y-138242223D01*
X84392034Y-138238990D01*
X84354768Y-138211043D01*
X84336472Y-138151948D01*
X84309367Y-138079563D01*
X84270863Y-138054370D01*
X84230894Y-138061318D01*
G36*
X82546455Y-138222101D02*
G01*
X82443892Y-138272517D01*
X82367130Y-138364187D01*
X82342909Y-138426302D01*
X82328145Y-138569499D01*
X82358326Y-138693208D01*
X82423580Y-138790099D01*
X82514041Y-138852842D01*
X82619838Y-138874108D01*
X82731103Y-138846567D01*
X82820743Y-138781182D01*
X82895006Y-138665446D01*
X82911859Y-138542070D01*
X82787216Y-138542070D01*
X82765215Y-138649246D01*
X82723050Y-138715240D01*
X82641894Y-138770977D01*
X82567118Y-138765119D01*
X82518991Y-138728894D01*
X82463409Y-138643011D01*
X82446475Y-138547461D01*
X82461696Y-138454186D01*
X82502577Y-138375127D01*
X82562625Y-138322225D01*
X82635348Y-138307423D01*
X82714252Y-138342660D01*
X82724330Y-138351272D01*
X82773619Y-138433824D01*
X82787216Y-138542070D01*
X82911859Y-138542070D01*
X82913473Y-138530259D01*
X82875272Y-138388036D01*
X82851446Y-138343900D01*
X82765982Y-138255240D01*
X82659068Y-138215491D01*
X82546455Y-138222101D01*
G37*
X82546455Y-138222101D02*
X82443892Y-138272517D01*
X82367130Y-138364187D01*
X82342909Y-138426302D01*
X82328145Y-138569499D01*
X82358326Y-138693208D01*
X82423580Y-138790099D01*
X82514041Y-138852842D01*
X82619838Y-138874108D01*
X82731103Y-138846567D01*
X82820743Y-138781182D01*
X82895006Y-138665446D01*
X82911859Y-138542070D01*
X82787216Y-138542070D01*
X82765215Y-138649246D01*
X82723050Y-138715240D01*
X82641894Y-138770977D01*
X82567118Y-138765119D01*
X82518991Y-138728894D01*
X82463409Y-138643011D01*
X82446475Y-138547461D01*
X82461696Y-138454186D01*
X82502577Y-138375127D01*
X82562625Y-138322225D01*
X82635348Y-138307423D01*
X82714252Y-138342660D01*
X82724330Y-138351272D01*
X82773619Y-138433824D01*
X82787216Y-138542070D01*
X82911859Y-138542070D01*
X82913473Y-138530259D01*
X82875272Y-138388036D01*
X82851446Y-138343900D01*
X82765982Y-138255240D01*
X82659068Y-138215491D01*
X82546455Y-138222101D01*
G36*
X93713948Y-137956854D02*
G01*
X93696104Y-137974575D01*
X93685119Y-138016718D01*
X93679343Y-138093598D01*
X93677123Y-138215530D01*
X93676800Y-138350115D01*
X93676800Y-138746990D01*
X93502175Y-138746990D01*
X93396866Y-138751265D01*
X93342649Y-138766268D01*
X93327550Y-138794615D01*
X93340024Y-138819735D01*
X93385101Y-138834481D01*
X93474265Y-138841148D01*
X93565675Y-138842240D01*
X93803800Y-138842240D01*
X93803800Y-138397740D01*
X93803329Y-138221844D01*
X93800987Y-138099688D01*
X93795379Y-138021513D01*
X93785111Y-137977561D01*
X93768790Y-137958074D01*
X93745020Y-137953292D01*
X93740300Y-137953240D01*
X93713948Y-137956854D01*
G37*
X93713948Y-137956854D02*
X93696104Y-137974575D01*
X93685119Y-138016718D01*
X93679343Y-138093598D01*
X93677123Y-138215530D01*
X93676800Y-138350115D01*
X93676800Y-138746990D01*
X93502175Y-138746990D01*
X93396866Y-138751265D01*
X93342649Y-138766268D01*
X93327550Y-138794615D01*
X93340024Y-138819735D01*
X93385101Y-138834481D01*
X93474265Y-138841148D01*
X93565675Y-138842240D01*
X93803800Y-138842240D01*
X93803800Y-138397740D01*
X93803329Y-138221844D01*
X93800987Y-138099688D01*
X93795379Y-138021513D01*
X93785111Y-137977561D01*
X93768790Y-137958074D01*
X93745020Y-137953292D01*
X93740300Y-137953240D01*
X93713948Y-137956854D01*
G36*
X90880779Y-138243229D02*
G01*
X90904404Y-138283363D01*
X90978050Y-138324521D01*
X91026300Y-138345278D01*
X91054676Y-138372516D01*
X91068454Y-138421565D01*
X91072907Y-138507752D01*
X91073300Y-138601357D01*
X91074768Y-138723952D01*
X91081469Y-138796162D01*
X91096856Y-138831077D01*
X91124378Y-138841786D01*
X91136800Y-138842240D01*
X91166314Y-138837685D01*
X91184941Y-138816168D01*
X91195161Y-138765911D01*
X91199454Y-138675133D01*
X91200300Y-138540615D01*
X91199206Y-138400048D01*
X91194387Y-138311289D01*
X91183539Y-138262661D01*
X91164357Y-138242489D01*
X91140769Y-138238989D01*
X91066768Y-138232806D01*
X90982019Y-138219146D01*
X90906817Y-138217411D01*
X90880779Y-138243229D01*
G37*
X90880779Y-138243229D02*
X90904404Y-138283363D01*
X90978050Y-138324521D01*
X91026300Y-138345278D01*
X91054676Y-138372516D01*
X91068454Y-138421565D01*
X91072907Y-138507752D01*
X91073300Y-138601357D01*
X91074768Y-138723952D01*
X91081469Y-138796162D01*
X91096856Y-138831077D01*
X91124378Y-138841786D01*
X91136800Y-138842240D01*
X91166314Y-138837685D01*
X91184941Y-138816168D01*
X91195161Y-138765911D01*
X91199454Y-138675133D01*
X91200300Y-138540615D01*
X91199206Y-138400048D01*
X91194387Y-138311289D01*
X91183539Y-138262661D01*
X91164357Y-138242489D01*
X91140769Y-138238989D01*
X91066768Y-138232806D01*
X90982019Y-138219146D01*
X90906817Y-138217411D01*
X90880779Y-138243229D01*
G36*
X90330008Y-138251636D02*
G01*
X90297309Y-138281844D01*
X90255037Y-138330789D01*
X90230558Y-138384568D01*
X90219147Y-138461833D01*
X90216082Y-138581232D01*
X90216050Y-138602671D01*
X90217533Y-138724864D01*
X90224299Y-138796706D01*
X90239828Y-138831318D01*
X90267597Y-138841825D01*
X90279550Y-138842240D01*
X90313058Y-138836185D01*
X90332184Y-138808930D01*
X90340865Y-138746832D01*
X90343039Y-138636252D01*
X90343050Y-138622257D01*
X90348842Y-138482180D01*
X90367593Y-138393484D01*
X90392943Y-138352382D01*
X90433780Y-138314432D01*
X90467291Y-138306922D01*
X90521880Y-138327461D01*
X90547932Y-138339336D01*
X90589672Y-138362844D01*
X90613880Y-138396449D01*
X90625292Y-138455966D01*
X90628651Y-138557213D01*
X90628800Y-138609211D01*
X90630364Y-138729388D01*
X90637469Y-138799385D01*
X90653736Y-138832490D01*
X90682788Y-138841994D01*
X90692300Y-138842240D01*
X90721794Y-138837691D01*
X90740417Y-138816201D01*
X90750643Y-138765998D01*
X90754946Y-138675313D01*
X90755800Y-138540110D01*
X90755800Y-138237981D01*
X90668488Y-138239433D01*
X90571353Y-138233961D01*
X90479872Y-138220735D01*
X90397263Y-138216561D01*
X90330008Y-138251636D01*
G37*
X90330008Y-138251636D02*
X90297309Y-138281844D01*
X90255037Y-138330789D01*
X90230558Y-138384568D01*
X90219147Y-138461833D01*
X90216082Y-138581232D01*
X90216050Y-138602671D01*
X90217533Y-138724864D01*
X90224299Y-138796706D01*
X90239828Y-138831318D01*
X90267597Y-138841825D01*
X90279550Y-138842240D01*
X90313058Y-138836185D01*
X90332184Y-138808930D01*
X90340865Y-138746832D01*
X90343039Y-138636252D01*
X90343050Y-138622257D01*
X90348842Y-138482180D01*
X90367593Y-138393484D01*
X90392943Y-138352382D01*
X90433780Y-138314432D01*
X90467291Y-138306922D01*
X90521880Y-138327461D01*
X90547932Y-138339336D01*
X90589672Y-138362844D01*
X90613880Y-138396449D01*
X90625292Y-138455966D01*
X90628651Y-138557213D01*
X90628800Y-138609211D01*
X90630364Y-138729388D01*
X90637469Y-138799385D01*
X90653736Y-138832490D01*
X90682788Y-138841994D01*
X90692300Y-138842240D01*
X90721794Y-138837691D01*
X90740417Y-138816201D01*
X90750643Y-138765998D01*
X90754946Y-138675313D01*
X90755800Y-138540110D01*
X90755800Y-138237981D01*
X90668488Y-138239433D01*
X90571353Y-138233961D01*
X90479872Y-138220735D01*
X90397263Y-138216561D01*
X90330008Y-138251636D01*
G36*
X87646074Y-138240561D02*
G01*
X87616125Y-138267165D01*
X87581508Y-138311111D01*
X87561123Y-138368317D01*
X87551471Y-138455537D01*
X87549050Y-138588240D01*
X87550376Y-138714793D01*
X87556482Y-138790640D01*
X87570562Y-138828553D01*
X87595808Y-138841305D01*
X87612550Y-138842240D01*
X87645231Y-138836529D01*
X87664300Y-138810560D01*
X87673350Y-138751072D01*
X87675976Y-138644808D01*
X87676050Y-138608002D01*
X87682224Y-138456858D01*
X87703689Y-138361931D01*
X87744859Y-138316874D01*
X87810149Y-138315342D01*
X87866522Y-138334228D01*
X87915339Y-138357253D01*
X87943767Y-138386475D01*
X87957316Y-138437726D01*
X87961497Y-138526835D01*
X87961800Y-138607966D01*
X87963348Y-138728529D01*
X87970386Y-138798878D01*
X87986509Y-138832271D01*
X88015309Y-138841965D01*
X88025300Y-138842240D01*
X88054794Y-138837691D01*
X88073417Y-138816201D01*
X88083643Y-138765998D01*
X88087946Y-138675313D01*
X88088800Y-138540110D01*
X88088800Y-138237981D01*
X88001488Y-138241240D01*
X87908556Y-138237265D01*
X87803332Y-138223173D01*
X87798687Y-138222295D01*
X87709033Y-138214673D01*
X87646074Y-138240561D01*
G37*
X87646074Y-138240561D02*
X87616125Y-138267165D01*
X87581508Y-138311111D01*
X87561123Y-138368317D01*
X87551471Y-138455537D01*
X87549050Y-138588240D01*
X87550376Y-138714793D01*
X87556482Y-138790640D01*
X87570562Y-138828553D01*
X87595808Y-138841305D01*
X87612550Y-138842240D01*
X87645231Y-138836529D01*
X87664300Y-138810560D01*
X87673350Y-138751072D01*
X87675976Y-138644808D01*
X87676050Y-138608002D01*
X87682224Y-138456858D01*
X87703689Y-138361931D01*
X87744859Y-138316874D01*
X87810149Y-138315342D01*
X87866522Y-138334228D01*
X87915339Y-138357253D01*
X87943767Y-138386475D01*
X87957316Y-138437726D01*
X87961497Y-138526835D01*
X87961800Y-138607966D01*
X87963348Y-138728529D01*
X87970386Y-138798878D01*
X87986509Y-138832271D01*
X88015309Y-138841965D01*
X88025300Y-138842240D01*
X88054794Y-138837691D01*
X88073417Y-138816201D01*
X88083643Y-138765998D01*
X88087946Y-138675313D01*
X88088800Y-138540110D01*
X88088800Y-138237981D01*
X88001488Y-138241240D01*
X87908556Y-138237265D01*
X87803332Y-138223173D01*
X87798687Y-138222295D01*
X87709033Y-138214673D01*
X87646074Y-138240561D01*
G36*
X87233787Y-138243544D02*
G01*
X87215160Y-138265061D01*
X87204940Y-138315318D01*
X87200647Y-138406096D01*
X87199800Y-138540615D01*
X87200759Y-138680803D01*
X87205289Y-138769280D01*
X87215870Y-138817825D01*
X87234981Y-138838216D01*
X87263300Y-138842240D01*
X87292814Y-138837685D01*
X87311441Y-138816168D01*
X87321661Y-138765911D01*
X87325954Y-138675133D01*
X87326800Y-138540615D01*
X87325842Y-138400426D01*
X87321312Y-138311949D01*
X87310731Y-138263404D01*
X87291620Y-138243013D01*
X87263300Y-138238990D01*
X87233787Y-138243544D01*
G37*
X87233787Y-138243544D02*
X87215160Y-138265061D01*
X87204940Y-138315318D01*
X87200647Y-138406096D01*
X87199800Y-138540615D01*
X87200759Y-138680803D01*
X87205289Y-138769280D01*
X87215870Y-138817825D01*
X87234981Y-138838216D01*
X87263300Y-138842240D01*
X87292814Y-138837685D01*
X87311441Y-138816168D01*
X87321661Y-138765911D01*
X87325954Y-138675133D01*
X87326800Y-138540615D01*
X87325842Y-138400426D01*
X87321312Y-138311949D01*
X87310731Y-138263404D01*
X87291620Y-138243013D01*
X87263300Y-138238990D01*
X87233787Y-138243544D01*
G36*
X86582394Y-138451175D02*
G01*
X86641599Y-138610322D01*
X86684228Y-138719227D01*
X86715249Y-138787379D01*
X86739628Y-138824271D01*
X86762332Y-138839393D01*
X86787050Y-138842240D01*
X86838617Y-138815068D01*
X86877352Y-138754927D01*
X86905919Y-138680646D01*
X86947228Y-138570896D01*
X86990906Y-138453302D01*
X87069955Y-138238990D01*
X86998252Y-138238989D01*
X86958207Y-138247595D01*
X86925449Y-138281574D01*
X86892195Y-138353173D01*
X86852936Y-138467551D01*
X86779323Y-138696112D01*
X86710589Y-138475488D01*
X86669410Y-138355316D01*
X86633847Y-138284856D01*
X86596448Y-138251683D01*
X86572200Y-138244800D01*
X86502545Y-138234736D01*
X86582394Y-138451175D01*
G37*
X86582394Y-138451175D02*
X86641599Y-138610322D01*
X86684228Y-138719227D01*
X86715249Y-138787379D01*
X86739628Y-138824271D01*
X86762332Y-138839393D01*
X86787050Y-138842240D01*
X86838617Y-138815068D01*
X86877352Y-138754927D01*
X86905919Y-138680646D01*
X86947228Y-138570896D01*
X86990906Y-138453302D01*
X87069955Y-138238990D01*
X86998252Y-138238989D01*
X86958207Y-138247595D01*
X86925449Y-138281574D01*
X86892195Y-138353173D01*
X86852936Y-138467551D01*
X86779323Y-138696112D01*
X86710589Y-138475488D01*
X86669410Y-138355316D01*
X86633847Y-138284856D01*
X86596448Y-138251683D01*
X86572200Y-138244800D01*
X86502545Y-138234736D01*
X86582394Y-138451175D01*
G36*
X85390059Y-138249712D02*
G01*
X85390050Y-138251161D01*
X85412795Y-138295610D01*
X85435408Y-138302490D01*
X85507245Y-138325364D01*
X85553760Y-138396952D01*
X85576970Y-138521701D01*
X85580550Y-138622257D01*
X85582298Y-138738336D01*
X85590166Y-138804593D01*
X85608091Y-138834668D01*
X85640011Y-138842201D01*
X85644050Y-138842240D01*
X85673544Y-138837691D01*
X85692167Y-138816201D01*
X85702393Y-138765998D01*
X85706696Y-138675313D01*
X85707550Y-138540110D01*
X85707550Y-138237981D01*
X85620238Y-138241217D01*
X85525264Y-138235352D01*
X85461488Y-138222144D01*
X85406010Y-138215679D01*
X85390059Y-138249712D01*
G37*
X85390059Y-138249712D02*
X85390050Y-138251161D01*
X85412795Y-138295610D01*
X85435408Y-138302490D01*
X85507245Y-138325364D01*
X85553760Y-138396952D01*
X85576970Y-138521701D01*
X85580550Y-138622257D01*
X85582298Y-138738336D01*
X85590166Y-138804593D01*
X85608091Y-138834668D01*
X85640011Y-138842201D01*
X85644050Y-138842240D01*
X85673544Y-138837691D01*
X85692167Y-138816201D01*
X85702393Y-138765998D01*
X85706696Y-138675313D01*
X85707550Y-138540110D01*
X85707550Y-138237981D01*
X85620238Y-138241217D01*
X85525264Y-138235352D01*
X85461488Y-138222144D01*
X85406010Y-138215679D01*
X85390059Y-138249712D01*
G36*
X84598537Y-138243544D02*
G01*
X84579910Y-138265061D01*
X84569690Y-138315318D01*
X84565397Y-138406096D01*
X84564550Y-138540615D01*
X84565509Y-138680803D01*
X84570039Y-138769280D01*
X84580620Y-138817825D01*
X84599731Y-138838216D01*
X84628050Y-138842240D01*
X84657564Y-138837685D01*
X84676191Y-138816168D01*
X84686411Y-138765911D01*
X84690704Y-138675133D01*
X84691550Y-138540615D01*
X84690592Y-138400426D01*
X84686062Y-138311949D01*
X84675481Y-138263404D01*
X84656370Y-138243013D01*
X84628050Y-138238990D01*
X84598537Y-138243544D01*
G37*
X84598537Y-138243544D02*
X84579910Y-138265061D01*
X84569690Y-138315318D01*
X84565397Y-138406096D01*
X84564550Y-138540615D01*
X84565509Y-138680803D01*
X84570039Y-138769280D01*
X84580620Y-138817825D01*
X84599731Y-138838216D01*
X84628050Y-138842240D01*
X84657564Y-138837685D01*
X84676191Y-138816168D01*
X84686411Y-138765911D01*
X84690704Y-138675133D01*
X84691550Y-138540615D01*
X84690592Y-138400426D01*
X84686062Y-138311949D01*
X84675481Y-138263404D01*
X84656370Y-138243013D01*
X84628050Y-138238990D01*
X84598537Y-138243544D01*
G36*
X81887741Y-137927555D02*
G01*
X81810580Y-137949544D01*
X81784312Y-137984947D01*
X81809881Y-138017634D01*
X81881675Y-138031466D01*
X81948549Y-138040475D01*
X81977790Y-138078542D01*
X81986875Y-138135802D01*
X81987855Y-138206741D01*
X81962862Y-138234680D01*
X81915437Y-138238990D01*
X81854813Y-138249613D01*
X81834050Y-138270740D01*
X81861222Y-138294607D01*
X81913425Y-138302490D01*
X81951863Y-138304967D01*
X81975321Y-138320782D01*
X81987498Y-138362506D01*
X81992092Y-138442712D01*
X81992800Y-138572365D01*
X81993982Y-138703586D01*
X81999475Y-138783738D01*
X82012200Y-138825239D01*
X82035080Y-138840504D01*
X82056300Y-138842240D01*
X82087176Y-138837217D01*
X82106036Y-138813873D01*
X82115800Y-138759791D01*
X82119392Y-138662554D01*
X82119800Y-138572365D01*
X82121834Y-138437441D01*
X82129235Y-138354864D01*
X82143957Y-138313568D01*
X82167425Y-138302490D01*
X82209677Y-138285345D01*
X82215050Y-138270740D01*
X82189334Y-138242572D01*
X82167425Y-138238990D01*
X82129616Y-138210591D01*
X82119800Y-138143740D01*
X82092673Y-138033954D01*
X82020438Y-137957307D01*
X81916812Y-137926578D01*
X81887741Y-137927555D01*
G37*
X81887741Y-137927555D02*
X81810580Y-137949544D01*
X81784312Y-137984947D01*
X81809881Y-138017634D01*
X81881675Y-138031466D01*
X81948549Y-138040475D01*
X81977790Y-138078542D01*
X81986875Y-138135802D01*
X81987855Y-138206741D01*
X81962862Y-138234680D01*
X81915437Y-138238990D01*
X81854813Y-138249613D01*
X81834050Y-138270740D01*
X81861222Y-138294607D01*
X81913425Y-138302490D01*
X81951863Y-138304967D01*
X81975321Y-138320782D01*
X81987498Y-138362506D01*
X81992092Y-138442712D01*
X81992800Y-138572365D01*
X81993982Y-138703586D01*
X81999475Y-138783738D01*
X82012200Y-138825239D01*
X82035080Y-138840504D01*
X82056300Y-138842240D01*
X82087176Y-138837217D01*
X82106036Y-138813873D01*
X82115800Y-138759791D01*
X82119392Y-138662554D01*
X82119800Y-138572365D01*
X82121834Y-138437441D01*
X82129235Y-138354864D01*
X82143957Y-138313568D01*
X82167425Y-138302490D01*
X82209677Y-138285345D01*
X82215050Y-138270740D01*
X82189334Y-138242572D01*
X82167425Y-138238990D01*
X82129616Y-138210591D01*
X82119800Y-138143740D01*
X82092673Y-138033954D01*
X82020438Y-137957307D01*
X81916812Y-137926578D01*
X81887741Y-137927555D01*
G36*
X87224003Y-138054091D02*
G01*
X87215675Y-138080240D01*
X87242070Y-138125070D01*
X87271238Y-138137695D01*
X87316242Y-138126651D01*
X87326800Y-138080240D01*
X87310731Y-138028129D01*
X87271238Y-138022784D01*
X87224003Y-138054091D01*
G37*
X87224003Y-138054091D02*
X87215675Y-138080240D01*
X87242070Y-138125070D01*
X87271238Y-138137695D01*
X87316242Y-138126651D01*
X87326800Y-138080240D01*
X87310731Y-138028129D01*
X87271238Y-138022784D01*
X87224003Y-138054091D01*
G36*
X84588753Y-138054091D02*
G01*
X84580425Y-138080240D01*
X84606820Y-138125070D01*
X84635988Y-138137695D01*
X84680992Y-138126651D01*
X84691550Y-138080240D01*
X84675481Y-138028129D01*
X84635988Y-138022784D01*
X84588753Y-138054091D01*
G37*
X84588753Y-138054091D02*
X84580425Y-138080240D01*
X84606820Y-138125070D01*
X84635988Y-138137695D01*
X84680992Y-138126651D01*
X84691550Y-138080240D01*
X84675481Y-138028129D01*
X84635988Y-138022784D01*
X84588753Y-138054091D01*
D11*
X119905800Y-146260740D02*
X119205800Y-146260740D01*
X119205800Y-147460740D02*
X119905800Y-147460740D01*
X129945800Y-146260740D02*
X129245800Y-146260740D01*
X129245800Y-147460740D02*
X129945800Y-147460740D01*
D13*
X122300085Y-156337406D02*
X121823895Y-156337406D01*
X122395323Y-156623120D02*
X122061990Y-155623120D01*
X121728657Y-156623120D01*
X121442942Y-155718359D02*
X121395323Y-155670740D01*
X121300085Y-155623120D01*
X121061990Y-155623120D01*
X120966752Y-155670740D01*
X120919133Y-155718359D01*
X120871514Y-155813597D01*
X120871514Y-155908835D01*
X120919133Y-156051692D01*
X121490561Y-156623120D01*
X120871514Y-156623120D01*
X130170085Y-156297406D02*
X129693895Y-156297406D01*
X130265323Y-156583120D02*
X129931990Y-155583120D01*
X129598657Y-156583120D01*
X128741514Y-156583120D02*
X129312942Y-156583120D01*
X129027228Y-156583120D02*
X129027228Y-155583120D01*
X129122466Y-155725978D01*
X129217704Y-155821216D01*
X129312942Y-155868835D01*
X130250085Y-129187406D02*
X129773895Y-129187406D01*
X130345323Y-129473120D02*
X130011990Y-128473120D01*
X129678657Y-129473120D01*
X128916752Y-128806454D02*
X128916752Y-129473120D01*
X129154847Y-128425501D02*
X129392942Y-129139787D01*
X128773895Y-129139787D01*
X122110085Y-129377406D02*
X121633895Y-129377406D01*
X122205323Y-129663120D02*
X121871990Y-128663120D01*
X121538657Y-129663120D01*
X121300561Y-128663120D02*
X120681514Y-128663120D01*
X121014847Y-129044073D01*
X120871990Y-129044073D01*
X120776752Y-129091692D01*
X120729133Y-129139311D01*
X120681514Y-129234549D01*
X120681514Y-129472644D01*
X120729133Y-129567882D01*
X120776752Y-129615501D01*
X120871990Y-129663120D01*
X121157704Y-129663120D01*
X121252942Y-129615501D01*
X121300561Y-129567882D01*
X98940561Y-156289311D02*
X98797704Y-156336930D01*
X98750085Y-156384549D01*
X98702466Y-156479787D01*
X98702466Y-156622644D01*
X98750085Y-156717882D01*
X98797704Y-156765501D01*
X98892942Y-156813120D01*
X99273895Y-156813120D01*
X99273895Y-155813120D01*
X98940561Y-155813120D01*
X98845323Y-155860740D01*
X98797704Y-155908359D01*
X98750085Y-156003597D01*
X98750085Y-156098835D01*
X98797704Y-156194073D01*
X98845323Y-156241692D01*
X98940561Y-156289311D01*
X99273895Y-156289311D01*
X98369133Y-155813120D02*
X97750085Y-155813120D01*
X98083419Y-156194073D01*
X97940561Y-156194073D01*
X97845323Y-156241692D01*
X97797704Y-156289311D01*
X97750085Y-156384549D01*
X97750085Y-156622644D01*
X97797704Y-156717882D01*
X97845323Y-156765501D01*
X97940561Y-156813120D01*
X98226276Y-156813120D01*
X98321514Y-156765501D01*
X98369133Y-156717882D01*
X90880561Y-155799311D02*
X90737704Y-155846930D01*
X90690085Y-155894549D01*
X90642466Y-155989787D01*
X90642466Y-156132644D01*
X90690085Y-156227882D01*
X90737704Y-156275501D01*
X90832942Y-156323120D01*
X91213895Y-156323120D01*
X91213895Y-155323120D01*
X90880561Y-155323120D01*
X90785323Y-155370740D01*
X90737704Y-155418359D01*
X90690085Y-155513597D01*
X90690085Y-155608835D01*
X90737704Y-155704073D01*
X90785323Y-155751692D01*
X90880561Y-155799311D01*
X91213895Y-155799311D01*
X89785323Y-155656454D02*
X89785323Y-156323120D01*
X90023419Y-155275501D02*
X90261514Y-155989787D01*
X89642466Y-155989787D01*
X98940561Y-128909311D02*
X98797704Y-128956930D01*
X98750085Y-129004549D01*
X98702466Y-129099787D01*
X98702466Y-129242644D01*
X98750085Y-129337882D01*
X98797704Y-129385501D01*
X98892942Y-129433120D01*
X99273895Y-129433120D01*
X99273895Y-128433120D01*
X98940561Y-128433120D01*
X98845323Y-128480740D01*
X98797704Y-128528359D01*
X98750085Y-128623597D01*
X98750085Y-128718835D01*
X98797704Y-128814073D01*
X98845323Y-128861692D01*
X98940561Y-128909311D01*
X99273895Y-128909311D01*
X98321514Y-128528359D02*
X98273895Y-128480740D01*
X98178657Y-128433120D01*
X97940561Y-128433120D01*
X97845323Y-128480740D01*
X97797704Y-128528359D01*
X97750085Y-128623597D01*
X97750085Y-128718835D01*
X97797704Y-128861692D01*
X98369133Y-129433120D01*
X97750085Y-129433120D01*
X90920561Y-128909311D02*
X90777704Y-128956930D01*
X90730085Y-129004549D01*
X90682466Y-129099787D01*
X90682466Y-129242644D01*
X90730085Y-129337882D01*
X90777704Y-129385501D01*
X90872942Y-129433120D01*
X91253895Y-129433120D01*
X91253895Y-128433120D01*
X90920561Y-128433120D01*
X90825323Y-128480740D01*
X90777704Y-128528359D01*
X90730085Y-128623597D01*
X90730085Y-128718835D01*
X90777704Y-128814073D01*
X90825323Y-128861692D01*
X90920561Y-128909311D01*
X91253895Y-128909311D01*
X89730085Y-129433120D02*
X90301514Y-129433120D01*
X90015800Y-129433120D02*
X90015800Y-128433120D01*
X90111038Y-128575978D01*
X90206276Y-128671216D01*
X90301514Y-128718835D01*
X105178180Y-181287406D02*
X105892466Y-181287406D01*
X106035323Y-181239787D01*
X106130561Y-181144549D01*
X106178180Y-181001692D01*
X106178180Y-180906454D01*
X105273419Y-181715978D02*
X105225800Y-181763597D01*
X105178180Y-181858835D01*
X105178180Y-182096930D01*
X105225800Y-182192168D01*
X105273419Y-182239787D01*
X105368657Y-182287406D01*
X105463895Y-182287406D01*
X105606752Y-182239787D01*
X106178180Y-181668359D01*
X106178180Y-182287406D01*
X95598180Y-104127406D02*
X96312466Y-104127406D01*
X96455323Y-104079787D01*
X96550561Y-103984549D01*
X96598180Y-103841692D01*
X96598180Y-103746454D01*
X96598180Y-105127406D02*
X96598180Y-104555978D01*
X96598180Y-104841692D02*
X95598180Y-104841692D01*
X95741038Y-104746454D01*
X95836276Y-104651216D01*
X95883895Y-104555978D01*
X120307704Y-140313120D02*
X120307704Y-141122644D01*
X120260085Y-141217882D01*
X120212466Y-141265501D01*
X120117228Y-141313120D01*
X119926752Y-141313120D01*
X119831514Y-141265501D01*
X119783895Y-141217882D01*
X119736276Y-141122644D01*
X119736276Y-140313120D01*
X119355323Y-140313120D02*
X118736276Y-140313120D01*
X119069609Y-140694073D01*
X118926752Y-140694073D01*
X118831514Y-140741692D01*
X118783895Y-140789311D01*
X118736276Y-140884549D01*
X118736276Y-141122644D01*
X118783895Y-141217882D01*
X118831514Y-141265501D01*
X118926752Y-141313120D01*
X119212466Y-141313120D01*
X119307704Y-141265501D01*
X119355323Y-141217882D01*
X130167704Y-140153120D02*
X130167704Y-140962644D01*
X130120085Y-141057882D01*
X130072466Y-141105501D01*
X129977228Y-141153120D01*
X129786752Y-141153120D01*
X129691514Y-141105501D01*
X129643895Y-141057882D01*
X129596276Y-140962644D01*
X129596276Y-140153120D01*
X129167704Y-140248359D02*
X129120085Y-140200740D01*
X129024847Y-140153120D01*
X128786752Y-140153120D01*
X128691514Y-140200740D01*
X128643895Y-140248359D01*
X128596276Y-140343597D01*
X128596276Y-140438835D01*
X128643895Y-140581692D01*
X129215323Y-141153120D01*
X128596276Y-141153120D01*
X119722466Y-148717882D02*
X119770085Y-148765501D01*
X119912942Y-148813120D01*
X120008180Y-148813120D01*
X120151038Y-148765501D01*
X120246276Y-148670263D01*
X120293895Y-148575025D01*
X120341514Y-148384549D01*
X120341514Y-148241692D01*
X120293895Y-148051216D01*
X120246276Y-147955978D01*
X120151038Y-147860740D01*
X120008180Y-147813120D01*
X119912942Y-147813120D01*
X119770085Y-147860740D01*
X119722466Y-147908359D01*
X119341514Y-147908359D02*
X119293895Y-147860740D01*
X119198657Y-147813120D01*
X118960561Y-147813120D01*
X118865323Y-147860740D01*
X118817704Y-147908359D01*
X118770085Y-148003597D01*
X118770085Y-148098835D01*
X118817704Y-148241692D01*
X119389133Y-148813120D01*
X118770085Y-148813120D01*
X129762466Y-148717882D02*
X129810085Y-148765501D01*
X129952942Y-148813120D01*
X130048180Y-148813120D01*
X130191038Y-148765501D01*
X130286276Y-148670263D01*
X130333895Y-148575025D01*
X130381514Y-148384549D01*
X130381514Y-148241692D01*
X130333895Y-148051216D01*
X130286276Y-147955978D01*
X130191038Y-147860740D01*
X130048180Y-147813120D01*
X129952942Y-147813120D01*
X129810085Y-147860740D01*
X129762466Y-147908359D01*
X128810085Y-148813120D02*
X129381514Y-148813120D01*
X129095800Y-148813120D02*
X129095800Y-147813120D01*
X129191038Y-147955978D01*
X129286276Y-148051216D01*
X129381514Y-148098835D01*
M02*
