G04 #@! TF.GenerationSoftware,KiCad,Pcbnew,(5.1.5)-3*
G04 #@! TF.CreationDate,2020-09-03T14:04:58+02:00*
G04 #@! TF.ProjectId,StepperClockMotor,53746570-7065-4724-936c-6f636b4d6f74,v1.1*
G04 #@! TF.SameCoordinates,Original*
G04 #@! TF.FileFunction,Legend,Top*
G04 #@! TF.FilePolarity,Positive*
%FSLAX46Y46*%
G04 Gerber Fmt 4.6, Leading zero omitted, Abs format (unit mm)*
G04 Created by KiCad (PCBNEW (5.1.5)-3) date 2020-09-03 14:04:58*
%MOMM*%
%LPD*%
G04 APERTURE LIST*
%ADD10C,0.200000*%
%ADD11C,0.300000*%
%ADD12C,0.150000*%
%ADD13C,0.120000*%
%ADD14C,0.010000*%
G04 APERTURE END LIST*
D10*
X109073895Y-115120740D02*
X108978657Y-115073120D01*
X108835800Y-115073120D01*
X108692942Y-115120740D01*
X108597704Y-115215978D01*
X108550085Y-115311216D01*
X108502466Y-115501692D01*
X108502466Y-115644549D01*
X108550085Y-115835025D01*
X108597704Y-115930263D01*
X108692942Y-116025501D01*
X108835800Y-116073120D01*
X108931038Y-116073120D01*
X109073895Y-116025501D01*
X109121514Y-115977882D01*
X109121514Y-115644549D01*
X108931038Y-115644549D01*
X109550085Y-116073120D02*
X109550085Y-115073120D01*
X110121514Y-116073120D01*
X110121514Y-115073120D01*
X110597704Y-116073120D02*
X110597704Y-115073120D01*
X110835800Y-115073120D01*
X110978657Y-115120740D01*
X111073895Y-115215978D01*
X111121514Y-115311216D01*
X111169133Y-115501692D01*
X111169133Y-115644549D01*
X111121514Y-115835025D01*
X111073895Y-115930263D01*
X110978657Y-116025501D01*
X110835800Y-116073120D01*
X110597704Y-116073120D01*
X126411990Y-123673120D02*
X126411990Y-122673120D01*
X126650085Y-122673120D01*
X126792942Y-122720740D01*
X126888180Y-122815978D01*
X126935800Y-122911216D01*
X126983419Y-123101692D01*
X126983419Y-123244549D01*
X126935800Y-123435025D01*
X126888180Y-123530263D01*
X126792942Y-123625501D01*
X126650085Y-123673120D01*
X126411990Y-123673120D01*
X127411990Y-123673120D02*
X127411990Y-122673120D01*
X127888180Y-123673120D02*
X127888180Y-122673120D01*
X128459609Y-123673120D01*
X128459609Y-122673120D01*
X126573895Y-119820740D02*
X126478657Y-119773120D01*
X126335800Y-119773120D01*
X126192942Y-119820740D01*
X126097704Y-119915978D01*
X126050085Y-120011216D01*
X126002466Y-120201692D01*
X126002466Y-120344549D01*
X126050085Y-120535025D01*
X126097704Y-120630263D01*
X126192942Y-120725501D01*
X126335800Y-120773120D01*
X126431038Y-120773120D01*
X126573895Y-120725501D01*
X126621514Y-120677882D01*
X126621514Y-120344549D01*
X126431038Y-120344549D01*
X127050085Y-120773120D02*
X127050085Y-119773120D01*
X127621514Y-120773120D01*
X127621514Y-119773120D01*
X128097704Y-120773120D02*
X128097704Y-119773120D01*
X128335800Y-119773120D01*
X128478657Y-119820740D01*
X128573895Y-119915978D01*
X128621514Y-120011216D01*
X128669133Y-120201692D01*
X128669133Y-120344549D01*
X128621514Y-120535025D01*
X128573895Y-120630263D01*
X128478657Y-120725501D01*
X128335800Y-120773120D01*
X128097704Y-120773120D01*
X126745323Y-116873120D02*
X126269133Y-116873120D01*
X126221514Y-117349311D01*
X126269133Y-117301692D01*
X126364371Y-117254073D01*
X126602466Y-117254073D01*
X126697704Y-117301692D01*
X126745323Y-117349311D01*
X126792942Y-117444549D01*
X126792942Y-117682644D01*
X126745323Y-117777882D01*
X126697704Y-117825501D01*
X126602466Y-117873120D01*
X126364371Y-117873120D01*
X126269133Y-117825501D01*
X126221514Y-117777882D01*
X127078657Y-116873120D02*
X127411990Y-117873120D01*
X127745323Y-116873120D01*
X108897704Y-122873120D02*
X109516752Y-122873120D01*
X109183419Y-123254073D01*
X109326276Y-123254073D01*
X109421514Y-123301692D01*
X109469133Y-123349311D01*
X109516752Y-123444549D01*
X109516752Y-123682644D01*
X109469133Y-123777882D01*
X109421514Y-123825501D01*
X109326276Y-123873120D01*
X109040561Y-123873120D01*
X108945323Y-123825501D01*
X108897704Y-123777882D01*
X109802466Y-122873120D02*
X110135800Y-123873120D01*
X110469133Y-122873120D01*
X110707228Y-122873120D02*
X111326276Y-122873120D01*
X110992942Y-123254073D01*
X111135800Y-123254073D01*
X111231038Y-123301692D01*
X111278657Y-123349311D01*
X111326276Y-123444549D01*
X111326276Y-123682644D01*
X111278657Y-123777882D01*
X111231038Y-123825501D01*
X111135800Y-123873120D01*
X110850085Y-123873120D01*
X110754847Y-123825501D01*
X110707228Y-123777882D01*
X108097704Y-121273120D02*
X108097704Y-120273120D01*
X108431038Y-120987406D01*
X108764371Y-120273120D01*
X108764371Y-121273120D01*
X109192942Y-120987406D02*
X109669133Y-120987406D01*
X109097704Y-121273120D02*
X109431038Y-120273120D01*
X109764371Y-121273120D01*
X110621514Y-120320740D02*
X110526276Y-120273120D01*
X110383419Y-120273120D01*
X110240561Y-120320740D01*
X110145323Y-120415978D01*
X110097704Y-120511216D01*
X110050085Y-120701692D01*
X110050085Y-120844549D01*
X110097704Y-121035025D01*
X110145323Y-121130263D01*
X110240561Y-121225501D01*
X110383419Y-121273120D01*
X110478657Y-121273120D01*
X110621514Y-121225501D01*
X110669133Y-121177882D01*
X110669133Y-120844549D01*
X110478657Y-120844549D01*
X111050085Y-120368359D02*
X111097704Y-120320740D01*
X111192942Y-120273120D01*
X111431038Y-120273120D01*
X111526276Y-120320740D01*
X111573895Y-120368359D01*
X111621514Y-120463597D01*
X111621514Y-120558835D01*
X111573895Y-120701692D01*
X111002466Y-121273120D01*
X111621514Y-121273120D01*
X108097704Y-118673120D02*
X108097704Y-117673120D01*
X108431038Y-118387406D01*
X108764371Y-117673120D01*
X108764371Y-118673120D01*
X109192942Y-118387406D02*
X109669133Y-118387406D01*
X109097704Y-118673120D02*
X109431038Y-117673120D01*
X109764371Y-118673120D01*
X110621514Y-117720740D02*
X110526276Y-117673120D01*
X110383419Y-117673120D01*
X110240561Y-117720740D01*
X110145323Y-117815978D01*
X110097704Y-117911216D01*
X110050085Y-118101692D01*
X110050085Y-118244549D01*
X110097704Y-118435025D01*
X110145323Y-118530263D01*
X110240561Y-118625501D01*
X110383419Y-118673120D01*
X110478657Y-118673120D01*
X110621514Y-118625501D01*
X110669133Y-118577882D01*
X110669133Y-118244549D01*
X110478657Y-118244549D01*
X111002466Y-117673120D02*
X111621514Y-117673120D01*
X111288180Y-118054073D01*
X111431038Y-118054073D01*
X111526276Y-118101692D01*
X111573895Y-118149311D01*
X111621514Y-118244549D01*
X111621514Y-118482644D01*
X111573895Y-118577882D01*
X111526276Y-118625501D01*
X111431038Y-118673120D01*
X111145323Y-118673120D01*
X111050085Y-118625501D01*
X111002466Y-118577882D01*
D11*
X120871514Y-114799311D02*
X120157228Y-114799311D01*
X120157228Y-113299311D01*
X121371514Y-114013597D02*
X121871514Y-114013597D01*
X122085800Y-114799311D02*
X121371514Y-114799311D01*
X121371514Y-113299311D01*
X122085800Y-113299311D01*
X122728657Y-114799311D02*
X122728657Y-113299311D01*
X123085800Y-113299311D01*
X123300085Y-113370740D01*
X123442942Y-113513597D01*
X123514371Y-113656454D01*
X123585800Y-113942168D01*
X123585800Y-114156454D01*
X123514371Y-114442168D01*
X123442942Y-114585025D01*
X123300085Y-114727882D01*
X123085800Y-114799311D01*
X122728657Y-114799311D01*
X111035800Y-112127882D02*
X111250085Y-112199311D01*
X111607228Y-112199311D01*
X111750085Y-112127882D01*
X111821514Y-112056454D01*
X111892942Y-111913597D01*
X111892942Y-111770740D01*
X111821514Y-111627882D01*
X111750085Y-111556454D01*
X111607228Y-111485025D01*
X111321514Y-111413597D01*
X111178657Y-111342168D01*
X111107228Y-111270740D01*
X111035800Y-111127882D01*
X111035800Y-110985025D01*
X111107228Y-110842168D01*
X111178657Y-110770740D01*
X111321514Y-110699311D01*
X111678657Y-110699311D01*
X111892942Y-110770740D01*
X113107228Y-112127882D02*
X112964371Y-112199311D01*
X112678657Y-112199311D01*
X112535800Y-112127882D01*
X112464371Y-111985025D01*
X112464371Y-111413597D01*
X112535800Y-111270740D01*
X112678657Y-111199311D01*
X112964371Y-111199311D01*
X113107228Y-111270740D01*
X113178657Y-111413597D01*
X113178657Y-111556454D01*
X112464371Y-111699311D01*
X113821514Y-111199311D02*
X113821514Y-112199311D01*
X113821514Y-111342168D02*
X113892942Y-111270740D01*
X114035800Y-111199311D01*
X114250085Y-111199311D01*
X114392942Y-111270740D01*
X114464371Y-111413597D01*
X114464371Y-112199311D01*
X115107228Y-112127882D02*
X115250085Y-112199311D01*
X115535800Y-112199311D01*
X115678657Y-112127882D01*
X115750085Y-111985025D01*
X115750085Y-111913597D01*
X115678657Y-111770740D01*
X115535800Y-111699311D01*
X115321514Y-111699311D01*
X115178657Y-111627882D01*
X115107228Y-111485025D01*
X115107228Y-111413597D01*
X115178657Y-111270740D01*
X115321514Y-111199311D01*
X115535800Y-111199311D01*
X115678657Y-111270740D01*
X116607228Y-112199311D02*
X116464371Y-112127882D01*
X116392942Y-112056454D01*
X116321514Y-111913597D01*
X116321514Y-111485025D01*
X116392942Y-111342168D01*
X116464371Y-111270740D01*
X116607228Y-111199311D01*
X116821514Y-111199311D01*
X116964371Y-111270740D01*
X117035800Y-111342168D01*
X117107228Y-111485025D01*
X117107228Y-111913597D01*
X117035800Y-112056454D01*
X116964371Y-112127882D01*
X116821514Y-112199311D01*
X116607228Y-112199311D01*
X117750085Y-112199311D02*
X117750085Y-111199311D01*
X117750085Y-111485025D02*
X117821514Y-111342168D01*
X117892942Y-111270740D01*
X118035800Y-111199311D01*
X118178657Y-111199311D01*
D10*
X100964371Y-164163597D02*
X100964371Y-162963597D01*
X101364371Y-163820740D01*
X101764371Y-162963597D01*
X101764371Y-164163597D01*
X102507228Y-164163597D02*
X102392942Y-164106454D01*
X102335800Y-164049311D01*
X102278657Y-163935025D01*
X102278657Y-163592168D01*
X102335800Y-163477882D01*
X102392942Y-163420740D01*
X102507228Y-163363597D01*
X102678657Y-163363597D01*
X102792942Y-163420740D01*
X102850085Y-163477882D01*
X102907228Y-163592168D01*
X102907228Y-163935025D01*
X102850085Y-164049311D01*
X102792942Y-164106454D01*
X102678657Y-164163597D01*
X102507228Y-164163597D01*
X103250085Y-163363597D02*
X103707228Y-163363597D01*
X103421514Y-162963597D02*
X103421514Y-163992168D01*
X103478657Y-164106454D01*
X103592942Y-164163597D01*
X103707228Y-164163597D01*
X104278657Y-164163597D02*
X104164371Y-164106454D01*
X104107228Y-164049311D01*
X104050085Y-163935025D01*
X104050085Y-163592168D01*
X104107228Y-163477882D01*
X104164371Y-163420740D01*
X104278657Y-163363597D01*
X104450085Y-163363597D01*
X104564371Y-163420740D01*
X104621514Y-163477882D01*
X104678657Y-163592168D01*
X104678657Y-163935025D01*
X104621514Y-164049311D01*
X104564371Y-164106454D01*
X104450085Y-164163597D01*
X104278657Y-164163597D01*
X105192942Y-164163597D02*
X105192942Y-163363597D01*
X105192942Y-163592168D02*
X105250085Y-163477882D01*
X105307228Y-163420740D01*
X105421514Y-163363597D01*
X105535800Y-163363597D01*
X106735800Y-162963597D02*
X107478657Y-162963597D01*
X107078657Y-163420740D01*
X107250085Y-163420740D01*
X107364371Y-163477882D01*
X107421514Y-163535025D01*
X107478657Y-163649311D01*
X107478657Y-163935025D01*
X107421514Y-164049311D01*
X107364371Y-164106454D01*
X107250085Y-164163597D01*
X106907228Y-164163597D01*
X106792942Y-164106454D01*
X106735800Y-164049311D01*
X108164371Y-164163597D02*
X108050085Y-164106454D01*
X107992942Y-164049311D01*
X107935800Y-163935025D01*
X107935800Y-163592168D01*
X107992942Y-163477882D01*
X108050085Y-163420740D01*
X108164371Y-163363597D01*
X108335800Y-163363597D01*
X108450085Y-163420740D01*
X108507228Y-163477882D01*
X108564371Y-163592168D01*
X108564371Y-163935025D01*
X108507228Y-164049311D01*
X108450085Y-164106454D01*
X108335800Y-164163597D01*
X108164371Y-164163597D01*
X101321514Y-173163597D02*
X101321514Y-171963597D01*
X101721514Y-172820740D01*
X102121514Y-171963597D01*
X102121514Y-173163597D01*
X102864371Y-173163597D02*
X102750085Y-173106454D01*
X102692942Y-173049311D01*
X102635800Y-172935025D01*
X102635800Y-172592168D01*
X102692942Y-172477882D01*
X102750085Y-172420740D01*
X102864371Y-172363597D01*
X103035800Y-172363597D01*
X103150085Y-172420740D01*
X103207228Y-172477882D01*
X103264371Y-172592168D01*
X103264371Y-172935025D01*
X103207228Y-173049311D01*
X103150085Y-173106454D01*
X103035800Y-173163597D01*
X102864371Y-173163597D01*
X103607228Y-172363597D02*
X104064371Y-172363597D01*
X103778657Y-171963597D02*
X103778657Y-172992168D01*
X103835800Y-173106454D01*
X103950085Y-173163597D01*
X104064371Y-173163597D01*
X104635800Y-173163597D02*
X104521514Y-173106454D01*
X104464371Y-173049311D01*
X104407228Y-172935025D01*
X104407228Y-172592168D01*
X104464371Y-172477882D01*
X104521514Y-172420740D01*
X104635800Y-172363597D01*
X104807228Y-172363597D01*
X104921514Y-172420740D01*
X104978657Y-172477882D01*
X105035800Y-172592168D01*
X105035800Y-172935025D01*
X104978657Y-173049311D01*
X104921514Y-173106454D01*
X104807228Y-173163597D01*
X104635800Y-173163597D01*
X105550085Y-173163597D02*
X105550085Y-172363597D01*
X105550085Y-172592168D02*
X105607228Y-172477882D01*
X105664371Y-172420740D01*
X105778657Y-172363597D01*
X105892942Y-172363597D01*
X107150085Y-172077882D02*
X107207228Y-172020740D01*
X107321514Y-171963597D01*
X107607228Y-171963597D01*
X107721514Y-172020740D01*
X107778657Y-172077882D01*
X107835800Y-172192168D01*
X107835800Y-172306454D01*
X107778657Y-172477882D01*
X107092942Y-173163597D01*
X107835800Y-173163597D01*
X108350085Y-173163597D02*
X108350085Y-172363597D01*
X108350085Y-171963597D02*
X108292942Y-172020740D01*
X108350085Y-172077882D01*
X108407228Y-172020740D01*
X108350085Y-171963597D01*
X108350085Y-172077882D01*
X64831038Y-150487406D02*
X65307228Y-150487406D01*
X64735800Y-150773120D02*
X65069133Y-149773120D01*
X65402466Y-150773120D01*
X65735800Y-150773120D02*
X65735800Y-149773120D01*
X65973895Y-149773120D01*
X66116752Y-149820740D01*
X66211990Y-149915978D01*
X66259609Y-150011216D01*
X66307228Y-150201692D01*
X66307228Y-150344549D01*
X66259609Y-150535025D01*
X66211990Y-150630263D01*
X66116752Y-150725501D01*
X65973895Y-150773120D01*
X65735800Y-150773120D01*
X66735800Y-150773120D02*
X66735800Y-149773120D01*
X67164371Y-150725501D02*
X67307228Y-150773120D01*
X67545323Y-150773120D01*
X67640561Y-150725501D01*
X67688180Y-150677882D01*
X67735800Y-150582644D01*
X67735800Y-150487406D01*
X67688180Y-150392168D01*
X67640561Y-150344549D01*
X67545323Y-150296930D01*
X67354847Y-150249311D01*
X67259609Y-150201692D01*
X67211990Y-150154073D01*
X67164371Y-150058835D01*
X67164371Y-149963597D01*
X67211990Y-149868359D01*
X67259609Y-149820740D01*
X67354847Y-149773120D01*
X67592942Y-149773120D01*
X67735800Y-149820740D01*
X68926276Y-150773120D02*
X68926276Y-149773120D01*
X69259609Y-150487406D01*
X69592942Y-149773120D01*
X69592942Y-150773120D01*
X70211990Y-150773120D02*
X70116752Y-150725501D01*
X70069133Y-150677882D01*
X70021514Y-150582644D01*
X70021514Y-150296930D01*
X70069133Y-150201692D01*
X70116752Y-150154073D01*
X70211990Y-150106454D01*
X70354847Y-150106454D01*
X70450085Y-150154073D01*
X70497704Y-150201692D01*
X70545323Y-150296930D01*
X70545323Y-150582644D01*
X70497704Y-150677882D01*
X70450085Y-150725501D01*
X70354847Y-150773120D01*
X70211990Y-150773120D01*
X70831038Y-150106454D02*
X71211990Y-150106454D01*
X70973895Y-149773120D02*
X70973895Y-150630263D01*
X71021514Y-150725501D01*
X71116752Y-150773120D01*
X71211990Y-150773120D01*
X71688180Y-150773120D02*
X71592942Y-150725501D01*
X71545323Y-150677882D01*
X71497704Y-150582644D01*
X71497704Y-150296930D01*
X71545323Y-150201692D01*
X71592942Y-150154073D01*
X71688180Y-150106454D01*
X71831038Y-150106454D01*
X71926276Y-150154073D01*
X71973895Y-150201692D01*
X72021514Y-150296930D01*
X72021514Y-150582644D01*
X71973895Y-150677882D01*
X71926276Y-150725501D01*
X71831038Y-150773120D01*
X71688180Y-150773120D01*
X72450085Y-150773120D02*
X72450085Y-150106454D01*
X72450085Y-150296930D02*
X72497704Y-150201692D01*
X72545323Y-150154073D01*
X72640561Y-150106454D01*
X72735800Y-150106454D01*
X73688180Y-149773120D02*
X74021514Y-150773120D01*
X74354847Y-149773120D01*
X75211990Y-150773120D02*
X74640561Y-150773120D01*
X74926276Y-150773120D02*
X74926276Y-149773120D01*
X74831038Y-149915978D01*
X74735800Y-150011216D01*
X74640561Y-150058835D01*
X75640561Y-150677882D02*
X75688180Y-150725501D01*
X75640561Y-150773120D01*
X75592942Y-150725501D01*
X75640561Y-150677882D01*
X75640561Y-150773120D01*
X76069133Y-149868359D02*
X76116752Y-149820740D01*
X76211990Y-149773120D01*
X76450085Y-149773120D01*
X76545323Y-149820740D01*
X76592942Y-149868359D01*
X76640561Y-149963597D01*
X76640561Y-150058835D01*
X76592942Y-150201692D01*
X76021514Y-150773120D01*
X76640561Y-150773120D01*
X66378657Y-151949311D02*
X66711990Y-151949311D01*
X66854847Y-152473120D02*
X66378657Y-152473120D01*
X66378657Y-151473120D01*
X66854847Y-151473120D01*
X67283419Y-152473120D02*
X67283419Y-151806454D01*
X67283419Y-151996930D02*
X67331038Y-151901692D01*
X67378657Y-151854073D01*
X67473895Y-151806454D01*
X67569133Y-151806454D01*
X67902466Y-152473120D02*
X67902466Y-151806454D01*
X67902466Y-151473120D02*
X67854847Y-151520740D01*
X67902466Y-151568359D01*
X67950085Y-151520740D01*
X67902466Y-151473120D01*
X67902466Y-151568359D01*
X68807228Y-152425501D02*
X68711990Y-152473120D01*
X68521514Y-152473120D01*
X68426276Y-152425501D01*
X68378657Y-152377882D01*
X68331038Y-152282644D01*
X68331038Y-151996930D01*
X68378657Y-151901692D01*
X68426276Y-151854073D01*
X68521514Y-151806454D01*
X68711990Y-151806454D01*
X68807228Y-151854073D01*
X69235800Y-152473120D02*
X69235800Y-151473120D01*
X69664371Y-152473120D02*
X69664371Y-151949311D01*
X69616752Y-151854073D01*
X69521514Y-151806454D01*
X69378657Y-151806454D01*
X69283419Y-151854073D01*
X69235800Y-151901692D01*
X70854847Y-152425501D02*
X70997704Y-152473120D01*
X71235800Y-152473120D01*
X71331038Y-152425501D01*
X71378657Y-152377882D01*
X71426276Y-152282644D01*
X71426276Y-152187406D01*
X71378657Y-152092168D01*
X71331038Y-152044549D01*
X71235800Y-151996930D01*
X71045323Y-151949311D01*
X70950085Y-151901692D01*
X70902466Y-151854073D01*
X70854847Y-151758835D01*
X70854847Y-151663597D01*
X70902466Y-151568359D01*
X70950085Y-151520740D01*
X71045323Y-151473120D01*
X71283419Y-151473120D01*
X71426276Y-151520740D01*
X71711990Y-151806454D02*
X72092942Y-151806454D01*
X71854847Y-151473120D02*
X71854847Y-152330263D01*
X71902466Y-152425501D01*
X71997704Y-152473120D01*
X72092942Y-152473120D01*
X72331038Y-151806454D02*
X72569133Y-152473120D01*
X72807228Y-151806454D02*
X72569133Y-152473120D01*
X72473895Y-152711216D01*
X72426276Y-152758835D01*
X72331038Y-152806454D01*
X73616752Y-151806454D02*
X73616752Y-152615978D01*
X73569133Y-152711216D01*
X73521514Y-152758835D01*
X73426276Y-152806454D01*
X73283419Y-152806454D01*
X73188180Y-152758835D01*
X73616752Y-152425501D02*
X73521514Y-152473120D01*
X73331038Y-152473120D01*
X73235800Y-152425501D01*
X73188180Y-152377882D01*
X73140561Y-152282644D01*
X73140561Y-151996930D01*
X73188180Y-151901692D01*
X73235800Y-151854073D01*
X73331038Y-151806454D01*
X73521514Y-151806454D01*
X73616752Y-151854073D01*
X74473895Y-152425501D02*
X74378657Y-152473120D01*
X74188180Y-152473120D01*
X74092942Y-152425501D01*
X74045323Y-152330263D01*
X74045323Y-151949311D01*
X74092942Y-151854073D01*
X74188180Y-151806454D01*
X74378657Y-151806454D01*
X74473895Y-151854073D01*
X74521514Y-151949311D01*
X74521514Y-152044549D01*
X74045323Y-152139787D01*
X74950085Y-152473120D02*
X74950085Y-151806454D01*
X74950085Y-151996930D02*
X74997704Y-151901692D01*
X75045323Y-151854073D01*
X75140561Y-151806454D01*
X75235800Y-151806454D01*
X65902466Y-153173120D02*
X66521514Y-153173120D01*
X66188180Y-153554073D01*
X66331038Y-153554073D01*
X66426276Y-153601692D01*
X66473895Y-153649311D01*
X66521514Y-153744549D01*
X66521514Y-153982644D01*
X66473895Y-154077882D01*
X66426276Y-154125501D01*
X66331038Y-154173120D01*
X66045323Y-154173120D01*
X65950085Y-154125501D01*
X65902466Y-154077882D01*
X66950085Y-153792168D02*
X67711990Y-153792168D01*
X68140561Y-154125501D02*
X68283419Y-154173120D01*
X68521514Y-154173120D01*
X68616752Y-154125501D01*
X68664371Y-154077882D01*
X68711990Y-153982644D01*
X68711990Y-153887406D01*
X68664371Y-153792168D01*
X68616752Y-153744549D01*
X68521514Y-153696930D01*
X68331038Y-153649311D01*
X68235800Y-153601692D01*
X68188180Y-153554073D01*
X68140561Y-153458835D01*
X68140561Y-153363597D01*
X68188180Y-153268359D01*
X68235800Y-153220740D01*
X68331038Y-153173120D01*
X68569133Y-153173120D01*
X68711990Y-153220740D01*
X69521514Y-154125501D02*
X69426276Y-154173120D01*
X69235800Y-154173120D01*
X69140561Y-154125501D01*
X69092942Y-154030263D01*
X69092942Y-153649311D01*
X69140561Y-153554073D01*
X69235800Y-153506454D01*
X69426276Y-153506454D01*
X69521514Y-153554073D01*
X69569133Y-153649311D01*
X69569133Y-153744549D01*
X69092942Y-153839787D01*
X69997704Y-153506454D02*
X69997704Y-154506454D01*
X69997704Y-153554073D02*
X70092942Y-153506454D01*
X70283419Y-153506454D01*
X70378657Y-153554073D01*
X70426276Y-153601692D01*
X70473895Y-153696930D01*
X70473895Y-153982644D01*
X70426276Y-154077882D01*
X70378657Y-154125501D01*
X70283419Y-154173120D01*
X70092942Y-154173120D01*
X69997704Y-154125501D01*
X70902466Y-153792168D02*
X71664371Y-153792168D01*
X72092942Y-153268359D02*
X72140561Y-153220740D01*
X72235800Y-153173120D01*
X72473895Y-153173120D01*
X72569133Y-153220740D01*
X72616752Y-153268359D01*
X72664371Y-153363597D01*
X72664371Y-153458835D01*
X72616752Y-153601692D01*
X72045323Y-154173120D01*
X72664371Y-154173120D01*
X73283419Y-153173120D02*
X73378657Y-153173120D01*
X73473895Y-153220740D01*
X73521514Y-153268359D01*
X73569133Y-153363597D01*
X73616752Y-153554073D01*
X73616752Y-153792168D01*
X73569133Y-153982644D01*
X73521514Y-154077882D01*
X73473895Y-154125501D01*
X73378657Y-154173120D01*
X73283419Y-154173120D01*
X73188180Y-154125501D01*
X73140561Y-154077882D01*
X73092942Y-153982644D01*
X73045323Y-153792168D01*
X73045323Y-153554073D01*
X73092942Y-153363597D01*
X73140561Y-153268359D01*
X73188180Y-153220740D01*
X73283419Y-153173120D01*
X73997704Y-153268359D02*
X74045323Y-153220740D01*
X74140561Y-153173120D01*
X74378657Y-153173120D01*
X74473895Y-153220740D01*
X74521514Y-153268359D01*
X74569133Y-153363597D01*
X74569133Y-153458835D01*
X74521514Y-153601692D01*
X73950085Y-154173120D01*
X74569133Y-154173120D01*
X75188180Y-153173120D02*
X75283419Y-153173120D01*
X75378657Y-153220740D01*
X75426276Y-153268359D01*
X75473895Y-153363597D01*
X75521514Y-153554073D01*
X75521514Y-153792168D01*
X75473895Y-153982644D01*
X75426276Y-154077882D01*
X75378657Y-154125501D01*
X75283419Y-154173120D01*
X75188180Y-154173120D01*
X75092942Y-154125501D01*
X75045323Y-154077882D01*
X74997704Y-153982644D01*
X74950085Y-153792168D01*
X74950085Y-153554073D01*
X74997704Y-153363597D01*
X75045323Y-153268359D01*
X75092942Y-153220740D01*
X75188180Y-153173120D01*
D12*
X125315971Y-127213911D02*
G75*
G02X125695945Y-157880740I-180171J-15338001D01*
G01*
X95525800Y-157800619D02*
G75*
G02X95475800Y-127161139I60000J15319879D01*
G01*
X94419820Y-127206033D02*
X125939820Y-127166033D01*
X94595800Y-157780740D02*
X126255800Y-157930740D01*
D13*
X119985800Y-125370740D02*
X125935800Y-125370740D01*
X125935800Y-125370740D02*
X125935800Y-115270740D01*
X125935800Y-115270740D02*
X119985800Y-115270740D01*
X119985800Y-115270740D02*
X119985800Y-125370740D01*
X119985800Y-122070740D02*
X120735800Y-122070740D01*
X120735800Y-122070740D02*
X120735800Y-118570740D01*
X120735800Y-118570740D02*
X119985800Y-118570740D01*
X119985800Y-118570740D02*
X119985800Y-122070740D01*
X119985800Y-125370740D02*
X120735800Y-125370740D01*
X120735800Y-125370740D02*
X120735800Y-123570740D01*
X120735800Y-123570740D02*
X119985800Y-123570740D01*
X119985800Y-123570740D02*
X119985800Y-125370740D01*
X119985800Y-117070740D02*
X120735800Y-117070740D01*
X120735800Y-117070740D02*
X120735800Y-115270740D01*
X120735800Y-115270740D02*
X119985800Y-115270740D01*
X119985800Y-115270740D02*
X119985800Y-117070740D01*
X122235800Y-125370740D02*
X122235800Y-124620740D01*
X122235800Y-124620740D02*
X125185800Y-124620740D01*
X125185800Y-124620740D02*
X125185800Y-120320740D01*
X122235800Y-115270740D02*
X122235800Y-116020740D01*
X122235800Y-116020740D02*
X125185800Y-116020740D01*
X125185800Y-116020740D02*
X125185800Y-120320740D01*
X119685800Y-123170740D02*
X119685800Y-125670740D01*
X119685800Y-125670740D02*
X122185800Y-125670740D01*
X117765800Y-113070740D02*
X111815800Y-113070740D01*
X111815800Y-113070740D02*
X111815800Y-125670740D01*
X111815800Y-125670740D02*
X117765800Y-125670740D01*
X117765800Y-125670740D02*
X117765800Y-113070740D01*
X117765800Y-116370740D02*
X117015800Y-116370740D01*
X117015800Y-116370740D02*
X117015800Y-122370740D01*
X117015800Y-122370740D02*
X117765800Y-122370740D01*
X117765800Y-122370740D02*
X117765800Y-116370740D01*
X117765800Y-113070740D02*
X117015800Y-113070740D01*
X117015800Y-113070740D02*
X117015800Y-114870740D01*
X117015800Y-114870740D02*
X117765800Y-114870740D01*
X117765800Y-114870740D02*
X117765800Y-113070740D01*
X117765800Y-123870740D02*
X117015800Y-123870740D01*
X117015800Y-123870740D02*
X117015800Y-125670740D01*
X117015800Y-125670740D02*
X117765800Y-125670740D01*
X117765800Y-125670740D02*
X117765800Y-123870740D01*
X115515800Y-113070740D02*
X115515800Y-113820740D01*
X115515800Y-113820740D02*
X112565800Y-113820740D01*
X112565800Y-113820740D02*
X112565800Y-119370740D01*
X115515800Y-125670740D02*
X115515800Y-124920740D01*
X115515800Y-124920740D02*
X112565800Y-124920740D01*
X112565800Y-124920740D02*
X112565800Y-119370740D01*
X118065800Y-115270740D02*
X118065800Y-112770740D01*
X118065800Y-112770740D02*
X115565800Y-112770740D01*
X110185800Y-160670740D02*
X110185800Y-166620740D01*
X110185800Y-166620740D02*
X122785800Y-166620740D01*
X122785800Y-166620740D02*
X122785800Y-160670740D01*
X122785800Y-160670740D02*
X110185800Y-160670740D01*
X113485800Y-160670740D02*
X113485800Y-161420740D01*
X113485800Y-161420740D02*
X119485800Y-161420740D01*
X119485800Y-161420740D02*
X119485800Y-160670740D01*
X119485800Y-160670740D02*
X113485800Y-160670740D01*
X110185800Y-160670740D02*
X110185800Y-161420740D01*
X110185800Y-161420740D02*
X111985800Y-161420740D01*
X111985800Y-161420740D02*
X111985800Y-160670740D01*
X111985800Y-160670740D02*
X110185800Y-160670740D01*
X120985800Y-160670740D02*
X120985800Y-161420740D01*
X120985800Y-161420740D02*
X122785800Y-161420740D01*
X122785800Y-161420740D02*
X122785800Y-160670740D01*
X122785800Y-160670740D02*
X120985800Y-160670740D01*
X110185800Y-162920740D02*
X110935800Y-162920740D01*
X110935800Y-162920740D02*
X110935800Y-165870740D01*
X110935800Y-165870740D02*
X116485800Y-165870740D01*
X122785800Y-162920740D02*
X122035800Y-162920740D01*
X122035800Y-162920740D02*
X122035800Y-165870740D01*
X122035800Y-165870740D02*
X116485800Y-165870740D01*
X112385800Y-160370740D02*
X109885800Y-160370740D01*
X109885800Y-160370740D02*
X109885800Y-162870740D01*
X122685800Y-175270740D02*
X122685800Y-169320740D01*
X122685800Y-169320740D02*
X110085800Y-169320740D01*
X110085800Y-169320740D02*
X110085800Y-175270740D01*
X110085800Y-175270740D02*
X122685800Y-175270740D01*
X119385800Y-175270740D02*
X119385800Y-174520740D01*
X119385800Y-174520740D02*
X113385800Y-174520740D01*
X113385800Y-174520740D02*
X113385800Y-175270740D01*
X113385800Y-175270740D02*
X119385800Y-175270740D01*
X122685800Y-175270740D02*
X122685800Y-174520740D01*
X122685800Y-174520740D02*
X120885800Y-174520740D01*
X120885800Y-174520740D02*
X120885800Y-175270740D01*
X120885800Y-175270740D02*
X122685800Y-175270740D01*
X111885800Y-175270740D02*
X111885800Y-174520740D01*
X111885800Y-174520740D02*
X110085800Y-174520740D01*
X110085800Y-174520740D02*
X110085800Y-175270740D01*
X110085800Y-175270740D02*
X111885800Y-175270740D01*
X122685800Y-173020740D02*
X121935800Y-173020740D01*
X121935800Y-173020740D02*
X121935800Y-170070740D01*
X121935800Y-170070740D02*
X116385800Y-170070740D01*
X110085800Y-173020740D02*
X110835800Y-173020740D01*
X110835800Y-173020740D02*
X110835800Y-170070740D01*
X110835800Y-170070740D02*
X116385800Y-170070740D01*
X120485800Y-175570740D02*
X122985800Y-175570740D01*
X122985800Y-175570740D02*
X122985800Y-173070740D01*
D14*
G36*
X76587300Y-139082240D02*
G01*
X74110800Y-139082240D01*
X74110800Y-137113740D01*
X74618800Y-137113740D01*
X74618800Y-138574240D01*
X76079300Y-138574240D01*
X76079300Y-137113740D01*
X74618800Y-137113740D01*
X74110800Y-137113740D01*
X74110800Y-136605740D01*
X76587300Y-136605740D01*
X76587300Y-139082240D01*
G37*
X76587300Y-139082240D02*
X74110800Y-139082240D01*
X74110800Y-137113740D01*
X74618800Y-137113740D01*
X74618800Y-138574240D01*
X76079300Y-138574240D01*
X76079300Y-137113740D01*
X74618800Y-137113740D01*
X74110800Y-137113740D01*
X74110800Y-136605740D01*
X76587300Y-136605740D01*
X76587300Y-139082240D01*
G36*
X67697300Y-139082240D02*
G01*
X65220800Y-139082240D01*
X65220800Y-137113740D01*
X65728800Y-137113740D01*
X65728800Y-138574240D01*
X67189300Y-138574240D01*
X67189300Y-137113740D01*
X65728800Y-137113740D01*
X65220800Y-137113740D01*
X65220800Y-136605740D01*
X67697300Y-136605740D01*
X67697300Y-139082240D01*
G37*
X67697300Y-139082240D02*
X65220800Y-139082240D01*
X65220800Y-137113740D01*
X65728800Y-137113740D01*
X65728800Y-138574240D01*
X67189300Y-138574240D01*
X67189300Y-137113740D01*
X65728800Y-137113740D01*
X65220800Y-137113740D01*
X65220800Y-136605740D01*
X67697300Y-136605740D01*
X67697300Y-139082240D01*
G36*
X67697300Y-147972240D02*
G01*
X65220800Y-147972240D01*
X65220800Y-146003740D01*
X65728800Y-146003740D01*
X65728800Y-147464240D01*
X67189300Y-147464240D01*
X67189300Y-146003740D01*
X65728800Y-146003740D01*
X65220800Y-146003740D01*
X65220800Y-145432240D01*
X67697300Y-145432240D01*
X67697300Y-147972240D01*
G37*
X67697300Y-147972240D02*
X65220800Y-147972240D01*
X65220800Y-146003740D01*
X65728800Y-146003740D01*
X65728800Y-147464240D01*
X67189300Y-147464240D01*
X67189300Y-146003740D01*
X65728800Y-146003740D01*
X65220800Y-146003740D01*
X65220800Y-145432240D01*
X67697300Y-145432240D01*
X67697300Y-147972240D01*
G36*
X70173800Y-140542740D02*
G01*
X70173800Y-140034740D01*
X69665800Y-140034740D01*
X69665800Y-139812490D01*
X69658110Y-139670191D01*
X69610631Y-139606952D01*
X69486749Y-139590736D01*
X69411800Y-139590240D01*
X69157800Y-139590240D01*
X69157800Y-139082240D01*
X69665800Y-139082240D01*
X69665800Y-139590240D01*
X70173800Y-139590240D01*
X70173800Y-139082240D01*
X70681800Y-139082240D01*
X70681800Y-140542740D01*
X70173800Y-140542740D01*
G37*
X70173800Y-140542740D02*
X70173800Y-140034740D01*
X69665800Y-140034740D01*
X69665800Y-139812490D01*
X69658110Y-139670191D01*
X69610631Y-139606952D01*
X69486749Y-139590736D01*
X69411800Y-139590240D01*
X69157800Y-139590240D01*
X69157800Y-139082240D01*
X69665800Y-139082240D01*
X69665800Y-139590240D01*
X70173800Y-139590240D01*
X70173800Y-139082240D01*
X70681800Y-139082240D01*
X70681800Y-140542740D01*
X70173800Y-140542740D01*
G36*
X70904050Y-140542740D02*
G01*
X71046348Y-140550429D01*
X71109587Y-140597908D01*
X71125803Y-140721790D01*
X71126300Y-140796740D01*
X71119571Y-140959367D01*
X71078027Y-141031639D01*
X70969630Y-141050172D01*
X70904050Y-141050740D01*
X70761751Y-141043050D01*
X70698512Y-140995571D01*
X70682296Y-140871689D01*
X70681800Y-140796740D01*
X70681800Y-140542740D01*
X70904050Y-140542740D01*
G37*
X70904050Y-140542740D02*
X71046348Y-140550429D01*
X71109587Y-140597908D01*
X71125803Y-140721790D01*
X71126300Y-140796740D01*
X71119571Y-140959367D01*
X71078027Y-141031639D01*
X70969630Y-141050172D01*
X70904050Y-141050740D01*
X70761751Y-141043050D01*
X70698512Y-140995571D01*
X70682296Y-140871689D01*
X70681800Y-140796740D01*
X70681800Y-140542740D01*
X70904050Y-140542740D01*
G36*
X69665800Y-141050740D02*
G01*
X69157800Y-141050740D01*
X69157800Y-140542740D01*
X68649800Y-140542740D01*
X68649800Y-140034740D01*
X69665800Y-140034740D01*
X69665800Y-141050740D01*
G37*
X69665800Y-141050740D02*
X69157800Y-141050740D01*
X69157800Y-140542740D01*
X68649800Y-140542740D01*
X68649800Y-140034740D01*
X69665800Y-140034740D01*
X69665800Y-141050740D01*
G36*
X74618800Y-140796740D02*
G01*
X74625528Y-140959367D01*
X74667072Y-141031639D01*
X74775469Y-141050172D01*
X74841050Y-141050740D01*
X74983348Y-141058429D01*
X75046587Y-141105908D01*
X75062803Y-141229790D01*
X75063300Y-141304740D01*
X75056571Y-141467367D01*
X75015027Y-141539639D01*
X74906630Y-141558172D01*
X74841050Y-141558740D01*
X74698751Y-141551050D01*
X74635512Y-141503571D01*
X74619296Y-141379689D01*
X74618800Y-141304740D01*
X74618800Y-141050740D01*
X74110800Y-141050740D01*
X74110800Y-140542740D01*
X74618800Y-140542740D01*
X74618800Y-140796740D01*
G37*
X74618800Y-140796740D02*
X74625528Y-140959367D01*
X74667072Y-141031639D01*
X74775469Y-141050172D01*
X74841050Y-141050740D01*
X74983348Y-141058429D01*
X75046587Y-141105908D01*
X75062803Y-141229790D01*
X75063300Y-141304740D01*
X75056571Y-141467367D01*
X75015027Y-141539639D01*
X74906630Y-141558172D01*
X74841050Y-141558740D01*
X74698751Y-141551050D01*
X74635512Y-141503571D01*
X74619296Y-141379689D01*
X74618800Y-141304740D01*
X74618800Y-141050740D01*
X74110800Y-141050740D01*
X74110800Y-140542740D01*
X74618800Y-140542740D01*
X74618800Y-140796740D01*
G36*
X73602800Y-142066740D02*
G01*
X73094800Y-142066740D01*
X73094800Y-141558740D01*
X73602800Y-141558740D01*
X73602800Y-142066740D01*
G37*
X73602800Y-142066740D02*
X73094800Y-142066740D01*
X73094800Y-141558740D01*
X73602800Y-141558740D01*
X73602800Y-142066740D01*
G36*
X71634300Y-143019240D02*
G01*
X71126300Y-143019240D01*
X71126300Y-142511240D01*
X71634300Y-142511240D01*
X71634300Y-143019240D01*
G37*
X71634300Y-143019240D02*
X71126300Y-143019240D01*
X71126300Y-142511240D01*
X71634300Y-142511240D01*
X71634300Y-143019240D01*
G36*
X74618800Y-143527240D02*
G01*
X74110800Y-143527240D01*
X74110800Y-143019240D01*
X74618800Y-143019240D01*
X74618800Y-143527240D01*
G37*
X74618800Y-143527240D02*
X74110800Y-143527240D01*
X74110800Y-143019240D01*
X74618800Y-143019240D01*
X74618800Y-143527240D01*
G36*
X65728800Y-141558740D02*
G01*
X65728800Y-141050740D01*
X66236800Y-141050740D01*
X66236800Y-141558740D01*
X65728800Y-141558740D01*
G37*
X65728800Y-141558740D02*
X65728800Y-141050740D01*
X66236800Y-141050740D01*
X66236800Y-141558740D01*
X65728800Y-141558740D01*
G36*
X67189300Y-141558740D02*
G01*
X67189300Y-142066740D01*
X67697300Y-142066740D01*
X67697300Y-141558740D01*
X68649800Y-141558740D01*
X68649800Y-142511240D01*
X68427550Y-142511240D01*
X68285251Y-142518929D01*
X68222012Y-142566408D01*
X68205796Y-142690290D01*
X68205300Y-142765240D01*
X68205300Y-143019240D01*
X67189300Y-143019240D01*
X67189300Y-143527240D01*
X66236800Y-143527240D01*
X66236800Y-144035240D01*
X65728800Y-144035240D01*
X65728800Y-143527240D01*
X65220800Y-143527240D01*
X65220800Y-143019240D01*
X65728800Y-143019240D01*
X65728800Y-142765240D01*
X66236800Y-142765240D01*
X66243528Y-142927867D01*
X66285072Y-143000139D01*
X66393469Y-143018672D01*
X66459050Y-143019240D01*
X66601348Y-143011550D01*
X66664587Y-142964071D01*
X66680803Y-142840189D01*
X66681300Y-142765240D01*
X66681300Y-142511240D01*
X66935300Y-142511240D01*
X67097927Y-142504511D01*
X67170199Y-142462967D01*
X67188732Y-142354570D01*
X67189300Y-142288990D01*
X67697300Y-142288990D01*
X67704989Y-142431288D01*
X67752468Y-142494527D01*
X67876350Y-142510743D01*
X67951300Y-142511240D01*
X68113927Y-142504511D01*
X68186199Y-142462967D01*
X68204732Y-142354570D01*
X68205300Y-142288990D01*
X68197610Y-142146691D01*
X68150131Y-142083452D01*
X68026249Y-142067236D01*
X67951300Y-142066740D01*
X67788672Y-142073468D01*
X67716400Y-142115012D01*
X67697867Y-142223409D01*
X67697300Y-142288990D01*
X67189300Y-142288990D01*
X67181610Y-142146691D01*
X67134131Y-142083452D01*
X67010249Y-142067236D01*
X66935300Y-142066740D01*
X66772672Y-142073468D01*
X66700400Y-142115012D01*
X66681867Y-142223409D01*
X66681300Y-142288990D01*
X66671470Y-142437948D01*
X66616010Y-142499038D01*
X66475966Y-142511212D01*
X66459050Y-142511240D01*
X66316751Y-142518929D01*
X66253512Y-142566408D01*
X66237296Y-142690290D01*
X66236800Y-142765240D01*
X65728800Y-142765240D01*
X65728800Y-142511240D01*
X66236800Y-142511240D01*
X66236800Y-141558740D01*
X67189300Y-141558740D01*
G37*
X67189300Y-141558740D02*
X67189300Y-142066740D01*
X67697300Y-142066740D01*
X67697300Y-141558740D01*
X68649800Y-141558740D01*
X68649800Y-142511240D01*
X68427550Y-142511240D01*
X68285251Y-142518929D01*
X68222012Y-142566408D01*
X68205796Y-142690290D01*
X68205300Y-142765240D01*
X68205300Y-143019240D01*
X67189300Y-143019240D01*
X67189300Y-143527240D01*
X66236800Y-143527240D01*
X66236800Y-144035240D01*
X65728800Y-144035240D01*
X65728800Y-143527240D01*
X65220800Y-143527240D01*
X65220800Y-143019240D01*
X65728800Y-143019240D01*
X65728800Y-142765240D01*
X66236800Y-142765240D01*
X66243528Y-142927867D01*
X66285072Y-143000139D01*
X66393469Y-143018672D01*
X66459050Y-143019240D01*
X66601348Y-143011550D01*
X66664587Y-142964071D01*
X66680803Y-142840189D01*
X66681300Y-142765240D01*
X66681300Y-142511240D01*
X66935300Y-142511240D01*
X67097927Y-142504511D01*
X67170199Y-142462967D01*
X67188732Y-142354570D01*
X67189300Y-142288990D01*
X67697300Y-142288990D01*
X67704989Y-142431288D01*
X67752468Y-142494527D01*
X67876350Y-142510743D01*
X67951300Y-142511240D01*
X68113927Y-142504511D01*
X68186199Y-142462967D01*
X68204732Y-142354570D01*
X68205300Y-142288990D01*
X68197610Y-142146691D01*
X68150131Y-142083452D01*
X68026249Y-142067236D01*
X67951300Y-142066740D01*
X67788672Y-142073468D01*
X67716400Y-142115012D01*
X67697867Y-142223409D01*
X67697300Y-142288990D01*
X67189300Y-142288990D01*
X67181610Y-142146691D01*
X67134131Y-142083452D01*
X67010249Y-142067236D01*
X66935300Y-142066740D01*
X66772672Y-142073468D01*
X66700400Y-142115012D01*
X66681867Y-142223409D01*
X66681300Y-142288990D01*
X66671470Y-142437948D01*
X66616010Y-142499038D01*
X66475966Y-142511212D01*
X66459050Y-142511240D01*
X66316751Y-142518929D01*
X66253512Y-142566408D01*
X66237296Y-142690290D01*
X66236800Y-142765240D01*
X65728800Y-142765240D01*
X65728800Y-142511240D01*
X66236800Y-142511240D01*
X66236800Y-141558740D01*
X67189300Y-141558740D01*
G36*
X72650300Y-144987740D02*
G01*
X71634300Y-144987740D01*
X71634300Y-143527240D01*
X72650300Y-143527240D01*
X72650300Y-144987740D01*
G37*
X72650300Y-144987740D02*
X71634300Y-144987740D01*
X71634300Y-143527240D01*
X72650300Y-143527240D01*
X72650300Y-144987740D01*
G36*
X74618800Y-146003740D02*
G01*
X73094800Y-146003740D01*
X73094800Y-144987740D01*
X73602800Y-144987740D01*
X73602800Y-145495740D01*
X74110800Y-145495740D01*
X74110800Y-144987740D01*
X73602800Y-144987740D01*
X73094800Y-144987740D01*
X73094800Y-144479740D01*
X74618800Y-144479740D01*
X74618800Y-146003740D01*
G37*
X74618800Y-146003740D02*
X73094800Y-146003740D01*
X73094800Y-144987740D01*
X73602800Y-144987740D01*
X73602800Y-145495740D01*
X74110800Y-145495740D01*
X74110800Y-144987740D01*
X73602800Y-144987740D01*
X73094800Y-144987740D01*
X73094800Y-144479740D01*
X74618800Y-144479740D01*
X74618800Y-146003740D01*
G36*
X72650300Y-146003740D02*
G01*
X71634300Y-146003740D01*
X71634300Y-145495740D01*
X72650300Y-145495740D01*
X72650300Y-146003740D01*
G37*
X72650300Y-146003740D02*
X71634300Y-146003740D01*
X71634300Y-145495740D01*
X72650300Y-145495740D01*
X72650300Y-146003740D01*
G36*
X70681800Y-145749740D02*
G01*
X70688528Y-145912367D01*
X70730072Y-145984639D01*
X70838469Y-146003172D01*
X70904050Y-146003740D01*
X71053008Y-146013569D01*
X71114098Y-146069029D01*
X71126272Y-146209073D01*
X71126300Y-146225990D01*
X71116470Y-146374948D01*
X71061010Y-146436038D01*
X70920966Y-146448212D01*
X70904050Y-146448240D01*
X70761751Y-146455929D01*
X70698512Y-146503408D01*
X70682296Y-146627290D01*
X70681800Y-146702240D01*
X70681800Y-146956240D01*
X69665800Y-146956240D01*
X69665800Y-146448240D01*
X70681800Y-146448240D01*
X70681800Y-146225990D01*
X70674110Y-146083691D01*
X70626631Y-146020452D01*
X70502749Y-146004236D01*
X70427800Y-146003740D01*
X70173800Y-146003740D01*
X70173800Y-145495740D01*
X70681800Y-145495740D01*
X70681800Y-145749740D01*
G37*
X70681800Y-145749740D02*
X70688528Y-145912367D01*
X70730072Y-145984639D01*
X70838469Y-146003172D01*
X70904050Y-146003740D01*
X71053008Y-146013569D01*
X71114098Y-146069029D01*
X71126272Y-146209073D01*
X71126300Y-146225990D01*
X71116470Y-146374948D01*
X71061010Y-146436038D01*
X70920966Y-146448212D01*
X70904050Y-146448240D01*
X70761751Y-146455929D01*
X70698512Y-146503408D01*
X70682296Y-146627290D01*
X70681800Y-146702240D01*
X70681800Y-146956240D01*
X69665800Y-146956240D01*
X69665800Y-146448240D01*
X70681800Y-146448240D01*
X70681800Y-146225990D01*
X70674110Y-146083691D01*
X70626631Y-146020452D01*
X70502749Y-146004236D01*
X70427800Y-146003740D01*
X70173800Y-146003740D01*
X70173800Y-145495740D01*
X70681800Y-145495740D01*
X70681800Y-145749740D01*
G36*
X71126300Y-147464240D02*
G01*
X71126300Y-146956240D01*
X71634300Y-146956240D01*
X71634300Y-146448240D01*
X72142300Y-146448240D01*
X72142300Y-147464240D01*
X71126300Y-147464240D01*
G37*
X71126300Y-147464240D02*
X71126300Y-146956240D01*
X71634300Y-146956240D01*
X71634300Y-146448240D01*
X72142300Y-146448240D01*
X72142300Y-147464240D01*
X71126300Y-147464240D01*
G36*
X72650300Y-147464240D02*
G01*
X72650300Y-147210240D01*
X72657028Y-147047612D01*
X72698572Y-146975340D01*
X72806969Y-146956807D01*
X72872550Y-146956240D01*
X73094800Y-146956240D01*
X73094800Y-147972240D01*
X72142300Y-147972240D01*
X72142300Y-147464240D01*
X72650300Y-147464240D01*
G37*
X72650300Y-147464240D02*
X72650300Y-147210240D01*
X72657028Y-147047612D01*
X72698572Y-146975340D01*
X72806969Y-146956807D01*
X72872550Y-146956240D01*
X73094800Y-146956240D01*
X73094800Y-147972240D01*
X72142300Y-147972240D01*
X72142300Y-147464240D01*
X72650300Y-147464240D01*
G36*
X77793800Y-148988240D02*
G01*
X64077800Y-148988240D01*
X64077800Y-145051240D01*
X64776300Y-145051240D01*
X64776300Y-148416740D01*
X68141800Y-148416740D01*
X68141800Y-147464240D01*
X68649800Y-147464240D01*
X68649800Y-148480240D01*
X70173800Y-148480240D01*
X70173800Y-147972240D01*
X69157800Y-147972240D01*
X69157800Y-147464240D01*
X68649800Y-147464240D01*
X68141800Y-147464240D01*
X68141800Y-146448240D01*
X68649800Y-146448240D01*
X68649800Y-146956240D01*
X69665800Y-146956240D01*
X69665800Y-147464240D01*
X70173800Y-147464240D01*
X70173800Y-147972240D01*
X71126300Y-147972240D01*
X71126300Y-148480240D01*
X73602800Y-148480240D01*
X73602800Y-148226240D01*
X74618800Y-148226240D01*
X74618800Y-148480240D01*
X75571300Y-148480240D01*
X76079300Y-148480240D01*
X77095300Y-148480240D01*
X77095300Y-146956240D01*
X76587300Y-146956240D01*
X76587300Y-147464240D01*
X76079300Y-147464240D01*
X76079300Y-148480240D01*
X75571300Y-148480240D01*
X75571300Y-147464240D01*
X76079300Y-147464240D01*
X76079300Y-146956240D01*
X75063300Y-146956240D01*
X75063300Y-147972240D01*
X74841050Y-147972240D01*
X74698751Y-147979929D01*
X74635512Y-148027408D01*
X74619296Y-148151290D01*
X74618800Y-148226240D01*
X73602800Y-148226240D01*
X73602800Y-146448240D01*
X74110800Y-146448240D01*
X74110800Y-147464240D01*
X74618800Y-147464240D01*
X74618800Y-147210240D01*
X74625528Y-147047612D01*
X74667072Y-146975340D01*
X74775469Y-146956807D01*
X74841050Y-146956240D01*
X75063300Y-146956240D01*
X75063300Y-146003740D01*
X75317300Y-146003740D01*
X75479927Y-146010468D01*
X75552199Y-146052012D01*
X75570732Y-146160409D01*
X75571300Y-146225990D01*
X75571300Y-146448240D01*
X76587300Y-146448240D01*
X76587300Y-146225990D01*
X76594989Y-146083691D01*
X76642468Y-146020452D01*
X76766350Y-146004236D01*
X76841300Y-146003740D01*
X77095300Y-146003740D01*
X77095300Y-144987740D01*
X76079300Y-144987740D01*
X76079300Y-145495740D01*
X75571300Y-145495740D01*
X75571300Y-144987740D01*
X75063300Y-144987740D01*
X75063300Y-144257490D01*
X76587300Y-144257490D01*
X76594989Y-144399788D01*
X76642468Y-144463027D01*
X76766350Y-144479243D01*
X76841300Y-144479740D01*
X77003927Y-144473011D01*
X77076199Y-144431467D01*
X77094732Y-144323070D01*
X77095300Y-144257490D01*
X77087610Y-144115191D01*
X77040131Y-144051952D01*
X76916249Y-144035736D01*
X76841300Y-144035240D01*
X76678672Y-144041968D01*
X76606400Y-144083512D01*
X76587867Y-144191909D01*
X76587300Y-144257490D01*
X75063300Y-144257490D01*
X75063300Y-144035240D01*
X74841050Y-144035240D01*
X74698751Y-144027550D01*
X74635512Y-143980071D01*
X74619296Y-143856189D01*
X74618800Y-143781240D01*
X74618800Y-143527240D01*
X75571300Y-143527240D01*
X75571300Y-143019240D01*
X75063300Y-143019240D01*
X75063300Y-142765240D01*
X75056571Y-142602612D01*
X75015027Y-142530340D01*
X74906630Y-142511807D01*
X74841050Y-142511240D01*
X74692091Y-142501410D01*
X74631001Y-142445950D01*
X74618827Y-142305906D01*
X74618800Y-142288990D01*
X74628629Y-142140031D01*
X74684089Y-142078941D01*
X74824133Y-142066767D01*
X74841050Y-142066740D01*
X75571300Y-142066740D01*
X75571300Y-143019240D01*
X76079300Y-143019240D01*
X76079300Y-143527240D01*
X76587300Y-143527240D01*
X76587300Y-143019240D01*
X76079300Y-143019240D01*
X76079300Y-142511240D01*
X77095300Y-142511240D01*
X77095300Y-141558740D01*
X76587300Y-141558740D01*
X76587300Y-142066740D01*
X75571300Y-142066740D01*
X74841050Y-142066740D01*
X74983348Y-142059050D01*
X75046587Y-142011571D01*
X75062803Y-141887689D01*
X75063300Y-141812740D01*
X75063300Y-141558740D01*
X76079300Y-141558740D01*
X76079300Y-141050740D01*
X75063300Y-141050740D01*
X75063300Y-140034740D01*
X75571300Y-140034740D01*
X75571300Y-140542740D01*
X76079300Y-140542740D01*
X76079300Y-141050740D01*
X76587300Y-141050740D01*
X76587300Y-140034740D01*
X75571300Y-140034740D01*
X75063300Y-140034740D01*
X73602800Y-140034740D01*
X73602800Y-141050740D01*
X73094800Y-141050740D01*
X73094800Y-141304740D01*
X73088071Y-141467367D01*
X73046527Y-141539639D01*
X72938130Y-141558172D01*
X72872550Y-141558740D01*
X72650300Y-141558740D01*
X72650300Y-142511240D01*
X73602800Y-142511240D01*
X73602800Y-142288990D01*
X73610489Y-142146691D01*
X73657968Y-142083452D01*
X73781850Y-142067236D01*
X73856800Y-142066740D01*
X74110800Y-142066740D01*
X74110800Y-143019240D01*
X73602800Y-143019240D01*
X73602800Y-143527240D01*
X73094800Y-143527240D01*
X73094800Y-143019240D01*
X72142300Y-143019240D01*
X72142300Y-142066740D01*
X71634300Y-142066740D01*
X71634300Y-141558740D01*
X71126300Y-141558740D01*
X71126300Y-142511240D01*
X70681800Y-142511240D01*
X70681800Y-143527240D01*
X71126300Y-143527240D01*
X71126300Y-144479740D01*
X70904050Y-144479740D01*
X70761751Y-144487429D01*
X70698512Y-144534908D01*
X70682296Y-144658790D01*
X70681800Y-144733740D01*
X70681800Y-144987740D01*
X70173800Y-144987740D01*
X70173800Y-145495740D01*
X69665800Y-145495740D01*
X69665800Y-146003740D01*
X69411800Y-146003740D01*
X69249172Y-146010468D01*
X69176900Y-146052012D01*
X69158367Y-146160409D01*
X69157800Y-146225990D01*
X69150110Y-146368288D01*
X69102631Y-146431527D01*
X68978749Y-146447743D01*
X68903800Y-146448240D01*
X68649800Y-146448240D01*
X68141800Y-146448240D01*
X68141800Y-145495740D01*
X68649800Y-145495740D01*
X69157800Y-145495740D01*
X69157800Y-144987740D01*
X69665800Y-144987740D01*
X69665800Y-144479740D01*
X68649800Y-144479740D01*
X68649800Y-145495740D01*
X68141800Y-145495740D01*
X68141800Y-145051240D01*
X64776300Y-145051240D01*
X64077800Y-145051240D01*
X64077800Y-143019240D01*
X64712800Y-143019240D01*
X64712800Y-143527240D01*
X65220800Y-143527240D01*
X65220800Y-144035240D01*
X64966800Y-144035240D01*
X64804172Y-144041968D01*
X64731900Y-144083512D01*
X64713367Y-144191909D01*
X64712800Y-144257490D01*
X64712800Y-144479740D01*
X66681300Y-144479740D01*
X66681300Y-144257490D01*
X66688989Y-144115191D01*
X66736468Y-144051952D01*
X66860350Y-144035736D01*
X66935300Y-144035240D01*
X67097927Y-144041968D01*
X67170199Y-144083512D01*
X67188732Y-144191909D01*
X67189300Y-144257490D01*
X67189300Y-144479740D01*
X68649800Y-144479740D01*
X68649800Y-144257490D01*
X68657489Y-144115191D01*
X68704968Y-144051952D01*
X68828850Y-144035736D01*
X68903800Y-144035240D01*
X69157800Y-144035240D01*
X69157800Y-143527240D01*
X68649800Y-143527240D01*
X68649800Y-144035240D01*
X67697300Y-144035240D01*
X67697300Y-143527240D01*
X68205300Y-143527240D01*
X68205300Y-143273240D01*
X68212028Y-143110612D01*
X68253572Y-143038340D01*
X68361969Y-143019807D01*
X68427550Y-143019240D01*
X69157800Y-143019240D01*
X69157800Y-143527240D01*
X69665800Y-143527240D01*
X69665800Y-143019240D01*
X69157800Y-143019240D01*
X68427550Y-143019240D01*
X68569848Y-143011550D01*
X68633087Y-142964071D01*
X68649303Y-142840189D01*
X68649800Y-142765240D01*
X68649800Y-142511240D01*
X69157800Y-142511240D01*
X69665800Y-142511240D01*
X69665800Y-143019240D01*
X70173800Y-143019240D01*
X70173800Y-142511240D01*
X69665800Y-142511240D01*
X69157800Y-142511240D01*
X69157800Y-141558740D01*
X70173800Y-141558740D01*
X70173800Y-141050740D01*
X70681800Y-141050740D01*
X70681800Y-141304740D01*
X70688528Y-141467367D01*
X70730072Y-141539639D01*
X70838469Y-141558172D01*
X70904050Y-141558740D01*
X71126300Y-141558740D01*
X71126300Y-141050740D01*
X71634300Y-141050740D01*
X71634300Y-140542740D01*
X72142300Y-140542740D01*
X72142300Y-141050740D01*
X73094800Y-141050740D01*
X73094800Y-140542740D01*
X72142300Y-140542740D01*
X71634300Y-140542740D01*
X71126300Y-140542740D01*
X71126300Y-139082240D01*
X71634300Y-139082240D01*
X71634300Y-140034740D01*
X72142300Y-140034740D01*
X72142300Y-139082240D01*
X71634300Y-139082240D01*
X71126300Y-139082240D01*
X70904050Y-139082240D01*
X70761751Y-139074550D01*
X70698512Y-139027071D01*
X70682296Y-138903189D01*
X70681800Y-138828240D01*
X70681800Y-138574240D01*
X70173800Y-138574240D01*
X70173800Y-139082240D01*
X69665800Y-139082240D01*
X69665800Y-138574240D01*
X69157800Y-138574240D01*
X69157800Y-138066240D01*
X70681800Y-138066240D01*
X70681800Y-137843990D01*
X70691629Y-137695031D01*
X70747089Y-137633941D01*
X70887133Y-137621767D01*
X70904050Y-137621740D01*
X71126300Y-137621740D01*
X71126300Y-138574240D01*
X71634300Y-138574240D01*
X71634300Y-137113740D01*
X72142300Y-137113740D01*
X72142300Y-139082240D01*
X72650300Y-139082240D01*
X72650300Y-139336240D01*
X72657028Y-139498867D01*
X72698572Y-139571139D01*
X72806969Y-139589672D01*
X72872550Y-139590240D01*
X73014848Y-139582550D01*
X73078087Y-139535071D01*
X73094303Y-139411189D01*
X73094800Y-139336240D01*
X73088071Y-139173612D01*
X73046527Y-139101340D01*
X72938130Y-139082807D01*
X72872550Y-139082240D01*
X72650300Y-139082240D01*
X72650300Y-138066240D01*
X72872550Y-138066240D01*
X73021508Y-138056410D01*
X73082598Y-138000950D01*
X73094772Y-137860906D01*
X73094800Y-137843990D01*
X73084970Y-137695031D01*
X73029510Y-137633941D01*
X72889466Y-137621767D01*
X72872550Y-137621740D01*
X72730251Y-137614050D01*
X72667012Y-137566571D01*
X72650796Y-137442689D01*
X72650300Y-137367740D01*
X72657028Y-137205112D01*
X72698572Y-137132840D01*
X72806969Y-137114307D01*
X72872550Y-137113740D01*
X73014848Y-137106050D01*
X73078087Y-137058571D01*
X73094303Y-136934689D01*
X73094800Y-136859740D01*
X73088071Y-136697112D01*
X73046527Y-136624840D01*
X72938130Y-136606307D01*
X72872550Y-136605740D01*
X72730251Y-136613429D01*
X72667012Y-136660908D01*
X72650796Y-136784790D01*
X72650300Y-136859740D01*
X72650300Y-137113740D01*
X72142300Y-137113740D01*
X72142300Y-136161240D01*
X73666300Y-136161240D01*
X73666300Y-139526740D01*
X77031800Y-139526740D01*
X77031800Y-136161240D01*
X73666300Y-136161240D01*
X72142300Y-136161240D01*
X72142300Y-136097740D01*
X71634300Y-136097740D01*
X71634300Y-136605740D01*
X71126300Y-136605740D01*
X71126300Y-136351740D01*
X71119571Y-136189112D01*
X71078027Y-136116840D01*
X70969630Y-136098307D01*
X70904050Y-136097740D01*
X70761751Y-136105429D01*
X70698512Y-136152908D01*
X70682296Y-136276790D01*
X70681800Y-136351740D01*
X70681800Y-136605740D01*
X70173800Y-136605740D01*
X70173800Y-137113740D01*
X69157800Y-137113740D01*
X69157800Y-136605740D01*
X68649800Y-136605740D01*
X68649800Y-137621740D01*
X68903800Y-137621740D01*
X69066427Y-137628468D01*
X69138699Y-137670012D01*
X69157232Y-137778409D01*
X69157800Y-137843990D01*
X69150110Y-137986288D01*
X69102631Y-138049527D01*
X68978749Y-138065743D01*
X68903800Y-138066240D01*
X68649800Y-138066240D01*
X68649800Y-140034740D01*
X67697300Y-140034740D01*
X67697300Y-140542740D01*
X68205300Y-140542740D01*
X68205300Y-141050740D01*
X66236800Y-141050740D01*
X66236800Y-140796740D01*
X66243528Y-140634112D01*
X66285072Y-140561840D01*
X66393469Y-140543307D01*
X66459050Y-140542740D01*
X66601348Y-140535050D01*
X66664587Y-140487571D01*
X66680803Y-140363689D01*
X66681300Y-140288740D01*
X66674571Y-140126112D01*
X66633027Y-140053840D01*
X66524630Y-140035307D01*
X66459050Y-140034740D01*
X66316751Y-140042429D01*
X66253512Y-140089908D01*
X66237296Y-140213790D01*
X66236800Y-140288740D01*
X66236800Y-140542740D01*
X65728800Y-140542740D01*
X65728800Y-141050740D01*
X65220800Y-141050740D01*
X65220800Y-142066740D01*
X65474800Y-142066740D01*
X65637427Y-142073468D01*
X65709699Y-142115012D01*
X65728232Y-142223409D01*
X65728800Y-142288990D01*
X65721110Y-142431288D01*
X65673631Y-142494527D01*
X65549749Y-142510743D01*
X65474800Y-142511240D01*
X65220800Y-142511240D01*
X65220800Y-143019240D01*
X64712800Y-143019240D01*
X64077800Y-143019240D01*
X64077800Y-140034740D01*
X64712800Y-140034740D01*
X64712800Y-140542740D01*
X65728800Y-140542740D01*
X65728800Y-140034740D01*
X64712800Y-140034740D01*
X64077800Y-140034740D01*
X64077800Y-136161240D01*
X64776300Y-136161240D01*
X64776300Y-139526740D01*
X68141800Y-139526740D01*
X68141800Y-136161240D01*
X64776300Y-136161240D01*
X64077800Y-136161240D01*
X64077800Y-136097740D01*
X69157800Y-136097740D01*
X69157800Y-136605740D01*
X69665800Y-136605740D01*
X69665800Y-136097740D01*
X69157800Y-136097740D01*
X64077800Y-136097740D01*
X64077800Y-135653240D01*
X77793800Y-135653240D01*
X77793800Y-148988240D01*
G37*
X77793800Y-148988240D02*
X64077800Y-148988240D01*
X64077800Y-145051240D01*
X64776300Y-145051240D01*
X64776300Y-148416740D01*
X68141800Y-148416740D01*
X68141800Y-147464240D01*
X68649800Y-147464240D01*
X68649800Y-148480240D01*
X70173800Y-148480240D01*
X70173800Y-147972240D01*
X69157800Y-147972240D01*
X69157800Y-147464240D01*
X68649800Y-147464240D01*
X68141800Y-147464240D01*
X68141800Y-146448240D01*
X68649800Y-146448240D01*
X68649800Y-146956240D01*
X69665800Y-146956240D01*
X69665800Y-147464240D01*
X70173800Y-147464240D01*
X70173800Y-147972240D01*
X71126300Y-147972240D01*
X71126300Y-148480240D01*
X73602800Y-148480240D01*
X73602800Y-148226240D01*
X74618800Y-148226240D01*
X74618800Y-148480240D01*
X75571300Y-148480240D01*
X76079300Y-148480240D01*
X77095300Y-148480240D01*
X77095300Y-146956240D01*
X76587300Y-146956240D01*
X76587300Y-147464240D01*
X76079300Y-147464240D01*
X76079300Y-148480240D01*
X75571300Y-148480240D01*
X75571300Y-147464240D01*
X76079300Y-147464240D01*
X76079300Y-146956240D01*
X75063300Y-146956240D01*
X75063300Y-147972240D01*
X74841050Y-147972240D01*
X74698751Y-147979929D01*
X74635512Y-148027408D01*
X74619296Y-148151290D01*
X74618800Y-148226240D01*
X73602800Y-148226240D01*
X73602800Y-146448240D01*
X74110800Y-146448240D01*
X74110800Y-147464240D01*
X74618800Y-147464240D01*
X74618800Y-147210240D01*
X74625528Y-147047612D01*
X74667072Y-146975340D01*
X74775469Y-146956807D01*
X74841050Y-146956240D01*
X75063300Y-146956240D01*
X75063300Y-146003740D01*
X75317300Y-146003740D01*
X75479927Y-146010468D01*
X75552199Y-146052012D01*
X75570732Y-146160409D01*
X75571300Y-146225990D01*
X75571300Y-146448240D01*
X76587300Y-146448240D01*
X76587300Y-146225990D01*
X76594989Y-146083691D01*
X76642468Y-146020452D01*
X76766350Y-146004236D01*
X76841300Y-146003740D01*
X77095300Y-146003740D01*
X77095300Y-144987740D01*
X76079300Y-144987740D01*
X76079300Y-145495740D01*
X75571300Y-145495740D01*
X75571300Y-144987740D01*
X75063300Y-144987740D01*
X75063300Y-144257490D01*
X76587300Y-144257490D01*
X76594989Y-144399788D01*
X76642468Y-144463027D01*
X76766350Y-144479243D01*
X76841300Y-144479740D01*
X77003927Y-144473011D01*
X77076199Y-144431467D01*
X77094732Y-144323070D01*
X77095300Y-144257490D01*
X77087610Y-144115191D01*
X77040131Y-144051952D01*
X76916249Y-144035736D01*
X76841300Y-144035240D01*
X76678672Y-144041968D01*
X76606400Y-144083512D01*
X76587867Y-144191909D01*
X76587300Y-144257490D01*
X75063300Y-144257490D01*
X75063300Y-144035240D01*
X74841050Y-144035240D01*
X74698751Y-144027550D01*
X74635512Y-143980071D01*
X74619296Y-143856189D01*
X74618800Y-143781240D01*
X74618800Y-143527240D01*
X75571300Y-143527240D01*
X75571300Y-143019240D01*
X75063300Y-143019240D01*
X75063300Y-142765240D01*
X75056571Y-142602612D01*
X75015027Y-142530340D01*
X74906630Y-142511807D01*
X74841050Y-142511240D01*
X74692091Y-142501410D01*
X74631001Y-142445950D01*
X74618827Y-142305906D01*
X74618800Y-142288990D01*
X74628629Y-142140031D01*
X74684089Y-142078941D01*
X74824133Y-142066767D01*
X74841050Y-142066740D01*
X75571300Y-142066740D01*
X75571300Y-143019240D01*
X76079300Y-143019240D01*
X76079300Y-143527240D01*
X76587300Y-143527240D01*
X76587300Y-143019240D01*
X76079300Y-143019240D01*
X76079300Y-142511240D01*
X77095300Y-142511240D01*
X77095300Y-141558740D01*
X76587300Y-141558740D01*
X76587300Y-142066740D01*
X75571300Y-142066740D01*
X74841050Y-142066740D01*
X74983348Y-142059050D01*
X75046587Y-142011571D01*
X75062803Y-141887689D01*
X75063300Y-141812740D01*
X75063300Y-141558740D01*
X76079300Y-141558740D01*
X76079300Y-141050740D01*
X75063300Y-141050740D01*
X75063300Y-140034740D01*
X75571300Y-140034740D01*
X75571300Y-140542740D01*
X76079300Y-140542740D01*
X76079300Y-141050740D01*
X76587300Y-141050740D01*
X76587300Y-140034740D01*
X75571300Y-140034740D01*
X75063300Y-140034740D01*
X73602800Y-140034740D01*
X73602800Y-141050740D01*
X73094800Y-141050740D01*
X73094800Y-141304740D01*
X73088071Y-141467367D01*
X73046527Y-141539639D01*
X72938130Y-141558172D01*
X72872550Y-141558740D01*
X72650300Y-141558740D01*
X72650300Y-142511240D01*
X73602800Y-142511240D01*
X73602800Y-142288990D01*
X73610489Y-142146691D01*
X73657968Y-142083452D01*
X73781850Y-142067236D01*
X73856800Y-142066740D01*
X74110800Y-142066740D01*
X74110800Y-143019240D01*
X73602800Y-143019240D01*
X73602800Y-143527240D01*
X73094800Y-143527240D01*
X73094800Y-143019240D01*
X72142300Y-143019240D01*
X72142300Y-142066740D01*
X71634300Y-142066740D01*
X71634300Y-141558740D01*
X71126300Y-141558740D01*
X71126300Y-142511240D01*
X70681800Y-142511240D01*
X70681800Y-143527240D01*
X71126300Y-143527240D01*
X71126300Y-144479740D01*
X70904050Y-144479740D01*
X70761751Y-144487429D01*
X70698512Y-144534908D01*
X70682296Y-144658790D01*
X70681800Y-144733740D01*
X70681800Y-144987740D01*
X70173800Y-144987740D01*
X70173800Y-145495740D01*
X69665800Y-145495740D01*
X69665800Y-146003740D01*
X69411800Y-146003740D01*
X69249172Y-146010468D01*
X69176900Y-146052012D01*
X69158367Y-146160409D01*
X69157800Y-146225990D01*
X69150110Y-146368288D01*
X69102631Y-146431527D01*
X68978749Y-146447743D01*
X68903800Y-146448240D01*
X68649800Y-146448240D01*
X68141800Y-146448240D01*
X68141800Y-145495740D01*
X68649800Y-145495740D01*
X69157800Y-145495740D01*
X69157800Y-144987740D01*
X69665800Y-144987740D01*
X69665800Y-144479740D01*
X68649800Y-144479740D01*
X68649800Y-145495740D01*
X68141800Y-145495740D01*
X68141800Y-145051240D01*
X64776300Y-145051240D01*
X64077800Y-145051240D01*
X64077800Y-143019240D01*
X64712800Y-143019240D01*
X64712800Y-143527240D01*
X65220800Y-143527240D01*
X65220800Y-144035240D01*
X64966800Y-144035240D01*
X64804172Y-144041968D01*
X64731900Y-144083512D01*
X64713367Y-144191909D01*
X64712800Y-144257490D01*
X64712800Y-144479740D01*
X66681300Y-144479740D01*
X66681300Y-144257490D01*
X66688989Y-144115191D01*
X66736468Y-144051952D01*
X66860350Y-144035736D01*
X66935300Y-144035240D01*
X67097927Y-144041968D01*
X67170199Y-144083512D01*
X67188732Y-144191909D01*
X67189300Y-144257490D01*
X67189300Y-144479740D01*
X68649800Y-144479740D01*
X68649800Y-144257490D01*
X68657489Y-144115191D01*
X68704968Y-144051952D01*
X68828850Y-144035736D01*
X68903800Y-144035240D01*
X69157800Y-144035240D01*
X69157800Y-143527240D01*
X68649800Y-143527240D01*
X68649800Y-144035240D01*
X67697300Y-144035240D01*
X67697300Y-143527240D01*
X68205300Y-143527240D01*
X68205300Y-143273240D01*
X68212028Y-143110612D01*
X68253572Y-143038340D01*
X68361969Y-143019807D01*
X68427550Y-143019240D01*
X69157800Y-143019240D01*
X69157800Y-143527240D01*
X69665800Y-143527240D01*
X69665800Y-143019240D01*
X69157800Y-143019240D01*
X68427550Y-143019240D01*
X68569848Y-143011550D01*
X68633087Y-142964071D01*
X68649303Y-142840189D01*
X68649800Y-142765240D01*
X68649800Y-142511240D01*
X69157800Y-142511240D01*
X69665800Y-142511240D01*
X69665800Y-143019240D01*
X70173800Y-143019240D01*
X70173800Y-142511240D01*
X69665800Y-142511240D01*
X69157800Y-142511240D01*
X69157800Y-141558740D01*
X70173800Y-141558740D01*
X70173800Y-141050740D01*
X70681800Y-141050740D01*
X70681800Y-141304740D01*
X70688528Y-141467367D01*
X70730072Y-141539639D01*
X70838469Y-141558172D01*
X70904050Y-141558740D01*
X71126300Y-141558740D01*
X71126300Y-141050740D01*
X71634300Y-141050740D01*
X71634300Y-140542740D01*
X72142300Y-140542740D01*
X72142300Y-141050740D01*
X73094800Y-141050740D01*
X73094800Y-140542740D01*
X72142300Y-140542740D01*
X71634300Y-140542740D01*
X71126300Y-140542740D01*
X71126300Y-139082240D01*
X71634300Y-139082240D01*
X71634300Y-140034740D01*
X72142300Y-140034740D01*
X72142300Y-139082240D01*
X71634300Y-139082240D01*
X71126300Y-139082240D01*
X70904050Y-139082240D01*
X70761751Y-139074550D01*
X70698512Y-139027071D01*
X70682296Y-138903189D01*
X70681800Y-138828240D01*
X70681800Y-138574240D01*
X70173800Y-138574240D01*
X70173800Y-139082240D01*
X69665800Y-139082240D01*
X69665800Y-138574240D01*
X69157800Y-138574240D01*
X69157800Y-138066240D01*
X70681800Y-138066240D01*
X70681800Y-137843990D01*
X70691629Y-137695031D01*
X70747089Y-137633941D01*
X70887133Y-137621767D01*
X70904050Y-137621740D01*
X71126300Y-137621740D01*
X71126300Y-138574240D01*
X71634300Y-138574240D01*
X71634300Y-137113740D01*
X72142300Y-137113740D01*
X72142300Y-139082240D01*
X72650300Y-139082240D01*
X72650300Y-139336240D01*
X72657028Y-139498867D01*
X72698572Y-139571139D01*
X72806969Y-139589672D01*
X72872550Y-139590240D01*
X73014848Y-139582550D01*
X73078087Y-139535071D01*
X73094303Y-139411189D01*
X73094800Y-139336240D01*
X73088071Y-139173612D01*
X73046527Y-139101340D01*
X72938130Y-139082807D01*
X72872550Y-139082240D01*
X72650300Y-139082240D01*
X72650300Y-138066240D01*
X72872550Y-138066240D01*
X73021508Y-138056410D01*
X73082598Y-138000950D01*
X73094772Y-137860906D01*
X73094800Y-137843990D01*
X73084970Y-137695031D01*
X73029510Y-137633941D01*
X72889466Y-137621767D01*
X72872550Y-137621740D01*
X72730251Y-137614050D01*
X72667012Y-137566571D01*
X72650796Y-137442689D01*
X72650300Y-137367740D01*
X72657028Y-137205112D01*
X72698572Y-137132840D01*
X72806969Y-137114307D01*
X72872550Y-137113740D01*
X73014848Y-137106050D01*
X73078087Y-137058571D01*
X73094303Y-136934689D01*
X73094800Y-136859740D01*
X73088071Y-136697112D01*
X73046527Y-136624840D01*
X72938130Y-136606307D01*
X72872550Y-136605740D01*
X72730251Y-136613429D01*
X72667012Y-136660908D01*
X72650796Y-136784790D01*
X72650300Y-136859740D01*
X72650300Y-137113740D01*
X72142300Y-137113740D01*
X72142300Y-136161240D01*
X73666300Y-136161240D01*
X73666300Y-139526740D01*
X77031800Y-139526740D01*
X77031800Y-136161240D01*
X73666300Y-136161240D01*
X72142300Y-136161240D01*
X72142300Y-136097740D01*
X71634300Y-136097740D01*
X71634300Y-136605740D01*
X71126300Y-136605740D01*
X71126300Y-136351740D01*
X71119571Y-136189112D01*
X71078027Y-136116840D01*
X70969630Y-136098307D01*
X70904050Y-136097740D01*
X70761751Y-136105429D01*
X70698512Y-136152908D01*
X70682296Y-136276790D01*
X70681800Y-136351740D01*
X70681800Y-136605740D01*
X70173800Y-136605740D01*
X70173800Y-137113740D01*
X69157800Y-137113740D01*
X69157800Y-136605740D01*
X68649800Y-136605740D01*
X68649800Y-137621740D01*
X68903800Y-137621740D01*
X69066427Y-137628468D01*
X69138699Y-137670012D01*
X69157232Y-137778409D01*
X69157800Y-137843990D01*
X69150110Y-137986288D01*
X69102631Y-138049527D01*
X68978749Y-138065743D01*
X68903800Y-138066240D01*
X68649800Y-138066240D01*
X68649800Y-140034740D01*
X67697300Y-140034740D01*
X67697300Y-140542740D01*
X68205300Y-140542740D01*
X68205300Y-141050740D01*
X66236800Y-141050740D01*
X66236800Y-140796740D01*
X66243528Y-140634112D01*
X66285072Y-140561840D01*
X66393469Y-140543307D01*
X66459050Y-140542740D01*
X66601348Y-140535050D01*
X66664587Y-140487571D01*
X66680803Y-140363689D01*
X66681300Y-140288740D01*
X66674571Y-140126112D01*
X66633027Y-140053840D01*
X66524630Y-140035307D01*
X66459050Y-140034740D01*
X66316751Y-140042429D01*
X66253512Y-140089908D01*
X66237296Y-140213790D01*
X66236800Y-140288740D01*
X66236800Y-140542740D01*
X65728800Y-140542740D01*
X65728800Y-141050740D01*
X65220800Y-141050740D01*
X65220800Y-142066740D01*
X65474800Y-142066740D01*
X65637427Y-142073468D01*
X65709699Y-142115012D01*
X65728232Y-142223409D01*
X65728800Y-142288990D01*
X65721110Y-142431288D01*
X65673631Y-142494527D01*
X65549749Y-142510743D01*
X65474800Y-142511240D01*
X65220800Y-142511240D01*
X65220800Y-143019240D01*
X64712800Y-143019240D01*
X64077800Y-143019240D01*
X64077800Y-140034740D01*
X64712800Y-140034740D01*
X64712800Y-140542740D01*
X65728800Y-140542740D01*
X65728800Y-140034740D01*
X64712800Y-140034740D01*
X64077800Y-140034740D01*
X64077800Y-136161240D01*
X64776300Y-136161240D01*
X64776300Y-139526740D01*
X68141800Y-139526740D01*
X68141800Y-136161240D01*
X64776300Y-136161240D01*
X64077800Y-136161240D01*
X64077800Y-136097740D01*
X69157800Y-136097740D01*
X69157800Y-136605740D01*
X69665800Y-136605740D01*
X69665800Y-136097740D01*
X69157800Y-136097740D01*
X64077800Y-136097740D01*
X64077800Y-135653240D01*
X77793800Y-135653240D01*
X77793800Y-148988240D01*
D12*
X90925895Y-157643120D02*
X90925895Y-158452644D01*
X90973514Y-158547882D01*
X91021133Y-158595501D01*
X91116371Y-158643120D01*
X91306847Y-158643120D01*
X91402085Y-158595501D01*
X91449704Y-158547882D01*
X91497323Y-158452644D01*
X91497323Y-157643120D01*
X92497323Y-158643120D02*
X91925895Y-158643120D01*
X92211609Y-158643120D02*
X92211609Y-157643120D01*
X92116371Y-157785978D01*
X92021133Y-157881216D01*
X91925895Y-157928835D01*
X124988180Y-152333120D02*
X124988180Y-152142644D01*
X125035800Y-152047406D01*
X125131038Y-151952168D01*
X125321514Y-151904549D01*
X125654847Y-151904549D01*
X125845323Y-151952168D01*
X125940561Y-152047406D01*
X125988180Y-152142644D01*
X125988180Y-152333120D01*
X125940561Y-152428359D01*
X125845323Y-152523597D01*
X125654847Y-152571216D01*
X125321514Y-152571216D01*
X125131038Y-152523597D01*
X125035800Y-152428359D01*
X124988180Y-152333120D01*
X125321514Y-151047406D02*
X125988180Y-151047406D01*
X125321514Y-151475978D02*
X125845323Y-151475978D01*
X125940561Y-151428359D01*
X125988180Y-151333120D01*
X125988180Y-151190263D01*
X125940561Y-151095025D01*
X125892942Y-151047406D01*
X125321514Y-150714073D02*
X125321514Y-150333120D01*
X124988180Y-150571216D02*
X125845323Y-150571216D01*
X125940561Y-150523597D01*
X125988180Y-150428359D01*
X125988180Y-150333120D01*
X125940561Y-149618835D02*
X125988180Y-149714073D01*
X125988180Y-149904549D01*
X125940561Y-149999787D01*
X125845323Y-150047406D01*
X125464371Y-150047406D01*
X125369133Y-149999787D01*
X125321514Y-149904549D01*
X125321514Y-149714073D01*
X125369133Y-149618835D01*
X125464371Y-149571216D01*
X125559609Y-149571216D01*
X125654847Y-150047406D01*
X125988180Y-149142644D02*
X125321514Y-149142644D01*
X125511990Y-149142644D02*
X125416752Y-149095025D01*
X125369133Y-149047406D01*
X125321514Y-148952168D01*
X125321514Y-148856930D01*
X126369133Y-147475978D02*
X126321514Y-147523597D01*
X126178657Y-147618835D01*
X126083419Y-147666454D01*
X125940561Y-147714073D01*
X125702466Y-147761692D01*
X125511990Y-147761692D01*
X125273895Y-147714073D01*
X125131038Y-147666454D01*
X125035800Y-147618835D01*
X124892942Y-147523597D01*
X124845323Y-147475978D01*
X125321514Y-147095025D02*
X126321514Y-147095025D01*
X125369133Y-147095025D02*
X125321514Y-146999787D01*
X125321514Y-146809311D01*
X125369133Y-146714073D01*
X125416752Y-146666454D01*
X125511990Y-146618835D01*
X125797704Y-146618835D01*
X125892942Y-146666454D01*
X125940561Y-146714073D01*
X125988180Y-146809311D01*
X125988180Y-146999787D01*
X125940561Y-147095025D01*
X125988180Y-146047406D02*
X125940561Y-146142644D01*
X125845323Y-146190263D01*
X124988180Y-146190263D01*
X125988180Y-145237882D02*
X125464371Y-145237882D01*
X125369133Y-145285501D01*
X125321514Y-145380740D01*
X125321514Y-145571216D01*
X125369133Y-145666454D01*
X125940561Y-145237882D02*
X125988180Y-145333120D01*
X125988180Y-145571216D01*
X125940561Y-145666454D01*
X125845323Y-145714073D01*
X125750085Y-145714073D01*
X125654847Y-145666454D01*
X125607228Y-145571216D01*
X125607228Y-145333120D01*
X125559609Y-145237882D01*
X125940561Y-144809311D02*
X125988180Y-144714073D01*
X125988180Y-144523597D01*
X125940561Y-144428359D01*
X125845323Y-144380740D01*
X125797704Y-144380740D01*
X125702466Y-144428359D01*
X125654847Y-144523597D01*
X125654847Y-144666454D01*
X125607228Y-144761692D01*
X125511990Y-144809311D01*
X125464371Y-144809311D01*
X125369133Y-144761692D01*
X125321514Y-144666454D01*
X125321514Y-144523597D01*
X125369133Y-144428359D01*
X125321514Y-144095025D02*
X125321514Y-143714073D01*
X124988180Y-143952168D02*
X125845323Y-143952168D01*
X125940561Y-143904549D01*
X125988180Y-143809311D01*
X125988180Y-143714073D01*
X125988180Y-143380740D02*
X125321514Y-143380740D01*
X124988180Y-143380740D02*
X125035800Y-143428359D01*
X125083419Y-143380740D01*
X125035800Y-143333120D01*
X124988180Y-143380740D01*
X125083419Y-143380740D01*
X125940561Y-142475978D02*
X125988180Y-142571216D01*
X125988180Y-142761692D01*
X125940561Y-142856930D01*
X125892942Y-142904549D01*
X125797704Y-142952168D01*
X125511990Y-142952168D01*
X125416752Y-142904549D01*
X125369133Y-142856930D01*
X125321514Y-142761692D01*
X125321514Y-142571216D01*
X125369133Y-142475978D01*
X126369133Y-142142644D02*
X126321514Y-142095025D01*
X126178657Y-141999787D01*
X126083419Y-141952168D01*
X125940561Y-141904549D01*
X125702466Y-141856930D01*
X125511990Y-141856930D01*
X125273895Y-141904549D01*
X125131038Y-141952168D01*
X125035800Y-141999787D01*
X124892942Y-142095025D01*
X124845323Y-142142644D01*
X125940561Y-140666454D02*
X125988180Y-140571216D01*
X125988180Y-140380740D01*
X125940561Y-140285501D01*
X125845323Y-140237882D01*
X125797704Y-140237882D01*
X125702466Y-140285501D01*
X125654847Y-140380740D01*
X125654847Y-140523597D01*
X125607228Y-140618835D01*
X125511990Y-140666454D01*
X125464371Y-140666454D01*
X125369133Y-140618835D01*
X125321514Y-140523597D01*
X125321514Y-140380740D01*
X125369133Y-140285501D01*
X125988180Y-139809311D02*
X124988180Y-139809311D01*
X125988180Y-139380740D02*
X125464371Y-139380740D01*
X125369133Y-139428359D01*
X125321514Y-139523597D01*
X125321514Y-139666454D01*
X125369133Y-139761692D01*
X125416752Y-139809311D01*
X125988180Y-138475978D02*
X125464371Y-138475978D01*
X125369133Y-138523597D01*
X125321514Y-138618835D01*
X125321514Y-138809311D01*
X125369133Y-138904549D01*
X125940561Y-138475978D02*
X125988180Y-138571216D01*
X125988180Y-138809311D01*
X125940561Y-138904549D01*
X125845323Y-138952168D01*
X125750085Y-138952168D01*
X125654847Y-138904549D01*
X125607228Y-138809311D01*
X125607228Y-138571216D01*
X125559609Y-138475978D01*
X125321514Y-138142644D02*
X125321514Y-137761692D01*
X125988180Y-137999787D02*
X125131038Y-137999787D01*
X125035800Y-137952168D01*
X124988180Y-137856930D01*
X124988180Y-137761692D01*
X125321514Y-137571216D02*
X125321514Y-137190263D01*
X124988180Y-137428359D02*
X125845323Y-137428359D01*
X125940561Y-137380740D01*
X125988180Y-137285501D01*
X125988180Y-137190263D01*
X125988180Y-136095025D02*
X125321514Y-136095025D01*
X125416752Y-136095025D02*
X125369133Y-136047406D01*
X125321514Y-135952168D01*
X125321514Y-135809311D01*
X125369133Y-135714073D01*
X125464371Y-135666454D01*
X125988180Y-135666454D01*
X125464371Y-135666454D02*
X125369133Y-135618835D01*
X125321514Y-135523597D01*
X125321514Y-135380740D01*
X125369133Y-135285501D01*
X125464371Y-135237882D01*
X125988180Y-135237882D01*
X125988180Y-134618835D02*
X125940561Y-134714073D01*
X125892942Y-134761692D01*
X125797704Y-134809311D01*
X125511990Y-134809311D01*
X125416752Y-134761692D01*
X125369133Y-134714073D01*
X125321514Y-134618835D01*
X125321514Y-134475978D01*
X125369133Y-134380740D01*
X125416752Y-134333120D01*
X125511990Y-134285501D01*
X125797704Y-134285501D01*
X125892942Y-134333120D01*
X125940561Y-134380740D01*
X125988180Y-134475978D01*
X125988180Y-134618835D01*
X125321514Y-133999787D02*
X125321514Y-133618835D01*
X124988180Y-133856930D02*
X125845323Y-133856930D01*
X125940561Y-133809311D01*
X125988180Y-133714073D01*
X125988180Y-133618835D01*
X125988180Y-133142644D02*
X125940561Y-133237882D01*
X125892942Y-133285501D01*
X125797704Y-133333120D01*
X125511990Y-133333120D01*
X125416752Y-133285501D01*
X125369133Y-133237882D01*
X125321514Y-133142644D01*
X125321514Y-132999787D01*
X125369133Y-132904549D01*
X125416752Y-132856930D01*
X125511990Y-132809311D01*
X125797704Y-132809311D01*
X125892942Y-132856930D01*
X125940561Y-132904549D01*
X125988180Y-132999787D01*
X125988180Y-133142644D01*
X125988180Y-132380740D02*
X125321514Y-132380740D01*
X125511990Y-132380740D02*
X125416752Y-132333120D01*
X125369133Y-132285501D01*
X125321514Y-132190263D01*
X125321514Y-132095025D01*
X94788180Y-151666454D02*
X93788180Y-151666454D01*
X94121514Y-151190263D02*
X94788180Y-151190263D01*
X94216752Y-151190263D02*
X94169133Y-151142644D01*
X94121514Y-151047406D01*
X94121514Y-150904549D01*
X94169133Y-150809311D01*
X94264371Y-150761692D01*
X94788180Y-150761692D01*
X94121514Y-150285501D02*
X94788180Y-150285501D01*
X94216752Y-150285501D02*
X94169133Y-150237882D01*
X94121514Y-150142644D01*
X94121514Y-149999787D01*
X94169133Y-149904549D01*
X94264371Y-149856930D01*
X94788180Y-149856930D01*
X94740561Y-148999787D02*
X94788180Y-149095025D01*
X94788180Y-149285501D01*
X94740561Y-149380740D01*
X94645323Y-149428359D01*
X94264371Y-149428359D01*
X94169133Y-149380740D01*
X94121514Y-149285501D01*
X94121514Y-149095025D01*
X94169133Y-148999787D01*
X94264371Y-148952168D01*
X94359609Y-148952168D01*
X94454847Y-149428359D01*
X94788180Y-148523597D02*
X94121514Y-148523597D01*
X94311990Y-148523597D02*
X94216752Y-148475978D01*
X94169133Y-148428359D01*
X94121514Y-148333120D01*
X94121514Y-148237882D01*
X95169133Y-146856930D02*
X95121514Y-146904549D01*
X94978657Y-146999787D01*
X94883419Y-147047406D01*
X94740561Y-147095025D01*
X94502466Y-147142644D01*
X94311990Y-147142644D01*
X94073895Y-147095025D01*
X93931038Y-147047406D01*
X93835800Y-146999787D01*
X93692942Y-146904549D01*
X93645323Y-146856930D01*
X94740561Y-146523597D02*
X94788180Y-146428359D01*
X94788180Y-146237882D01*
X94740561Y-146142644D01*
X94645323Y-146095025D01*
X94597704Y-146095025D01*
X94502466Y-146142644D01*
X94454847Y-146237882D01*
X94454847Y-146380740D01*
X94407228Y-146475978D01*
X94311990Y-146523597D01*
X94264371Y-146523597D01*
X94169133Y-146475978D01*
X94121514Y-146380740D01*
X94121514Y-146237882D01*
X94169133Y-146142644D01*
X94121514Y-145809311D02*
X94121514Y-145428359D01*
X93788180Y-145666454D02*
X94645323Y-145666454D01*
X94740561Y-145618835D01*
X94788180Y-145523597D01*
X94788180Y-145428359D01*
X94740561Y-144714073D02*
X94788180Y-144809311D01*
X94788180Y-144999787D01*
X94740561Y-145095025D01*
X94645323Y-145142644D01*
X94264371Y-145142644D01*
X94169133Y-145095025D01*
X94121514Y-144999787D01*
X94121514Y-144809311D01*
X94169133Y-144714073D01*
X94264371Y-144666454D01*
X94359609Y-144666454D01*
X94454847Y-145142644D01*
X94740561Y-143856930D02*
X94788180Y-143952168D01*
X94788180Y-144142644D01*
X94740561Y-144237882D01*
X94645323Y-144285501D01*
X94264371Y-144285501D01*
X94169133Y-144237882D01*
X94121514Y-144142644D01*
X94121514Y-143952168D01*
X94169133Y-143856930D01*
X94264371Y-143809311D01*
X94359609Y-143809311D01*
X94454847Y-144285501D01*
X94788180Y-143237882D02*
X94740561Y-143333120D01*
X94645323Y-143380740D01*
X93788180Y-143380740D01*
X95169133Y-142952168D02*
X95121514Y-142904549D01*
X94978657Y-142809311D01*
X94883419Y-142761692D01*
X94740561Y-142714073D01*
X94502466Y-142666454D01*
X94311990Y-142666454D01*
X94073895Y-142714073D01*
X93931038Y-142761692D01*
X93835800Y-142809311D01*
X93692942Y-142904549D01*
X93645323Y-142952168D01*
X94740561Y-141475978D02*
X94788180Y-141333120D01*
X94788180Y-141095025D01*
X94740561Y-140999787D01*
X94692942Y-140952168D01*
X94597704Y-140904549D01*
X94502466Y-140904549D01*
X94407228Y-140952168D01*
X94359609Y-140999787D01*
X94311990Y-141095025D01*
X94264371Y-141285501D01*
X94216752Y-141380740D01*
X94169133Y-141428359D01*
X94073895Y-141475978D01*
X93978657Y-141475978D01*
X93883419Y-141428359D01*
X93835800Y-141380740D01*
X93788180Y-141285501D01*
X93788180Y-141047406D01*
X93835800Y-140904549D01*
X94788180Y-140475978D02*
X93788180Y-140475978D01*
X94788180Y-140047406D02*
X94264371Y-140047406D01*
X94169133Y-140095025D01*
X94121514Y-140190263D01*
X94121514Y-140333120D01*
X94169133Y-140428359D01*
X94216752Y-140475978D01*
X94788180Y-139142644D02*
X94264371Y-139142644D01*
X94169133Y-139190263D01*
X94121514Y-139285501D01*
X94121514Y-139475978D01*
X94169133Y-139571216D01*
X94740561Y-139142644D02*
X94788180Y-139237882D01*
X94788180Y-139475978D01*
X94740561Y-139571216D01*
X94645323Y-139618835D01*
X94550085Y-139618835D01*
X94454847Y-139571216D01*
X94407228Y-139475978D01*
X94407228Y-139237882D01*
X94359609Y-139142644D01*
X94121514Y-138809311D02*
X94121514Y-138428359D01*
X94788180Y-138666454D02*
X93931038Y-138666454D01*
X93835800Y-138618835D01*
X93788180Y-138523597D01*
X93788180Y-138428359D01*
X94121514Y-138237882D02*
X94121514Y-137856930D01*
X93788180Y-138095025D02*
X94645323Y-138095025D01*
X94740561Y-138047406D01*
X94788180Y-137952168D01*
X94788180Y-137856930D01*
X94788180Y-136761692D02*
X93788180Y-136761692D01*
X94502466Y-136428359D01*
X93788180Y-136095025D01*
X94788180Y-136095025D01*
X94788180Y-135475978D02*
X94740561Y-135571216D01*
X94692942Y-135618835D01*
X94597704Y-135666454D01*
X94311990Y-135666454D01*
X94216752Y-135618835D01*
X94169133Y-135571216D01*
X94121514Y-135475978D01*
X94121514Y-135333120D01*
X94169133Y-135237882D01*
X94216752Y-135190263D01*
X94311990Y-135142644D01*
X94597704Y-135142644D01*
X94692942Y-135190263D01*
X94740561Y-135237882D01*
X94788180Y-135333120D01*
X94788180Y-135475978D01*
X94121514Y-134856930D02*
X94121514Y-134475978D01*
X93788180Y-134714073D02*
X94645323Y-134714073D01*
X94740561Y-134666454D01*
X94788180Y-134571216D01*
X94788180Y-134475978D01*
X94788180Y-133999787D02*
X94740561Y-134095025D01*
X94692942Y-134142644D01*
X94597704Y-134190263D01*
X94311990Y-134190263D01*
X94216752Y-134142644D01*
X94169133Y-134095025D01*
X94121514Y-133999787D01*
X94121514Y-133856930D01*
X94169133Y-133761692D01*
X94216752Y-133714073D01*
X94311990Y-133666454D01*
X94597704Y-133666454D01*
X94692942Y-133714073D01*
X94740561Y-133761692D01*
X94788180Y-133856930D01*
X94788180Y-133999787D01*
X94788180Y-133237882D02*
X94121514Y-133237882D01*
X94311990Y-133237882D02*
X94216752Y-133190263D01*
X94169133Y-133142644D01*
X94121514Y-133047406D01*
X94121514Y-132952168D01*
X119902466Y-125873120D02*
X119902466Y-126587406D01*
X119854847Y-126730263D01*
X119759609Y-126825501D01*
X119616752Y-126873120D01*
X119521514Y-126873120D01*
X120283419Y-125873120D02*
X120902466Y-125873120D01*
X120569133Y-126254073D01*
X120711990Y-126254073D01*
X120807228Y-126301692D01*
X120854847Y-126349311D01*
X120902466Y-126444549D01*
X120902466Y-126682644D01*
X120854847Y-126777882D01*
X120807228Y-126825501D01*
X120711990Y-126873120D01*
X120426276Y-126873120D01*
X120331038Y-126825501D01*
X120283419Y-126777882D01*
X112002466Y-125973120D02*
X112002466Y-126687406D01*
X111954847Y-126830263D01*
X111859609Y-126925501D01*
X111716752Y-126973120D01*
X111621514Y-126973120D01*
X112954847Y-125973120D02*
X112478657Y-125973120D01*
X112431038Y-126449311D01*
X112478657Y-126401692D01*
X112573895Y-126354073D01*
X112811990Y-126354073D01*
X112907228Y-126401692D01*
X112954847Y-126449311D01*
X113002466Y-126544549D01*
X113002466Y-126782644D01*
X112954847Y-126877882D01*
X112907228Y-126925501D01*
X112811990Y-126973120D01*
X112573895Y-126973120D01*
X112478657Y-126925501D01*
X112431038Y-126877882D01*
X123688180Y-163854073D02*
X124402466Y-163854073D01*
X124545323Y-163901692D01*
X124640561Y-163996930D01*
X124688180Y-164139787D01*
X124688180Y-164235025D01*
X123688180Y-163473120D02*
X123688180Y-162806454D01*
X124688180Y-163235025D01*
X123688180Y-172554073D02*
X124402466Y-172554073D01*
X124545323Y-172601692D01*
X124640561Y-172696930D01*
X124688180Y-172839787D01*
X124688180Y-172935025D01*
X123688180Y-171649311D02*
X123688180Y-171839787D01*
X123735800Y-171935025D01*
X123783419Y-171982644D01*
X123926276Y-172077882D01*
X124116752Y-172125501D01*
X124497704Y-172125501D01*
X124592942Y-172077882D01*
X124640561Y-172030263D01*
X124688180Y-171935025D01*
X124688180Y-171744549D01*
X124640561Y-171649311D01*
X124592942Y-171601692D01*
X124497704Y-171554073D01*
X124259609Y-171554073D01*
X124164371Y-171601692D01*
X124116752Y-171649311D01*
X124069133Y-171744549D01*
X124069133Y-171935025D01*
X124116752Y-172030263D01*
X124164371Y-172077882D01*
X124259609Y-172125501D01*
M02*
