M48
METRIC,TZ
T1C0.400
T2C0.850
T3C1.000
%
G90
G05
T1
X62476Y-147031
X62566Y-142721
X63246Y-135577
X64008Y-151325
X64196Y-129771
X65096Y-155561
X69776Y-119521
X72036Y-141621
X72136Y-166819
X72576Y-115971
X76696Y-112381
X76916Y-170301
X80010Y-173677
X80716Y-109891
X80736Y-144921
X82236Y-158221
X84236Y-175391
X84436Y-118921
X84582Y-108145
X85136Y-141921
X88936Y-139221
X89786Y-105591
X89836Y-168021
X93236Y-125221
X94936Y-104061
X97836Y-160521
X98552Y-127449
X99036Y-176621
X101336Y-108921
X101336Y-113521
X101736Y-163921
X103436Y-119521
X105736Y-132121
X106836Y-168121
X107136Y-148321
X107936Y-104931
X107950Y-180281
X110036Y-117321
X110036Y-159221
X112146Y-106431
X113036Y-130221
X113792Y-127703
X114300Y-178249
X115336Y-130221
X116236Y-108021
X117236Y-139321
X117236Y-142421
X118236Y-126521
X121736Y-126621
X122236Y-140621
X124136Y-112021
X127636Y-115621
X130048Y-119829
X130936Y-166221
X132588Y-140657
X133196Y-151331
X136652Y-129735
X137026Y-138421
X137414Y-154881
X139446Y-142689
T2
X90536Y-130981
X90536Y-153981
X98536Y-130981
X98536Y-153981
X121536Y-130981
X121536Y-153981
X129536Y-130981
X129536Y-153981
T3
X98298Y-181551
X100838Y-181551
X103378Y-181551
X112736Y-163121
X115236Y-163121
X117736Y-163121
X120236Y-163121
X122436Y-117821
X122436Y-120321
X122436Y-122821
X115316Y-115621
X115316Y-118121
X115316Y-120621
X115316Y-123121
X112636Y-172821
X115136Y-172821
X117636Y-172821
X120136Y-172821
X98296Y-104261
X100836Y-104261
X103376Y-104261
T0
M30
