<?xml version="1.0" encoding="UTF-8" standalone="no"?>
<!-- Created with Inkscape (http://www.inkscape.org/) -->

<svg
   xmlns:dc="http://purl.org/dc/elements/1.1/"
   xmlns:cc="http://creativecommons.org/ns#"
   xmlns:rdf="http://www.w3.org/1999/02/22-rdf-syntax-ns#"
   xmlns:svg="http://www.w3.org/2000/svg"
   xmlns="http://www.w3.org/2000/svg"
   xmlns:sodipodi="http://sodipodi.sourceforge.net/DTD/sodipodi-0.dtd"
   xmlns:inkscape="http://www.inkscape.org/namespaces/inkscape"
   width="350mm"
   height="280mm"
   viewBox="0 0 350.00001 279.99999"
   version="1.1"
   id="svg8"
   inkscape:version="0.92.1 r15371"
   sodipodi:docname="CanvasRingCutout.svg">
  <defs
     id="defs2" />
  <sodipodi:namedview
     id="base"
     pagecolor="#ffffff"
     bordercolor="#666666"
     borderopacity="1.0"
     inkscape:pageopacity="0.0"
     inkscape:pageshadow="2"
     inkscape:zoom="0.70710678"
     inkscape:cx="820.03352"
     inkscape:cy="546.59485"
     inkscape:document-units="mm"
     inkscape:current-layer="layer1"
     showgrid="false"
     inkscape:window-width="1920"
     inkscape:window-height="1027"
     inkscape:window-x="-8"
     inkscape:window-y="-8"
     inkscape:window-maximized="1"
     fit-margin-top="0"
     fit-margin-left="0"
     fit-margin-right="0"
     fit-margin-bottom="0"
     inkscape:measure-start="1076.57,535.28"
     inkscape:measure-end="70.7107,535.28"
     showguides="false" />
  <metadata
     id="metadata5">
    <rdf:RDF>
      <cc:Work
         rdf:about="">
        <dc:format>image/svg+xml</dc:format>
        <dc:type
           rdf:resource="http://purl.org/dc/dcmitype/StillImage" />
        <dc:title></dc:title>
      </cc:Work>
    </rdf:RDF>
  </metadata>
  <g
     inkscape:label="Layer 1"
     inkscape:groupmode="layer"
     id="layer1"
     transform="translate(36.279462,9.8479927)">
    <path
       style="opacity:1;fill:none;fill-opacity:1;stroke:#ff0000;stroke-width:0.09999996;stroke-linecap:round;stroke-linejoin:round;stroke-miterlimit:4;stroke-dasharray:none;stroke-dashoffset:0;stroke-opacity:1;paint-order:markers fill stroke"
       id="path4487-9-9-0-3-1-1-6"
       sodipodi:type="arc"
       sodipodi:cx="25.152006"
       sodipodi:cy="-208.72052"
       sodipodi:rx="29.699999"
       sodipodi:ry="29.700001"
       sodipodi:start="0"
       sodipodi:end="6.2806022"
       sodipodi:open="true"
       d="m 54.852005,-208.72052 a 29.699999,29.700001 0 0 1 -29.680819,29.69999 29.699999,29.700001 0 0 1 -29.7191539,-29.66163 29.699999,29.700001 0 0 1 29.6424349,-29.73831 29.699999,29.700001 0 0 1 29.757439,29.62323"
       transform="rotate(90)" />
    <rect
       style="opacity:1;fill:none;fill-opacity:1;stroke:#000000;stroke-width:0.10000001;stroke-linecap:round;stroke-linejoin:round;stroke-miterlimit:4;stroke-dasharray:none;stroke-dashoffset:0;stroke-opacity:1;paint-order:markers fill stroke"
       id="rect4551-2-6-9-9-0-82"
       width="69.900002"
       height="69.900002"
       x="-9.7979927"
       y="-243.67053"
       transform="rotate(90)" />
    <path
       style="opacity:1;fill:none;fill-opacity:1;stroke:#ff0000;stroke-width:0.09999994;stroke-linecap:round;stroke-linejoin:round;stroke-miterlimit:4;stroke-dasharray:none;stroke-dashoffset:0;stroke-opacity:1;paint-order:markers fill stroke"
       id="path4487-9-9-0-3-1-4-8-3"
       sodipodi:type="arc"
       sodipodi:cx="25.152006"
       sodipodi:cy="-208.72052"
       sodipodi:rx="2.4499977"
       sodipodi:ry="2.45"
       sodipodi:start="0"
       sodipodi:end="6.2806022"
       sodipodi:open="true"
       d="m 27.602004,-208.72052 a 2.4499977,2.45 0 0 1 -2.448416,2.45 2.4499977,2.45 0 0 1 -2.451577,-2.44684 2.4499977,2.45 0 0 1 2.445249,-2.45316 2.4499977,2.45 0 0 1 2.454736,2.44367"
       transform="rotate(90)" />
    <path
       style="opacity:1;fill:none;fill-opacity:1;stroke:#ff0000;stroke-width:0.09999996;stroke-linecap:round;stroke-linejoin:round;stroke-miterlimit:4;stroke-dasharray:none;stroke-dashoffset:0;stroke-opacity:1;paint-order:markers fill stroke"
       id="path4487-9-9-0-3-1-1-2-8"
       sodipodi:type="arc"
       sodipodi:cx="95.152016"
       sodipodi:cy="-208.72052"
       sodipodi:rx="29.699999"
       sodipodi:ry="29.700001"
       sodipodi:start="0"
       sodipodi:end="6.2806022"
       sodipodi:open="true"
       d="m 124.85201,-208.72052 a 29.699999,29.700001 0 0 1 -29.680815,29.69999 29.699999,29.700001 0 0 1 -29.719153,-29.66163 29.699999,29.700001 0 0 1 29.642435,-29.73831 29.699999,29.700001 0 0 1 29.757443,29.62323"
       transform="rotate(90)" />
    <rect
       style="opacity:1;fill:none;fill-opacity:1;stroke:#000000;stroke-width:0.10000001;stroke-linecap:round;stroke-linejoin:round;stroke-miterlimit:4;stroke-dasharray:none;stroke-dashoffset:0;stroke-opacity:1;paint-order:markers fill stroke"
       id="rect4551-2-6-9-9-0-0-8"
       width="69.900002"
       height="69.900002"
       x="60.201992"
       y="-243.67053"
       transform="rotate(90)" />
    <path
       style="opacity:1;fill:none;fill-opacity:1;stroke:#ff0000;stroke-width:0.09999994;stroke-linecap:round;stroke-linejoin:round;stroke-miterlimit:4;stroke-dasharray:none;stroke-dashoffset:0;stroke-opacity:1;paint-order:markers fill stroke"
       id="path4487-9-9-0-3-1-4-8-0-2"
       sodipodi:type="arc"
       sodipodi:cx="95.152016"
       sodipodi:cy="-208.72052"
       sodipodi:rx="2.4499977"
       sodipodi:ry="2.45"
       sodipodi:start="0"
       sodipodi:end="6.2806022"
       sodipodi:open="true"
       d="m 97.602013,-208.72052 a 2.4499977,2.45 0 0 1 -2.448415,2.45 2.4499977,2.45 0 0 1 -2.451578,-2.44684 2.4499977,2.45 0 0 1 2.445249,-2.45316 2.4499977,2.45 0 0 1 2.454736,2.44367"
       transform="rotate(90)" />
    <path
       style="opacity:1;fill:none;fill-opacity:1;stroke:#ff0000;stroke-width:0.09999996;stroke-linecap:round;stroke-linejoin:round;stroke-miterlimit:4;stroke-dasharray:none;stroke-dashoffset:0;stroke-opacity:1;paint-order:markers fill stroke"
       id="path4487-9-9-0-3-1-1-8-1"
       sodipodi:type="arc"
       sodipodi:cx="165.15198"
       sodipodi:cy="-208.72052"
       sodipodi:rx="29.699999"
       sodipodi:ry="29.700001"
       sodipodi:start="0"
       sodipodi:end="6.2806022"
       sodipodi:open="true"
       d="m 194.85198,-208.72052 a 29.699999,29.700001 0 0 1 -29.68082,29.69999 29.699999,29.700001 0 0 1 -29.71916,-29.66163 29.699999,29.700001 0 0 1 29.64244,-29.73831 29.699999,29.700001 0 0 1 29.75744,29.62323"
       transform="rotate(90)" />
    <rect
       style="opacity:1;fill:none;fill-opacity:1;stroke:#000000;stroke-width:0.10000001;stroke-linecap:round;stroke-linejoin:round;stroke-miterlimit:4;stroke-dasharray:none;stroke-dashoffset:0;stroke-opacity:1;paint-order:markers fill stroke"
       id="rect4551-2-6-9-9-0-3-8"
       width="69.900002"
       height="69.900002"
       x="130.202"
       y="-243.67053"
       transform="rotate(90)" />
    <path
       style="opacity:1;fill:none;fill-opacity:1;stroke:#ff0000;stroke-width:0.09999994;stroke-linecap:round;stroke-linejoin:round;stroke-miterlimit:4;stroke-dasharray:none;stroke-dashoffset:0;stroke-opacity:1;paint-order:markers fill stroke"
       id="path4487-9-9-0-3-1-4-8-6-1"
       sodipodi:type="arc"
       sodipodi:cx="165.15198"
       sodipodi:cy="-208.72052"
       sodipodi:rx="2.4499977"
       sodipodi:ry="2.45"
       sodipodi:start="0"
       sodipodi:end="6.2806022"
       sodipodi:open="true"
       d="m 167.60198,-208.72052 a 2.4499977,2.45 0 0 1 -2.44842,2.45 2.4499977,2.45 0 0 1 -2.45158,-2.44684 2.4499977,2.45 0 0 1 2.44525,-2.45316 2.4499977,2.45 0 0 1 2.45474,2.44367"
       transform="rotate(90)" />
    <path
       style="opacity:1;fill:none;fill-opacity:1;stroke:#ff0000;stroke-width:0.09999996;stroke-linecap:round;stroke-linejoin:round;stroke-miterlimit:4;stroke-dasharray:none;stroke-dashoffset:0;stroke-opacity:1;paint-order:markers fill stroke"
       id="path4487-9-9-0-3-1-1-9-4"
       sodipodi:type="arc"
       sodipodi:cx="235.15201"
       sodipodi:cy="-208.72052"
       sodipodi:rx="29.699999"
       sodipodi:ry="29.700001"
       sodipodi:start="0"
       sodipodi:end="6.2806022"
       sodipodi:open="true"
       d="m 264.85201,-208.72052 a 29.699999,29.700001 0 0 1 -29.68082,29.69999 29.699999,29.700001 0 0 1 -29.71916,-29.66163 29.699999,29.700001 0 0 1 29.64244,-29.73831 29.699999,29.700001 0 0 1 29.75744,29.62323"
       transform="rotate(90)" />
    <rect
       style="opacity:1;fill:none;fill-opacity:1;stroke:#000000;stroke-width:0.10000001;stroke-linecap:round;stroke-linejoin:round;stroke-miterlimit:4;stroke-dasharray:none;stroke-dashoffset:0;stroke-opacity:1;paint-order:markers fill stroke"
       id="rect4551-2-6-9-9-0-8-0"
       width="69.900002"
       height="69.900002"
       x="200.202"
       y="-243.67053"
       transform="rotate(90)" />
    <path
       style="opacity:1;fill:none;fill-opacity:1;stroke:#ff0000;stroke-width:0.09999994;stroke-linecap:round;stroke-linejoin:round;stroke-miterlimit:4;stroke-dasharray:none;stroke-dashoffset:0;stroke-opacity:1;paint-order:markers fill stroke"
       id="path4487-9-9-0-3-1-4-8-4-8"
       sodipodi:type="arc"
       sodipodi:cx="235.15201"
       sodipodi:cy="-208.72052"
       sodipodi:rx="2.4499977"
       sodipodi:ry="2.45"
       sodipodi:start="0"
       sodipodi:end="6.2806022"
       sodipodi:open="true"
       d="m 237.60201,-208.72052 a 2.4499977,2.45 0 0 1 -2.44842,2.45 2.4499977,2.45 0 0 1 -2.45158,-2.44684 2.4499977,2.45 0 0 1 2.44525,-2.45316 2.4499977,2.45 0 0 1 2.45474,2.44367"
       transform="rotate(90)" />
    <path
       style="opacity:1;fill:none;fill-opacity:1;stroke:#ff0000;stroke-width:0.09999996;stroke-linecap:round;stroke-linejoin:round;stroke-miterlimit:4;stroke-dasharray:none;stroke-dashoffset:0;stroke-opacity:1;paint-order:markers fill stroke"
       id="path4487-9-9-0-3-1-1-61"
       sodipodi:type="arc"
       sodipodi:cx="25.152006"
       sodipodi:cy="-138.72054"
       sodipodi:rx="29.699999"
       sodipodi:ry="29.700001"
       sodipodi:start="0"
       sodipodi:end="6.2806022"
       sodipodi:open="true"
       d="m 54.852005,-138.72054 a 29.699999,29.700001 0 0 1 -29.680819,29.7 29.699999,29.700001 0 0 1 -29.7191539,-29.66164 29.699999,29.700001 0 0 1 29.6424349,-29.7383 29.699999,29.700001 0 0 1 29.757439,29.62323"
       transform="rotate(90)" />
    <rect
       style="opacity:1;fill:none;fill-opacity:1;stroke:#000000;stroke-width:0.10000001;stroke-linecap:round;stroke-linejoin:round;stroke-miterlimit:4;stroke-dasharray:none;stroke-dashoffset:0;stroke-opacity:1;paint-order:markers fill stroke"
       id="rect4551-2-6-9-9-0-33"
       width="69.900002"
       height="69.900002"
       x="-9.7979918"
       y="-173.67055"
       transform="rotate(90)" />
    <path
       style="opacity:1;fill:none;fill-opacity:1;stroke:#ff0000;stroke-width:0.09999994;stroke-linecap:round;stroke-linejoin:round;stroke-miterlimit:4;stroke-dasharray:none;stroke-dashoffset:0;stroke-opacity:1;paint-order:markers fill stroke"
       id="path4487-9-9-0-3-1-4-8-40"
       sodipodi:type="arc"
       sodipodi:cx="25.152006"
       sodipodi:cy="-138.72054"
       sodipodi:rx="2.4499977"
       sodipodi:ry="2.45"
       sodipodi:start="0"
       sodipodi:end="6.2806022"
       sodipodi:open="true"
       d="m 27.602004,-138.72054 a 2.4499977,2.45 0 0 1 -2.448416,2.45 2.4499977,2.45 0 0 1 -2.451577,-2.44683 2.4499977,2.45 0 0 1 2.445249,-2.45316 2.4499977,2.45 0 0 1 2.454736,2.44367"
       transform="rotate(90)" />
    <path
       style="opacity:1;fill:none;fill-opacity:1;stroke:#ff0000;stroke-width:0.09999996;stroke-linecap:round;stroke-linejoin:round;stroke-miterlimit:4;stroke-dasharray:none;stroke-dashoffset:0;stroke-opacity:1;paint-order:markers fill stroke"
       id="path4487-9-9-0-3-1-1-2-1"
       sodipodi:type="arc"
       sodipodi:cx="95.151993"
       sodipodi:cy="-138.72054"
       sodipodi:rx="29.699999"
       sodipodi:ry="29.700001"
       sodipodi:start="0"
       sodipodi:end="6.2806022"
       sodipodi:open="true"
       d="m 124.85199,-138.72054 a 29.699999,29.700001 0 0 1 -29.680818,29.7 29.699999,29.700001 0 0 1 -29.719153,-29.66164 29.699999,29.700001 0 0 1 29.642435,-29.7383 29.699999,29.700001 0 0 1 29.757436,29.62323"
       transform="rotate(90)" />
    <rect
       style="opacity:1;fill:none;fill-opacity:1;stroke:#000000;stroke-width:0.10000001;stroke-linecap:round;stroke-linejoin:round;stroke-miterlimit:4;stroke-dasharray:none;stroke-dashoffset:0;stroke-opacity:1;paint-order:markers fill stroke"
       id="rect4551-2-6-9-9-0-0-2"
       width="69.900002"
       height="69.900002"
       x="60.201992"
       y="-173.67055"
       transform="rotate(90)" />
    <path
       style="opacity:1;fill:none;fill-opacity:1;stroke:#ff0000;stroke-width:0.09999994;stroke-linecap:round;stroke-linejoin:round;stroke-miterlimit:4;stroke-dasharray:none;stroke-dashoffset:0;stroke-opacity:1;paint-order:markers fill stroke"
       id="path4487-9-9-0-3-1-4-8-0-3"
       sodipodi:type="arc"
       sodipodi:cx="95.151993"
       sodipodi:cy="-138.72054"
       sodipodi:rx="2.4499977"
       sodipodi:ry="2.45"
       sodipodi:start="0"
       sodipodi:end="6.2806022"
       sodipodi:open="true"
       d="m 97.60199,-138.72054 a 2.4499977,2.45 0 0 1 -2.448415,2.45 2.4499977,2.45 0 0 1 -2.451578,-2.44683 2.4499977,2.45 0 0 1 2.445249,-2.45316 2.4499977,2.45 0 0 1 2.454736,2.44367"
       transform="rotate(90)" />
    <path
       style="opacity:1;fill:none;fill-opacity:1;stroke:#ff0000;stroke-width:0.09999996;stroke-linecap:round;stroke-linejoin:round;stroke-miterlimit:4;stroke-dasharray:none;stroke-dashoffset:0;stroke-opacity:1;paint-order:markers fill stroke"
       id="path4487-9-9-0-3-1-1-8-3"
       sodipodi:type="arc"
       sodipodi:cx="165.15199"
       sodipodi:cy="-138.72054"
       sodipodi:rx="29.699999"
       sodipodi:ry="29.700001"
       sodipodi:start="0"
       sodipodi:end="6.2806022"
       sodipodi:open="true"
       d="m 194.85199,-138.72054 a 29.699999,29.700001 0 0 1 -29.68082,29.7 29.699999,29.700001 0 0 1 -29.71915,-29.66164 29.699999,29.700001 0 0 1 29.64243,-29.7383 29.699999,29.700001 0 0 1 29.75744,29.62323"
       transform="rotate(90)" />
    <rect
       style="opacity:1;fill:none;fill-opacity:1;stroke:#000000;stroke-width:0.10000001;stroke-linecap:round;stroke-linejoin:round;stroke-miterlimit:4;stroke-dasharray:none;stroke-dashoffset:0;stroke-opacity:1;paint-order:markers fill stroke"
       id="rect4551-2-6-9-9-0-3-4"
       width="69.900002"
       height="69.900002"
       x="130.20201"
       y="-173.67055"
       transform="rotate(90)" />
    <path
       style="opacity:1;fill:none;fill-opacity:1;stroke:#ff0000;stroke-width:0.09999994;stroke-linecap:round;stroke-linejoin:round;stroke-miterlimit:4;stroke-dasharray:none;stroke-dashoffset:0;stroke-opacity:1;paint-order:markers fill stroke"
       id="path4487-9-9-0-3-1-4-8-6-4"
       sodipodi:type="arc"
       sodipodi:cx="165.15199"
       sodipodi:cy="-138.72054"
       sodipodi:rx="2.4499977"
       sodipodi:ry="2.45"
       sodipodi:start="0"
       sodipodi:end="6.2806022"
       sodipodi:open="true"
       d="m 167.60199,-138.72054 a 2.4499977,2.45 0 0 1 -2.44842,2.45 2.4499977,2.45 0 0 1 -2.45157,-2.44683 2.4499977,2.45 0 0 1 2.44525,-2.45316 2.4499977,2.45 0 0 1 2.45473,2.44367"
       transform="rotate(90)" />
    <path
       style="opacity:1;fill:none;fill-opacity:1;stroke:#ff0000;stroke-width:0.09999996;stroke-linecap:round;stroke-linejoin:round;stroke-miterlimit:4;stroke-dasharray:none;stroke-dashoffset:0;stroke-opacity:1;paint-order:markers fill stroke"
       id="path4487-9-9-0-3-1-1-9-0"
       sodipodi:type="arc"
       sodipodi:cx="235.15199"
       sodipodi:cy="-138.72054"
       sodipodi:rx="29.699999"
       sodipodi:ry="29.700001"
       sodipodi:start="0"
       sodipodi:end="6.2806022"
       sodipodi:open="true"
       d="m 264.85199,-138.72054 a 29.699999,29.700001 0 0 1 -29.68082,29.7 29.699999,29.700001 0 0 1 -29.71915,-29.66164 29.699999,29.700001 0 0 1 29.64243,-29.7383 29.699999,29.700001 0 0 1 29.75744,29.62323"
       transform="rotate(90)" />
    <rect
       style="opacity:1;fill:none;fill-opacity:1;stroke:#000000;stroke-width:0.10000001;stroke-linecap:round;stroke-linejoin:round;stroke-miterlimit:4;stroke-dasharray:none;stroke-dashoffset:0;stroke-opacity:1;paint-order:markers fill stroke"
       id="rect4551-2-6-9-9-0-8-1"
       width="69.900002"
       height="69.900002"
       x="200.20201"
       y="-173.67055"
       transform="rotate(90)" />
    <path
       style="opacity:1;fill:none;fill-opacity:1;stroke:#ff0000;stroke-width:0.09999994;stroke-linecap:round;stroke-linejoin:round;stroke-miterlimit:4;stroke-dasharray:none;stroke-dashoffset:0;stroke-opacity:1;paint-order:markers fill stroke"
       id="path4487-9-9-0-3-1-4-8-4-0"
       sodipodi:type="arc"
       sodipodi:cx="235.15199"
       sodipodi:cy="-138.72054"
       sodipodi:rx="2.4499977"
       sodipodi:ry="2.45"
       sodipodi:start="0"
       sodipodi:end="6.2806022"
       sodipodi:open="true"
       d="m 237.60199,-138.72054 a 2.4499977,2.45 0 0 1 -2.44842,2.45 2.4499977,2.45 0 0 1 -2.45157,-2.44683 2.4499977,2.45 0 0 1 2.44525,-2.45316 2.4499977,2.45 0 0 1 2.45473,2.44367"
       transform="rotate(90)" />
    <path
       style="opacity:1;fill:none;fill-opacity:1;stroke:#ff0000;stroke-width:0.09999996;stroke-linecap:round;stroke-linejoin:round;stroke-miterlimit:4;stroke-dasharray:none;stroke-dashoffset:0;stroke-opacity:1;paint-order:markers fill stroke"
       id="path4487-9-9-0-3-1-1-6-6"
       sodipodi:type="arc"
       sodipodi:cx="25.152006"
       sodipodi:cy="-68.720528"
       sodipodi:rx="29.700001"
       sodipodi:ry="29.700005"
       sodipodi:start="0"
       sodipodi:end="6.2806022"
       sodipodi:open="true"
       d="m 54.852007,-68.720528 a 29.700001,29.700005 0 0 1 -29.680821,29.699999 29.700001,29.700005 0 0 1 -29.7191558,-29.66164 29.700001,29.700005 0 0 1 29.6424368,-29.738307 29.700001,29.700005 0 0 1 29.757441,29.62323"
       transform="rotate(90)" />
    <rect
       style="opacity:1;fill:none;fill-opacity:1;stroke:#000000;stroke-width:0.10000001;stroke-linecap:round;stroke-linejoin:round;stroke-miterlimit:4;stroke-dasharray:none;stroke-dashoffset:0;stroke-opacity:1;paint-order:markers fill stroke"
       id="rect4551-2-6-9-9-0-82-8"
       width="69.900002"
       height="69.900002"
       x="-9.7979927"
       y="-103.67052"
       transform="rotate(90)" />
    <path
       style="opacity:1;fill:none;fill-opacity:1;stroke:#ff0000;stroke-width:0.09999994;stroke-linecap:round;stroke-linejoin:round;stroke-miterlimit:4;stroke-dasharray:none;stroke-dashoffset:0;stroke-opacity:1;paint-order:markers fill stroke"
       id="path4487-9-9-0-3-1-4-8-3-4"
       sodipodi:type="arc"
       sodipodi:cx="25.152006"
       sodipodi:cy="-68.720528"
       sodipodi:rx="2.4499977"
       sodipodi:ry="2.45"
       sodipodi:start="0"
       sodipodi:end="6.2806022"
       sodipodi:open="true"
       d="m 27.602004,-68.720528 a 2.4499977,2.45 0 0 1 -2.448416,2.45 2.4499977,2.45 0 0 1 -2.451577,-2.446835 2.4499977,2.45 0 0 1 2.445249,-2.45316 2.4499977,2.45 0 0 1 2.454736,2.443667"
       transform="rotate(90)" />
    <path
       style="opacity:1;fill:none;fill-opacity:1;stroke:#ff0000;stroke-width:0.09999996;stroke-linecap:round;stroke-linejoin:round;stroke-miterlimit:4;stroke-dasharray:none;stroke-dashoffset:0;stroke-opacity:1;paint-order:markers fill stroke"
       id="path4487-9-9-0-3-1-1-2-8-6"
       sodipodi:type="arc"
       sodipodi:cx="95.152023"
       sodipodi:cy="-68.720528"
       sodipodi:rx="29.700001"
       sodipodi:ry="29.700005"
       sodipodi:start="0"
       sodipodi:end="6.2806022"
       sodipodi:open="true"
       d="m 124.85202,-68.720528 a 29.700001,29.700005 0 0 1 -29.680817,29.699999 29.700001,29.700005 0 0 1 -29.719156,-29.66164 29.700001,29.700005 0 0 1 29.642438,-29.738307 29.700001,29.700005 0 0 1 29.757435,29.62323"
       transform="rotate(90)" />
    <rect
       style="opacity:1;fill:none;fill-opacity:1;stroke:#000000;stroke-width:0.10000001;stroke-linecap:round;stroke-linejoin:round;stroke-miterlimit:4;stroke-dasharray:none;stroke-dashoffset:0;stroke-opacity:1;paint-order:markers fill stroke"
       id="rect4551-2-6-9-9-0-0-8-4"
       width="69.900002"
       height="69.900002"
       x="60.201992"
       y="-103.67052"
       transform="rotate(90)" />
    <path
       style="opacity:1;fill:none;fill-opacity:1;stroke:#ff0000;stroke-width:0.09999994;stroke-linecap:round;stroke-linejoin:round;stroke-miterlimit:4;stroke-dasharray:none;stroke-dashoffset:0;stroke-opacity:1;paint-order:markers fill stroke"
       id="path4487-9-9-0-3-1-4-8-0-2-9"
       sodipodi:type="arc"
       sodipodi:cx="95.152023"
       sodipodi:cy="-68.720528"
       sodipodi:rx="2.4499977"
       sodipodi:ry="2.45"
       sodipodi:start="0"
       sodipodi:end="6.2806022"
       sodipodi:open="true"
       d="m 97.602021,-68.720528 a 2.4499977,2.45 0 0 1 -2.448416,2.45 2.4499977,2.45 0 0 1 -2.451577,-2.446835 2.4499977,2.45 0 0 1 2.445249,-2.45316 2.4499977,2.45 0 0 1 2.454736,2.443667"
       transform="rotate(90)" />
    <path
       style="opacity:1;fill:none;fill-opacity:1;stroke:#ff0000;stroke-width:0.09999996;stroke-linecap:round;stroke-linejoin:round;stroke-miterlimit:4;stroke-dasharray:none;stroke-dashoffset:0;stroke-opacity:1;paint-order:markers fill stroke"
       id="path4487-9-9-0-3-1-1-8-1-8"
       sodipodi:type="arc"
       sodipodi:cx="165.15199"
       sodipodi:cy="-68.720528"
       sodipodi:rx="29.700001"
       sodipodi:ry="29.700005"
       sodipodi:start="0"
       sodipodi:end="6.2806022"
       sodipodi:open="true"
       d="m 194.85199,-68.720528 a 29.700001,29.700005 0 0 1 -29.68082,29.699999 29.700001,29.700005 0 0 1 -29.71915,-29.66164 29.700001,29.700005 0 0 1 29.64243,-29.738307 29.700001,29.700005 0 0 1 29.75744,29.62323"
       transform="rotate(90)" />
    <rect
       style="opacity:1;fill:none;fill-opacity:1;stroke:#000000;stroke-width:0.10000001;stroke-linecap:round;stroke-linejoin:round;stroke-miterlimit:4;stroke-dasharray:none;stroke-dashoffset:0;stroke-opacity:1;paint-order:markers fill stroke"
       id="rect4551-2-6-9-9-0-3-8-0"
       width="69.900002"
       height="69.900002"
       x="130.20201"
       y="-103.67052"
       transform="rotate(90)" />
    <path
       style="opacity:1;fill:none;fill-opacity:1;stroke:#ff0000;stroke-width:0.09999994;stroke-linecap:round;stroke-linejoin:round;stroke-miterlimit:4;stroke-dasharray:none;stroke-dashoffset:0;stroke-opacity:1;paint-order:markers fill stroke"
       id="path4487-9-9-0-3-1-4-8-6-1-1"
       sodipodi:type="arc"
       sodipodi:cx="165.15199"
       sodipodi:cy="-68.720528"
       sodipodi:rx="2.4499977"
       sodipodi:ry="2.45"
       sodipodi:start="0"
       sodipodi:end="6.2806022"
       sodipodi:open="true"
       d="m 167.60199,-68.720528 a 2.4499977,2.45 0 0 1 -2.44842,2.45 2.4499977,2.45 0 0 1 -2.45157,-2.446835 2.4499977,2.45 0 0 1 2.44525,-2.45316 2.4499977,2.45 0 0 1 2.45473,2.443667"
       transform="rotate(90)" />
    <path
       style="opacity:1;fill:none;fill-opacity:1;stroke:#ff0000;stroke-width:0.09999996;stroke-linecap:round;stroke-linejoin:round;stroke-miterlimit:4;stroke-dasharray:none;stroke-dashoffset:0;stroke-opacity:1;paint-order:markers fill stroke"
       id="path4487-9-9-0-3-1-1-9-4-7"
       sodipodi:type="arc"
       sodipodi:cx="235.15202"
       sodipodi:cy="-68.720528"
       sodipodi:rx="29.700001"
       sodipodi:ry="29.700005"
       sodipodi:start="0"
       sodipodi:end="6.2806022"
       sodipodi:open="true"
       d="m 264.85202,-68.720528 a 29.700001,29.700005 0 0 1 -29.68082,29.699999 29.700001,29.700005 0 0 1 -29.71915,-29.66164 29.700001,29.700005 0 0 1 29.64243,-29.738307 29.700001,29.700005 0 0 1 29.75744,29.62323"
       transform="rotate(90)" />
    <rect
       style="opacity:1;fill:none;fill-opacity:1;stroke:#000000;stroke-width:0.10000001;stroke-linecap:round;stroke-linejoin:round;stroke-miterlimit:4;stroke-dasharray:none;stroke-dashoffset:0;stroke-opacity:1;paint-order:markers fill stroke"
       id="rect4551-2-6-9-9-0-8-0-0"
       width="69.900002"
       height="69.900002"
       x="200.20201"
       y="-103.67052"
       transform="rotate(90)" />
    <path
       style="opacity:1;fill:none;fill-opacity:1;stroke:#ff0000;stroke-width:0.09999994;stroke-linecap:round;stroke-linejoin:round;stroke-miterlimit:4;stroke-dasharray:none;stroke-dashoffset:0;stroke-opacity:1;paint-order:markers fill stroke"
       id="path4487-9-9-0-3-1-4-8-4-8-6"
       sodipodi:type="arc"
       sodipodi:cx="235.15202"
       sodipodi:cy="-68.720528"
       sodipodi:rx="2.4499977"
       sodipodi:ry="2.45"
       sodipodi:start="0"
       sodipodi:end="6.2806022"
       sodipodi:open="true"
       d="m 237.60202,-68.720528 a 2.4499977,2.45 0 0 1 -2.44841,2.45 2.4499977,2.45 0 0 1 -2.45158,-2.446835 2.4499977,2.45 0 0 1 2.44525,-2.45316 2.4499977,2.45 0 0 1 2.45473,2.443667"
       transform="rotate(90)" />
    <path
       style="opacity:1;fill:none;fill-opacity:1;stroke:#ff0000;stroke-width:0.09999996;stroke-linecap:round;stroke-linejoin:round;stroke-miterlimit:4;stroke-dasharray:none;stroke-dashoffset:0;stroke-opacity:1;paint-order:markers fill stroke"
       id="path4487-9-9-0-3-1-1-6-6-1"
       sodipodi:type="arc"
       sodipodi:cx="25.152006"
       sodipodi:cy="1.279458"
       sodipodi:rx="29.700005"
       sodipodi:ry="29.700005"
       sodipodi:start="0"
       sodipodi:end="6.2806022"
       sodipodi:open="true"
       d="M 54.852011,1.279458 A 29.700005,29.700005 0 0 1 25.171186,30.979456 29.700005,29.700005 0 0 1 -4.5479737,1.3178172 29.700005,29.700005 0 0 1 25.094467,-28.420491 29.700005,29.700005 0 0 1 54.851912,1.2027398"
       transform="rotate(90)" />
    <rect
       style="opacity:1;fill:none;fill-opacity:1;stroke:#000000;stroke-width:0.10000001;stroke-linecap:round;stroke-linejoin:round;stroke-miterlimit:4;stroke-dasharray:none;stroke-dashoffset:0;stroke-opacity:1;paint-order:markers fill stroke"
       id="rect4551-2-6-9-9-0-82-8-2"
       width="69.900002"
       height="69.900002"
       x="-9.7979927"
       y="-33.67054"
       transform="rotate(90)" />
    <path
       style="opacity:1;fill:none;fill-opacity:1;stroke:#ff0000;stroke-width:0.09999994;stroke-linecap:round;stroke-linejoin:round;stroke-miterlimit:4;stroke-dasharray:none;stroke-dashoffset:0;stroke-opacity:1;paint-order:markers fill stroke"
       id="path4487-9-9-0-3-1-4-8-3-4-5"
       sodipodi:type="arc"
       sodipodi:cx="25.152006"
       sodipodi:cy="1.279458"
       sodipodi:rx="2.4499977"
       sodipodi:ry="2.45"
       sodipodi:start="0"
       sodipodi:end="6.2806022"
       sodipodi:open="true"
       d="M 27.602004,1.279458 A 2.4499977,2.45 0 0 1 25.153588,3.7294576 2.4499977,2.45 0 0 1 22.702011,1.2826224 2.4499977,2.45 0 0 1 25.14726,-1.1705374 2.4499977,2.45 0 0 1 27.601996,1.2731294"
       transform="rotate(90)" />
    <path
       style="opacity:1;fill:none;fill-opacity:1;stroke:#ff0000;stroke-width:0.09999996;stroke-linecap:round;stroke-linejoin:round;stroke-miterlimit:4;stroke-dasharray:none;stroke-dashoffset:0;stroke-opacity:1;paint-order:markers fill stroke"
       id="path4487-9-9-0-3-1-1-2-8-6-1"
       sodipodi:type="arc"
       sodipodi:cx="95.152031"
       sodipodi:cy="1.279458"
       sodipodi:rx="29.700005"
       sodipodi:ry="29.700005"
       sodipodi:start="0"
       sodipodi:end="6.2806022"
       sodipodi:open="true"
       d="M 124.85204,1.279458 A 29.700005,29.700005 0 0 1 95.171211,30.979456 29.700005,29.700005 0 0 1 65.452051,1.3178172 29.700005,29.700005 0 0 1 95.094492,-28.420491 29.700005,29.700005 0 0 1 124.85194,1.2027398"
       transform="rotate(90)" />
    <rect
       style="opacity:1;fill:none;fill-opacity:1;stroke:#000000;stroke-width:0.10000001;stroke-linecap:round;stroke-linejoin:round;stroke-miterlimit:4;stroke-dasharray:none;stroke-dashoffset:0;stroke-opacity:1;paint-order:markers fill stroke"
       id="rect4551-2-6-9-9-0-0-8-4-1"
       width="69.900002"
       height="69.900002"
       x="60.202"
       y="-33.67054"
       transform="rotate(90)" />
    <path
       style="opacity:1;fill:none;fill-opacity:1;stroke:#ff0000;stroke-width:0.09999994;stroke-linecap:round;stroke-linejoin:round;stroke-miterlimit:4;stroke-dasharray:none;stroke-dashoffset:0;stroke-opacity:1;paint-order:markers fill stroke"
       id="path4487-9-9-0-3-1-4-8-0-2-9-9"
       sodipodi:type="arc"
       sodipodi:cx="95.152031"
       sodipodi:cy="1.279458"
       sodipodi:rx="2.4499977"
       sodipodi:ry="2.45"
       sodipodi:start="0"
       sodipodi:end="6.2806022"
       sodipodi:open="true"
       d="M 97.602029,1.279458 A 2.4499977,2.45 0 0 1 95.153613,3.7294576 2.4499977,2.45 0 0 1 92.702035,1.2826224 2.4499977,2.45 0 0 1 95.147284,-1.1705374 2.4499977,2.45 0 0 1 97.60202,1.2731294"
       transform="rotate(90)" />
    <path
       style="opacity:1;fill:none;fill-opacity:1;stroke:#ff0000;stroke-width:0.09999996;stroke-linecap:round;stroke-linejoin:round;stroke-miterlimit:4;stroke-dasharray:none;stroke-dashoffset:0;stroke-opacity:1;paint-order:markers fill stroke"
       id="path4487-9-9-0-3-1-1-8-1-8-2"
       sodipodi:type="arc"
       sodipodi:cx="165.15199"
       sodipodi:cy="1.279458"
       sodipodi:rx="29.700005"
       sodipodi:ry="29.700005"
       sodipodi:start="0"
       sodipodi:end="6.2806022"
       sodipodi:open="true"
       d="M 194.852,1.279458 A 29.700005,29.700005 0 0 1 165.17117,30.979456 29.700005,29.700005 0 0 1 135.45201,1.3178172 29.700005,29.700005 0 0 1 165.09445,-28.420491 29.700005,29.700005 0 0 1 194.8519,1.2027398"
       transform="rotate(90)" />
    <rect
       style="opacity:1;fill:none;fill-opacity:1;stroke:#000000;stroke-width:0.10000001;stroke-linecap:round;stroke-linejoin:round;stroke-miterlimit:4;stroke-dasharray:none;stroke-dashoffset:0;stroke-opacity:1;paint-order:markers fill stroke"
       id="rect4551-2-6-9-9-0-3-8-0-0"
       width="69.900002"
       height="69.900002"
       x="130.202"
       y="-33.67054"
       transform="rotate(90)" />
    <path
       style="opacity:1;fill:none;fill-opacity:1;stroke:#ff0000;stroke-width:0.09999994;stroke-linecap:round;stroke-linejoin:round;stroke-miterlimit:4;stroke-dasharray:none;stroke-dashoffset:0;stroke-opacity:1;paint-order:markers fill stroke"
       id="path4487-9-9-0-3-1-4-8-6-1-1-7"
       sodipodi:type="arc"
       sodipodi:cx="165.15199"
       sodipodi:cy="1.279458"
       sodipodi:rx="2.4499977"
       sodipodi:ry="2.45"
       sodipodi:start="0"
       sodipodi:end="6.2806022"
       sodipodi:open="true"
       d="m 167.60199,1.279458 a 2.4499977,2.45 0 0 1 -2.44842,2.4499996 2.4499977,2.45 0 0 1 -2.45157,-2.4468352 2.4499977,2.45 0 0 1 2.44525,-2.4531598 2.4499977,2.45 0 0 1 2.45473,2.4436668"
       transform="rotate(90)" />
    <path
       style="opacity:1;fill:none;fill-opacity:1;stroke:#ff0000;stroke-width:0.09999996;stroke-linecap:round;stroke-linejoin:round;stroke-miterlimit:4;stroke-dasharray:none;stroke-dashoffset:0;stroke-opacity:1;paint-order:markers fill stroke"
       id="path4487-9-9-0-3-1-1-9-4-7-4"
       sodipodi:type="arc"
       sodipodi:cx="235.15201"
       sodipodi:cy="1.279458"
       sodipodi:rx="29.700005"
       sodipodi:ry="29.700005"
       sodipodi:start="0"
       sodipodi:end="6.2806022"
       sodipodi:open="true"
       d="M 264.85201,1.279458 A 29.700005,29.700005 0 0 1 235.17119,30.979456 29.700005,29.700005 0 0 1 205.45203,1.3178172 29.700005,29.700005 0 0 1 235.09447,-28.420491 29.700005,29.700005 0 0 1 264.85191,1.2027398"
       transform="rotate(90)" />
    <rect
       style="opacity:1;fill:none;fill-opacity:1;stroke:#000000;stroke-width:0.10000001;stroke-linecap:round;stroke-linejoin:round;stroke-miterlimit:4;stroke-dasharray:none;stroke-dashoffset:0;stroke-opacity:1;paint-order:markers fill stroke"
       id="rect4551-2-6-9-9-0-8-0-0-1"
       width="69.900002"
       height="69.900002"
       x="200.20201"
       y="-33.67054"
       transform="rotate(90)" />
    <path
       style="opacity:1;fill:none;fill-opacity:1;stroke:#ff0000;stroke-width:0.09999994;stroke-linecap:round;stroke-linejoin:round;stroke-miterlimit:4;stroke-dasharray:none;stroke-dashoffset:0;stroke-opacity:1;paint-order:markers fill stroke"
       id="path4487-9-9-0-3-1-4-8-4-8-6-5"
       sodipodi:type="arc"
       sodipodi:cx="235.15201"
       sodipodi:cy="1.279458"
       sodipodi:rx="2.4499977"
       sodipodi:ry="2.45"
       sodipodi:start="0"
       sodipodi:end="6.2806022"
       sodipodi:open="true"
       d="m 237.60201,1.279458 a 2.4499977,2.45 0 0 1 -2.44842,2.4499996 2.4499977,2.45 0 0 1 -2.45158,-2.4468352 2.4499977,2.45 0 0 1 2.44525,-2.4531598 2.4499977,2.45 0 0 1 2.45474,2.4436668"
       transform="rotate(90)" />
    <path
       style="opacity:1;fill:none;fill-opacity:1;stroke:#ff0000;stroke-width:0.09999996;stroke-linecap:round;stroke-linejoin:round;stroke-miterlimit:4;stroke-dasharray:none;stroke-dashoffset:0;stroke-opacity:1;paint-order:markers fill stroke"
       id="path4487-9-9-0-3-1-1-6-68"
       sodipodi:type="arc"
       sodipodi:cx="25.152004"
       sodipodi:cy="-278.72055"
       sodipodi:rx="29.700001"
       sodipodi:ry="29.700005"
       sodipodi:start="0"
       sodipodi:end="6.2806022"
       sodipodi:open="true"
       d="m 54.852005,-278.72055 a 29.700001,29.700005 0 0 1 -29.680821,29.7 29.700001,29.700005 0 0 1 -29.7191557,-29.66164 29.700001,29.700005 0 0 1 29.6424377,-29.73831 29.700001,29.700005 0 0 1 29.75744,29.62323"
       transform="rotate(90)" />
    <rect
       style="opacity:1;fill:none;fill-opacity:1;stroke:#000000;stroke-width:0.10000001;stroke-linecap:round;stroke-linejoin:round;stroke-miterlimit:4;stroke-dasharray:none;stroke-dashoffset:0;stroke-opacity:1;paint-order:markers fill stroke"
       id="rect4551-2-6-9-9-0-82-7"
       width="69.900002"
       height="69.900002"
       x="-9.7979927"
       y="-313.67053"
       transform="rotate(90)" />
    <path
       style="opacity:1;fill:none;fill-opacity:1;stroke:#ff0000;stroke-width:0.09999994;stroke-linecap:round;stroke-linejoin:round;stroke-miterlimit:4;stroke-dasharray:none;stroke-dashoffset:0;stroke-opacity:1;paint-order:markers fill stroke"
       id="path4487-9-9-0-3-1-4-8-3-1"
       sodipodi:type="arc"
       sodipodi:cx="25.152004"
       sodipodi:cy="-278.72055"
       sodipodi:rx="2.4499977"
       sodipodi:ry="2.45"
       sodipodi:start="0"
       sodipodi:end="6.2806022"
       sodipodi:open="true"
       d="m 27.602002,-278.72055 a 2.4499977,2.45 0 0 1 -2.448416,2.45 2.4499977,2.45 0 0 1 -2.451577,-2.44684 2.4499977,2.45 0 0 1 2.445249,-2.45316 2.4499977,2.45 0 0 1 2.454736,2.44367"
       transform="rotate(90)" />
    <path
       style="opacity:1;fill:none;fill-opacity:1;stroke:#ff0000;stroke-width:0.09999996;stroke-linecap:round;stroke-linejoin:round;stroke-miterlimit:4;stroke-dasharray:none;stroke-dashoffset:0;stroke-opacity:1;paint-order:markers fill stroke"
       id="path4487-9-9-0-3-1-1-2-8-7"
       sodipodi:type="arc"
       sodipodi:cx="95.152016"
       sodipodi:cy="-278.72055"
       sodipodi:rx="29.700001"
       sodipodi:ry="29.700005"
       sodipodi:start="0"
       sodipodi:end="6.2806022"
       sodipodi:open="true"
       d="m 124.85202,-278.72055 a 29.700001,29.700005 0 0 1 -29.680825,29.7 29.700001,29.700005 0 0 1 -29.719155,-29.66164 29.700001,29.700005 0 0 1 29.642437,-29.73831 29.700001,29.700005 0 0 1 29.757443,29.62323"
       transform="rotate(90)" />
    <rect
       style="opacity:1;fill:none;fill-opacity:1;stroke:#000000;stroke-width:0.10000001;stroke-linecap:round;stroke-linejoin:round;stroke-miterlimit:4;stroke-dasharray:none;stroke-dashoffset:0;stroke-opacity:1;paint-order:markers fill stroke"
       id="rect4551-2-6-9-9-0-0-8-9"
       width="69.900002"
       height="69.900002"
       x="60.201992"
       y="-313.67053"
       transform="rotate(90)" />
    <path
       style="opacity:1;fill:none;fill-opacity:1;stroke:#ff0000;stroke-width:0.09999994;stroke-linecap:round;stroke-linejoin:round;stroke-miterlimit:4;stroke-dasharray:none;stroke-dashoffset:0;stroke-opacity:1;paint-order:markers fill stroke"
       id="path4487-9-9-0-3-1-4-8-0-2-4"
       sodipodi:type="arc"
       sodipodi:cx="95.152016"
       sodipodi:cy="-278.72055"
       sodipodi:rx="2.4499977"
       sodipodi:ry="2.45"
       sodipodi:start="0"
       sodipodi:end="6.2806022"
       sodipodi:open="true"
       d="m 97.602013,-278.72055 a 2.4499977,2.45 0 0 1 -2.448415,2.45 2.4499977,2.45 0 0 1 -2.451578,-2.44684 2.4499977,2.45 0 0 1 2.445249,-2.45316 2.4499977,2.45 0 0 1 2.454736,2.44367"
       transform="rotate(90)" />
    <path
       style="opacity:1;fill:none;fill-opacity:1;stroke:#ff0000;stroke-width:0.09999996;stroke-linecap:round;stroke-linejoin:round;stroke-miterlimit:4;stroke-dasharray:none;stroke-dashoffset:0;stroke-opacity:1;paint-order:markers fill stroke"
       id="path4487-9-9-0-3-1-1-8-1-5"
       sodipodi:type="arc"
       sodipodi:cx="165.15198"
       sodipodi:cy="-278.72055"
       sodipodi:rx="29.700001"
       sodipodi:ry="29.700005"
       sodipodi:start="0"
       sodipodi:end="6.2806022"
       sodipodi:open="true"
       d="m 194.85198,-278.72055 a 29.700001,29.700005 0 0 1 -29.68082,29.7 29.700001,29.700005 0 0 1 -29.71916,-29.66164 29.700001,29.700005 0 0 1 29.64244,-29.73831 29.700001,29.700005 0 0 1 29.75744,29.62323"
       transform="rotate(90)" />
    <rect
       style="opacity:1;fill:none;fill-opacity:1;stroke:#000000;stroke-width:0.10000001;stroke-linecap:round;stroke-linejoin:round;stroke-miterlimit:4;stroke-dasharray:none;stroke-dashoffset:0;stroke-opacity:1;paint-order:markers fill stroke"
       id="rect4551-2-6-9-9-0-3-8-03"
       width="69.900002"
       height="69.900002"
       x="130.202"
       y="-313.67053"
       transform="rotate(90)" />
    <path
       style="opacity:1;fill:none;fill-opacity:1;stroke:#ff0000;stroke-width:0.09999994;stroke-linecap:round;stroke-linejoin:round;stroke-miterlimit:4;stroke-dasharray:none;stroke-dashoffset:0;stroke-opacity:1;paint-order:markers fill stroke"
       id="path4487-9-9-0-3-1-4-8-6-1-4"
       sodipodi:type="arc"
       sodipodi:cx="165.15198"
       sodipodi:cy="-278.72055"
       sodipodi:rx="2.4499977"
       sodipodi:ry="2.45"
       sodipodi:start="0"
       sodipodi:end="6.2806022"
       sodipodi:open="true"
       d="m 167.60198,-278.72055 a 2.4499977,2.45 0 0 1 -2.44842,2.45 2.4499977,2.45 0 0 1 -2.45158,-2.44684 2.4499977,2.45 0 0 1 2.44525,-2.45316 2.4499977,2.45 0 0 1 2.45474,2.44367"
       transform="rotate(90)" />
    <path
       style="opacity:1;fill:none;fill-opacity:1;stroke:#ff0000;stroke-width:0.09999996;stroke-linecap:round;stroke-linejoin:round;stroke-miterlimit:4;stroke-dasharray:none;stroke-dashoffset:0;stroke-opacity:1;paint-order:markers fill stroke"
       id="path4487-9-9-0-3-1-1-9-4-9"
       sodipodi:type="arc"
       sodipodi:cx="235.15201"
       sodipodi:cy="-278.72055"
       sodipodi:rx="29.700001"
       sodipodi:ry="29.700005"
       sodipodi:start="0"
       sodipodi:end="6.2806022"
       sodipodi:open="true"
       d="m 264.85201,-278.72055 a 29.700001,29.700005 0 0 1 -29.68082,29.7 29.700001,29.700005 0 0 1 -29.71916,-29.66164 29.700001,29.700005 0 0 1 29.64244,-29.73831 29.700001,29.700005 0 0 1 29.75744,29.62323"
       transform="rotate(90)" />
    <rect
       style="opacity:1;fill:none;fill-opacity:1;stroke:#000000;stroke-width:0.10000001;stroke-linecap:round;stroke-linejoin:round;stroke-miterlimit:4;stroke-dasharray:none;stroke-dashoffset:0;stroke-opacity:1;paint-order:markers fill stroke"
       id="rect4551-2-6-9-9-0-8-0-06"
       width="69.900002"
       height="69.900002"
       x="200.202"
       y="-313.67053"
       transform="rotate(90)" />
    <path
       style="opacity:1;fill:none;fill-opacity:1;stroke:#ff0000;stroke-width:0.09999994;stroke-linecap:round;stroke-linejoin:round;stroke-miterlimit:4;stroke-dasharray:none;stroke-dashoffset:0;stroke-opacity:1;paint-order:markers fill stroke"
       id="path4487-9-9-0-3-1-4-8-4-8-9"
       sodipodi:type="arc"
       sodipodi:cx="235.15201"
       sodipodi:cy="-278.72055"
       sodipodi:rx="2.4499977"
       sodipodi:ry="2.45"
       sodipodi:start="0"
       sodipodi:end="6.2806022"
       sodipodi:open="true"
       d="m 237.60201,-278.72055 a 2.4499977,2.45 0 0 1 -2.44842,2.45 2.4499977,2.45 0 0 1 -2.45158,-2.44684 2.4499977,2.45 0 0 1 2.44525,-2.45316 2.4499977,2.45 0 0 1 2.45474,2.44367"
       transform="rotate(90)" />
    <rect
       style="opacity:1;fill:none;fill-opacity:1;stroke:#00ff00;stroke-width:0.1;stroke-linecap:round;stroke-linejoin:round;stroke-miterlimit:4;stroke-dasharray:none;stroke-dashoffset:0;stroke-opacity:1;paint-order:markers fill stroke"
       id="rect5179"
       width="349.89999"
       height="279.89996"
       x="-36.229462"
       y="-9.7979927" />
  </g>
</svg>
