G04 #@! TF.GenerationSoftware,KiCad,Pcbnew,(5.1.5)-3*
G04 #@! TF.CreationDate,2020-06-04T15:01:54+02:00*
G04 #@! TF.ProjectId,StepperClockK02,53746570-7065-4724-936c-6f636b4b3032,v1.0*
G04 #@! TF.SameCoordinates,Original*
G04 #@! TF.FileFunction,Copper,L2,Bot*
G04 #@! TF.FilePolarity,Positive*
%FSLAX46Y46*%
G04 Gerber Fmt 4.6, Leading zero omitted, Abs format (unit mm)*
G04 Created by KiCad (PCBNEW (5.1.5)-3) date 2020-06-04 15:01:54*
%MOMM*%
%LPD*%
G04 APERTURE LIST*
%ADD10R,1.700000X1.700000*%
%ADD11O,1.700000X1.700000*%
%ADD12R,1.750000X1.750000*%
%ADD13C,1.750000*%
%ADD14C,2.000000*%
%ADD15R,0.900000X0.800000*%
%ADD16C,1.000000*%
%ADD17R,0.800000X0.750000*%
%ADD18C,0.800000*%
%ADD19C,2.000000*%
%ADD20C,0.250000*%
%ADD21C,0.500000*%
%ADD22C,0.254000*%
G04 APERTURE END LIST*
D10*
X98135800Y-181490740D03*
D11*
X100675800Y-181490740D03*
X103215800Y-181490740D03*
D12*
X113605800Y-122530740D03*
D13*
X113605800Y-120030740D03*
D12*
X97515800Y-166380740D03*
D13*
X97515800Y-168880740D03*
X97515800Y-171380740D03*
X97515800Y-173880740D03*
D12*
X122115800Y-122570740D03*
D13*
X122115800Y-120070740D03*
D12*
X104745800Y-166380740D03*
D13*
X104745800Y-168880740D03*
X104745800Y-171380740D03*
X104745800Y-173880740D03*
D14*
X100585800Y-117640740D03*
X117975800Y-162490740D03*
X112435800Y-162520740D03*
D10*
X103375800Y-104260740D03*
D11*
X100835800Y-104260740D03*
X98295800Y-104260740D03*
D15*
X118815800Y-144400740D03*
X118815800Y-142500740D03*
X120815800Y-143450740D03*
X132635800Y-144360740D03*
X132635800Y-142460740D03*
X134635800Y-143410740D03*
D14*
X129795800Y-154480740D03*
X129795800Y-131480740D03*
X121795800Y-154480740D03*
X121795800Y-131480740D03*
X98795800Y-154480740D03*
X98795800Y-131480740D03*
X90795800Y-154480740D03*
X90795800Y-131480740D03*
D16*
X108935800Y-105610740D03*
X137995800Y-139070740D03*
X63095800Y-151450740D03*
D17*
X120305800Y-146860740D03*
X118805800Y-146860740D03*
X134345800Y-146860740D03*
X132845800Y-146860740D03*
D18*
X76975800Y-136720740D03*
X76385800Y-118310740D03*
X98375800Y-110240740D03*
X107525800Y-111380740D03*
X96195800Y-135350740D03*
X76695800Y-112380740D03*
X88465800Y-109440740D03*
X83415800Y-113260740D03*
X98515800Y-123100740D03*
X101985800Y-130350740D03*
X95975800Y-140890740D03*
X103045800Y-147390740D03*
X90465800Y-124630740D03*
X98405800Y-115440740D03*
X80935800Y-130340740D03*
X72105800Y-131350740D03*
X68855800Y-133940740D03*
X99895800Y-166380740D03*
X101945800Y-166380740D03*
X99804977Y-168409917D03*
X102125800Y-168360740D03*
X65095800Y-155560740D03*
X76915800Y-170300740D03*
X92055800Y-178660740D03*
X115835800Y-178170740D03*
X125945800Y-171060740D03*
X136055800Y-155610740D03*
X138435800Y-142660740D03*
X135465800Y-129450740D03*
X127565800Y-116560740D03*
X117045800Y-109370740D03*
X106255800Y-104920740D03*
X69775800Y-119520740D03*
X94935800Y-104060740D03*
X64195800Y-129770740D03*
X62045800Y-140460740D03*
X84105800Y-155830740D03*
X91075800Y-164230740D03*
X101945800Y-159610740D03*
X80735800Y-146800740D03*
X90985800Y-145450740D03*
X114485800Y-154480740D03*
X122935800Y-161810740D03*
X130525800Y-147290740D03*
X129855800Y-137090740D03*
X123205800Y-135110740D03*
X115745800Y-129540740D03*
X116105800Y-114490740D03*
X106125800Y-128100740D03*
X76155800Y-148260740D03*
X89405800Y-135340740D03*
X107395800Y-141290740D03*
X107265800Y-147370740D03*
X115095800Y-147500740D03*
X111415800Y-144140740D03*
X91545800Y-159540740D03*
X89405800Y-167820740D03*
X84235800Y-175390740D03*
X108885800Y-179790740D03*
X96365800Y-178350740D03*
X100195800Y-178450740D03*
X111465800Y-175110740D03*
X110715800Y-169180740D03*
X124845800Y-165560740D03*
X105085800Y-123370740D03*
X80325800Y-120430740D03*
X95315800Y-114695740D03*
X95315800Y-117640740D03*
X96325800Y-125485740D03*
X96725800Y-127400740D03*
X104955800Y-137220740D03*
X104955800Y-140070740D03*
X104955800Y-148450740D03*
X104955800Y-151050740D03*
X99765800Y-171630740D03*
X99705800Y-173830740D03*
X102465800Y-171600740D03*
X102285800Y-173830740D03*
X88255800Y-119685740D03*
X88255953Y-121165893D03*
X85535800Y-122975740D03*
X84095800Y-129230740D03*
X80815800Y-132590740D03*
X77675800Y-132570740D03*
X67740800Y-132570740D03*
X64985800Y-132610740D03*
X69535800Y-145270740D03*
X71245800Y-148370740D03*
X72565800Y-148150740D03*
X70675800Y-142610740D03*
X73885800Y-120560740D03*
X72005800Y-129410740D03*
X72982938Y-120990674D03*
X72039794Y-128351441D03*
X80255800Y-141670740D03*
X80115800Y-135970740D03*
X80115800Y-137340740D03*
X76245800Y-120525750D03*
X77999943Y-130839578D03*
X80115800Y-133460730D03*
X76970800Y-121228082D03*
X76975800Y-130840740D03*
X79180105Y-141873009D03*
X78995800Y-137340740D03*
X79005800Y-135900740D03*
X79005800Y-133460730D03*
X82395800Y-122975740D03*
X82398288Y-125620209D03*
X83395800Y-125690740D03*
X83405800Y-122250740D03*
X91398821Y-117983761D03*
X91395800Y-114600740D03*
X84225800Y-124480740D03*
X84231357Y-126415740D03*
X91185800Y-122190740D03*
X86775800Y-124520740D03*
X89315800Y-123750740D03*
X78198559Y-141681777D03*
X78185800Y-138190740D03*
X77201846Y-141600750D03*
X77195800Y-139040740D03*
X87385800Y-115215740D03*
X90106168Y-118251108D03*
X88395800Y-115215740D03*
X88375800Y-116665740D03*
X115865800Y-151090740D03*
X109805800Y-121280740D03*
X109915800Y-126600740D03*
X115195800Y-137260740D03*
X115265800Y-140390740D03*
X116905800Y-144390740D03*
X74925800Y-118390740D03*
X74925800Y-120560740D03*
X88825800Y-122430740D03*
X97125800Y-123940740D03*
X81395797Y-122975740D03*
X84585800Y-127380740D03*
X111195800Y-137310740D03*
X111195800Y-140280740D03*
X115505800Y-142490740D03*
X80395811Y-122970123D03*
X83767770Y-128105740D03*
X110196249Y-137340740D03*
X110545800Y-141100740D03*
X113385800Y-141410740D03*
X116805800Y-140770740D03*
X130375800Y-141770740D03*
X90216220Y-117115750D03*
X90225800Y-115215740D03*
D19*
X97515800Y-168880740D02*
X104745800Y-168880740D01*
X104745800Y-168880740D02*
X104745800Y-166380740D01*
X104745800Y-166380740D02*
X97515800Y-166380740D01*
X97515800Y-166380740D02*
X97515800Y-168880740D01*
X97775800Y-166380740D02*
X99804977Y-168409917D01*
X97515800Y-166380740D02*
X97775800Y-166380740D01*
X104105800Y-166380740D02*
X102125800Y-168360740D01*
X104745800Y-166380740D02*
X104105800Y-166380740D01*
D20*
X95315800Y-114695740D02*
X95315800Y-117640740D01*
X96325800Y-125485740D02*
X96325800Y-127000740D01*
X96325800Y-127000740D02*
X96725800Y-127400740D01*
X104955800Y-137220740D02*
X104955800Y-140070740D01*
X104955800Y-148450740D02*
X104955800Y-151050740D01*
D19*
X100015800Y-171380740D02*
X99765800Y-171630740D01*
X104745800Y-171380740D02*
X100015800Y-171380740D01*
X102245800Y-171380740D02*
X102465800Y-171600740D01*
X97515800Y-171380740D02*
X102245800Y-171380740D01*
X103870801Y-172255739D02*
X101990801Y-172255739D01*
X101990801Y-172255739D02*
X100365800Y-173880740D01*
X104745800Y-171380740D02*
X103870801Y-172255739D01*
X97515800Y-173880740D02*
X99505800Y-173880740D01*
X100820799Y-172255739D02*
X102300800Y-173735740D01*
X97515800Y-171380740D02*
X98390799Y-172255739D01*
X100365800Y-173880740D02*
X102445800Y-173880740D01*
X98390799Y-172255739D02*
X100820799Y-172255739D01*
X102445800Y-173880740D02*
X104745800Y-173880740D01*
X99765800Y-171630740D02*
X97515800Y-173880740D01*
X99505800Y-173880740D02*
X100365800Y-173880740D01*
X102465800Y-171600740D02*
X104745800Y-173880740D01*
X102300800Y-173735740D02*
X102445800Y-173880740D01*
D20*
X88255800Y-119685740D02*
X88255800Y-121165740D01*
X88255800Y-121165740D02*
X88255953Y-121165893D01*
X85535800Y-122975740D02*
X85535800Y-127790740D01*
X85535800Y-127790740D02*
X84095800Y-129230740D01*
X80815800Y-132590740D02*
X77695800Y-132590740D01*
X77695800Y-132590740D02*
X77675800Y-132570740D01*
X65025800Y-132570740D02*
X64985800Y-132610740D01*
X67740800Y-132570740D02*
X65025800Y-132570740D01*
D21*
X69535800Y-145270740D02*
X69535800Y-146660740D01*
X69535800Y-146660740D02*
X71245800Y-148370740D01*
X72565800Y-148150740D02*
X70675800Y-146260740D01*
X70675800Y-146260740D02*
X70675800Y-142610740D01*
D20*
X73885800Y-120560740D02*
X73885800Y-127530740D01*
X73885800Y-127530740D02*
X72005800Y-129410740D01*
X72982938Y-120990674D02*
X72982938Y-127408297D01*
X72982938Y-127408297D02*
X72039794Y-128351441D01*
X80255800Y-137480740D02*
X80115800Y-137340740D01*
X80255800Y-141670740D02*
X80255800Y-137480740D01*
X80115800Y-135970740D02*
X80115800Y-133497728D01*
X76245800Y-120525750D02*
X76245800Y-130040740D01*
X76245800Y-131183742D02*
X76627799Y-131565741D01*
X76245800Y-130040740D02*
X76245800Y-131183742D01*
X76627799Y-131565741D02*
X77323801Y-131565741D01*
X77323801Y-131565741D02*
X77999943Y-130889599D01*
X77999943Y-130889599D02*
X77999943Y-130839578D01*
X76970800Y-121228082D02*
X76970800Y-130835740D01*
X76970800Y-130835740D02*
X76975800Y-130840740D01*
X79180105Y-141873009D02*
X79180105Y-137525045D01*
X79180105Y-137525045D02*
X78995800Y-137340740D01*
X79005800Y-135900740D02*
X79005800Y-133460730D01*
X82395800Y-122975740D02*
X82395800Y-125617721D01*
X82395800Y-125617721D02*
X82398288Y-125620209D01*
X83395800Y-125690740D02*
X83395800Y-122260740D01*
X83395800Y-122260740D02*
X83405800Y-122250740D01*
X91398821Y-117983761D02*
X91398821Y-114603761D01*
X91398821Y-114603761D02*
X91395800Y-114600740D01*
X91398821Y-117983761D02*
X91398821Y-121667719D01*
X84231357Y-124486297D02*
X84225800Y-124480740D01*
X84231357Y-126415740D02*
X84231357Y-124486297D01*
X91398821Y-121977719D02*
X91398821Y-121667719D01*
X91185800Y-122190740D02*
X91398821Y-121977719D01*
X86775800Y-124520740D02*
X87545800Y-123750740D01*
X87545800Y-123750740D02*
X89315800Y-123750740D01*
D21*
X78198559Y-141681777D02*
X78198559Y-138203499D01*
X78198559Y-138203499D02*
X78185800Y-138190740D01*
X77201846Y-141600750D02*
X77201846Y-139046786D01*
X77201846Y-139046786D02*
X77195800Y-139040740D01*
D20*
X88908166Y-118251108D02*
X90106168Y-118251108D01*
X87385800Y-115215740D02*
X87385800Y-116728742D01*
X87385800Y-116728742D02*
X88908166Y-118251108D01*
X88375800Y-115235740D02*
X88395800Y-115215740D01*
X88375800Y-116665740D02*
X88375800Y-115235740D01*
X132635800Y-146650740D02*
X132845800Y-146860740D01*
X132635800Y-144360740D02*
X132635800Y-146650740D01*
X118815800Y-146850740D02*
X118805800Y-146860740D01*
X118815800Y-144400740D02*
X118815800Y-146850740D01*
X118805800Y-148150740D02*
X118805800Y-146860740D01*
X115865800Y-151090740D02*
X118805800Y-148150740D01*
X132595800Y-144400740D02*
X132635800Y-144360740D01*
X118815800Y-144400740D02*
X132595800Y-144400740D01*
X109805800Y-121846425D02*
X109915800Y-121956425D01*
X109805800Y-121280740D02*
X109805800Y-121846425D01*
X109915800Y-121956425D02*
X109915800Y-126600740D01*
X115195800Y-137260740D02*
X115195800Y-140320740D01*
X115195800Y-140320740D02*
X115265800Y-140390740D01*
X118805800Y-144390740D02*
X118815800Y-144400740D01*
X116905800Y-144390740D02*
X118805800Y-144390740D01*
X74925800Y-118390740D02*
X74925800Y-120560740D01*
X91862798Y-123940740D02*
X97125800Y-123940740D01*
X88825800Y-122430740D02*
X90352798Y-122430740D01*
X90352798Y-122430740D02*
X91862798Y-123940740D01*
X83085817Y-127380740D02*
X84585800Y-127380740D01*
X81395797Y-122975740D02*
X81395797Y-125690720D01*
X81395797Y-125690720D02*
X83085817Y-127380740D01*
X111195800Y-137310740D02*
X111195800Y-140280740D01*
X118805800Y-142490740D02*
X118815800Y-142500740D01*
X115505800Y-142490740D02*
X118805800Y-142490740D01*
X83174407Y-128105740D02*
X83767770Y-128105740D01*
X80395811Y-122970123D02*
X80395811Y-125327144D01*
X80395811Y-125327144D02*
X83174407Y-128105740D01*
X110196249Y-137340740D02*
X110196249Y-140751189D01*
X110196249Y-140751189D02*
X110545800Y-141100740D01*
X113385800Y-141410740D02*
X116165800Y-141410740D01*
X116165800Y-141410740D02*
X116805800Y-140770740D01*
X131065800Y-142460740D02*
X132635800Y-142460740D01*
X130375800Y-141770740D02*
X131065800Y-142460740D01*
X90216220Y-117115750D02*
X90216220Y-115225320D01*
X90216220Y-115225320D02*
X90225800Y-115215740D01*
D22*
G36*
X96979810Y-103557329D02*
G01*
X96867868Y-103827582D01*
X96810800Y-104114480D01*
X96810800Y-104407000D01*
X96867868Y-104693898D01*
X96979810Y-104964151D01*
X97142325Y-105207372D01*
X97349168Y-105414215D01*
X97592389Y-105576730D01*
X97862642Y-105688672D01*
X98149540Y-105745740D01*
X98442060Y-105745740D01*
X98728958Y-105688672D01*
X98999211Y-105576730D01*
X99242432Y-105414215D01*
X99449275Y-105207372D01*
X99570995Y-105025206D01*
X99640622Y-105142095D01*
X99835531Y-105358328D01*
X100068880Y-105532381D01*
X100331701Y-105657565D01*
X100478910Y-105702216D01*
X100708800Y-105580895D01*
X100708800Y-104387740D01*
X100688800Y-104387740D01*
X100688800Y-104133740D01*
X100708800Y-104133740D01*
X100708800Y-104113740D01*
X100962800Y-104113740D01*
X100962800Y-104133740D01*
X100982800Y-104133740D01*
X100982800Y-104387740D01*
X100962800Y-104387740D01*
X100962800Y-105580895D01*
X101192690Y-105702216D01*
X101339899Y-105657565D01*
X101602720Y-105532381D01*
X101836069Y-105358328D01*
X101911834Y-105274274D01*
X101936298Y-105354920D01*
X101995263Y-105465234D01*
X102074615Y-105561925D01*
X102171306Y-105641277D01*
X102281620Y-105700242D01*
X102401318Y-105736552D01*
X102525800Y-105748812D01*
X104225800Y-105748812D01*
X104350282Y-105736552D01*
X104469980Y-105700242D01*
X104580294Y-105641277D01*
X104676985Y-105561925D01*
X104756337Y-105465234D01*
X104815302Y-105354920D01*
X104851612Y-105235222D01*
X104863872Y-105110740D01*
X104863872Y-103624541D01*
X106703397Y-103856927D01*
X108688388Y-104235585D01*
X108528310Y-104267426D01*
X108274073Y-104372735D01*
X108045265Y-104525620D01*
X107850680Y-104720205D01*
X107697795Y-104949013D01*
X107592486Y-105203250D01*
X107538800Y-105473148D01*
X107538800Y-105748332D01*
X107592486Y-106018230D01*
X107697795Y-106272467D01*
X107850680Y-106501275D01*
X108045265Y-106695860D01*
X108274073Y-106848745D01*
X108528310Y-106954054D01*
X108798208Y-107007740D01*
X109073392Y-107007740D01*
X109343290Y-106954054D01*
X109597527Y-106848745D01*
X109826335Y-106695860D01*
X110020920Y-106501275D01*
X110173805Y-106272467D01*
X110279114Y-106018230D01*
X110332800Y-105748332D01*
X110332800Y-105473148D01*
X110279114Y-105203250D01*
X110173805Y-104949013D01*
X110020920Y-104720205D01*
X109826335Y-104525620D01*
X109759048Y-104480660D01*
X111543159Y-104938742D01*
X113902560Y-105705358D01*
X116209170Y-106618610D01*
X118453885Y-107674892D01*
X120627846Y-108870037D01*
X122722473Y-110199328D01*
X124729500Y-111657519D01*
X126641006Y-113238854D01*
X128449447Y-114937093D01*
X130147686Y-116745534D01*
X131729021Y-118657040D01*
X133187212Y-120664067D01*
X133822573Y-121665235D01*
X133200004Y-121407359D01*
X132528255Y-121273740D01*
X131843345Y-121273740D01*
X131171596Y-121407359D01*
X130538823Y-121669462D01*
X129969342Y-122049978D01*
X129485038Y-122534282D01*
X129104522Y-123103763D01*
X128842419Y-123736536D01*
X128708800Y-124408285D01*
X128708800Y-125093195D01*
X128842419Y-125764944D01*
X129104522Y-126397717D01*
X129485038Y-126967198D01*
X129969342Y-127451502D01*
X130538823Y-127832018D01*
X131171596Y-128094121D01*
X131843345Y-128227740D01*
X132528255Y-128227740D01*
X133200004Y-128094121D01*
X133832777Y-127832018D01*
X134402258Y-127451502D01*
X134886562Y-126967198D01*
X135267078Y-126397717D01*
X135529181Y-125764944D01*
X135662800Y-125093195D01*
X135662800Y-124843801D01*
X135711648Y-124932655D01*
X136767930Y-127177370D01*
X137681182Y-129483980D01*
X138447798Y-131843381D01*
X139064753Y-134246263D01*
X139529613Y-136683143D01*
X139840542Y-139144403D01*
X139996314Y-141620329D01*
X139996314Y-144101151D01*
X139840542Y-146577077D01*
X139529613Y-149038337D01*
X139064753Y-151475217D01*
X138447798Y-153878099D01*
X137681182Y-156237500D01*
X136767930Y-158544110D01*
X135711648Y-160788825D01*
X135662800Y-160877679D01*
X135662800Y-160688285D01*
X135529181Y-160016536D01*
X135267078Y-159383763D01*
X134886562Y-158814282D01*
X134402258Y-158329978D01*
X133832777Y-157949462D01*
X133200004Y-157687359D01*
X132528255Y-157553740D01*
X131843345Y-157553740D01*
X131171596Y-157687359D01*
X130538823Y-157949462D01*
X129969342Y-158329978D01*
X129485038Y-158814282D01*
X129104522Y-159383763D01*
X128842419Y-160016536D01*
X128708800Y-160688285D01*
X128708800Y-161373195D01*
X128842419Y-162044944D01*
X129104522Y-162677717D01*
X129485038Y-163247198D01*
X129969342Y-163731502D01*
X130538823Y-164112018D01*
X131171596Y-164374121D01*
X131843345Y-164507740D01*
X132528255Y-164507740D01*
X133200004Y-164374121D01*
X133770917Y-164137641D01*
X133187212Y-165057413D01*
X131729021Y-167064440D01*
X130147686Y-168975946D01*
X128449447Y-170784387D01*
X126641006Y-172482626D01*
X124729500Y-174063961D01*
X122722473Y-175522152D01*
X120627846Y-176851443D01*
X118453885Y-178046588D01*
X116209170Y-179102870D01*
X113902560Y-180016122D01*
X111543159Y-180782738D01*
X109140277Y-181399693D01*
X106703397Y-181864553D01*
X104555943Y-182135839D01*
X104643732Y-181923898D01*
X104700800Y-181637000D01*
X104700800Y-181344480D01*
X104643732Y-181057582D01*
X104531790Y-180787329D01*
X104369275Y-180544108D01*
X104162432Y-180337265D01*
X103919211Y-180174750D01*
X103648958Y-180062808D01*
X103362060Y-180005740D01*
X103069540Y-180005740D01*
X102782642Y-180062808D01*
X102512389Y-180174750D01*
X102269168Y-180337265D01*
X102062325Y-180544108D01*
X101940605Y-180726274D01*
X101870978Y-180609385D01*
X101676069Y-180393152D01*
X101442720Y-180219099D01*
X101179899Y-180093915D01*
X101032690Y-180049264D01*
X100802800Y-180170585D01*
X100802800Y-181363740D01*
X100822800Y-181363740D01*
X100822800Y-181617740D01*
X100802800Y-181617740D01*
X100802800Y-181637740D01*
X100548800Y-181637740D01*
X100548800Y-181617740D01*
X100528800Y-181617740D01*
X100528800Y-181363740D01*
X100548800Y-181363740D01*
X100548800Y-180170585D01*
X100318910Y-180049264D01*
X100171701Y-180093915D01*
X99908880Y-180219099D01*
X99675531Y-180393152D01*
X99599766Y-180477206D01*
X99575302Y-180396560D01*
X99516337Y-180286246D01*
X99436985Y-180189555D01*
X99340294Y-180110203D01*
X99229980Y-180051238D01*
X99110282Y-180014928D01*
X98985800Y-180002668D01*
X97285800Y-180002668D01*
X97161318Y-180014928D01*
X97041620Y-180051238D01*
X96931306Y-180110203D01*
X96834615Y-180189555D01*
X96755263Y-180286246D01*
X96696298Y-180396560D01*
X96659988Y-180516258D01*
X96647728Y-180640740D01*
X96647728Y-182155050D01*
X94348203Y-181864553D01*
X91911323Y-181399693D01*
X89508441Y-180782738D01*
X87149040Y-180016122D01*
X84842430Y-179102870D01*
X82597715Y-178046588D01*
X80423754Y-176851443D01*
X78329127Y-175522152D01*
X76322100Y-174063961D01*
X74410594Y-172482626D01*
X73237205Y-171380740D01*
X95872889Y-171380740D01*
X95904457Y-171701256D01*
X95997948Y-172009455D01*
X96149769Y-172293492D01*
X96354086Y-172542454D01*
X96416487Y-172593665D01*
X96453562Y-172630740D01*
X96416486Y-172667816D01*
X96354086Y-172719026D01*
X96149769Y-172967988D01*
X95997948Y-173252025D01*
X95904457Y-173560224D01*
X95872889Y-173880740D01*
X95904457Y-174201256D01*
X95997948Y-174509455D01*
X96149769Y-174793492D01*
X96354086Y-175042454D01*
X96603048Y-175246771D01*
X96887085Y-175398592D01*
X97195284Y-175492083D01*
X97435478Y-175515740D01*
X97435481Y-175515740D01*
X97515800Y-175523651D01*
X97596119Y-175515740D01*
X100285481Y-175515740D01*
X100365800Y-175523651D01*
X100446119Y-175515740D01*
X102365481Y-175515740D01*
X102445800Y-175523651D01*
X102526119Y-175515740D01*
X104665480Y-175515740D01*
X104745800Y-175523651D01*
X104826119Y-175515740D01*
X104826122Y-175515740D01*
X105066316Y-175492083D01*
X105374515Y-175398592D01*
X105658552Y-175246771D01*
X105907514Y-175042454D01*
X106111831Y-174793492D01*
X106263652Y-174509455D01*
X106357143Y-174201256D01*
X106388711Y-173880740D01*
X106357143Y-173560224D01*
X106263652Y-173252025D01*
X106111831Y-172967988D01*
X105907514Y-172719026D01*
X105845118Y-172667820D01*
X105808038Y-172630740D01*
X105845113Y-172593665D01*
X105907514Y-172542454D01*
X106111831Y-172293492D01*
X106263652Y-172009455D01*
X106357143Y-171701256D01*
X106388711Y-171380740D01*
X106357143Y-171060224D01*
X106263652Y-170752025D01*
X106111831Y-170467988D01*
X105907514Y-170219026D01*
X105658552Y-170014709D01*
X105595173Y-169980832D01*
X105612435Y-169926980D01*
X104745800Y-169060345D01*
X104731658Y-169074488D01*
X104552053Y-168894883D01*
X104566195Y-168880740D01*
X104552053Y-168866598D01*
X104731658Y-168686993D01*
X104745800Y-168701135D01*
X104759943Y-168686993D01*
X104939548Y-168866598D01*
X104925405Y-168880740D01*
X105792040Y-169747375D01*
X106043668Y-169666715D01*
X106172067Y-169398411D01*
X106245655Y-169110214D01*
X106261604Y-168813197D01*
X106219301Y-168518777D01*
X106120372Y-168238266D01*
X106043668Y-168094765D01*
X105792042Y-168014106D01*
X105908067Y-167898081D01*
X105857498Y-167847512D01*
X105864980Y-167845242D01*
X105975294Y-167786277D01*
X106071985Y-167706925D01*
X106151337Y-167610234D01*
X106210302Y-167499920D01*
X106246612Y-167380222D01*
X106258872Y-167255740D01*
X106255800Y-166666490D01*
X106097050Y-166507740D01*
X104872800Y-166507740D01*
X104872800Y-166527740D01*
X104618800Y-166527740D01*
X104618800Y-166507740D01*
X103394550Y-166507740D01*
X103235800Y-166666490D01*
X103232728Y-167255740D01*
X103244988Y-167380222D01*
X103281298Y-167499920D01*
X103340263Y-167610234D01*
X103419615Y-167706925D01*
X103516306Y-167786277D01*
X103626620Y-167845242D01*
X103634102Y-167847512D01*
X103583533Y-167898081D01*
X103699558Y-168014106D01*
X103447932Y-168094765D01*
X103319533Y-168363069D01*
X103245945Y-168651266D01*
X103229996Y-168948283D01*
X103272299Y-169242703D01*
X103371228Y-169523214D01*
X103447932Y-169666715D01*
X103694459Y-169745740D01*
X102326119Y-169745740D01*
X102245800Y-169737829D01*
X102165481Y-169745740D01*
X100096119Y-169745740D01*
X100015799Y-169737829D01*
X99935480Y-169745740D01*
X98567141Y-169745740D01*
X98813668Y-169666715D01*
X98942067Y-169398411D01*
X99015655Y-169110214D01*
X99031604Y-168813197D01*
X98989301Y-168518777D01*
X98890372Y-168238266D01*
X98813668Y-168094765D01*
X98562042Y-168014106D01*
X98678067Y-167898081D01*
X98627498Y-167847512D01*
X98634980Y-167845242D01*
X98745294Y-167786277D01*
X98841985Y-167706925D01*
X98921337Y-167610234D01*
X98980302Y-167499920D01*
X99016612Y-167380222D01*
X99028872Y-167255740D01*
X99025800Y-166666490D01*
X98867050Y-166507740D01*
X97642800Y-166507740D01*
X97642800Y-166527740D01*
X97388800Y-166527740D01*
X97388800Y-166507740D01*
X96164550Y-166507740D01*
X96005800Y-166666490D01*
X96002728Y-167255740D01*
X96014988Y-167380222D01*
X96051298Y-167499920D01*
X96110263Y-167610234D01*
X96189615Y-167706925D01*
X96286306Y-167786277D01*
X96396620Y-167845242D01*
X96404102Y-167847512D01*
X96353533Y-167898081D01*
X96469558Y-168014106D01*
X96217932Y-168094765D01*
X96089533Y-168363069D01*
X96015945Y-168651266D01*
X95999996Y-168948283D01*
X96042299Y-169242703D01*
X96141228Y-169523214D01*
X96217932Y-169666715D01*
X96469560Y-169747375D01*
X97336195Y-168880740D01*
X97322053Y-168866598D01*
X97501658Y-168686993D01*
X97515800Y-168701135D01*
X97529943Y-168686993D01*
X97709548Y-168866598D01*
X97695405Y-168880740D01*
X97709548Y-168894883D01*
X97529943Y-169074488D01*
X97515800Y-169060345D01*
X96649165Y-169926980D01*
X96666427Y-169980832D01*
X96603048Y-170014709D01*
X96354086Y-170219026D01*
X96149769Y-170467988D01*
X95997948Y-170752025D01*
X95904457Y-171060224D01*
X95872889Y-171380740D01*
X73237205Y-171380740D01*
X72602153Y-170784387D01*
X70903914Y-168975946D01*
X69322579Y-167064440D01*
X68190117Y-165505740D01*
X96002728Y-165505740D01*
X96005800Y-166094990D01*
X96164550Y-166253740D01*
X97388800Y-166253740D01*
X97388800Y-165029490D01*
X97642800Y-165029490D01*
X97642800Y-166253740D01*
X98867050Y-166253740D01*
X99025800Y-166094990D01*
X99028872Y-165505740D01*
X103232728Y-165505740D01*
X103235800Y-166094990D01*
X103394550Y-166253740D01*
X104618800Y-166253740D01*
X104618800Y-165029490D01*
X104872800Y-165029490D01*
X104872800Y-166253740D01*
X106097050Y-166253740D01*
X106255800Y-166094990D01*
X106258872Y-165505740D01*
X106246612Y-165381258D01*
X106210302Y-165261560D01*
X106151337Y-165151246D01*
X106071985Y-165054555D01*
X105975294Y-164975203D01*
X105864980Y-164916238D01*
X105745282Y-164879928D01*
X105620800Y-164867668D01*
X105031550Y-164870740D01*
X104872800Y-165029490D01*
X104618800Y-165029490D01*
X104460050Y-164870740D01*
X103870800Y-164867668D01*
X103746318Y-164879928D01*
X103626620Y-164916238D01*
X103516306Y-164975203D01*
X103419615Y-165054555D01*
X103340263Y-165151246D01*
X103281298Y-165261560D01*
X103244988Y-165381258D01*
X103232728Y-165505740D01*
X99028872Y-165505740D01*
X99016612Y-165381258D01*
X98980302Y-165261560D01*
X98921337Y-165151246D01*
X98841985Y-165054555D01*
X98745294Y-164975203D01*
X98634980Y-164916238D01*
X98515282Y-164879928D01*
X98390800Y-164867668D01*
X97801550Y-164870740D01*
X97642800Y-165029490D01*
X97388800Y-165029490D01*
X97230050Y-164870740D01*
X96640800Y-164867668D01*
X96516318Y-164879928D01*
X96396620Y-164916238D01*
X96286306Y-164975203D01*
X96189615Y-165054555D01*
X96110263Y-165151246D01*
X96051298Y-165261560D01*
X96014988Y-165381258D01*
X96002728Y-165505740D01*
X68190117Y-165505740D01*
X67864388Y-165057413D01*
X67280683Y-164137641D01*
X67851596Y-164374121D01*
X68523345Y-164507740D01*
X69208255Y-164507740D01*
X69880004Y-164374121D01*
X70512777Y-164112018D01*
X71082258Y-163731502D01*
X71157607Y-163656153D01*
X111479992Y-163656153D01*
X111575756Y-163920554D01*
X111865371Y-164061444D01*
X112176908Y-164143124D01*
X112498395Y-164162458D01*
X112817475Y-164118701D01*
X113121888Y-164013535D01*
X113295844Y-163920554D01*
X113391608Y-163656153D01*
X112435800Y-162700345D01*
X111479992Y-163656153D01*
X71157607Y-163656153D01*
X71566562Y-163247198D01*
X71947078Y-162677717D01*
X71986172Y-162583335D01*
X110794082Y-162583335D01*
X110837839Y-162902415D01*
X110943005Y-163206828D01*
X111035986Y-163380784D01*
X111300387Y-163476548D01*
X112256195Y-162520740D01*
X112615405Y-162520740D01*
X113571213Y-163476548D01*
X113835614Y-163380784D01*
X113976504Y-163091169D01*
X114058184Y-162779632D01*
X114077518Y-162458145D01*
X114059905Y-162329707D01*
X116340800Y-162329707D01*
X116340800Y-162651773D01*
X116403632Y-162967652D01*
X116526882Y-163265203D01*
X116705813Y-163532992D01*
X116933548Y-163760727D01*
X117201337Y-163939658D01*
X117498888Y-164062908D01*
X117814767Y-164125740D01*
X118136833Y-164125740D01*
X118452712Y-164062908D01*
X118750263Y-163939658D01*
X119018052Y-163760727D01*
X119245787Y-163532992D01*
X119424718Y-163265203D01*
X119547968Y-162967652D01*
X119610800Y-162651773D01*
X119610800Y-162329707D01*
X119547968Y-162013828D01*
X119424718Y-161716277D01*
X119245787Y-161448488D01*
X119018052Y-161220753D01*
X118750263Y-161041822D01*
X118452712Y-160918572D01*
X118136833Y-160855740D01*
X117814767Y-160855740D01*
X117498888Y-160918572D01*
X117201337Y-161041822D01*
X116933548Y-161220753D01*
X116705813Y-161448488D01*
X116526882Y-161716277D01*
X116403632Y-162013828D01*
X116340800Y-162329707D01*
X114059905Y-162329707D01*
X114033761Y-162139065D01*
X113928595Y-161834652D01*
X113835614Y-161660696D01*
X113571213Y-161564932D01*
X112615405Y-162520740D01*
X112256195Y-162520740D01*
X111300387Y-161564932D01*
X111035986Y-161660696D01*
X110895096Y-161950311D01*
X110813416Y-162261848D01*
X110794082Y-162583335D01*
X71986172Y-162583335D01*
X72209181Y-162044944D01*
X72340386Y-161385327D01*
X111479992Y-161385327D01*
X112435800Y-162341135D01*
X113391608Y-161385327D01*
X113295844Y-161120926D01*
X113006229Y-160980036D01*
X112694692Y-160898356D01*
X112373205Y-160879022D01*
X112054125Y-160922779D01*
X111749712Y-161027945D01*
X111575756Y-161120926D01*
X111479992Y-161385327D01*
X72340386Y-161385327D01*
X72342800Y-161373195D01*
X72342800Y-160688285D01*
X72209181Y-160016536D01*
X71947078Y-159383763D01*
X71566562Y-158814282D01*
X71082258Y-158329978D01*
X70512777Y-157949462D01*
X69880004Y-157687359D01*
X69208255Y-157553740D01*
X68523345Y-157553740D01*
X67851596Y-157687359D01*
X67218823Y-157949462D01*
X66649342Y-158329978D01*
X66165038Y-158814282D01*
X65784522Y-159383763D01*
X65522419Y-160016536D01*
X65388800Y-160688285D01*
X65388800Y-160877679D01*
X65339952Y-160788825D01*
X64283670Y-158544110D01*
X63383469Y-156270461D01*
X92660800Y-156270461D01*
X92660800Y-156691019D01*
X92742847Y-157103496D01*
X92903788Y-157492042D01*
X93137437Y-157841723D01*
X93434817Y-158139103D01*
X93784498Y-158372752D01*
X94173044Y-158533693D01*
X94585521Y-158615740D01*
X95006079Y-158615740D01*
X95418556Y-158533693D01*
X95807102Y-158372752D01*
X96156783Y-158139103D01*
X96454163Y-157841723D01*
X96687812Y-157492042D01*
X96848753Y-157103496D01*
X96930800Y-156691019D01*
X96930800Y-156270461D01*
X96848753Y-155857984D01*
X96687812Y-155469438D01*
X96454163Y-155119757D01*
X96156783Y-154822377D01*
X95807102Y-154588728D01*
X95418556Y-154427787D01*
X95006079Y-154345740D01*
X94585521Y-154345740D01*
X94173044Y-154427787D01*
X93784498Y-154588728D01*
X93434817Y-154822377D01*
X93137437Y-155119757D01*
X92903788Y-155469438D01*
X92742847Y-155857984D01*
X92660800Y-156270461D01*
X63383469Y-156270461D01*
X63370418Y-156237500D01*
X62747290Y-154319707D01*
X89160800Y-154319707D01*
X89160800Y-154641773D01*
X89223632Y-154957652D01*
X89346882Y-155255203D01*
X89525813Y-155522992D01*
X89753548Y-155750727D01*
X90021337Y-155929658D01*
X90318888Y-156052908D01*
X90634767Y-156115740D01*
X90956833Y-156115740D01*
X91272712Y-156052908D01*
X91570263Y-155929658D01*
X91838052Y-155750727D01*
X92065787Y-155522992D01*
X92244718Y-155255203D01*
X92367968Y-154957652D01*
X92430800Y-154641773D01*
X92430800Y-154319707D01*
X97160800Y-154319707D01*
X97160800Y-154641773D01*
X97223632Y-154957652D01*
X97346882Y-155255203D01*
X97525813Y-155522992D01*
X97753548Y-155750727D01*
X98021337Y-155929658D01*
X98318888Y-156052908D01*
X98634767Y-156115740D01*
X98956833Y-156115740D01*
X99272712Y-156052908D01*
X99570263Y-155929658D01*
X99838052Y-155750727D01*
X100065787Y-155522992D01*
X100244718Y-155255203D01*
X100273450Y-155185838D01*
X107920800Y-155185838D01*
X107920800Y-155655642D01*
X108012454Y-156116419D01*
X108192240Y-156550461D01*
X108453250Y-156941089D01*
X108785451Y-157273290D01*
X109176079Y-157534300D01*
X109610121Y-157714086D01*
X110070898Y-157805740D01*
X110540702Y-157805740D01*
X111001479Y-157714086D01*
X111435521Y-157534300D01*
X111826149Y-157273290D01*
X112158350Y-156941089D01*
X112419360Y-156550461D01*
X112535339Y-156270461D01*
X123660800Y-156270461D01*
X123660800Y-156691019D01*
X123742847Y-157103496D01*
X123903788Y-157492042D01*
X124137437Y-157841723D01*
X124434817Y-158139103D01*
X124784498Y-158372752D01*
X125173044Y-158533693D01*
X125585521Y-158615740D01*
X126006079Y-158615740D01*
X126418556Y-158533693D01*
X126807102Y-158372752D01*
X127156783Y-158139103D01*
X127454163Y-157841723D01*
X127687812Y-157492042D01*
X127848753Y-157103496D01*
X127930800Y-156691019D01*
X127930800Y-156270461D01*
X127848753Y-155857984D01*
X127687812Y-155469438D01*
X127454163Y-155119757D01*
X127156783Y-154822377D01*
X126807102Y-154588728D01*
X126418556Y-154427787D01*
X126006079Y-154345740D01*
X125585521Y-154345740D01*
X125173044Y-154427787D01*
X124784498Y-154588728D01*
X124434817Y-154822377D01*
X124137437Y-155119757D01*
X123903788Y-155469438D01*
X123742847Y-155857984D01*
X123660800Y-156270461D01*
X112535339Y-156270461D01*
X112599146Y-156116419D01*
X112690800Y-155655642D01*
X112690800Y-155185838D01*
X112599146Y-154725061D01*
X112431243Y-154319707D01*
X120160800Y-154319707D01*
X120160800Y-154641773D01*
X120223632Y-154957652D01*
X120346882Y-155255203D01*
X120525813Y-155522992D01*
X120753548Y-155750727D01*
X121021337Y-155929658D01*
X121318888Y-156052908D01*
X121634767Y-156115740D01*
X121956833Y-156115740D01*
X122272712Y-156052908D01*
X122570263Y-155929658D01*
X122838052Y-155750727D01*
X123065787Y-155522992D01*
X123244718Y-155255203D01*
X123367968Y-154957652D01*
X123430800Y-154641773D01*
X123430800Y-154319707D01*
X128160800Y-154319707D01*
X128160800Y-154641773D01*
X128223632Y-154957652D01*
X128346882Y-155255203D01*
X128525813Y-155522992D01*
X128753548Y-155750727D01*
X129021337Y-155929658D01*
X129318888Y-156052908D01*
X129634767Y-156115740D01*
X129956833Y-156115740D01*
X130272712Y-156052908D01*
X130570263Y-155929658D01*
X130838052Y-155750727D01*
X131065787Y-155522992D01*
X131244718Y-155255203D01*
X131367968Y-154957652D01*
X131430800Y-154641773D01*
X131430800Y-154319707D01*
X131367968Y-154003828D01*
X131244718Y-153706277D01*
X131065787Y-153438488D01*
X130838052Y-153210753D01*
X130570263Y-153031822D01*
X130272712Y-152908572D01*
X129956833Y-152845740D01*
X129634767Y-152845740D01*
X129318888Y-152908572D01*
X129021337Y-153031822D01*
X128753548Y-153210753D01*
X128525813Y-153438488D01*
X128346882Y-153706277D01*
X128223632Y-154003828D01*
X128160800Y-154319707D01*
X123430800Y-154319707D01*
X123367968Y-154003828D01*
X123244718Y-153706277D01*
X123065787Y-153438488D01*
X122838052Y-153210753D01*
X122570263Y-153031822D01*
X122272712Y-152908572D01*
X121956833Y-152845740D01*
X121634767Y-152845740D01*
X121318888Y-152908572D01*
X121021337Y-153031822D01*
X120753548Y-153210753D01*
X120525813Y-153438488D01*
X120346882Y-153706277D01*
X120223632Y-154003828D01*
X120160800Y-154319707D01*
X112431243Y-154319707D01*
X112419360Y-154291019D01*
X112158350Y-153900391D01*
X111826149Y-153568190D01*
X111435521Y-153307180D01*
X111001479Y-153127394D01*
X110540702Y-153035740D01*
X110070898Y-153035740D01*
X109610121Y-153127394D01*
X109176079Y-153307180D01*
X108785451Y-153568190D01*
X108453250Y-153900391D01*
X108192240Y-154291019D01*
X108012454Y-154725061D01*
X107920800Y-155185838D01*
X100273450Y-155185838D01*
X100367968Y-154957652D01*
X100430800Y-154641773D01*
X100430800Y-154319707D01*
X100367968Y-154003828D01*
X100244718Y-153706277D01*
X100065787Y-153438488D01*
X99838052Y-153210753D01*
X99570263Y-153031822D01*
X99272712Y-152908572D01*
X98956833Y-152845740D01*
X98634767Y-152845740D01*
X98318888Y-152908572D01*
X98021337Y-153031822D01*
X97753548Y-153210753D01*
X97525813Y-153438488D01*
X97346882Y-153706277D01*
X97223632Y-154003828D01*
X97160800Y-154319707D01*
X92430800Y-154319707D01*
X92367968Y-154003828D01*
X92244718Y-153706277D01*
X92065787Y-153438488D01*
X91838052Y-153210753D01*
X91570263Y-153031822D01*
X91272712Y-152908572D01*
X90956833Y-152845740D01*
X90634767Y-152845740D01*
X90318888Y-152908572D01*
X90021337Y-153031822D01*
X89753548Y-153210753D01*
X89525813Y-153438488D01*
X89346882Y-153706277D01*
X89223632Y-154003828D01*
X89160800Y-154319707D01*
X62747290Y-154319707D01*
X62603802Y-153878099D01*
X62270338Y-152579340D01*
X62434073Y-152688745D01*
X62688310Y-152794054D01*
X62958208Y-152847740D01*
X63233392Y-152847740D01*
X63503290Y-152794054D01*
X63757527Y-152688745D01*
X63986335Y-152535860D01*
X64180920Y-152341275D01*
X64333805Y-152112467D01*
X64439114Y-151858230D01*
X64492800Y-151588332D01*
X64492800Y-151313148D01*
X64439114Y-151043250D01*
X64333805Y-150789013D01*
X64180920Y-150560205D01*
X63986335Y-150365620D01*
X63757527Y-150212735D01*
X63503290Y-150107426D01*
X63233392Y-150053740D01*
X62958208Y-150053740D01*
X62688310Y-150107426D01*
X62434073Y-150212735D01*
X62205265Y-150365620D01*
X62010680Y-150560205D01*
X61857795Y-150789013D01*
X61856529Y-150792068D01*
X61521987Y-149038337D01*
X61211058Y-146577077D01*
X61122457Y-145168801D01*
X68500800Y-145168801D01*
X68500800Y-145372679D01*
X68540574Y-145572638D01*
X68618595Y-145760996D01*
X68650800Y-145809195D01*
X68650801Y-146617261D01*
X68646519Y-146660740D01*
X68663605Y-146834230D01*
X68714212Y-147001053D01*
X68796390Y-147154799D01*
X68879268Y-147255786D01*
X68879271Y-147255789D01*
X68906984Y-147289557D01*
X68940751Y-147317269D01*
X70239265Y-148615784D01*
X70250574Y-148672638D01*
X70328595Y-148860996D01*
X70441863Y-149030514D01*
X70586026Y-149174677D01*
X70755544Y-149287945D01*
X70943902Y-149365966D01*
X71143861Y-149405740D01*
X71347739Y-149405740D01*
X71547698Y-149365966D01*
X71736056Y-149287945D01*
X71905574Y-149174677D01*
X72037636Y-149042615D01*
X72075544Y-149067945D01*
X72263902Y-149145966D01*
X72463861Y-149185740D01*
X72667739Y-149185740D01*
X72867698Y-149145966D01*
X73056056Y-149067945D01*
X73225574Y-148954677D01*
X73369737Y-148810514D01*
X73483005Y-148640996D01*
X73561026Y-148452638D01*
X73581680Y-148348801D01*
X103920800Y-148348801D01*
X103920800Y-148552679D01*
X103960574Y-148752638D01*
X104038595Y-148940996D01*
X104151863Y-149110514D01*
X104195800Y-149154451D01*
X104195801Y-150347028D01*
X104151863Y-150390966D01*
X104038595Y-150560484D01*
X103960574Y-150748842D01*
X103920800Y-150948801D01*
X103920800Y-151152679D01*
X103960574Y-151352638D01*
X104038595Y-151540996D01*
X104151863Y-151710514D01*
X104296026Y-151854677D01*
X104465544Y-151967945D01*
X104653902Y-152045966D01*
X104853861Y-152085740D01*
X105057739Y-152085740D01*
X105257698Y-152045966D01*
X105446056Y-151967945D01*
X105615574Y-151854677D01*
X105759737Y-151710514D01*
X105873005Y-151540996D01*
X105951026Y-151352638D01*
X105990800Y-151152679D01*
X105990800Y-150948801D01*
X105951026Y-150748842D01*
X105873005Y-150560484D01*
X105759737Y-150390966D01*
X105715800Y-150347029D01*
X105715800Y-149154451D01*
X105759737Y-149110514D01*
X105873005Y-148940996D01*
X105951026Y-148752638D01*
X105990800Y-148552679D01*
X105990800Y-148348801D01*
X105951026Y-148148842D01*
X105873005Y-147960484D01*
X105759737Y-147790966D01*
X105615574Y-147646803D01*
X105446056Y-147533535D01*
X105257698Y-147455514D01*
X105057739Y-147415740D01*
X104853861Y-147415740D01*
X104653902Y-147455514D01*
X104465544Y-147533535D01*
X104296026Y-147646803D01*
X104151863Y-147790966D01*
X104038595Y-147960484D01*
X103960574Y-148148842D01*
X103920800Y-148348801D01*
X73581680Y-148348801D01*
X73600800Y-148252679D01*
X73600800Y-148048801D01*
X73561026Y-147848842D01*
X73483005Y-147660484D01*
X73369737Y-147490966D01*
X73225574Y-147346803D01*
X73056056Y-147233535D01*
X72867698Y-147155514D01*
X72810844Y-147144205D01*
X71560800Y-145894162D01*
X71560800Y-143149194D01*
X71593005Y-143100996D01*
X71608857Y-143062724D01*
X97160800Y-143062724D01*
X97160800Y-143778756D01*
X97300491Y-144481030D01*
X97574505Y-145142558D01*
X97972311Y-145737917D01*
X98478623Y-146244229D01*
X99073982Y-146642035D01*
X99735510Y-146916049D01*
X100437784Y-147055740D01*
X101153816Y-147055740D01*
X101856090Y-146916049D01*
X102517618Y-146642035D01*
X103112977Y-146244229D01*
X103619289Y-145737917D01*
X104017095Y-145142558D01*
X104291109Y-144481030D01*
X104430800Y-143778756D01*
X104430800Y-143062724D01*
X104291109Y-142360450D01*
X104017095Y-141698922D01*
X103619289Y-141103563D01*
X103112977Y-140597251D01*
X102517618Y-140199445D01*
X101856090Y-139925431D01*
X101153816Y-139785740D01*
X100437784Y-139785740D01*
X99735510Y-139925431D01*
X99073982Y-140199445D01*
X98478623Y-140597251D01*
X97972311Y-141103563D01*
X97574505Y-141698922D01*
X97300491Y-142360450D01*
X97160800Y-143062724D01*
X71608857Y-143062724D01*
X71671026Y-142912638D01*
X71710800Y-142712679D01*
X71710800Y-142508801D01*
X71671026Y-142308842D01*
X71593005Y-142120484D01*
X71479737Y-141950966D01*
X71335574Y-141806803D01*
X71166056Y-141693535D01*
X70977698Y-141615514D01*
X70777739Y-141575740D01*
X70573861Y-141575740D01*
X70373902Y-141615514D01*
X70185544Y-141693535D01*
X70016026Y-141806803D01*
X69871863Y-141950966D01*
X69758595Y-142120484D01*
X69680574Y-142308842D01*
X69640800Y-142508801D01*
X69640800Y-142712679D01*
X69680574Y-142912638D01*
X69758595Y-143100996D01*
X69790801Y-143149196D01*
X69790801Y-144266186D01*
X69637739Y-144235740D01*
X69433861Y-144235740D01*
X69233902Y-144275514D01*
X69045544Y-144353535D01*
X68876026Y-144466803D01*
X68731863Y-144610966D01*
X68618595Y-144780484D01*
X68540574Y-144968842D01*
X68500800Y-145168801D01*
X61122457Y-145168801D01*
X61055286Y-144101151D01*
X61055286Y-141620329D01*
X61211058Y-139144403D01*
X61521987Y-136683143D01*
X61986847Y-134246263D01*
X62432951Y-132508801D01*
X63950800Y-132508801D01*
X63950800Y-132712679D01*
X63990574Y-132912638D01*
X64068595Y-133100996D01*
X64181863Y-133270514D01*
X64326026Y-133414677D01*
X64495544Y-133527945D01*
X64683902Y-133605966D01*
X64883861Y-133645740D01*
X65087739Y-133645740D01*
X65287698Y-133605966D01*
X65476056Y-133527945D01*
X65645574Y-133414677D01*
X65729511Y-133330740D01*
X67037089Y-133330740D01*
X67081026Y-133374677D01*
X67250544Y-133487945D01*
X67438902Y-133565966D01*
X67638861Y-133605740D01*
X67842739Y-133605740D01*
X68042698Y-133565966D01*
X68231056Y-133487945D01*
X68400574Y-133374677D01*
X68544737Y-133230514D01*
X68658005Y-133060996D01*
X68736026Y-132872638D01*
X68775800Y-132672679D01*
X68775800Y-132468801D01*
X68736026Y-132268842D01*
X68658005Y-132080484D01*
X68544737Y-131910966D01*
X68400574Y-131766803D01*
X68231056Y-131653535D01*
X68042698Y-131575514D01*
X67842739Y-131535740D01*
X67638861Y-131535740D01*
X67438902Y-131575514D01*
X67250544Y-131653535D01*
X67081026Y-131766803D01*
X67037089Y-131810740D01*
X65649511Y-131810740D01*
X65645574Y-131806803D01*
X65476056Y-131693535D01*
X65287698Y-131615514D01*
X65087739Y-131575740D01*
X64883861Y-131575740D01*
X64683902Y-131615514D01*
X64495544Y-131693535D01*
X64326026Y-131806803D01*
X64181863Y-131950966D01*
X64068595Y-132120484D01*
X63990574Y-132308842D01*
X63950800Y-132508801D01*
X62432951Y-132508801D01*
X62603802Y-131843381D01*
X63370418Y-129483980D01*
X64283670Y-127177370D01*
X65339952Y-124932655D01*
X65388800Y-124843801D01*
X65388800Y-125093195D01*
X65522419Y-125764944D01*
X65784522Y-126397717D01*
X66165038Y-126967198D01*
X66649342Y-127451502D01*
X67218823Y-127832018D01*
X67851596Y-128094121D01*
X68523345Y-128227740D01*
X69208255Y-128227740D01*
X69880004Y-128094121D01*
X70512777Y-127832018D01*
X71082258Y-127451502D01*
X71566562Y-126967198D01*
X71947078Y-126397717D01*
X72209181Y-125764944D01*
X72222939Y-125695779D01*
X72222939Y-127093494D01*
X71999992Y-127316441D01*
X71937855Y-127316441D01*
X71737896Y-127356215D01*
X71549538Y-127434236D01*
X71380020Y-127547504D01*
X71235857Y-127691667D01*
X71122589Y-127861185D01*
X71044568Y-128049543D01*
X71004794Y-128249502D01*
X71004794Y-128453380D01*
X71044568Y-128653339D01*
X71122589Y-128841697D01*
X71131914Y-128855653D01*
X71088595Y-128920484D01*
X71010574Y-129108842D01*
X70970800Y-129308801D01*
X70970800Y-129512679D01*
X71010574Y-129712638D01*
X71088595Y-129900996D01*
X71201863Y-130070514D01*
X71346026Y-130214677D01*
X71515544Y-130327945D01*
X71703902Y-130405966D01*
X71903861Y-130445740D01*
X72107739Y-130445740D01*
X72307698Y-130405966D01*
X72496056Y-130327945D01*
X72665574Y-130214677D01*
X72809737Y-130070514D01*
X72923005Y-129900996D01*
X73001026Y-129712638D01*
X73040800Y-129512679D01*
X73040800Y-129450542D01*
X74396808Y-128094535D01*
X74425801Y-128070741D01*
X74449595Y-128041748D01*
X74449599Y-128041744D01*
X74520773Y-127955017D01*
X74520774Y-127955016D01*
X74591346Y-127822987D01*
X74634803Y-127679726D01*
X74645800Y-127568073D01*
X74645800Y-127568064D01*
X74649476Y-127530741D01*
X74645800Y-127493418D01*
X74645800Y-121560322D01*
X74823861Y-121595740D01*
X75027739Y-121595740D01*
X75227698Y-121555966D01*
X75416056Y-121477945D01*
X75485800Y-121431344D01*
X75485801Y-130003398D01*
X75485800Y-130003408D01*
X75485801Y-131146410D01*
X75482124Y-131183742D01*
X75485801Y-131221075D01*
X75496628Y-131330996D01*
X75496798Y-131332727D01*
X75540254Y-131475988D01*
X75610826Y-131608018D01*
X75664595Y-131673535D01*
X75705800Y-131723743D01*
X75734798Y-131747541D01*
X76063995Y-132076738D01*
X76087798Y-132105742D01*
X76203523Y-132200715D01*
X76335552Y-132271287D01*
X76478813Y-132314744D01*
X76590466Y-132325741D01*
X76590475Y-132325741D01*
X76627798Y-132329417D01*
X76665121Y-132325741D01*
X76669256Y-132325741D01*
X76640800Y-132468801D01*
X76640800Y-132672679D01*
X76680574Y-132872638D01*
X76758595Y-133060996D01*
X76871863Y-133230514D01*
X77016026Y-133374677D01*
X77185544Y-133487945D01*
X77373902Y-133565966D01*
X77573861Y-133605740D01*
X77777739Y-133605740D01*
X77971693Y-133567160D01*
X78010574Y-133762628D01*
X78088595Y-133950986D01*
X78201863Y-134120504D01*
X78245801Y-134164442D01*
X78245800Y-135197029D01*
X78201863Y-135240966D01*
X78088595Y-135410484D01*
X78010574Y-135598842D01*
X77970800Y-135798801D01*
X77970800Y-136002679D01*
X78010574Y-136202638D01*
X78088595Y-136390996D01*
X78201863Y-136560514D01*
X78257089Y-136615740D01*
X78191863Y-136680966D01*
X78078595Y-136850484D01*
X78000574Y-137038842D01*
X77972933Y-137177805D01*
X77883902Y-137195514D01*
X77695544Y-137273535D01*
X77526026Y-137386803D01*
X77381863Y-137530966D01*
X77268595Y-137700484D01*
X77190574Y-137888842D01*
X77167322Y-138005740D01*
X77093861Y-138005740D01*
X76893902Y-138045514D01*
X76705544Y-138123535D01*
X76536026Y-138236803D01*
X76391863Y-138380966D01*
X76278595Y-138550484D01*
X76200574Y-138738842D01*
X76160800Y-138938801D01*
X76160800Y-139142679D01*
X76200574Y-139342638D01*
X76278595Y-139530996D01*
X76316847Y-139588244D01*
X76316846Y-141062295D01*
X76284641Y-141110494D01*
X76206620Y-141298852D01*
X76166846Y-141498811D01*
X76166846Y-141702689D01*
X76206620Y-141902648D01*
X76284641Y-142091006D01*
X76397909Y-142260524D01*
X76542072Y-142404687D01*
X76711590Y-142517955D01*
X76899948Y-142595976D01*
X77099907Y-142635750D01*
X77303785Y-142635750D01*
X77503744Y-142595976D01*
X77627244Y-142544820D01*
X77708303Y-142598982D01*
X77896661Y-142677003D01*
X78096620Y-142716777D01*
X78300498Y-142716777D01*
X78500457Y-142677003D01*
X78514550Y-142671165D01*
X78520331Y-142676946D01*
X78689849Y-142790214D01*
X78878207Y-142868235D01*
X79078166Y-142908009D01*
X79282044Y-142908009D01*
X79482003Y-142868235D01*
X79670361Y-142790214D01*
X79839879Y-142676946D01*
X79881040Y-142635785D01*
X79953902Y-142665966D01*
X80153861Y-142705740D01*
X80357739Y-142705740D01*
X80557698Y-142665966D01*
X80746056Y-142587945D01*
X80915574Y-142474677D01*
X81059737Y-142330514D01*
X81173005Y-142160996D01*
X81251026Y-141972638D01*
X81290800Y-141772679D01*
X81290800Y-141568801D01*
X81251026Y-141368842D01*
X81173005Y-141180484D01*
X81059737Y-141010966D01*
X81015800Y-140967029D01*
X81015800Y-137856745D01*
X81033005Y-137830996D01*
X81111026Y-137642638D01*
X81150800Y-137442679D01*
X81150800Y-137238801D01*
X81126931Y-137118801D01*
X103920800Y-137118801D01*
X103920800Y-137322679D01*
X103960574Y-137522638D01*
X104038595Y-137710996D01*
X104151863Y-137880514D01*
X104195800Y-137924451D01*
X104195801Y-139367028D01*
X104151863Y-139410966D01*
X104038595Y-139580484D01*
X103960574Y-139768842D01*
X103920800Y-139968801D01*
X103920800Y-140172679D01*
X103960574Y-140372638D01*
X104038595Y-140560996D01*
X104151863Y-140730514D01*
X104296026Y-140874677D01*
X104465544Y-140987945D01*
X104653902Y-141065966D01*
X104853861Y-141105740D01*
X105057739Y-141105740D01*
X105257698Y-141065966D01*
X105446056Y-140987945D01*
X105615574Y-140874677D01*
X105759737Y-140730514D01*
X105873005Y-140560996D01*
X105951026Y-140372638D01*
X105990800Y-140172679D01*
X105990800Y-139968801D01*
X105951026Y-139768842D01*
X105873005Y-139580484D01*
X105759737Y-139410966D01*
X105715800Y-139367029D01*
X105715800Y-137924451D01*
X105759737Y-137880514D01*
X105873005Y-137710996D01*
X105951026Y-137522638D01*
X105990800Y-137322679D01*
X105990800Y-137238801D01*
X109161249Y-137238801D01*
X109161249Y-137442679D01*
X109201023Y-137642638D01*
X109279044Y-137830996D01*
X109392312Y-138000514D01*
X109436249Y-138044451D01*
X109436250Y-140713857D01*
X109432573Y-140751189D01*
X109436250Y-140788522D01*
X109447247Y-140900175D01*
X109459624Y-140940976D01*
X109490703Y-141043435D01*
X109510800Y-141081034D01*
X109510800Y-141202679D01*
X109550574Y-141402638D01*
X109628595Y-141590996D01*
X109741863Y-141760514D01*
X109886026Y-141904677D01*
X110055544Y-142017945D01*
X110243902Y-142095966D01*
X110443861Y-142135740D01*
X110647739Y-142135740D01*
X110847698Y-142095966D01*
X111036056Y-142017945D01*
X111205574Y-141904677D01*
X111349737Y-141760514D01*
X111463005Y-141590996D01*
X111541026Y-141402638D01*
X111559690Y-141308801D01*
X112350800Y-141308801D01*
X112350800Y-141512679D01*
X112390574Y-141712638D01*
X112468595Y-141900996D01*
X112581863Y-142070514D01*
X112726026Y-142214677D01*
X112895544Y-142327945D01*
X113083902Y-142405966D01*
X113283861Y-142445740D01*
X113487739Y-142445740D01*
X113687698Y-142405966D01*
X113876056Y-142327945D01*
X114045574Y-142214677D01*
X114089511Y-142170740D01*
X114518072Y-142170740D01*
X114510574Y-142188842D01*
X114470800Y-142388801D01*
X114470800Y-142592679D01*
X114510574Y-142792638D01*
X114588595Y-142980996D01*
X114701863Y-143150514D01*
X114846026Y-143294677D01*
X115015544Y-143407945D01*
X115203902Y-143485966D01*
X115403861Y-143525740D01*
X115607739Y-143525740D01*
X115807698Y-143485966D01*
X115996056Y-143407945D01*
X116165574Y-143294677D01*
X116209511Y-143250740D01*
X117832861Y-143250740D01*
X117835263Y-143255234D01*
X117914615Y-143351925D01*
X118011306Y-143431277D01*
X118047718Y-143450740D01*
X118011306Y-143470203D01*
X117914615Y-143549555D01*
X117847988Y-143630740D01*
X117609511Y-143630740D01*
X117565574Y-143586803D01*
X117396056Y-143473535D01*
X117207698Y-143395514D01*
X117007739Y-143355740D01*
X116803861Y-143355740D01*
X116603902Y-143395514D01*
X116415544Y-143473535D01*
X116246026Y-143586803D01*
X116101863Y-143730966D01*
X115988595Y-143900484D01*
X115910574Y-144088842D01*
X115870800Y-144288801D01*
X115870800Y-144492679D01*
X115910574Y-144692638D01*
X115988595Y-144880996D01*
X116101863Y-145050514D01*
X116246026Y-145194677D01*
X116415544Y-145307945D01*
X116603902Y-145385966D01*
X116803861Y-145425740D01*
X117007739Y-145425740D01*
X117207698Y-145385966D01*
X117396056Y-145307945D01*
X117565574Y-145194677D01*
X117609511Y-145150740D01*
X117832861Y-145150740D01*
X117835263Y-145155234D01*
X117914615Y-145251925D01*
X118011306Y-145331277D01*
X118055800Y-145355060D01*
X118055801Y-145952801D01*
X118051306Y-145955203D01*
X117954615Y-146034555D01*
X117875263Y-146131246D01*
X117816298Y-146241560D01*
X117779988Y-146361258D01*
X117767728Y-146485740D01*
X117767728Y-147235740D01*
X117779988Y-147360222D01*
X117816298Y-147479920D01*
X117875263Y-147590234D01*
X117954615Y-147686925D01*
X118045800Y-147761759D01*
X118045800Y-147835938D01*
X115825999Y-150055740D01*
X115763861Y-150055740D01*
X115563902Y-150095514D01*
X115375544Y-150173535D01*
X115206026Y-150286803D01*
X115061863Y-150430966D01*
X114948595Y-150600484D01*
X114870574Y-150788842D01*
X114830800Y-150988801D01*
X114830800Y-151192679D01*
X114870574Y-151392638D01*
X114948595Y-151580996D01*
X115061863Y-151750514D01*
X115206026Y-151894677D01*
X115375544Y-152007945D01*
X115563902Y-152085966D01*
X115763861Y-152125740D01*
X115967739Y-152125740D01*
X116167698Y-152085966D01*
X116356056Y-152007945D01*
X116525574Y-151894677D01*
X116669737Y-151750514D01*
X116783005Y-151580996D01*
X116861026Y-151392638D01*
X116900800Y-151192679D01*
X116900800Y-151130541D01*
X119316804Y-148714538D01*
X119345801Y-148690741D01*
X119440774Y-148575016D01*
X119511346Y-148442987D01*
X119554803Y-148299726D01*
X119565800Y-148188073D01*
X119565800Y-148188063D01*
X119569476Y-148150740D01*
X119565800Y-148113417D01*
X119565800Y-147774024D01*
X119661620Y-147825242D01*
X119781318Y-147861552D01*
X119905800Y-147873812D01*
X120020050Y-147870740D01*
X120178800Y-147711990D01*
X120178800Y-146987740D01*
X120432800Y-146987740D01*
X120432800Y-147711990D01*
X120591550Y-147870740D01*
X120705800Y-147873812D01*
X120830282Y-147861552D01*
X120949980Y-147825242D01*
X121060294Y-147766277D01*
X121156985Y-147686925D01*
X121236337Y-147590234D01*
X121295302Y-147479920D01*
X121331612Y-147360222D01*
X121343872Y-147235740D01*
X121340800Y-147146490D01*
X121182050Y-146987740D01*
X120432800Y-146987740D01*
X120178800Y-146987740D01*
X120158800Y-146987740D01*
X120158800Y-146733740D01*
X120178800Y-146733740D01*
X120178800Y-146009490D01*
X120432800Y-146009490D01*
X120432800Y-146733740D01*
X121182050Y-146733740D01*
X121340800Y-146574990D01*
X121343872Y-146485740D01*
X121331612Y-146361258D01*
X121295302Y-146241560D01*
X121236337Y-146131246D01*
X121156985Y-146034555D01*
X121060294Y-145955203D01*
X120949980Y-145896238D01*
X120830282Y-145859928D01*
X120705800Y-145847668D01*
X120591550Y-145850740D01*
X120432800Y-146009490D01*
X120178800Y-146009490D01*
X120020050Y-145850740D01*
X119905800Y-145847668D01*
X119781318Y-145859928D01*
X119661620Y-145896238D01*
X119575800Y-145942110D01*
X119575800Y-145355060D01*
X119620294Y-145331277D01*
X119716985Y-145251925D01*
X119791818Y-145160740D01*
X131692609Y-145160740D01*
X131734615Y-145211925D01*
X131831306Y-145291277D01*
X131875800Y-145315060D01*
X131875801Y-146205073D01*
X131856298Y-146241560D01*
X131819988Y-146361258D01*
X131807728Y-146485740D01*
X131807728Y-147235740D01*
X131819988Y-147360222D01*
X131856298Y-147479920D01*
X131915263Y-147590234D01*
X131994615Y-147686925D01*
X132091306Y-147766277D01*
X132201620Y-147825242D01*
X132321318Y-147861552D01*
X132445800Y-147873812D01*
X133245800Y-147873812D01*
X133370282Y-147861552D01*
X133489980Y-147825242D01*
X133595800Y-147768679D01*
X133701620Y-147825242D01*
X133821318Y-147861552D01*
X133945800Y-147873812D01*
X134060050Y-147870740D01*
X134218800Y-147711990D01*
X134218800Y-146987740D01*
X134472800Y-146987740D01*
X134472800Y-147711990D01*
X134631550Y-147870740D01*
X134745800Y-147873812D01*
X134870282Y-147861552D01*
X134989980Y-147825242D01*
X135100294Y-147766277D01*
X135196985Y-147686925D01*
X135276337Y-147590234D01*
X135335302Y-147479920D01*
X135371612Y-147360222D01*
X135383872Y-147235740D01*
X135380800Y-147146490D01*
X135222050Y-146987740D01*
X134472800Y-146987740D01*
X134218800Y-146987740D01*
X134198800Y-146987740D01*
X134198800Y-146733740D01*
X134218800Y-146733740D01*
X134218800Y-146009490D01*
X134472800Y-146009490D01*
X134472800Y-146733740D01*
X135222050Y-146733740D01*
X135380800Y-146574990D01*
X135383872Y-146485740D01*
X135371612Y-146361258D01*
X135335302Y-146241560D01*
X135276337Y-146131246D01*
X135196985Y-146034555D01*
X135100294Y-145955203D01*
X134989980Y-145896238D01*
X134870282Y-145859928D01*
X134745800Y-145847668D01*
X134631550Y-145850740D01*
X134472800Y-146009490D01*
X134218800Y-146009490D01*
X134060050Y-145850740D01*
X133945800Y-145847668D01*
X133821318Y-145859928D01*
X133701620Y-145896238D01*
X133595800Y-145952801D01*
X133489980Y-145896238D01*
X133395800Y-145867669D01*
X133395800Y-145315060D01*
X133440294Y-145291277D01*
X133536985Y-145211925D01*
X133616337Y-145115234D01*
X133675302Y-145004920D01*
X133711612Y-144885222D01*
X133723872Y-144760740D01*
X133723872Y-144248835D01*
X133734615Y-144261925D01*
X133831306Y-144341277D01*
X133941620Y-144400242D01*
X134061318Y-144436552D01*
X134185800Y-144448812D01*
X134350050Y-144445740D01*
X134508800Y-144286990D01*
X134508800Y-143537740D01*
X134762800Y-143537740D01*
X134762800Y-144286990D01*
X134921550Y-144445740D01*
X135085800Y-144448812D01*
X135210282Y-144436552D01*
X135329980Y-144400242D01*
X135440294Y-144341277D01*
X135536985Y-144261925D01*
X135616337Y-144165234D01*
X135675302Y-144054920D01*
X135711612Y-143935222D01*
X135723872Y-143810740D01*
X135720800Y-143696490D01*
X135562050Y-143537740D01*
X134762800Y-143537740D01*
X134508800Y-143537740D01*
X133709550Y-143537740D01*
X133624943Y-143622347D01*
X133616337Y-143606246D01*
X133536985Y-143509555D01*
X133440294Y-143430203D01*
X133403882Y-143410740D01*
X133440294Y-143391277D01*
X133536985Y-143311925D01*
X133616337Y-143215234D01*
X133624943Y-143199133D01*
X133709550Y-143283740D01*
X134508800Y-143283740D01*
X134508800Y-142534490D01*
X134762800Y-142534490D01*
X134762800Y-143283740D01*
X135562050Y-143283740D01*
X135720800Y-143124990D01*
X135723872Y-143010740D01*
X135711612Y-142886258D01*
X135675302Y-142766560D01*
X135616337Y-142656246D01*
X135536985Y-142559555D01*
X135440294Y-142480203D01*
X135329980Y-142421238D01*
X135210282Y-142384928D01*
X135085800Y-142372668D01*
X134921550Y-142375740D01*
X134762800Y-142534490D01*
X134508800Y-142534490D01*
X134350050Y-142375740D01*
X134185800Y-142372668D01*
X134061318Y-142384928D01*
X133941620Y-142421238D01*
X133831306Y-142480203D01*
X133734615Y-142559555D01*
X133723872Y-142572645D01*
X133723872Y-142060740D01*
X133711612Y-141936258D01*
X133675302Y-141816560D01*
X133616337Y-141706246D01*
X133536985Y-141609555D01*
X133440294Y-141530203D01*
X133329980Y-141471238D01*
X133210282Y-141434928D01*
X133085800Y-141422668D01*
X132185800Y-141422668D01*
X132061318Y-141434928D01*
X131941620Y-141471238D01*
X131831306Y-141530203D01*
X131734615Y-141609555D01*
X131659782Y-141700740D01*
X131410800Y-141700740D01*
X131410800Y-141668801D01*
X131371026Y-141468842D01*
X131293005Y-141280484D01*
X131179737Y-141110966D01*
X131035574Y-140966803D01*
X130866056Y-140853535D01*
X130677698Y-140775514D01*
X130477739Y-140735740D01*
X130273861Y-140735740D01*
X130073902Y-140775514D01*
X129885544Y-140853535D01*
X129716026Y-140966803D01*
X129571863Y-141110966D01*
X129458595Y-141280484D01*
X129380574Y-141468842D01*
X129340800Y-141668801D01*
X129340800Y-141872679D01*
X129380574Y-142072638D01*
X129458595Y-142260996D01*
X129571863Y-142430514D01*
X129716026Y-142574677D01*
X129885544Y-142687945D01*
X130073902Y-142765966D01*
X130273861Y-142805740D01*
X130335998Y-142805740D01*
X130502001Y-142971742D01*
X130525799Y-143000741D01*
X130641524Y-143095714D01*
X130773553Y-143166286D01*
X130916814Y-143209743D01*
X131028467Y-143220740D01*
X131028476Y-143220740D01*
X131065799Y-143224416D01*
X131103122Y-143220740D01*
X131659782Y-143220740D01*
X131734615Y-143311925D01*
X131831306Y-143391277D01*
X131867718Y-143410740D01*
X131831306Y-143430203D01*
X131734615Y-143509555D01*
X131655263Y-143606246D01*
X131636825Y-143640740D01*
X121805050Y-143640740D01*
X121742050Y-143577740D01*
X120942800Y-143577740D01*
X120942800Y-143597740D01*
X120688800Y-143597740D01*
X120688800Y-143577740D01*
X119889550Y-143577740D01*
X119826550Y-143640740D01*
X119791818Y-143640740D01*
X119716985Y-143549555D01*
X119620294Y-143470203D01*
X119583882Y-143450740D01*
X119620294Y-143431277D01*
X119716985Y-143351925D01*
X119796337Y-143255234D01*
X119804943Y-143239133D01*
X119889550Y-143323740D01*
X120688800Y-143323740D01*
X120688800Y-142574490D01*
X120942800Y-142574490D01*
X120942800Y-143323740D01*
X121742050Y-143323740D01*
X121900800Y-143164990D01*
X121903872Y-143050740D01*
X121891612Y-142926258D01*
X121855302Y-142806560D01*
X121796337Y-142696246D01*
X121716985Y-142599555D01*
X121620294Y-142520203D01*
X121509980Y-142461238D01*
X121390282Y-142424928D01*
X121265800Y-142412668D01*
X121101550Y-142415740D01*
X120942800Y-142574490D01*
X120688800Y-142574490D01*
X120530050Y-142415740D01*
X120365800Y-142412668D01*
X120241318Y-142424928D01*
X120121620Y-142461238D01*
X120011306Y-142520203D01*
X119914615Y-142599555D01*
X119903872Y-142612645D01*
X119903872Y-142100740D01*
X119891612Y-141976258D01*
X119855302Y-141856560D01*
X119796337Y-141746246D01*
X119716985Y-141649555D01*
X119620294Y-141570203D01*
X119509980Y-141511238D01*
X119390282Y-141474928D01*
X119265800Y-141462668D01*
X118365800Y-141462668D01*
X118241318Y-141474928D01*
X118121620Y-141511238D01*
X118011306Y-141570203D01*
X117914615Y-141649555D01*
X117847988Y-141730740D01*
X117192740Y-141730740D01*
X117296056Y-141687945D01*
X117465574Y-141574677D01*
X117609737Y-141430514D01*
X117723005Y-141260996D01*
X117801026Y-141072638D01*
X117840800Y-140872679D01*
X117840800Y-140668801D01*
X117801026Y-140468842D01*
X117723005Y-140280484D01*
X117609737Y-140110966D01*
X117465574Y-139966803D01*
X117296056Y-139853535D01*
X117107698Y-139775514D01*
X116907739Y-139735740D01*
X116703861Y-139735740D01*
X116503902Y-139775514D01*
X116315544Y-139853535D01*
X116196504Y-139933074D01*
X116183005Y-139900484D01*
X116069737Y-139730966D01*
X115955800Y-139617029D01*
X115955800Y-138933148D01*
X136598800Y-138933148D01*
X136598800Y-139208332D01*
X136652486Y-139478230D01*
X136757795Y-139732467D01*
X136910680Y-139961275D01*
X137105265Y-140155860D01*
X137334073Y-140308745D01*
X137588310Y-140414054D01*
X137858208Y-140467740D01*
X138133392Y-140467740D01*
X138403290Y-140414054D01*
X138657527Y-140308745D01*
X138886335Y-140155860D01*
X139080920Y-139961275D01*
X139233805Y-139732467D01*
X139339114Y-139478230D01*
X139392800Y-139208332D01*
X139392800Y-138933148D01*
X139339114Y-138663250D01*
X139233805Y-138409013D01*
X139080920Y-138180205D01*
X138886335Y-137985620D01*
X138657527Y-137832735D01*
X138403290Y-137727426D01*
X138133392Y-137673740D01*
X137858208Y-137673740D01*
X137588310Y-137727426D01*
X137334073Y-137832735D01*
X137105265Y-137985620D01*
X136910680Y-138180205D01*
X136757795Y-138409013D01*
X136652486Y-138663250D01*
X136598800Y-138933148D01*
X115955800Y-138933148D01*
X115955800Y-137964451D01*
X115999737Y-137920514D01*
X116113005Y-137750996D01*
X116191026Y-137562638D01*
X116230800Y-137362679D01*
X116230800Y-137158801D01*
X116191026Y-136958842D01*
X116113005Y-136770484D01*
X115999737Y-136600966D01*
X115855574Y-136456803D01*
X115686056Y-136343535D01*
X115497698Y-136265514D01*
X115297739Y-136225740D01*
X115093861Y-136225740D01*
X114893902Y-136265514D01*
X114705544Y-136343535D01*
X114536026Y-136456803D01*
X114391863Y-136600966D01*
X114278595Y-136770484D01*
X114200574Y-136958842D01*
X114160800Y-137158801D01*
X114160800Y-137362679D01*
X114200574Y-137562638D01*
X114278595Y-137750996D01*
X114391863Y-137920514D01*
X114435800Y-137964451D01*
X114435801Y-139769971D01*
X114348595Y-139900484D01*
X114270574Y-140088842D01*
X114230800Y-140288801D01*
X114230800Y-140492679D01*
X114262240Y-140650740D01*
X114089511Y-140650740D01*
X114045574Y-140606803D01*
X113876056Y-140493535D01*
X113687698Y-140415514D01*
X113487739Y-140375740D01*
X113283861Y-140375740D01*
X113083902Y-140415514D01*
X112895544Y-140493535D01*
X112726026Y-140606803D01*
X112581863Y-140750966D01*
X112468595Y-140920484D01*
X112390574Y-141108842D01*
X112350800Y-141308801D01*
X111559690Y-141308801D01*
X111572375Y-141245033D01*
X111686056Y-141197945D01*
X111855574Y-141084677D01*
X111999737Y-140940514D01*
X112113005Y-140770996D01*
X112191026Y-140582638D01*
X112230800Y-140382679D01*
X112230800Y-140178801D01*
X112191026Y-139978842D01*
X112113005Y-139790484D01*
X111999737Y-139620966D01*
X111955800Y-139577029D01*
X111955800Y-138014451D01*
X111999737Y-137970514D01*
X112113005Y-137800996D01*
X112191026Y-137612638D01*
X112230800Y-137412679D01*
X112230800Y-137208801D01*
X112191026Y-137008842D01*
X112113005Y-136820484D01*
X111999737Y-136650966D01*
X111855574Y-136506803D01*
X111686056Y-136393535D01*
X111497698Y-136315514D01*
X111297739Y-136275740D01*
X111093861Y-136275740D01*
X110893902Y-136315514D01*
X110705544Y-136393535D01*
X110670542Y-136416923D01*
X110498147Y-136345514D01*
X110298188Y-136305740D01*
X110094310Y-136305740D01*
X109894351Y-136345514D01*
X109705993Y-136423535D01*
X109536475Y-136536803D01*
X109392312Y-136680966D01*
X109279044Y-136850484D01*
X109201023Y-137038842D01*
X109161249Y-137238801D01*
X105990800Y-137238801D01*
X105990800Y-137118801D01*
X105951026Y-136918842D01*
X105873005Y-136730484D01*
X105759737Y-136560966D01*
X105615574Y-136416803D01*
X105446056Y-136303535D01*
X105257698Y-136225514D01*
X105057739Y-136185740D01*
X104853861Y-136185740D01*
X104653902Y-136225514D01*
X104465544Y-136303535D01*
X104296026Y-136416803D01*
X104151863Y-136560966D01*
X104038595Y-136730484D01*
X103960574Y-136918842D01*
X103920800Y-137118801D01*
X81126931Y-137118801D01*
X81111026Y-137038842D01*
X81033005Y-136850484D01*
X80919737Y-136680966D01*
X80894511Y-136655740D01*
X80919737Y-136630514D01*
X81033005Y-136460996D01*
X81111026Y-136272638D01*
X81150800Y-136072679D01*
X81150800Y-135868801D01*
X81111026Y-135668842D01*
X81033005Y-135480484D01*
X80919737Y-135310966D01*
X80875800Y-135267029D01*
X80875800Y-134185838D01*
X82920800Y-134185838D01*
X82920800Y-134655642D01*
X83012454Y-135116419D01*
X83192240Y-135550461D01*
X83453250Y-135941089D01*
X83785451Y-136273290D01*
X84176079Y-136534300D01*
X84610121Y-136714086D01*
X85070898Y-136805740D01*
X85540702Y-136805740D01*
X86001479Y-136714086D01*
X86435521Y-136534300D01*
X86826149Y-136273290D01*
X87158350Y-135941089D01*
X87419360Y-135550461D01*
X87599146Y-135116419D01*
X87690800Y-134655642D01*
X87690800Y-134185838D01*
X132920800Y-134185838D01*
X132920800Y-134655642D01*
X133012454Y-135116419D01*
X133192240Y-135550461D01*
X133453250Y-135941089D01*
X133785451Y-136273290D01*
X134176079Y-136534300D01*
X134610121Y-136714086D01*
X135070898Y-136805740D01*
X135540702Y-136805740D01*
X136001479Y-136714086D01*
X136435521Y-136534300D01*
X136826149Y-136273290D01*
X137158350Y-135941089D01*
X137419360Y-135550461D01*
X137599146Y-135116419D01*
X137690800Y-134655642D01*
X137690800Y-134185838D01*
X137599146Y-133725061D01*
X137419360Y-133291019D01*
X137158350Y-132900391D01*
X136826149Y-132568190D01*
X136435521Y-132307180D01*
X136001479Y-132127394D01*
X135540702Y-132035740D01*
X135070898Y-132035740D01*
X134610121Y-132127394D01*
X134176079Y-132307180D01*
X133785451Y-132568190D01*
X133453250Y-132900391D01*
X133192240Y-133291019D01*
X133012454Y-133725061D01*
X132920800Y-134185838D01*
X87690800Y-134185838D01*
X87599146Y-133725061D01*
X87419360Y-133291019D01*
X87158350Y-132900391D01*
X86826149Y-132568190D01*
X86435521Y-132307180D01*
X86001479Y-132127394D01*
X85540702Y-132035740D01*
X85070898Y-132035740D01*
X84610121Y-132127394D01*
X84176079Y-132307180D01*
X83785451Y-132568190D01*
X83453250Y-132900391D01*
X83192240Y-133291019D01*
X83012454Y-133725061D01*
X82920800Y-134185838D01*
X80875800Y-134185838D01*
X80875800Y-134164441D01*
X80919737Y-134120504D01*
X81033005Y-133950986D01*
X81111026Y-133762628D01*
X81148722Y-133573115D01*
X81306056Y-133507945D01*
X81475574Y-133394677D01*
X81619737Y-133250514D01*
X81733005Y-133080996D01*
X81811026Y-132892638D01*
X81850800Y-132692679D01*
X81850800Y-132488801D01*
X81811026Y-132288842D01*
X81733005Y-132100484D01*
X81619737Y-131930966D01*
X81475574Y-131786803D01*
X81306056Y-131673535D01*
X81117698Y-131595514D01*
X80917739Y-131555740D01*
X80713861Y-131555740D01*
X80513902Y-131595514D01*
X80325544Y-131673535D01*
X80156026Y-131786803D01*
X80112089Y-131830740D01*
X78399511Y-131830740D01*
X78373778Y-131805007D01*
X78490199Y-131756783D01*
X78659717Y-131643515D01*
X78803880Y-131499352D01*
X78917148Y-131329834D01*
X78921342Y-131319707D01*
X89160800Y-131319707D01*
X89160800Y-131641773D01*
X89223632Y-131957652D01*
X89346882Y-132255203D01*
X89525813Y-132522992D01*
X89753548Y-132750727D01*
X90021337Y-132929658D01*
X90318888Y-133052908D01*
X90634767Y-133115740D01*
X90956833Y-133115740D01*
X91272712Y-133052908D01*
X91570263Y-132929658D01*
X91838052Y-132750727D01*
X92065787Y-132522992D01*
X92244718Y-132255203D01*
X92367968Y-131957652D01*
X92430800Y-131641773D01*
X92430800Y-131319707D01*
X92367968Y-131003828D01*
X92244718Y-130706277D01*
X92065787Y-130438488D01*
X91838052Y-130210753D01*
X91570263Y-130031822D01*
X91272712Y-129908572D01*
X90956833Y-129845740D01*
X90634767Y-129845740D01*
X90318888Y-129908572D01*
X90021337Y-130031822D01*
X89753548Y-130210753D01*
X89525813Y-130438488D01*
X89346882Y-130706277D01*
X89223632Y-131003828D01*
X89160800Y-131319707D01*
X78921342Y-131319707D01*
X78995169Y-131141476D01*
X79034943Y-130941517D01*
X79034943Y-130737639D01*
X78995169Y-130537680D01*
X78917148Y-130349322D01*
X78803880Y-130179804D01*
X78659717Y-130035641D01*
X78490199Y-129922373D01*
X78301841Y-129844352D01*
X78101882Y-129804578D01*
X77898004Y-129804578D01*
X77730800Y-129837837D01*
X77730800Y-122868184D01*
X79360811Y-122868184D01*
X79360811Y-123072062D01*
X79400585Y-123272021D01*
X79478606Y-123460379D01*
X79591874Y-123629897D01*
X79635811Y-123673834D01*
X79635812Y-125289812D01*
X79632135Y-125327144D01*
X79635812Y-125364477D01*
X79646809Y-125476130D01*
X79658824Y-125515740D01*
X79690265Y-125619390D01*
X79760837Y-125751420D01*
X79802675Y-125802399D01*
X79855811Y-125867145D01*
X79884809Y-125890943D01*
X82610608Y-128616743D01*
X82634406Y-128645741D01*
X82663404Y-128669539D01*
X82750130Y-128740714D01*
X82815616Y-128775717D01*
X82882160Y-128811286D01*
X83025421Y-128854743D01*
X83056082Y-128857763D01*
X83107996Y-128909677D01*
X83108401Y-128909947D01*
X83100574Y-128928842D01*
X83060800Y-129128801D01*
X83060800Y-129332679D01*
X83100574Y-129532638D01*
X83178595Y-129720996D01*
X83291863Y-129890514D01*
X83436026Y-130034677D01*
X83605544Y-130147945D01*
X83793902Y-130225966D01*
X83993861Y-130265740D01*
X84197739Y-130265740D01*
X84397698Y-130225966D01*
X84586056Y-130147945D01*
X84755574Y-130034677D01*
X84899737Y-129890514D01*
X85013005Y-129720996D01*
X85091026Y-129532638D01*
X85130800Y-129332679D01*
X85130800Y-129270541D01*
X86046803Y-128354539D01*
X86075801Y-128330741D01*
X86170774Y-128215016D01*
X86241346Y-128082987D01*
X86284803Y-127939726D01*
X86295800Y-127828073D01*
X86299477Y-127790740D01*
X86295800Y-127753407D01*
X86295800Y-125442193D01*
X86473902Y-125515966D01*
X86673861Y-125555740D01*
X86877739Y-125555740D01*
X87077698Y-125515966D01*
X87266056Y-125437945D01*
X87435574Y-125324677D01*
X87579737Y-125180514D01*
X87693005Y-125010996D01*
X87771026Y-124822638D01*
X87810800Y-124622679D01*
X87810800Y-124560542D01*
X87860602Y-124510740D01*
X88612089Y-124510740D01*
X88656026Y-124554677D01*
X88825544Y-124667945D01*
X89013902Y-124745966D01*
X89213861Y-124785740D01*
X89417739Y-124785740D01*
X89617698Y-124745966D01*
X89806056Y-124667945D01*
X89975574Y-124554677D01*
X90119737Y-124410514D01*
X90233005Y-124240996D01*
X90311026Y-124052638D01*
X90350800Y-123852679D01*
X90350800Y-123648801D01*
X90314733Y-123467476D01*
X91091942Y-124244687D01*
X91078141Y-124265342D01*
X90992937Y-124471044D01*
X90949500Y-124689415D01*
X90949500Y-124912065D01*
X90992937Y-125130436D01*
X91078141Y-125336138D01*
X91201839Y-125521264D01*
X91359276Y-125678701D01*
X91544402Y-125802399D01*
X91750104Y-125887603D01*
X91968475Y-125931040D01*
X92191125Y-125931040D01*
X92409496Y-125887603D01*
X92615198Y-125802399D01*
X92800324Y-125678701D01*
X92957761Y-125521264D01*
X93081459Y-125336138D01*
X93095800Y-125301516D01*
X93110141Y-125336138D01*
X93233839Y-125521264D01*
X93391276Y-125678701D01*
X93576402Y-125802399D01*
X93782104Y-125887603D01*
X94000475Y-125931040D01*
X94223125Y-125931040D01*
X94441496Y-125887603D01*
X94647198Y-125802399D01*
X94832324Y-125678701D01*
X94989761Y-125521264D01*
X95113459Y-125336138D01*
X95198663Y-125130436D01*
X95242100Y-124912065D01*
X95242100Y-124700740D01*
X95647089Y-124700740D01*
X95521863Y-124825966D01*
X95408595Y-124995484D01*
X95330574Y-125183842D01*
X95290800Y-125383801D01*
X95290800Y-125587679D01*
X95330574Y-125787638D01*
X95408595Y-125975996D01*
X95521863Y-126145514D01*
X95565800Y-126189451D01*
X95565801Y-126963408D01*
X95562124Y-127000740D01*
X95565801Y-127038073D01*
X95569817Y-127078842D01*
X95576798Y-127149725D01*
X95620254Y-127292986D01*
X95690800Y-127424967D01*
X95690800Y-127502679D01*
X95699010Y-127543955D01*
X95418556Y-127427787D01*
X95006079Y-127345740D01*
X94585521Y-127345740D01*
X94173044Y-127427787D01*
X93784498Y-127588728D01*
X93434817Y-127822377D01*
X93137437Y-128119757D01*
X92903788Y-128469438D01*
X92742847Y-128857984D01*
X92660800Y-129270461D01*
X92660800Y-129691019D01*
X92742847Y-130103496D01*
X92903788Y-130492042D01*
X93137437Y-130841723D01*
X93434817Y-131139103D01*
X93784498Y-131372752D01*
X94173044Y-131533693D01*
X94585521Y-131615740D01*
X95006079Y-131615740D01*
X95418556Y-131533693D01*
X95807102Y-131372752D01*
X95886489Y-131319707D01*
X97160800Y-131319707D01*
X97160800Y-131641773D01*
X97223632Y-131957652D01*
X97346882Y-132255203D01*
X97525813Y-132522992D01*
X97753548Y-132750727D01*
X98021337Y-132929658D01*
X98318888Y-133052908D01*
X98634767Y-133115740D01*
X98956833Y-133115740D01*
X99272712Y-133052908D01*
X99570263Y-132929658D01*
X99838052Y-132750727D01*
X100065787Y-132522992D01*
X100244718Y-132255203D01*
X100367968Y-131957652D01*
X100430800Y-131641773D01*
X100430800Y-131319707D01*
X120160800Y-131319707D01*
X120160800Y-131641773D01*
X120223632Y-131957652D01*
X120346882Y-132255203D01*
X120525813Y-132522992D01*
X120753548Y-132750727D01*
X121021337Y-132929658D01*
X121318888Y-133052908D01*
X121634767Y-133115740D01*
X121956833Y-133115740D01*
X122272712Y-133052908D01*
X122570263Y-132929658D01*
X122838052Y-132750727D01*
X123065787Y-132522992D01*
X123244718Y-132255203D01*
X123367968Y-131957652D01*
X123430800Y-131641773D01*
X123430800Y-131319707D01*
X123367968Y-131003828D01*
X123244718Y-130706277D01*
X123065787Y-130438488D01*
X122838052Y-130210753D01*
X122570263Y-130031822D01*
X122272712Y-129908572D01*
X121956833Y-129845740D01*
X121634767Y-129845740D01*
X121318888Y-129908572D01*
X121021337Y-130031822D01*
X120753548Y-130210753D01*
X120525813Y-130438488D01*
X120346882Y-130706277D01*
X120223632Y-131003828D01*
X120160800Y-131319707D01*
X100430800Y-131319707D01*
X100367968Y-131003828D01*
X100244718Y-130706277D01*
X100065787Y-130438488D01*
X99838052Y-130210753D01*
X99570263Y-130031822D01*
X99272712Y-129908572D01*
X98956833Y-129845740D01*
X98634767Y-129845740D01*
X98318888Y-129908572D01*
X98021337Y-130031822D01*
X97753548Y-130210753D01*
X97525813Y-130438488D01*
X97346882Y-130706277D01*
X97223632Y-131003828D01*
X97160800Y-131319707D01*
X95886489Y-131319707D01*
X96156783Y-131139103D01*
X96454163Y-130841723D01*
X96687812Y-130492042D01*
X96848753Y-130103496D01*
X96930800Y-129691019D01*
X96930800Y-129270461D01*
X123660800Y-129270461D01*
X123660800Y-129691019D01*
X123742847Y-130103496D01*
X123903788Y-130492042D01*
X124137437Y-130841723D01*
X124434817Y-131139103D01*
X124784498Y-131372752D01*
X125173044Y-131533693D01*
X125585521Y-131615740D01*
X126006079Y-131615740D01*
X126418556Y-131533693D01*
X126807102Y-131372752D01*
X126886489Y-131319707D01*
X128160800Y-131319707D01*
X128160800Y-131641773D01*
X128223632Y-131957652D01*
X128346882Y-132255203D01*
X128525813Y-132522992D01*
X128753548Y-132750727D01*
X129021337Y-132929658D01*
X129318888Y-133052908D01*
X129634767Y-133115740D01*
X129956833Y-133115740D01*
X130272712Y-133052908D01*
X130570263Y-132929658D01*
X130838052Y-132750727D01*
X131065787Y-132522992D01*
X131244718Y-132255203D01*
X131367968Y-131957652D01*
X131430800Y-131641773D01*
X131430800Y-131319707D01*
X131367968Y-131003828D01*
X131244718Y-130706277D01*
X131065787Y-130438488D01*
X130838052Y-130210753D01*
X130570263Y-130031822D01*
X130272712Y-129908572D01*
X129956833Y-129845740D01*
X129634767Y-129845740D01*
X129318888Y-129908572D01*
X129021337Y-130031822D01*
X128753548Y-130210753D01*
X128525813Y-130438488D01*
X128346882Y-130706277D01*
X128223632Y-131003828D01*
X128160800Y-131319707D01*
X126886489Y-131319707D01*
X127156783Y-131139103D01*
X127454163Y-130841723D01*
X127687812Y-130492042D01*
X127848753Y-130103496D01*
X127930800Y-129691019D01*
X127930800Y-129270461D01*
X127848753Y-128857984D01*
X127687812Y-128469438D01*
X127454163Y-128119757D01*
X127156783Y-127822377D01*
X126807102Y-127588728D01*
X126418556Y-127427787D01*
X126006079Y-127345740D01*
X125585521Y-127345740D01*
X125173044Y-127427787D01*
X124784498Y-127588728D01*
X124434817Y-127822377D01*
X124137437Y-128119757D01*
X123903788Y-128469438D01*
X123742847Y-128857984D01*
X123660800Y-129270461D01*
X96930800Y-129270461D01*
X96848753Y-128857984D01*
X96687812Y-128469438D01*
X96665296Y-128435740D01*
X96827739Y-128435740D01*
X97027698Y-128395966D01*
X97216056Y-128317945D01*
X97385574Y-128204677D01*
X97529737Y-128060514D01*
X97643005Y-127890996D01*
X97721026Y-127702638D01*
X97760800Y-127502679D01*
X97760800Y-127298801D01*
X97721026Y-127098842D01*
X97643005Y-126910484D01*
X97529737Y-126740966D01*
X97385574Y-126596803D01*
X97216056Y-126483535D01*
X97085800Y-126429581D01*
X97085800Y-126189451D01*
X97129737Y-126145514D01*
X97243005Y-125975996D01*
X97321026Y-125787638D01*
X97360800Y-125587679D01*
X97360800Y-125383801D01*
X97321026Y-125183842D01*
X97243005Y-124995484D01*
X97229569Y-124975376D01*
X97427698Y-124935966D01*
X97616056Y-124857945D01*
X97785574Y-124744677D01*
X97929737Y-124600514D01*
X98043005Y-124430996D01*
X98121026Y-124242638D01*
X98160800Y-124042679D01*
X98160800Y-123838801D01*
X98121026Y-123638842D01*
X98043005Y-123450484D01*
X97929737Y-123280966D01*
X97785574Y-123136803D01*
X97616056Y-123023535D01*
X97427698Y-122945514D01*
X97227739Y-122905740D01*
X97023861Y-122905740D01*
X96823902Y-122945514D01*
X96635544Y-123023535D01*
X96466026Y-123136803D01*
X96422089Y-123180740D01*
X92177601Y-123180740D01*
X91918556Y-122921695D01*
X91989737Y-122850514D01*
X92103005Y-122680996D01*
X92181026Y-122492638D01*
X92220800Y-122292679D01*
X92220800Y-122088801D01*
X92181026Y-121888842D01*
X92158821Y-121835235D01*
X92158821Y-121178801D01*
X108770800Y-121178801D01*
X108770800Y-121382679D01*
X108810574Y-121582638D01*
X108888595Y-121770996D01*
X109001863Y-121940514D01*
X109056813Y-121995464D01*
X109100254Y-122138672D01*
X109124837Y-122184661D01*
X109155800Y-122242590D01*
X109155801Y-125897028D01*
X109111863Y-125940966D01*
X108998595Y-126110484D01*
X108920574Y-126298842D01*
X108880800Y-126498801D01*
X108880800Y-126702679D01*
X108920574Y-126902638D01*
X108998595Y-127090996D01*
X109111863Y-127260514D01*
X109256026Y-127404677D01*
X109425544Y-127517945D01*
X109613902Y-127595966D01*
X109813861Y-127635740D01*
X110017739Y-127635740D01*
X110217698Y-127595966D01*
X110406056Y-127517945D01*
X110575574Y-127404677D01*
X110719737Y-127260514D01*
X110833005Y-127090996D01*
X110911026Y-126902638D01*
X110950800Y-126702679D01*
X110950800Y-126498801D01*
X110911026Y-126298842D01*
X110833005Y-126110484D01*
X110719737Y-125940966D01*
X110675800Y-125897029D01*
X110675800Y-121993747D01*
X110679476Y-121956424D01*
X110675800Y-121919102D01*
X110675800Y-121919092D01*
X110669152Y-121851593D01*
X110723005Y-121770996D01*
X110770745Y-121655740D01*
X112092728Y-121655740D01*
X112092728Y-123405740D01*
X112104988Y-123530222D01*
X112141298Y-123649920D01*
X112200263Y-123760234D01*
X112279615Y-123856925D01*
X112376306Y-123936277D01*
X112486620Y-123995242D01*
X112606318Y-124031552D01*
X112730800Y-124043812D01*
X114480800Y-124043812D01*
X114605282Y-124031552D01*
X114724980Y-123995242D01*
X114835294Y-123936277D01*
X114931985Y-123856925D01*
X115011337Y-123760234D01*
X115070302Y-123649920D01*
X115106612Y-123530222D01*
X115118872Y-123405740D01*
X115118872Y-121695740D01*
X120602728Y-121695740D01*
X120602728Y-123445740D01*
X120614988Y-123570222D01*
X120651298Y-123689920D01*
X120710263Y-123800234D01*
X120789615Y-123896925D01*
X120886306Y-123976277D01*
X120996620Y-124035242D01*
X121116318Y-124071552D01*
X121240800Y-124083812D01*
X122990800Y-124083812D01*
X123115282Y-124071552D01*
X123234980Y-124035242D01*
X123345294Y-123976277D01*
X123441985Y-123896925D01*
X123521337Y-123800234D01*
X123580302Y-123689920D01*
X123616612Y-123570222D01*
X123628872Y-123445740D01*
X123628872Y-121695740D01*
X123616612Y-121571258D01*
X123580302Y-121451560D01*
X123521337Y-121341246D01*
X123441985Y-121244555D01*
X123345294Y-121165203D01*
X123234980Y-121106238D01*
X123220236Y-121101766D01*
X123288693Y-121033309D01*
X123453944Y-120785993D01*
X123567771Y-120511191D01*
X123625800Y-120219462D01*
X123625800Y-119922018D01*
X123567771Y-119630289D01*
X123453944Y-119355487D01*
X123288693Y-119108171D01*
X123078369Y-118897847D01*
X122831053Y-118732596D01*
X122556251Y-118618769D01*
X122264522Y-118560740D01*
X121967078Y-118560740D01*
X121675349Y-118618769D01*
X121400547Y-118732596D01*
X121153231Y-118897847D01*
X120942907Y-119108171D01*
X120777656Y-119355487D01*
X120663829Y-119630289D01*
X120605800Y-119922018D01*
X120605800Y-120219462D01*
X120663829Y-120511191D01*
X120777656Y-120785993D01*
X120942907Y-121033309D01*
X121011364Y-121101766D01*
X120996620Y-121106238D01*
X120886306Y-121165203D01*
X120789615Y-121244555D01*
X120710263Y-121341246D01*
X120651298Y-121451560D01*
X120614988Y-121571258D01*
X120602728Y-121695740D01*
X115118872Y-121695740D01*
X115118872Y-121655740D01*
X115106612Y-121531258D01*
X115070302Y-121411560D01*
X115011337Y-121301246D01*
X114931985Y-121204555D01*
X114835294Y-121125203D01*
X114724980Y-121066238D01*
X114710236Y-121061766D01*
X114778693Y-120993309D01*
X114943944Y-120745993D01*
X115057771Y-120471191D01*
X115115800Y-120179462D01*
X115115800Y-119882018D01*
X115057771Y-119590289D01*
X114943944Y-119315487D01*
X114778693Y-119068171D01*
X114568369Y-118857847D01*
X114321053Y-118692596D01*
X114046251Y-118578769D01*
X113754522Y-118520740D01*
X113457078Y-118520740D01*
X113165349Y-118578769D01*
X112890547Y-118692596D01*
X112643231Y-118857847D01*
X112432907Y-119068171D01*
X112267656Y-119315487D01*
X112153829Y-119590289D01*
X112095800Y-119882018D01*
X112095800Y-120179462D01*
X112153829Y-120471191D01*
X112267656Y-120745993D01*
X112432907Y-120993309D01*
X112501364Y-121061766D01*
X112486620Y-121066238D01*
X112376306Y-121125203D01*
X112279615Y-121204555D01*
X112200263Y-121301246D01*
X112141298Y-121411560D01*
X112104988Y-121531258D01*
X112092728Y-121655740D01*
X110770745Y-121655740D01*
X110801026Y-121582638D01*
X110840800Y-121382679D01*
X110840800Y-121178801D01*
X110801026Y-120978842D01*
X110723005Y-120790484D01*
X110609737Y-120620966D01*
X110465574Y-120476803D01*
X110296056Y-120363535D01*
X110107698Y-120285514D01*
X109907739Y-120245740D01*
X109703861Y-120245740D01*
X109503902Y-120285514D01*
X109315544Y-120363535D01*
X109146026Y-120476803D01*
X109001863Y-120620966D01*
X108888595Y-120790484D01*
X108810574Y-120978842D01*
X108770800Y-121178801D01*
X92158821Y-121178801D01*
X92158821Y-120352938D01*
X92217839Y-120441264D01*
X92375276Y-120598701D01*
X92560402Y-120722399D01*
X92766104Y-120807603D01*
X92984475Y-120851040D01*
X93207125Y-120851040D01*
X93425496Y-120807603D01*
X93631198Y-120722399D01*
X93816324Y-120598701D01*
X93973761Y-120441264D01*
X94097459Y-120256138D01*
X94182663Y-120050436D01*
X94226100Y-119832065D01*
X94226100Y-119609415D01*
X94182663Y-119391044D01*
X94097459Y-119185342D01*
X93973761Y-119000216D01*
X93816324Y-118842779D01*
X93631198Y-118719081D01*
X93425496Y-118633877D01*
X93207125Y-118590440D01*
X92984475Y-118590440D01*
X92766104Y-118633877D01*
X92560402Y-118719081D01*
X92375276Y-118842779D01*
X92217839Y-119000216D01*
X92158821Y-119088542D01*
X92158821Y-118687472D01*
X92202758Y-118643535D01*
X92316026Y-118474017D01*
X92394047Y-118285659D01*
X92433821Y-118085700D01*
X92433821Y-117881822D01*
X92394047Y-117681863D01*
X92316026Y-117493505D01*
X92202758Y-117323987D01*
X92158821Y-117280050D01*
X92158821Y-115301430D01*
X92199737Y-115260514D01*
X92313005Y-115090996D01*
X92391026Y-114902638D01*
X92430800Y-114702679D01*
X92430800Y-114593801D01*
X94280800Y-114593801D01*
X94280800Y-114797679D01*
X94320574Y-114997638D01*
X94398595Y-115185996D01*
X94511863Y-115355514D01*
X94555800Y-115399451D01*
X94555801Y-116937028D01*
X94511863Y-116980966D01*
X94398595Y-117150484D01*
X94320574Y-117338842D01*
X94280800Y-117538801D01*
X94280800Y-117742679D01*
X94320574Y-117942638D01*
X94398595Y-118130996D01*
X94511863Y-118300514D01*
X94656026Y-118444677D01*
X94825544Y-118557945D01*
X95013902Y-118635966D01*
X95213861Y-118675740D01*
X95417739Y-118675740D01*
X95617698Y-118635966D01*
X95806056Y-118557945D01*
X95975574Y-118444677D01*
X96119737Y-118300514D01*
X96233005Y-118130996D01*
X96311026Y-117942638D01*
X96350800Y-117742679D01*
X96350800Y-117538801D01*
X96339046Y-117479707D01*
X98950800Y-117479707D01*
X98950800Y-117801773D01*
X99013632Y-118117652D01*
X99136882Y-118415203D01*
X99315813Y-118682992D01*
X99543548Y-118910727D01*
X99811337Y-119089658D01*
X100108888Y-119212908D01*
X100424767Y-119275740D01*
X100746833Y-119275740D01*
X101062712Y-119212908D01*
X101360263Y-119089658D01*
X101628052Y-118910727D01*
X101855787Y-118682992D01*
X102034718Y-118415203D01*
X102157968Y-118117652D01*
X102220800Y-117801773D01*
X102220800Y-117479707D01*
X102157968Y-117163828D01*
X102034718Y-116866277D01*
X101855787Y-116598488D01*
X101628052Y-116370753D01*
X101360263Y-116191822D01*
X101062712Y-116068572D01*
X100746833Y-116005740D01*
X100424767Y-116005740D01*
X100108888Y-116068572D01*
X99811337Y-116191822D01*
X99543548Y-116370753D01*
X99315813Y-116598488D01*
X99136882Y-116866277D01*
X99013632Y-117163828D01*
X98950800Y-117479707D01*
X96339046Y-117479707D01*
X96311026Y-117338842D01*
X96233005Y-117150484D01*
X96119737Y-116980966D01*
X96075800Y-116937029D01*
X96075800Y-115399451D01*
X96119737Y-115355514D01*
X96233005Y-115185996D01*
X96311026Y-114997638D01*
X96350800Y-114797679D01*
X96350800Y-114593801D01*
X96311026Y-114393842D01*
X96233005Y-114205484D01*
X96119737Y-114035966D01*
X95975574Y-113891803D01*
X95806056Y-113778535D01*
X95617698Y-113700514D01*
X95417739Y-113660740D01*
X95213861Y-113660740D01*
X95013902Y-113700514D01*
X94825544Y-113778535D01*
X94656026Y-113891803D01*
X94511863Y-114035966D01*
X94398595Y-114205484D01*
X94320574Y-114393842D01*
X94280800Y-114593801D01*
X92430800Y-114593801D01*
X92430800Y-114498801D01*
X92391026Y-114298842D01*
X92313005Y-114110484D01*
X92199737Y-113940966D01*
X92055574Y-113796803D01*
X91886056Y-113683535D01*
X91697698Y-113605514D01*
X91497739Y-113565740D01*
X91293861Y-113565740D01*
X91093902Y-113605514D01*
X90905544Y-113683535D01*
X90736026Y-113796803D01*
X90591863Y-113940966D01*
X90478595Y-114110484D01*
X90440226Y-114203115D01*
X90327739Y-114180740D01*
X90123861Y-114180740D01*
X89923902Y-114220514D01*
X89735544Y-114298535D01*
X89566026Y-114411803D01*
X89421863Y-114555966D01*
X89310800Y-114722184D01*
X89199737Y-114555966D01*
X89055574Y-114411803D01*
X88886056Y-114298535D01*
X88697698Y-114220514D01*
X88497739Y-114180740D01*
X88293861Y-114180740D01*
X88093902Y-114220514D01*
X87905544Y-114298535D01*
X87890800Y-114308387D01*
X87876056Y-114298535D01*
X87687698Y-114220514D01*
X87487739Y-114180740D01*
X87283861Y-114180740D01*
X87083902Y-114220514D01*
X86895544Y-114298535D01*
X86726026Y-114411803D01*
X86581863Y-114555966D01*
X86468595Y-114725484D01*
X86390574Y-114913842D01*
X86350800Y-115113801D01*
X86350800Y-115317679D01*
X86390574Y-115517638D01*
X86468595Y-115705996D01*
X86581863Y-115875514D01*
X86625800Y-115919451D01*
X86625801Y-116691410D01*
X86622124Y-116728742D01*
X86636798Y-116877727D01*
X86680254Y-117020988D01*
X86750826Y-117153018D01*
X86817909Y-117234758D01*
X86845800Y-117268743D01*
X86874798Y-117292541D01*
X88232996Y-118650740D01*
X88153861Y-118650740D01*
X87953902Y-118690514D01*
X87765544Y-118768535D01*
X87596026Y-118881803D01*
X87451863Y-119025966D01*
X87338595Y-119195484D01*
X87260574Y-119383842D01*
X87220800Y-119583801D01*
X87220800Y-119787679D01*
X87260574Y-119987638D01*
X87338595Y-120175996D01*
X87451863Y-120345514D01*
X87495800Y-120389451D01*
X87495801Y-120462334D01*
X87452016Y-120506119D01*
X87338748Y-120675637D01*
X87260727Y-120863995D01*
X87220953Y-121063954D01*
X87220953Y-121267832D01*
X87260727Y-121467791D01*
X87338748Y-121656149D01*
X87452016Y-121825667D01*
X87596179Y-121969830D01*
X87765697Y-122083098D01*
X87837246Y-122112735D01*
X87830574Y-122128842D01*
X87790800Y-122328801D01*
X87790800Y-122532679D01*
X87830574Y-122732638D01*
X87908595Y-122920996D01*
X87955196Y-122990740D01*
X87583122Y-122990740D01*
X87545799Y-122987064D01*
X87508476Y-122990740D01*
X87508467Y-122990740D01*
X87396814Y-123001737D01*
X87253553Y-123045194D01*
X87121524Y-123115766D01*
X87121522Y-123115767D01*
X87121523Y-123115767D01*
X87034796Y-123186941D01*
X87034792Y-123186945D01*
X87005799Y-123210739D01*
X86982005Y-123239732D01*
X86735998Y-123485740D01*
X86673861Y-123485740D01*
X86473902Y-123525514D01*
X86390021Y-123560259D01*
X86453005Y-123465996D01*
X86531026Y-123277638D01*
X86570800Y-123077679D01*
X86570800Y-122873801D01*
X86531026Y-122673842D01*
X86453005Y-122485484D01*
X86339737Y-122315966D01*
X86195574Y-122171803D01*
X86026056Y-122058535D01*
X85837698Y-121980514D01*
X85637739Y-121940740D01*
X85433861Y-121940740D01*
X85233902Y-121980514D01*
X85045544Y-122058535D01*
X84876026Y-122171803D01*
X84731863Y-122315966D01*
X84618595Y-122485484D01*
X84540574Y-122673842D01*
X84500800Y-122873801D01*
X84500800Y-123077679D01*
X84540574Y-123277638D01*
X84618595Y-123465996D01*
X84671412Y-123545043D01*
X84527698Y-123485514D01*
X84327739Y-123445740D01*
X84155800Y-123445740D01*
X84155800Y-122964451D01*
X84209737Y-122910514D01*
X84323005Y-122740996D01*
X84401026Y-122552638D01*
X84440800Y-122352679D01*
X84440800Y-122148801D01*
X84401026Y-121948842D01*
X84323005Y-121760484D01*
X84209737Y-121590966D01*
X84065574Y-121446803D01*
X83896056Y-121333535D01*
X83707698Y-121255514D01*
X83507739Y-121215740D01*
X83303861Y-121215740D01*
X83103902Y-121255514D01*
X82915544Y-121333535D01*
X82746026Y-121446803D01*
X82601863Y-121590966D01*
X82488595Y-121760484D01*
X82413930Y-121940740D01*
X82293861Y-121940740D01*
X82093902Y-121980514D01*
X81905544Y-122058535D01*
X81895799Y-122065047D01*
X81886053Y-122058535D01*
X81697695Y-121980514D01*
X81497736Y-121940740D01*
X81293858Y-121940740D01*
X81093899Y-121980514D01*
X80905541Y-122058535D01*
X80900007Y-122062233D01*
X80886067Y-122052918D01*
X80697709Y-121974897D01*
X80497750Y-121935123D01*
X80293872Y-121935123D01*
X80093913Y-121974897D01*
X79905555Y-122052918D01*
X79736037Y-122166186D01*
X79591874Y-122310349D01*
X79478606Y-122479867D01*
X79400585Y-122668225D01*
X79360811Y-122868184D01*
X77730800Y-122868184D01*
X77730800Y-121931793D01*
X77774737Y-121887856D01*
X77888005Y-121718338D01*
X77966026Y-121529980D01*
X78005800Y-121330021D01*
X78005800Y-121126143D01*
X77966026Y-120926184D01*
X77888005Y-120737826D01*
X77774737Y-120568308D01*
X77630574Y-120424145D01*
X77461056Y-120310877D01*
X77272698Y-120232856D01*
X77241586Y-120226667D01*
X77241026Y-120223852D01*
X77163005Y-120035494D01*
X77049737Y-119865976D01*
X76905574Y-119721813D01*
X76736056Y-119608545D01*
X76547698Y-119530524D01*
X76347739Y-119490750D01*
X76143861Y-119490750D01*
X75943902Y-119530524D01*
X75755544Y-119608545D01*
X75685800Y-119655146D01*
X75685800Y-119094451D01*
X75729737Y-119050514D01*
X75843005Y-118880996D01*
X75921026Y-118692638D01*
X75960800Y-118492679D01*
X75960800Y-118288801D01*
X75921026Y-118088842D01*
X75843005Y-117900484D01*
X75729737Y-117730966D01*
X75585574Y-117586803D01*
X75416056Y-117473535D01*
X75227698Y-117395514D01*
X75027739Y-117355740D01*
X74823861Y-117355740D01*
X74623902Y-117395514D01*
X74435544Y-117473535D01*
X74266026Y-117586803D01*
X74121863Y-117730966D01*
X74008595Y-117900484D01*
X73930574Y-118088842D01*
X73890800Y-118288801D01*
X73890800Y-118492679D01*
X73930574Y-118692638D01*
X74008595Y-118880996D01*
X74121863Y-119050514D01*
X74165800Y-119094451D01*
X74165801Y-119561158D01*
X73987739Y-119525740D01*
X73783861Y-119525740D01*
X73583902Y-119565514D01*
X73395544Y-119643535D01*
X73226026Y-119756803D01*
X73081863Y-119900966D01*
X73045308Y-119955674D01*
X72880999Y-119955674D01*
X72681040Y-119995448D01*
X72492682Y-120073469D01*
X72323164Y-120186737D01*
X72179001Y-120330900D01*
X72065733Y-120500418D01*
X71987712Y-120688776D01*
X71947938Y-120888735D01*
X71947938Y-121092613D01*
X71987712Y-121292572D01*
X72065733Y-121480930D01*
X72179001Y-121650448D01*
X72222938Y-121694385D01*
X72222938Y-123805699D01*
X72209181Y-123736536D01*
X71947078Y-123103763D01*
X71566562Y-122534282D01*
X71082258Y-122049978D01*
X70512777Y-121669462D01*
X69880004Y-121407359D01*
X69208255Y-121273740D01*
X68523345Y-121273740D01*
X67851596Y-121407359D01*
X67229027Y-121665235D01*
X67864388Y-120664067D01*
X69322579Y-118657040D01*
X70903914Y-116745534D01*
X72602153Y-114937093D01*
X74410594Y-113238854D01*
X76322100Y-111657519D01*
X78329127Y-110199328D01*
X80423754Y-108870037D01*
X82597715Y-107674892D01*
X84842430Y-106618610D01*
X87149040Y-105705358D01*
X89508441Y-104938742D01*
X91911323Y-104321787D01*
X94348203Y-103856927D01*
X96809463Y-103545998D01*
X96995189Y-103534313D01*
X96979810Y-103557329D01*
G37*
X96979810Y-103557329D02*
X96867868Y-103827582D01*
X96810800Y-104114480D01*
X96810800Y-104407000D01*
X96867868Y-104693898D01*
X96979810Y-104964151D01*
X97142325Y-105207372D01*
X97349168Y-105414215D01*
X97592389Y-105576730D01*
X97862642Y-105688672D01*
X98149540Y-105745740D01*
X98442060Y-105745740D01*
X98728958Y-105688672D01*
X98999211Y-105576730D01*
X99242432Y-105414215D01*
X99449275Y-105207372D01*
X99570995Y-105025206D01*
X99640622Y-105142095D01*
X99835531Y-105358328D01*
X100068880Y-105532381D01*
X100331701Y-105657565D01*
X100478910Y-105702216D01*
X100708800Y-105580895D01*
X100708800Y-104387740D01*
X100688800Y-104387740D01*
X100688800Y-104133740D01*
X100708800Y-104133740D01*
X100708800Y-104113740D01*
X100962800Y-104113740D01*
X100962800Y-104133740D01*
X100982800Y-104133740D01*
X100982800Y-104387740D01*
X100962800Y-104387740D01*
X100962800Y-105580895D01*
X101192690Y-105702216D01*
X101339899Y-105657565D01*
X101602720Y-105532381D01*
X101836069Y-105358328D01*
X101911834Y-105274274D01*
X101936298Y-105354920D01*
X101995263Y-105465234D01*
X102074615Y-105561925D01*
X102171306Y-105641277D01*
X102281620Y-105700242D01*
X102401318Y-105736552D01*
X102525800Y-105748812D01*
X104225800Y-105748812D01*
X104350282Y-105736552D01*
X104469980Y-105700242D01*
X104580294Y-105641277D01*
X104676985Y-105561925D01*
X104756337Y-105465234D01*
X104815302Y-105354920D01*
X104851612Y-105235222D01*
X104863872Y-105110740D01*
X104863872Y-103624541D01*
X106703397Y-103856927D01*
X108688388Y-104235585D01*
X108528310Y-104267426D01*
X108274073Y-104372735D01*
X108045265Y-104525620D01*
X107850680Y-104720205D01*
X107697795Y-104949013D01*
X107592486Y-105203250D01*
X107538800Y-105473148D01*
X107538800Y-105748332D01*
X107592486Y-106018230D01*
X107697795Y-106272467D01*
X107850680Y-106501275D01*
X108045265Y-106695860D01*
X108274073Y-106848745D01*
X108528310Y-106954054D01*
X108798208Y-107007740D01*
X109073392Y-107007740D01*
X109343290Y-106954054D01*
X109597527Y-106848745D01*
X109826335Y-106695860D01*
X110020920Y-106501275D01*
X110173805Y-106272467D01*
X110279114Y-106018230D01*
X110332800Y-105748332D01*
X110332800Y-105473148D01*
X110279114Y-105203250D01*
X110173805Y-104949013D01*
X110020920Y-104720205D01*
X109826335Y-104525620D01*
X109759048Y-104480660D01*
X111543159Y-104938742D01*
X113902560Y-105705358D01*
X116209170Y-106618610D01*
X118453885Y-107674892D01*
X120627846Y-108870037D01*
X122722473Y-110199328D01*
X124729500Y-111657519D01*
X126641006Y-113238854D01*
X128449447Y-114937093D01*
X130147686Y-116745534D01*
X131729021Y-118657040D01*
X133187212Y-120664067D01*
X133822573Y-121665235D01*
X133200004Y-121407359D01*
X132528255Y-121273740D01*
X131843345Y-121273740D01*
X131171596Y-121407359D01*
X130538823Y-121669462D01*
X129969342Y-122049978D01*
X129485038Y-122534282D01*
X129104522Y-123103763D01*
X128842419Y-123736536D01*
X128708800Y-124408285D01*
X128708800Y-125093195D01*
X128842419Y-125764944D01*
X129104522Y-126397717D01*
X129485038Y-126967198D01*
X129969342Y-127451502D01*
X130538823Y-127832018D01*
X131171596Y-128094121D01*
X131843345Y-128227740D01*
X132528255Y-128227740D01*
X133200004Y-128094121D01*
X133832777Y-127832018D01*
X134402258Y-127451502D01*
X134886562Y-126967198D01*
X135267078Y-126397717D01*
X135529181Y-125764944D01*
X135662800Y-125093195D01*
X135662800Y-124843801D01*
X135711648Y-124932655D01*
X136767930Y-127177370D01*
X137681182Y-129483980D01*
X138447798Y-131843381D01*
X139064753Y-134246263D01*
X139529613Y-136683143D01*
X139840542Y-139144403D01*
X139996314Y-141620329D01*
X139996314Y-144101151D01*
X139840542Y-146577077D01*
X139529613Y-149038337D01*
X139064753Y-151475217D01*
X138447798Y-153878099D01*
X137681182Y-156237500D01*
X136767930Y-158544110D01*
X135711648Y-160788825D01*
X135662800Y-160877679D01*
X135662800Y-160688285D01*
X135529181Y-160016536D01*
X135267078Y-159383763D01*
X134886562Y-158814282D01*
X134402258Y-158329978D01*
X133832777Y-157949462D01*
X133200004Y-157687359D01*
X132528255Y-157553740D01*
X131843345Y-157553740D01*
X131171596Y-157687359D01*
X130538823Y-157949462D01*
X129969342Y-158329978D01*
X129485038Y-158814282D01*
X129104522Y-159383763D01*
X128842419Y-160016536D01*
X128708800Y-160688285D01*
X128708800Y-161373195D01*
X128842419Y-162044944D01*
X129104522Y-162677717D01*
X129485038Y-163247198D01*
X129969342Y-163731502D01*
X130538823Y-164112018D01*
X131171596Y-164374121D01*
X131843345Y-164507740D01*
X132528255Y-164507740D01*
X133200004Y-164374121D01*
X133770917Y-164137641D01*
X133187212Y-165057413D01*
X131729021Y-167064440D01*
X130147686Y-168975946D01*
X128449447Y-170784387D01*
X126641006Y-172482626D01*
X124729500Y-174063961D01*
X122722473Y-175522152D01*
X120627846Y-176851443D01*
X118453885Y-178046588D01*
X116209170Y-179102870D01*
X113902560Y-180016122D01*
X111543159Y-180782738D01*
X109140277Y-181399693D01*
X106703397Y-181864553D01*
X104555943Y-182135839D01*
X104643732Y-181923898D01*
X104700800Y-181637000D01*
X104700800Y-181344480D01*
X104643732Y-181057582D01*
X104531790Y-180787329D01*
X104369275Y-180544108D01*
X104162432Y-180337265D01*
X103919211Y-180174750D01*
X103648958Y-180062808D01*
X103362060Y-180005740D01*
X103069540Y-180005740D01*
X102782642Y-180062808D01*
X102512389Y-180174750D01*
X102269168Y-180337265D01*
X102062325Y-180544108D01*
X101940605Y-180726274D01*
X101870978Y-180609385D01*
X101676069Y-180393152D01*
X101442720Y-180219099D01*
X101179899Y-180093915D01*
X101032690Y-180049264D01*
X100802800Y-180170585D01*
X100802800Y-181363740D01*
X100822800Y-181363740D01*
X100822800Y-181617740D01*
X100802800Y-181617740D01*
X100802800Y-181637740D01*
X100548800Y-181637740D01*
X100548800Y-181617740D01*
X100528800Y-181617740D01*
X100528800Y-181363740D01*
X100548800Y-181363740D01*
X100548800Y-180170585D01*
X100318910Y-180049264D01*
X100171701Y-180093915D01*
X99908880Y-180219099D01*
X99675531Y-180393152D01*
X99599766Y-180477206D01*
X99575302Y-180396560D01*
X99516337Y-180286246D01*
X99436985Y-180189555D01*
X99340294Y-180110203D01*
X99229980Y-180051238D01*
X99110282Y-180014928D01*
X98985800Y-180002668D01*
X97285800Y-180002668D01*
X97161318Y-180014928D01*
X97041620Y-180051238D01*
X96931306Y-180110203D01*
X96834615Y-180189555D01*
X96755263Y-180286246D01*
X96696298Y-180396560D01*
X96659988Y-180516258D01*
X96647728Y-180640740D01*
X96647728Y-182155050D01*
X94348203Y-181864553D01*
X91911323Y-181399693D01*
X89508441Y-180782738D01*
X87149040Y-180016122D01*
X84842430Y-179102870D01*
X82597715Y-178046588D01*
X80423754Y-176851443D01*
X78329127Y-175522152D01*
X76322100Y-174063961D01*
X74410594Y-172482626D01*
X73237205Y-171380740D01*
X95872889Y-171380740D01*
X95904457Y-171701256D01*
X95997948Y-172009455D01*
X96149769Y-172293492D01*
X96354086Y-172542454D01*
X96416487Y-172593665D01*
X96453562Y-172630740D01*
X96416486Y-172667816D01*
X96354086Y-172719026D01*
X96149769Y-172967988D01*
X95997948Y-173252025D01*
X95904457Y-173560224D01*
X95872889Y-173880740D01*
X95904457Y-174201256D01*
X95997948Y-174509455D01*
X96149769Y-174793492D01*
X96354086Y-175042454D01*
X96603048Y-175246771D01*
X96887085Y-175398592D01*
X97195284Y-175492083D01*
X97435478Y-175515740D01*
X97435481Y-175515740D01*
X97515800Y-175523651D01*
X97596119Y-175515740D01*
X100285481Y-175515740D01*
X100365800Y-175523651D01*
X100446119Y-175515740D01*
X102365481Y-175515740D01*
X102445800Y-175523651D01*
X102526119Y-175515740D01*
X104665480Y-175515740D01*
X104745800Y-175523651D01*
X104826119Y-175515740D01*
X104826122Y-175515740D01*
X105066316Y-175492083D01*
X105374515Y-175398592D01*
X105658552Y-175246771D01*
X105907514Y-175042454D01*
X106111831Y-174793492D01*
X106263652Y-174509455D01*
X106357143Y-174201256D01*
X106388711Y-173880740D01*
X106357143Y-173560224D01*
X106263652Y-173252025D01*
X106111831Y-172967988D01*
X105907514Y-172719026D01*
X105845118Y-172667820D01*
X105808038Y-172630740D01*
X105845113Y-172593665D01*
X105907514Y-172542454D01*
X106111831Y-172293492D01*
X106263652Y-172009455D01*
X106357143Y-171701256D01*
X106388711Y-171380740D01*
X106357143Y-171060224D01*
X106263652Y-170752025D01*
X106111831Y-170467988D01*
X105907514Y-170219026D01*
X105658552Y-170014709D01*
X105595173Y-169980832D01*
X105612435Y-169926980D01*
X104745800Y-169060345D01*
X104731658Y-169074488D01*
X104552053Y-168894883D01*
X104566195Y-168880740D01*
X104552053Y-168866598D01*
X104731658Y-168686993D01*
X104745800Y-168701135D01*
X104759943Y-168686993D01*
X104939548Y-168866598D01*
X104925405Y-168880740D01*
X105792040Y-169747375D01*
X106043668Y-169666715D01*
X106172067Y-169398411D01*
X106245655Y-169110214D01*
X106261604Y-168813197D01*
X106219301Y-168518777D01*
X106120372Y-168238266D01*
X106043668Y-168094765D01*
X105792042Y-168014106D01*
X105908067Y-167898081D01*
X105857498Y-167847512D01*
X105864980Y-167845242D01*
X105975294Y-167786277D01*
X106071985Y-167706925D01*
X106151337Y-167610234D01*
X106210302Y-167499920D01*
X106246612Y-167380222D01*
X106258872Y-167255740D01*
X106255800Y-166666490D01*
X106097050Y-166507740D01*
X104872800Y-166507740D01*
X104872800Y-166527740D01*
X104618800Y-166527740D01*
X104618800Y-166507740D01*
X103394550Y-166507740D01*
X103235800Y-166666490D01*
X103232728Y-167255740D01*
X103244988Y-167380222D01*
X103281298Y-167499920D01*
X103340263Y-167610234D01*
X103419615Y-167706925D01*
X103516306Y-167786277D01*
X103626620Y-167845242D01*
X103634102Y-167847512D01*
X103583533Y-167898081D01*
X103699558Y-168014106D01*
X103447932Y-168094765D01*
X103319533Y-168363069D01*
X103245945Y-168651266D01*
X103229996Y-168948283D01*
X103272299Y-169242703D01*
X103371228Y-169523214D01*
X103447932Y-169666715D01*
X103694459Y-169745740D01*
X102326119Y-169745740D01*
X102245800Y-169737829D01*
X102165481Y-169745740D01*
X100096119Y-169745740D01*
X100015799Y-169737829D01*
X99935480Y-169745740D01*
X98567141Y-169745740D01*
X98813668Y-169666715D01*
X98942067Y-169398411D01*
X99015655Y-169110214D01*
X99031604Y-168813197D01*
X98989301Y-168518777D01*
X98890372Y-168238266D01*
X98813668Y-168094765D01*
X98562042Y-168014106D01*
X98678067Y-167898081D01*
X98627498Y-167847512D01*
X98634980Y-167845242D01*
X98745294Y-167786277D01*
X98841985Y-167706925D01*
X98921337Y-167610234D01*
X98980302Y-167499920D01*
X99016612Y-167380222D01*
X99028872Y-167255740D01*
X99025800Y-166666490D01*
X98867050Y-166507740D01*
X97642800Y-166507740D01*
X97642800Y-166527740D01*
X97388800Y-166527740D01*
X97388800Y-166507740D01*
X96164550Y-166507740D01*
X96005800Y-166666490D01*
X96002728Y-167255740D01*
X96014988Y-167380222D01*
X96051298Y-167499920D01*
X96110263Y-167610234D01*
X96189615Y-167706925D01*
X96286306Y-167786277D01*
X96396620Y-167845242D01*
X96404102Y-167847512D01*
X96353533Y-167898081D01*
X96469558Y-168014106D01*
X96217932Y-168094765D01*
X96089533Y-168363069D01*
X96015945Y-168651266D01*
X95999996Y-168948283D01*
X96042299Y-169242703D01*
X96141228Y-169523214D01*
X96217932Y-169666715D01*
X96469560Y-169747375D01*
X97336195Y-168880740D01*
X97322053Y-168866598D01*
X97501658Y-168686993D01*
X97515800Y-168701135D01*
X97529943Y-168686993D01*
X97709548Y-168866598D01*
X97695405Y-168880740D01*
X97709548Y-168894883D01*
X97529943Y-169074488D01*
X97515800Y-169060345D01*
X96649165Y-169926980D01*
X96666427Y-169980832D01*
X96603048Y-170014709D01*
X96354086Y-170219026D01*
X96149769Y-170467988D01*
X95997948Y-170752025D01*
X95904457Y-171060224D01*
X95872889Y-171380740D01*
X73237205Y-171380740D01*
X72602153Y-170784387D01*
X70903914Y-168975946D01*
X69322579Y-167064440D01*
X68190117Y-165505740D01*
X96002728Y-165505740D01*
X96005800Y-166094990D01*
X96164550Y-166253740D01*
X97388800Y-166253740D01*
X97388800Y-165029490D01*
X97642800Y-165029490D01*
X97642800Y-166253740D01*
X98867050Y-166253740D01*
X99025800Y-166094990D01*
X99028872Y-165505740D01*
X103232728Y-165505740D01*
X103235800Y-166094990D01*
X103394550Y-166253740D01*
X104618800Y-166253740D01*
X104618800Y-165029490D01*
X104872800Y-165029490D01*
X104872800Y-166253740D01*
X106097050Y-166253740D01*
X106255800Y-166094990D01*
X106258872Y-165505740D01*
X106246612Y-165381258D01*
X106210302Y-165261560D01*
X106151337Y-165151246D01*
X106071985Y-165054555D01*
X105975294Y-164975203D01*
X105864980Y-164916238D01*
X105745282Y-164879928D01*
X105620800Y-164867668D01*
X105031550Y-164870740D01*
X104872800Y-165029490D01*
X104618800Y-165029490D01*
X104460050Y-164870740D01*
X103870800Y-164867668D01*
X103746318Y-164879928D01*
X103626620Y-164916238D01*
X103516306Y-164975203D01*
X103419615Y-165054555D01*
X103340263Y-165151246D01*
X103281298Y-165261560D01*
X103244988Y-165381258D01*
X103232728Y-165505740D01*
X99028872Y-165505740D01*
X99016612Y-165381258D01*
X98980302Y-165261560D01*
X98921337Y-165151246D01*
X98841985Y-165054555D01*
X98745294Y-164975203D01*
X98634980Y-164916238D01*
X98515282Y-164879928D01*
X98390800Y-164867668D01*
X97801550Y-164870740D01*
X97642800Y-165029490D01*
X97388800Y-165029490D01*
X97230050Y-164870740D01*
X96640800Y-164867668D01*
X96516318Y-164879928D01*
X96396620Y-164916238D01*
X96286306Y-164975203D01*
X96189615Y-165054555D01*
X96110263Y-165151246D01*
X96051298Y-165261560D01*
X96014988Y-165381258D01*
X96002728Y-165505740D01*
X68190117Y-165505740D01*
X67864388Y-165057413D01*
X67280683Y-164137641D01*
X67851596Y-164374121D01*
X68523345Y-164507740D01*
X69208255Y-164507740D01*
X69880004Y-164374121D01*
X70512777Y-164112018D01*
X71082258Y-163731502D01*
X71157607Y-163656153D01*
X111479992Y-163656153D01*
X111575756Y-163920554D01*
X111865371Y-164061444D01*
X112176908Y-164143124D01*
X112498395Y-164162458D01*
X112817475Y-164118701D01*
X113121888Y-164013535D01*
X113295844Y-163920554D01*
X113391608Y-163656153D01*
X112435800Y-162700345D01*
X111479992Y-163656153D01*
X71157607Y-163656153D01*
X71566562Y-163247198D01*
X71947078Y-162677717D01*
X71986172Y-162583335D01*
X110794082Y-162583335D01*
X110837839Y-162902415D01*
X110943005Y-163206828D01*
X111035986Y-163380784D01*
X111300387Y-163476548D01*
X112256195Y-162520740D01*
X112615405Y-162520740D01*
X113571213Y-163476548D01*
X113835614Y-163380784D01*
X113976504Y-163091169D01*
X114058184Y-162779632D01*
X114077518Y-162458145D01*
X114059905Y-162329707D01*
X116340800Y-162329707D01*
X116340800Y-162651773D01*
X116403632Y-162967652D01*
X116526882Y-163265203D01*
X116705813Y-163532992D01*
X116933548Y-163760727D01*
X117201337Y-163939658D01*
X117498888Y-164062908D01*
X117814767Y-164125740D01*
X118136833Y-164125740D01*
X118452712Y-164062908D01*
X118750263Y-163939658D01*
X119018052Y-163760727D01*
X119245787Y-163532992D01*
X119424718Y-163265203D01*
X119547968Y-162967652D01*
X119610800Y-162651773D01*
X119610800Y-162329707D01*
X119547968Y-162013828D01*
X119424718Y-161716277D01*
X119245787Y-161448488D01*
X119018052Y-161220753D01*
X118750263Y-161041822D01*
X118452712Y-160918572D01*
X118136833Y-160855740D01*
X117814767Y-160855740D01*
X117498888Y-160918572D01*
X117201337Y-161041822D01*
X116933548Y-161220753D01*
X116705813Y-161448488D01*
X116526882Y-161716277D01*
X116403632Y-162013828D01*
X116340800Y-162329707D01*
X114059905Y-162329707D01*
X114033761Y-162139065D01*
X113928595Y-161834652D01*
X113835614Y-161660696D01*
X113571213Y-161564932D01*
X112615405Y-162520740D01*
X112256195Y-162520740D01*
X111300387Y-161564932D01*
X111035986Y-161660696D01*
X110895096Y-161950311D01*
X110813416Y-162261848D01*
X110794082Y-162583335D01*
X71986172Y-162583335D01*
X72209181Y-162044944D01*
X72340386Y-161385327D01*
X111479992Y-161385327D01*
X112435800Y-162341135D01*
X113391608Y-161385327D01*
X113295844Y-161120926D01*
X113006229Y-160980036D01*
X112694692Y-160898356D01*
X112373205Y-160879022D01*
X112054125Y-160922779D01*
X111749712Y-161027945D01*
X111575756Y-161120926D01*
X111479992Y-161385327D01*
X72340386Y-161385327D01*
X72342800Y-161373195D01*
X72342800Y-160688285D01*
X72209181Y-160016536D01*
X71947078Y-159383763D01*
X71566562Y-158814282D01*
X71082258Y-158329978D01*
X70512777Y-157949462D01*
X69880004Y-157687359D01*
X69208255Y-157553740D01*
X68523345Y-157553740D01*
X67851596Y-157687359D01*
X67218823Y-157949462D01*
X66649342Y-158329978D01*
X66165038Y-158814282D01*
X65784522Y-159383763D01*
X65522419Y-160016536D01*
X65388800Y-160688285D01*
X65388800Y-160877679D01*
X65339952Y-160788825D01*
X64283670Y-158544110D01*
X63383469Y-156270461D01*
X92660800Y-156270461D01*
X92660800Y-156691019D01*
X92742847Y-157103496D01*
X92903788Y-157492042D01*
X93137437Y-157841723D01*
X93434817Y-158139103D01*
X93784498Y-158372752D01*
X94173044Y-158533693D01*
X94585521Y-158615740D01*
X95006079Y-158615740D01*
X95418556Y-158533693D01*
X95807102Y-158372752D01*
X96156783Y-158139103D01*
X96454163Y-157841723D01*
X96687812Y-157492042D01*
X96848753Y-157103496D01*
X96930800Y-156691019D01*
X96930800Y-156270461D01*
X96848753Y-155857984D01*
X96687812Y-155469438D01*
X96454163Y-155119757D01*
X96156783Y-154822377D01*
X95807102Y-154588728D01*
X95418556Y-154427787D01*
X95006079Y-154345740D01*
X94585521Y-154345740D01*
X94173044Y-154427787D01*
X93784498Y-154588728D01*
X93434817Y-154822377D01*
X93137437Y-155119757D01*
X92903788Y-155469438D01*
X92742847Y-155857984D01*
X92660800Y-156270461D01*
X63383469Y-156270461D01*
X63370418Y-156237500D01*
X62747290Y-154319707D01*
X89160800Y-154319707D01*
X89160800Y-154641773D01*
X89223632Y-154957652D01*
X89346882Y-155255203D01*
X89525813Y-155522992D01*
X89753548Y-155750727D01*
X90021337Y-155929658D01*
X90318888Y-156052908D01*
X90634767Y-156115740D01*
X90956833Y-156115740D01*
X91272712Y-156052908D01*
X91570263Y-155929658D01*
X91838052Y-155750727D01*
X92065787Y-155522992D01*
X92244718Y-155255203D01*
X92367968Y-154957652D01*
X92430800Y-154641773D01*
X92430800Y-154319707D01*
X97160800Y-154319707D01*
X97160800Y-154641773D01*
X97223632Y-154957652D01*
X97346882Y-155255203D01*
X97525813Y-155522992D01*
X97753548Y-155750727D01*
X98021337Y-155929658D01*
X98318888Y-156052908D01*
X98634767Y-156115740D01*
X98956833Y-156115740D01*
X99272712Y-156052908D01*
X99570263Y-155929658D01*
X99838052Y-155750727D01*
X100065787Y-155522992D01*
X100244718Y-155255203D01*
X100273450Y-155185838D01*
X107920800Y-155185838D01*
X107920800Y-155655642D01*
X108012454Y-156116419D01*
X108192240Y-156550461D01*
X108453250Y-156941089D01*
X108785451Y-157273290D01*
X109176079Y-157534300D01*
X109610121Y-157714086D01*
X110070898Y-157805740D01*
X110540702Y-157805740D01*
X111001479Y-157714086D01*
X111435521Y-157534300D01*
X111826149Y-157273290D01*
X112158350Y-156941089D01*
X112419360Y-156550461D01*
X112535339Y-156270461D01*
X123660800Y-156270461D01*
X123660800Y-156691019D01*
X123742847Y-157103496D01*
X123903788Y-157492042D01*
X124137437Y-157841723D01*
X124434817Y-158139103D01*
X124784498Y-158372752D01*
X125173044Y-158533693D01*
X125585521Y-158615740D01*
X126006079Y-158615740D01*
X126418556Y-158533693D01*
X126807102Y-158372752D01*
X127156783Y-158139103D01*
X127454163Y-157841723D01*
X127687812Y-157492042D01*
X127848753Y-157103496D01*
X127930800Y-156691019D01*
X127930800Y-156270461D01*
X127848753Y-155857984D01*
X127687812Y-155469438D01*
X127454163Y-155119757D01*
X127156783Y-154822377D01*
X126807102Y-154588728D01*
X126418556Y-154427787D01*
X126006079Y-154345740D01*
X125585521Y-154345740D01*
X125173044Y-154427787D01*
X124784498Y-154588728D01*
X124434817Y-154822377D01*
X124137437Y-155119757D01*
X123903788Y-155469438D01*
X123742847Y-155857984D01*
X123660800Y-156270461D01*
X112535339Y-156270461D01*
X112599146Y-156116419D01*
X112690800Y-155655642D01*
X112690800Y-155185838D01*
X112599146Y-154725061D01*
X112431243Y-154319707D01*
X120160800Y-154319707D01*
X120160800Y-154641773D01*
X120223632Y-154957652D01*
X120346882Y-155255203D01*
X120525813Y-155522992D01*
X120753548Y-155750727D01*
X121021337Y-155929658D01*
X121318888Y-156052908D01*
X121634767Y-156115740D01*
X121956833Y-156115740D01*
X122272712Y-156052908D01*
X122570263Y-155929658D01*
X122838052Y-155750727D01*
X123065787Y-155522992D01*
X123244718Y-155255203D01*
X123367968Y-154957652D01*
X123430800Y-154641773D01*
X123430800Y-154319707D01*
X128160800Y-154319707D01*
X128160800Y-154641773D01*
X128223632Y-154957652D01*
X128346882Y-155255203D01*
X128525813Y-155522992D01*
X128753548Y-155750727D01*
X129021337Y-155929658D01*
X129318888Y-156052908D01*
X129634767Y-156115740D01*
X129956833Y-156115740D01*
X130272712Y-156052908D01*
X130570263Y-155929658D01*
X130838052Y-155750727D01*
X131065787Y-155522992D01*
X131244718Y-155255203D01*
X131367968Y-154957652D01*
X131430800Y-154641773D01*
X131430800Y-154319707D01*
X131367968Y-154003828D01*
X131244718Y-153706277D01*
X131065787Y-153438488D01*
X130838052Y-153210753D01*
X130570263Y-153031822D01*
X130272712Y-152908572D01*
X129956833Y-152845740D01*
X129634767Y-152845740D01*
X129318888Y-152908572D01*
X129021337Y-153031822D01*
X128753548Y-153210753D01*
X128525813Y-153438488D01*
X128346882Y-153706277D01*
X128223632Y-154003828D01*
X128160800Y-154319707D01*
X123430800Y-154319707D01*
X123367968Y-154003828D01*
X123244718Y-153706277D01*
X123065787Y-153438488D01*
X122838052Y-153210753D01*
X122570263Y-153031822D01*
X122272712Y-152908572D01*
X121956833Y-152845740D01*
X121634767Y-152845740D01*
X121318888Y-152908572D01*
X121021337Y-153031822D01*
X120753548Y-153210753D01*
X120525813Y-153438488D01*
X120346882Y-153706277D01*
X120223632Y-154003828D01*
X120160800Y-154319707D01*
X112431243Y-154319707D01*
X112419360Y-154291019D01*
X112158350Y-153900391D01*
X111826149Y-153568190D01*
X111435521Y-153307180D01*
X111001479Y-153127394D01*
X110540702Y-153035740D01*
X110070898Y-153035740D01*
X109610121Y-153127394D01*
X109176079Y-153307180D01*
X108785451Y-153568190D01*
X108453250Y-153900391D01*
X108192240Y-154291019D01*
X108012454Y-154725061D01*
X107920800Y-155185838D01*
X100273450Y-155185838D01*
X100367968Y-154957652D01*
X100430800Y-154641773D01*
X100430800Y-154319707D01*
X100367968Y-154003828D01*
X100244718Y-153706277D01*
X100065787Y-153438488D01*
X99838052Y-153210753D01*
X99570263Y-153031822D01*
X99272712Y-152908572D01*
X98956833Y-152845740D01*
X98634767Y-152845740D01*
X98318888Y-152908572D01*
X98021337Y-153031822D01*
X97753548Y-153210753D01*
X97525813Y-153438488D01*
X97346882Y-153706277D01*
X97223632Y-154003828D01*
X97160800Y-154319707D01*
X92430800Y-154319707D01*
X92367968Y-154003828D01*
X92244718Y-153706277D01*
X92065787Y-153438488D01*
X91838052Y-153210753D01*
X91570263Y-153031822D01*
X91272712Y-152908572D01*
X90956833Y-152845740D01*
X90634767Y-152845740D01*
X90318888Y-152908572D01*
X90021337Y-153031822D01*
X89753548Y-153210753D01*
X89525813Y-153438488D01*
X89346882Y-153706277D01*
X89223632Y-154003828D01*
X89160800Y-154319707D01*
X62747290Y-154319707D01*
X62603802Y-153878099D01*
X62270338Y-152579340D01*
X62434073Y-152688745D01*
X62688310Y-152794054D01*
X62958208Y-152847740D01*
X63233392Y-152847740D01*
X63503290Y-152794054D01*
X63757527Y-152688745D01*
X63986335Y-152535860D01*
X64180920Y-152341275D01*
X64333805Y-152112467D01*
X64439114Y-151858230D01*
X64492800Y-151588332D01*
X64492800Y-151313148D01*
X64439114Y-151043250D01*
X64333805Y-150789013D01*
X64180920Y-150560205D01*
X63986335Y-150365620D01*
X63757527Y-150212735D01*
X63503290Y-150107426D01*
X63233392Y-150053740D01*
X62958208Y-150053740D01*
X62688310Y-150107426D01*
X62434073Y-150212735D01*
X62205265Y-150365620D01*
X62010680Y-150560205D01*
X61857795Y-150789013D01*
X61856529Y-150792068D01*
X61521987Y-149038337D01*
X61211058Y-146577077D01*
X61122457Y-145168801D01*
X68500800Y-145168801D01*
X68500800Y-145372679D01*
X68540574Y-145572638D01*
X68618595Y-145760996D01*
X68650800Y-145809195D01*
X68650801Y-146617261D01*
X68646519Y-146660740D01*
X68663605Y-146834230D01*
X68714212Y-147001053D01*
X68796390Y-147154799D01*
X68879268Y-147255786D01*
X68879271Y-147255789D01*
X68906984Y-147289557D01*
X68940751Y-147317269D01*
X70239265Y-148615784D01*
X70250574Y-148672638D01*
X70328595Y-148860996D01*
X70441863Y-149030514D01*
X70586026Y-149174677D01*
X70755544Y-149287945D01*
X70943902Y-149365966D01*
X71143861Y-149405740D01*
X71347739Y-149405740D01*
X71547698Y-149365966D01*
X71736056Y-149287945D01*
X71905574Y-149174677D01*
X72037636Y-149042615D01*
X72075544Y-149067945D01*
X72263902Y-149145966D01*
X72463861Y-149185740D01*
X72667739Y-149185740D01*
X72867698Y-149145966D01*
X73056056Y-149067945D01*
X73225574Y-148954677D01*
X73369737Y-148810514D01*
X73483005Y-148640996D01*
X73561026Y-148452638D01*
X73581680Y-148348801D01*
X103920800Y-148348801D01*
X103920800Y-148552679D01*
X103960574Y-148752638D01*
X104038595Y-148940996D01*
X104151863Y-149110514D01*
X104195800Y-149154451D01*
X104195801Y-150347028D01*
X104151863Y-150390966D01*
X104038595Y-150560484D01*
X103960574Y-150748842D01*
X103920800Y-150948801D01*
X103920800Y-151152679D01*
X103960574Y-151352638D01*
X104038595Y-151540996D01*
X104151863Y-151710514D01*
X104296026Y-151854677D01*
X104465544Y-151967945D01*
X104653902Y-152045966D01*
X104853861Y-152085740D01*
X105057739Y-152085740D01*
X105257698Y-152045966D01*
X105446056Y-151967945D01*
X105615574Y-151854677D01*
X105759737Y-151710514D01*
X105873005Y-151540996D01*
X105951026Y-151352638D01*
X105990800Y-151152679D01*
X105990800Y-150948801D01*
X105951026Y-150748842D01*
X105873005Y-150560484D01*
X105759737Y-150390966D01*
X105715800Y-150347029D01*
X105715800Y-149154451D01*
X105759737Y-149110514D01*
X105873005Y-148940996D01*
X105951026Y-148752638D01*
X105990800Y-148552679D01*
X105990800Y-148348801D01*
X105951026Y-148148842D01*
X105873005Y-147960484D01*
X105759737Y-147790966D01*
X105615574Y-147646803D01*
X105446056Y-147533535D01*
X105257698Y-147455514D01*
X105057739Y-147415740D01*
X104853861Y-147415740D01*
X104653902Y-147455514D01*
X104465544Y-147533535D01*
X104296026Y-147646803D01*
X104151863Y-147790966D01*
X104038595Y-147960484D01*
X103960574Y-148148842D01*
X103920800Y-148348801D01*
X73581680Y-148348801D01*
X73600800Y-148252679D01*
X73600800Y-148048801D01*
X73561026Y-147848842D01*
X73483005Y-147660484D01*
X73369737Y-147490966D01*
X73225574Y-147346803D01*
X73056056Y-147233535D01*
X72867698Y-147155514D01*
X72810844Y-147144205D01*
X71560800Y-145894162D01*
X71560800Y-143149194D01*
X71593005Y-143100996D01*
X71608857Y-143062724D01*
X97160800Y-143062724D01*
X97160800Y-143778756D01*
X97300491Y-144481030D01*
X97574505Y-145142558D01*
X97972311Y-145737917D01*
X98478623Y-146244229D01*
X99073982Y-146642035D01*
X99735510Y-146916049D01*
X100437784Y-147055740D01*
X101153816Y-147055740D01*
X101856090Y-146916049D01*
X102517618Y-146642035D01*
X103112977Y-146244229D01*
X103619289Y-145737917D01*
X104017095Y-145142558D01*
X104291109Y-144481030D01*
X104430800Y-143778756D01*
X104430800Y-143062724D01*
X104291109Y-142360450D01*
X104017095Y-141698922D01*
X103619289Y-141103563D01*
X103112977Y-140597251D01*
X102517618Y-140199445D01*
X101856090Y-139925431D01*
X101153816Y-139785740D01*
X100437784Y-139785740D01*
X99735510Y-139925431D01*
X99073982Y-140199445D01*
X98478623Y-140597251D01*
X97972311Y-141103563D01*
X97574505Y-141698922D01*
X97300491Y-142360450D01*
X97160800Y-143062724D01*
X71608857Y-143062724D01*
X71671026Y-142912638D01*
X71710800Y-142712679D01*
X71710800Y-142508801D01*
X71671026Y-142308842D01*
X71593005Y-142120484D01*
X71479737Y-141950966D01*
X71335574Y-141806803D01*
X71166056Y-141693535D01*
X70977698Y-141615514D01*
X70777739Y-141575740D01*
X70573861Y-141575740D01*
X70373902Y-141615514D01*
X70185544Y-141693535D01*
X70016026Y-141806803D01*
X69871863Y-141950966D01*
X69758595Y-142120484D01*
X69680574Y-142308842D01*
X69640800Y-142508801D01*
X69640800Y-142712679D01*
X69680574Y-142912638D01*
X69758595Y-143100996D01*
X69790801Y-143149196D01*
X69790801Y-144266186D01*
X69637739Y-144235740D01*
X69433861Y-144235740D01*
X69233902Y-144275514D01*
X69045544Y-144353535D01*
X68876026Y-144466803D01*
X68731863Y-144610966D01*
X68618595Y-144780484D01*
X68540574Y-144968842D01*
X68500800Y-145168801D01*
X61122457Y-145168801D01*
X61055286Y-144101151D01*
X61055286Y-141620329D01*
X61211058Y-139144403D01*
X61521987Y-136683143D01*
X61986847Y-134246263D01*
X62432951Y-132508801D01*
X63950800Y-132508801D01*
X63950800Y-132712679D01*
X63990574Y-132912638D01*
X64068595Y-133100996D01*
X64181863Y-133270514D01*
X64326026Y-133414677D01*
X64495544Y-133527945D01*
X64683902Y-133605966D01*
X64883861Y-133645740D01*
X65087739Y-133645740D01*
X65287698Y-133605966D01*
X65476056Y-133527945D01*
X65645574Y-133414677D01*
X65729511Y-133330740D01*
X67037089Y-133330740D01*
X67081026Y-133374677D01*
X67250544Y-133487945D01*
X67438902Y-133565966D01*
X67638861Y-133605740D01*
X67842739Y-133605740D01*
X68042698Y-133565966D01*
X68231056Y-133487945D01*
X68400574Y-133374677D01*
X68544737Y-133230514D01*
X68658005Y-133060996D01*
X68736026Y-132872638D01*
X68775800Y-132672679D01*
X68775800Y-132468801D01*
X68736026Y-132268842D01*
X68658005Y-132080484D01*
X68544737Y-131910966D01*
X68400574Y-131766803D01*
X68231056Y-131653535D01*
X68042698Y-131575514D01*
X67842739Y-131535740D01*
X67638861Y-131535740D01*
X67438902Y-131575514D01*
X67250544Y-131653535D01*
X67081026Y-131766803D01*
X67037089Y-131810740D01*
X65649511Y-131810740D01*
X65645574Y-131806803D01*
X65476056Y-131693535D01*
X65287698Y-131615514D01*
X65087739Y-131575740D01*
X64883861Y-131575740D01*
X64683902Y-131615514D01*
X64495544Y-131693535D01*
X64326026Y-131806803D01*
X64181863Y-131950966D01*
X64068595Y-132120484D01*
X63990574Y-132308842D01*
X63950800Y-132508801D01*
X62432951Y-132508801D01*
X62603802Y-131843381D01*
X63370418Y-129483980D01*
X64283670Y-127177370D01*
X65339952Y-124932655D01*
X65388800Y-124843801D01*
X65388800Y-125093195D01*
X65522419Y-125764944D01*
X65784522Y-126397717D01*
X66165038Y-126967198D01*
X66649342Y-127451502D01*
X67218823Y-127832018D01*
X67851596Y-128094121D01*
X68523345Y-128227740D01*
X69208255Y-128227740D01*
X69880004Y-128094121D01*
X70512777Y-127832018D01*
X71082258Y-127451502D01*
X71566562Y-126967198D01*
X71947078Y-126397717D01*
X72209181Y-125764944D01*
X72222939Y-125695779D01*
X72222939Y-127093494D01*
X71999992Y-127316441D01*
X71937855Y-127316441D01*
X71737896Y-127356215D01*
X71549538Y-127434236D01*
X71380020Y-127547504D01*
X71235857Y-127691667D01*
X71122589Y-127861185D01*
X71044568Y-128049543D01*
X71004794Y-128249502D01*
X71004794Y-128453380D01*
X71044568Y-128653339D01*
X71122589Y-128841697D01*
X71131914Y-128855653D01*
X71088595Y-128920484D01*
X71010574Y-129108842D01*
X70970800Y-129308801D01*
X70970800Y-129512679D01*
X71010574Y-129712638D01*
X71088595Y-129900996D01*
X71201863Y-130070514D01*
X71346026Y-130214677D01*
X71515544Y-130327945D01*
X71703902Y-130405966D01*
X71903861Y-130445740D01*
X72107739Y-130445740D01*
X72307698Y-130405966D01*
X72496056Y-130327945D01*
X72665574Y-130214677D01*
X72809737Y-130070514D01*
X72923005Y-129900996D01*
X73001026Y-129712638D01*
X73040800Y-129512679D01*
X73040800Y-129450542D01*
X74396808Y-128094535D01*
X74425801Y-128070741D01*
X74449595Y-128041748D01*
X74449599Y-128041744D01*
X74520773Y-127955017D01*
X74520774Y-127955016D01*
X74591346Y-127822987D01*
X74634803Y-127679726D01*
X74645800Y-127568073D01*
X74645800Y-127568064D01*
X74649476Y-127530741D01*
X74645800Y-127493418D01*
X74645800Y-121560322D01*
X74823861Y-121595740D01*
X75027739Y-121595740D01*
X75227698Y-121555966D01*
X75416056Y-121477945D01*
X75485800Y-121431344D01*
X75485801Y-130003398D01*
X75485800Y-130003408D01*
X75485801Y-131146410D01*
X75482124Y-131183742D01*
X75485801Y-131221075D01*
X75496628Y-131330996D01*
X75496798Y-131332727D01*
X75540254Y-131475988D01*
X75610826Y-131608018D01*
X75664595Y-131673535D01*
X75705800Y-131723743D01*
X75734798Y-131747541D01*
X76063995Y-132076738D01*
X76087798Y-132105742D01*
X76203523Y-132200715D01*
X76335552Y-132271287D01*
X76478813Y-132314744D01*
X76590466Y-132325741D01*
X76590475Y-132325741D01*
X76627798Y-132329417D01*
X76665121Y-132325741D01*
X76669256Y-132325741D01*
X76640800Y-132468801D01*
X76640800Y-132672679D01*
X76680574Y-132872638D01*
X76758595Y-133060996D01*
X76871863Y-133230514D01*
X77016026Y-133374677D01*
X77185544Y-133487945D01*
X77373902Y-133565966D01*
X77573861Y-133605740D01*
X77777739Y-133605740D01*
X77971693Y-133567160D01*
X78010574Y-133762628D01*
X78088595Y-133950986D01*
X78201863Y-134120504D01*
X78245801Y-134164442D01*
X78245800Y-135197029D01*
X78201863Y-135240966D01*
X78088595Y-135410484D01*
X78010574Y-135598842D01*
X77970800Y-135798801D01*
X77970800Y-136002679D01*
X78010574Y-136202638D01*
X78088595Y-136390996D01*
X78201863Y-136560514D01*
X78257089Y-136615740D01*
X78191863Y-136680966D01*
X78078595Y-136850484D01*
X78000574Y-137038842D01*
X77972933Y-137177805D01*
X77883902Y-137195514D01*
X77695544Y-137273535D01*
X77526026Y-137386803D01*
X77381863Y-137530966D01*
X77268595Y-137700484D01*
X77190574Y-137888842D01*
X77167322Y-138005740D01*
X77093861Y-138005740D01*
X76893902Y-138045514D01*
X76705544Y-138123535D01*
X76536026Y-138236803D01*
X76391863Y-138380966D01*
X76278595Y-138550484D01*
X76200574Y-138738842D01*
X76160800Y-138938801D01*
X76160800Y-139142679D01*
X76200574Y-139342638D01*
X76278595Y-139530996D01*
X76316847Y-139588244D01*
X76316846Y-141062295D01*
X76284641Y-141110494D01*
X76206620Y-141298852D01*
X76166846Y-141498811D01*
X76166846Y-141702689D01*
X76206620Y-141902648D01*
X76284641Y-142091006D01*
X76397909Y-142260524D01*
X76542072Y-142404687D01*
X76711590Y-142517955D01*
X76899948Y-142595976D01*
X77099907Y-142635750D01*
X77303785Y-142635750D01*
X77503744Y-142595976D01*
X77627244Y-142544820D01*
X77708303Y-142598982D01*
X77896661Y-142677003D01*
X78096620Y-142716777D01*
X78300498Y-142716777D01*
X78500457Y-142677003D01*
X78514550Y-142671165D01*
X78520331Y-142676946D01*
X78689849Y-142790214D01*
X78878207Y-142868235D01*
X79078166Y-142908009D01*
X79282044Y-142908009D01*
X79482003Y-142868235D01*
X79670361Y-142790214D01*
X79839879Y-142676946D01*
X79881040Y-142635785D01*
X79953902Y-142665966D01*
X80153861Y-142705740D01*
X80357739Y-142705740D01*
X80557698Y-142665966D01*
X80746056Y-142587945D01*
X80915574Y-142474677D01*
X81059737Y-142330514D01*
X81173005Y-142160996D01*
X81251026Y-141972638D01*
X81290800Y-141772679D01*
X81290800Y-141568801D01*
X81251026Y-141368842D01*
X81173005Y-141180484D01*
X81059737Y-141010966D01*
X81015800Y-140967029D01*
X81015800Y-137856745D01*
X81033005Y-137830996D01*
X81111026Y-137642638D01*
X81150800Y-137442679D01*
X81150800Y-137238801D01*
X81126931Y-137118801D01*
X103920800Y-137118801D01*
X103920800Y-137322679D01*
X103960574Y-137522638D01*
X104038595Y-137710996D01*
X104151863Y-137880514D01*
X104195800Y-137924451D01*
X104195801Y-139367028D01*
X104151863Y-139410966D01*
X104038595Y-139580484D01*
X103960574Y-139768842D01*
X103920800Y-139968801D01*
X103920800Y-140172679D01*
X103960574Y-140372638D01*
X104038595Y-140560996D01*
X104151863Y-140730514D01*
X104296026Y-140874677D01*
X104465544Y-140987945D01*
X104653902Y-141065966D01*
X104853861Y-141105740D01*
X105057739Y-141105740D01*
X105257698Y-141065966D01*
X105446056Y-140987945D01*
X105615574Y-140874677D01*
X105759737Y-140730514D01*
X105873005Y-140560996D01*
X105951026Y-140372638D01*
X105990800Y-140172679D01*
X105990800Y-139968801D01*
X105951026Y-139768842D01*
X105873005Y-139580484D01*
X105759737Y-139410966D01*
X105715800Y-139367029D01*
X105715800Y-137924451D01*
X105759737Y-137880514D01*
X105873005Y-137710996D01*
X105951026Y-137522638D01*
X105990800Y-137322679D01*
X105990800Y-137238801D01*
X109161249Y-137238801D01*
X109161249Y-137442679D01*
X109201023Y-137642638D01*
X109279044Y-137830996D01*
X109392312Y-138000514D01*
X109436249Y-138044451D01*
X109436250Y-140713857D01*
X109432573Y-140751189D01*
X109436250Y-140788522D01*
X109447247Y-140900175D01*
X109459624Y-140940976D01*
X109490703Y-141043435D01*
X109510800Y-141081034D01*
X109510800Y-141202679D01*
X109550574Y-141402638D01*
X109628595Y-141590996D01*
X109741863Y-141760514D01*
X109886026Y-141904677D01*
X110055544Y-142017945D01*
X110243902Y-142095966D01*
X110443861Y-142135740D01*
X110647739Y-142135740D01*
X110847698Y-142095966D01*
X111036056Y-142017945D01*
X111205574Y-141904677D01*
X111349737Y-141760514D01*
X111463005Y-141590996D01*
X111541026Y-141402638D01*
X111559690Y-141308801D01*
X112350800Y-141308801D01*
X112350800Y-141512679D01*
X112390574Y-141712638D01*
X112468595Y-141900996D01*
X112581863Y-142070514D01*
X112726026Y-142214677D01*
X112895544Y-142327945D01*
X113083902Y-142405966D01*
X113283861Y-142445740D01*
X113487739Y-142445740D01*
X113687698Y-142405966D01*
X113876056Y-142327945D01*
X114045574Y-142214677D01*
X114089511Y-142170740D01*
X114518072Y-142170740D01*
X114510574Y-142188842D01*
X114470800Y-142388801D01*
X114470800Y-142592679D01*
X114510574Y-142792638D01*
X114588595Y-142980996D01*
X114701863Y-143150514D01*
X114846026Y-143294677D01*
X115015544Y-143407945D01*
X115203902Y-143485966D01*
X115403861Y-143525740D01*
X115607739Y-143525740D01*
X115807698Y-143485966D01*
X115996056Y-143407945D01*
X116165574Y-143294677D01*
X116209511Y-143250740D01*
X117832861Y-143250740D01*
X117835263Y-143255234D01*
X117914615Y-143351925D01*
X118011306Y-143431277D01*
X118047718Y-143450740D01*
X118011306Y-143470203D01*
X117914615Y-143549555D01*
X117847988Y-143630740D01*
X117609511Y-143630740D01*
X117565574Y-143586803D01*
X117396056Y-143473535D01*
X117207698Y-143395514D01*
X117007739Y-143355740D01*
X116803861Y-143355740D01*
X116603902Y-143395514D01*
X116415544Y-143473535D01*
X116246026Y-143586803D01*
X116101863Y-143730966D01*
X115988595Y-143900484D01*
X115910574Y-144088842D01*
X115870800Y-144288801D01*
X115870800Y-144492679D01*
X115910574Y-144692638D01*
X115988595Y-144880996D01*
X116101863Y-145050514D01*
X116246026Y-145194677D01*
X116415544Y-145307945D01*
X116603902Y-145385966D01*
X116803861Y-145425740D01*
X117007739Y-145425740D01*
X117207698Y-145385966D01*
X117396056Y-145307945D01*
X117565574Y-145194677D01*
X117609511Y-145150740D01*
X117832861Y-145150740D01*
X117835263Y-145155234D01*
X117914615Y-145251925D01*
X118011306Y-145331277D01*
X118055800Y-145355060D01*
X118055801Y-145952801D01*
X118051306Y-145955203D01*
X117954615Y-146034555D01*
X117875263Y-146131246D01*
X117816298Y-146241560D01*
X117779988Y-146361258D01*
X117767728Y-146485740D01*
X117767728Y-147235740D01*
X117779988Y-147360222D01*
X117816298Y-147479920D01*
X117875263Y-147590234D01*
X117954615Y-147686925D01*
X118045800Y-147761759D01*
X118045800Y-147835938D01*
X115825999Y-150055740D01*
X115763861Y-150055740D01*
X115563902Y-150095514D01*
X115375544Y-150173535D01*
X115206026Y-150286803D01*
X115061863Y-150430966D01*
X114948595Y-150600484D01*
X114870574Y-150788842D01*
X114830800Y-150988801D01*
X114830800Y-151192679D01*
X114870574Y-151392638D01*
X114948595Y-151580996D01*
X115061863Y-151750514D01*
X115206026Y-151894677D01*
X115375544Y-152007945D01*
X115563902Y-152085966D01*
X115763861Y-152125740D01*
X115967739Y-152125740D01*
X116167698Y-152085966D01*
X116356056Y-152007945D01*
X116525574Y-151894677D01*
X116669737Y-151750514D01*
X116783005Y-151580996D01*
X116861026Y-151392638D01*
X116900800Y-151192679D01*
X116900800Y-151130541D01*
X119316804Y-148714538D01*
X119345801Y-148690741D01*
X119440774Y-148575016D01*
X119511346Y-148442987D01*
X119554803Y-148299726D01*
X119565800Y-148188073D01*
X119565800Y-148188063D01*
X119569476Y-148150740D01*
X119565800Y-148113417D01*
X119565800Y-147774024D01*
X119661620Y-147825242D01*
X119781318Y-147861552D01*
X119905800Y-147873812D01*
X120020050Y-147870740D01*
X120178800Y-147711990D01*
X120178800Y-146987740D01*
X120432800Y-146987740D01*
X120432800Y-147711990D01*
X120591550Y-147870740D01*
X120705800Y-147873812D01*
X120830282Y-147861552D01*
X120949980Y-147825242D01*
X121060294Y-147766277D01*
X121156985Y-147686925D01*
X121236337Y-147590234D01*
X121295302Y-147479920D01*
X121331612Y-147360222D01*
X121343872Y-147235740D01*
X121340800Y-147146490D01*
X121182050Y-146987740D01*
X120432800Y-146987740D01*
X120178800Y-146987740D01*
X120158800Y-146987740D01*
X120158800Y-146733740D01*
X120178800Y-146733740D01*
X120178800Y-146009490D01*
X120432800Y-146009490D01*
X120432800Y-146733740D01*
X121182050Y-146733740D01*
X121340800Y-146574990D01*
X121343872Y-146485740D01*
X121331612Y-146361258D01*
X121295302Y-146241560D01*
X121236337Y-146131246D01*
X121156985Y-146034555D01*
X121060294Y-145955203D01*
X120949980Y-145896238D01*
X120830282Y-145859928D01*
X120705800Y-145847668D01*
X120591550Y-145850740D01*
X120432800Y-146009490D01*
X120178800Y-146009490D01*
X120020050Y-145850740D01*
X119905800Y-145847668D01*
X119781318Y-145859928D01*
X119661620Y-145896238D01*
X119575800Y-145942110D01*
X119575800Y-145355060D01*
X119620294Y-145331277D01*
X119716985Y-145251925D01*
X119791818Y-145160740D01*
X131692609Y-145160740D01*
X131734615Y-145211925D01*
X131831306Y-145291277D01*
X131875800Y-145315060D01*
X131875801Y-146205073D01*
X131856298Y-146241560D01*
X131819988Y-146361258D01*
X131807728Y-146485740D01*
X131807728Y-147235740D01*
X131819988Y-147360222D01*
X131856298Y-147479920D01*
X131915263Y-147590234D01*
X131994615Y-147686925D01*
X132091306Y-147766277D01*
X132201620Y-147825242D01*
X132321318Y-147861552D01*
X132445800Y-147873812D01*
X133245800Y-147873812D01*
X133370282Y-147861552D01*
X133489980Y-147825242D01*
X133595800Y-147768679D01*
X133701620Y-147825242D01*
X133821318Y-147861552D01*
X133945800Y-147873812D01*
X134060050Y-147870740D01*
X134218800Y-147711990D01*
X134218800Y-146987740D01*
X134472800Y-146987740D01*
X134472800Y-147711990D01*
X134631550Y-147870740D01*
X134745800Y-147873812D01*
X134870282Y-147861552D01*
X134989980Y-147825242D01*
X135100294Y-147766277D01*
X135196985Y-147686925D01*
X135276337Y-147590234D01*
X135335302Y-147479920D01*
X135371612Y-147360222D01*
X135383872Y-147235740D01*
X135380800Y-147146490D01*
X135222050Y-146987740D01*
X134472800Y-146987740D01*
X134218800Y-146987740D01*
X134198800Y-146987740D01*
X134198800Y-146733740D01*
X134218800Y-146733740D01*
X134218800Y-146009490D01*
X134472800Y-146009490D01*
X134472800Y-146733740D01*
X135222050Y-146733740D01*
X135380800Y-146574990D01*
X135383872Y-146485740D01*
X135371612Y-146361258D01*
X135335302Y-146241560D01*
X135276337Y-146131246D01*
X135196985Y-146034555D01*
X135100294Y-145955203D01*
X134989980Y-145896238D01*
X134870282Y-145859928D01*
X134745800Y-145847668D01*
X134631550Y-145850740D01*
X134472800Y-146009490D01*
X134218800Y-146009490D01*
X134060050Y-145850740D01*
X133945800Y-145847668D01*
X133821318Y-145859928D01*
X133701620Y-145896238D01*
X133595800Y-145952801D01*
X133489980Y-145896238D01*
X133395800Y-145867669D01*
X133395800Y-145315060D01*
X133440294Y-145291277D01*
X133536985Y-145211925D01*
X133616337Y-145115234D01*
X133675302Y-145004920D01*
X133711612Y-144885222D01*
X133723872Y-144760740D01*
X133723872Y-144248835D01*
X133734615Y-144261925D01*
X133831306Y-144341277D01*
X133941620Y-144400242D01*
X134061318Y-144436552D01*
X134185800Y-144448812D01*
X134350050Y-144445740D01*
X134508800Y-144286990D01*
X134508800Y-143537740D01*
X134762800Y-143537740D01*
X134762800Y-144286990D01*
X134921550Y-144445740D01*
X135085800Y-144448812D01*
X135210282Y-144436552D01*
X135329980Y-144400242D01*
X135440294Y-144341277D01*
X135536985Y-144261925D01*
X135616337Y-144165234D01*
X135675302Y-144054920D01*
X135711612Y-143935222D01*
X135723872Y-143810740D01*
X135720800Y-143696490D01*
X135562050Y-143537740D01*
X134762800Y-143537740D01*
X134508800Y-143537740D01*
X133709550Y-143537740D01*
X133624943Y-143622347D01*
X133616337Y-143606246D01*
X133536985Y-143509555D01*
X133440294Y-143430203D01*
X133403882Y-143410740D01*
X133440294Y-143391277D01*
X133536985Y-143311925D01*
X133616337Y-143215234D01*
X133624943Y-143199133D01*
X133709550Y-143283740D01*
X134508800Y-143283740D01*
X134508800Y-142534490D01*
X134762800Y-142534490D01*
X134762800Y-143283740D01*
X135562050Y-143283740D01*
X135720800Y-143124990D01*
X135723872Y-143010740D01*
X135711612Y-142886258D01*
X135675302Y-142766560D01*
X135616337Y-142656246D01*
X135536985Y-142559555D01*
X135440294Y-142480203D01*
X135329980Y-142421238D01*
X135210282Y-142384928D01*
X135085800Y-142372668D01*
X134921550Y-142375740D01*
X134762800Y-142534490D01*
X134508800Y-142534490D01*
X134350050Y-142375740D01*
X134185800Y-142372668D01*
X134061318Y-142384928D01*
X133941620Y-142421238D01*
X133831306Y-142480203D01*
X133734615Y-142559555D01*
X133723872Y-142572645D01*
X133723872Y-142060740D01*
X133711612Y-141936258D01*
X133675302Y-141816560D01*
X133616337Y-141706246D01*
X133536985Y-141609555D01*
X133440294Y-141530203D01*
X133329980Y-141471238D01*
X133210282Y-141434928D01*
X133085800Y-141422668D01*
X132185800Y-141422668D01*
X132061318Y-141434928D01*
X131941620Y-141471238D01*
X131831306Y-141530203D01*
X131734615Y-141609555D01*
X131659782Y-141700740D01*
X131410800Y-141700740D01*
X131410800Y-141668801D01*
X131371026Y-141468842D01*
X131293005Y-141280484D01*
X131179737Y-141110966D01*
X131035574Y-140966803D01*
X130866056Y-140853535D01*
X130677698Y-140775514D01*
X130477739Y-140735740D01*
X130273861Y-140735740D01*
X130073902Y-140775514D01*
X129885544Y-140853535D01*
X129716026Y-140966803D01*
X129571863Y-141110966D01*
X129458595Y-141280484D01*
X129380574Y-141468842D01*
X129340800Y-141668801D01*
X129340800Y-141872679D01*
X129380574Y-142072638D01*
X129458595Y-142260996D01*
X129571863Y-142430514D01*
X129716026Y-142574677D01*
X129885544Y-142687945D01*
X130073902Y-142765966D01*
X130273861Y-142805740D01*
X130335998Y-142805740D01*
X130502001Y-142971742D01*
X130525799Y-143000741D01*
X130641524Y-143095714D01*
X130773553Y-143166286D01*
X130916814Y-143209743D01*
X131028467Y-143220740D01*
X131028476Y-143220740D01*
X131065799Y-143224416D01*
X131103122Y-143220740D01*
X131659782Y-143220740D01*
X131734615Y-143311925D01*
X131831306Y-143391277D01*
X131867718Y-143410740D01*
X131831306Y-143430203D01*
X131734615Y-143509555D01*
X131655263Y-143606246D01*
X131636825Y-143640740D01*
X121805050Y-143640740D01*
X121742050Y-143577740D01*
X120942800Y-143577740D01*
X120942800Y-143597740D01*
X120688800Y-143597740D01*
X120688800Y-143577740D01*
X119889550Y-143577740D01*
X119826550Y-143640740D01*
X119791818Y-143640740D01*
X119716985Y-143549555D01*
X119620294Y-143470203D01*
X119583882Y-143450740D01*
X119620294Y-143431277D01*
X119716985Y-143351925D01*
X119796337Y-143255234D01*
X119804943Y-143239133D01*
X119889550Y-143323740D01*
X120688800Y-143323740D01*
X120688800Y-142574490D01*
X120942800Y-142574490D01*
X120942800Y-143323740D01*
X121742050Y-143323740D01*
X121900800Y-143164990D01*
X121903872Y-143050740D01*
X121891612Y-142926258D01*
X121855302Y-142806560D01*
X121796337Y-142696246D01*
X121716985Y-142599555D01*
X121620294Y-142520203D01*
X121509980Y-142461238D01*
X121390282Y-142424928D01*
X121265800Y-142412668D01*
X121101550Y-142415740D01*
X120942800Y-142574490D01*
X120688800Y-142574490D01*
X120530050Y-142415740D01*
X120365800Y-142412668D01*
X120241318Y-142424928D01*
X120121620Y-142461238D01*
X120011306Y-142520203D01*
X119914615Y-142599555D01*
X119903872Y-142612645D01*
X119903872Y-142100740D01*
X119891612Y-141976258D01*
X119855302Y-141856560D01*
X119796337Y-141746246D01*
X119716985Y-141649555D01*
X119620294Y-141570203D01*
X119509980Y-141511238D01*
X119390282Y-141474928D01*
X119265800Y-141462668D01*
X118365800Y-141462668D01*
X118241318Y-141474928D01*
X118121620Y-141511238D01*
X118011306Y-141570203D01*
X117914615Y-141649555D01*
X117847988Y-141730740D01*
X117192740Y-141730740D01*
X117296056Y-141687945D01*
X117465574Y-141574677D01*
X117609737Y-141430514D01*
X117723005Y-141260996D01*
X117801026Y-141072638D01*
X117840800Y-140872679D01*
X117840800Y-140668801D01*
X117801026Y-140468842D01*
X117723005Y-140280484D01*
X117609737Y-140110966D01*
X117465574Y-139966803D01*
X117296056Y-139853535D01*
X117107698Y-139775514D01*
X116907739Y-139735740D01*
X116703861Y-139735740D01*
X116503902Y-139775514D01*
X116315544Y-139853535D01*
X116196504Y-139933074D01*
X116183005Y-139900484D01*
X116069737Y-139730966D01*
X115955800Y-139617029D01*
X115955800Y-138933148D01*
X136598800Y-138933148D01*
X136598800Y-139208332D01*
X136652486Y-139478230D01*
X136757795Y-139732467D01*
X136910680Y-139961275D01*
X137105265Y-140155860D01*
X137334073Y-140308745D01*
X137588310Y-140414054D01*
X137858208Y-140467740D01*
X138133392Y-140467740D01*
X138403290Y-140414054D01*
X138657527Y-140308745D01*
X138886335Y-140155860D01*
X139080920Y-139961275D01*
X139233805Y-139732467D01*
X139339114Y-139478230D01*
X139392800Y-139208332D01*
X139392800Y-138933148D01*
X139339114Y-138663250D01*
X139233805Y-138409013D01*
X139080920Y-138180205D01*
X138886335Y-137985620D01*
X138657527Y-137832735D01*
X138403290Y-137727426D01*
X138133392Y-137673740D01*
X137858208Y-137673740D01*
X137588310Y-137727426D01*
X137334073Y-137832735D01*
X137105265Y-137985620D01*
X136910680Y-138180205D01*
X136757795Y-138409013D01*
X136652486Y-138663250D01*
X136598800Y-138933148D01*
X115955800Y-138933148D01*
X115955800Y-137964451D01*
X115999737Y-137920514D01*
X116113005Y-137750996D01*
X116191026Y-137562638D01*
X116230800Y-137362679D01*
X116230800Y-137158801D01*
X116191026Y-136958842D01*
X116113005Y-136770484D01*
X115999737Y-136600966D01*
X115855574Y-136456803D01*
X115686056Y-136343535D01*
X115497698Y-136265514D01*
X115297739Y-136225740D01*
X115093861Y-136225740D01*
X114893902Y-136265514D01*
X114705544Y-136343535D01*
X114536026Y-136456803D01*
X114391863Y-136600966D01*
X114278595Y-136770484D01*
X114200574Y-136958842D01*
X114160800Y-137158801D01*
X114160800Y-137362679D01*
X114200574Y-137562638D01*
X114278595Y-137750996D01*
X114391863Y-137920514D01*
X114435800Y-137964451D01*
X114435801Y-139769971D01*
X114348595Y-139900484D01*
X114270574Y-140088842D01*
X114230800Y-140288801D01*
X114230800Y-140492679D01*
X114262240Y-140650740D01*
X114089511Y-140650740D01*
X114045574Y-140606803D01*
X113876056Y-140493535D01*
X113687698Y-140415514D01*
X113487739Y-140375740D01*
X113283861Y-140375740D01*
X113083902Y-140415514D01*
X112895544Y-140493535D01*
X112726026Y-140606803D01*
X112581863Y-140750966D01*
X112468595Y-140920484D01*
X112390574Y-141108842D01*
X112350800Y-141308801D01*
X111559690Y-141308801D01*
X111572375Y-141245033D01*
X111686056Y-141197945D01*
X111855574Y-141084677D01*
X111999737Y-140940514D01*
X112113005Y-140770996D01*
X112191026Y-140582638D01*
X112230800Y-140382679D01*
X112230800Y-140178801D01*
X112191026Y-139978842D01*
X112113005Y-139790484D01*
X111999737Y-139620966D01*
X111955800Y-139577029D01*
X111955800Y-138014451D01*
X111999737Y-137970514D01*
X112113005Y-137800996D01*
X112191026Y-137612638D01*
X112230800Y-137412679D01*
X112230800Y-137208801D01*
X112191026Y-137008842D01*
X112113005Y-136820484D01*
X111999737Y-136650966D01*
X111855574Y-136506803D01*
X111686056Y-136393535D01*
X111497698Y-136315514D01*
X111297739Y-136275740D01*
X111093861Y-136275740D01*
X110893902Y-136315514D01*
X110705544Y-136393535D01*
X110670542Y-136416923D01*
X110498147Y-136345514D01*
X110298188Y-136305740D01*
X110094310Y-136305740D01*
X109894351Y-136345514D01*
X109705993Y-136423535D01*
X109536475Y-136536803D01*
X109392312Y-136680966D01*
X109279044Y-136850484D01*
X109201023Y-137038842D01*
X109161249Y-137238801D01*
X105990800Y-137238801D01*
X105990800Y-137118801D01*
X105951026Y-136918842D01*
X105873005Y-136730484D01*
X105759737Y-136560966D01*
X105615574Y-136416803D01*
X105446056Y-136303535D01*
X105257698Y-136225514D01*
X105057739Y-136185740D01*
X104853861Y-136185740D01*
X104653902Y-136225514D01*
X104465544Y-136303535D01*
X104296026Y-136416803D01*
X104151863Y-136560966D01*
X104038595Y-136730484D01*
X103960574Y-136918842D01*
X103920800Y-137118801D01*
X81126931Y-137118801D01*
X81111026Y-137038842D01*
X81033005Y-136850484D01*
X80919737Y-136680966D01*
X80894511Y-136655740D01*
X80919737Y-136630514D01*
X81033005Y-136460996D01*
X81111026Y-136272638D01*
X81150800Y-136072679D01*
X81150800Y-135868801D01*
X81111026Y-135668842D01*
X81033005Y-135480484D01*
X80919737Y-135310966D01*
X80875800Y-135267029D01*
X80875800Y-134185838D01*
X82920800Y-134185838D01*
X82920800Y-134655642D01*
X83012454Y-135116419D01*
X83192240Y-135550461D01*
X83453250Y-135941089D01*
X83785451Y-136273290D01*
X84176079Y-136534300D01*
X84610121Y-136714086D01*
X85070898Y-136805740D01*
X85540702Y-136805740D01*
X86001479Y-136714086D01*
X86435521Y-136534300D01*
X86826149Y-136273290D01*
X87158350Y-135941089D01*
X87419360Y-135550461D01*
X87599146Y-135116419D01*
X87690800Y-134655642D01*
X87690800Y-134185838D01*
X132920800Y-134185838D01*
X132920800Y-134655642D01*
X133012454Y-135116419D01*
X133192240Y-135550461D01*
X133453250Y-135941089D01*
X133785451Y-136273290D01*
X134176079Y-136534300D01*
X134610121Y-136714086D01*
X135070898Y-136805740D01*
X135540702Y-136805740D01*
X136001479Y-136714086D01*
X136435521Y-136534300D01*
X136826149Y-136273290D01*
X137158350Y-135941089D01*
X137419360Y-135550461D01*
X137599146Y-135116419D01*
X137690800Y-134655642D01*
X137690800Y-134185838D01*
X137599146Y-133725061D01*
X137419360Y-133291019D01*
X137158350Y-132900391D01*
X136826149Y-132568190D01*
X136435521Y-132307180D01*
X136001479Y-132127394D01*
X135540702Y-132035740D01*
X135070898Y-132035740D01*
X134610121Y-132127394D01*
X134176079Y-132307180D01*
X133785451Y-132568190D01*
X133453250Y-132900391D01*
X133192240Y-133291019D01*
X133012454Y-133725061D01*
X132920800Y-134185838D01*
X87690800Y-134185838D01*
X87599146Y-133725061D01*
X87419360Y-133291019D01*
X87158350Y-132900391D01*
X86826149Y-132568190D01*
X86435521Y-132307180D01*
X86001479Y-132127394D01*
X85540702Y-132035740D01*
X85070898Y-132035740D01*
X84610121Y-132127394D01*
X84176079Y-132307180D01*
X83785451Y-132568190D01*
X83453250Y-132900391D01*
X83192240Y-133291019D01*
X83012454Y-133725061D01*
X82920800Y-134185838D01*
X80875800Y-134185838D01*
X80875800Y-134164441D01*
X80919737Y-134120504D01*
X81033005Y-133950986D01*
X81111026Y-133762628D01*
X81148722Y-133573115D01*
X81306056Y-133507945D01*
X81475574Y-133394677D01*
X81619737Y-133250514D01*
X81733005Y-133080996D01*
X81811026Y-132892638D01*
X81850800Y-132692679D01*
X81850800Y-132488801D01*
X81811026Y-132288842D01*
X81733005Y-132100484D01*
X81619737Y-131930966D01*
X81475574Y-131786803D01*
X81306056Y-131673535D01*
X81117698Y-131595514D01*
X80917739Y-131555740D01*
X80713861Y-131555740D01*
X80513902Y-131595514D01*
X80325544Y-131673535D01*
X80156026Y-131786803D01*
X80112089Y-131830740D01*
X78399511Y-131830740D01*
X78373778Y-131805007D01*
X78490199Y-131756783D01*
X78659717Y-131643515D01*
X78803880Y-131499352D01*
X78917148Y-131329834D01*
X78921342Y-131319707D01*
X89160800Y-131319707D01*
X89160800Y-131641773D01*
X89223632Y-131957652D01*
X89346882Y-132255203D01*
X89525813Y-132522992D01*
X89753548Y-132750727D01*
X90021337Y-132929658D01*
X90318888Y-133052908D01*
X90634767Y-133115740D01*
X90956833Y-133115740D01*
X91272712Y-133052908D01*
X91570263Y-132929658D01*
X91838052Y-132750727D01*
X92065787Y-132522992D01*
X92244718Y-132255203D01*
X92367968Y-131957652D01*
X92430800Y-131641773D01*
X92430800Y-131319707D01*
X92367968Y-131003828D01*
X92244718Y-130706277D01*
X92065787Y-130438488D01*
X91838052Y-130210753D01*
X91570263Y-130031822D01*
X91272712Y-129908572D01*
X90956833Y-129845740D01*
X90634767Y-129845740D01*
X90318888Y-129908572D01*
X90021337Y-130031822D01*
X89753548Y-130210753D01*
X89525813Y-130438488D01*
X89346882Y-130706277D01*
X89223632Y-131003828D01*
X89160800Y-131319707D01*
X78921342Y-131319707D01*
X78995169Y-131141476D01*
X79034943Y-130941517D01*
X79034943Y-130737639D01*
X78995169Y-130537680D01*
X78917148Y-130349322D01*
X78803880Y-130179804D01*
X78659717Y-130035641D01*
X78490199Y-129922373D01*
X78301841Y-129844352D01*
X78101882Y-129804578D01*
X77898004Y-129804578D01*
X77730800Y-129837837D01*
X77730800Y-122868184D01*
X79360811Y-122868184D01*
X79360811Y-123072062D01*
X79400585Y-123272021D01*
X79478606Y-123460379D01*
X79591874Y-123629897D01*
X79635811Y-123673834D01*
X79635812Y-125289812D01*
X79632135Y-125327144D01*
X79635812Y-125364477D01*
X79646809Y-125476130D01*
X79658824Y-125515740D01*
X79690265Y-125619390D01*
X79760837Y-125751420D01*
X79802675Y-125802399D01*
X79855811Y-125867145D01*
X79884809Y-125890943D01*
X82610608Y-128616743D01*
X82634406Y-128645741D01*
X82663404Y-128669539D01*
X82750130Y-128740714D01*
X82815616Y-128775717D01*
X82882160Y-128811286D01*
X83025421Y-128854743D01*
X83056082Y-128857763D01*
X83107996Y-128909677D01*
X83108401Y-128909947D01*
X83100574Y-128928842D01*
X83060800Y-129128801D01*
X83060800Y-129332679D01*
X83100574Y-129532638D01*
X83178595Y-129720996D01*
X83291863Y-129890514D01*
X83436026Y-130034677D01*
X83605544Y-130147945D01*
X83793902Y-130225966D01*
X83993861Y-130265740D01*
X84197739Y-130265740D01*
X84397698Y-130225966D01*
X84586056Y-130147945D01*
X84755574Y-130034677D01*
X84899737Y-129890514D01*
X85013005Y-129720996D01*
X85091026Y-129532638D01*
X85130800Y-129332679D01*
X85130800Y-129270541D01*
X86046803Y-128354539D01*
X86075801Y-128330741D01*
X86170774Y-128215016D01*
X86241346Y-128082987D01*
X86284803Y-127939726D01*
X86295800Y-127828073D01*
X86299477Y-127790740D01*
X86295800Y-127753407D01*
X86295800Y-125442193D01*
X86473902Y-125515966D01*
X86673861Y-125555740D01*
X86877739Y-125555740D01*
X87077698Y-125515966D01*
X87266056Y-125437945D01*
X87435574Y-125324677D01*
X87579737Y-125180514D01*
X87693005Y-125010996D01*
X87771026Y-124822638D01*
X87810800Y-124622679D01*
X87810800Y-124560542D01*
X87860602Y-124510740D01*
X88612089Y-124510740D01*
X88656026Y-124554677D01*
X88825544Y-124667945D01*
X89013902Y-124745966D01*
X89213861Y-124785740D01*
X89417739Y-124785740D01*
X89617698Y-124745966D01*
X89806056Y-124667945D01*
X89975574Y-124554677D01*
X90119737Y-124410514D01*
X90233005Y-124240996D01*
X90311026Y-124052638D01*
X90350800Y-123852679D01*
X90350800Y-123648801D01*
X90314733Y-123467476D01*
X91091942Y-124244687D01*
X91078141Y-124265342D01*
X90992937Y-124471044D01*
X90949500Y-124689415D01*
X90949500Y-124912065D01*
X90992937Y-125130436D01*
X91078141Y-125336138D01*
X91201839Y-125521264D01*
X91359276Y-125678701D01*
X91544402Y-125802399D01*
X91750104Y-125887603D01*
X91968475Y-125931040D01*
X92191125Y-125931040D01*
X92409496Y-125887603D01*
X92615198Y-125802399D01*
X92800324Y-125678701D01*
X92957761Y-125521264D01*
X93081459Y-125336138D01*
X93095800Y-125301516D01*
X93110141Y-125336138D01*
X93233839Y-125521264D01*
X93391276Y-125678701D01*
X93576402Y-125802399D01*
X93782104Y-125887603D01*
X94000475Y-125931040D01*
X94223125Y-125931040D01*
X94441496Y-125887603D01*
X94647198Y-125802399D01*
X94832324Y-125678701D01*
X94989761Y-125521264D01*
X95113459Y-125336138D01*
X95198663Y-125130436D01*
X95242100Y-124912065D01*
X95242100Y-124700740D01*
X95647089Y-124700740D01*
X95521863Y-124825966D01*
X95408595Y-124995484D01*
X95330574Y-125183842D01*
X95290800Y-125383801D01*
X95290800Y-125587679D01*
X95330574Y-125787638D01*
X95408595Y-125975996D01*
X95521863Y-126145514D01*
X95565800Y-126189451D01*
X95565801Y-126963408D01*
X95562124Y-127000740D01*
X95565801Y-127038073D01*
X95569817Y-127078842D01*
X95576798Y-127149725D01*
X95620254Y-127292986D01*
X95690800Y-127424967D01*
X95690800Y-127502679D01*
X95699010Y-127543955D01*
X95418556Y-127427787D01*
X95006079Y-127345740D01*
X94585521Y-127345740D01*
X94173044Y-127427787D01*
X93784498Y-127588728D01*
X93434817Y-127822377D01*
X93137437Y-128119757D01*
X92903788Y-128469438D01*
X92742847Y-128857984D01*
X92660800Y-129270461D01*
X92660800Y-129691019D01*
X92742847Y-130103496D01*
X92903788Y-130492042D01*
X93137437Y-130841723D01*
X93434817Y-131139103D01*
X93784498Y-131372752D01*
X94173044Y-131533693D01*
X94585521Y-131615740D01*
X95006079Y-131615740D01*
X95418556Y-131533693D01*
X95807102Y-131372752D01*
X95886489Y-131319707D01*
X97160800Y-131319707D01*
X97160800Y-131641773D01*
X97223632Y-131957652D01*
X97346882Y-132255203D01*
X97525813Y-132522992D01*
X97753548Y-132750727D01*
X98021337Y-132929658D01*
X98318888Y-133052908D01*
X98634767Y-133115740D01*
X98956833Y-133115740D01*
X99272712Y-133052908D01*
X99570263Y-132929658D01*
X99838052Y-132750727D01*
X100065787Y-132522992D01*
X100244718Y-132255203D01*
X100367968Y-131957652D01*
X100430800Y-131641773D01*
X100430800Y-131319707D01*
X120160800Y-131319707D01*
X120160800Y-131641773D01*
X120223632Y-131957652D01*
X120346882Y-132255203D01*
X120525813Y-132522992D01*
X120753548Y-132750727D01*
X121021337Y-132929658D01*
X121318888Y-133052908D01*
X121634767Y-133115740D01*
X121956833Y-133115740D01*
X122272712Y-133052908D01*
X122570263Y-132929658D01*
X122838052Y-132750727D01*
X123065787Y-132522992D01*
X123244718Y-132255203D01*
X123367968Y-131957652D01*
X123430800Y-131641773D01*
X123430800Y-131319707D01*
X123367968Y-131003828D01*
X123244718Y-130706277D01*
X123065787Y-130438488D01*
X122838052Y-130210753D01*
X122570263Y-130031822D01*
X122272712Y-129908572D01*
X121956833Y-129845740D01*
X121634767Y-129845740D01*
X121318888Y-129908572D01*
X121021337Y-130031822D01*
X120753548Y-130210753D01*
X120525813Y-130438488D01*
X120346882Y-130706277D01*
X120223632Y-131003828D01*
X120160800Y-131319707D01*
X100430800Y-131319707D01*
X100367968Y-131003828D01*
X100244718Y-130706277D01*
X100065787Y-130438488D01*
X99838052Y-130210753D01*
X99570263Y-130031822D01*
X99272712Y-129908572D01*
X98956833Y-129845740D01*
X98634767Y-129845740D01*
X98318888Y-129908572D01*
X98021337Y-130031822D01*
X97753548Y-130210753D01*
X97525813Y-130438488D01*
X97346882Y-130706277D01*
X97223632Y-131003828D01*
X97160800Y-131319707D01*
X95886489Y-131319707D01*
X96156783Y-131139103D01*
X96454163Y-130841723D01*
X96687812Y-130492042D01*
X96848753Y-130103496D01*
X96930800Y-129691019D01*
X96930800Y-129270461D01*
X123660800Y-129270461D01*
X123660800Y-129691019D01*
X123742847Y-130103496D01*
X123903788Y-130492042D01*
X124137437Y-130841723D01*
X124434817Y-131139103D01*
X124784498Y-131372752D01*
X125173044Y-131533693D01*
X125585521Y-131615740D01*
X126006079Y-131615740D01*
X126418556Y-131533693D01*
X126807102Y-131372752D01*
X126886489Y-131319707D01*
X128160800Y-131319707D01*
X128160800Y-131641773D01*
X128223632Y-131957652D01*
X128346882Y-132255203D01*
X128525813Y-132522992D01*
X128753548Y-132750727D01*
X129021337Y-132929658D01*
X129318888Y-133052908D01*
X129634767Y-133115740D01*
X129956833Y-133115740D01*
X130272712Y-133052908D01*
X130570263Y-132929658D01*
X130838052Y-132750727D01*
X131065787Y-132522992D01*
X131244718Y-132255203D01*
X131367968Y-131957652D01*
X131430800Y-131641773D01*
X131430800Y-131319707D01*
X131367968Y-131003828D01*
X131244718Y-130706277D01*
X131065787Y-130438488D01*
X130838052Y-130210753D01*
X130570263Y-130031822D01*
X130272712Y-129908572D01*
X129956833Y-129845740D01*
X129634767Y-129845740D01*
X129318888Y-129908572D01*
X129021337Y-130031822D01*
X128753548Y-130210753D01*
X128525813Y-130438488D01*
X128346882Y-130706277D01*
X128223632Y-131003828D01*
X128160800Y-131319707D01*
X126886489Y-131319707D01*
X127156783Y-131139103D01*
X127454163Y-130841723D01*
X127687812Y-130492042D01*
X127848753Y-130103496D01*
X127930800Y-129691019D01*
X127930800Y-129270461D01*
X127848753Y-128857984D01*
X127687812Y-128469438D01*
X127454163Y-128119757D01*
X127156783Y-127822377D01*
X126807102Y-127588728D01*
X126418556Y-127427787D01*
X126006079Y-127345740D01*
X125585521Y-127345740D01*
X125173044Y-127427787D01*
X124784498Y-127588728D01*
X124434817Y-127822377D01*
X124137437Y-128119757D01*
X123903788Y-128469438D01*
X123742847Y-128857984D01*
X123660800Y-129270461D01*
X96930800Y-129270461D01*
X96848753Y-128857984D01*
X96687812Y-128469438D01*
X96665296Y-128435740D01*
X96827739Y-128435740D01*
X97027698Y-128395966D01*
X97216056Y-128317945D01*
X97385574Y-128204677D01*
X97529737Y-128060514D01*
X97643005Y-127890996D01*
X97721026Y-127702638D01*
X97760800Y-127502679D01*
X97760800Y-127298801D01*
X97721026Y-127098842D01*
X97643005Y-126910484D01*
X97529737Y-126740966D01*
X97385574Y-126596803D01*
X97216056Y-126483535D01*
X97085800Y-126429581D01*
X97085800Y-126189451D01*
X97129737Y-126145514D01*
X97243005Y-125975996D01*
X97321026Y-125787638D01*
X97360800Y-125587679D01*
X97360800Y-125383801D01*
X97321026Y-125183842D01*
X97243005Y-124995484D01*
X97229569Y-124975376D01*
X97427698Y-124935966D01*
X97616056Y-124857945D01*
X97785574Y-124744677D01*
X97929737Y-124600514D01*
X98043005Y-124430996D01*
X98121026Y-124242638D01*
X98160800Y-124042679D01*
X98160800Y-123838801D01*
X98121026Y-123638842D01*
X98043005Y-123450484D01*
X97929737Y-123280966D01*
X97785574Y-123136803D01*
X97616056Y-123023535D01*
X97427698Y-122945514D01*
X97227739Y-122905740D01*
X97023861Y-122905740D01*
X96823902Y-122945514D01*
X96635544Y-123023535D01*
X96466026Y-123136803D01*
X96422089Y-123180740D01*
X92177601Y-123180740D01*
X91918556Y-122921695D01*
X91989737Y-122850514D01*
X92103005Y-122680996D01*
X92181026Y-122492638D01*
X92220800Y-122292679D01*
X92220800Y-122088801D01*
X92181026Y-121888842D01*
X92158821Y-121835235D01*
X92158821Y-121178801D01*
X108770800Y-121178801D01*
X108770800Y-121382679D01*
X108810574Y-121582638D01*
X108888595Y-121770996D01*
X109001863Y-121940514D01*
X109056813Y-121995464D01*
X109100254Y-122138672D01*
X109124837Y-122184661D01*
X109155800Y-122242590D01*
X109155801Y-125897028D01*
X109111863Y-125940966D01*
X108998595Y-126110484D01*
X108920574Y-126298842D01*
X108880800Y-126498801D01*
X108880800Y-126702679D01*
X108920574Y-126902638D01*
X108998595Y-127090996D01*
X109111863Y-127260514D01*
X109256026Y-127404677D01*
X109425544Y-127517945D01*
X109613902Y-127595966D01*
X109813861Y-127635740D01*
X110017739Y-127635740D01*
X110217698Y-127595966D01*
X110406056Y-127517945D01*
X110575574Y-127404677D01*
X110719737Y-127260514D01*
X110833005Y-127090996D01*
X110911026Y-126902638D01*
X110950800Y-126702679D01*
X110950800Y-126498801D01*
X110911026Y-126298842D01*
X110833005Y-126110484D01*
X110719737Y-125940966D01*
X110675800Y-125897029D01*
X110675800Y-121993747D01*
X110679476Y-121956424D01*
X110675800Y-121919102D01*
X110675800Y-121919092D01*
X110669152Y-121851593D01*
X110723005Y-121770996D01*
X110770745Y-121655740D01*
X112092728Y-121655740D01*
X112092728Y-123405740D01*
X112104988Y-123530222D01*
X112141298Y-123649920D01*
X112200263Y-123760234D01*
X112279615Y-123856925D01*
X112376306Y-123936277D01*
X112486620Y-123995242D01*
X112606318Y-124031552D01*
X112730800Y-124043812D01*
X114480800Y-124043812D01*
X114605282Y-124031552D01*
X114724980Y-123995242D01*
X114835294Y-123936277D01*
X114931985Y-123856925D01*
X115011337Y-123760234D01*
X115070302Y-123649920D01*
X115106612Y-123530222D01*
X115118872Y-123405740D01*
X115118872Y-121695740D01*
X120602728Y-121695740D01*
X120602728Y-123445740D01*
X120614988Y-123570222D01*
X120651298Y-123689920D01*
X120710263Y-123800234D01*
X120789615Y-123896925D01*
X120886306Y-123976277D01*
X120996620Y-124035242D01*
X121116318Y-124071552D01*
X121240800Y-124083812D01*
X122990800Y-124083812D01*
X123115282Y-124071552D01*
X123234980Y-124035242D01*
X123345294Y-123976277D01*
X123441985Y-123896925D01*
X123521337Y-123800234D01*
X123580302Y-123689920D01*
X123616612Y-123570222D01*
X123628872Y-123445740D01*
X123628872Y-121695740D01*
X123616612Y-121571258D01*
X123580302Y-121451560D01*
X123521337Y-121341246D01*
X123441985Y-121244555D01*
X123345294Y-121165203D01*
X123234980Y-121106238D01*
X123220236Y-121101766D01*
X123288693Y-121033309D01*
X123453944Y-120785993D01*
X123567771Y-120511191D01*
X123625800Y-120219462D01*
X123625800Y-119922018D01*
X123567771Y-119630289D01*
X123453944Y-119355487D01*
X123288693Y-119108171D01*
X123078369Y-118897847D01*
X122831053Y-118732596D01*
X122556251Y-118618769D01*
X122264522Y-118560740D01*
X121967078Y-118560740D01*
X121675349Y-118618769D01*
X121400547Y-118732596D01*
X121153231Y-118897847D01*
X120942907Y-119108171D01*
X120777656Y-119355487D01*
X120663829Y-119630289D01*
X120605800Y-119922018D01*
X120605800Y-120219462D01*
X120663829Y-120511191D01*
X120777656Y-120785993D01*
X120942907Y-121033309D01*
X121011364Y-121101766D01*
X120996620Y-121106238D01*
X120886306Y-121165203D01*
X120789615Y-121244555D01*
X120710263Y-121341246D01*
X120651298Y-121451560D01*
X120614988Y-121571258D01*
X120602728Y-121695740D01*
X115118872Y-121695740D01*
X115118872Y-121655740D01*
X115106612Y-121531258D01*
X115070302Y-121411560D01*
X115011337Y-121301246D01*
X114931985Y-121204555D01*
X114835294Y-121125203D01*
X114724980Y-121066238D01*
X114710236Y-121061766D01*
X114778693Y-120993309D01*
X114943944Y-120745993D01*
X115057771Y-120471191D01*
X115115800Y-120179462D01*
X115115800Y-119882018D01*
X115057771Y-119590289D01*
X114943944Y-119315487D01*
X114778693Y-119068171D01*
X114568369Y-118857847D01*
X114321053Y-118692596D01*
X114046251Y-118578769D01*
X113754522Y-118520740D01*
X113457078Y-118520740D01*
X113165349Y-118578769D01*
X112890547Y-118692596D01*
X112643231Y-118857847D01*
X112432907Y-119068171D01*
X112267656Y-119315487D01*
X112153829Y-119590289D01*
X112095800Y-119882018D01*
X112095800Y-120179462D01*
X112153829Y-120471191D01*
X112267656Y-120745993D01*
X112432907Y-120993309D01*
X112501364Y-121061766D01*
X112486620Y-121066238D01*
X112376306Y-121125203D01*
X112279615Y-121204555D01*
X112200263Y-121301246D01*
X112141298Y-121411560D01*
X112104988Y-121531258D01*
X112092728Y-121655740D01*
X110770745Y-121655740D01*
X110801026Y-121582638D01*
X110840800Y-121382679D01*
X110840800Y-121178801D01*
X110801026Y-120978842D01*
X110723005Y-120790484D01*
X110609737Y-120620966D01*
X110465574Y-120476803D01*
X110296056Y-120363535D01*
X110107698Y-120285514D01*
X109907739Y-120245740D01*
X109703861Y-120245740D01*
X109503902Y-120285514D01*
X109315544Y-120363535D01*
X109146026Y-120476803D01*
X109001863Y-120620966D01*
X108888595Y-120790484D01*
X108810574Y-120978842D01*
X108770800Y-121178801D01*
X92158821Y-121178801D01*
X92158821Y-120352938D01*
X92217839Y-120441264D01*
X92375276Y-120598701D01*
X92560402Y-120722399D01*
X92766104Y-120807603D01*
X92984475Y-120851040D01*
X93207125Y-120851040D01*
X93425496Y-120807603D01*
X93631198Y-120722399D01*
X93816324Y-120598701D01*
X93973761Y-120441264D01*
X94097459Y-120256138D01*
X94182663Y-120050436D01*
X94226100Y-119832065D01*
X94226100Y-119609415D01*
X94182663Y-119391044D01*
X94097459Y-119185342D01*
X93973761Y-119000216D01*
X93816324Y-118842779D01*
X93631198Y-118719081D01*
X93425496Y-118633877D01*
X93207125Y-118590440D01*
X92984475Y-118590440D01*
X92766104Y-118633877D01*
X92560402Y-118719081D01*
X92375276Y-118842779D01*
X92217839Y-119000216D01*
X92158821Y-119088542D01*
X92158821Y-118687472D01*
X92202758Y-118643535D01*
X92316026Y-118474017D01*
X92394047Y-118285659D01*
X92433821Y-118085700D01*
X92433821Y-117881822D01*
X92394047Y-117681863D01*
X92316026Y-117493505D01*
X92202758Y-117323987D01*
X92158821Y-117280050D01*
X92158821Y-115301430D01*
X92199737Y-115260514D01*
X92313005Y-115090996D01*
X92391026Y-114902638D01*
X92430800Y-114702679D01*
X92430800Y-114593801D01*
X94280800Y-114593801D01*
X94280800Y-114797679D01*
X94320574Y-114997638D01*
X94398595Y-115185996D01*
X94511863Y-115355514D01*
X94555800Y-115399451D01*
X94555801Y-116937028D01*
X94511863Y-116980966D01*
X94398595Y-117150484D01*
X94320574Y-117338842D01*
X94280800Y-117538801D01*
X94280800Y-117742679D01*
X94320574Y-117942638D01*
X94398595Y-118130996D01*
X94511863Y-118300514D01*
X94656026Y-118444677D01*
X94825544Y-118557945D01*
X95013902Y-118635966D01*
X95213861Y-118675740D01*
X95417739Y-118675740D01*
X95617698Y-118635966D01*
X95806056Y-118557945D01*
X95975574Y-118444677D01*
X96119737Y-118300514D01*
X96233005Y-118130996D01*
X96311026Y-117942638D01*
X96350800Y-117742679D01*
X96350800Y-117538801D01*
X96339046Y-117479707D01*
X98950800Y-117479707D01*
X98950800Y-117801773D01*
X99013632Y-118117652D01*
X99136882Y-118415203D01*
X99315813Y-118682992D01*
X99543548Y-118910727D01*
X99811337Y-119089658D01*
X100108888Y-119212908D01*
X100424767Y-119275740D01*
X100746833Y-119275740D01*
X101062712Y-119212908D01*
X101360263Y-119089658D01*
X101628052Y-118910727D01*
X101855787Y-118682992D01*
X102034718Y-118415203D01*
X102157968Y-118117652D01*
X102220800Y-117801773D01*
X102220800Y-117479707D01*
X102157968Y-117163828D01*
X102034718Y-116866277D01*
X101855787Y-116598488D01*
X101628052Y-116370753D01*
X101360263Y-116191822D01*
X101062712Y-116068572D01*
X100746833Y-116005740D01*
X100424767Y-116005740D01*
X100108888Y-116068572D01*
X99811337Y-116191822D01*
X99543548Y-116370753D01*
X99315813Y-116598488D01*
X99136882Y-116866277D01*
X99013632Y-117163828D01*
X98950800Y-117479707D01*
X96339046Y-117479707D01*
X96311026Y-117338842D01*
X96233005Y-117150484D01*
X96119737Y-116980966D01*
X96075800Y-116937029D01*
X96075800Y-115399451D01*
X96119737Y-115355514D01*
X96233005Y-115185996D01*
X96311026Y-114997638D01*
X96350800Y-114797679D01*
X96350800Y-114593801D01*
X96311026Y-114393842D01*
X96233005Y-114205484D01*
X96119737Y-114035966D01*
X95975574Y-113891803D01*
X95806056Y-113778535D01*
X95617698Y-113700514D01*
X95417739Y-113660740D01*
X95213861Y-113660740D01*
X95013902Y-113700514D01*
X94825544Y-113778535D01*
X94656026Y-113891803D01*
X94511863Y-114035966D01*
X94398595Y-114205484D01*
X94320574Y-114393842D01*
X94280800Y-114593801D01*
X92430800Y-114593801D01*
X92430800Y-114498801D01*
X92391026Y-114298842D01*
X92313005Y-114110484D01*
X92199737Y-113940966D01*
X92055574Y-113796803D01*
X91886056Y-113683535D01*
X91697698Y-113605514D01*
X91497739Y-113565740D01*
X91293861Y-113565740D01*
X91093902Y-113605514D01*
X90905544Y-113683535D01*
X90736026Y-113796803D01*
X90591863Y-113940966D01*
X90478595Y-114110484D01*
X90440226Y-114203115D01*
X90327739Y-114180740D01*
X90123861Y-114180740D01*
X89923902Y-114220514D01*
X89735544Y-114298535D01*
X89566026Y-114411803D01*
X89421863Y-114555966D01*
X89310800Y-114722184D01*
X89199737Y-114555966D01*
X89055574Y-114411803D01*
X88886056Y-114298535D01*
X88697698Y-114220514D01*
X88497739Y-114180740D01*
X88293861Y-114180740D01*
X88093902Y-114220514D01*
X87905544Y-114298535D01*
X87890800Y-114308387D01*
X87876056Y-114298535D01*
X87687698Y-114220514D01*
X87487739Y-114180740D01*
X87283861Y-114180740D01*
X87083902Y-114220514D01*
X86895544Y-114298535D01*
X86726026Y-114411803D01*
X86581863Y-114555966D01*
X86468595Y-114725484D01*
X86390574Y-114913842D01*
X86350800Y-115113801D01*
X86350800Y-115317679D01*
X86390574Y-115517638D01*
X86468595Y-115705996D01*
X86581863Y-115875514D01*
X86625800Y-115919451D01*
X86625801Y-116691410D01*
X86622124Y-116728742D01*
X86636798Y-116877727D01*
X86680254Y-117020988D01*
X86750826Y-117153018D01*
X86817909Y-117234758D01*
X86845800Y-117268743D01*
X86874798Y-117292541D01*
X88232996Y-118650740D01*
X88153861Y-118650740D01*
X87953902Y-118690514D01*
X87765544Y-118768535D01*
X87596026Y-118881803D01*
X87451863Y-119025966D01*
X87338595Y-119195484D01*
X87260574Y-119383842D01*
X87220800Y-119583801D01*
X87220800Y-119787679D01*
X87260574Y-119987638D01*
X87338595Y-120175996D01*
X87451863Y-120345514D01*
X87495800Y-120389451D01*
X87495801Y-120462334D01*
X87452016Y-120506119D01*
X87338748Y-120675637D01*
X87260727Y-120863995D01*
X87220953Y-121063954D01*
X87220953Y-121267832D01*
X87260727Y-121467791D01*
X87338748Y-121656149D01*
X87452016Y-121825667D01*
X87596179Y-121969830D01*
X87765697Y-122083098D01*
X87837246Y-122112735D01*
X87830574Y-122128842D01*
X87790800Y-122328801D01*
X87790800Y-122532679D01*
X87830574Y-122732638D01*
X87908595Y-122920996D01*
X87955196Y-122990740D01*
X87583122Y-122990740D01*
X87545799Y-122987064D01*
X87508476Y-122990740D01*
X87508467Y-122990740D01*
X87396814Y-123001737D01*
X87253553Y-123045194D01*
X87121524Y-123115766D01*
X87121522Y-123115767D01*
X87121523Y-123115767D01*
X87034796Y-123186941D01*
X87034792Y-123186945D01*
X87005799Y-123210739D01*
X86982005Y-123239732D01*
X86735998Y-123485740D01*
X86673861Y-123485740D01*
X86473902Y-123525514D01*
X86390021Y-123560259D01*
X86453005Y-123465996D01*
X86531026Y-123277638D01*
X86570800Y-123077679D01*
X86570800Y-122873801D01*
X86531026Y-122673842D01*
X86453005Y-122485484D01*
X86339737Y-122315966D01*
X86195574Y-122171803D01*
X86026056Y-122058535D01*
X85837698Y-121980514D01*
X85637739Y-121940740D01*
X85433861Y-121940740D01*
X85233902Y-121980514D01*
X85045544Y-122058535D01*
X84876026Y-122171803D01*
X84731863Y-122315966D01*
X84618595Y-122485484D01*
X84540574Y-122673842D01*
X84500800Y-122873801D01*
X84500800Y-123077679D01*
X84540574Y-123277638D01*
X84618595Y-123465996D01*
X84671412Y-123545043D01*
X84527698Y-123485514D01*
X84327739Y-123445740D01*
X84155800Y-123445740D01*
X84155800Y-122964451D01*
X84209737Y-122910514D01*
X84323005Y-122740996D01*
X84401026Y-122552638D01*
X84440800Y-122352679D01*
X84440800Y-122148801D01*
X84401026Y-121948842D01*
X84323005Y-121760484D01*
X84209737Y-121590966D01*
X84065574Y-121446803D01*
X83896056Y-121333535D01*
X83707698Y-121255514D01*
X83507739Y-121215740D01*
X83303861Y-121215740D01*
X83103902Y-121255514D01*
X82915544Y-121333535D01*
X82746026Y-121446803D01*
X82601863Y-121590966D01*
X82488595Y-121760484D01*
X82413930Y-121940740D01*
X82293861Y-121940740D01*
X82093902Y-121980514D01*
X81905544Y-122058535D01*
X81895799Y-122065047D01*
X81886053Y-122058535D01*
X81697695Y-121980514D01*
X81497736Y-121940740D01*
X81293858Y-121940740D01*
X81093899Y-121980514D01*
X80905541Y-122058535D01*
X80900007Y-122062233D01*
X80886067Y-122052918D01*
X80697709Y-121974897D01*
X80497750Y-121935123D01*
X80293872Y-121935123D01*
X80093913Y-121974897D01*
X79905555Y-122052918D01*
X79736037Y-122166186D01*
X79591874Y-122310349D01*
X79478606Y-122479867D01*
X79400585Y-122668225D01*
X79360811Y-122868184D01*
X77730800Y-122868184D01*
X77730800Y-121931793D01*
X77774737Y-121887856D01*
X77888005Y-121718338D01*
X77966026Y-121529980D01*
X78005800Y-121330021D01*
X78005800Y-121126143D01*
X77966026Y-120926184D01*
X77888005Y-120737826D01*
X77774737Y-120568308D01*
X77630574Y-120424145D01*
X77461056Y-120310877D01*
X77272698Y-120232856D01*
X77241586Y-120226667D01*
X77241026Y-120223852D01*
X77163005Y-120035494D01*
X77049737Y-119865976D01*
X76905574Y-119721813D01*
X76736056Y-119608545D01*
X76547698Y-119530524D01*
X76347739Y-119490750D01*
X76143861Y-119490750D01*
X75943902Y-119530524D01*
X75755544Y-119608545D01*
X75685800Y-119655146D01*
X75685800Y-119094451D01*
X75729737Y-119050514D01*
X75843005Y-118880996D01*
X75921026Y-118692638D01*
X75960800Y-118492679D01*
X75960800Y-118288801D01*
X75921026Y-118088842D01*
X75843005Y-117900484D01*
X75729737Y-117730966D01*
X75585574Y-117586803D01*
X75416056Y-117473535D01*
X75227698Y-117395514D01*
X75027739Y-117355740D01*
X74823861Y-117355740D01*
X74623902Y-117395514D01*
X74435544Y-117473535D01*
X74266026Y-117586803D01*
X74121863Y-117730966D01*
X74008595Y-117900484D01*
X73930574Y-118088842D01*
X73890800Y-118288801D01*
X73890800Y-118492679D01*
X73930574Y-118692638D01*
X74008595Y-118880996D01*
X74121863Y-119050514D01*
X74165800Y-119094451D01*
X74165801Y-119561158D01*
X73987739Y-119525740D01*
X73783861Y-119525740D01*
X73583902Y-119565514D01*
X73395544Y-119643535D01*
X73226026Y-119756803D01*
X73081863Y-119900966D01*
X73045308Y-119955674D01*
X72880999Y-119955674D01*
X72681040Y-119995448D01*
X72492682Y-120073469D01*
X72323164Y-120186737D01*
X72179001Y-120330900D01*
X72065733Y-120500418D01*
X71987712Y-120688776D01*
X71947938Y-120888735D01*
X71947938Y-121092613D01*
X71987712Y-121292572D01*
X72065733Y-121480930D01*
X72179001Y-121650448D01*
X72222938Y-121694385D01*
X72222938Y-123805699D01*
X72209181Y-123736536D01*
X71947078Y-123103763D01*
X71566562Y-122534282D01*
X71082258Y-122049978D01*
X70512777Y-121669462D01*
X69880004Y-121407359D01*
X69208255Y-121273740D01*
X68523345Y-121273740D01*
X67851596Y-121407359D01*
X67229027Y-121665235D01*
X67864388Y-120664067D01*
X69322579Y-118657040D01*
X70903914Y-116745534D01*
X72602153Y-114937093D01*
X74410594Y-113238854D01*
X76322100Y-111657519D01*
X78329127Y-110199328D01*
X80423754Y-108870037D01*
X82597715Y-107674892D01*
X84842430Y-106618610D01*
X87149040Y-105705358D01*
X89508441Y-104938742D01*
X91911323Y-104321787D01*
X94348203Y-103856927D01*
X96809463Y-103545998D01*
X96995189Y-103534313D01*
X96979810Y-103557329D01*
M02*
