M48
METRIC,TZ
T1C0.400
T2C0.850
T3C1.000
T4C1.050
%
G90
G05
T1
X62046Y-140461
X64196Y-129771
X64986Y-132611
X65096Y-155561
X67741Y-132571
X68856Y-133941
X69536Y-145271
X69776Y-119521
X70676Y-142611
X71246Y-148371
X72006Y-129411
X72040Y-128351
X72106Y-131351
X72566Y-148151
X72983Y-120991
X73886Y-120561
X74926Y-118391
X74926Y-120561
X76156Y-148261
X76246Y-120526
X76386Y-118311
X76696Y-112381
X76916Y-170301
X76971Y-121228
X76976Y-130841
X76976Y-136721
X77196Y-139041
X77202Y-141601
X77676Y-132571
X78000Y-130840
X78186Y-138191
X78199Y-141682
X78996Y-137341
X79006Y-133461
X79006Y-135901
X79180Y-141873
X80116Y-133461
X80116Y-135971
X80116Y-137341
X80256Y-141671
X80326Y-120431
X80396Y-122970
X80736Y-146801
X80816Y-132591
X80936Y-130341
X81396Y-122976
X82396Y-122976
X82398Y-125620
X83396Y-125691
X83406Y-122251
X83416Y-113261
X83768Y-128106
X84096Y-129231
X84106Y-155831
X84226Y-124481
X84231Y-126416
X84236Y-175391
X84586Y-127381
X85536Y-122976
X86776Y-124521
X87386Y-115216
X88256Y-119686
X88256Y-121166
X88376Y-116666
X88396Y-115216
X88466Y-109441
X88826Y-122431
X89316Y-123751
X89406Y-135341
X89406Y-167821
X90106Y-118251
X90216Y-117116
X90226Y-115216
X90466Y-124631
X90986Y-145451
X91076Y-164231
X91186Y-122191
X91396Y-114601
X91399Y-117984
X91546Y-159541
X92056Y-178661
X94936Y-104061
X95316Y-114696
X95316Y-117641
X95976Y-140891
X96196Y-135351
X96326Y-125486
X96366Y-178351
X96726Y-127401
X97126Y-123941
X98376Y-110241
X98406Y-115441
X98516Y-123101
X99706Y-173831
X99766Y-171631
X99805Y-168410
X99896Y-166381
X100196Y-178451
X101946Y-159611
X101946Y-166381
X101986Y-130351
X102126Y-168361
X102286Y-173831
X102466Y-171601
X103046Y-147391
X104956Y-137221
X104956Y-140071
X104956Y-148451
X104956Y-151051
X105086Y-123371
X106126Y-128101
X106256Y-104921
X107266Y-147371
X107396Y-141291
X107526Y-111381
X108886Y-179791
X109806Y-121281
X109916Y-126601
X110196Y-137341
X110546Y-141101
X110716Y-169181
X111196Y-137311
X111196Y-140281
X111416Y-144141
X111466Y-175111
X113386Y-141411
X114486Y-154481
X115096Y-147501
X115196Y-137261
X115266Y-140391
X115506Y-142491
X115746Y-129541
X115836Y-178171
X115866Y-151091
X116106Y-114491
X116806Y-140771
X116906Y-144391
X117046Y-109371
X122936Y-161811
X123206Y-135111
X124846Y-165561
X125946Y-171061
X127566Y-116561
X129856Y-137091
X130376Y-141771
X130526Y-147291
X135466Y-129451
X136056Y-155611
X138436Y-142661
T2
X90796Y-131481
X90796Y-154481
X98796Y-131481
X98796Y-154481
X121796Y-131481
X121796Y-154481
X129796Y-131481
X129796Y-154481
T3
X97516Y-166381
X97516Y-168881
X97516Y-171381
X97516Y-173881
X98296Y-104261
X100836Y-104261
X103376Y-104261
X112436Y-162521
X98136Y-181491
X100676Y-181491
X103216Y-181491
X117976Y-162491
X104746Y-166381
X104746Y-168881
X104746Y-171381
X104746Y-173881
X100586Y-117641
T4
X113606Y-120031
X113606Y-122531
X122116Y-120071
X122116Y-122571
T0
M30
