G04 #@! TF.GenerationSoftware,KiCad,Pcbnew,(5.1.5)-3*
G04 #@! TF.CreationDate,2020-06-04T15:01:54+02:00*
G04 #@! TF.ProjectId,StepperClockK02,53746570-7065-4724-936c-6f636b4b3032,v1.0*
G04 #@! TF.SameCoordinates,Original*
G04 #@! TF.FileFunction,Soldermask,Top*
G04 #@! TF.FilePolarity,Negative*
%FSLAX46Y46*%
G04 Gerber Fmt 4.6, Leading zero omitted, Abs format (unit mm)*
G04 Created by KiCad (PCBNEW (5.1.5)-3) date 2020-06-04 15:01:54*
%MOMM*%
%LPD*%
G04 APERTURE LIST*
%ADD10C,0.100000*%
G04 APERTURE END LIST*
D10*
G36*
X99036800Y-182391740D02*
G01*
X97234800Y-182391740D01*
X97234800Y-180589740D01*
X99036800Y-180589740D01*
X99036800Y-182391740D01*
G37*
G36*
X103329312Y-180594667D02*
G01*
X103478612Y-180624364D01*
X103642584Y-180692284D01*
X103790154Y-180790887D01*
X103915653Y-180916386D01*
X104014256Y-181063956D01*
X104082176Y-181227928D01*
X104116800Y-181401999D01*
X104116800Y-181579481D01*
X104082176Y-181753552D01*
X104014256Y-181917524D01*
X103915653Y-182065094D01*
X103790154Y-182190593D01*
X103642584Y-182289196D01*
X103478612Y-182357116D01*
X103329312Y-182386813D01*
X103304542Y-182391740D01*
X103127058Y-182391740D01*
X103102288Y-182386813D01*
X102952988Y-182357116D01*
X102789016Y-182289196D01*
X102641446Y-182190593D01*
X102515947Y-182065094D01*
X102417344Y-181917524D01*
X102349424Y-181753552D01*
X102314800Y-181579481D01*
X102314800Y-181401999D01*
X102349424Y-181227928D01*
X102417344Y-181063956D01*
X102515947Y-180916386D01*
X102641446Y-180790887D01*
X102789016Y-180692284D01*
X102952988Y-180624364D01*
X103102288Y-180594667D01*
X103127058Y-180589740D01*
X103304542Y-180589740D01*
X103329312Y-180594667D01*
G37*
G36*
X100789312Y-180594667D02*
G01*
X100938612Y-180624364D01*
X101102584Y-180692284D01*
X101250154Y-180790887D01*
X101375653Y-180916386D01*
X101474256Y-181063956D01*
X101542176Y-181227928D01*
X101576800Y-181401999D01*
X101576800Y-181579481D01*
X101542176Y-181753552D01*
X101474256Y-181917524D01*
X101375653Y-182065094D01*
X101250154Y-182190593D01*
X101102584Y-182289196D01*
X100938612Y-182357116D01*
X100789312Y-182386813D01*
X100764542Y-182391740D01*
X100587058Y-182391740D01*
X100562288Y-182386813D01*
X100412988Y-182357116D01*
X100249016Y-182289196D01*
X100101446Y-182190593D01*
X99975947Y-182065094D01*
X99877344Y-181917524D01*
X99809424Y-181753552D01*
X99774800Y-181579481D01*
X99774800Y-181401999D01*
X99809424Y-181227928D01*
X99877344Y-181063956D01*
X99975947Y-180916386D01*
X100101446Y-180790887D01*
X100249016Y-180692284D01*
X100412988Y-180624364D01*
X100562288Y-180594667D01*
X100587058Y-180589740D01*
X100764542Y-180589740D01*
X100789312Y-180594667D01*
G37*
G36*
X97785904Y-172990325D02*
G01*
X97954426Y-173060129D01*
X98106091Y-173161468D01*
X98235072Y-173290449D01*
X98336411Y-173442114D01*
X98406215Y-173610636D01*
X98441800Y-173789537D01*
X98441800Y-173971943D01*
X98406215Y-174150844D01*
X98336411Y-174319366D01*
X98235072Y-174471031D01*
X98106091Y-174600012D01*
X97954426Y-174701351D01*
X97785904Y-174771155D01*
X97607003Y-174806740D01*
X97424597Y-174806740D01*
X97245696Y-174771155D01*
X97077174Y-174701351D01*
X96925509Y-174600012D01*
X96796528Y-174471031D01*
X96695189Y-174319366D01*
X96625385Y-174150844D01*
X96589800Y-173971943D01*
X96589800Y-173789537D01*
X96625385Y-173610636D01*
X96695189Y-173442114D01*
X96796528Y-173290449D01*
X96925509Y-173161468D01*
X97077174Y-173060129D01*
X97245696Y-172990325D01*
X97424597Y-172954740D01*
X97607003Y-172954740D01*
X97785904Y-172990325D01*
G37*
G36*
X105015904Y-172990325D02*
G01*
X105184426Y-173060129D01*
X105336091Y-173161468D01*
X105465072Y-173290449D01*
X105566411Y-173442114D01*
X105636215Y-173610636D01*
X105671800Y-173789537D01*
X105671800Y-173971943D01*
X105636215Y-174150844D01*
X105566411Y-174319366D01*
X105465072Y-174471031D01*
X105336091Y-174600012D01*
X105184426Y-174701351D01*
X105015904Y-174771155D01*
X104837003Y-174806740D01*
X104654597Y-174806740D01*
X104475696Y-174771155D01*
X104307174Y-174701351D01*
X104155509Y-174600012D01*
X104026528Y-174471031D01*
X103925189Y-174319366D01*
X103855385Y-174150844D01*
X103819800Y-173971943D01*
X103819800Y-173789537D01*
X103855385Y-173610636D01*
X103925189Y-173442114D01*
X104026528Y-173290449D01*
X104155509Y-173161468D01*
X104307174Y-173060129D01*
X104475696Y-172990325D01*
X104654597Y-172954740D01*
X104837003Y-172954740D01*
X105015904Y-172990325D01*
G37*
G36*
X116386800Y-172851740D02*
G01*
X115384800Y-172851740D01*
X115384800Y-171949740D01*
X116386800Y-171949740D01*
X116386800Y-172851740D01*
G37*
G36*
X119841800Y-172651740D02*
G01*
X118989800Y-172651740D01*
X118989800Y-171749740D01*
X119841800Y-171749740D01*
X119841800Y-172651740D01*
G37*
G36*
X105015904Y-170490325D02*
G01*
X105184426Y-170560129D01*
X105336091Y-170661468D01*
X105465072Y-170790449D01*
X105566411Y-170942114D01*
X105636215Y-171110636D01*
X105671800Y-171289537D01*
X105671800Y-171471943D01*
X105636215Y-171650844D01*
X105566411Y-171819366D01*
X105465072Y-171971031D01*
X105336091Y-172100012D01*
X105184426Y-172201351D01*
X105015904Y-172271155D01*
X104837003Y-172306740D01*
X104654597Y-172306740D01*
X104475696Y-172271155D01*
X104307174Y-172201351D01*
X104155509Y-172100012D01*
X104026528Y-171971031D01*
X103925189Y-171819366D01*
X103855385Y-171650844D01*
X103819800Y-171471943D01*
X103819800Y-171289537D01*
X103855385Y-171110636D01*
X103925189Y-170942114D01*
X104026528Y-170790449D01*
X104155509Y-170661468D01*
X104307174Y-170560129D01*
X104475696Y-170490325D01*
X104654597Y-170454740D01*
X104837003Y-170454740D01*
X105015904Y-170490325D01*
G37*
G36*
X97785904Y-170490325D02*
G01*
X97954426Y-170560129D01*
X98106091Y-170661468D01*
X98235072Y-170790449D01*
X98336411Y-170942114D01*
X98406215Y-171110636D01*
X98441800Y-171289537D01*
X98441800Y-171471943D01*
X98406215Y-171650844D01*
X98336411Y-171819366D01*
X98235072Y-171971031D01*
X98106091Y-172100012D01*
X97954426Y-172201351D01*
X97785904Y-172271155D01*
X97607003Y-172306740D01*
X97424597Y-172306740D01*
X97245696Y-172271155D01*
X97077174Y-172201351D01*
X96925509Y-172100012D01*
X96796528Y-171971031D01*
X96695189Y-171819366D01*
X96625385Y-171650844D01*
X96589800Y-171471943D01*
X96589800Y-171289537D01*
X96625385Y-171110636D01*
X96695189Y-170942114D01*
X96796528Y-170790449D01*
X96925509Y-170661468D01*
X97077174Y-170560129D01*
X97245696Y-170490325D01*
X97424597Y-170454740D01*
X97607003Y-170454740D01*
X97785904Y-170490325D01*
G37*
G36*
X114386800Y-171901740D02*
G01*
X113384800Y-171901740D01*
X113384800Y-170999740D01*
X114386800Y-170999740D01*
X114386800Y-171901740D01*
G37*
G36*
X119841800Y-171151740D02*
G01*
X118989800Y-171151740D01*
X118989800Y-170249740D01*
X119841800Y-170249740D01*
X119841800Y-171151740D01*
G37*
G36*
X116386800Y-170951740D02*
G01*
X115384800Y-170951740D01*
X115384800Y-170049740D01*
X116386800Y-170049740D01*
X116386800Y-170951740D01*
G37*
G36*
X97785904Y-167990325D02*
G01*
X97954426Y-168060129D01*
X98106091Y-168161468D01*
X98235072Y-168290449D01*
X98336411Y-168442114D01*
X98406215Y-168610636D01*
X98441800Y-168789537D01*
X98441800Y-168971943D01*
X98406215Y-169150844D01*
X98336411Y-169319366D01*
X98235072Y-169471031D01*
X98106091Y-169600012D01*
X97954426Y-169701351D01*
X97785904Y-169771155D01*
X97607003Y-169806740D01*
X97424597Y-169806740D01*
X97245696Y-169771155D01*
X97077174Y-169701351D01*
X96925509Y-169600012D01*
X96796528Y-169471031D01*
X96695189Y-169319366D01*
X96625385Y-169150844D01*
X96589800Y-168971943D01*
X96589800Y-168789537D01*
X96625385Y-168610636D01*
X96695189Y-168442114D01*
X96796528Y-168290449D01*
X96925509Y-168161468D01*
X97077174Y-168060129D01*
X97245696Y-167990325D01*
X97424597Y-167954740D01*
X97607003Y-167954740D01*
X97785904Y-167990325D01*
G37*
G36*
X105015904Y-167990325D02*
G01*
X105184426Y-168060129D01*
X105336091Y-168161468D01*
X105465072Y-168290449D01*
X105566411Y-168442114D01*
X105636215Y-168610636D01*
X105671800Y-168789537D01*
X105671800Y-168971943D01*
X105636215Y-169150844D01*
X105566411Y-169319366D01*
X105465072Y-169471031D01*
X105336091Y-169600012D01*
X105184426Y-169701351D01*
X105015904Y-169771155D01*
X104837003Y-169806740D01*
X104654597Y-169806740D01*
X104475696Y-169771155D01*
X104307174Y-169701351D01*
X104155509Y-169600012D01*
X104026528Y-169471031D01*
X103925189Y-169319366D01*
X103855385Y-169150844D01*
X103819800Y-168971943D01*
X103819800Y-168789537D01*
X103855385Y-168610636D01*
X103925189Y-168442114D01*
X104026528Y-168290449D01*
X104155509Y-168161468D01*
X104307174Y-168060129D01*
X104475696Y-167990325D01*
X104654597Y-167954740D01*
X104837003Y-167954740D01*
X105015904Y-167990325D01*
G37*
G36*
X116096800Y-167471740D02*
G01*
X114994800Y-167471740D01*
X114994800Y-165769740D01*
X116096800Y-165769740D01*
X116096800Y-167471740D01*
G37*
G36*
X113096800Y-167471740D02*
G01*
X111994800Y-167471740D01*
X111994800Y-165769740D01*
X113096800Y-165769740D01*
X113096800Y-167471740D01*
G37*
G36*
X131433564Y-164805142D02*
G01*
X131556245Y-164829545D01*
X131787371Y-164925281D01*
X131995378Y-165064267D01*
X132172273Y-165241162D01*
X132311259Y-165449169D01*
X132406995Y-165680295D01*
X132455800Y-165925656D01*
X132455800Y-166175824D01*
X132406995Y-166421185D01*
X132311259Y-166652311D01*
X132172273Y-166860318D01*
X131995378Y-167037213D01*
X131787371Y-167176199D01*
X131556245Y-167271935D01*
X131433565Y-167296337D01*
X131310885Y-167320740D01*
X131060715Y-167320740D01*
X130938035Y-167296337D01*
X130815355Y-167271935D01*
X130584229Y-167176199D01*
X130376222Y-167037213D01*
X130199327Y-166860318D01*
X130060341Y-166652311D01*
X129964605Y-166421185D01*
X129915800Y-166175824D01*
X129915800Y-165925656D01*
X129964605Y-165680295D01*
X130060341Y-165449169D01*
X130199327Y-165241162D01*
X130376222Y-165064267D01*
X130584229Y-164925281D01*
X130815355Y-164829545D01*
X130938036Y-164805142D01*
X131060715Y-164780740D01*
X131310885Y-164780740D01*
X131433564Y-164805142D01*
G37*
G36*
X98441800Y-167306740D02*
G01*
X96589800Y-167306740D01*
X96589800Y-165454740D01*
X98441800Y-165454740D01*
X98441800Y-167306740D01*
G37*
G36*
X105671800Y-167306740D02*
G01*
X103819800Y-167306740D01*
X103819800Y-165454740D01*
X105671800Y-165454740D01*
X105671800Y-167306740D01*
G37*
G36*
X112742364Y-161510129D02*
G01*
X112933633Y-161589355D01*
X112933635Y-161589356D01*
X113105773Y-161704375D01*
X113252165Y-161850767D01*
X113347139Y-161992905D01*
X113367185Y-162022907D01*
X113446411Y-162214176D01*
X113486800Y-162417224D01*
X113486800Y-162624256D01*
X113446411Y-162827304D01*
X113367185Y-163018573D01*
X113367184Y-163018575D01*
X113252165Y-163190713D01*
X113105773Y-163337105D01*
X112933635Y-163452124D01*
X112933634Y-163452125D01*
X112933633Y-163452125D01*
X112742364Y-163531351D01*
X112539316Y-163571740D01*
X112332284Y-163571740D01*
X112129236Y-163531351D01*
X111937967Y-163452125D01*
X111937966Y-163452125D01*
X111937965Y-163452124D01*
X111765827Y-163337105D01*
X111619435Y-163190713D01*
X111504416Y-163018575D01*
X111504415Y-163018573D01*
X111425189Y-162827304D01*
X111384800Y-162624256D01*
X111384800Y-162417224D01*
X111425189Y-162214176D01*
X111504415Y-162022907D01*
X111524462Y-161992905D01*
X111619435Y-161850767D01*
X111765827Y-161704375D01*
X111937965Y-161589356D01*
X111937967Y-161589355D01*
X112129236Y-161510129D01*
X112332284Y-161469740D01*
X112539316Y-161469740D01*
X112742364Y-161510129D01*
G37*
G36*
X118282364Y-161480129D02*
G01*
X118473633Y-161559355D01*
X118473635Y-161559356D01*
X118518533Y-161589356D01*
X118645773Y-161674375D01*
X118792165Y-161820767D01*
X118907185Y-161992907D01*
X118986411Y-162184176D01*
X119026800Y-162387224D01*
X119026800Y-162594256D01*
X118986411Y-162797304D01*
X118973984Y-162827305D01*
X118907184Y-162988575D01*
X118792165Y-163160713D01*
X118645773Y-163307105D01*
X118473635Y-163422124D01*
X118473634Y-163422125D01*
X118473633Y-163422125D01*
X118282364Y-163501351D01*
X118079316Y-163541740D01*
X117872284Y-163541740D01*
X117669236Y-163501351D01*
X117477967Y-163422125D01*
X117477966Y-163422125D01*
X117477965Y-163422124D01*
X117305827Y-163307105D01*
X117159435Y-163160713D01*
X117044416Y-162988575D01*
X116977616Y-162827305D01*
X116965189Y-162797304D01*
X116924800Y-162594256D01*
X116924800Y-162387224D01*
X116965189Y-162184176D01*
X117044415Y-161992907D01*
X117159435Y-161820767D01*
X117305827Y-161674375D01*
X117433067Y-161589356D01*
X117477965Y-161559356D01*
X117477967Y-161559355D01*
X117669236Y-161480129D01*
X117872284Y-161439740D01*
X118079316Y-161439740D01*
X118282364Y-161480129D01*
G37*
G36*
X132504233Y-159665633D02*
G01*
X132594457Y-159683579D01*
X132700067Y-159727325D01*
X132849421Y-159789189D01*
X132849422Y-159789190D01*
X133078886Y-159942512D01*
X133274028Y-160137654D01*
X133376475Y-160290977D01*
X133427351Y-160367119D01*
X133489215Y-160516473D01*
X133532961Y-160622083D01*
X133586800Y-160892754D01*
X133586800Y-161168726D01*
X133532961Y-161439397D01*
X133503662Y-161510130D01*
X133427351Y-161694361D01*
X133427350Y-161694362D01*
X133274028Y-161923826D01*
X133078886Y-162118968D01*
X132936398Y-162214175D01*
X132849421Y-162272291D01*
X132700067Y-162334155D01*
X132594457Y-162377901D01*
X132547586Y-162387224D01*
X132323788Y-162431740D01*
X132047812Y-162431740D01*
X131824014Y-162387224D01*
X131777143Y-162377901D01*
X131671533Y-162334155D01*
X131522179Y-162272291D01*
X131435202Y-162214175D01*
X131292714Y-162118968D01*
X131097572Y-161923826D01*
X130944250Y-161694362D01*
X130944249Y-161694361D01*
X130867938Y-161510130D01*
X130838639Y-161439397D01*
X130784800Y-161168726D01*
X130784800Y-160892754D01*
X130838639Y-160622083D01*
X130882385Y-160516473D01*
X130944249Y-160367119D01*
X130995125Y-160290977D01*
X131097572Y-160137654D01*
X131292714Y-159942512D01*
X131522178Y-159789190D01*
X131522179Y-159789189D01*
X131671533Y-159727325D01*
X131777143Y-159683579D01*
X131867367Y-159665633D01*
X132047812Y-159629740D01*
X132323788Y-159629740D01*
X132504233Y-159665633D01*
G37*
G36*
X69184233Y-159665633D02*
G01*
X69274457Y-159683579D01*
X69380067Y-159727325D01*
X69529421Y-159789189D01*
X69529422Y-159789190D01*
X69758886Y-159942512D01*
X69954028Y-160137654D01*
X70056475Y-160290977D01*
X70107351Y-160367119D01*
X70169215Y-160516473D01*
X70212961Y-160622083D01*
X70266800Y-160892754D01*
X70266800Y-161168726D01*
X70212961Y-161439397D01*
X70183662Y-161510130D01*
X70107351Y-161694361D01*
X70107350Y-161694362D01*
X69954028Y-161923826D01*
X69758886Y-162118968D01*
X69616398Y-162214175D01*
X69529421Y-162272291D01*
X69380067Y-162334155D01*
X69274457Y-162377901D01*
X69227586Y-162387224D01*
X69003788Y-162431740D01*
X68727812Y-162431740D01*
X68504014Y-162387224D01*
X68457143Y-162377901D01*
X68351533Y-162334155D01*
X68202179Y-162272291D01*
X68115202Y-162214175D01*
X67972714Y-162118968D01*
X67777572Y-161923826D01*
X67624250Y-161694362D01*
X67624249Y-161694361D01*
X67547938Y-161510130D01*
X67518639Y-161439397D01*
X67464800Y-161168726D01*
X67464800Y-160892754D01*
X67518639Y-160622083D01*
X67562385Y-160516473D01*
X67624249Y-160367119D01*
X67675125Y-160290977D01*
X67777572Y-160137654D01*
X67972714Y-159942512D01*
X68202178Y-159789190D01*
X68202179Y-159789189D01*
X68351533Y-159727325D01*
X68457143Y-159683579D01*
X68547367Y-159665633D01*
X68727812Y-159629740D01*
X69003788Y-159629740D01*
X69184233Y-159665633D01*
G37*
G36*
X126098385Y-154959542D02*
G01*
X126248210Y-154989344D01*
X126530474Y-155106261D01*
X126784505Y-155275999D01*
X127000541Y-155492035D01*
X127170279Y-155746066D01*
X127287196Y-156028330D01*
X127346800Y-156327980D01*
X127346800Y-156633500D01*
X127287196Y-156933150D01*
X127170279Y-157215414D01*
X127000541Y-157469445D01*
X126784505Y-157685481D01*
X126530474Y-157855219D01*
X126248210Y-157972136D01*
X126098385Y-158001938D01*
X125948561Y-158031740D01*
X125643039Y-158031740D01*
X125493215Y-158001938D01*
X125343390Y-157972136D01*
X125061126Y-157855219D01*
X124807095Y-157685481D01*
X124591059Y-157469445D01*
X124421321Y-157215414D01*
X124304404Y-156933150D01*
X124244800Y-156633500D01*
X124244800Y-156327980D01*
X124304404Y-156028330D01*
X124421321Y-155746066D01*
X124591059Y-155492035D01*
X124807095Y-155275999D01*
X125061126Y-155106261D01*
X125343390Y-154989344D01*
X125493215Y-154959542D01*
X125643039Y-154929740D01*
X125948561Y-154929740D01*
X126098385Y-154959542D01*
G37*
G36*
X95098385Y-154959542D02*
G01*
X95248210Y-154989344D01*
X95530474Y-155106261D01*
X95784505Y-155275999D01*
X96000541Y-155492035D01*
X96170279Y-155746066D01*
X96287196Y-156028330D01*
X96346800Y-156327980D01*
X96346800Y-156633500D01*
X96287196Y-156933150D01*
X96170279Y-157215414D01*
X96000541Y-157469445D01*
X95784505Y-157685481D01*
X95530474Y-157855219D01*
X95248210Y-157972136D01*
X95098385Y-158001938D01*
X94948561Y-158031740D01*
X94643039Y-158031740D01*
X94493215Y-158001938D01*
X94343390Y-157972136D01*
X94061126Y-157855219D01*
X93807095Y-157685481D01*
X93591059Y-157469445D01*
X93421321Y-157215414D01*
X93304404Y-156933150D01*
X93244800Y-156633500D01*
X93244800Y-156327980D01*
X93304404Y-156028330D01*
X93421321Y-155746066D01*
X93591059Y-155492035D01*
X93807095Y-155275999D01*
X94061126Y-155106261D01*
X94343390Y-154989344D01*
X94493215Y-154959542D01*
X94643039Y-154929740D01*
X94948561Y-154929740D01*
X95098385Y-154959542D01*
G37*
G36*
X110831131Y-153688951D02*
G01*
X111158892Y-153824714D01*
X111453870Y-154021812D01*
X111704728Y-154272670D01*
X111901826Y-154567648D01*
X112037589Y-154895409D01*
X112106800Y-155243356D01*
X112106800Y-155598124D01*
X112037589Y-155946071D01*
X111901826Y-156273832D01*
X111704728Y-156568810D01*
X111453870Y-156819668D01*
X111158892Y-157016766D01*
X110831131Y-157152529D01*
X110483184Y-157221740D01*
X110128416Y-157221740D01*
X109780469Y-157152529D01*
X109452708Y-157016766D01*
X109157730Y-156819668D01*
X108906872Y-156568810D01*
X108709774Y-156273832D01*
X108574011Y-155946071D01*
X108504800Y-155598124D01*
X108504800Y-155243356D01*
X108574011Y-154895409D01*
X108709774Y-154567648D01*
X108906872Y-154272670D01*
X109157730Y-154021812D01*
X109452708Y-153824714D01*
X109780469Y-153688951D01*
X110128416Y-153619740D01*
X110483184Y-153619740D01*
X110831131Y-153688951D01*
G37*
G36*
X75386800Y-155561740D02*
G01*
X72284800Y-155561740D01*
X72284800Y-153859740D01*
X75386800Y-153859740D01*
X75386800Y-155561740D01*
G37*
G36*
X79786800Y-155561740D02*
G01*
X76684800Y-155561740D01*
X76684800Y-153859740D01*
X79786800Y-153859740D01*
X79786800Y-155561740D01*
G37*
G36*
X91102364Y-153470129D02*
G01*
X91293633Y-153549355D01*
X91293635Y-153549356D01*
X91398972Y-153619740D01*
X91465773Y-153664375D01*
X91612165Y-153810767D01*
X91727185Y-153982907D01*
X91806411Y-154174176D01*
X91846800Y-154377224D01*
X91846800Y-154584256D01*
X91806411Y-154787304D01*
X91747412Y-154929740D01*
X91727184Y-154978575D01*
X91612165Y-155150713D01*
X91465773Y-155297105D01*
X91293635Y-155412124D01*
X91293634Y-155412125D01*
X91293633Y-155412125D01*
X91102364Y-155491351D01*
X90899316Y-155531740D01*
X90692284Y-155531740D01*
X90489236Y-155491351D01*
X90297967Y-155412125D01*
X90297966Y-155412125D01*
X90297965Y-155412124D01*
X90125827Y-155297105D01*
X89979435Y-155150713D01*
X89864416Y-154978575D01*
X89844188Y-154929740D01*
X89785189Y-154787304D01*
X89744800Y-154584256D01*
X89744800Y-154377224D01*
X89785189Y-154174176D01*
X89864415Y-153982907D01*
X89979435Y-153810767D01*
X90125827Y-153664375D01*
X90192628Y-153619740D01*
X90297965Y-153549356D01*
X90297967Y-153549355D01*
X90489236Y-153470129D01*
X90692284Y-153429740D01*
X90899316Y-153429740D01*
X91102364Y-153470129D01*
G37*
G36*
X99102364Y-153470129D02*
G01*
X99293633Y-153549355D01*
X99293635Y-153549356D01*
X99398972Y-153619740D01*
X99465773Y-153664375D01*
X99612165Y-153810767D01*
X99727185Y-153982907D01*
X99806411Y-154174176D01*
X99846800Y-154377224D01*
X99846800Y-154584256D01*
X99806411Y-154787304D01*
X99747412Y-154929740D01*
X99727184Y-154978575D01*
X99612165Y-155150713D01*
X99465773Y-155297105D01*
X99293635Y-155412124D01*
X99293634Y-155412125D01*
X99293633Y-155412125D01*
X99102364Y-155491351D01*
X98899316Y-155531740D01*
X98692284Y-155531740D01*
X98489236Y-155491351D01*
X98297967Y-155412125D01*
X98297966Y-155412125D01*
X98297965Y-155412124D01*
X98125827Y-155297105D01*
X97979435Y-155150713D01*
X97864416Y-154978575D01*
X97844188Y-154929740D01*
X97785189Y-154787304D01*
X97744800Y-154584256D01*
X97744800Y-154377224D01*
X97785189Y-154174176D01*
X97864415Y-153982907D01*
X97979435Y-153810767D01*
X98125827Y-153664375D01*
X98192628Y-153619740D01*
X98297965Y-153549356D01*
X98297967Y-153549355D01*
X98489236Y-153470129D01*
X98692284Y-153429740D01*
X98899316Y-153429740D01*
X99102364Y-153470129D01*
G37*
G36*
X122102364Y-153470129D02*
G01*
X122293633Y-153549355D01*
X122293635Y-153549356D01*
X122398972Y-153619740D01*
X122465773Y-153664375D01*
X122612165Y-153810767D01*
X122727185Y-153982907D01*
X122806411Y-154174176D01*
X122846800Y-154377224D01*
X122846800Y-154584256D01*
X122806411Y-154787304D01*
X122747412Y-154929740D01*
X122727184Y-154978575D01*
X122612165Y-155150713D01*
X122465773Y-155297105D01*
X122293635Y-155412124D01*
X122293634Y-155412125D01*
X122293633Y-155412125D01*
X122102364Y-155491351D01*
X121899316Y-155531740D01*
X121692284Y-155531740D01*
X121489236Y-155491351D01*
X121297967Y-155412125D01*
X121297966Y-155412125D01*
X121297965Y-155412124D01*
X121125827Y-155297105D01*
X120979435Y-155150713D01*
X120864416Y-154978575D01*
X120844188Y-154929740D01*
X120785189Y-154787304D01*
X120744800Y-154584256D01*
X120744800Y-154377224D01*
X120785189Y-154174176D01*
X120864415Y-153982907D01*
X120979435Y-153810767D01*
X121125827Y-153664375D01*
X121192628Y-153619740D01*
X121297965Y-153549356D01*
X121297967Y-153549355D01*
X121489236Y-153470129D01*
X121692284Y-153429740D01*
X121899316Y-153429740D01*
X122102364Y-153470129D01*
G37*
G36*
X130102364Y-153470129D02*
G01*
X130293633Y-153549355D01*
X130293635Y-153549356D01*
X130398972Y-153619740D01*
X130465773Y-153664375D01*
X130612165Y-153810767D01*
X130727185Y-153982907D01*
X130806411Y-154174176D01*
X130846800Y-154377224D01*
X130846800Y-154584256D01*
X130806411Y-154787304D01*
X130747412Y-154929740D01*
X130727184Y-154978575D01*
X130612165Y-155150713D01*
X130465773Y-155297105D01*
X130293635Y-155412124D01*
X130293634Y-155412125D01*
X130293633Y-155412125D01*
X130102364Y-155491351D01*
X129899316Y-155531740D01*
X129692284Y-155531740D01*
X129489236Y-155491351D01*
X129297967Y-155412125D01*
X129297966Y-155412125D01*
X129297965Y-155412124D01*
X129125827Y-155297105D01*
X128979435Y-155150713D01*
X128864416Y-154978575D01*
X128844188Y-154929740D01*
X128785189Y-154787304D01*
X128744800Y-154584256D01*
X128744800Y-154377224D01*
X128785189Y-154174176D01*
X128864415Y-153982907D01*
X128979435Y-153810767D01*
X129125827Y-153664375D01*
X129192628Y-153619740D01*
X129297965Y-153549356D01*
X129297967Y-153549355D01*
X129489236Y-153470129D01*
X129692284Y-153429740D01*
X129899316Y-153429740D01*
X130102364Y-153470129D01*
G37*
G36*
X63343565Y-150245143D02*
G01*
X63466245Y-150269545D01*
X63697371Y-150365281D01*
X63905378Y-150504267D01*
X64082273Y-150681162D01*
X64221259Y-150889169D01*
X64316995Y-151120295D01*
X64365800Y-151365656D01*
X64365800Y-151615824D01*
X64316995Y-151861185D01*
X64221259Y-152092311D01*
X64082273Y-152300318D01*
X63905378Y-152477213D01*
X63697371Y-152616199D01*
X63466245Y-152711935D01*
X63343564Y-152736338D01*
X63220885Y-152760740D01*
X62970715Y-152760740D01*
X62848036Y-152736338D01*
X62725355Y-152711935D01*
X62494229Y-152616199D01*
X62286222Y-152477213D01*
X62109327Y-152300318D01*
X61970341Y-152092311D01*
X61874605Y-151861185D01*
X61825800Y-151615824D01*
X61825800Y-151365656D01*
X61874605Y-151120295D01*
X61970341Y-150889169D01*
X62109327Y-150681162D01*
X62286222Y-150504267D01*
X62494229Y-150365281D01*
X62725355Y-150269545D01*
X62848035Y-150245143D01*
X62970715Y-150220740D01*
X63220885Y-150220740D01*
X63343565Y-150245143D01*
G37*
G36*
X64811800Y-148361740D02*
G01*
X63959800Y-148361740D01*
X63959800Y-147459740D01*
X64811800Y-147459740D01*
X64811800Y-148361740D01*
G37*
G36*
X64811800Y-146861740D02*
G01*
X63959800Y-146861740D01*
X63959800Y-145959740D01*
X64811800Y-145959740D01*
X64811800Y-146861740D01*
G37*
G36*
X67716800Y-146861740D02*
G01*
X66314800Y-146861740D01*
X66314800Y-145959740D01*
X67716800Y-145959740D01*
X67716800Y-146861740D01*
G37*
G36*
X74016800Y-146861740D02*
G01*
X72614800Y-146861740D01*
X72614800Y-145959740D01*
X74016800Y-145959740D01*
X74016800Y-146861740D01*
G37*
G36*
X101685743Y-140486988D02*
G01*
X102240989Y-140716978D01*
X102240990Y-140716979D01*
X102740699Y-141050874D01*
X103165666Y-141475841D01*
X103165667Y-141475843D01*
X103499562Y-141975551D01*
X103729552Y-142530797D01*
X103846800Y-143120241D01*
X103846800Y-143721239D01*
X103729552Y-144310683D01*
X103499562Y-144865929D01*
X103499561Y-144865930D01*
X103165666Y-145365639D01*
X102740699Y-145790606D01*
X102489147Y-145958688D01*
X102240989Y-146124502D01*
X101685743Y-146354492D01*
X101096299Y-146471740D01*
X100495301Y-146471740D01*
X99905857Y-146354492D01*
X99350611Y-146124502D01*
X99102453Y-145958688D01*
X98850901Y-145790606D01*
X98425934Y-145365639D01*
X98092039Y-144865930D01*
X98092038Y-144865929D01*
X97862048Y-144310683D01*
X97744800Y-143721239D01*
X97744800Y-143120241D01*
X97862048Y-142530797D01*
X98092038Y-141975551D01*
X98425933Y-141475843D01*
X98425934Y-141475841D01*
X98850901Y-141050874D01*
X99350610Y-140716979D01*
X99350611Y-140716978D01*
X99905857Y-140486988D01*
X100495301Y-140369740D01*
X101096299Y-140369740D01*
X101685743Y-140486988D01*
G37*
G36*
X67716800Y-145581740D02*
G01*
X66314800Y-145581740D01*
X66314800Y-144679740D01*
X67716800Y-144679740D01*
X67716800Y-145581740D01*
G37*
G36*
X74016800Y-145581740D02*
G01*
X72614800Y-145581740D01*
X72614800Y-144679740D01*
X74016800Y-144679740D01*
X74016800Y-145581740D01*
G37*
G36*
X67716800Y-144321740D02*
G01*
X66314800Y-144321740D01*
X66314800Y-143419740D01*
X67716800Y-143419740D01*
X67716800Y-144321740D01*
G37*
G36*
X74016800Y-144321740D02*
G01*
X72614800Y-144321740D01*
X72614800Y-143419740D01*
X74016800Y-143419740D01*
X74016800Y-144321740D01*
G37*
G36*
X64576800Y-144251740D02*
G01*
X63974800Y-144251740D01*
X63974800Y-143249740D01*
X64576800Y-143249740D01*
X64576800Y-144251740D01*
G37*
G36*
X63076800Y-144251740D02*
G01*
X62474800Y-144251740D01*
X62474800Y-143249740D01*
X63076800Y-143249740D01*
X63076800Y-144251740D01*
G37*
G36*
X67716800Y-143051740D02*
G01*
X66314800Y-143051740D01*
X66314800Y-142149740D01*
X67716800Y-142149740D01*
X67716800Y-143051740D01*
G37*
G36*
X74016800Y-143051740D02*
G01*
X72614800Y-143051740D01*
X72614800Y-142149740D01*
X74016800Y-142149740D01*
X74016800Y-143051740D01*
G37*
G36*
X67716800Y-141771740D02*
G01*
X66314800Y-141771740D01*
X66314800Y-140869740D01*
X67716800Y-140869740D01*
X67716800Y-141771740D01*
G37*
G36*
X74016800Y-141771740D02*
G01*
X72614800Y-141771740D01*
X72614800Y-140869740D01*
X74016800Y-140869740D01*
X74016800Y-141771740D01*
G37*
G36*
X67716800Y-140501740D02*
G01*
X66314800Y-140501740D01*
X66314800Y-139599740D01*
X67716800Y-139599740D01*
X67716800Y-140501740D01*
G37*
G36*
X74016800Y-140501740D02*
G01*
X72614800Y-140501740D01*
X72614800Y-139599740D01*
X74016800Y-139599740D01*
X74016800Y-140501740D01*
G37*
G36*
X75901800Y-139241740D02*
G01*
X75049800Y-139241740D01*
X75049800Y-138339740D01*
X75901800Y-138339740D01*
X75901800Y-139241740D01*
G37*
G36*
X74016800Y-139241740D02*
G01*
X72614800Y-139241740D01*
X72614800Y-138339740D01*
X74016800Y-138339740D01*
X74016800Y-139241740D01*
G37*
G36*
X67716800Y-139241740D02*
G01*
X66314800Y-139241740D01*
X66314800Y-138339740D01*
X67716800Y-138339740D01*
X67716800Y-139241740D01*
G37*
G36*
X67716800Y-137961740D02*
G01*
X66314800Y-137961740D01*
X66314800Y-137059740D01*
X67716800Y-137059740D01*
X67716800Y-137961740D01*
G37*
G36*
X74016800Y-137961740D02*
G01*
X72614800Y-137961740D01*
X72614800Y-137059740D01*
X74016800Y-137059740D01*
X74016800Y-137961740D01*
G37*
G36*
X75901800Y-137741740D02*
G01*
X75049800Y-137741740D01*
X75049800Y-136839740D01*
X75901800Y-136839740D01*
X75901800Y-137741740D01*
G37*
G36*
X85831131Y-132688951D02*
G01*
X86158892Y-132824714D01*
X86453870Y-133021812D01*
X86704728Y-133272670D01*
X86901826Y-133567648D01*
X87037589Y-133895409D01*
X87106800Y-134243356D01*
X87106800Y-134598124D01*
X87037589Y-134946071D01*
X86901826Y-135273832D01*
X86704728Y-135568810D01*
X86453870Y-135819668D01*
X86158892Y-136016766D01*
X85831131Y-136152529D01*
X85483184Y-136221740D01*
X85128416Y-136221740D01*
X84780469Y-136152529D01*
X84452708Y-136016766D01*
X84157730Y-135819668D01*
X83906872Y-135568810D01*
X83709774Y-135273832D01*
X83574011Y-134946071D01*
X83504800Y-134598124D01*
X83504800Y-134243356D01*
X83574011Y-133895409D01*
X83709774Y-133567648D01*
X83906872Y-133272670D01*
X84157730Y-133021812D01*
X84452708Y-132824714D01*
X84780469Y-132688951D01*
X85128416Y-132619740D01*
X85483184Y-132619740D01*
X85831131Y-132688951D01*
G37*
G36*
X135831131Y-132688951D02*
G01*
X136158892Y-132824714D01*
X136453870Y-133021812D01*
X136704728Y-133272670D01*
X136901826Y-133567648D01*
X137037589Y-133895409D01*
X137106800Y-134243356D01*
X137106800Y-134598124D01*
X137037589Y-134946071D01*
X136901826Y-135273832D01*
X136704728Y-135568810D01*
X136453870Y-135819668D01*
X136158892Y-136016766D01*
X135831131Y-136152529D01*
X135483184Y-136221740D01*
X135128416Y-136221740D01*
X134780469Y-136152529D01*
X134452708Y-136016766D01*
X134157730Y-135819668D01*
X133906872Y-135568810D01*
X133709774Y-135273832D01*
X133574011Y-134946071D01*
X133504800Y-134598124D01*
X133504800Y-134243356D01*
X133574011Y-133895409D01*
X133709774Y-133567648D01*
X133906872Y-133272670D01*
X134157730Y-133021812D01*
X134452708Y-132824714D01*
X134780469Y-132688951D01*
X135128416Y-132619740D01*
X135483184Y-132619740D01*
X135831131Y-132688951D01*
G37*
G36*
X130102364Y-130470129D02*
G01*
X130293633Y-130549355D01*
X130293635Y-130549356D01*
X130465773Y-130664375D01*
X130612165Y-130810767D01*
X130727185Y-130982907D01*
X130806411Y-131174176D01*
X130846800Y-131377224D01*
X130846800Y-131584256D01*
X130806411Y-131787304D01*
X130727185Y-131978573D01*
X130727184Y-131978575D01*
X130612165Y-132150713D01*
X130465773Y-132297105D01*
X130293635Y-132412124D01*
X130293634Y-132412125D01*
X130293633Y-132412125D01*
X130102364Y-132491351D01*
X129899316Y-132531740D01*
X129692284Y-132531740D01*
X129489236Y-132491351D01*
X129297967Y-132412125D01*
X129297966Y-132412125D01*
X129297965Y-132412124D01*
X129125827Y-132297105D01*
X128979435Y-132150713D01*
X128864416Y-131978575D01*
X128864415Y-131978573D01*
X128785189Y-131787304D01*
X128744800Y-131584256D01*
X128744800Y-131377224D01*
X128785189Y-131174176D01*
X128864415Y-130982907D01*
X128979435Y-130810767D01*
X129125827Y-130664375D01*
X129297965Y-130549356D01*
X129297967Y-130549355D01*
X129489236Y-130470129D01*
X129692284Y-130429740D01*
X129899316Y-130429740D01*
X130102364Y-130470129D01*
G37*
G36*
X91102364Y-130470129D02*
G01*
X91293633Y-130549355D01*
X91293635Y-130549356D01*
X91465773Y-130664375D01*
X91612165Y-130810767D01*
X91727185Y-130982907D01*
X91806411Y-131174176D01*
X91846800Y-131377224D01*
X91846800Y-131584256D01*
X91806411Y-131787304D01*
X91727185Y-131978573D01*
X91727184Y-131978575D01*
X91612165Y-132150713D01*
X91465773Y-132297105D01*
X91293635Y-132412124D01*
X91293634Y-132412125D01*
X91293633Y-132412125D01*
X91102364Y-132491351D01*
X90899316Y-132531740D01*
X90692284Y-132531740D01*
X90489236Y-132491351D01*
X90297967Y-132412125D01*
X90297966Y-132412125D01*
X90297965Y-132412124D01*
X90125827Y-132297105D01*
X89979435Y-132150713D01*
X89864416Y-131978575D01*
X89864415Y-131978573D01*
X89785189Y-131787304D01*
X89744800Y-131584256D01*
X89744800Y-131377224D01*
X89785189Y-131174176D01*
X89864415Y-130982907D01*
X89979435Y-130810767D01*
X90125827Y-130664375D01*
X90297965Y-130549356D01*
X90297967Y-130549355D01*
X90489236Y-130470129D01*
X90692284Y-130429740D01*
X90899316Y-130429740D01*
X91102364Y-130470129D01*
G37*
G36*
X99102364Y-130470129D02*
G01*
X99293633Y-130549355D01*
X99293635Y-130549356D01*
X99465773Y-130664375D01*
X99612165Y-130810767D01*
X99727185Y-130982907D01*
X99806411Y-131174176D01*
X99846800Y-131377224D01*
X99846800Y-131584256D01*
X99806411Y-131787304D01*
X99727185Y-131978573D01*
X99727184Y-131978575D01*
X99612165Y-132150713D01*
X99465773Y-132297105D01*
X99293635Y-132412124D01*
X99293634Y-132412125D01*
X99293633Y-132412125D01*
X99102364Y-132491351D01*
X98899316Y-132531740D01*
X98692284Y-132531740D01*
X98489236Y-132491351D01*
X98297967Y-132412125D01*
X98297966Y-132412125D01*
X98297965Y-132412124D01*
X98125827Y-132297105D01*
X97979435Y-132150713D01*
X97864416Y-131978575D01*
X97864415Y-131978573D01*
X97785189Y-131787304D01*
X97744800Y-131584256D01*
X97744800Y-131377224D01*
X97785189Y-131174176D01*
X97864415Y-130982907D01*
X97979435Y-130810767D01*
X98125827Y-130664375D01*
X98297965Y-130549356D01*
X98297967Y-130549355D01*
X98489236Y-130470129D01*
X98692284Y-130429740D01*
X98899316Y-130429740D01*
X99102364Y-130470129D01*
G37*
G36*
X122102364Y-130470129D02*
G01*
X122293633Y-130549355D01*
X122293635Y-130549356D01*
X122465773Y-130664375D01*
X122612165Y-130810767D01*
X122727185Y-130982907D01*
X122806411Y-131174176D01*
X122846800Y-131377224D01*
X122846800Y-131584256D01*
X122806411Y-131787304D01*
X122727185Y-131978573D01*
X122727184Y-131978575D01*
X122612165Y-132150713D01*
X122465773Y-132297105D01*
X122293635Y-132412124D01*
X122293634Y-132412125D01*
X122293633Y-132412125D01*
X122102364Y-132491351D01*
X121899316Y-132531740D01*
X121692284Y-132531740D01*
X121489236Y-132491351D01*
X121297967Y-132412125D01*
X121297966Y-132412125D01*
X121297965Y-132412124D01*
X121125827Y-132297105D01*
X120979435Y-132150713D01*
X120864416Y-131978575D01*
X120864415Y-131978573D01*
X120785189Y-131787304D01*
X120744800Y-131584256D01*
X120744800Y-131377224D01*
X120785189Y-131174176D01*
X120864415Y-130982907D01*
X120979435Y-130810767D01*
X121125827Y-130664375D01*
X121297965Y-130549356D01*
X121297967Y-130549355D01*
X121489236Y-130470129D01*
X121692284Y-130429740D01*
X121899316Y-130429740D01*
X122102364Y-130470129D01*
G37*
G36*
X95098385Y-127959542D02*
G01*
X95248210Y-127989344D01*
X95530474Y-128106261D01*
X95784505Y-128275999D01*
X96000541Y-128492035D01*
X96170279Y-128746066D01*
X96287196Y-129028330D01*
X96346800Y-129327980D01*
X96346800Y-129633500D01*
X96287196Y-129933150D01*
X96170279Y-130215414D01*
X96000541Y-130469445D01*
X95784505Y-130685481D01*
X95530474Y-130855219D01*
X95248210Y-130972136D01*
X95194070Y-130982905D01*
X94948561Y-131031740D01*
X94643039Y-131031740D01*
X94397530Y-130982905D01*
X94343390Y-130972136D01*
X94061126Y-130855219D01*
X93807095Y-130685481D01*
X93591059Y-130469445D01*
X93421321Y-130215414D01*
X93304404Y-129933150D01*
X93244800Y-129633500D01*
X93244800Y-129327980D01*
X93304404Y-129028330D01*
X93421321Y-128746066D01*
X93591059Y-128492035D01*
X93807095Y-128275999D01*
X94061126Y-128106261D01*
X94343390Y-127989344D01*
X94493215Y-127959542D01*
X94643039Y-127929740D01*
X94948561Y-127929740D01*
X95098385Y-127959542D01*
G37*
G36*
X126098385Y-127959542D02*
G01*
X126248210Y-127989344D01*
X126530474Y-128106261D01*
X126784505Y-128275999D01*
X127000541Y-128492035D01*
X127170279Y-128746066D01*
X127287196Y-129028330D01*
X127346800Y-129327980D01*
X127346800Y-129633500D01*
X127287196Y-129933150D01*
X127170279Y-130215414D01*
X127000541Y-130469445D01*
X126784505Y-130685481D01*
X126530474Y-130855219D01*
X126248210Y-130972136D01*
X126194070Y-130982905D01*
X125948561Y-131031740D01*
X125643039Y-131031740D01*
X125397530Y-130982905D01*
X125343390Y-130972136D01*
X125061126Y-130855219D01*
X124807095Y-130685481D01*
X124591059Y-130469445D01*
X124421321Y-130215414D01*
X124304404Y-129933150D01*
X124244800Y-129633500D01*
X124244800Y-129327980D01*
X124304404Y-129028330D01*
X124421321Y-128746066D01*
X124591059Y-128492035D01*
X124807095Y-128275999D01*
X125061126Y-128106261D01*
X125343390Y-127989344D01*
X125493215Y-127959542D01*
X125643039Y-127929740D01*
X125948561Y-127929740D01*
X126098385Y-127959542D01*
G37*
G36*
X73986800Y-128761740D02*
G01*
X73144800Y-128761740D01*
X73144800Y-126259740D01*
X73986800Y-126259740D01*
X73986800Y-128761740D01*
G37*
G36*
X76526800Y-128761740D02*
G01*
X75684800Y-128761740D01*
X75684800Y-126259740D01*
X76526800Y-126259740D01*
X76526800Y-128761740D01*
G37*
G36*
X79066800Y-128761740D02*
G01*
X78224800Y-128761740D01*
X78224800Y-126259740D01*
X79066800Y-126259740D01*
X79066800Y-128761740D01*
G37*
G36*
X77796800Y-128761740D02*
G01*
X76954800Y-128761740D01*
X76954800Y-126259740D01*
X77796800Y-126259740D01*
X77796800Y-128761740D01*
G37*
G36*
X75256800Y-128761740D02*
G01*
X74414800Y-128761740D01*
X74414800Y-126259740D01*
X75256800Y-126259740D01*
X75256800Y-128761740D01*
G37*
G36*
X132504233Y-123385633D02*
G01*
X132594457Y-123403579D01*
X132700067Y-123447325D01*
X132849421Y-123509189D01*
X132849422Y-123509190D01*
X133078886Y-123662512D01*
X133274028Y-123857654D01*
X133376475Y-124010977D01*
X133427351Y-124087119D01*
X133460331Y-124166740D01*
X133522412Y-124316615D01*
X133532961Y-124342084D01*
X133572721Y-124541970D01*
X133586800Y-124612754D01*
X133586800Y-124888726D01*
X133532961Y-125159397D01*
X133489215Y-125265007D01*
X133427351Y-125414361D01*
X133427350Y-125414362D01*
X133274028Y-125643826D01*
X133078886Y-125838968D01*
X132925563Y-125941415D01*
X132849421Y-125992291D01*
X132700067Y-126054155D01*
X132594457Y-126097901D01*
X132504233Y-126115847D01*
X132323788Y-126151740D01*
X132047812Y-126151740D01*
X131867367Y-126115847D01*
X131777143Y-126097901D01*
X131671533Y-126054155D01*
X131522179Y-125992291D01*
X131446037Y-125941415D01*
X131292714Y-125838968D01*
X131097572Y-125643826D01*
X130944250Y-125414362D01*
X130944249Y-125414361D01*
X130882385Y-125265007D01*
X130838639Y-125159397D01*
X130784800Y-124888726D01*
X130784800Y-124612754D01*
X130798880Y-124541970D01*
X130838639Y-124342084D01*
X130849189Y-124316615D01*
X130911269Y-124166740D01*
X130944249Y-124087119D01*
X130995125Y-124010977D01*
X131097572Y-123857654D01*
X131292714Y-123662512D01*
X131522178Y-123509190D01*
X131522179Y-123509189D01*
X131671533Y-123447325D01*
X131777143Y-123403579D01*
X131867367Y-123385633D01*
X132047812Y-123349740D01*
X132323788Y-123349740D01*
X132504233Y-123385633D01*
G37*
G36*
X69184233Y-123385633D02*
G01*
X69274457Y-123403579D01*
X69380067Y-123447325D01*
X69529421Y-123509189D01*
X69529422Y-123509190D01*
X69758886Y-123662512D01*
X69954028Y-123857654D01*
X70056475Y-124010977D01*
X70107351Y-124087119D01*
X70140331Y-124166740D01*
X70202412Y-124316615D01*
X70212961Y-124342084D01*
X70252721Y-124541970D01*
X70266800Y-124612754D01*
X70266800Y-124888726D01*
X70212961Y-125159397D01*
X70169215Y-125265007D01*
X70107351Y-125414361D01*
X70107350Y-125414362D01*
X69954028Y-125643826D01*
X69758886Y-125838968D01*
X69605563Y-125941415D01*
X69529421Y-125992291D01*
X69380067Y-126054155D01*
X69274457Y-126097901D01*
X69184233Y-126115847D01*
X69003788Y-126151740D01*
X68727812Y-126151740D01*
X68547367Y-126115847D01*
X68457143Y-126097901D01*
X68351533Y-126054155D01*
X68202179Y-125992291D01*
X68126037Y-125941415D01*
X67972714Y-125838968D01*
X67777572Y-125643826D01*
X67624250Y-125414362D01*
X67624249Y-125414361D01*
X67562385Y-125265007D01*
X67518639Y-125159397D01*
X67464800Y-124888726D01*
X67464800Y-124612754D01*
X67478880Y-124541970D01*
X67518639Y-124342084D01*
X67529189Y-124316615D01*
X67591269Y-124166740D01*
X67624249Y-124087119D01*
X67675125Y-124010977D01*
X67777572Y-123857654D01*
X67972714Y-123662512D01*
X68202178Y-123509190D01*
X68202179Y-123509189D01*
X68351533Y-123447325D01*
X68457143Y-123403579D01*
X68547367Y-123385633D01*
X68727812Y-123349740D01*
X69003788Y-123349740D01*
X69184233Y-123385633D01*
G37*
G36*
X88616800Y-125721740D02*
G01*
X87614800Y-125721740D01*
X87614800Y-125119740D01*
X88616800Y-125119740D01*
X88616800Y-125721740D01*
G37*
G36*
X103291800Y-125436740D02*
G01*
X101639800Y-125436740D01*
X101639800Y-124734740D01*
X103291800Y-124734740D01*
X103291800Y-125436740D01*
G37*
G36*
X108691800Y-125436740D02*
G01*
X107039800Y-125436740D01*
X107039800Y-124734740D01*
X108691800Y-124734740D01*
X108691800Y-125436740D01*
G37*
G36*
X94218378Y-124264937D02*
G01*
X94271150Y-124275434D01*
X94370570Y-124316615D01*
X94460046Y-124376401D01*
X94536139Y-124452494D01*
X94595925Y-124541970D01*
X94637106Y-124641390D01*
X94637106Y-124641391D01*
X94655675Y-124734740D01*
X94658100Y-124746934D01*
X94658100Y-124854546D01*
X94637106Y-124960090D01*
X94595925Y-125059510D01*
X94536139Y-125148986D01*
X94460046Y-125225079D01*
X94370570Y-125284865D01*
X94271150Y-125326046D01*
X94218378Y-125336543D01*
X94165607Y-125347040D01*
X94057993Y-125347040D01*
X94005222Y-125336543D01*
X93952450Y-125326046D01*
X93853030Y-125284865D01*
X93763554Y-125225079D01*
X93687461Y-125148986D01*
X93627675Y-125059510D01*
X93586494Y-124960090D01*
X93565500Y-124854546D01*
X93565500Y-124746934D01*
X93567926Y-124734740D01*
X93586494Y-124641391D01*
X93586494Y-124641390D01*
X93627675Y-124541970D01*
X93687461Y-124452494D01*
X93763554Y-124376401D01*
X93853030Y-124316615D01*
X93952450Y-124275434D01*
X94005222Y-124264937D01*
X94057993Y-124254440D01*
X94165607Y-124254440D01*
X94218378Y-124264937D01*
G37*
G36*
X92186378Y-124264937D02*
G01*
X92239150Y-124275434D01*
X92338570Y-124316615D01*
X92428046Y-124376401D01*
X92504139Y-124452494D01*
X92563925Y-124541970D01*
X92605106Y-124641390D01*
X92605106Y-124641391D01*
X92623675Y-124734740D01*
X92626100Y-124746934D01*
X92626100Y-124854546D01*
X92605106Y-124960090D01*
X92563925Y-125059510D01*
X92504139Y-125148986D01*
X92428046Y-125225079D01*
X92338570Y-125284865D01*
X92239150Y-125326046D01*
X92186378Y-125336543D01*
X92133607Y-125347040D01*
X92025993Y-125347040D01*
X91973222Y-125336543D01*
X91920450Y-125326046D01*
X91821030Y-125284865D01*
X91731554Y-125225079D01*
X91655461Y-125148986D01*
X91595675Y-125059510D01*
X91554494Y-124960090D01*
X91533500Y-124854546D01*
X91533500Y-124746934D01*
X91535926Y-124734740D01*
X91554494Y-124641391D01*
X91554494Y-124641390D01*
X91595675Y-124541970D01*
X91655461Y-124452494D01*
X91731554Y-124376401D01*
X91821030Y-124316615D01*
X91920450Y-124275434D01*
X91973222Y-124264937D01*
X92025993Y-124254440D01*
X92133607Y-124254440D01*
X92186378Y-124264937D01*
G37*
G36*
X128806800Y-125341740D02*
G01*
X127804800Y-125341740D01*
X127804800Y-124739740D01*
X128806800Y-124739740D01*
X128806800Y-125341740D01*
G37*
G36*
X77796800Y-124861740D02*
G01*
X76954800Y-124861740D01*
X76954800Y-122359740D01*
X77796800Y-122359740D01*
X77796800Y-124861740D01*
G37*
G36*
X76526800Y-124861740D02*
G01*
X75684800Y-124861740D01*
X75684800Y-122359740D01*
X76526800Y-122359740D01*
X76526800Y-124861740D01*
G37*
G36*
X75256800Y-124861740D02*
G01*
X74414800Y-124861740D01*
X74414800Y-122359740D01*
X75256800Y-122359740D01*
X75256800Y-124861740D01*
G37*
G36*
X73986800Y-124861740D02*
G01*
X73144800Y-124861740D01*
X73144800Y-122359740D01*
X73986800Y-122359740D01*
X73986800Y-124861740D01*
G37*
G36*
X79066800Y-124861740D02*
G01*
X78224800Y-124861740D01*
X78224800Y-122359740D01*
X79066800Y-122359740D01*
X79066800Y-124861740D01*
G37*
G36*
X88616800Y-124221740D02*
G01*
X87614800Y-124221740D01*
X87614800Y-123619740D01*
X88616800Y-123619740D01*
X88616800Y-124221740D01*
G37*
G36*
X108691800Y-124166740D02*
G01*
X107039800Y-124166740D01*
X107039800Y-123464740D01*
X108691800Y-123464740D01*
X108691800Y-124166740D01*
G37*
G36*
X103291800Y-124166740D02*
G01*
X101639800Y-124166740D01*
X101639800Y-123464740D01*
X103291800Y-123464740D01*
X103291800Y-124166740D01*
G37*
G36*
X93860514Y-123103129D02*
G01*
X93941445Y-123136652D01*
X94014280Y-123185319D01*
X94076221Y-123247260D01*
X94076222Y-123247262D01*
X94124889Y-123320097D01*
X94158411Y-123401026D01*
X94175500Y-123486941D01*
X94175500Y-123574539D01*
X94158411Y-123660454D01*
X94124888Y-123741385D01*
X94076221Y-123814220D01*
X94014280Y-123876161D01*
X93941445Y-123924828D01*
X93941444Y-123924829D01*
X93941443Y-123924829D01*
X93860514Y-123958351D01*
X93774601Y-123975440D01*
X93686999Y-123975440D01*
X93601086Y-123958351D01*
X93520157Y-123924829D01*
X93520156Y-123924829D01*
X93520155Y-123924828D01*
X93447320Y-123876161D01*
X93385379Y-123814220D01*
X93336712Y-123741385D01*
X93303189Y-123660454D01*
X93286100Y-123574539D01*
X93286100Y-123486941D01*
X93303189Y-123401026D01*
X93336711Y-123320097D01*
X93385378Y-123247262D01*
X93385379Y-123247260D01*
X93447320Y-123185319D01*
X93520155Y-123136652D01*
X93601086Y-123103129D01*
X93686999Y-123086040D01*
X93774601Y-123086040D01*
X93860514Y-123103129D01*
G37*
G36*
X92590514Y-123103129D02*
G01*
X92671445Y-123136652D01*
X92744280Y-123185319D01*
X92806221Y-123247260D01*
X92806222Y-123247262D01*
X92854889Y-123320097D01*
X92888411Y-123401026D01*
X92905500Y-123486941D01*
X92905500Y-123574539D01*
X92888411Y-123660454D01*
X92854888Y-123741385D01*
X92806221Y-123814220D01*
X92744280Y-123876161D01*
X92671445Y-123924828D01*
X92671444Y-123924829D01*
X92671443Y-123924829D01*
X92590514Y-123958351D01*
X92504601Y-123975440D01*
X92416999Y-123975440D01*
X92331086Y-123958351D01*
X92250157Y-123924829D01*
X92250156Y-123924829D01*
X92250155Y-123924828D01*
X92177320Y-123876161D01*
X92115379Y-123814220D01*
X92066712Y-123741385D01*
X92033189Y-123660454D01*
X92016100Y-123574539D01*
X92016100Y-123486941D01*
X92033189Y-123401026D01*
X92066711Y-123320097D01*
X92115378Y-123247262D01*
X92115379Y-123247260D01*
X92177320Y-123185319D01*
X92250155Y-123136652D01*
X92331086Y-123103129D01*
X92416999Y-123086040D01*
X92504601Y-123086040D01*
X92590514Y-123103129D01*
G37*
G36*
X128806800Y-123841740D02*
G01*
X127804800Y-123841740D01*
X127804800Y-123239740D01*
X128806800Y-123239740D01*
X128806800Y-123841740D01*
G37*
G36*
X123041800Y-123496740D02*
G01*
X121189800Y-123496740D01*
X121189800Y-121644740D01*
X123041800Y-121644740D01*
X123041800Y-123496740D01*
G37*
G36*
X114531800Y-123456740D02*
G01*
X112679800Y-123456740D01*
X112679800Y-121604740D01*
X114531800Y-121604740D01*
X114531800Y-123456740D01*
G37*
G36*
X108691800Y-122896740D02*
G01*
X107039800Y-122896740D01*
X107039800Y-122194740D01*
X108691800Y-122194740D01*
X108691800Y-122896740D01*
G37*
G36*
X103291800Y-122896740D02*
G01*
X101639800Y-122896740D01*
X101639800Y-122194740D01*
X103291800Y-122194740D01*
X103291800Y-122896740D01*
G37*
G36*
X93860514Y-121833129D02*
G01*
X93941445Y-121866652D01*
X94014280Y-121915319D01*
X94076221Y-121977260D01*
X94124888Y-122050095D01*
X94158411Y-122131026D01*
X94175500Y-122216941D01*
X94175500Y-122304539D01*
X94158411Y-122390454D01*
X94124888Y-122471385D01*
X94076221Y-122544220D01*
X94014280Y-122606161D01*
X93941445Y-122654828D01*
X93941444Y-122654829D01*
X93941443Y-122654829D01*
X93860514Y-122688351D01*
X93774601Y-122705440D01*
X93686999Y-122705440D01*
X93601086Y-122688351D01*
X93520157Y-122654829D01*
X93520156Y-122654829D01*
X93520155Y-122654828D01*
X93447320Y-122606161D01*
X93385379Y-122544220D01*
X93336712Y-122471385D01*
X93303189Y-122390454D01*
X93286100Y-122304539D01*
X93286100Y-122216941D01*
X93303189Y-122131026D01*
X93336712Y-122050095D01*
X93385379Y-121977260D01*
X93447320Y-121915319D01*
X93520155Y-121866652D01*
X93601086Y-121833129D01*
X93686999Y-121816040D01*
X93774601Y-121816040D01*
X93860514Y-121833129D01*
G37*
G36*
X92590514Y-121833129D02*
G01*
X92671445Y-121866652D01*
X92744280Y-121915319D01*
X92806221Y-121977260D01*
X92854888Y-122050095D01*
X92888411Y-122131026D01*
X92905500Y-122216941D01*
X92905500Y-122304539D01*
X92888411Y-122390454D01*
X92854888Y-122471385D01*
X92806221Y-122544220D01*
X92744280Y-122606161D01*
X92671445Y-122654828D01*
X92671444Y-122654829D01*
X92671443Y-122654829D01*
X92590514Y-122688351D01*
X92504601Y-122705440D01*
X92416999Y-122705440D01*
X92331086Y-122688351D01*
X92250157Y-122654829D01*
X92250156Y-122654829D01*
X92250155Y-122654828D01*
X92177320Y-122606161D01*
X92115379Y-122544220D01*
X92066712Y-122471385D01*
X92033189Y-122390454D01*
X92016100Y-122304539D01*
X92016100Y-122216941D01*
X92033189Y-122131026D01*
X92066712Y-122050095D01*
X92115379Y-121977260D01*
X92177320Y-121915319D01*
X92250155Y-121866652D01*
X92331086Y-121833129D01*
X92416999Y-121816040D01*
X92504601Y-121816040D01*
X92590514Y-121833129D01*
G37*
G36*
X128537999Y-119380694D02*
G01*
X128550250Y-119381296D01*
X128568669Y-119381296D01*
X128590949Y-119383490D01*
X128675033Y-119400216D01*
X128696460Y-119406716D01*
X128775658Y-119439520D01*
X128781103Y-119442431D01*
X128781109Y-119442433D01*
X128789969Y-119447169D01*
X128789973Y-119447172D01*
X128795414Y-119450080D01*
X128866699Y-119497711D01*
X128884004Y-119511912D01*
X128944628Y-119572536D01*
X128958829Y-119589841D01*
X129006460Y-119661126D01*
X129009368Y-119666567D01*
X129009371Y-119666571D01*
X129014107Y-119675431D01*
X129014109Y-119675437D01*
X129017020Y-119680882D01*
X129049824Y-119760080D01*
X129056324Y-119781507D01*
X129073050Y-119865591D01*
X129075244Y-119887871D01*
X129075244Y-119906290D01*
X129075846Y-119918541D01*
X129077652Y-119936879D01*
X129077652Y-120424600D01*
X129076063Y-120440739D01*
X129073148Y-120450348D01*
X129068410Y-120459212D01*
X129062037Y-120466977D01*
X129049594Y-120477188D01*
X129039225Y-120484118D01*
X129021898Y-120501445D01*
X129008285Y-120521820D01*
X128998909Y-120544460D01*
X128994129Y-120568493D01*
X128994130Y-120592997D01*
X128998912Y-120617030D01*
X129008290Y-120639669D01*
X129021905Y-120660042D01*
X129039232Y-120677369D01*
X129049602Y-120684298D01*
X129062037Y-120694503D01*
X129068410Y-120702268D01*
X129073148Y-120711132D01*
X129076063Y-120720741D01*
X129077652Y-120736880D01*
X129077652Y-121224602D01*
X129075846Y-121242939D01*
X129075244Y-121255190D01*
X129075244Y-121273609D01*
X129073050Y-121295889D01*
X129056324Y-121379973D01*
X129049824Y-121401400D01*
X129017020Y-121480598D01*
X129014109Y-121486043D01*
X129014107Y-121486049D01*
X129009371Y-121494909D01*
X129009368Y-121494913D01*
X129006460Y-121500354D01*
X128958829Y-121571639D01*
X128944628Y-121588944D01*
X128884004Y-121649568D01*
X128866699Y-121663769D01*
X128795414Y-121711400D01*
X128789973Y-121714308D01*
X128789969Y-121714311D01*
X128781109Y-121719047D01*
X128781103Y-121719049D01*
X128775658Y-121721960D01*
X128696460Y-121754764D01*
X128675033Y-121761264D01*
X128590949Y-121777990D01*
X128568669Y-121780184D01*
X128550250Y-121780184D01*
X128537999Y-121780786D01*
X128519662Y-121782592D01*
X128031938Y-121782592D01*
X128013601Y-121780786D01*
X128001350Y-121780184D01*
X127982931Y-121780184D01*
X127960651Y-121777990D01*
X127876567Y-121761264D01*
X127855140Y-121754764D01*
X127775942Y-121721960D01*
X127770497Y-121719049D01*
X127770491Y-121719047D01*
X127761631Y-121714311D01*
X127761627Y-121714308D01*
X127756186Y-121711400D01*
X127684901Y-121663769D01*
X127667596Y-121649568D01*
X127606972Y-121588944D01*
X127592771Y-121571639D01*
X127545140Y-121500354D01*
X127542232Y-121494913D01*
X127542229Y-121494909D01*
X127537493Y-121486049D01*
X127537491Y-121486043D01*
X127534580Y-121480598D01*
X127501776Y-121401400D01*
X127495276Y-121379973D01*
X127478550Y-121295889D01*
X127476356Y-121273609D01*
X127476356Y-121255190D01*
X127475754Y-121242939D01*
X127473948Y-121224602D01*
X127473948Y-120736880D01*
X127475537Y-120720741D01*
X127478452Y-120711132D01*
X127483190Y-120702268D01*
X127489563Y-120694503D01*
X127502006Y-120684292D01*
X127512375Y-120677362D01*
X127529702Y-120660035D01*
X127543315Y-120639660D01*
X127552691Y-120617020D01*
X127557471Y-120592987D01*
X127557470Y-120568483D01*
X127552688Y-120544450D01*
X127543310Y-120521811D01*
X127529695Y-120501438D01*
X127512368Y-120484111D01*
X127501998Y-120477182D01*
X127489563Y-120466977D01*
X127483190Y-120459212D01*
X127478452Y-120450348D01*
X127475537Y-120440739D01*
X127473948Y-120424600D01*
X127473948Y-119936879D01*
X127475754Y-119918541D01*
X127476356Y-119906290D01*
X127476356Y-119887871D01*
X127478550Y-119865591D01*
X127495276Y-119781507D01*
X127501776Y-119760080D01*
X127534580Y-119680882D01*
X127537491Y-119675437D01*
X127537493Y-119675431D01*
X127542229Y-119666571D01*
X127542232Y-119666567D01*
X127545140Y-119661126D01*
X127592771Y-119589841D01*
X127606972Y-119572536D01*
X127667596Y-119511912D01*
X127684901Y-119497711D01*
X127756186Y-119450080D01*
X127761627Y-119447172D01*
X127761631Y-119447169D01*
X127770491Y-119442433D01*
X127770497Y-119442431D01*
X127775942Y-119439520D01*
X127855140Y-119406716D01*
X127876567Y-119400216D01*
X127960651Y-119383490D01*
X127982931Y-119381296D01*
X128001350Y-119381296D01*
X128013601Y-119380694D01*
X128031939Y-119378888D01*
X128519661Y-119378888D01*
X128537999Y-119380694D01*
G37*
G36*
X90616800Y-121711740D02*
G01*
X89614800Y-121711740D01*
X89614800Y-121109740D01*
X90616800Y-121109740D01*
X90616800Y-121711740D01*
G37*
G36*
X108691800Y-121626740D02*
G01*
X107039800Y-121626740D01*
X107039800Y-120924740D01*
X108691800Y-120924740D01*
X108691800Y-121626740D01*
G37*
G36*
X103291800Y-121626740D02*
G01*
X101639800Y-121626740D01*
X101639800Y-120924740D01*
X103291800Y-120924740D01*
X103291800Y-121626740D01*
G37*
G36*
X93860514Y-120563129D02*
G01*
X93941445Y-120596652D01*
X94014280Y-120645319D01*
X94076221Y-120707260D01*
X94104786Y-120750011D01*
X94124889Y-120780097D01*
X94128996Y-120790012D01*
X94158411Y-120861026D01*
X94175500Y-120946941D01*
X94175500Y-121034539D01*
X94158411Y-121120454D01*
X94124888Y-121201385D01*
X94076221Y-121274220D01*
X94014280Y-121336161D01*
X93941445Y-121384828D01*
X93941444Y-121384829D01*
X93941443Y-121384829D01*
X93860514Y-121418351D01*
X93774601Y-121435440D01*
X93686999Y-121435440D01*
X93601086Y-121418351D01*
X93520157Y-121384829D01*
X93520156Y-121384829D01*
X93520155Y-121384828D01*
X93447320Y-121336161D01*
X93385379Y-121274220D01*
X93336712Y-121201385D01*
X93303189Y-121120454D01*
X93286100Y-121034539D01*
X93286100Y-120946941D01*
X93303189Y-120861026D01*
X93332604Y-120790012D01*
X93336711Y-120780097D01*
X93356814Y-120750011D01*
X93385379Y-120707260D01*
X93447320Y-120645319D01*
X93520155Y-120596652D01*
X93601086Y-120563129D01*
X93686999Y-120546040D01*
X93774601Y-120546040D01*
X93860514Y-120563129D01*
G37*
G36*
X92590514Y-120563129D02*
G01*
X92671445Y-120596652D01*
X92744280Y-120645319D01*
X92806221Y-120707260D01*
X92834786Y-120750011D01*
X92854889Y-120780097D01*
X92858996Y-120790012D01*
X92888411Y-120861026D01*
X92905500Y-120946941D01*
X92905500Y-121034539D01*
X92888411Y-121120454D01*
X92854888Y-121201385D01*
X92806221Y-121274220D01*
X92744280Y-121336161D01*
X92671445Y-121384828D01*
X92671444Y-121384829D01*
X92671443Y-121384829D01*
X92590514Y-121418351D01*
X92504601Y-121435440D01*
X92416999Y-121435440D01*
X92331086Y-121418351D01*
X92250157Y-121384829D01*
X92250156Y-121384829D01*
X92250155Y-121384828D01*
X92177320Y-121336161D01*
X92115379Y-121274220D01*
X92066712Y-121201385D01*
X92033189Y-121120454D01*
X92016100Y-121034539D01*
X92016100Y-120946941D01*
X92033189Y-120861026D01*
X92062604Y-120790012D01*
X92066711Y-120780097D01*
X92086814Y-120750011D01*
X92115379Y-120707260D01*
X92177320Y-120645319D01*
X92250155Y-120596652D01*
X92331086Y-120563129D01*
X92416999Y-120546040D01*
X92504601Y-120546040D01*
X92590514Y-120563129D01*
G37*
G36*
X122385904Y-119180325D02*
G01*
X122554426Y-119250129D01*
X122706091Y-119351468D01*
X122835072Y-119480449D01*
X122936411Y-119632114D01*
X123006215Y-119800636D01*
X123041800Y-119979537D01*
X123041800Y-120161943D01*
X123006215Y-120340844D01*
X122936411Y-120509366D01*
X122835072Y-120661031D01*
X122706091Y-120790012D01*
X122554426Y-120891351D01*
X122385904Y-120961155D01*
X122207003Y-120996740D01*
X122024597Y-120996740D01*
X121845696Y-120961155D01*
X121677174Y-120891351D01*
X121525509Y-120790012D01*
X121396528Y-120661031D01*
X121295189Y-120509366D01*
X121225385Y-120340844D01*
X121189800Y-120161943D01*
X121189800Y-119979537D01*
X121225385Y-119800636D01*
X121295189Y-119632114D01*
X121396528Y-119480449D01*
X121525509Y-119351468D01*
X121677174Y-119250129D01*
X121845696Y-119180325D01*
X122024597Y-119144740D01*
X122207003Y-119144740D01*
X122385904Y-119180325D01*
G37*
G36*
X113875904Y-119140325D02*
G01*
X114044426Y-119210129D01*
X114196091Y-119311468D01*
X114325072Y-119440449D01*
X114426411Y-119592114D01*
X114496215Y-119760636D01*
X114531800Y-119939537D01*
X114531800Y-120121943D01*
X114496215Y-120300844D01*
X114426411Y-120469366D01*
X114325072Y-120621031D01*
X114196091Y-120750012D01*
X114044426Y-120851351D01*
X113875904Y-120921155D01*
X113697003Y-120956740D01*
X113514597Y-120956740D01*
X113335696Y-120921155D01*
X113167174Y-120851351D01*
X113015509Y-120750012D01*
X112886528Y-120621031D01*
X112785189Y-120469366D01*
X112715385Y-120300844D01*
X112679800Y-120121943D01*
X112679800Y-119939537D01*
X112715385Y-119760636D01*
X112785189Y-119592114D01*
X112886528Y-119440449D01*
X113015509Y-119311468D01*
X113167174Y-119210129D01*
X113335696Y-119140325D01*
X113514597Y-119104740D01*
X113697003Y-119104740D01*
X113875904Y-119140325D01*
G37*
G36*
X85561800Y-115639741D02*
G01*
X85564202Y-115664127D01*
X85571315Y-115687576D01*
X85582866Y-115709187D01*
X85598411Y-115728129D01*
X85617353Y-115743674D01*
X85638964Y-115755225D01*
X85662413Y-115762338D01*
X85686799Y-115764740D01*
X86436800Y-115764740D01*
X86436800Y-119616740D01*
X85686799Y-119616740D01*
X85662413Y-119619142D01*
X85638964Y-119626255D01*
X85617353Y-119637806D01*
X85598411Y-119653351D01*
X85582866Y-119672293D01*
X85571315Y-119693904D01*
X85564202Y-119717353D01*
X85561800Y-119741739D01*
X85561800Y-120491740D01*
X81709800Y-120491740D01*
X81709800Y-119741739D01*
X81707398Y-119717353D01*
X81700285Y-119693904D01*
X81688734Y-119672293D01*
X81673189Y-119653351D01*
X81654247Y-119637806D01*
X81632636Y-119626255D01*
X81609187Y-119619142D01*
X81584801Y-119616740D01*
X80834800Y-119616740D01*
X80834800Y-115764740D01*
X81584801Y-115764740D01*
X81609187Y-115762338D01*
X81632636Y-115755225D01*
X81654247Y-115743674D01*
X81673189Y-115728129D01*
X81688734Y-115709187D01*
X81700285Y-115687576D01*
X81707398Y-115664127D01*
X81709800Y-115639741D01*
X81709800Y-114889740D01*
X85561800Y-114889740D01*
X85561800Y-115639741D01*
G37*
G36*
X93179192Y-119180325D02*
G01*
X93255150Y-119195434D01*
X93354570Y-119236615D01*
X93444046Y-119296401D01*
X93520139Y-119372494D01*
X93579925Y-119461970D01*
X93621106Y-119561390D01*
X93630723Y-119609740D01*
X93642100Y-119666933D01*
X93642100Y-119774547D01*
X93636910Y-119800636D01*
X93621106Y-119880090D01*
X93579925Y-119979510D01*
X93520139Y-120068986D01*
X93444046Y-120145079D01*
X93354570Y-120204865D01*
X93255150Y-120246046D01*
X93202378Y-120256543D01*
X93149607Y-120267040D01*
X93041993Y-120267040D01*
X92989222Y-120256543D01*
X92936450Y-120246046D01*
X92837030Y-120204865D01*
X92747554Y-120145079D01*
X92671461Y-120068986D01*
X92611675Y-119979510D01*
X92570494Y-119880090D01*
X92554690Y-119800636D01*
X92549500Y-119774547D01*
X92549500Y-119666933D01*
X92560877Y-119609740D01*
X92570494Y-119561390D01*
X92611675Y-119461970D01*
X92671461Y-119372494D01*
X92747554Y-119296401D01*
X92837030Y-119236615D01*
X92936450Y-119195434D01*
X93012408Y-119180325D01*
X93041993Y-119174440D01*
X93149607Y-119174440D01*
X93179192Y-119180325D01*
G37*
G36*
X90616800Y-120211740D02*
G01*
X89614800Y-120211740D01*
X89614800Y-119609740D01*
X90616800Y-119609740D01*
X90616800Y-120211740D01*
G37*
G36*
X106656800Y-118966740D02*
G01*
X105754800Y-118966740D01*
X105754800Y-118114740D01*
X106656800Y-118114740D01*
X106656800Y-118966740D01*
G37*
G36*
X108156800Y-118966740D02*
G01*
X107254800Y-118966740D01*
X107254800Y-118114740D01*
X108156800Y-118114740D01*
X108156800Y-118966740D01*
G37*
G36*
X100892364Y-116630129D02*
G01*
X101083633Y-116709355D01*
X101083635Y-116709356D01*
X101166523Y-116764740D01*
X101255773Y-116824375D01*
X101402165Y-116970767D01*
X101517185Y-117142907D01*
X101596411Y-117334176D01*
X101636800Y-117537224D01*
X101636800Y-117744256D01*
X101596411Y-117947304D01*
X101517185Y-118138573D01*
X101517184Y-118138575D01*
X101402165Y-118310713D01*
X101255773Y-118457105D01*
X101083635Y-118572124D01*
X101083634Y-118572125D01*
X101083633Y-118572125D01*
X100892364Y-118651351D01*
X100689316Y-118691740D01*
X100482284Y-118691740D01*
X100279236Y-118651351D01*
X100087967Y-118572125D01*
X100087966Y-118572125D01*
X100087965Y-118572124D01*
X99915827Y-118457105D01*
X99769435Y-118310713D01*
X99654416Y-118138575D01*
X99654415Y-118138573D01*
X99575189Y-117947304D01*
X99534800Y-117744256D01*
X99534800Y-117537224D01*
X99575189Y-117334176D01*
X99654415Y-117142907D01*
X99769435Y-116970767D01*
X99915827Y-116824375D01*
X100005077Y-116764740D01*
X100087965Y-116709356D01*
X100087967Y-116709355D01*
X100279236Y-116630129D01*
X100482284Y-116589740D01*
X100689316Y-116589740D01*
X100892364Y-116630129D01*
G37*
G36*
X77861800Y-117691740D02*
G01*
X77009800Y-117691740D01*
X77009800Y-116789740D01*
X77861800Y-116789740D01*
X77861800Y-117691740D01*
G37*
G36*
X76361800Y-117671740D02*
G01*
X75509800Y-117671740D01*
X75509800Y-116769740D01*
X76361800Y-116769740D01*
X76361800Y-117671740D01*
G37*
G36*
X108176800Y-116696740D02*
G01*
X107274800Y-116696740D01*
X107274800Y-115844740D01*
X108176800Y-115844740D01*
X108176800Y-116696740D01*
G37*
G36*
X106676800Y-116696740D02*
G01*
X105774800Y-116696740D01*
X105774800Y-115844740D01*
X106676800Y-115844740D01*
X106676800Y-116696740D01*
G37*
G36*
X77861800Y-116191740D02*
G01*
X77009800Y-116191740D01*
X77009800Y-115289740D01*
X77861800Y-115289740D01*
X77861800Y-116191740D01*
G37*
G36*
X76361800Y-116171740D02*
G01*
X75509800Y-116171740D01*
X75509800Y-115269740D01*
X76361800Y-115269740D01*
X76361800Y-116171740D01*
G37*
G36*
X104796800Y-113851740D02*
G01*
X99694800Y-113851740D01*
X99694800Y-112249740D01*
X104796800Y-112249740D01*
X104796800Y-113851740D01*
G37*
G36*
X91796800Y-112286740D02*
G01*
X90894800Y-112286740D01*
X90894800Y-111434740D01*
X91796800Y-111434740D01*
X91796800Y-112286740D01*
G37*
G36*
X93296800Y-112286740D02*
G01*
X92394800Y-112286740D01*
X92394800Y-111434740D01*
X93296800Y-111434740D01*
X93296800Y-112286740D01*
G37*
G36*
X84826800Y-112091740D02*
G01*
X83924800Y-112091740D01*
X83924800Y-111189740D01*
X84826800Y-111189740D01*
X84826800Y-112091740D01*
G37*
G36*
X83196800Y-111941740D02*
G01*
X82194800Y-111941740D01*
X82194800Y-111339740D01*
X83196800Y-111339740D01*
X83196800Y-111941740D01*
G37*
G36*
X84826800Y-110591740D02*
G01*
X83924800Y-110591740D01*
X83924800Y-109689740D01*
X84826800Y-109689740D01*
X84826800Y-110591740D01*
G37*
G36*
X83196800Y-110441740D02*
G01*
X82194800Y-110441740D01*
X82194800Y-109839740D01*
X83196800Y-109839740D01*
X83196800Y-110441740D01*
G37*
G36*
X93446800Y-109911740D02*
G01*
X92344800Y-109911740D01*
X92344800Y-108909740D01*
X93446800Y-108909740D01*
X93446800Y-109911740D01*
G37*
G36*
X91846800Y-109911740D02*
G01*
X90744800Y-109911740D01*
X90744800Y-108909740D01*
X91846800Y-108909740D01*
X91846800Y-109911740D01*
G37*
G36*
X98811800Y-108571740D02*
G01*
X97959800Y-108571740D01*
X97959800Y-107669740D01*
X98811800Y-107669740D01*
X98811800Y-108571740D01*
G37*
G36*
X104796800Y-107951740D02*
G01*
X99694800Y-107951740D01*
X99694800Y-106349740D01*
X104796800Y-106349740D01*
X104796800Y-107951740D01*
G37*
G36*
X89316800Y-107311740D02*
G01*
X88314800Y-107311740D01*
X88314800Y-106709740D01*
X89316800Y-106709740D01*
X89316800Y-107311740D01*
G37*
G36*
X98811800Y-107071740D02*
G01*
X97959800Y-107071740D01*
X97959800Y-106169740D01*
X98811800Y-106169740D01*
X98811800Y-107071740D01*
G37*
G36*
X109093565Y-104365143D02*
G01*
X109216245Y-104389545D01*
X109447371Y-104485281D01*
X109655378Y-104624267D01*
X109832273Y-104801162D01*
X109971259Y-105009169D01*
X110054339Y-105209740D01*
X110066995Y-105240296D01*
X110115800Y-105485655D01*
X110115800Y-105735825D01*
X110091397Y-105858505D01*
X110066995Y-105981185D01*
X109971259Y-106212311D01*
X109832273Y-106420318D01*
X109655378Y-106597213D01*
X109447371Y-106736199D01*
X109216245Y-106831935D01*
X109093564Y-106856338D01*
X108970885Y-106880740D01*
X108720715Y-106880740D01*
X108598036Y-106856338D01*
X108475355Y-106831935D01*
X108244229Y-106736199D01*
X108036222Y-106597213D01*
X107859327Y-106420318D01*
X107720341Y-106212311D01*
X107624605Y-105981185D01*
X107600203Y-105858505D01*
X107575800Y-105735825D01*
X107575800Y-105485655D01*
X107624605Y-105240296D01*
X107637262Y-105209740D01*
X107720341Y-105009169D01*
X107859327Y-104801162D01*
X108036222Y-104624267D01*
X108244229Y-104485281D01*
X108475355Y-104389545D01*
X108598036Y-104365142D01*
X108720715Y-104340740D01*
X108970885Y-104340740D01*
X109093565Y-104365143D01*
G37*
G36*
X91846800Y-105811740D02*
G01*
X90744800Y-105811740D01*
X90744800Y-104809740D01*
X91846800Y-104809740D01*
X91846800Y-105811740D01*
G37*
G36*
X93446800Y-105811740D02*
G01*
X92344800Y-105811740D01*
X92344800Y-104809740D01*
X93446800Y-104809740D01*
X93446800Y-105811740D01*
G37*
G36*
X89316800Y-105811740D02*
G01*
X88314800Y-105811740D01*
X88314800Y-105209740D01*
X89316800Y-105209740D01*
X89316800Y-105811740D01*
G37*
G36*
X98409312Y-103364667D02*
G01*
X98558612Y-103394364D01*
X98722584Y-103462284D01*
X98870154Y-103560887D01*
X98995653Y-103686386D01*
X99094256Y-103833956D01*
X99162176Y-103997928D01*
X99196800Y-104171999D01*
X99196800Y-104349481D01*
X99162176Y-104523552D01*
X99094256Y-104687524D01*
X98995653Y-104835094D01*
X98870154Y-104960593D01*
X98722584Y-105059196D01*
X98558612Y-105127116D01*
X98409312Y-105156813D01*
X98384542Y-105161740D01*
X98207058Y-105161740D01*
X98182288Y-105156813D01*
X98032988Y-105127116D01*
X97869016Y-105059196D01*
X97721446Y-104960593D01*
X97595947Y-104835094D01*
X97497344Y-104687524D01*
X97429424Y-104523552D01*
X97394800Y-104349481D01*
X97394800Y-104171999D01*
X97429424Y-103997928D01*
X97497344Y-103833956D01*
X97595947Y-103686386D01*
X97721446Y-103560887D01*
X97869016Y-103462284D01*
X98032988Y-103394364D01*
X98182288Y-103364667D01*
X98207058Y-103359740D01*
X98384542Y-103359740D01*
X98409312Y-103364667D01*
G37*
G36*
X100949312Y-103364667D02*
G01*
X101098612Y-103394364D01*
X101262584Y-103462284D01*
X101410154Y-103560887D01*
X101535653Y-103686386D01*
X101634256Y-103833956D01*
X101702176Y-103997928D01*
X101736800Y-104171999D01*
X101736800Y-104349481D01*
X101702176Y-104523552D01*
X101634256Y-104687524D01*
X101535653Y-104835094D01*
X101410154Y-104960593D01*
X101262584Y-105059196D01*
X101098612Y-105127116D01*
X100949312Y-105156813D01*
X100924542Y-105161740D01*
X100747058Y-105161740D01*
X100722288Y-105156813D01*
X100572988Y-105127116D01*
X100409016Y-105059196D01*
X100261446Y-104960593D01*
X100135947Y-104835094D01*
X100037344Y-104687524D01*
X99969424Y-104523552D01*
X99934800Y-104349481D01*
X99934800Y-104171999D01*
X99969424Y-103997928D01*
X100037344Y-103833956D01*
X100135947Y-103686386D01*
X100261446Y-103560887D01*
X100409016Y-103462284D01*
X100572988Y-103394364D01*
X100722288Y-103364667D01*
X100747058Y-103359740D01*
X100924542Y-103359740D01*
X100949312Y-103364667D01*
G37*
G36*
X104276800Y-105161740D02*
G01*
X102474800Y-105161740D01*
X102474800Y-103359740D01*
X104276800Y-103359740D01*
X104276800Y-105161740D01*
G37*
M02*
