G04 #@! TF.GenerationSoftware,KiCad,Pcbnew,(5.1.5)-3*
G04 #@! TF.CreationDate,2020-06-04T15:01:54+02:00*
G04 #@! TF.ProjectId,StepperClockK02,53746570-7065-4724-936c-6f636b4b3032,v1.0*
G04 #@! TF.SameCoordinates,Original*
G04 #@! TF.FileFunction,Legend,Top*
G04 #@! TF.FilePolarity,Positive*
%FSLAX46Y46*%
G04 Gerber Fmt 4.6, Leading zero omitted, Abs format (unit mm)*
G04 Created by KiCad (PCBNEW (5.1.5)-3) date 2020-06-04 15:01:54*
%MOMM*%
%LPD*%
G04 APERTURE LIST*
%ADD10C,0.200000*%
%ADD11C,0.500000*%
%ADD12C,0.120000*%
%ADD13C,0.150000*%
G04 APERTURE END LIST*
D10*
X98759609Y-178363120D02*
X98759609Y-177363120D01*
X99140561Y-177363120D01*
X99235800Y-177410740D01*
X99283419Y-177458359D01*
X99331038Y-177553597D01*
X99331038Y-177696454D01*
X99283419Y-177791692D01*
X99235800Y-177839311D01*
X99140561Y-177886930D01*
X98759609Y-177886930D01*
X99902466Y-178363120D02*
X99807228Y-178315501D01*
X99759609Y-178267882D01*
X99711990Y-178172644D01*
X99711990Y-177886930D01*
X99759609Y-177791692D01*
X99807228Y-177744073D01*
X99902466Y-177696454D01*
X100045323Y-177696454D01*
X100140561Y-177744073D01*
X100188180Y-177791692D01*
X100235800Y-177886930D01*
X100235800Y-178172644D01*
X100188180Y-178267882D01*
X100140561Y-178315501D01*
X100045323Y-178363120D01*
X99902466Y-178363120D01*
X100569133Y-177696454D02*
X100759609Y-178363120D01*
X100950085Y-177886930D01*
X101140561Y-178363120D01*
X101331038Y-177696454D01*
X102092942Y-178315501D02*
X101997704Y-178363120D01*
X101807228Y-178363120D01*
X101711990Y-178315501D01*
X101664371Y-178220263D01*
X101664371Y-177839311D01*
X101711990Y-177744073D01*
X101807228Y-177696454D01*
X101997704Y-177696454D01*
X102092942Y-177744073D01*
X102140561Y-177839311D01*
X102140561Y-177934549D01*
X101664371Y-178029787D01*
X102569133Y-178363120D02*
X102569133Y-177696454D01*
X102569133Y-177886930D02*
X102616752Y-177791692D01*
X102664371Y-177744073D01*
X102759609Y-177696454D01*
X102854847Y-177696454D01*
X115821514Y-116523120D02*
X115488180Y-116046930D01*
X115250085Y-116523120D02*
X115250085Y-115523120D01*
X115631038Y-115523120D01*
X115726276Y-115570740D01*
X115773895Y-115618359D01*
X115821514Y-115713597D01*
X115821514Y-115856454D01*
X115773895Y-115951692D01*
X115726276Y-115999311D01*
X115631038Y-116046930D01*
X115250085Y-116046930D01*
X116202466Y-116475501D02*
X116345323Y-116523120D01*
X116583419Y-116523120D01*
X116678657Y-116475501D01*
X116726276Y-116427882D01*
X116773895Y-116332644D01*
X116773895Y-116237406D01*
X116726276Y-116142168D01*
X116678657Y-116094549D01*
X116583419Y-116046930D01*
X116392942Y-115999311D01*
X116297704Y-115951692D01*
X116250085Y-115904073D01*
X116202466Y-115808835D01*
X116202466Y-115713597D01*
X116250085Y-115618359D01*
X116297704Y-115570740D01*
X116392942Y-115523120D01*
X116631038Y-115523120D01*
X116773895Y-115570740D01*
X117202466Y-116142168D02*
X117964371Y-116142168D01*
X118869133Y-115856454D02*
X118869133Y-116523120D01*
X118631038Y-115475501D02*
X118392942Y-116189787D01*
X119011990Y-116189787D01*
X119535800Y-115951692D02*
X119440561Y-115904073D01*
X119392942Y-115856454D01*
X119345323Y-115761216D01*
X119345323Y-115713597D01*
X119392942Y-115618359D01*
X119440561Y-115570740D01*
X119535800Y-115523120D01*
X119726276Y-115523120D01*
X119821514Y-115570740D01*
X119869133Y-115618359D01*
X119916752Y-115713597D01*
X119916752Y-115761216D01*
X119869133Y-115856454D01*
X119821514Y-115904073D01*
X119726276Y-115951692D01*
X119535800Y-115951692D01*
X119440561Y-115999311D01*
X119392942Y-116046930D01*
X119345323Y-116142168D01*
X119345323Y-116332644D01*
X119392942Y-116427882D01*
X119440561Y-116475501D01*
X119535800Y-116523120D01*
X119726276Y-116523120D01*
X119821514Y-116475501D01*
X119869133Y-116427882D01*
X119916752Y-116332644D01*
X119916752Y-116142168D01*
X119869133Y-116046930D01*
X119821514Y-115999311D01*
X119726276Y-115951692D01*
X120821514Y-115523120D02*
X120345323Y-115523120D01*
X120297704Y-115999311D01*
X120345323Y-115951692D01*
X120440561Y-115904073D01*
X120678657Y-115904073D01*
X120773895Y-115951692D01*
X120821514Y-115999311D01*
X120869133Y-116094549D01*
X120869133Y-116332644D01*
X120821514Y-116427882D01*
X120773895Y-116475501D01*
X120678657Y-116523120D01*
X120440561Y-116523120D01*
X120345323Y-116475501D01*
X120297704Y-116427882D01*
X109837704Y-122877406D02*
X110313895Y-122877406D01*
X109742466Y-123163120D02*
X110075800Y-122163120D01*
X110409133Y-123163120D01*
X110117228Y-119769311D02*
X110260085Y-119816930D01*
X110307704Y-119864549D01*
X110355323Y-119959787D01*
X110355323Y-120102644D01*
X110307704Y-120197882D01*
X110260085Y-120245501D01*
X110164847Y-120293120D01*
X109783895Y-120293120D01*
X109783895Y-119293120D01*
X110117228Y-119293120D01*
X110212466Y-119340740D01*
X110260085Y-119388359D01*
X110307704Y-119483597D01*
X110307704Y-119578835D01*
X110260085Y-119674073D01*
X110212466Y-119721692D01*
X110117228Y-119769311D01*
X109783895Y-119769311D01*
X118447228Y-119869311D02*
X118590085Y-119916930D01*
X118637704Y-119964549D01*
X118685323Y-120059787D01*
X118685323Y-120202644D01*
X118637704Y-120297882D01*
X118590085Y-120345501D01*
X118494847Y-120393120D01*
X118113895Y-120393120D01*
X118113895Y-119393120D01*
X118447228Y-119393120D01*
X118542466Y-119440740D01*
X118590085Y-119488359D01*
X118637704Y-119583597D01*
X118637704Y-119678835D01*
X118590085Y-119774073D01*
X118542466Y-119821692D01*
X118447228Y-119869311D01*
X118113895Y-119869311D01*
X118077704Y-122817406D02*
X118553895Y-122817406D01*
X117982466Y-123103120D02*
X118315800Y-122103120D01*
X118649133Y-123103120D01*
X86947704Y-108893120D02*
X86614371Y-108416930D01*
X86376276Y-108893120D02*
X86376276Y-107893120D01*
X86757228Y-107893120D01*
X86852466Y-107940740D01*
X86900085Y-107988359D01*
X86947704Y-108083597D01*
X86947704Y-108226454D01*
X86900085Y-108321692D01*
X86852466Y-108369311D01*
X86757228Y-108416930D01*
X86376276Y-108416930D01*
X87757228Y-108845501D02*
X87661990Y-108893120D01*
X87471514Y-108893120D01*
X87376276Y-108845501D01*
X87328657Y-108750263D01*
X87328657Y-108369311D01*
X87376276Y-108274073D01*
X87471514Y-108226454D01*
X87661990Y-108226454D01*
X87757228Y-108274073D01*
X87804847Y-108369311D01*
X87804847Y-108464549D01*
X87328657Y-108559787D01*
X88185800Y-108845501D02*
X88281038Y-108893120D01*
X88471514Y-108893120D01*
X88566752Y-108845501D01*
X88614371Y-108750263D01*
X88614371Y-108702644D01*
X88566752Y-108607406D01*
X88471514Y-108559787D01*
X88328657Y-108559787D01*
X88233419Y-108512168D01*
X88185800Y-108416930D01*
X88185800Y-108369311D01*
X88233419Y-108274073D01*
X88328657Y-108226454D01*
X88471514Y-108226454D01*
X88566752Y-108274073D01*
X89423895Y-108845501D02*
X89328657Y-108893120D01*
X89138180Y-108893120D01*
X89042942Y-108845501D01*
X88995323Y-108750263D01*
X88995323Y-108369311D01*
X89042942Y-108274073D01*
X89138180Y-108226454D01*
X89328657Y-108226454D01*
X89423895Y-108274073D01*
X89471514Y-108369311D01*
X89471514Y-108464549D01*
X88995323Y-108559787D01*
X89757228Y-108226454D02*
X90138180Y-108226454D01*
X89900085Y-107893120D02*
X89900085Y-108750263D01*
X89947704Y-108845501D01*
X90042942Y-108893120D01*
X90138180Y-108893120D01*
X91413895Y-168400740D02*
X91318657Y-168353120D01*
X91175800Y-168353120D01*
X91032942Y-168400740D01*
X90937704Y-168495978D01*
X90890085Y-168591216D01*
X90842466Y-168781692D01*
X90842466Y-168924549D01*
X90890085Y-169115025D01*
X90937704Y-169210263D01*
X91032942Y-169305501D01*
X91175800Y-169353120D01*
X91271038Y-169353120D01*
X91413895Y-169305501D01*
X91461514Y-169257882D01*
X91461514Y-168924549D01*
X91271038Y-168924549D01*
X91890085Y-169353120D02*
X91890085Y-168353120D01*
X92461514Y-169353120D01*
X92461514Y-168353120D01*
X92937704Y-169353120D02*
X92937704Y-168353120D01*
X93175800Y-168353120D01*
X93318657Y-168400740D01*
X93413895Y-168495978D01*
X93461514Y-168591216D01*
X93509133Y-168781692D01*
X93509133Y-168924549D01*
X93461514Y-169115025D01*
X93413895Y-169210263D01*
X93318657Y-169305501D01*
X93175800Y-169353120D01*
X92937704Y-169353120D01*
X91483895Y-165930740D02*
X91388657Y-165883120D01*
X91245800Y-165883120D01*
X91102942Y-165930740D01*
X91007704Y-166025978D01*
X90960085Y-166121216D01*
X90912466Y-166311692D01*
X90912466Y-166454549D01*
X90960085Y-166645025D01*
X91007704Y-166740263D01*
X91102942Y-166835501D01*
X91245800Y-166883120D01*
X91341038Y-166883120D01*
X91483895Y-166835501D01*
X91531514Y-166787882D01*
X91531514Y-166454549D01*
X91341038Y-166454549D01*
X91960085Y-166883120D02*
X91960085Y-165883120D01*
X92531514Y-166883120D01*
X92531514Y-165883120D01*
X93007704Y-166883120D02*
X93007704Y-165883120D01*
X93245800Y-165883120D01*
X93388657Y-165930740D01*
X93483895Y-166025978D01*
X93531514Y-166121216D01*
X93579133Y-166311692D01*
X93579133Y-166454549D01*
X93531514Y-166645025D01*
X93483895Y-166740263D01*
X93388657Y-166835501D01*
X93245800Y-166883120D01*
X93007704Y-166883120D01*
X108443895Y-165970740D02*
X108348657Y-165923120D01*
X108205800Y-165923120D01*
X108062942Y-165970740D01*
X107967704Y-166065978D01*
X107920085Y-166161216D01*
X107872466Y-166351692D01*
X107872466Y-166494549D01*
X107920085Y-166685025D01*
X107967704Y-166780263D01*
X108062942Y-166875501D01*
X108205800Y-166923120D01*
X108301038Y-166923120D01*
X108443895Y-166875501D01*
X108491514Y-166827882D01*
X108491514Y-166494549D01*
X108301038Y-166494549D01*
X108920085Y-166923120D02*
X108920085Y-165923120D01*
X109491514Y-166923120D01*
X109491514Y-165923120D01*
X109967704Y-166923120D02*
X109967704Y-165923120D01*
X110205800Y-165923120D01*
X110348657Y-165970740D01*
X110443895Y-166065978D01*
X110491514Y-166161216D01*
X110539133Y-166351692D01*
X110539133Y-166494549D01*
X110491514Y-166685025D01*
X110443895Y-166780263D01*
X110348657Y-166875501D01*
X110205800Y-166923120D01*
X109967704Y-166923120D01*
X108373895Y-168510740D02*
X108278657Y-168463120D01*
X108135800Y-168463120D01*
X107992942Y-168510740D01*
X107897704Y-168605978D01*
X107850085Y-168701216D01*
X107802466Y-168891692D01*
X107802466Y-169034549D01*
X107850085Y-169225025D01*
X107897704Y-169320263D01*
X107992942Y-169415501D01*
X108135800Y-169463120D01*
X108231038Y-169463120D01*
X108373895Y-169415501D01*
X108421514Y-169367882D01*
X108421514Y-169034549D01*
X108231038Y-169034549D01*
X108850085Y-169463120D02*
X108850085Y-168463120D01*
X109421514Y-169463120D01*
X109421514Y-168463120D01*
X109897704Y-169463120D02*
X109897704Y-168463120D01*
X110135800Y-168463120D01*
X110278657Y-168510740D01*
X110373895Y-168605978D01*
X110421514Y-168701216D01*
X110469133Y-168891692D01*
X110469133Y-169034549D01*
X110421514Y-169225025D01*
X110373895Y-169320263D01*
X110278657Y-169415501D01*
X110135800Y-169463120D01*
X109897704Y-169463120D01*
X108795323Y-171013120D02*
X108319133Y-171013120D01*
X108271514Y-171489311D01*
X108319133Y-171441692D01*
X108414371Y-171394073D01*
X108652466Y-171394073D01*
X108747704Y-171441692D01*
X108795323Y-171489311D01*
X108842942Y-171584549D01*
X108842942Y-171822644D01*
X108795323Y-171917882D01*
X108747704Y-171965501D01*
X108652466Y-172013120D01*
X108414371Y-172013120D01*
X108319133Y-171965501D01*
X108271514Y-171917882D01*
X109128657Y-171013120D02*
X109461990Y-172013120D01*
X109795323Y-171013120D01*
X92045323Y-170943120D02*
X91569133Y-170943120D01*
X91521514Y-171419311D01*
X91569133Y-171371692D01*
X91664371Y-171324073D01*
X91902466Y-171324073D01*
X91997704Y-171371692D01*
X92045323Y-171419311D01*
X92092942Y-171514549D01*
X92092942Y-171752644D01*
X92045323Y-171847882D01*
X91997704Y-171895501D01*
X91902466Y-171943120D01*
X91664371Y-171943120D01*
X91569133Y-171895501D01*
X91521514Y-171847882D01*
X92378657Y-170943120D02*
X92711990Y-171943120D01*
X93045323Y-170943120D01*
X108945323Y-173453120D02*
X108469133Y-173453120D01*
X108421514Y-173929311D01*
X108469133Y-173881692D01*
X108564371Y-173834073D01*
X108802466Y-173834073D01*
X108897704Y-173881692D01*
X108945323Y-173929311D01*
X108992942Y-174024549D01*
X108992942Y-174262644D01*
X108945323Y-174357882D01*
X108897704Y-174405501D01*
X108802466Y-174453120D01*
X108564371Y-174453120D01*
X108469133Y-174405501D01*
X108421514Y-174357882D01*
X109278657Y-173453120D02*
X109611990Y-174453120D01*
X109945323Y-173453120D01*
X92005323Y-173413120D02*
X91529133Y-173413120D01*
X91481514Y-173889311D01*
X91529133Y-173841692D01*
X91624371Y-173794073D01*
X91862466Y-173794073D01*
X91957704Y-173841692D01*
X92005323Y-173889311D01*
X92052942Y-173984549D01*
X92052942Y-174222644D01*
X92005323Y-174317882D01*
X91957704Y-174365501D01*
X91862466Y-174413120D01*
X91624371Y-174413120D01*
X91529133Y-174365501D01*
X91481514Y-174317882D01*
X92338657Y-173413120D02*
X92671990Y-174413120D01*
X93005323Y-173413120D01*
X91138180Y-127173120D02*
X91138180Y-126173120D01*
X91376276Y-126173120D01*
X91519133Y-126220740D01*
X91614371Y-126315978D01*
X91661990Y-126411216D01*
X91709609Y-126601692D01*
X91709609Y-126744549D01*
X91661990Y-126935025D01*
X91614371Y-127030263D01*
X91519133Y-127125501D01*
X91376276Y-127173120D01*
X91138180Y-127173120D01*
X92519133Y-127125501D02*
X92423895Y-127173120D01*
X92233419Y-127173120D01*
X92138180Y-127125501D01*
X92090561Y-127030263D01*
X92090561Y-126649311D01*
X92138180Y-126554073D01*
X92233419Y-126506454D01*
X92423895Y-126506454D01*
X92519133Y-126554073D01*
X92566752Y-126649311D01*
X92566752Y-126744549D01*
X92090561Y-126839787D01*
X92995323Y-127173120D02*
X92995323Y-126173120D01*
X92995323Y-126554073D02*
X93090561Y-126506454D01*
X93281038Y-126506454D01*
X93376276Y-126554073D01*
X93423895Y-126601692D01*
X93471514Y-126696930D01*
X93471514Y-126982644D01*
X93423895Y-127077882D01*
X93376276Y-127125501D01*
X93281038Y-127173120D01*
X93090561Y-127173120D01*
X92995323Y-127125501D01*
X94328657Y-126506454D02*
X94328657Y-127173120D01*
X93900085Y-126506454D02*
X93900085Y-127030263D01*
X93947704Y-127125501D01*
X94042942Y-127173120D01*
X94185800Y-127173120D01*
X94281038Y-127125501D01*
X94328657Y-127077882D01*
X95233419Y-126506454D02*
X95233419Y-127315978D01*
X95185800Y-127411216D01*
X95138180Y-127458835D01*
X95042942Y-127506454D01*
X94900085Y-127506454D01*
X94804847Y-127458835D01*
X95233419Y-127125501D02*
X95138180Y-127173120D01*
X94947704Y-127173120D01*
X94852466Y-127125501D01*
X94804847Y-127077882D01*
X94757228Y-126982644D01*
X94757228Y-126696930D01*
X94804847Y-126601692D01*
X94852466Y-126554073D01*
X94947704Y-126506454D01*
X95138180Y-126506454D01*
X95233419Y-126554073D01*
X73118180Y-130263120D02*
X73118180Y-129263120D01*
X73356276Y-129263120D01*
X73499133Y-129310740D01*
X73594371Y-129405978D01*
X73641990Y-129501216D01*
X73689609Y-129691692D01*
X73689609Y-129834549D01*
X73641990Y-130025025D01*
X73594371Y-130120263D01*
X73499133Y-130215501D01*
X73356276Y-130263120D01*
X73118180Y-130263120D01*
X74499133Y-130215501D02*
X74403895Y-130263120D01*
X74213419Y-130263120D01*
X74118180Y-130215501D01*
X74070561Y-130120263D01*
X74070561Y-129739311D01*
X74118180Y-129644073D01*
X74213419Y-129596454D01*
X74403895Y-129596454D01*
X74499133Y-129644073D01*
X74546752Y-129739311D01*
X74546752Y-129834549D01*
X74070561Y-129929787D01*
X74975323Y-130263120D02*
X74975323Y-129263120D01*
X74975323Y-129644073D02*
X75070561Y-129596454D01*
X75261038Y-129596454D01*
X75356276Y-129644073D01*
X75403895Y-129691692D01*
X75451514Y-129786930D01*
X75451514Y-130072644D01*
X75403895Y-130167882D01*
X75356276Y-130215501D01*
X75261038Y-130263120D01*
X75070561Y-130263120D01*
X74975323Y-130215501D01*
X76308657Y-129596454D02*
X76308657Y-130263120D01*
X75880085Y-129596454D02*
X75880085Y-130120263D01*
X75927704Y-130215501D01*
X76022942Y-130263120D01*
X76165800Y-130263120D01*
X76261038Y-130215501D01*
X76308657Y-130167882D01*
X77213419Y-129596454D02*
X77213419Y-130405978D01*
X77165800Y-130501216D01*
X77118180Y-130548835D01*
X77022942Y-130596454D01*
X76880085Y-130596454D01*
X76784847Y-130548835D01*
X77213419Y-130215501D02*
X77118180Y-130263120D01*
X76927704Y-130263120D01*
X76832466Y-130215501D01*
X76784847Y-130167882D01*
X76737228Y-130072644D01*
X76737228Y-129786930D01*
X76784847Y-129691692D01*
X76832466Y-129644073D01*
X76927704Y-129596454D01*
X77118180Y-129596454D01*
X77213419Y-129644073D01*
D11*
X80325800Y-115430740D02*
G75*
G03X80325800Y-115430740I-90000J0D01*
G01*
X79796599Y-121530740D02*
G75*
G03X79796599Y-121530740I-250799J0D01*
G01*
D10*
X75289133Y-162407406D02*
X75765323Y-162407406D01*
X75193895Y-162693120D02*
X75527228Y-161693120D01*
X75860561Y-162693120D01*
X76193895Y-162693120D02*
X76193895Y-161693120D01*
X76431990Y-161693120D01*
X76574847Y-161740740D01*
X76670085Y-161835978D01*
X76717704Y-161931216D01*
X76765323Y-162121692D01*
X76765323Y-162264549D01*
X76717704Y-162455025D01*
X76670085Y-162550263D01*
X76574847Y-162645501D01*
X76431990Y-162693120D01*
X76193895Y-162693120D01*
X77193895Y-162693120D02*
X77193895Y-161693120D01*
X77622466Y-162645501D02*
X77765323Y-162693120D01*
X78003419Y-162693120D01*
X78098657Y-162645501D01*
X78146276Y-162597882D01*
X78193895Y-162502644D01*
X78193895Y-162407406D01*
X78146276Y-162312168D01*
X78098657Y-162264549D01*
X78003419Y-162216930D01*
X77812942Y-162169311D01*
X77717704Y-162121692D01*
X77670085Y-162074073D01*
X77622466Y-161978835D01*
X77622466Y-161883597D01*
X77670085Y-161788359D01*
X77717704Y-161740740D01*
X77812942Y-161693120D01*
X78051038Y-161693120D01*
X78193895Y-161740740D01*
X79336752Y-162645501D02*
X79479609Y-162693120D01*
X79717704Y-162693120D01*
X79812942Y-162645501D01*
X79860561Y-162597882D01*
X79908180Y-162502644D01*
X79908180Y-162407406D01*
X79860561Y-162312168D01*
X79812942Y-162264549D01*
X79717704Y-162216930D01*
X79527228Y-162169311D01*
X79431990Y-162121692D01*
X79384371Y-162074073D01*
X79336752Y-161978835D01*
X79336752Y-161883597D01*
X79384371Y-161788359D01*
X79431990Y-161740740D01*
X79527228Y-161693120D01*
X79765323Y-161693120D01*
X79908180Y-161740740D01*
X80193895Y-162026454D02*
X80574847Y-162026454D01*
X80336752Y-161693120D02*
X80336752Y-162550263D01*
X80384371Y-162645501D01*
X80479609Y-162693120D01*
X80574847Y-162693120D01*
X81289133Y-162645501D02*
X81193895Y-162693120D01*
X81003419Y-162693120D01*
X80908180Y-162645501D01*
X80860561Y-162550263D01*
X80860561Y-162169311D01*
X80908180Y-162074073D01*
X81003419Y-162026454D01*
X81193895Y-162026454D01*
X81289133Y-162074073D01*
X81336752Y-162169311D01*
X81336752Y-162264549D01*
X80860561Y-162359787D01*
X81765323Y-162026454D02*
X81765323Y-163026454D01*
X81765323Y-162074073D02*
X81860561Y-162026454D01*
X82051038Y-162026454D01*
X82146276Y-162074073D01*
X82193895Y-162121692D01*
X82241514Y-162216930D01*
X82241514Y-162502644D01*
X82193895Y-162597882D01*
X82146276Y-162645501D01*
X82051038Y-162693120D01*
X81860561Y-162693120D01*
X81765323Y-162645501D01*
X82670085Y-162026454D02*
X82670085Y-163026454D01*
X82670085Y-162074073D02*
X82765323Y-162026454D01*
X82955800Y-162026454D01*
X83051038Y-162074073D01*
X83098657Y-162121692D01*
X83146276Y-162216930D01*
X83146276Y-162502644D01*
X83098657Y-162597882D01*
X83051038Y-162645501D01*
X82955800Y-162693120D01*
X82765323Y-162693120D01*
X82670085Y-162645501D01*
X83955800Y-162645501D02*
X83860561Y-162693120D01*
X83670085Y-162693120D01*
X83574847Y-162645501D01*
X83527228Y-162550263D01*
X83527228Y-162169311D01*
X83574847Y-162074073D01*
X83670085Y-162026454D01*
X83860561Y-162026454D01*
X83955800Y-162074073D01*
X84003419Y-162169311D01*
X84003419Y-162264549D01*
X83527228Y-162359787D01*
X84431990Y-162693120D02*
X84431990Y-162026454D01*
X84431990Y-162216930D02*
X84479609Y-162121692D01*
X84527228Y-162074073D01*
X84622466Y-162026454D01*
X84717704Y-162026454D01*
X75598657Y-163869311D02*
X75931990Y-163869311D01*
X76074847Y-164393120D02*
X75598657Y-164393120D01*
X75598657Y-163393120D01*
X76074847Y-163393120D01*
X76503419Y-164393120D02*
X76503419Y-163726454D01*
X76503419Y-163916930D02*
X76551038Y-163821692D01*
X76598657Y-163774073D01*
X76693895Y-163726454D01*
X76789133Y-163726454D01*
X77122466Y-164393120D02*
X77122466Y-163726454D01*
X77122466Y-163393120D02*
X77074847Y-163440740D01*
X77122466Y-163488359D01*
X77170085Y-163440740D01*
X77122466Y-163393120D01*
X77122466Y-163488359D01*
X78027228Y-164345501D02*
X77931990Y-164393120D01*
X77741514Y-164393120D01*
X77646276Y-164345501D01*
X77598657Y-164297882D01*
X77551038Y-164202644D01*
X77551038Y-163916930D01*
X77598657Y-163821692D01*
X77646276Y-163774073D01*
X77741514Y-163726454D01*
X77931990Y-163726454D01*
X78027228Y-163774073D01*
X78455800Y-164393120D02*
X78455800Y-163393120D01*
X78884371Y-164393120D02*
X78884371Y-163869311D01*
X78836752Y-163774073D01*
X78741514Y-163726454D01*
X78598657Y-163726454D01*
X78503419Y-163774073D01*
X78455800Y-163821692D01*
X80074847Y-164345501D02*
X80217704Y-164393120D01*
X80455800Y-164393120D01*
X80551038Y-164345501D01*
X80598657Y-164297882D01*
X80646276Y-164202644D01*
X80646276Y-164107406D01*
X80598657Y-164012168D01*
X80551038Y-163964549D01*
X80455800Y-163916930D01*
X80265323Y-163869311D01*
X80170085Y-163821692D01*
X80122466Y-163774073D01*
X80074847Y-163678835D01*
X80074847Y-163583597D01*
X80122466Y-163488359D01*
X80170085Y-163440740D01*
X80265323Y-163393120D01*
X80503419Y-163393120D01*
X80646276Y-163440740D01*
X80931990Y-163726454D02*
X81312942Y-163726454D01*
X81074847Y-163393120D02*
X81074847Y-164250263D01*
X81122466Y-164345501D01*
X81217704Y-164393120D01*
X81312942Y-164393120D01*
X81551038Y-163726454D02*
X81789133Y-164393120D01*
X82027228Y-163726454D02*
X81789133Y-164393120D01*
X81693895Y-164631216D01*
X81646276Y-164678835D01*
X81551038Y-164726454D01*
X82836752Y-163726454D02*
X82836752Y-164535978D01*
X82789133Y-164631216D01*
X82741514Y-164678835D01*
X82646276Y-164726454D01*
X82503419Y-164726454D01*
X82408180Y-164678835D01*
X82836752Y-164345501D02*
X82741514Y-164393120D01*
X82551038Y-164393120D01*
X82455800Y-164345501D01*
X82408180Y-164297882D01*
X82360561Y-164202644D01*
X82360561Y-163916930D01*
X82408180Y-163821692D01*
X82455800Y-163774073D01*
X82551038Y-163726454D01*
X82741514Y-163726454D01*
X82836752Y-163774073D01*
X83693895Y-164345501D02*
X83598657Y-164393120D01*
X83408180Y-164393120D01*
X83312942Y-164345501D01*
X83265323Y-164250263D01*
X83265323Y-163869311D01*
X83312942Y-163774073D01*
X83408180Y-163726454D01*
X83598657Y-163726454D01*
X83693895Y-163774073D01*
X83741514Y-163869311D01*
X83741514Y-163964549D01*
X83265323Y-164059787D01*
X84170085Y-164393120D02*
X84170085Y-163726454D01*
X84170085Y-163916930D02*
X84217704Y-163821692D01*
X84265323Y-163774073D01*
X84360561Y-163726454D01*
X84455800Y-163726454D01*
X73146276Y-165093120D02*
X73479609Y-166093120D01*
X73812942Y-165093120D01*
X74670085Y-166093120D02*
X74098657Y-166093120D01*
X74384371Y-166093120D02*
X74384371Y-165093120D01*
X74289133Y-165235978D01*
X74193895Y-165331216D01*
X74098657Y-165378835D01*
X75098657Y-165997882D02*
X75146276Y-166045501D01*
X75098657Y-166093120D01*
X75051038Y-166045501D01*
X75098657Y-165997882D01*
X75098657Y-166093120D01*
X76098657Y-166093120D02*
X75527228Y-166093120D01*
X75812942Y-166093120D02*
X75812942Y-165093120D01*
X75717704Y-165235978D01*
X75622466Y-165331216D01*
X75527228Y-165378835D01*
X77193895Y-165093120D02*
X77812942Y-165093120D01*
X77479609Y-165474073D01*
X77622466Y-165474073D01*
X77717704Y-165521692D01*
X77765323Y-165569311D01*
X77812942Y-165664549D01*
X77812942Y-165902644D01*
X77765323Y-165997882D01*
X77717704Y-166045501D01*
X77622466Y-166093120D01*
X77336752Y-166093120D01*
X77241514Y-166045501D01*
X77193895Y-165997882D01*
X78241514Y-165712168D02*
X79003419Y-165712168D01*
X79765323Y-165093120D02*
X79765323Y-165807406D01*
X79717704Y-165950263D01*
X79622466Y-166045501D01*
X79479609Y-166093120D01*
X79384371Y-166093120D01*
X80670085Y-165426454D02*
X80670085Y-166093120D01*
X80241514Y-165426454D02*
X80241514Y-165950263D01*
X80289133Y-166045501D01*
X80384371Y-166093120D01*
X80527228Y-166093120D01*
X80622466Y-166045501D01*
X80670085Y-165997882D01*
X81146276Y-165426454D02*
X81146276Y-166093120D01*
X81146276Y-165521692D02*
X81193895Y-165474073D01*
X81289133Y-165426454D01*
X81431990Y-165426454D01*
X81527228Y-165474073D01*
X81574847Y-165569311D01*
X81574847Y-166093120D01*
X82051038Y-165712168D02*
X82812942Y-165712168D01*
X83241514Y-165188359D02*
X83289133Y-165140740D01*
X83384371Y-165093120D01*
X83622466Y-165093120D01*
X83717704Y-165140740D01*
X83765323Y-165188359D01*
X83812942Y-165283597D01*
X83812942Y-165378835D01*
X83765323Y-165521692D01*
X83193895Y-166093120D01*
X83812942Y-166093120D01*
X84431990Y-165093120D02*
X84527228Y-165093120D01*
X84622466Y-165140740D01*
X84670085Y-165188359D01*
X84717704Y-165283597D01*
X84765323Y-165474073D01*
X84765323Y-165712168D01*
X84717704Y-165902644D01*
X84670085Y-165997882D01*
X84622466Y-166045501D01*
X84527228Y-166093120D01*
X84431990Y-166093120D01*
X84336752Y-166045501D01*
X84289133Y-165997882D01*
X84241514Y-165902644D01*
X84193895Y-165712168D01*
X84193895Y-165474073D01*
X84241514Y-165283597D01*
X84289133Y-165188359D01*
X84336752Y-165140740D01*
X84431990Y-165093120D01*
X85146276Y-165188359D02*
X85193895Y-165140740D01*
X85289133Y-165093120D01*
X85527228Y-165093120D01*
X85622466Y-165140740D01*
X85670085Y-165188359D01*
X85717704Y-165283597D01*
X85717704Y-165378835D01*
X85670085Y-165521692D01*
X85098657Y-166093120D01*
X85717704Y-166093120D01*
X86336752Y-165093120D02*
X86431990Y-165093120D01*
X86527228Y-165140740D01*
X86574847Y-165188359D01*
X86622466Y-165283597D01*
X86670085Y-165474073D01*
X86670085Y-165712168D01*
X86622466Y-165902644D01*
X86574847Y-165997882D01*
X86527228Y-166045501D01*
X86431990Y-166093120D01*
X86336752Y-166093120D01*
X86241514Y-166045501D01*
X86193895Y-165997882D01*
X86146276Y-165902644D01*
X86098657Y-165712168D01*
X86098657Y-165474073D01*
X86146276Y-165283597D01*
X86193895Y-165188359D01*
X86241514Y-165140740D01*
X86336752Y-165093120D01*
D12*
X72935800Y-127325740D02*
X72870800Y-127325740D01*
X72935800Y-123795740D02*
X72870800Y-123795740D01*
X79340800Y-127325740D02*
X79275800Y-127325740D01*
X79340800Y-123795740D02*
X79275800Y-123795740D01*
X79275800Y-122470740D02*
X79275800Y-123795740D01*
X72870800Y-123795740D02*
X72870800Y-127325740D01*
X79340800Y-123795740D02*
X79340800Y-127325740D01*
X91825800Y-120355740D02*
X92460800Y-120355740D01*
X91825800Y-120990740D02*
X91825800Y-120355740D01*
X111155800Y-125080740D02*
X117105800Y-125080740D01*
X117105800Y-125080740D02*
X117105800Y-117480740D01*
X117105800Y-117480740D02*
X111155800Y-117480740D01*
X111155800Y-117480740D02*
X111155800Y-125080740D01*
X111155800Y-121780740D02*
X111905800Y-121780740D01*
X111905800Y-121780740D02*
X111905800Y-120780740D01*
X111905800Y-120780740D02*
X111155800Y-120780740D01*
X111155800Y-120780740D02*
X111155800Y-121780740D01*
X111155800Y-125080740D02*
X111905800Y-125080740D01*
X111905800Y-125080740D02*
X111905800Y-123280740D01*
X111905800Y-123280740D02*
X111155800Y-123280740D01*
X111155800Y-123280740D02*
X111155800Y-125080740D01*
X111155800Y-119280740D02*
X111905800Y-119280740D01*
X111905800Y-119280740D02*
X111905800Y-117480740D01*
X111905800Y-117480740D02*
X111155800Y-117480740D01*
X111155800Y-117480740D02*
X111155800Y-119280740D01*
X113405800Y-125080740D02*
X113405800Y-124330740D01*
X113405800Y-124330740D02*
X116355800Y-124330740D01*
X116355800Y-124330740D02*
X116355800Y-121280740D01*
X113405800Y-117480740D02*
X113405800Y-118230740D01*
X113405800Y-118230740D02*
X116355800Y-118230740D01*
X116355800Y-118230740D02*
X116355800Y-121280740D01*
X110855800Y-122880740D02*
X110855800Y-125380740D01*
X110855800Y-125380740D02*
X113355800Y-125380740D01*
X99965800Y-163830740D02*
X94015800Y-163830740D01*
X94015800Y-163830740D02*
X94015800Y-176430740D01*
X94015800Y-176430740D02*
X99965800Y-176430740D01*
X99965800Y-176430740D02*
X99965800Y-163830740D01*
X99965800Y-167130740D02*
X99215800Y-167130740D01*
X99215800Y-167130740D02*
X99215800Y-173130740D01*
X99215800Y-173130740D02*
X99965800Y-173130740D01*
X99965800Y-173130740D02*
X99965800Y-167130740D01*
X99965800Y-163830740D02*
X99215800Y-163830740D01*
X99215800Y-163830740D02*
X99215800Y-165630740D01*
X99215800Y-165630740D02*
X99965800Y-165630740D01*
X99965800Y-165630740D02*
X99965800Y-163830740D01*
X99965800Y-174630740D02*
X99215800Y-174630740D01*
X99215800Y-174630740D02*
X99215800Y-176430740D01*
X99215800Y-176430740D02*
X99965800Y-176430740D01*
X99965800Y-176430740D02*
X99965800Y-174630740D01*
X97715800Y-163830740D02*
X97715800Y-164580740D01*
X97715800Y-164580740D02*
X94765800Y-164580740D01*
X94765800Y-164580740D02*
X94765800Y-170130740D01*
X97715800Y-176430740D02*
X97715800Y-175680740D01*
X97715800Y-175680740D02*
X94765800Y-175680740D01*
X94765800Y-175680740D02*
X94765800Y-170130740D01*
X100265800Y-166030740D02*
X100265800Y-163530740D01*
X100265800Y-163530740D02*
X97765800Y-163530740D01*
X119665800Y-125120740D02*
X125615800Y-125120740D01*
X125615800Y-125120740D02*
X125615800Y-117520740D01*
X125615800Y-117520740D02*
X119665800Y-117520740D01*
X119665800Y-117520740D02*
X119665800Y-125120740D01*
X119665800Y-121820740D02*
X120415800Y-121820740D01*
X120415800Y-121820740D02*
X120415800Y-120820740D01*
X120415800Y-120820740D02*
X119665800Y-120820740D01*
X119665800Y-120820740D02*
X119665800Y-121820740D01*
X119665800Y-125120740D02*
X120415800Y-125120740D01*
X120415800Y-125120740D02*
X120415800Y-123320740D01*
X120415800Y-123320740D02*
X119665800Y-123320740D01*
X119665800Y-123320740D02*
X119665800Y-125120740D01*
X119665800Y-119320740D02*
X120415800Y-119320740D01*
X120415800Y-119320740D02*
X120415800Y-117520740D01*
X120415800Y-117520740D02*
X119665800Y-117520740D01*
X119665800Y-117520740D02*
X119665800Y-119320740D01*
X121915800Y-125120740D02*
X121915800Y-124370740D01*
X121915800Y-124370740D02*
X124865800Y-124370740D01*
X124865800Y-124370740D02*
X124865800Y-121320740D01*
X121915800Y-117520740D02*
X121915800Y-118270740D01*
X121915800Y-118270740D02*
X124865800Y-118270740D01*
X124865800Y-118270740D02*
X124865800Y-121320740D01*
X119365800Y-122920740D02*
X119365800Y-125420740D01*
X119365800Y-125420740D02*
X121865800Y-125420740D01*
X107195800Y-163830740D02*
X101245800Y-163830740D01*
X101245800Y-163830740D02*
X101245800Y-176430740D01*
X101245800Y-176430740D02*
X107195800Y-176430740D01*
X107195800Y-176430740D02*
X107195800Y-163830740D01*
X107195800Y-167130740D02*
X106445800Y-167130740D01*
X106445800Y-167130740D02*
X106445800Y-173130740D01*
X106445800Y-173130740D02*
X107195800Y-173130740D01*
X107195800Y-173130740D02*
X107195800Y-167130740D01*
X107195800Y-163830740D02*
X106445800Y-163830740D01*
X106445800Y-163830740D02*
X106445800Y-165630740D01*
X106445800Y-165630740D02*
X107195800Y-165630740D01*
X107195800Y-165630740D02*
X107195800Y-163830740D01*
X107195800Y-174630740D02*
X106445800Y-174630740D01*
X106445800Y-174630740D02*
X106445800Y-176430740D01*
X106445800Y-176430740D02*
X107195800Y-176430740D01*
X107195800Y-176430740D02*
X107195800Y-174630740D01*
X104945800Y-163830740D02*
X104945800Y-164580740D01*
X104945800Y-164580740D02*
X101995800Y-164580740D01*
X101995800Y-164580740D02*
X101995800Y-170130740D01*
X104945800Y-176430740D02*
X104945800Y-175680740D01*
X104945800Y-175680740D02*
X101995800Y-175680740D01*
X101995800Y-175680740D02*
X101995800Y-170130740D01*
X107495800Y-166030740D02*
X107495800Y-163530740D01*
X107495800Y-163530740D02*
X104995800Y-163530740D01*
D13*
X101985800Y-117640740D02*
G75*
G03X101985800Y-117640740I-1400000J0D01*
G01*
X119375800Y-162490740D02*
G75*
G03X119375800Y-162490740I-1400000J0D01*
G01*
X113835800Y-162520740D02*
G75*
G03X113835800Y-162520740I-1400000J0D01*
G01*
X104970800Y-112300740D02*
X104970800Y-107900740D01*
X99445800Y-113875740D02*
X99445800Y-107900740D01*
D12*
X97785800Y-107720740D02*
X97785800Y-107020740D01*
X98985800Y-107020740D02*
X98985800Y-107720740D01*
X114125800Y-169870740D02*
X114125800Y-170800740D01*
X114125800Y-173030740D02*
X114125800Y-172100740D01*
X114125800Y-173030740D02*
X116285800Y-173030740D01*
X114125800Y-169870740D02*
X115585800Y-169870740D01*
D13*
X103090800Y-120605740D02*
X103090800Y-120655740D01*
X107240800Y-120605740D02*
X107240800Y-120750740D01*
X107240800Y-125755740D02*
X107240800Y-125610740D01*
X103090800Y-125755740D02*
X103090800Y-125610740D01*
X103090800Y-120605740D02*
X107240800Y-120605740D01*
X103090800Y-125755740D02*
X107240800Y-125755740D01*
X103090800Y-120655740D02*
X101690800Y-120655740D01*
D12*
X72565800Y-147360740D02*
X72565800Y-146960740D01*
X72565800Y-146960740D02*
X73965800Y-146960740D01*
X72565800Y-147360740D02*
X67765800Y-147360740D01*
X72565800Y-136560740D02*
X67765800Y-136560740D01*
D13*
X86260800Y-115065740D02*
X86260800Y-115590740D01*
X81010800Y-120315740D02*
X81010800Y-119790740D01*
X86260800Y-120315740D02*
X86260800Y-119790740D01*
X81010800Y-115065740D02*
X81535800Y-115065740D01*
X81010800Y-120315740D02*
X81535800Y-120315740D01*
X86260800Y-120315740D02*
X85735800Y-120315740D01*
X86260800Y-115065740D02*
X85735800Y-115065740D01*
X125575971Y-127713911D02*
G75*
G02X125955945Y-158380740I-180171J-15338001D01*
G01*
X95785800Y-158300619D02*
G75*
G02X95735800Y-127661139I60000J15319879D01*
G01*
X94679820Y-127706033D02*
X126199820Y-127666033D01*
X94855800Y-158280740D02*
X126515800Y-158430740D01*
D12*
X92145800Y-109560740D02*
X92045800Y-109560740D01*
X90545800Y-105160740D02*
X90545800Y-109560740D01*
X93645800Y-109560740D02*
X93645800Y-105160740D01*
X92145800Y-105160740D02*
X92045800Y-105160740D01*
X82015800Y-111390740D02*
X82015800Y-110390740D01*
X83375800Y-110390740D02*
X83375800Y-111390740D01*
X87435800Y-125170740D02*
X87435800Y-124170740D01*
X88795800Y-124170740D02*
X88795800Y-125170740D01*
X90795800Y-120160740D02*
X90795800Y-121160740D01*
X89435800Y-121160740D02*
X89435800Y-120160740D01*
X89495800Y-105760740D02*
X89495800Y-106760740D01*
X88135800Y-106760740D02*
X88135800Y-105760740D01*
X128985800Y-123790740D02*
X128985800Y-124790740D01*
X127625800Y-124790740D02*
X127625800Y-123790740D01*
X63025800Y-143070740D02*
X64025800Y-143070740D01*
X64025800Y-144430740D02*
X63025800Y-144430740D01*
X129275800Y-119880740D02*
X129275800Y-121280740D01*
X128575800Y-121980740D02*
X127975800Y-121980740D01*
X127275800Y-121280740D02*
X127275800Y-119880740D01*
X127975800Y-119180740D02*
X128575800Y-119180740D01*
X128575800Y-119180740D02*
G75*
G02X129275800Y-119880740I0J-700000D01*
G01*
X127275800Y-119880740D02*
G75*
G02X127975800Y-119180740I700000J0D01*
G01*
X127975800Y-121980740D02*
G75*
G02X127275800Y-121280740I0J700000D01*
G01*
X129275800Y-121280740D02*
G75*
G02X128575800Y-121980740I-700000J0D01*
G01*
X83875800Y-109590740D02*
X83875800Y-111290740D01*
X84675800Y-109590740D02*
X83875800Y-109590740D01*
X84875800Y-109590740D02*
X84675800Y-109590740D01*
X84875800Y-109690740D02*
X84875800Y-109590740D01*
X84875800Y-109790740D02*
X84875800Y-109690740D01*
X84875800Y-109790740D02*
X84875800Y-111290740D01*
X76835800Y-116840740D02*
X76835800Y-116140740D01*
X78035800Y-116140740D02*
X78035800Y-116840740D01*
X76535800Y-116120740D02*
X76535800Y-116820740D01*
X75335800Y-116820740D02*
X75335800Y-116120740D01*
X118815800Y-171800740D02*
X118815800Y-171100740D01*
X120015800Y-171100740D02*
X120015800Y-171800740D01*
X113045800Y-167640740D02*
X115045800Y-167640740D01*
X115045800Y-165600740D02*
X113045800Y-165600740D01*
X106605800Y-117940740D02*
X107305800Y-117940740D01*
X107305800Y-119140740D02*
X106605800Y-119140740D01*
X106625800Y-115670740D02*
X107325800Y-115670740D01*
X107325800Y-116870740D02*
X106625800Y-116870740D01*
X78705800Y-152020740D02*
X78705800Y-153570740D01*
X78705800Y-157350740D02*
X78705800Y-155800740D01*
X73365800Y-156590740D02*
X73365800Y-155800740D01*
X73365800Y-152780740D02*
X73365800Y-153570740D01*
X78705800Y-152020740D02*
X74125800Y-152020740D01*
X74125800Y-152020740D02*
X73365800Y-152780740D01*
X73365800Y-156590740D02*
X74125800Y-157350740D01*
X74125800Y-157350740D02*
X78705800Y-157350740D01*
X63785800Y-147510740D02*
X63785800Y-146810740D01*
X64985800Y-146810740D02*
X64985800Y-147510740D01*
X92445800Y-112460740D02*
X91745800Y-112460740D01*
X91745800Y-111260740D02*
X92445800Y-111260740D01*
X74875800Y-138390740D02*
X74875800Y-137690740D01*
X76075800Y-137690740D02*
X76075800Y-138390740D01*
D13*
X79793180Y-126798835D02*
X80602704Y-126798835D01*
X80697942Y-126751216D01*
X80745561Y-126703597D01*
X80793180Y-126608359D01*
X80793180Y-126417882D01*
X80745561Y-126322644D01*
X80697942Y-126275025D01*
X80602704Y-126227406D01*
X79793180Y-126227406D01*
X80793180Y-125227406D02*
X80793180Y-125798835D01*
X80793180Y-125513120D02*
X79793180Y-125513120D01*
X79936038Y-125608359D01*
X80031276Y-125703597D01*
X80078895Y-125798835D01*
X80793180Y-124751216D02*
X80793180Y-124560740D01*
X80745561Y-124465501D01*
X80697942Y-124417882D01*
X80555085Y-124322644D01*
X80364609Y-124275025D01*
X79983657Y-124275025D01*
X79888419Y-124322644D01*
X79840800Y-124370263D01*
X79793180Y-124465501D01*
X79793180Y-124655978D01*
X79840800Y-124751216D01*
X79888419Y-124798835D01*
X79983657Y-124846454D01*
X80221752Y-124846454D01*
X80316990Y-124798835D01*
X80364609Y-124751216D01*
X80412228Y-124655978D01*
X80412228Y-124465501D01*
X80364609Y-124370263D01*
X80316990Y-124322644D01*
X80221752Y-124275025D01*
X89848180Y-123070263D02*
X90562466Y-123070263D01*
X90705323Y-123117882D01*
X90800561Y-123213120D01*
X90848180Y-123355978D01*
X90848180Y-123451216D01*
X90848180Y-122070263D02*
X90848180Y-122641692D01*
X90848180Y-122355978D02*
X89848180Y-122355978D01*
X89991038Y-122451216D01*
X90086276Y-122546454D01*
X90133895Y-122641692D01*
X89848180Y-121736930D02*
X89848180Y-121117882D01*
X90229133Y-121451216D01*
X90229133Y-121308359D01*
X90276752Y-121213120D01*
X90324371Y-121165501D01*
X90419609Y-121117882D01*
X90657704Y-121117882D01*
X90752942Y-121165501D01*
X90800561Y-121213120D01*
X90848180Y-121308359D01*
X90848180Y-121594073D01*
X90800561Y-121689311D01*
X90752942Y-121736930D01*
X110828180Y-116354073D02*
X111542466Y-116354073D01*
X111685323Y-116401692D01*
X111780561Y-116496930D01*
X111828180Y-116639787D01*
X111828180Y-116735025D01*
X110828180Y-115401692D02*
X110828180Y-115877882D01*
X111304371Y-115925501D01*
X111256752Y-115877882D01*
X111209133Y-115782644D01*
X111209133Y-115544549D01*
X111256752Y-115449311D01*
X111304371Y-115401692D01*
X111399609Y-115354073D01*
X111637704Y-115354073D01*
X111732942Y-115401692D01*
X111780561Y-115449311D01*
X111828180Y-115544549D01*
X111828180Y-115782644D01*
X111780561Y-115877882D01*
X111732942Y-115925501D01*
X96578180Y-162984073D02*
X97292466Y-162984073D01*
X97435323Y-163031692D01*
X97530561Y-163126930D01*
X97578180Y-163269787D01*
X97578180Y-163365025D01*
X96911514Y-162079311D02*
X97578180Y-162079311D01*
X96530561Y-162317406D02*
X97244847Y-162555501D01*
X97244847Y-161936454D01*
X124928180Y-116444073D02*
X125642466Y-116444073D01*
X125785323Y-116491692D01*
X125880561Y-116586930D01*
X125928180Y-116729787D01*
X125928180Y-116825025D01*
X124928180Y-116063120D02*
X124928180Y-115444073D01*
X125309133Y-115777406D01*
X125309133Y-115634549D01*
X125356752Y-115539311D01*
X125404371Y-115491692D01*
X125499609Y-115444073D01*
X125737704Y-115444073D01*
X125832942Y-115491692D01*
X125880561Y-115539311D01*
X125928180Y-115634549D01*
X125928180Y-115920263D01*
X125880561Y-116015501D01*
X125832942Y-116063120D01*
X103748180Y-162884073D02*
X104462466Y-162884073D01*
X104605323Y-162931692D01*
X104700561Y-163026930D01*
X104748180Y-163169787D01*
X104748180Y-163265025D01*
X103843419Y-162455501D02*
X103795800Y-162407882D01*
X103748180Y-162312644D01*
X103748180Y-162074549D01*
X103795800Y-161979311D01*
X103843419Y-161931692D01*
X103938657Y-161884073D01*
X104033895Y-161884073D01*
X104176752Y-161931692D01*
X104748180Y-162503120D01*
X104748180Y-161884073D01*
X95295800Y-117163120D02*
X94819609Y-117163120D01*
X94819609Y-116163120D01*
X96057704Y-117163120D02*
X96057704Y-116639311D01*
X96010085Y-116544073D01*
X95914847Y-116496454D01*
X95724371Y-116496454D01*
X95629133Y-116544073D01*
X96057704Y-117115501D02*
X95962466Y-117163120D01*
X95724371Y-117163120D01*
X95629133Y-117115501D01*
X95581514Y-117020263D01*
X95581514Y-116925025D01*
X95629133Y-116829787D01*
X95724371Y-116782168D01*
X95962466Y-116782168D01*
X96057704Y-116734549D01*
X96533895Y-116496454D02*
X96533895Y-117163120D01*
X96533895Y-116591692D02*
X96581514Y-116544073D01*
X96676752Y-116496454D01*
X96819609Y-116496454D01*
X96914847Y-116544073D01*
X96962466Y-116639311D01*
X96962466Y-117163120D01*
X97819609Y-117115501D02*
X97724371Y-117163120D01*
X97533895Y-117163120D01*
X97438657Y-117115501D01*
X97391038Y-117020263D01*
X97391038Y-116639311D01*
X97438657Y-116544073D01*
X97533895Y-116496454D01*
X97724371Y-116496454D01*
X97819609Y-116544073D01*
X97867228Y-116639311D01*
X97867228Y-116734549D01*
X97391038Y-116829787D01*
X98486276Y-116163120D02*
X98581514Y-116163120D01*
X98676752Y-116210740D01*
X98724371Y-116258359D01*
X98771990Y-116353597D01*
X98819609Y-116544073D01*
X98819609Y-116782168D01*
X98771990Y-116972644D01*
X98724371Y-117067882D01*
X98676752Y-117115501D01*
X98581514Y-117163120D01*
X98486276Y-117163120D01*
X98391038Y-117115501D01*
X98343419Y-117067882D01*
X98295800Y-116972644D01*
X98248180Y-116782168D01*
X98248180Y-116544073D01*
X98295800Y-116353597D01*
X98343419Y-116258359D01*
X98391038Y-116210740D01*
X98486276Y-116163120D01*
X116737704Y-159443120D02*
X117356752Y-159443120D01*
X117023419Y-159824073D01*
X117166276Y-159824073D01*
X117261514Y-159871692D01*
X117309133Y-159919311D01*
X117356752Y-160014549D01*
X117356752Y-160252644D01*
X117309133Y-160347882D01*
X117261514Y-160395501D01*
X117166276Y-160443120D01*
X116880561Y-160443120D01*
X116785323Y-160395501D01*
X116737704Y-160347882D01*
X117642466Y-159443120D02*
X117975800Y-160443120D01*
X118309133Y-159443120D01*
X118547228Y-159443120D02*
X119166276Y-159443120D01*
X118832942Y-159824073D01*
X118975800Y-159824073D01*
X119071038Y-159871692D01*
X119118657Y-159919311D01*
X119166276Y-160014549D01*
X119166276Y-160252644D01*
X119118657Y-160347882D01*
X119071038Y-160395501D01*
X118975800Y-160443120D01*
X118690085Y-160443120D01*
X118594847Y-160395501D01*
X118547228Y-160347882D01*
X111673895Y-159520740D02*
X111578657Y-159473120D01*
X111435800Y-159473120D01*
X111292942Y-159520740D01*
X111197704Y-159615978D01*
X111150085Y-159711216D01*
X111102466Y-159901692D01*
X111102466Y-160044549D01*
X111150085Y-160235025D01*
X111197704Y-160330263D01*
X111292942Y-160425501D01*
X111435800Y-160473120D01*
X111531038Y-160473120D01*
X111673895Y-160425501D01*
X111721514Y-160377882D01*
X111721514Y-160044549D01*
X111531038Y-160044549D01*
X112150085Y-160473120D02*
X112150085Y-159473120D01*
X112721514Y-160473120D01*
X112721514Y-159473120D01*
X113197704Y-160473120D02*
X113197704Y-159473120D01*
X113435800Y-159473120D01*
X113578657Y-159520740D01*
X113673895Y-159615978D01*
X113721514Y-159711216D01*
X113769133Y-159901692D01*
X113769133Y-160044549D01*
X113721514Y-160235025D01*
X113673895Y-160330263D01*
X113578657Y-160425501D01*
X113435800Y-160473120D01*
X113197704Y-160473120D01*
X105368180Y-110542644D02*
X106177704Y-110542644D01*
X106272942Y-110495025D01*
X106320561Y-110447406D01*
X106368180Y-110352168D01*
X106368180Y-110161692D01*
X106320561Y-110066454D01*
X106272942Y-110018835D01*
X106177704Y-109971216D01*
X105368180Y-109971216D01*
X105701514Y-109066454D02*
X106368180Y-109066454D01*
X105320561Y-109304549D02*
X106034847Y-109542644D01*
X106034847Y-108923597D01*
X97422942Y-107517406D02*
X97470561Y-107565025D01*
X97518180Y-107707882D01*
X97518180Y-107803120D01*
X97470561Y-107945978D01*
X97375323Y-108041216D01*
X97280085Y-108088835D01*
X97089609Y-108136454D01*
X96946752Y-108136454D01*
X96756276Y-108088835D01*
X96661038Y-108041216D01*
X96565800Y-107945978D01*
X96518180Y-107803120D01*
X96518180Y-107707882D01*
X96565800Y-107565025D01*
X96613419Y-107517406D01*
X96518180Y-106612644D02*
X96518180Y-107088835D01*
X96994371Y-107136454D01*
X96946752Y-107088835D01*
X96899133Y-106993597D01*
X96899133Y-106755501D01*
X96946752Y-106660263D01*
X96994371Y-106612644D01*
X97089609Y-106565025D01*
X97327704Y-106565025D01*
X97422942Y-106612644D01*
X97470561Y-106660263D01*
X97518180Y-106755501D01*
X97518180Y-106993597D01*
X97470561Y-107088835D01*
X97422942Y-107136454D01*
X113647704Y-173403120D02*
X113647704Y-174212644D01*
X113695323Y-174307882D01*
X113742942Y-174355501D01*
X113838180Y-174403120D01*
X114028657Y-174403120D01*
X114123895Y-174355501D01*
X114171514Y-174307882D01*
X114219133Y-174212644D01*
X114219133Y-173403120D01*
X115219133Y-174403120D02*
X114647704Y-174403120D01*
X114933419Y-174403120D02*
X114933419Y-173403120D01*
X114838180Y-173545978D01*
X114742942Y-173641216D01*
X114647704Y-173688835D01*
X115552466Y-173403120D02*
X116219133Y-173403120D01*
X115790561Y-174403120D01*
X103887704Y-126083120D02*
X103887704Y-126892644D01*
X103935323Y-126987882D01*
X103982942Y-127035501D01*
X104078180Y-127083120D01*
X104268657Y-127083120D01*
X104363895Y-127035501D01*
X104411514Y-126987882D01*
X104459133Y-126892644D01*
X104459133Y-126083120D01*
X105459133Y-127083120D02*
X104887704Y-127083120D01*
X105173419Y-127083120D02*
X105173419Y-126083120D01*
X105078180Y-126225978D01*
X104982942Y-126321216D01*
X104887704Y-126368835D01*
X106316276Y-126083120D02*
X106125800Y-126083120D01*
X106030561Y-126130740D01*
X105982942Y-126178359D01*
X105887704Y-126321216D01*
X105840085Y-126511692D01*
X105840085Y-126892644D01*
X105887704Y-126987882D01*
X105935323Y-127035501D01*
X106030561Y-127083120D01*
X106221038Y-127083120D01*
X106316276Y-127035501D01*
X106363895Y-126987882D01*
X106411514Y-126892644D01*
X106411514Y-126654549D01*
X106363895Y-126559311D01*
X106316276Y-126511692D01*
X106221038Y-126464073D01*
X106030561Y-126464073D01*
X105935323Y-126511692D01*
X105887704Y-126559311D01*
X105840085Y-126654549D01*
X69403895Y-147613120D02*
X69403895Y-148422644D01*
X69451514Y-148517882D01*
X69499133Y-148565501D01*
X69594371Y-148613120D01*
X69784847Y-148613120D01*
X69880085Y-148565501D01*
X69927704Y-148517882D01*
X69975323Y-148422644D01*
X69975323Y-147613120D01*
X70356276Y-147613120D02*
X70975323Y-147613120D01*
X70641990Y-147994073D01*
X70784847Y-147994073D01*
X70880085Y-148041692D01*
X70927704Y-148089311D01*
X70975323Y-148184549D01*
X70975323Y-148422644D01*
X70927704Y-148517882D01*
X70880085Y-148565501D01*
X70784847Y-148613120D01*
X70499133Y-148613120D01*
X70403895Y-148565501D01*
X70356276Y-148517882D01*
X82873895Y-113393120D02*
X82873895Y-114202644D01*
X82921514Y-114297882D01*
X82969133Y-114345501D01*
X83064371Y-114393120D01*
X83254847Y-114393120D01*
X83350085Y-114345501D01*
X83397704Y-114297882D01*
X83445323Y-114202644D01*
X83445323Y-113393120D01*
X83873895Y-113488359D02*
X83921514Y-113440740D01*
X84016752Y-113393120D01*
X84254847Y-113393120D01*
X84350085Y-113440740D01*
X84397704Y-113488359D01*
X84445323Y-113583597D01*
X84445323Y-113678835D01*
X84397704Y-113821692D01*
X83826276Y-114393120D01*
X84445323Y-114393120D01*
X105143895Y-158693120D02*
X105143895Y-159502644D01*
X105191514Y-159597882D01*
X105239133Y-159645501D01*
X105334371Y-159693120D01*
X105524847Y-159693120D01*
X105620085Y-159645501D01*
X105667704Y-159597882D01*
X105715323Y-159502644D01*
X105715323Y-158693120D01*
X106715323Y-159693120D02*
X106143895Y-159693120D01*
X106429609Y-159693120D02*
X106429609Y-158693120D01*
X106334371Y-158835978D01*
X106239133Y-158931216D01*
X106143895Y-158978835D01*
X125248180Y-152833120D02*
X125248180Y-152642644D01*
X125295800Y-152547406D01*
X125391038Y-152452168D01*
X125581514Y-152404549D01*
X125914847Y-152404549D01*
X126105323Y-152452168D01*
X126200561Y-152547406D01*
X126248180Y-152642644D01*
X126248180Y-152833120D01*
X126200561Y-152928359D01*
X126105323Y-153023597D01*
X125914847Y-153071216D01*
X125581514Y-153071216D01*
X125391038Y-153023597D01*
X125295800Y-152928359D01*
X125248180Y-152833120D01*
X125581514Y-151547406D02*
X126248180Y-151547406D01*
X125581514Y-151975978D02*
X126105323Y-151975978D01*
X126200561Y-151928359D01*
X126248180Y-151833120D01*
X126248180Y-151690263D01*
X126200561Y-151595025D01*
X126152942Y-151547406D01*
X125581514Y-151214073D02*
X125581514Y-150833120D01*
X125248180Y-151071216D02*
X126105323Y-151071216D01*
X126200561Y-151023597D01*
X126248180Y-150928359D01*
X126248180Y-150833120D01*
X126200561Y-150118835D02*
X126248180Y-150214073D01*
X126248180Y-150404549D01*
X126200561Y-150499787D01*
X126105323Y-150547406D01*
X125724371Y-150547406D01*
X125629133Y-150499787D01*
X125581514Y-150404549D01*
X125581514Y-150214073D01*
X125629133Y-150118835D01*
X125724371Y-150071216D01*
X125819609Y-150071216D01*
X125914847Y-150547406D01*
X126248180Y-149642644D02*
X125581514Y-149642644D01*
X125771990Y-149642644D02*
X125676752Y-149595025D01*
X125629133Y-149547406D01*
X125581514Y-149452168D01*
X125581514Y-149356930D01*
X126629133Y-147975978D02*
X126581514Y-148023597D01*
X126438657Y-148118835D01*
X126343419Y-148166454D01*
X126200561Y-148214073D01*
X125962466Y-148261692D01*
X125771990Y-148261692D01*
X125533895Y-148214073D01*
X125391038Y-148166454D01*
X125295800Y-148118835D01*
X125152942Y-148023597D01*
X125105323Y-147975978D01*
X125581514Y-147595025D02*
X126581514Y-147595025D01*
X125629133Y-147595025D02*
X125581514Y-147499787D01*
X125581514Y-147309311D01*
X125629133Y-147214073D01*
X125676752Y-147166454D01*
X125771990Y-147118835D01*
X126057704Y-147118835D01*
X126152942Y-147166454D01*
X126200561Y-147214073D01*
X126248180Y-147309311D01*
X126248180Y-147499787D01*
X126200561Y-147595025D01*
X126248180Y-146547406D02*
X126200561Y-146642644D01*
X126105323Y-146690263D01*
X125248180Y-146690263D01*
X126248180Y-145737882D02*
X125724371Y-145737882D01*
X125629133Y-145785501D01*
X125581514Y-145880740D01*
X125581514Y-146071216D01*
X125629133Y-146166454D01*
X126200561Y-145737882D02*
X126248180Y-145833120D01*
X126248180Y-146071216D01*
X126200561Y-146166454D01*
X126105323Y-146214073D01*
X126010085Y-146214073D01*
X125914847Y-146166454D01*
X125867228Y-146071216D01*
X125867228Y-145833120D01*
X125819609Y-145737882D01*
X126200561Y-145309311D02*
X126248180Y-145214073D01*
X126248180Y-145023597D01*
X126200561Y-144928359D01*
X126105323Y-144880740D01*
X126057704Y-144880740D01*
X125962466Y-144928359D01*
X125914847Y-145023597D01*
X125914847Y-145166454D01*
X125867228Y-145261692D01*
X125771990Y-145309311D01*
X125724371Y-145309311D01*
X125629133Y-145261692D01*
X125581514Y-145166454D01*
X125581514Y-145023597D01*
X125629133Y-144928359D01*
X125581514Y-144595025D02*
X125581514Y-144214073D01*
X125248180Y-144452168D02*
X126105323Y-144452168D01*
X126200561Y-144404549D01*
X126248180Y-144309311D01*
X126248180Y-144214073D01*
X126248180Y-143880740D02*
X125581514Y-143880740D01*
X125248180Y-143880740D02*
X125295800Y-143928359D01*
X125343419Y-143880740D01*
X125295800Y-143833120D01*
X125248180Y-143880740D01*
X125343419Y-143880740D01*
X126200561Y-142975978D02*
X126248180Y-143071216D01*
X126248180Y-143261692D01*
X126200561Y-143356930D01*
X126152942Y-143404549D01*
X126057704Y-143452168D01*
X125771990Y-143452168D01*
X125676752Y-143404549D01*
X125629133Y-143356930D01*
X125581514Y-143261692D01*
X125581514Y-143071216D01*
X125629133Y-142975978D01*
X126629133Y-142642644D02*
X126581514Y-142595025D01*
X126438657Y-142499787D01*
X126343419Y-142452168D01*
X126200561Y-142404549D01*
X125962466Y-142356930D01*
X125771990Y-142356930D01*
X125533895Y-142404549D01*
X125391038Y-142452168D01*
X125295800Y-142499787D01*
X125152942Y-142595025D01*
X125105323Y-142642644D01*
X126200561Y-141166454D02*
X126248180Y-141071216D01*
X126248180Y-140880740D01*
X126200561Y-140785501D01*
X126105323Y-140737882D01*
X126057704Y-140737882D01*
X125962466Y-140785501D01*
X125914847Y-140880740D01*
X125914847Y-141023597D01*
X125867228Y-141118835D01*
X125771990Y-141166454D01*
X125724371Y-141166454D01*
X125629133Y-141118835D01*
X125581514Y-141023597D01*
X125581514Y-140880740D01*
X125629133Y-140785501D01*
X126248180Y-140309311D02*
X125248180Y-140309311D01*
X126248180Y-139880740D02*
X125724371Y-139880740D01*
X125629133Y-139928359D01*
X125581514Y-140023597D01*
X125581514Y-140166454D01*
X125629133Y-140261692D01*
X125676752Y-140309311D01*
X126248180Y-138975978D02*
X125724371Y-138975978D01*
X125629133Y-139023597D01*
X125581514Y-139118835D01*
X125581514Y-139309311D01*
X125629133Y-139404549D01*
X126200561Y-138975978D02*
X126248180Y-139071216D01*
X126248180Y-139309311D01*
X126200561Y-139404549D01*
X126105323Y-139452168D01*
X126010085Y-139452168D01*
X125914847Y-139404549D01*
X125867228Y-139309311D01*
X125867228Y-139071216D01*
X125819609Y-138975978D01*
X125581514Y-138642644D02*
X125581514Y-138261692D01*
X126248180Y-138499787D02*
X125391038Y-138499787D01*
X125295800Y-138452168D01*
X125248180Y-138356930D01*
X125248180Y-138261692D01*
X125581514Y-138071216D02*
X125581514Y-137690263D01*
X125248180Y-137928359D02*
X126105323Y-137928359D01*
X126200561Y-137880740D01*
X126248180Y-137785501D01*
X126248180Y-137690263D01*
X126248180Y-136595025D02*
X125581514Y-136595025D01*
X125676752Y-136595025D02*
X125629133Y-136547406D01*
X125581514Y-136452168D01*
X125581514Y-136309311D01*
X125629133Y-136214073D01*
X125724371Y-136166454D01*
X126248180Y-136166454D01*
X125724371Y-136166454D02*
X125629133Y-136118835D01*
X125581514Y-136023597D01*
X125581514Y-135880740D01*
X125629133Y-135785501D01*
X125724371Y-135737882D01*
X126248180Y-135737882D01*
X126248180Y-135118835D02*
X126200561Y-135214073D01*
X126152942Y-135261692D01*
X126057704Y-135309311D01*
X125771990Y-135309311D01*
X125676752Y-135261692D01*
X125629133Y-135214073D01*
X125581514Y-135118835D01*
X125581514Y-134975978D01*
X125629133Y-134880740D01*
X125676752Y-134833120D01*
X125771990Y-134785501D01*
X126057704Y-134785501D01*
X126152942Y-134833120D01*
X126200561Y-134880740D01*
X126248180Y-134975978D01*
X126248180Y-135118835D01*
X125581514Y-134499787D02*
X125581514Y-134118835D01*
X125248180Y-134356930D02*
X126105323Y-134356930D01*
X126200561Y-134309311D01*
X126248180Y-134214073D01*
X126248180Y-134118835D01*
X126248180Y-133642644D02*
X126200561Y-133737882D01*
X126152942Y-133785501D01*
X126057704Y-133833120D01*
X125771990Y-133833120D01*
X125676752Y-133785501D01*
X125629133Y-133737882D01*
X125581514Y-133642644D01*
X125581514Y-133499787D01*
X125629133Y-133404549D01*
X125676752Y-133356930D01*
X125771990Y-133309311D01*
X126057704Y-133309311D01*
X126152942Y-133356930D01*
X126200561Y-133404549D01*
X126248180Y-133499787D01*
X126248180Y-133642644D01*
X126248180Y-132880740D02*
X125581514Y-132880740D01*
X125771990Y-132880740D02*
X125676752Y-132833120D01*
X125629133Y-132785501D01*
X125581514Y-132690263D01*
X125581514Y-132595025D01*
X95048180Y-152166454D02*
X94048180Y-152166454D01*
X94381514Y-151690263D02*
X95048180Y-151690263D01*
X94476752Y-151690263D02*
X94429133Y-151642644D01*
X94381514Y-151547406D01*
X94381514Y-151404549D01*
X94429133Y-151309311D01*
X94524371Y-151261692D01*
X95048180Y-151261692D01*
X94381514Y-150785501D02*
X95048180Y-150785501D01*
X94476752Y-150785501D02*
X94429133Y-150737882D01*
X94381514Y-150642644D01*
X94381514Y-150499787D01*
X94429133Y-150404549D01*
X94524371Y-150356930D01*
X95048180Y-150356930D01*
X95000561Y-149499787D02*
X95048180Y-149595025D01*
X95048180Y-149785501D01*
X95000561Y-149880740D01*
X94905323Y-149928359D01*
X94524371Y-149928359D01*
X94429133Y-149880740D01*
X94381514Y-149785501D01*
X94381514Y-149595025D01*
X94429133Y-149499787D01*
X94524371Y-149452168D01*
X94619609Y-149452168D01*
X94714847Y-149928359D01*
X95048180Y-149023597D02*
X94381514Y-149023597D01*
X94571990Y-149023597D02*
X94476752Y-148975978D01*
X94429133Y-148928359D01*
X94381514Y-148833120D01*
X94381514Y-148737882D01*
X95429133Y-147356930D02*
X95381514Y-147404549D01*
X95238657Y-147499787D01*
X95143419Y-147547406D01*
X95000561Y-147595025D01*
X94762466Y-147642644D01*
X94571990Y-147642644D01*
X94333895Y-147595025D01*
X94191038Y-147547406D01*
X94095800Y-147499787D01*
X93952942Y-147404549D01*
X93905323Y-147356930D01*
X95000561Y-147023597D02*
X95048180Y-146928359D01*
X95048180Y-146737882D01*
X95000561Y-146642644D01*
X94905323Y-146595025D01*
X94857704Y-146595025D01*
X94762466Y-146642644D01*
X94714847Y-146737882D01*
X94714847Y-146880740D01*
X94667228Y-146975978D01*
X94571990Y-147023597D01*
X94524371Y-147023597D01*
X94429133Y-146975978D01*
X94381514Y-146880740D01*
X94381514Y-146737882D01*
X94429133Y-146642644D01*
X94381514Y-146309311D02*
X94381514Y-145928359D01*
X94048180Y-146166454D02*
X94905323Y-146166454D01*
X95000561Y-146118835D01*
X95048180Y-146023597D01*
X95048180Y-145928359D01*
X95000561Y-145214073D02*
X95048180Y-145309311D01*
X95048180Y-145499787D01*
X95000561Y-145595025D01*
X94905323Y-145642644D01*
X94524371Y-145642644D01*
X94429133Y-145595025D01*
X94381514Y-145499787D01*
X94381514Y-145309311D01*
X94429133Y-145214073D01*
X94524371Y-145166454D01*
X94619609Y-145166454D01*
X94714847Y-145642644D01*
X95000561Y-144356930D02*
X95048180Y-144452168D01*
X95048180Y-144642644D01*
X95000561Y-144737882D01*
X94905323Y-144785501D01*
X94524371Y-144785501D01*
X94429133Y-144737882D01*
X94381514Y-144642644D01*
X94381514Y-144452168D01*
X94429133Y-144356930D01*
X94524371Y-144309311D01*
X94619609Y-144309311D01*
X94714847Y-144785501D01*
X95048180Y-143737882D02*
X95000561Y-143833120D01*
X94905323Y-143880740D01*
X94048180Y-143880740D01*
X95429133Y-143452168D02*
X95381514Y-143404549D01*
X95238657Y-143309311D01*
X95143419Y-143261692D01*
X95000561Y-143214073D01*
X94762466Y-143166454D01*
X94571990Y-143166454D01*
X94333895Y-143214073D01*
X94191038Y-143261692D01*
X94095800Y-143309311D01*
X93952942Y-143404549D01*
X93905323Y-143452168D01*
X95000561Y-141975978D02*
X95048180Y-141833120D01*
X95048180Y-141595025D01*
X95000561Y-141499787D01*
X94952942Y-141452168D01*
X94857704Y-141404549D01*
X94762466Y-141404549D01*
X94667228Y-141452168D01*
X94619609Y-141499787D01*
X94571990Y-141595025D01*
X94524371Y-141785501D01*
X94476752Y-141880740D01*
X94429133Y-141928359D01*
X94333895Y-141975978D01*
X94238657Y-141975978D01*
X94143419Y-141928359D01*
X94095800Y-141880740D01*
X94048180Y-141785501D01*
X94048180Y-141547406D01*
X94095800Y-141404549D01*
X95048180Y-140975978D02*
X94048180Y-140975978D01*
X95048180Y-140547406D02*
X94524371Y-140547406D01*
X94429133Y-140595025D01*
X94381514Y-140690263D01*
X94381514Y-140833120D01*
X94429133Y-140928359D01*
X94476752Y-140975978D01*
X95048180Y-139642644D02*
X94524371Y-139642644D01*
X94429133Y-139690263D01*
X94381514Y-139785501D01*
X94381514Y-139975978D01*
X94429133Y-140071216D01*
X95000561Y-139642644D02*
X95048180Y-139737882D01*
X95048180Y-139975978D01*
X95000561Y-140071216D01*
X94905323Y-140118835D01*
X94810085Y-140118835D01*
X94714847Y-140071216D01*
X94667228Y-139975978D01*
X94667228Y-139737882D01*
X94619609Y-139642644D01*
X94381514Y-139309311D02*
X94381514Y-138928359D01*
X95048180Y-139166454D02*
X94191038Y-139166454D01*
X94095800Y-139118835D01*
X94048180Y-139023597D01*
X94048180Y-138928359D01*
X94381514Y-138737882D02*
X94381514Y-138356930D01*
X94048180Y-138595025D02*
X94905323Y-138595025D01*
X95000561Y-138547406D01*
X95048180Y-138452168D01*
X95048180Y-138356930D01*
X95048180Y-137261692D02*
X94048180Y-137261692D01*
X94762466Y-136928359D01*
X94048180Y-136595025D01*
X95048180Y-136595025D01*
X95048180Y-135975978D02*
X95000561Y-136071216D01*
X94952942Y-136118835D01*
X94857704Y-136166454D01*
X94571990Y-136166454D01*
X94476752Y-136118835D01*
X94429133Y-136071216D01*
X94381514Y-135975978D01*
X94381514Y-135833120D01*
X94429133Y-135737882D01*
X94476752Y-135690263D01*
X94571990Y-135642644D01*
X94857704Y-135642644D01*
X94952942Y-135690263D01*
X95000561Y-135737882D01*
X95048180Y-135833120D01*
X95048180Y-135975978D01*
X94381514Y-135356930D02*
X94381514Y-134975978D01*
X94048180Y-135214073D02*
X94905323Y-135214073D01*
X95000561Y-135166454D01*
X95048180Y-135071216D01*
X95048180Y-134975978D01*
X95048180Y-134499787D02*
X95000561Y-134595025D01*
X94952942Y-134642644D01*
X94857704Y-134690263D01*
X94571990Y-134690263D01*
X94476752Y-134642644D01*
X94429133Y-134595025D01*
X94381514Y-134499787D01*
X94381514Y-134356930D01*
X94429133Y-134261692D01*
X94476752Y-134214073D01*
X94571990Y-134166454D01*
X94857704Y-134166454D01*
X94952942Y-134214073D01*
X95000561Y-134261692D01*
X95048180Y-134356930D01*
X95048180Y-134499787D01*
X95048180Y-133737882D02*
X94381514Y-133737882D01*
X94571990Y-133737882D02*
X94476752Y-133690263D01*
X94429133Y-133642644D01*
X94381514Y-133547406D01*
X94381514Y-133452168D01*
X95050561Y-108934073D02*
X95098180Y-108791216D01*
X95098180Y-108553120D01*
X95050561Y-108457882D01*
X95002942Y-108410263D01*
X94907704Y-108362644D01*
X94812466Y-108362644D01*
X94717228Y-108410263D01*
X94669609Y-108457882D01*
X94621990Y-108553120D01*
X94574371Y-108743597D01*
X94526752Y-108838835D01*
X94479133Y-108886454D01*
X94383895Y-108934073D01*
X94288657Y-108934073D01*
X94193419Y-108886454D01*
X94145800Y-108838835D01*
X94098180Y-108743597D01*
X94098180Y-108505501D01*
X94145800Y-108362644D01*
X94098180Y-108029311D02*
X95098180Y-107791216D01*
X94383895Y-107600740D01*
X95098180Y-107410263D01*
X94098180Y-107172168D01*
X95098180Y-106267406D02*
X95098180Y-106838835D01*
X95098180Y-106553120D02*
X94098180Y-106553120D01*
X94241038Y-106648359D01*
X94336276Y-106743597D01*
X94383895Y-106838835D01*
X81618180Y-111077406D02*
X81141990Y-111410740D01*
X81618180Y-111648835D02*
X80618180Y-111648835D01*
X80618180Y-111267882D01*
X80665800Y-111172644D01*
X80713419Y-111125025D01*
X80808657Y-111077406D01*
X80951514Y-111077406D01*
X81046752Y-111125025D01*
X81094371Y-111172644D01*
X81141990Y-111267882D01*
X81141990Y-111648835D01*
X80618180Y-110220263D02*
X80618180Y-110410740D01*
X80665800Y-110505978D01*
X80713419Y-110553597D01*
X80856276Y-110648835D01*
X81046752Y-110696454D01*
X81427704Y-110696454D01*
X81522942Y-110648835D01*
X81570561Y-110601216D01*
X81618180Y-110505978D01*
X81618180Y-110315501D01*
X81570561Y-110220263D01*
X81522942Y-110172644D01*
X81427704Y-110125025D01*
X81189609Y-110125025D01*
X81094371Y-110172644D01*
X81046752Y-110220263D01*
X80999133Y-110315501D01*
X80999133Y-110505978D01*
X81046752Y-110601216D01*
X81094371Y-110648835D01*
X81189609Y-110696454D01*
X90018180Y-124837406D02*
X89541990Y-125170740D01*
X90018180Y-125408835D02*
X89018180Y-125408835D01*
X89018180Y-125027882D01*
X89065800Y-124932644D01*
X89113419Y-124885025D01*
X89208657Y-124837406D01*
X89351514Y-124837406D01*
X89446752Y-124885025D01*
X89494371Y-124932644D01*
X89541990Y-125027882D01*
X89541990Y-125408835D01*
X89018180Y-123932644D02*
X89018180Y-124408835D01*
X89494371Y-124456454D01*
X89446752Y-124408835D01*
X89399133Y-124313597D01*
X89399133Y-124075501D01*
X89446752Y-123980263D01*
X89494371Y-123932644D01*
X89589609Y-123885025D01*
X89827704Y-123885025D01*
X89922942Y-123932644D01*
X89970561Y-123980263D01*
X90018180Y-124075501D01*
X90018180Y-124313597D01*
X89970561Y-124408835D01*
X89922942Y-124456454D01*
X89118180Y-120827406D02*
X88641990Y-121160740D01*
X89118180Y-121398835D02*
X88118180Y-121398835D01*
X88118180Y-121017882D01*
X88165800Y-120922644D01*
X88213419Y-120875025D01*
X88308657Y-120827406D01*
X88451514Y-120827406D01*
X88546752Y-120875025D01*
X88594371Y-120922644D01*
X88641990Y-121017882D01*
X88641990Y-121398835D01*
X88451514Y-119970263D02*
X89118180Y-119970263D01*
X88070561Y-120208359D02*
X88784847Y-120446454D01*
X88784847Y-119827406D01*
X87798180Y-106757406D02*
X87321990Y-107090740D01*
X87798180Y-107328835D02*
X86798180Y-107328835D01*
X86798180Y-106947882D01*
X86845800Y-106852644D01*
X86893419Y-106805025D01*
X86988657Y-106757406D01*
X87131514Y-106757406D01*
X87226752Y-106805025D01*
X87274371Y-106852644D01*
X87321990Y-106947882D01*
X87321990Y-107328835D01*
X86798180Y-106424073D02*
X86798180Y-105805025D01*
X87179133Y-106138359D01*
X87179133Y-105995501D01*
X87226752Y-105900263D01*
X87274371Y-105852644D01*
X87369609Y-105805025D01*
X87607704Y-105805025D01*
X87702942Y-105852644D01*
X87750561Y-105900263D01*
X87798180Y-105995501D01*
X87798180Y-106281216D01*
X87750561Y-106376454D01*
X87702942Y-106424073D01*
X128848180Y-126777406D02*
X128371990Y-127110740D01*
X128848180Y-127348835D02*
X127848180Y-127348835D01*
X127848180Y-126967882D01*
X127895800Y-126872644D01*
X127943419Y-126825025D01*
X128038657Y-126777406D01*
X128181514Y-126777406D01*
X128276752Y-126825025D01*
X128324371Y-126872644D01*
X128371990Y-126967882D01*
X128371990Y-127348835D01*
X127943419Y-126396454D02*
X127895800Y-126348835D01*
X127848180Y-126253597D01*
X127848180Y-126015501D01*
X127895800Y-125920263D01*
X127943419Y-125872644D01*
X128038657Y-125825025D01*
X128133895Y-125825025D01*
X128276752Y-125872644D01*
X128848180Y-126444073D01*
X128848180Y-125825025D01*
X63359133Y-145653120D02*
X63025800Y-145176930D01*
X62787704Y-145653120D02*
X62787704Y-144653120D01*
X63168657Y-144653120D01*
X63263895Y-144700740D01*
X63311514Y-144748359D01*
X63359133Y-144843597D01*
X63359133Y-144986454D01*
X63311514Y-145081692D01*
X63263895Y-145129311D01*
X63168657Y-145176930D01*
X62787704Y-145176930D01*
X64311514Y-145653120D02*
X63740085Y-145653120D01*
X64025800Y-145653120D02*
X64025800Y-144653120D01*
X63930561Y-144795978D01*
X63835323Y-144891216D01*
X63740085Y-144938835D01*
X127628180Y-118214073D02*
X128342466Y-118214073D01*
X128485323Y-118261692D01*
X128580561Y-118356930D01*
X128628180Y-118499787D01*
X128628180Y-118595025D01*
X128628180Y-117214073D02*
X128628180Y-117785501D01*
X128628180Y-117499787D02*
X127628180Y-117499787D01*
X127771038Y-117595025D01*
X127866276Y-117690263D01*
X127913895Y-117785501D01*
X86438180Y-111628835D02*
X85438180Y-111628835D01*
X85438180Y-111390740D01*
X85485800Y-111247882D01*
X85581038Y-111152644D01*
X85676276Y-111105025D01*
X85866752Y-111057406D01*
X86009609Y-111057406D01*
X86200085Y-111105025D01*
X86295323Y-111152644D01*
X86390561Y-111247882D01*
X86438180Y-111390740D01*
X86438180Y-111628835D01*
X86438180Y-110105025D02*
X86438180Y-110676454D01*
X86438180Y-110390740D02*
X85438180Y-110390740D01*
X85581038Y-110485978D01*
X85676276Y-110581216D01*
X85723895Y-110676454D01*
X79292942Y-117133597D02*
X79340561Y-117181216D01*
X79388180Y-117324073D01*
X79388180Y-117419311D01*
X79340561Y-117562168D01*
X79245323Y-117657406D01*
X79150085Y-117705025D01*
X78959609Y-117752644D01*
X78816752Y-117752644D01*
X78626276Y-117705025D01*
X78531038Y-117657406D01*
X78435800Y-117562168D01*
X78388180Y-117419311D01*
X78388180Y-117324073D01*
X78435800Y-117181216D01*
X78483419Y-117133597D01*
X78483419Y-116752644D02*
X78435800Y-116705025D01*
X78388180Y-116609787D01*
X78388180Y-116371692D01*
X78435800Y-116276454D01*
X78483419Y-116228835D01*
X78578657Y-116181216D01*
X78673895Y-116181216D01*
X78816752Y-116228835D01*
X79388180Y-116800263D01*
X79388180Y-116181216D01*
X79388180Y-115228835D02*
X79388180Y-115800263D01*
X79388180Y-115514549D02*
X78388180Y-115514549D01*
X78531038Y-115609787D01*
X78626276Y-115705025D01*
X78673895Y-115800263D01*
X74592942Y-117113597D02*
X74640561Y-117161216D01*
X74688180Y-117304073D01*
X74688180Y-117399311D01*
X74640561Y-117542168D01*
X74545323Y-117637406D01*
X74450085Y-117685025D01*
X74259609Y-117732644D01*
X74116752Y-117732644D01*
X73926276Y-117685025D01*
X73831038Y-117637406D01*
X73735800Y-117542168D01*
X73688180Y-117399311D01*
X73688180Y-117304073D01*
X73735800Y-117161216D01*
X73783419Y-117113597D01*
X73783419Y-116732644D02*
X73735800Y-116685025D01*
X73688180Y-116589787D01*
X73688180Y-116351692D01*
X73735800Y-116256454D01*
X73783419Y-116208835D01*
X73878657Y-116161216D01*
X73973895Y-116161216D01*
X74116752Y-116208835D01*
X74688180Y-116780263D01*
X74688180Y-116161216D01*
X73688180Y-115542168D02*
X73688180Y-115446930D01*
X73735800Y-115351692D01*
X73783419Y-115304073D01*
X73878657Y-115256454D01*
X74069133Y-115208835D01*
X74307228Y-115208835D01*
X74497704Y-115256454D01*
X74592942Y-115304073D01*
X74640561Y-115351692D01*
X74688180Y-115446930D01*
X74688180Y-115542168D01*
X74640561Y-115637406D01*
X74592942Y-115685025D01*
X74497704Y-115732644D01*
X74307228Y-115780263D01*
X74069133Y-115780263D01*
X73878657Y-115732644D01*
X73783419Y-115685025D01*
X73735800Y-115637406D01*
X73688180Y-115542168D01*
X121272942Y-172093597D02*
X121320561Y-172141216D01*
X121368180Y-172284073D01*
X121368180Y-172379311D01*
X121320561Y-172522168D01*
X121225323Y-172617406D01*
X121130085Y-172665025D01*
X120939609Y-172712644D01*
X120796752Y-172712644D01*
X120606276Y-172665025D01*
X120511038Y-172617406D01*
X120415800Y-172522168D01*
X120368180Y-172379311D01*
X120368180Y-172284073D01*
X120415800Y-172141216D01*
X120463419Y-172093597D01*
X121368180Y-171141216D02*
X121368180Y-171712644D01*
X121368180Y-171426930D02*
X120368180Y-171426930D01*
X120511038Y-171522168D01*
X120606276Y-171617406D01*
X120653895Y-171712644D01*
X121368180Y-170665025D02*
X121368180Y-170474549D01*
X121320561Y-170379311D01*
X121272942Y-170331692D01*
X121130085Y-170236454D01*
X120939609Y-170188835D01*
X120558657Y-170188835D01*
X120463419Y-170236454D01*
X120415800Y-170284073D01*
X120368180Y-170379311D01*
X120368180Y-170569787D01*
X120415800Y-170665025D01*
X120463419Y-170712644D01*
X120558657Y-170760263D01*
X120796752Y-170760263D01*
X120891990Y-170712644D01*
X120939609Y-170665025D01*
X120987228Y-170569787D01*
X120987228Y-170379311D01*
X120939609Y-170284073D01*
X120891990Y-170236454D01*
X120796752Y-170188835D01*
X117232942Y-167157882D02*
X117185323Y-167205501D01*
X117042466Y-167253120D01*
X116947228Y-167253120D01*
X116804371Y-167205501D01*
X116709133Y-167110263D01*
X116661514Y-167015025D01*
X116613895Y-166824549D01*
X116613895Y-166681692D01*
X116661514Y-166491216D01*
X116709133Y-166395978D01*
X116804371Y-166300740D01*
X116947228Y-166253120D01*
X117042466Y-166253120D01*
X117185323Y-166300740D01*
X117232942Y-166348359D01*
X118185323Y-167253120D02*
X117613895Y-167253120D01*
X117899609Y-167253120D02*
X117899609Y-166253120D01*
X117804371Y-166395978D01*
X117709133Y-166491216D01*
X117613895Y-166538835D01*
X118756752Y-166681692D02*
X118661514Y-166634073D01*
X118613895Y-166586454D01*
X118566276Y-166491216D01*
X118566276Y-166443597D01*
X118613895Y-166348359D01*
X118661514Y-166300740D01*
X118756752Y-166253120D01*
X118947228Y-166253120D01*
X119042466Y-166300740D01*
X119090085Y-166348359D01*
X119137704Y-166443597D01*
X119137704Y-166491216D01*
X119090085Y-166586454D01*
X119042466Y-166634073D01*
X118947228Y-166681692D01*
X118756752Y-166681692D01*
X118661514Y-166729311D01*
X118613895Y-166776930D01*
X118566276Y-166872168D01*
X118566276Y-167062644D01*
X118613895Y-167157882D01*
X118661514Y-167205501D01*
X118756752Y-167253120D01*
X118947228Y-167253120D01*
X119042466Y-167205501D01*
X119090085Y-167157882D01*
X119137704Y-167062644D01*
X119137704Y-166872168D01*
X119090085Y-166776930D01*
X119042466Y-166729311D01*
X118947228Y-166681692D01*
X103392942Y-118937882D02*
X103345323Y-118985501D01*
X103202466Y-119033120D01*
X103107228Y-119033120D01*
X102964371Y-118985501D01*
X102869133Y-118890263D01*
X102821514Y-118795025D01*
X102773895Y-118604549D01*
X102773895Y-118461692D01*
X102821514Y-118271216D01*
X102869133Y-118175978D01*
X102964371Y-118080740D01*
X103107228Y-118033120D01*
X103202466Y-118033120D01*
X103345323Y-118080740D01*
X103392942Y-118128359D01*
X104345323Y-119033120D02*
X103773895Y-119033120D01*
X104059609Y-119033120D02*
X104059609Y-118033120D01*
X103964371Y-118175978D01*
X103869133Y-118271216D01*
X103773895Y-118318835D01*
X104678657Y-118033120D02*
X105345323Y-118033120D01*
X104916752Y-119033120D01*
X103332942Y-116727882D02*
X103285323Y-116775501D01*
X103142466Y-116823120D01*
X103047228Y-116823120D01*
X102904371Y-116775501D01*
X102809133Y-116680263D01*
X102761514Y-116585025D01*
X102713895Y-116394549D01*
X102713895Y-116251692D01*
X102761514Y-116061216D01*
X102809133Y-115965978D01*
X102904371Y-115870740D01*
X103047228Y-115823120D01*
X103142466Y-115823120D01*
X103285323Y-115870740D01*
X103332942Y-115918359D01*
X104285323Y-116823120D02*
X103713895Y-116823120D01*
X103999609Y-116823120D02*
X103999609Y-115823120D01*
X103904371Y-115965978D01*
X103809133Y-116061216D01*
X103713895Y-116108835D01*
X105142466Y-115823120D02*
X104951990Y-115823120D01*
X104856752Y-115870740D01*
X104809133Y-115918359D01*
X104713895Y-116061216D01*
X104666276Y-116251692D01*
X104666276Y-116632644D01*
X104713895Y-116727882D01*
X104761514Y-116775501D01*
X104856752Y-116823120D01*
X105047228Y-116823120D01*
X105142466Y-116775501D01*
X105190085Y-116727882D01*
X105237704Y-116632644D01*
X105237704Y-116394549D01*
X105190085Y-116299311D01*
X105142466Y-116251692D01*
X105047228Y-116204073D01*
X104856752Y-116204073D01*
X104761514Y-116251692D01*
X104713895Y-116299311D01*
X104666276Y-116394549D01*
X75392942Y-158987882D02*
X75345323Y-159035501D01*
X75202466Y-159083120D01*
X75107228Y-159083120D01*
X74964371Y-159035501D01*
X74869133Y-158940263D01*
X74821514Y-158845025D01*
X74773895Y-158654549D01*
X74773895Y-158511692D01*
X74821514Y-158321216D01*
X74869133Y-158225978D01*
X74964371Y-158130740D01*
X75107228Y-158083120D01*
X75202466Y-158083120D01*
X75345323Y-158130740D01*
X75392942Y-158178359D01*
X76345323Y-159083120D02*
X75773895Y-159083120D01*
X76059609Y-159083120D02*
X76059609Y-158083120D01*
X75964371Y-158225978D01*
X75869133Y-158321216D01*
X75773895Y-158368835D01*
X76726276Y-158178359D02*
X76773895Y-158130740D01*
X76869133Y-158083120D01*
X77107228Y-158083120D01*
X77202466Y-158130740D01*
X77250085Y-158178359D01*
X77297704Y-158273597D01*
X77297704Y-158368835D01*
X77250085Y-158511692D01*
X76678657Y-159083120D01*
X77297704Y-159083120D01*
X72274847Y-157122168D02*
X73036752Y-157122168D01*
X72655800Y-157503120D02*
X72655800Y-156741216D01*
X72274847Y-157122168D02*
X73036752Y-157122168D01*
X72655800Y-157503120D02*
X72655800Y-156741216D01*
X63212942Y-147783597D02*
X63260561Y-147831216D01*
X63308180Y-147974073D01*
X63308180Y-148069311D01*
X63260561Y-148212168D01*
X63165323Y-148307406D01*
X63070085Y-148355025D01*
X62879609Y-148402644D01*
X62736752Y-148402644D01*
X62546276Y-148355025D01*
X62451038Y-148307406D01*
X62355800Y-148212168D01*
X62308180Y-148069311D01*
X62308180Y-147974073D01*
X62355800Y-147831216D01*
X62403419Y-147783597D01*
X63308180Y-146831216D02*
X63308180Y-147402644D01*
X63308180Y-147116930D02*
X62308180Y-147116930D01*
X62451038Y-147212168D01*
X62546276Y-147307406D01*
X62593895Y-147402644D01*
X62308180Y-146212168D02*
X62308180Y-146116930D01*
X62355800Y-146021692D01*
X62403419Y-145974073D01*
X62498657Y-145926454D01*
X62689133Y-145878835D01*
X62927228Y-145878835D01*
X63117704Y-145926454D01*
X63212942Y-145974073D01*
X63260561Y-146021692D01*
X63308180Y-146116930D01*
X63308180Y-146212168D01*
X63260561Y-146307406D01*
X63212942Y-146355025D01*
X63117704Y-146402644D01*
X62927228Y-146450263D01*
X62689133Y-146450263D01*
X62498657Y-146402644D01*
X62403419Y-146355025D01*
X62355800Y-146307406D01*
X62308180Y-146212168D01*
X91949133Y-113857882D02*
X91901514Y-113905501D01*
X91758657Y-113953120D01*
X91663419Y-113953120D01*
X91520561Y-113905501D01*
X91425323Y-113810263D01*
X91377704Y-113715025D01*
X91330085Y-113524549D01*
X91330085Y-113381692D01*
X91377704Y-113191216D01*
X91425323Y-113095978D01*
X91520561Y-113000740D01*
X91663419Y-112953120D01*
X91758657Y-112953120D01*
X91901514Y-113000740D01*
X91949133Y-113048359D01*
X92806276Y-113286454D02*
X92806276Y-113953120D01*
X92568180Y-112905501D02*
X92330085Y-113619787D01*
X92949133Y-113619787D01*
X77332942Y-138207406D02*
X77380561Y-138255025D01*
X77428180Y-138397882D01*
X77428180Y-138493120D01*
X77380561Y-138635978D01*
X77285323Y-138731216D01*
X77190085Y-138778835D01*
X76999609Y-138826454D01*
X76856752Y-138826454D01*
X76666276Y-138778835D01*
X76571038Y-138731216D01*
X76475800Y-138635978D01*
X76428180Y-138493120D01*
X76428180Y-138397882D01*
X76475800Y-138255025D01*
X76523419Y-138207406D01*
X76428180Y-137874073D02*
X76428180Y-137255025D01*
X76809133Y-137588359D01*
X76809133Y-137445501D01*
X76856752Y-137350263D01*
X76904371Y-137302644D01*
X76999609Y-137255025D01*
X77237704Y-137255025D01*
X77332942Y-137302644D01*
X77380561Y-137350263D01*
X77428180Y-137445501D01*
X77428180Y-137731216D01*
X77380561Y-137826454D01*
X77332942Y-137874073D01*
M02*
